G04*
G04 #@! TF.GenerationSoftware,Altium Limited,Altium Designer,23.5.1 (21)*
G04*
G04 Layer_Color=16711935*
%FSLAX25Y25*%
%MOIN*%
G70*
G04*
G04 #@! TF.SameCoordinates,508BA793-0958-4452-B0AF-20FDD5A17331*
G04*
G04*
G04 #@! TF.FilePolarity,Negative*
G04*
G01*
G75*
%ADD15R,0.01575X0.01968*%
%ADD16C,0.06706*%
%ADD17R,0.06706X0.06706*%
G04:AMPARAMS|DCode=18|XSize=94.49mil|YSize=196.85mil|CornerRadius=47.24mil|HoleSize=0mil|Usage=FLASHONLY|Rotation=180.000|XOffset=0mil|YOffset=0mil|HoleType=Round|Shape=RoundedRectangle|*
%AMROUNDEDRECTD18*
21,1,0.09449,0.10236,0,0,180.0*
21,1,0.00000,0.19685,0,0,180.0*
1,1,0.09449,0.00000,0.05118*
1,1,0.09449,0.00000,0.05118*
1,1,0.09449,0.00000,-0.05118*
1,1,0.09449,0.00000,-0.05118*
%
%ADD18ROUNDEDRECTD18*%
%ADD19C,0.06102*%
%ADD20R,0.06102X0.06102*%
%ADD21C,0.07099*%
%ADD22R,0.07099X0.07099*%
%ADD23C,0.03162*%
%ADD24C,0.04800*%
%ADD25C,0.04737*%
%ADD26C,0.08800*%
%ADD27C,0.02769*%
%ADD28C,0.05300*%
G04:AMPARAMS|DCode=49|XSize=74.98mil|YSize=22.36mil|CornerRadius=11.18mil|HoleSize=0mil|Usage=FLASHONLY|Rotation=180.000|XOffset=0mil|YOffset=0mil|HoleType=Round|Shape=RoundedRectangle|*
%AMROUNDEDRECTD49*
21,1,0.07498,0.00000,0,0,180.0*
21,1,0.05262,0.02236,0,0,180.0*
1,1,0.02236,-0.02631,0.00000*
1,1,0.02236,0.02631,0.00000*
1,1,0.02236,0.02631,0.00000*
1,1,0.02236,-0.02631,0.00000*
%
%ADD49ROUNDEDRECTD49*%
%ADD50R,0.07498X0.02236*%
%ADD52R,0.01968X0.01575*%
%ADD53R,0.03260X0.03174*%
%ADD54R,0.02182X0.01822*%
%ADD57R,0.12795X0.08465*%
%ADD58R,0.03740X0.08465*%
%ADD59R,0.06127X0.06213*%
G04:AMPARAMS|DCode=65|XSize=55.12mil|YSize=47.24mil|CornerRadius=0mil|HoleSize=0mil|Usage=FLASHONLY|Rotation=225.000|XOffset=0mil|YOffset=0mil|HoleType=Round|Shape=Rectangle|*
%AMROTATEDRECTD65*
4,1,4,0.00278,0.03619,0.03619,0.00278,-0.00278,-0.03619,-0.03619,-0.00278,0.00278,0.03619,0.0*
%
%ADD65ROTATEDRECTD65*%

%ADD74R,0.10839X0.10642*%
%ADD75R,0.10839X0.10642*%
%ADD76R,0.07887X0.04028*%
%ADD77O,0.01587X0.04343*%
%ADD78R,0.03162X0.02769*%
%ADD79R,0.03359X0.03359*%
%ADD80R,0.04343X0.02473*%
G04:AMPARAMS|DCode=81|XSize=37.92mil|YSize=34mil|CornerRadius=7.25mil|HoleSize=0mil|Usage=FLASHONLY|Rotation=180.000|XOffset=0mil|YOffset=0mil|HoleType=Round|Shape=RoundedRectangle|*
%AMROUNDEDRECTD81*
21,1,0.03792,0.01950,0,0,180.0*
21,1,0.02342,0.03400,0,0,180.0*
1,1,0.01450,-0.01171,0.00975*
1,1,0.01450,0.01171,0.00975*
1,1,0.01450,0.01171,-0.00975*
1,1,0.01450,-0.01171,-0.00975*
%
%ADD81ROUNDEDRECTD81*%
G04:AMPARAMS|DCode=82|XSize=41.47mil|YSize=37.53mil|CornerRadius=0mil|HoleSize=0mil|Usage=FLASHONLY|Rotation=315.000|XOffset=0mil|YOffset=0mil|HoleType=Round|Shape=Rectangle|*
%AMROTATEDRECTD82*
4,1,4,-0.02793,0.00139,-0.00139,0.02793,0.02793,-0.00139,0.00139,-0.02793,-0.02793,0.00139,0.0*
%
%ADD82ROTATEDRECTD82*%

%ADD83O,0.07493X0.03162*%
%ADD84R,0.13005X0.13005*%
%ADD85O,0.04343X0.01587*%
G04:AMPARAMS|DCode=86|XSize=41.47mil|YSize=37.53mil|CornerRadius=0mil|HoleSize=0mil|Usage=FLASHONLY|Rotation=45.000|XOffset=0mil|YOffset=0mil|HoleType=Round|Shape=Rectangle|*
%AMROTATEDRECTD86*
4,1,4,-0.00139,-0.02793,-0.02793,-0.00139,0.00139,0.02793,0.02793,0.00139,-0.00139,-0.02793,0.0*
%
%ADD86ROTATEDRECTD86*%

%ADD87R,0.04540X0.03162*%
D15*
X376425Y550000D02*
D03*
X379575D02*
D03*
X465244Y606294D02*
D03*
X462094D02*
D03*
X504701Y593902D02*
D03*
X507850D02*
D03*
X508575Y581000D02*
D03*
X505425D02*
D03*
X465911Y595238D02*
D03*
X462761D02*
D03*
X466575Y579000D02*
D03*
X463425D02*
D03*
X471669Y618294D02*
D03*
X468520D02*
D03*
X300575Y550000D02*
D03*
X297425D02*
D03*
X47403Y538523D02*
D03*
X50552D02*
D03*
X659575Y549000D02*
D03*
X656425D02*
D03*
X590575Y550000D02*
D03*
X587425D02*
D03*
X520575Y550000D02*
D03*
X517425D02*
D03*
X448575Y550000D02*
D03*
X445425D02*
D03*
X224575D02*
D03*
X221425D02*
D03*
X150575D02*
D03*
X147425D02*
D03*
D16*
X229189Y580165D02*
D03*
X244937D02*
D03*
X237063D02*
D03*
D17*
X252811D02*
D03*
D18*
X1496309Y545000D02*
D03*
X1541191D02*
D03*
D19*
X1508907Y574528D02*
D03*
X1518750D02*
D03*
X1508907Y517441D02*
D03*
X1528593D02*
D03*
D20*
Y574528D02*
D03*
D21*
X87000Y538750D02*
D03*
Y548750D02*
D03*
Y558750D02*
D03*
D22*
Y528750D02*
D03*
D23*
X519000Y554000D02*
D03*
X484955Y559185D02*
D03*
X479257Y559185D02*
D03*
X506942Y550036D02*
D03*
X502000Y550000D02*
D03*
X508916Y569187D02*
D03*
X487136Y553135D02*
D03*
X490000Y575000D02*
D03*
X1506000Y617000D02*
D03*
X1489849Y616764D02*
D03*
X1384000Y615000D02*
D03*
X1378000D02*
D03*
X1372000D02*
D03*
X1209000D02*
D03*
X1203000D02*
D03*
X1197000D02*
D03*
X1512000Y587819D02*
D03*
X1491000D02*
D03*
X543181Y525610D02*
D03*
X1139000Y613000D02*
D03*
X1498000Y616000D02*
D03*
X1245267Y66000D02*
D03*
X1292042Y170958D02*
D03*
X1370000Y420000D02*
D03*
X1375279Y134226D02*
D03*
X326181Y528000D02*
D03*
X356000Y396000D02*
D03*
X401000Y332000D02*
D03*
X416212Y518521D02*
D03*
X482000Y524000D02*
D03*
X975000Y576000D02*
D03*
X57978Y552006D02*
D03*
X55303Y538540D02*
D03*
X36823Y536881D02*
D03*
X132000Y519000D02*
D03*
X126000D02*
D03*
X120000D02*
D03*
X59000D02*
D03*
X53000D02*
D03*
X47000D02*
D03*
X61000Y579000D02*
D03*
X55000D02*
D03*
X49000D02*
D03*
X126000Y580000D02*
D03*
X120000D02*
D03*
X114000D02*
D03*
X192000Y579000D02*
D03*
X186000D02*
D03*
X180000D02*
D03*
X451000Y615000D02*
D03*
X445000D02*
D03*
X439000D02*
D03*
X415000Y604000D02*
D03*
X409000D02*
D03*
X403000D02*
D03*
X377000D02*
D03*
X371000D02*
D03*
X365000D02*
D03*
X457843Y600484D02*
D03*
X459978Y595253D02*
D03*
X457323Y606290D02*
D03*
X458751Y578249D02*
D03*
X443000Y586000D02*
D03*
X447197Y590675D02*
D03*
X461964Y588232D02*
D03*
X457000Y586000D02*
D03*
X453000Y583000D02*
D03*
X451000Y595000D02*
D03*
X288000Y502000D02*
D03*
X282000D02*
D03*
X276000D02*
D03*
X212000D02*
D03*
X206000D02*
D03*
X200000D02*
D03*
X315000Y174000D02*
D03*
X309000D02*
D03*
X303000D02*
D03*
X856366Y424042D02*
D03*
X862366D02*
D03*
X868366D02*
D03*
X969000D02*
D03*
X975000D02*
D03*
X981000D02*
D03*
X1372000Y447000D02*
D03*
X1378000D02*
D03*
X1384000D02*
D03*
X1128000D02*
D03*
X1134000D02*
D03*
X1140000D02*
D03*
X1197000Y545000D02*
D03*
X1203000D02*
D03*
X1209000D02*
D03*
X1121000Y544000D02*
D03*
X1127000D02*
D03*
X1133000D02*
D03*
X792000Y580362D02*
D03*
X768000Y598000D02*
D03*
X932000Y576000D02*
D03*
X938000D02*
D03*
X944000D02*
D03*
X1006000D02*
D03*
X1012000D02*
D03*
X1018000D02*
D03*
X868000D02*
D03*
X862000D02*
D03*
X856000D02*
D03*
X125000Y269000D02*
D03*
X131000D02*
D03*
X137000D02*
D03*
X1513000Y264000D02*
D03*
X1519000D02*
D03*
X1525000D02*
D03*
X856000Y271000D02*
D03*
X862000D02*
D03*
X868000D02*
D03*
X932000Y331000D02*
D03*
X938000D02*
D03*
X944000D02*
D03*
X1026000Y256000D02*
D03*
X1032000D02*
D03*
X1038000D02*
D03*
X631000Y271000D02*
D03*
X637000D02*
D03*
X643000D02*
D03*
X384868Y209235D02*
D03*
X380819Y205566D02*
D03*
X483000Y553000D02*
D03*
X482996Y542996D02*
D03*
X474000Y565000D02*
D03*
X464000Y545000D02*
D03*
X435180Y542681D02*
D03*
Y536880D02*
D03*
X439000Y557000D02*
D03*
X442000Y550181D02*
D03*
X435000Y549000D02*
D03*
X448660Y536643D02*
D03*
X482000Y537000D02*
D03*
X498000Y566078D02*
D03*
X287000Y228000D02*
D03*
X374000Y254000D02*
D03*
X832736Y320736D02*
D03*
X758000Y321000D02*
D03*
X681000Y323000D02*
D03*
X495000Y402000D02*
D03*
X531000Y407000D02*
D03*
X525000D02*
D03*
X519000D02*
D03*
X570000Y401000D02*
D03*
X645000Y399000D02*
D03*
X587000Y254000D02*
D03*
X581000D02*
D03*
X575000D02*
D03*
X62000Y435000D02*
D03*
X56000D02*
D03*
X50000D02*
D03*
X62000Y409000D02*
D03*
X56000D02*
D03*
X50000D02*
D03*
X62000Y271000D02*
D03*
X56000D02*
D03*
X50000D02*
D03*
X212000D02*
D03*
X206000D02*
D03*
X200000D02*
D03*
X287000Y302000D02*
D03*
X281000D02*
D03*
X275000D02*
D03*
X810312Y89385D02*
D03*
X804313D02*
D03*
X798313D02*
D03*
X437000Y567000D02*
D03*
X443000D02*
D03*
X449000D02*
D03*
X1328000Y117000D02*
D03*
X1322000D02*
D03*
X1316000D02*
D03*
X850000D02*
D03*
X844000D02*
D03*
X838000D02*
D03*
X463800Y618253D02*
D03*
X463686Y614606D02*
D03*
X287078Y423080D02*
D03*
X281078D02*
D03*
X275078D02*
D03*
X59000Y609000D02*
D03*
X53000D02*
D03*
X47000D02*
D03*
X700000Y502000D02*
D03*
X694000D02*
D03*
X688000D02*
D03*
X625000D02*
D03*
X619000D02*
D03*
X613000D02*
D03*
X737000Y569000D02*
D03*
X731000D02*
D03*
X725000D02*
D03*
X683000D02*
D03*
X677000D02*
D03*
X671000D02*
D03*
X614000D02*
D03*
X608000D02*
D03*
X602000D02*
D03*
X532000Y568000D02*
D03*
X526000D02*
D03*
X520000D02*
D03*
X415000Y567000D02*
D03*
X409000D02*
D03*
X403000D02*
D03*
X378000D02*
D03*
X372000D02*
D03*
X366000D02*
D03*
X1525000Y90000D02*
D03*
X1519000D02*
D03*
X1513000D02*
D03*
X1374000D02*
D03*
X1368000D02*
D03*
X1362000D02*
D03*
X25000Y43000D02*
D03*
X19000D02*
D03*
X13000D02*
D03*
X41000Y28000D02*
D03*
X47000D02*
D03*
X53000D02*
D03*
X145000Y84000D02*
D03*
X151000D02*
D03*
X157000D02*
D03*
X300000Y121000D02*
D03*
X306000D02*
D03*
X312000D02*
D03*
X274500Y78500D02*
D03*
X280500D02*
D03*
X286500D02*
D03*
X275000Y228000D02*
D03*
X281000D02*
D03*
X447000Y214000D02*
D03*
X453000D02*
D03*
X459000D02*
D03*
X416000Y117000D02*
D03*
X422000D02*
D03*
X428000D02*
D03*
X387500Y266000D02*
D03*
X393500D02*
D03*
X399500D02*
D03*
X847000Y40000D02*
D03*
X853000D02*
D03*
X859000D02*
D03*
X1438000Y22000D02*
D03*
X1444000D02*
D03*
X1450000D02*
D03*
X1353000Y150000D02*
D03*
X1359000D02*
D03*
X1365000D02*
D03*
X1391000Y131000D02*
D03*
X1397000D02*
D03*
X1403000D02*
D03*
X1298000Y225000D02*
D03*
X1304000D02*
D03*
X1310000D02*
D03*
X1432000D02*
D03*
X1438000D02*
D03*
X1444000D02*
D03*
X1435000Y374000D02*
D03*
X1441000D02*
D03*
X1447000D02*
D03*
X1372000Y560000D02*
D03*
X1378000D02*
D03*
X1384000D02*
D03*
X1372000Y469000D02*
D03*
X1378000D02*
D03*
X1384000D02*
D03*
X1213000D02*
D03*
X1219000D02*
D03*
X1225000D02*
D03*
X688000Y434000D02*
D03*
X694000D02*
D03*
X700000D02*
D03*
X613000D02*
D03*
X619000D02*
D03*
X625000D02*
D03*
X443000Y408000D02*
D03*
X449000D02*
D03*
X455000D02*
D03*
X463000Y438000D02*
D03*
X469000D02*
D03*
X475000D02*
D03*
X369000D02*
D03*
X375000D02*
D03*
X381000D02*
D03*
X369000Y408000D02*
D03*
X375000D02*
D03*
X381000D02*
D03*
X200026Y422841D02*
D03*
X206027D02*
D03*
X212027D02*
D03*
X519000Y68000D02*
D03*
X525000D02*
D03*
X531000D02*
D03*
X1296000Y334000D02*
D03*
X1302000D02*
D03*
X1308000D02*
D03*
X1513000Y422000D02*
D03*
X1519000D02*
D03*
X1525000D02*
D03*
X893465Y102362D02*
D03*
X899465D02*
D03*
X905465D02*
D03*
X534507Y528012D02*
D03*
X1537000Y359000D02*
D03*
X494000Y615000D02*
D03*
X484339Y615086D02*
D03*
X484065Y601367D02*
D03*
X259000Y535217D02*
D03*
X1118978Y600978D02*
D03*
X979000Y601000D02*
D03*
X522708Y535418D02*
D03*
X755000Y595000D02*
D03*
X998000Y596000D02*
D03*
X898000Y604000D02*
D03*
Y609000D02*
D03*
X775409Y600952D02*
D03*
X847000Y601000D02*
D03*
X585000Y509000D02*
D03*
X580000D02*
D03*
X593000D02*
D03*
X315746Y527855D02*
D03*
X303598Y537143D02*
D03*
X335104Y537166D02*
D03*
X401268Y528001D02*
D03*
X393590Y527798D02*
D03*
X470404Y528088D02*
D03*
X554849Y521735D02*
D03*
X586199Y521587D02*
D03*
X693234Y527798D02*
D03*
X967000Y609000D02*
D03*
X966439Y597199D02*
D03*
X997000Y609000D02*
D03*
X1056000Y601000D02*
D03*
X554000Y537000D02*
D03*
X71000Y523000D02*
D03*
X47000Y549000D02*
D03*
X70925Y528156D02*
D03*
X373000Y245000D02*
D03*
X253000Y132000D02*
D03*
X788000Y573000D02*
D03*
X1445000Y453000D02*
D03*
X1443000Y528000D02*
D03*
X745000Y502000D02*
D03*
X742000Y499000D02*
D03*
Y505000D02*
D03*
X294125Y550300D02*
D03*
X372484Y550363D02*
D03*
X1127000Y601000D02*
D03*
Y606000D02*
D03*
X1106038Y609319D02*
D03*
X1139000Y597000D02*
D03*
X1069144Y595914D02*
D03*
X1049000Y606000D02*
D03*
X1056000D02*
D03*
X1048070Y600984D02*
D03*
X1037000Y609000D02*
D03*
X986708Y601086D02*
D03*
X984000Y606000D02*
D03*
X980000D02*
D03*
X930000Y609000D02*
D03*
X929000Y605000D02*
D03*
X918000Y598000D02*
D03*
X915000Y601000D02*
D03*
X911000D02*
D03*
X860000Y597000D02*
D03*
Y608181D02*
D03*
X845000Y606000D02*
D03*
X841000D02*
D03*
X828000Y609000D02*
D03*
X773000Y605000D02*
D03*
X769000D02*
D03*
X625000Y523000D02*
D03*
X612000Y528000D02*
D03*
X660801Y522801D02*
D03*
X674000Y528000D02*
D03*
X675000Y533000D02*
D03*
X679000D02*
D03*
X693000Y536000D02*
D03*
X661000D02*
D03*
X594000D02*
D03*
X589000Y509000D02*
D03*
X592488Y523041D02*
D03*
X592521Y532521D02*
D03*
X171000Y532000D02*
D03*
X174000Y526000D02*
D03*
X167000Y532000D02*
D03*
X179181Y491000D02*
D03*
X189880Y525830D02*
D03*
X241000Y532000D02*
D03*
X246000D02*
D03*
X237203Y529606D02*
D03*
X259715Y523041D02*
D03*
X322913Y532711D02*
D03*
X316717Y532624D02*
D03*
X399936Y532354D02*
D03*
X395189Y532162D02*
D03*
X414031Y537169D02*
D03*
X451000Y524000D02*
D03*
X461819Y528000D02*
D03*
X464000Y533000D02*
D03*
X469000D02*
D03*
X542000D02*
D03*
X535000D02*
D03*
X421000Y395000D02*
D03*
X251000Y491000D02*
D03*
X345000Y490000D02*
D03*
X251752Y397533D02*
D03*
X306000Y566000D02*
D03*
X299000D02*
D03*
X292000D02*
D03*
X1050000Y419000D02*
D03*
X1068000Y609000D02*
D03*
X787485Y608163D02*
D03*
X755000Y608000D02*
D03*
X736628Y545352D02*
D03*
X312000Y272000D02*
D03*
X306000D02*
D03*
X300000D02*
D03*
X1244000Y264000D02*
D03*
X1238000D02*
D03*
X1232000D02*
D03*
X757767Y491117D02*
D03*
X589000Y150000D02*
D03*
X664000D02*
D03*
X739000D02*
D03*
X814000D02*
D03*
X889000D02*
D03*
X964000D02*
D03*
X1039000D02*
D03*
X1114000D02*
D03*
X1189000D02*
D03*
X1348505Y225039D02*
D03*
X1053000Y416000D02*
D03*
X720000Y397000D02*
D03*
X794659Y397321D02*
D03*
X1020000Y397000D02*
D03*
X945000Y396000D02*
D03*
X870000Y397000D02*
D03*
X363000Y321000D02*
D03*
X176969Y395737D02*
D03*
X176547Y323229D02*
D03*
X225000Y525000D02*
D03*
X224197Y535266D02*
D03*
X101449Y396072D02*
D03*
X26428Y395024D02*
D03*
X26163Y246437D02*
D03*
X101474Y247911D02*
D03*
X176306Y247177D02*
D03*
X176616Y169903D02*
D03*
X101460Y169723D02*
D03*
X26379Y169224D02*
D03*
X64068Y95886D02*
D03*
X176628Y95183D02*
D03*
X354000Y96000D02*
D03*
X448000Y95000D02*
D03*
X531879Y88077D02*
D03*
X823413Y95352D02*
D03*
X1095000Y94000D02*
D03*
X1170000Y96000D02*
D03*
X1414000Y131000D02*
D03*
X1339000Y77000D02*
D03*
X1489000Y81000D02*
D03*
X1414000D02*
D03*
X1537000Y209000D02*
D03*
X1489000Y248000D02*
D03*
X1537000Y284000D02*
D03*
X1376632Y321499D02*
D03*
X1282486Y319630D02*
D03*
X1245000Y396000D02*
D03*
X1208000Y318000D02*
D03*
X1132481Y319771D02*
D03*
X1058000Y321000D02*
D03*
X908000Y300000D02*
D03*
X983000D02*
D03*
X607719Y299968D02*
D03*
X533000Y300000D02*
D03*
X551392Y224973D02*
D03*
X626470Y224931D02*
D03*
X701350Y224992D02*
D03*
X776722Y224954D02*
D03*
X851426Y225014D02*
D03*
X1526000Y587000D02*
D03*
X1507000D02*
D03*
X653000Y549000D02*
D03*
X584000Y550000D02*
D03*
X218000D02*
D03*
X379631Y536643D02*
D03*
X98000Y319000D02*
D03*
X18000Y310000D02*
D03*
X134000Y539000D02*
D03*
X151465Y513192D02*
D03*
X1550000Y328000D02*
D03*
X1077000Y495000D02*
D03*
X573470Y559155D02*
D03*
X573129Y589129D02*
D03*
X568000Y589000D02*
D03*
X562757Y588757D02*
D03*
X248000Y285000D02*
D03*
X1492000Y502000D02*
D03*
X1227000Y251000D02*
D03*
X788231Y595955D02*
D03*
X1151392Y252392D02*
D03*
X1077000Y255000D02*
D03*
X1001000Y213000D02*
D03*
X926000D02*
D03*
X839000Y601000D02*
D03*
X827000Y596000D02*
D03*
X757368Y573632D02*
D03*
X608000Y533000D02*
D03*
X1227000Y526000D02*
D03*
X164311Y526153D02*
D03*
X1068000Y561000D02*
D03*
X909000Y596000D02*
D03*
X1036401Y595914D02*
D03*
X1150000Y496000D02*
D03*
X1300000Y501000D02*
D03*
X1226000Y499000D02*
D03*
X1361000Y504000D02*
D03*
X1151055Y525959D02*
D03*
X1363055Y536959D02*
D03*
X1302000Y532000D02*
D03*
X1106038Y595978D02*
D03*
X1512000Y408000D02*
D03*
X1118978Y606022D02*
D03*
X605000Y535000D02*
D03*
X521773Y523041D02*
D03*
X363000Y193000D02*
D03*
X381000Y523000D02*
D03*
X342000Y173000D02*
D03*
X335744Y523041D02*
D03*
X303001D02*
D03*
X248000Y528000D02*
D03*
X190000Y535000D02*
D03*
D24*
X455000Y575000D02*
D03*
X1149347Y616000D02*
D03*
X424000Y540000D02*
D03*
X58274Y561611D02*
D03*
X499000Y620000D02*
D03*
X1084000Y612000D02*
D03*
X1016000D02*
D03*
X946000D02*
D03*
X875000D02*
D03*
X805000D02*
D03*
X525000Y593000D02*
D03*
X748540Y591884D02*
D03*
X711000Y540000D02*
D03*
X635512Y540024D02*
D03*
X565000Y540000D02*
D03*
X487000D02*
D03*
X270188Y539827D02*
D03*
X200867Y539867D02*
D03*
D25*
X299000Y606000D02*
D03*
X320000Y584000D02*
D03*
X272000Y588000D02*
D03*
D26*
X333000Y596000D02*
D03*
D27*
X694000Y523000D02*
D03*
X481338Y579338D02*
D03*
X485669D02*
D03*
X490000D02*
D03*
X481338Y583669D02*
D03*
X485669D02*
D03*
X490000D02*
D03*
X481338Y588000D02*
D03*
X485669D02*
D03*
X490000D02*
D03*
D28*
X346000Y540000D02*
D03*
D49*
X456584Y548041D02*
D03*
Y543041D02*
D03*
Y538041D02*
D03*
Y533041D02*
D03*
Y528041D02*
D03*
Y523041D02*
D03*
Y518041D02*
D03*
Y513041D02*
D03*
X476276D02*
D03*
Y518041D02*
D03*
Y523041D02*
D03*
Y528041D02*
D03*
Y533041D02*
D03*
Y538041D02*
D03*
Y543041D02*
D03*
X991849Y615955D02*
D03*
Y610955D02*
D03*
Y605955D02*
D03*
Y600955D02*
D03*
Y595955D02*
D03*
Y590955D02*
D03*
Y585955D02*
D03*
X972157D02*
D03*
Y590955D02*
D03*
Y595955D02*
D03*
Y600955D02*
D03*
Y605955D02*
D03*
Y610955D02*
D03*
Y615955D02*
D03*
Y620955D02*
D03*
X1132278Y615955D02*
D03*
Y610955D02*
D03*
Y605955D02*
D03*
Y600955D02*
D03*
Y595955D02*
D03*
Y590955D02*
D03*
Y585955D02*
D03*
X1112586D02*
D03*
Y590955D02*
D03*
Y595955D02*
D03*
Y600955D02*
D03*
Y605955D02*
D03*
Y610955D02*
D03*
Y615955D02*
D03*
Y620955D02*
D03*
X1062563Y615955D02*
D03*
Y610955D02*
D03*
Y605955D02*
D03*
Y600955D02*
D03*
Y595955D02*
D03*
Y590955D02*
D03*
Y585955D02*
D03*
X1042871D02*
D03*
Y590955D02*
D03*
Y595955D02*
D03*
Y600955D02*
D03*
Y605955D02*
D03*
Y610955D02*
D03*
Y615955D02*
D03*
Y620955D02*
D03*
X923394Y615955D02*
D03*
Y610955D02*
D03*
Y605955D02*
D03*
Y600955D02*
D03*
Y595955D02*
D03*
Y590955D02*
D03*
Y585955D02*
D03*
X903702D02*
D03*
Y590955D02*
D03*
Y595955D02*
D03*
Y600955D02*
D03*
Y605955D02*
D03*
Y610955D02*
D03*
Y615955D02*
D03*
Y620955D02*
D03*
X853420Y615955D02*
D03*
Y610955D02*
D03*
Y605955D02*
D03*
Y600955D02*
D03*
Y595955D02*
D03*
Y590955D02*
D03*
Y585955D02*
D03*
X833728D02*
D03*
Y590955D02*
D03*
Y595955D02*
D03*
Y600955D02*
D03*
Y605955D02*
D03*
Y610955D02*
D03*
Y615955D02*
D03*
Y620955D02*
D03*
X781705Y615955D02*
D03*
Y610955D02*
D03*
Y605955D02*
D03*
Y600955D02*
D03*
Y595955D02*
D03*
Y590955D02*
D03*
Y585955D02*
D03*
X762013D02*
D03*
Y590955D02*
D03*
Y595955D02*
D03*
Y600955D02*
D03*
Y605955D02*
D03*
Y610955D02*
D03*
Y615955D02*
D03*
Y620955D02*
D03*
X687419Y543041D02*
D03*
Y538041D02*
D03*
Y533041D02*
D03*
Y528041D02*
D03*
Y523041D02*
D03*
Y518041D02*
D03*
Y513041D02*
D03*
X667727D02*
D03*
Y518041D02*
D03*
Y523041D02*
D03*
Y528041D02*
D03*
Y533041D02*
D03*
Y538041D02*
D03*
Y543041D02*
D03*
Y548041D02*
D03*
X618705Y543041D02*
D03*
Y538041D02*
D03*
Y533041D02*
D03*
Y528041D02*
D03*
Y523041D02*
D03*
Y518041D02*
D03*
Y513041D02*
D03*
X599013D02*
D03*
Y518041D02*
D03*
Y523041D02*
D03*
Y528041D02*
D03*
Y533041D02*
D03*
Y538041D02*
D03*
Y543041D02*
D03*
Y548041D02*
D03*
X547990Y543041D02*
D03*
Y538041D02*
D03*
Y533041D02*
D03*
Y528041D02*
D03*
Y523041D02*
D03*
Y518041D02*
D03*
Y513041D02*
D03*
X528298D02*
D03*
Y518041D02*
D03*
Y523041D02*
D03*
Y528041D02*
D03*
Y533041D02*
D03*
Y538041D02*
D03*
Y543041D02*
D03*
Y548041D02*
D03*
X407247Y543041D02*
D03*
Y538041D02*
D03*
Y533041D02*
D03*
Y528041D02*
D03*
Y523041D02*
D03*
Y518041D02*
D03*
Y513041D02*
D03*
X387555D02*
D03*
Y518041D02*
D03*
Y523041D02*
D03*
Y528041D02*
D03*
Y533041D02*
D03*
Y538041D02*
D03*
Y543041D02*
D03*
Y548041D02*
D03*
X329218Y543041D02*
D03*
Y538041D02*
D03*
Y533041D02*
D03*
Y528041D02*
D03*
Y523041D02*
D03*
Y518041D02*
D03*
Y513041D02*
D03*
X309526D02*
D03*
Y518041D02*
D03*
Y523041D02*
D03*
Y528041D02*
D03*
Y533041D02*
D03*
Y538041D02*
D03*
Y543041D02*
D03*
Y548041D02*
D03*
X253190Y543041D02*
D03*
Y538041D02*
D03*
Y533041D02*
D03*
Y528041D02*
D03*
Y523041D02*
D03*
Y518041D02*
D03*
Y513041D02*
D03*
X233498D02*
D03*
Y518041D02*
D03*
Y523041D02*
D03*
Y528041D02*
D03*
Y533041D02*
D03*
Y538041D02*
D03*
Y543041D02*
D03*
Y548041D02*
D03*
X179096Y543250D02*
D03*
Y538250D02*
D03*
Y533250D02*
D03*
Y528250D02*
D03*
Y523250D02*
D03*
Y518250D02*
D03*
Y513250D02*
D03*
X159404D02*
D03*
Y518250D02*
D03*
Y523250D02*
D03*
Y528250D02*
D03*
Y533250D02*
D03*
Y538250D02*
D03*
Y543250D02*
D03*
Y548250D02*
D03*
D50*
X476276Y548041D02*
D03*
X991849Y620955D02*
D03*
X1132278D02*
D03*
X1062563D02*
D03*
X923394D02*
D03*
X853420D02*
D03*
X781705D02*
D03*
X687419Y548041D02*
D03*
X618705D02*
D03*
X547990D02*
D03*
X407247D02*
D03*
X329218D02*
D03*
X253190D02*
D03*
X179096Y548250D02*
D03*
D52*
X489000Y609425D02*
D03*
Y612575D02*
D03*
X485001Y564669D02*
D03*
Y561520D02*
D03*
X479173Y564669D02*
D03*
Y561519D02*
D03*
X493000Y621575D02*
D03*
Y618425D02*
D03*
X487000D02*
D03*
Y621575D02*
D03*
X508000Y625575D02*
D03*
Y622425D02*
D03*
X894000Y625150D02*
D03*
Y622000D02*
D03*
X98000Y539000D02*
D03*
Y535850D02*
D03*
X66000Y531150D02*
D03*
Y528000D02*
D03*
X1102000Y621850D02*
D03*
Y625000D02*
D03*
X1033000Y621850D02*
D03*
Y625000D02*
D03*
X963000Y622425D02*
D03*
Y625575D02*
D03*
X824000Y622000D02*
D03*
Y625150D02*
D03*
X753000Y622425D02*
D03*
Y625575D02*
D03*
D53*
X461744Y600294D02*
D03*
X465594D02*
D03*
X468744Y612294D02*
D03*
X472594D02*
D03*
D54*
X1496180Y588998D02*
D03*
X1498970D02*
D03*
X1519700Y589002D02*
D03*
X1516910D02*
D03*
D57*
X299000Y576000D02*
D03*
D58*
X308055Y598835D02*
D03*
X299000D02*
D03*
X289945D02*
D03*
D59*
X320067Y591598D02*
D03*
Y598402D02*
D03*
D65*
X504937Y565402D02*
D03*
X498812Y559277D02*
D03*
X503545Y554545D02*
D03*
X509669Y560669D02*
D03*
D74*
X345236Y385000D02*
D03*
X457736Y310000D02*
D03*
X63986Y85000D02*
D03*
X757736Y310000D02*
D03*
X1488986Y478750D02*
D03*
Y385000D02*
D03*
Y310000D02*
D03*
Y235000D02*
D03*
Y66250D02*
D03*
X1413986D02*
D03*
X1338986D02*
D03*
X1413986Y141250D02*
D03*
X1357736Y385000D02*
D03*
X1348361Y235000D02*
D03*
X1292111Y160000D02*
D03*
X1376486Y310000D02*
D03*
X1245236Y85000D02*
D03*
X823361D02*
D03*
X1095236D02*
D03*
X1170236D02*
D03*
X1226486Y478750D02*
D03*
X1395236D02*
D03*
Y553750D02*
D03*
X1301486Y478750D02*
D03*
X1076486Y553750D02*
D03*
X1301486D02*
D03*
X1226486D02*
D03*
X1151486D02*
D03*
X1038986Y160000D02*
D03*
X963986D02*
D03*
X1188986D02*
D03*
X1113986D02*
D03*
X1151486Y478750D02*
D03*
X1076486D02*
D03*
X888986Y160000D02*
D03*
X982736Y553750D02*
D03*
Y310000D02*
D03*
X1076486Y235000D02*
D03*
X1151486D02*
D03*
X907736Y310000D02*
D03*
X851486Y235000D02*
D03*
X926486D02*
D03*
X1001486D02*
D03*
X1226486D02*
D03*
X757736Y553750D02*
D03*
X907736D02*
D03*
X1057736Y310000D02*
D03*
X832736Y553750D02*
D03*
X1245236Y385000D02*
D03*
X1132736Y310000D02*
D03*
X1207736D02*
D03*
X1282736D02*
D03*
X945236Y385000D02*
D03*
X1095236D02*
D03*
X1170236D02*
D03*
X1020236D02*
D03*
X982736Y478750D02*
D03*
X757736D02*
D03*
X907736D02*
D03*
X832736D02*
D03*
X663986D02*
D03*
X513986D02*
D03*
X588986D02*
D03*
X438986D02*
D03*
X645236Y385000D02*
D03*
X720236D02*
D03*
X795236D02*
D03*
X870236D02*
D03*
X607736Y310000D02*
D03*
X532736D02*
D03*
X682736D02*
D03*
X420236Y385000D02*
D03*
X495236D02*
D03*
X832736Y310000D02*
D03*
X570236Y385000D02*
D03*
X738986Y160000D02*
D03*
X663986D02*
D03*
X588986D02*
D03*
X813986D02*
D03*
X626486Y235000D02*
D03*
X776486D02*
D03*
X701486D02*
D03*
X551486D02*
D03*
X542111Y85000D02*
D03*
X513986Y160000D02*
D03*
X373361Y235000D02*
D03*
X345236Y478750D02*
D03*
X476486Y235000D02*
D03*
X363986Y310000D02*
D03*
X251486Y385000D02*
D03*
X176486Y85000D02*
D03*
X251486Y478750D02*
D03*
X392111Y160000D02*
D03*
X251486Y122500D02*
D03*
X354611Y85000D02*
D03*
X448361D02*
D03*
X26486Y235000D02*
D03*
X101486D02*
D03*
X176486D02*
D03*
Y310000D02*
D03*
Y160000D02*
D03*
X26486D02*
D03*
X101486D02*
D03*
X251486Y272500D02*
D03*
X101236Y478750D02*
D03*
X26486Y310000D02*
D03*
X101486D02*
D03*
X26236Y478750D02*
D03*
X176486Y385000D02*
D03*
X26486D02*
D03*
X101486D02*
D03*
X176486Y478750D02*
D03*
D75*
X399764Y395000D02*
D03*
X512264Y320000D02*
D03*
X118514Y95000D02*
D03*
X812264Y320000D02*
D03*
X1543514Y488750D02*
D03*
Y395000D02*
D03*
Y320000D02*
D03*
Y245000D02*
D03*
Y76250D02*
D03*
X1468514D02*
D03*
X1393514D02*
D03*
X1468514Y151250D02*
D03*
X1412264Y395000D02*
D03*
X1402889Y245000D02*
D03*
X1346639Y170000D02*
D03*
X1431014Y320000D02*
D03*
X1299764Y95000D02*
D03*
X877889D02*
D03*
X1149764D02*
D03*
X1224764D02*
D03*
X1281014Y488750D02*
D03*
X1449764D02*
D03*
Y563750D02*
D03*
X1356014Y488750D02*
D03*
X1131014Y563750D02*
D03*
X1356014D02*
D03*
X1281014D02*
D03*
X1206014D02*
D03*
X1093514Y170000D02*
D03*
X1018514D02*
D03*
X1243514D02*
D03*
X1168514D02*
D03*
X1206014Y488750D02*
D03*
X1131014D02*
D03*
X943514Y170000D02*
D03*
X1037264Y563750D02*
D03*
Y320000D02*
D03*
X1131014Y245000D02*
D03*
X1206014D02*
D03*
X962264Y320000D02*
D03*
X906014Y245000D02*
D03*
X981014D02*
D03*
X1056014D02*
D03*
X1281014D02*
D03*
X812264Y563750D02*
D03*
X962264D02*
D03*
X1112264Y320000D02*
D03*
X887264Y563750D02*
D03*
X1299764Y395000D02*
D03*
X1187264Y320000D02*
D03*
X1262264D02*
D03*
X1337264D02*
D03*
X999764Y395000D02*
D03*
X1149764D02*
D03*
X1224764D02*
D03*
X1074764D02*
D03*
X1037264Y488750D02*
D03*
X812264D02*
D03*
X962264D02*
D03*
X887264D02*
D03*
X718514D02*
D03*
X568514D02*
D03*
X643514D02*
D03*
X493514D02*
D03*
X699764Y395000D02*
D03*
X774764D02*
D03*
X849764D02*
D03*
X924764D02*
D03*
X662264Y320000D02*
D03*
X587264D02*
D03*
X737264D02*
D03*
X474764Y395000D02*
D03*
X549764D02*
D03*
X887264Y320000D02*
D03*
X624764Y395000D02*
D03*
X793514Y170000D02*
D03*
X718514D02*
D03*
X643514D02*
D03*
X868514D02*
D03*
X681014Y245000D02*
D03*
X831014D02*
D03*
X756014D02*
D03*
X606014D02*
D03*
X596639Y95000D02*
D03*
X568514Y170000D02*
D03*
X427889Y245000D02*
D03*
X399764Y488750D02*
D03*
X531014Y245000D02*
D03*
X418514Y320000D02*
D03*
X306014Y395000D02*
D03*
X231014Y95000D02*
D03*
X306014Y488750D02*
D03*
X446639Y170000D02*
D03*
X306014Y132500D02*
D03*
X409139Y95000D02*
D03*
X502889D02*
D03*
X81014Y245000D02*
D03*
X156014D02*
D03*
X231014D02*
D03*
Y320000D02*
D03*
Y170000D02*
D03*
X81014D02*
D03*
X156014D02*
D03*
X306014Y282500D02*
D03*
X155764Y488750D02*
D03*
X81014Y320000D02*
D03*
X156014D02*
D03*
X80764Y488750D02*
D03*
X231014Y395000D02*
D03*
X81014D02*
D03*
X156014D02*
D03*
X231014Y488750D02*
D03*
D76*
X1529691Y452953D02*
D03*
X1507809Y447047D02*
D03*
Y452953D02*
D03*
X1529691Y447047D02*
D03*
X1432809Y109547D02*
D03*
X1454691Y115453D02*
D03*
Y109547D02*
D03*
X1432809Y115453D02*
D03*
X1507809Y34547D02*
D03*
X1529691Y40453D02*
D03*
Y34547D02*
D03*
X1507809Y40453D02*
D03*
X1432809Y34547D02*
D03*
X1454691Y40453D02*
D03*
Y34547D02*
D03*
X1432809Y40453D02*
D03*
X1357809Y34547D02*
D03*
X1379691Y40453D02*
D03*
Y34547D02*
D03*
X1357809Y40453D02*
D03*
X1264059Y53297D02*
D03*
X1285941Y59203D02*
D03*
Y53297D02*
D03*
X1264059Y59203D02*
D03*
X1189059Y53297D02*
D03*
X1210941Y59203D02*
D03*
Y53297D02*
D03*
X1189059Y59203D02*
D03*
X1114059Y53297D02*
D03*
X1135941Y59203D02*
D03*
Y53297D02*
D03*
X1114059Y59203D02*
D03*
X842184Y53297D02*
D03*
X864066Y59203D02*
D03*
Y53297D02*
D03*
X842184Y59203D02*
D03*
X560934Y53297D02*
D03*
X582816Y59203D02*
D03*
Y53297D02*
D03*
X560934Y59203D02*
D03*
X467184Y53297D02*
D03*
X489066Y59203D02*
D03*
Y53297D02*
D03*
X467184Y59203D02*
D03*
X373434Y53297D02*
D03*
X395316Y59203D02*
D03*
Y53297D02*
D03*
X373434Y59203D02*
D03*
X195059Y53297D02*
D03*
X216941Y59203D02*
D03*
Y53297D02*
D03*
X195059Y59203D02*
D03*
X82809Y53297D02*
D03*
X104691Y59203D02*
D03*
Y53297D02*
D03*
X82809Y59203D02*
D03*
X67191Y134203D02*
D03*
X45309Y128297D02*
D03*
Y134203D02*
D03*
X67191Y128297D02*
D03*
X141941Y134203D02*
D03*
X120059Y128297D02*
D03*
Y134203D02*
D03*
X141941Y128297D02*
D03*
X216941Y134203D02*
D03*
X195059Y128297D02*
D03*
Y134203D02*
D03*
X216941Y128297D02*
D03*
X291941Y96703D02*
D03*
X270059Y90797D02*
D03*
Y96703D02*
D03*
X291941Y90797D02*
D03*
X432816Y134203D02*
D03*
X410934Y128297D02*
D03*
Y134203D02*
D03*
X432816Y128297D02*
D03*
X554691Y134203D02*
D03*
X532809Y128297D02*
D03*
Y134203D02*
D03*
X554691Y128297D02*
D03*
X629691Y134203D02*
D03*
X607809Y128297D02*
D03*
Y134203D02*
D03*
X629691Y128297D02*
D03*
X704691Y134203D02*
D03*
X682809Y128297D02*
D03*
Y134203D02*
D03*
X704691Y128297D02*
D03*
X779691Y134203D02*
D03*
X757809Y128297D02*
D03*
Y134203D02*
D03*
X779691Y128297D02*
D03*
X854691Y134203D02*
D03*
X832809Y128297D02*
D03*
Y134203D02*
D03*
X854691Y128297D02*
D03*
X929691Y134203D02*
D03*
X907809Y128297D02*
D03*
Y134203D02*
D03*
X929691Y128297D02*
D03*
X1004691Y134203D02*
D03*
X982809Y128297D02*
D03*
Y134203D02*
D03*
X1004691Y128297D02*
D03*
X1079691Y134203D02*
D03*
X1057809Y128297D02*
D03*
Y134203D02*
D03*
X1079691Y128297D02*
D03*
X1154691Y134203D02*
D03*
X1132809Y128297D02*
D03*
Y134203D02*
D03*
X1154691Y128297D02*
D03*
X1229691Y134203D02*
D03*
X1207809Y128297D02*
D03*
Y134203D02*
D03*
X1229691Y128297D02*
D03*
X1332816Y134203D02*
D03*
X1310934Y128297D02*
D03*
Y134203D02*
D03*
X1332816Y128297D02*
D03*
X1507809Y203297D02*
D03*
X1529691Y209203D02*
D03*
Y203297D02*
D03*
X1507809Y209203D02*
D03*
X1367184Y203297D02*
D03*
X1389066Y209203D02*
D03*
Y203297D02*
D03*
X1367184Y209203D02*
D03*
X1245309Y203297D02*
D03*
X1267191Y209203D02*
D03*
Y203297D02*
D03*
X1245309Y209203D02*
D03*
X1170309Y203297D02*
D03*
X1192191Y209203D02*
D03*
Y203297D02*
D03*
X1170309Y209203D02*
D03*
X1095309Y203297D02*
D03*
X1117191Y209203D02*
D03*
Y203297D02*
D03*
X1095309Y209203D02*
D03*
X1020309Y203297D02*
D03*
X1042191Y209203D02*
D03*
Y203297D02*
D03*
X1020309Y209203D02*
D03*
X945309Y203297D02*
D03*
X967191Y209203D02*
D03*
Y203297D02*
D03*
X945309Y209203D02*
D03*
X870309Y203297D02*
D03*
X892191Y209203D02*
D03*
Y203297D02*
D03*
X870309Y209203D02*
D03*
X795309Y203297D02*
D03*
X817191Y209203D02*
D03*
Y203297D02*
D03*
X795309Y209203D02*
D03*
X720309Y203297D02*
D03*
X742191Y209203D02*
D03*
Y203297D02*
D03*
X720309Y209203D02*
D03*
X645309Y203297D02*
D03*
X667191Y209203D02*
D03*
Y203297D02*
D03*
X645309Y209203D02*
D03*
X570309Y203297D02*
D03*
X592191Y209203D02*
D03*
Y203297D02*
D03*
X570309Y209203D02*
D03*
X495309Y203297D02*
D03*
X517191Y209203D02*
D03*
Y203297D02*
D03*
X495309Y209203D02*
D03*
X392184Y203297D02*
D03*
X414066Y209203D02*
D03*
Y203297D02*
D03*
X392184Y209203D02*
D03*
X195059Y203297D02*
D03*
X216941Y209203D02*
D03*
Y203297D02*
D03*
X195059Y209203D02*
D03*
X120059Y203317D02*
D03*
X141941Y209223D02*
D03*
Y203317D02*
D03*
X120059Y209223D02*
D03*
X45309Y203297D02*
D03*
X67191Y209203D02*
D03*
Y203297D02*
D03*
X45309Y209203D02*
D03*
X66941Y284203D02*
D03*
X45059Y278297D02*
D03*
Y284203D02*
D03*
X66941Y278297D02*
D03*
X141941Y284203D02*
D03*
X120059Y278297D02*
D03*
Y284203D02*
D03*
X141941Y278297D02*
D03*
X216941Y284203D02*
D03*
X195059Y278297D02*
D03*
Y284203D02*
D03*
X216941Y278297D02*
D03*
X291941Y246703D02*
D03*
X270059Y240797D02*
D03*
Y246703D02*
D03*
X291941Y240797D02*
D03*
X404691Y284203D02*
D03*
X382809Y278297D02*
D03*
Y284203D02*
D03*
X404691Y278297D02*
D03*
X498441Y284203D02*
D03*
X476559Y278297D02*
D03*
Y284203D02*
D03*
X498441Y278297D02*
D03*
X573441Y284203D02*
D03*
X551559Y278297D02*
D03*
Y284203D02*
D03*
X573441Y278297D02*
D03*
X648441Y284203D02*
D03*
X626559Y278297D02*
D03*
Y284203D02*
D03*
X648441Y278297D02*
D03*
X723441Y284203D02*
D03*
X701559Y278297D02*
D03*
Y284203D02*
D03*
X723441Y278297D02*
D03*
X798441Y284203D02*
D03*
X776559Y278297D02*
D03*
Y284203D02*
D03*
X798441Y278297D02*
D03*
X873441Y284203D02*
D03*
X851559Y278297D02*
D03*
Y284203D02*
D03*
X873441Y278297D02*
D03*
X948441Y284203D02*
D03*
X926559Y278297D02*
D03*
Y284203D02*
D03*
X948441Y278297D02*
D03*
X1023441Y284203D02*
D03*
X1001559Y278297D02*
D03*
Y284203D02*
D03*
X1023441Y278297D02*
D03*
X1098441Y284203D02*
D03*
X1076559Y278297D02*
D03*
Y284203D02*
D03*
X1098441Y278297D02*
D03*
X1173441Y284203D02*
D03*
X1151559Y278297D02*
D03*
Y284203D02*
D03*
X1173441Y278297D02*
D03*
X1248441Y284203D02*
D03*
X1226559Y278297D02*
D03*
Y284203D02*
D03*
X1248441Y278297D02*
D03*
X1323441Y284203D02*
D03*
X1301559Y278297D02*
D03*
Y284203D02*
D03*
X1323441Y278297D02*
D03*
X1417191Y284203D02*
D03*
X1395309Y278297D02*
D03*
Y284203D02*
D03*
X1417191Y278297D02*
D03*
X1529691Y284203D02*
D03*
X1507809Y278297D02*
D03*
Y284203D02*
D03*
X1529691Y278297D02*
D03*
X1507809Y353297D02*
D03*
X1529691Y359203D02*
D03*
Y353297D02*
D03*
X1507809Y359203D02*
D03*
X1376559Y353297D02*
D03*
X1398441Y359203D02*
D03*
Y353297D02*
D03*
X1376559Y359203D02*
D03*
X1264059Y353297D02*
D03*
X1285941Y359203D02*
D03*
Y353297D02*
D03*
X1264059Y359203D02*
D03*
X1189059Y353297D02*
D03*
X1210941Y359203D02*
D03*
Y353297D02*
D03*
X1189059Y359203D02*
D03*
X1114059Y353297D02*
D03*
X1135941Y359203D02*
D03*
Y353297D02*
D03*
X1114059Y359203D02*
D03*
X1039059Y353297D02*
D03*
X1060941Y359203D02*
D03*
Y353297D02*
D03*
X1039059Y359203D02*
D03*
X964059Y353297D02*
D03*
X985941Y359203D02*
D03*
Y353297D02*
D03*
X964059Y359203D02*
D03*
X889059Y353297D02*
D03*
X910941Y359203D02*
D03*
Y353297D02*
D03*
X889059Y359203D02*
D03*
X814059Y353297D02*
D03*
X835941Y359203D02*
D03*
Y353297D02*
D03*
X814059Y359203D02*
D03*
X739059Y353297D02*
D03*
X760941Y359203D02*
D03*
Y353297D02*
D03*
X739059Y359203D02*
D03*
X664059Y353297D02*
D03*
X685941Y359203D02*
D03*
Y353297D02*
D03*
X664059Y359203D02*
D03*
X589059Y353297D02*
D03*
X610941Y359203D02*
D03*
Y353297D02*
D03*
X589059Y359203D02*
D03*
X514059Y353297D02*
D03*
X535941Y359203D02*
D03*
Y353297D02*
D03*
X514059Y359203D02*
D03*
X439059Y353297D02*
D03*
X460941Y359203D02*
D03*
Y353297D02*
D03*
X439059Y359203D02*
D03*
X364059Y353297D02*
D03*
X385941Y359203D02*
D03*
Y353297D02*
D03*
X364059Y359203D02*
D03*
X270059Y353297D02*
D03*
X291941Y359203D02*
D03*
Y353297D02*
D03*
X270059Y359203D02*
D03*
X195059Y353297D02*
D03*
X216941Y359203D02*
D03*
Y353297D02*
D03*
X195059Y359203D02*
D03*
X120059Y353297D02*
D03*
X141941Y359203D02*
D03*
Y353297D02*
D03*
X120059Y359203D02*
D03*
X45059Y353297D02*
D03*
X66941Y359203D02*
D03*
Y353297D02*
D03*
X45059Y359203D02*
D03*
X66941Y452953D02*
D03*
X45059Y447047D02*
D03*
Y452953D02*
D03*
X66941Y447047D02*
D03*
X141941Y452953D02*
D03*
X120059Y447047D02*
D03*
Y452953D02*
D03*
X141941Y447047D02*
D03*
X216941Y452953D02*
D03*
X195059Y447047D02*
D03*
Y452953D02*
D03*
X216941Y447047D02*
D03*
X291941Y452953D02*
D03*
X270059Y447047D02*
D03*
Y452953D02*
D03*
X291941Y447047D02*
D03*
X385941Y452953D02*
D03*
X364059Y447047D02*
D03*
Y452953D02*
D03*
X385941Y447047D02*
D03*
X479691Y452953D02*
D03*
X457809Y447047D02*
D03*
Y452953D02*
D03*
X479691Y447047D02*
D03*
X554691Y452953D02*
D03*
X532809Y447047D02*
D03*
Y452953D02*
D03*
X554691Y447047D02*
D03*
X629691Y452953D02*
D03*
X607809Y447047D02*
D03*
Y452953D02*
D03*
X629691Y447047D02*
D03*
X704691Y452953D02*
D03*
X682809Y447047D02*
D03*
Y452953D02*
D03*
X704691Y447047D02*
D03*
X798441Y452953D02*
D03*
X776559Y447047D02*
D03*
Y452953D02*
D03*
X798441Y447047D02*
D03*
X873441Y452953D02*
D03*
X851559Y447047D02*
D03*
Y452953D02*
D03*
X873441Y447047D02*
D03*
X948441Y452953D02*
D03*
X926559Y447047D02*
D03*
Y452953D02*
D03*
X948441Y447047D02*
D03*
X1023441Y452953D02*
D03*
X1001559Y447047D02*
D03*
Y452953D02*
D03*
X1023441Y447047D02*
D03*
X1117191Y452953D02*
D03*
X1095309Y447047D02*
D03*
Y452953D02*
D03*
X1117191Y447047D02*
D03*
X1192191Y452953D02*
D03*
X1170309Y447047D02*
D03*
Y452953D02*
D03*
X1192191Y447047D02*
D03*
X1267191Y452953D02*
D03*
X1245309Y447047D02*
D03*
Y452953D02*
D03*
X1267191Y447047D02*
D03*
X1342191Y452953D02*
D03*
X1320309Y447047D02*
D03*
Y452953D02*
D03*
X1342191Y447047D02*
D03*
X1435941Y452953D02*
D03*
X1414059Y447047D02*
D03*
Y452953D02*
D03*
X1435941Y447047D02*
D03*
X1414059Y522047D02*
D03*
X1435941Y527953D02*
D03*
Y522047D02*
D03*
X1414059Y527953D02*
D03*
X1320309Y522047D02*
D03*
X1342191Y527953D02*
D03*
Y522047D02*
D03*
X1320309Y527953D02*
D03*
X1245309Y522047D02*
D03*
X1267191Y527953D02*
D03*
Y522047D02*
D03*
X1245309Y527953D02*
D03*
X1170309Y522047D02*
D03*
X1192191Y527953D02*
D03*
Y522047D02*
D03*
X1170309Y527953D02*
D03*
X1095309Y522047D02*
D03*
X1117191Y527953D02*
D03*
Y522047D02*
D03*
X1095309Y527953D02*
D03*
X1001559Y522047D02*
D03*
X1023441Y527953D02*
D03*
Y522047D02*
D03*
X1001559Y527953D02*
D03*
X926559Y522047D02*
D03*
X948441Y527953D02*
D03*
Y522047D02*
D03*
X926559Y527953D02*
D03*
X851559Y522047D02*
D03*
X873441Y527953D02*
D03*
Y522047D02*
D03*
X851559Y527953D02*
D03*
X776559Y522047D02*
D03*
X798441Y527953D02*
D03*
Y522047D02*
D03*
X776559Y527953D02*
D03*
D77*
X477008Y570382D02*
D03*
X475433D02*
D03*
X480157Y596957D02*
D03*
X481732D02*
D03*
X495905D02*
D03*
X494331D02*
D03*
X492756D02*
D03*
X491181D02*
D03*
X489606D02*
D03*
X488031D02*
D03*
X486457D02*
D03*
X484882D02*
D03*
X483307D02*
D03*
X478583D02*
D03*
X477008D02*
D03*
X475433D02*
D03*
X478583Y570382D02*
D03*
X480157D02*
D03*
X481732D02*
D03*
X483307D02*
D03*
X484882D02*
D03*
X486457D02*
D03*
X488031D02*
D03*
X489606D02*
D03*
X491181D02*
D03*
X492756D02*
D03*
X494331D02*
D03*
X495905D02*
D03*
D78*
X483587Y606495D02*
D03*
Y610431D02*
D03*
X478515Y606474D02*
D03*
Y610411D02*
D03*
D79*
X1510968Y583000D02*
D03*
X1507032D02*
D03*
X1499032D02*
D03*
X1502969D02*
D03*
X1519674Y583078D02*
D03*
X1523611D02*
D03*
X1528316Y583078D02*
D03*
X1532253D02*
D03*
D80*
X1072799Y608180D02*
D03*
X1072800Y605030D02*
D03*
Y601881D02*
D03*
Y598731D02*
D03*
X1079492D02*
D03*
Y601881D02*
D03*
Y605030D02*
D03*
Y608180D02*
D03*
X201173Y535266D02*
D03*
Y532116D02*
D03*
Y528966D02*
D03*
Y525817D02*
D03*
X194480D02*
D03*
Y528966D02*
D03*
Y532116D02*
D03*
X194480Y535266D02*
D03*
X1095657Y598731D02*
D03*
Y601881D02*
D03*
Y605030D02*
D03*
Y608180D02*
D03*
X1102350D02*
D03*
Y605030D02*
D03*
Y601881D02*
D03*
X1102350Y598731D02*
D03*
X1149207Y608180D02*
D03*
Y605030D02*
D03*
Y601881D02*
D03*
Y598731D02*
D03*
X1142514D02*
D03*
Y601881D02*
D03*
Y605030D02*
D03*
X1142514Y608180D02*
D03*
X1025943Y598731D02*
D03*
Y601881D02*
D03*
Y605030D02*
D03*
Y608180D02*
D03*
X1032635D02*
D03*
Y605030D02*
D03*
Y601881D02*
D03*
X1032636Y598731D02*
D03*
X955228D02*
D03*
Y601881D02*
D03*
Y605030D02*
D03*
Y608180D02*
D03*
X961921D02*
D03*
Y605030D02*
D03*
Y601881D02*
D03*
X961921Y598731D02*
D03*
X1008778Y608180D02*
D03*
Y605030D02*
D03*
Y601881D02*
D03*
Y598731D02*
D03*
X1002085D02*
D03*
Y601881D02*
D03*
Y605030D02*
D03*
X1002085Y608180D02*
D03*
X886514Y598731D02*
D03*
Y601881D02*
D03*
Y605030D02*
D03*
Y608180D02*
D03*
X893206D02*
D03*
Y605030D02*
D03*
Y601881D02*
D03*
X893207Y598731D02*
D03*
X940841Y608180D02*
D03*
Y605030D02*
D03*
Y601881D02*
D03*
Y598731D02*
D03*
X934148D02*
D03*
Y601881D02*
D03*
Y605030D02*
D03*
X934148Y608180D02*
D03*
X816799Y598731D02*
D03*
Y601881D02*
D03*
Y605030D02*
D03*
Y608180D02*
D03*
X823492D02*
D03*
Y605030D02*
D03*
Y601881D02*
D03*
X823492Y598731D02*
D03*
X870349Y608180D02*
D03*
Y605030D02*
D03*
Y601881D02*
D03*
Y598731D02*
D03*
X863656D02*
D03*
Y601881D02*
D03*
Y605030D02*
D03*
X863656Y608180D02*
D03*
X745085Y598731D02*
D03*
Y601881D02*
D03*
Y605030D02*
D03*
Y608180D02*
D03*
X751777D02*
D03*
Y605030D02*
D03*
Y601881D02*
D03*
X751778Y598731D02*
D03*
X798634Y608180D02*
D03*
Y605030D02*
D03*
Y601881D02*
D03*
Y598731D02*
D03*
X791942D02*
D03*
Y601881D02*
D03*
Y605030D02*
D03*
X791941Y608180D02*
D03*
X704348Y535266D02*
D03*
Y532116D02*
D03*
Y528966D02*
D03*
Y525817D02*
D03*
X697656D02*
D03*
Y528966D02*
D03*
Y532116D02*
D03*
X697655Y535266D02*
D03*
X650799Y525817D02*
D03*
Y528966D02*
D03*
Y532116D02*
D03*
Y535266D02*
D03*
X657491D02*
D03*
Y532116D02*
D03*
Y528966D02*
D03*
X657492Y525817D02*
D03*
X635634Y535266D02*
D03*
Y532116D02*
D03*
Y528966D02*
D03*
Y525817D02*
D03*
X628941D02*
D03*
Y528966D02*
D03*
Y532116D02*
D03*
X628941Y535266D02*
D03*
X582084Y525817D02*
D03*
Y528966D02*
D03*
Y532116D02*
D03*
Y535266D02*
D03*
X588777D02*
D03*
Y532116D02*
D03*
Y528966D02*
D03*
X588777Y525817D02*
D03*
X558226Y535266D02*
D03*
X558227Y532116D02*
D03*
Y528966D02*
D03*
Y525817D02*
D03*
X564919D02*
D03*
Y528966D02*
D03*
Y532116D02*
D03*
Y535266D02*
D03*
X511370Y525817D02*
D03*
Y528966D02*
D03*
Y532116D02*
D03*
Y535266D02*
D03*
X518062D02*
D03*
Y532116D02*
D03*
Y528966D02*
D03*
X518063Y525817D02*
D03*
X493205Y535266D02*
D03*
Y532116D02*
D03*
Y528966D02*
D03*
Y525817D02*
D03*
X486512D02*
D03*
Y528966D02*
D03*
Y532116D02*
D03*
X486512Y535266D02*
D03*
X439655Y525817D02*
D03*
Y528966D02*
D03*
Y532116D02*
D03*
Y535266D02*
D03*
X446348D02*
D03*
Y532116D02*
D03*
Y528966D02*
D03*
X446348Y525817D02*
D03*
X370626D02*
D03*
Y528966D02*
D03*
Y532116D02*
D03*
Y535266D02*
D03*
X377319D02*
D03*
Y532116D02*
D03*
Y528966D02*
D03*
X377319Y525817D02*
D03*
X424176Y535266D02*
D03*
Y532116D02*
D03*
Y528966D02*
D03*
Y525817D02*
D03*
X417483D02*
D03*
Y528966D02*
D03*
Y532116D02*
D03*
X417483Y535266D02*
D03*
X346147D02*
D03*
Y532116D02*
D03*
Y528966D02*
D03*
Y525817D02*
D03*
X339454D02*
D03*
Y528966D02*
D03*
Y532116D02*
D03*
X339454Y535266D02*
D03*
X292597Y525817D02*
D03*
Y528966D02*
D03*
Y532116D02*
D03*
Y535266D02*
D03*
X299290D02*
D03*
Y532116D02*
D03*
Y528966D02*
D03*
X299291Y525817D02*
D03*
X270119Y535266D02*
D03*
Y532116D02*
D03*
Y528966D02*
D03*
Y525817D02*
D03*
X263426D02*
D03*
Y528966D02*
D03*
Y532116D02*
D03*
X263425Y535266D02*
D03*
X212974Y525817D02*
D03*
Y528966D02*
D03*
Y532116D02*
D03*
Y535266D02*
D03*
X219667D02*
D03*
Y532116D02*
D03*
Y528966D02*
D03*
X219667Y525817D02*
D03*
X149233D02*
D03*
X149233Y528966D02*
D03*
Y532116D02*
D03*
Y535266D02*
D03*
X142540D02*
D03*
Y532116D02*
D03*
Y528966D02*
D03*
Y525817D02*
D03*
D81*
X276000Y597756D02*
D03*
Y592244D02*
D03*
D82*
X513409Y554409D02*
D03*
X509929Y550929D02*
D03*
D83*
X543646Y622169D02*
D03*
Y617169D02*
D03*
Y612169D02*
D03*
Y607169D02*
D03*
X515693Y622169D02*
D03*
Y617169D02*
D03*
Y612169D02*
D03*
Y607169D02*
D03*
D84*
X485669Y583669D02*
D03*
D85*
X472382Y593905D02*
D03*
Y592331D02*
D03*
Y590756D02*
D03*
Y589181D02*
D03*
Y587606D02*
D03*
Y586031D02*
D03*
Y584457D02*
D03*
Y582882D02*
D03*
Y581307D02*
D03*
Y579732D02*
D03*
Y578157D02*
D03*
Y576583D02*
D03*
Y575008D02*
D03*
Y573433D02*
D03*
X498957D02*
D03*
Y575008D02*
D03*
Y576583D02*
D03*
Y578157D02*
D03*
Y579732D02*
D03*
Y581307D02*
D03*
Y582882D02*
D03*
Y584457D02*
D03*
Y586031D02*
D03*
Y587606D02*
D03*
Y589181D02*
D03*
Y590756D02*
D03*
Y592331D02*
D03*
Y593905D02*
D03*
D86*
X494929Y554409D02*
D03*
X498409Y550929D02*
D03*
D87*
X58413Y531740D02*
D03*
Y528000D02*
D03*
Y524260D02*
D03*
X47587D02*
D03*
Y531740D02*
D03*
M02*
