M48
;Layer_Color=9474304
;FILE_FORMAT=2:4
INCH,LZ
T13F00S00C0.0100
%
G90
G05
T13
G00X152407Y044441
M15
G01X152433Y044452
G01X152453Y044472
G01X152464Y044498
G01X152464Y045502
G01X152453Y045529
G01X152433Y045549
G01X152407Y045559
G01X151359Y045559
G01X151345Y045559
G01X151316Y045544
G01X151295Y04552
G01X151285Y04549
G01X151286Y04547
G01X151286Y044498
G01X151297Y044472
G01X151317Y044452
G01X151343Y044441
G01X152407Y044441
M16
G00X144905Y010691
M15
G01X144934Y010706
G01X144955Y01073
G01X144965Y01076
G01X144964Y01078
G01X144964Y011752
G01X144953Y011778
G01X144933Y011798
G01X144907Y011809
G01X143843Y011809
G01X143817Y011798
G01X143797Y011778
G01X143786Y011752
G01X143786Y010748
G01X143797Y010721
G01X143817Y010701
G01X143843Y010691
G01X144891Y010691
G01X144905Y010691
M16
G00X152405Y003191
M15
G01X152434Y003206
G01X152455Y00323
G01X152465Y00326
G01X152464Y00328
G01X152464Y004252
G01X152453Y004278
G01X152433Y004298
G01X152407Y004309
G01X151343Y004309
G01X151317Y004298
G01X151297Y004278
G01X151286Y004252
G01X151286Y003248
G01X151297Y003221
G01X151317Y003201
G01X151343Y003191
G01X152391Y003191
G01X152405Y003191
M16
G00X144905Y003191
M15
G01X144934Y003206
G01X144955Y00323
G01X144965Y00326
G01X144964Y00328
G01X144964Y004252
G01X144953Y004278
G01X144933Y004298
G01X144907Y004309
G01X143843Y004309
G01X143817Y004298
G01X143797Y004278
G01X143786Y004252
G01X143786Y003248
G01X143797Y003221
G01X143817Y003201
G01X143843Y003191
G01X144891Y003191
G01X144905Y003191
M16
G00X137405Y003191
M15
G01X137434Y003206
G01X137455Y00323
G01X137465Y00326
G01X137464Y00328
G01X137464Y004252
G01X137453Y004278
G01X137433Y004298
G01X137407Y004309
G01X136343Y004309
G01X136317Y004298
G01X136297Y004278
G01X136286Y004252
G01X136286Y003248
G01X136297Y003221
G01X136317Y003201
G01X136343Y003191
G01X137391Y003191
G01X137405Y003191
M16
G00X12803Y005066
M15
G01X128059Y005081
G01X12808Y005105
G01X12809Y005135
G01X128089Y005155
G01X128089Y006127
G01X128078Y006153
G01X128058Y006173
G01X128032Y006184
G01X126968Y006184
G01X126942Y006173
G01X126922Y006153
G01X126911Y006127
G01X126911Y005123
G01X126922Y005096
G01X126942Y005076
G01X126968Y005066
G01X128016Y005066
G01X12803Y005066
M16
G00X12053Y005066
M15
G01X120559Y005081
G01X12058Y005105
G01X12059Y005135
G01X120589Y005155
G01X120589Y006127
G01X120578Y006153
G01X120558Y006173
G01X120532Y006184
G01X119468Y006184
G01X119442Y006173
G01X119422Y006153
G01X119411Y006127
G01X119411Y005123
G01X119422Y005096
G01X119442Y005076
G01X119468Y005066
G01X120516Y005066
G01X12053Y005066
M16
G00X11303Y005066
M15
G01X113059Y005081
G01X11308Y005105
G01X11309Y005135
G01X113089Y005155
G01X113089Y006127
G01X113078Y006153
G01X113058Y006173
G01X113032Y006184
G01X111968Y006184
G01X111942Y006173
G01X111922Y006153
G01X111911Y006127
G01X111911Y005123
G01X111922Y005096
G01X111942Y005076
G01X111968Y005066
G01X113016Y005066
G01X11303Y005066
M16
G00X085843Y005066
M15
G01X085872Y005081
G01X085893Y005105
G01X085903Y005135
G01X085901Y005155
G01X085901Y006127
G01X085891Y006153
G01X085871Y006173
G01X085844Y006184
G01X084781Y006184
G01X084754Y006173
G01X084734Y006153
G01X084724Y006127
G01X084724Y005123
G01X084734Y005096
G01X084754Y005076
G01X084781Y005066
G01X085829Y005066
G01X085843Y005066
M16
G00X057718Y005066
M15
G01X057747Y005081
G01X057768Y005105
G01X057778Y005135
G01X057776Y005155
G01X057776Y006127
G01X057766Y006153
G01X057746Y006173
G01X057719Y006184
G01X056656Y006184
G01X056629Y006173
G01X056609Y006153
G01X056599Y006127
G01X056599Y005123
G01X056609Y005096
G01X056629Y005076
G01X056656Y005066
G01X057704Y005066
G01X057718Y005066
M16
G00X048343Y005066
M15
G01X048372Y005081
G01X048393Y005105
G01X048403Y005135
G01X048401Y005155
G01X048401Y006127
G01X048391Y006153
G01X048371Y006173
G01X048344Y006184
G01X047281Y006184
G01X047254Y006173
G01X047234Y006153
G01X047224Y006127
G01X047224Y005123
G01X047234Y005096
G01X047254Y005076
G01X047281Y005066
G01X048328Y005066
G01X048343Y005066
M16
G00X038968Y005066
M15
G01X038997Y005081
G01X039018Y005105
G01X039028Y005135
G01X039026Y005155
G01X039026Y006127
G01X039016Y006153
G01X038996Y006173
G01X038969Y006184
G01X037906Y006184
G01X037879Y006173
G01X037859Y006153
G01X037849Y006127
G01X037849Y005123
G01X037859Y005096
G01X037879Y005076
G01X037906Y005066
G01X038954Y005066
G01X038968Y005066
M16
G00X02113Y005066
M15
G01X021159Y005081
G01X02118Y005105
G01X02119Y005135
G01X021189Y005155
G01X021189Y006127
G01X021178Y006153
G01X021158Y006173
G01X021132Y006184
G01X020068Y006184
G01X020042Y006173
G01X020022Y006153
G01X020011Y006127
G01X020011Y005123
G01X020022Y005096
G01X020042Y005076
G01X020068Y005066
G01X021116Y005066
G01X02113Y005066
M16
G00X009905Y005066
M15
G01X009934Y005081
G01X009955Y005105
G01X009965Y005135
G01X009964Y005155
G01X009964Y006127
G01X009953Y006153
G01X009933Y006173
G01X009907Y006184
G01X008843Y006184
G01X008817Y006173
G01X008797Y006153
G01X008786Y006127
G01X008786Y005123
G01X008797Y005096
G01X008817Y005076
G01X008843Y005066
G01X009891Y005066
G01X009905Y005066
M16
G00X006157Y012566
M15
G01X006183Y012577
G01X006203Y012597
G01X006214Y012623
G01X006214Y013627
G01X006203Y013654
G01X006183Y013674
G01X006157Y013684
G01X005109Y013684
G01X005095Y013684
G01X005066Y013669
G01X005045Y013645
G01X005035Y013615
G01X005036Y013595
G01X005036Y012623
G01X005047Y012597
G01X005067Y012577
G01X005093Y012566
G01X006157Y012566
M16
G00X013632Y012566
M15
G01X013658Y012577
G01X013678Y012597
G01X013689Y012623
G01X013689Y013627
G01X013678Y013654
G01X013658Y013674
G01X013632Y013684
G01X012584Y013684
G01X01257Y013684
G01X012541Y013669
G01X01252Y013645
G01X01251Y013615
G01X012511Y013595
G01X012511Y012623
G01X012522Y012597
G01X012542Y012577
G01X012568Y012566
G01X013632Y012566
M16
G00X021132Y012566
M15
G01X021158Y012577
G01X021178Y012597
G01X021189Y012623
G01X021189Y013627
G01X021178Y013654
G01X021158Y013674
G01X021132Y013684
G01X020084Y013684
G01X02007Y013684
G01X020041Y013669
G01X02002Y013645
G01X02001Y013615
G01X020011Y013595
G01X020011Y012623
G01X020022Y012597
G01X020042Y012577
G01X020068Y012566
G01X021132Y012566
M16
G00X028632Y008816
M15
G01X028658Y008827
G01X028678Y008847
G01X028689Y008873
G01X028689Y009877
G01X028678Y009904
G01X028658Y009924
G01X028632Y009934
G01X027584Y009934
G01X02757Y009934
G01X027541Y009919
G01X02752Y009895
G01X02751Y009865
G01X027511Y009845
G01X027511Y008873
G01X027522Y008847
G01X027542Y008827
G01X027568Y008816
G01X028632Y008816
M16
G00X042719Y012566
M15
G01X042746Y012577
G01X042766Y012597
G01X042776Y012623
G01X042776Y013627
G01X042766Y013654
G01X042746Y013674
G01X042719Y013684
G01X041672Y013684
G01X041657Y013684
G01X041628Y013669
G01X041607Y013645
G01X041597Y013615
G01X041599Y013595
G01X041599Y012623
G01X041609Y012597
G01X041629Y012577
G01X041656Y012566
G01X042719Y012566
M16
G00X054907Y012566
M15
G01X054933Y012577
G01X054953Y012597
G01X054964Y012623
G01X054964Y013627
G01X054953Y013654
G01X054933Y013674
G01X054907Y013684
G01X053859Y013684
G01X053845Y013684
G01X053816Y013669
G01X053795Y013645
G01X053785Y013615
G01X053786Y013595
G01X053786Y012623
G01X053797Y012597
G01X053817Y012577
G01X053843Y012566
G01X054907Y012566
M16
G00X062407Y012566
M15
G01X062433Y012577
G01X062453Y012597
G01X062464Y012623
G01X062464Y013627
G01X062453Y013654
G01X062433Y013674
G01X062407Y013684
G01X061359Y013684
G01X061345Y013684
G01X061316Y013669
G01X061295Y013645
G01X061285Y013615
G01X061286Y013595
G01X061286Y012623
G01X061297Y012597
G01X061317Y012577
G01X061343Y012566
G01X062407Y012566
M16
G00X069907Y012566
M15
G01X069933Y012577
G01X069953Y012597
G01X069964Y012623
G01X069964Y013627
G01X069953Y013654
G01X069933Y013674
G01X069907Y013684
G01X068859Y013684
G01X068845Y013684
G01X068816Y013669
G01X068795Y013645
G01X068785Y013615
G01X068786Y013595
G01X068786Y012623
G01X068797Y012597
G01X068817Y012577
G01X068843Y012566
G01X069907Y012566
M16
G00X077407Y012566
M15
G01X077433Y012577
G01X077453Y012597
G01X077464Y012623
G01X077464Y013627
G01X077453Y013654
G01X077433Y013674
G01X077407Y013684
G01X076359Y013684
G01X076345Y013684
G01X076316Y013669
G01X076295Y013645
G01X076285Y013615
G01X076286Y013595
G01X076286Y012623
G01X076297Y012597
G01X076317Y012577
G01X076343Y012566
G01X077407Y012566
M16
G00X084907Y012566
M15
G01X084933Y012577
G01X084953Y012597
G01X084964Y012623
G01X084964Y013627
G01X084953Y013654
G01X084933Y013674
G01X084907Y013684
G01X083859Y013684
G01X083845Y013684
G01X083816Y013669
G01X083795Y013645
G01X083785Y013615
G01X083786Y013595
G01X083786Y012623
G01X083797Y012597
G01X083817Y012577
G01X083843Y012566
G01X084907Y012566
M16
G00X092407Y012566
M15
G01X092433Y012577
G01X092453Y012597
G01X092464Y012623
G01X092464Y013627
G01X092453Y013654
G01X092433Y013674
G01X092407Y013684
G01X091359Y013684
G01X091345Y013684
G01X091316Y013669
G01X091295Y013645
G01X091285Y013615
G01X091286Y013595
G01X091286Y012623
G01X091297Y012597
G01X091317Y012577
G01X091343Y012566
G01X092407Y012566
M16
G00X099907Y012566
M15
G01X099933Y012577
G01X099953Y012597
G01X099964Y012623
G01X099964Y013627
G01X099953Y013654
G01X099933Y013674
G01X099907Y013684
G01X098859Y013684
G01X098845Y013684
G01X098816Y013669
G01X098795Y013645
G01X098785Y013615
G01X098786Y013595
G01X098786Y012623
G01X098797Y012597
G01X098817Y012577
G01X098843Y012566
G01X099907Y012566
M16
G00X107407Y012566
M15
G01X107433Y012577
G01X107453Y012597
G01X107464Y012623
G01X107464Y013627
G01X107453Y013654
G01X107433Y013674
G01X107407Y013684
G01X106359Y013684
G01X106345Y013684
G01X106316Y013669
G01X106295Y013645
G01X106285Y013615
G01X106286Y013595
G01X106286Y012623
G01X106297Y012597
G01X106317Y012577
G01X106343Y012566
G01X107407Y012566
M16
G00X114907Y012566
M15
G01X114933Y012577
G01X114953Y012597
G01X114964Y012623
G01X114964Y013627
G01X114953Y013654
G01X114933Y013674
G01X114907Y013684
G01X113859Y013684
G01X113845Y013684
G01X113816Y013669
G01X113795Y013645
G01X113785Y013615
G01X113786Y013595
G01X113786Y012623
G01X113797Y012597
G01X113817Y012577
G01X113843Y012566
G01X114907Y012566
M16
G00X122407Y012566
M15
G01X122433Y012577
G01X122453Y012597
G01X122464Y012623
G01X122464Y013627
G01X122453Y013654
G01X122433Y013674
G01X122407Y013684
G01X121359Y013684
G01X121345Y013684
G01X121316Y013669
G01X121295Y013645
G01X121285Y013615
G01X121286Y013595
G01X121286Y012623
G01X121297Y012597
G01X121317Y012577
G01X121343Y012566
G01X122407Y012566
M16
G00X132719Y012566
M15
G01X132746Y012577
G01X132766Y012597
G01X132776Y012623
G01X132776Y013627
G01X132766Y013654
G01X132746Y013674
G01X132719Y013684
G01X131672Y013684
G01X131657Y013684
G01X131628Y013669
G01X131608Y013645
G01X131597Y013615
G01X131599Y013595
G01X131599Y012623
G01X131609Y012597
G01X13163Y012577
G01X131656Y012566
G01X132719Y012566
M16
G00X152405Y020066
M15
G01X152434Y020081
G01X152455Y020105
G01X152465Y020135
G01X152464Y020155
G01X152464Y021127
G01X152453Y021153
G01X152433Y021173
G01X152407Y021184
G01X151343Y021184
G01X151317Y021173
G01X151297Y021153
G01X151286Y021127
G01X151286Y020123
G01X151297Y020096
G01X151317Y020076
G01X151343Y020066
G01X152391Y020066
G01X152405Y020066
M16
G00X138343Y020066
M15
G01X138372Y020081
G01X138392Y020105
G01X138403Y020135
G01X138401Y020155
G01X138401Y021127
G01X138391Y021153
G01X13837Y021173
G01X138344Y021184
G01X137281Y021184
G01X137254Y021173
G01X137234Y021153
G01X137224Y021127
G01X137224Y020123
G01X137234Y020096
G01X137254Y020076
G01X137281Y020066
G01X138328Y020066
G01X138343Y020066
M16
G00X126155Y020066
M15
G01X126184Y020081
G01X126205Y020105
G01X126215Y020135
G01X126214Y020155
G01X126214Y021127
G01X126203Y021153
G01X126183Y021173
G01X126157Y021184
G01X125093Y021184
G01X125067Y021173
G01X125047Y021153
G01X125036Y021127
G01X125036Y020123
G01X125047Y020096
G01X125067Y020076
G01X125093Y020066
G01X126141Y020066
G01X126155Y020066
M16
G00X118655Y020066
M15
G01X118684Y020081
G01X118705Y020105
G01X118715Y020135
G01X118714Y020155
G01X118714Y021127
G01X118703Y021153
G01X118683Y021173
G01X118657Y021184
G01X117593Y021184
G01X117567Y021173
G01X117547Y021153
G01X117536Y021127
G01X117536Y020123
G01X117547Y020096
G01X117567Y020076
G01X117593Y020066
G01X118641Y020066
G01X118655Y020066
M16
G00X111155Y020066
M15
G01X111184Y020081
G01X111205Y020105
G01X111215Y020135
G01X111214Y020155
G01X111214Y021127
G01X111203Y021153
G01X111183Y021173
G01X111157Y021184
G01X110093Y021184
G01X110067Y021173
G01X110047Y021153
G01X110036Y021127
G01X110036Y020123
G01X110047Y020096
G01X110067Y020076
G01X110093Y020066
G01X111141Y020066
G01X111155Y020066
M16
G00X103655Y020066
M15
G01X103684Y020081
G01X103705Y020105
G01X103715Y020135
G01X103714Y020155
G01X103714Y021127
G01X103703Y021153
G01X103683Y021173
G01X103657Y021184
G01X102593Y021184
G01X102567Y021173
G01X102547Y021153
G01X102536Y021127
G01X102536Y020123
G01X102547Y020096
G01X102567Y020076
G01X102593Y020066
G01X103641Y020066
G01X103655Y020066
M16
G00X096155Y020066
M15
G01X096184Y020081
G01X096205Y020105
G01X096215Y020135
G01X096214Y020155
G01X096214Y021127
G01X096203Y021153
G01X096183Y021173
G01X096157Y021184
G01X095093Y021184
G01X095067Y021173
G01X095047Y021153
G01X095036Y021127
G01X095036Y020123
G01X095047Y020096
G01X095067Y020076
G01X095093Y020066
G01X096141Y020066
G01X096155Y020066
M16
G00X088655Y020066
M15
G01X088684Y020081
G01X088705Y020105
G01X088715Y020135
G01X088714Y020155
G01X088714Y021127
G01X088703Y021153
G01X088683Y021173
G01X088657Y021184
G01X087593Y021184
G01X087567Y021173
G01X087547Y021153
G01X087536Y021127
G01X087536Y020123
G01X087547Y020096
G01X087567Y020076
G01X087593Y020066
G01X088641Y020066
G01X088655Y020066
M16
G00X081155Y020066
M15
G01X081184Y020081
G01X081205Y020105
G01X081215Y020135
G01X081214Y020155
G01X081214Y021127
G01X081203Y021153
G01X081183Y021173
G01X081157Y021184
G01X080093Y021184
G01X080067Y021173
G01X080047Y021153
G01X080036Y021127
G01X080036Y020123
G01X080047Y020096
G01X080067Y020076
G01X080093Y020066
G01X081141Y020066
G01X081155Y020066
M16
G00X073655Y020066
M15
G01X073684Y020081
G01X073705Y020105
G01X073715Y020135
G01X073714Y020155
G01X073714Y021127
G01X073703Y021153
G01X073683Y021173
G01X073657Y021184
G01X072593Y021184
G01X072567Y021173
G01X072547Y021153
G01X072536Y021127
G01X072536Y020123
G01X072547Y020096
G01X072567Y020076
G01X072593Y020066
G01X073641Y020066
G01X073655Y020066
M16
G00X066155Y020066
M15
G01X066184Y020081
G01X066205Y020105
G01X066215Y020135
G01X066214Y020155
G01X066214Y021127
G01X066203Y021153
G01X066183Y021173
G01X066157Y021184
G01X065093Y021184
G01X065067Y021173
G01X065047Y021153
G01X065036Y021127
G01X065036Y020123
G01X065047Y020096
G01X065067Y020076
G01X065093Y020066
G01X066141Y020066
G01X066155Y020066
M16
G00X058655Y020066
M15
G01X058684Y020081
G01X058705Y020105
G01X058715Y020135
G01X058714Y020155
G01X058714Y021127
G01X058703Y021153
G01X058683Y021173
G01X058657Y021184
G01X057593Y021184
G01X057567Y021173
G01X057547Y021153
G01X057536Y021127
G01X057536Y020123
G01X057547Y020096
G01X057567Y020076
G01X057593Y020066
G01X058641Y020066
G01X058655Y020066
M16
G00X051155Y020066
M15
G01X051184Y020081
G01X051205Y020105
G01X051215Y020135
G01X051214Y020155
G01X051214Y021127
G01X051203Y021153
G01X051183Y021173
G01X051157Y021184
G01X050093Y021184
G01X050067Y021173
G01X050047Y021153
G01X050036Y021127
G01X050036Y020123
G01X050047Y020096
G01X050067Y020076
G01X050093Y020066
G01X051141Y020066
G01X051155Y020066
M16
G00X040843Y020066
M15
G01X040872Y020081
G01X040893Y020105
G01X040903Y020135
G01X040901Y020155
G01X040901Y021127
G01X040891Y021153
G01X040871Y021173
G01X040844Y021184
G01X039781Y021184
G01X039754Y021173
G01X039734Y021153
G01X039724Y021127
G01X039724Y020123
G01X039734Y020096
G01X039754Y020076
G01X039781Y020066
G01X040828Y020066
G01X040843Y020066
M16
G00X02113Y020066
M15
G01X021159Y020081
G01X02118Y020105
G01X02119Y020135
G01X021189Y020155
G01X021189Y021127
G01X021178Y021153
G01X021158Y021173
G01X021132Y021184
G01X020068Y021184
G01X020042Y021173
G01X020022Y021153
G01X020011Y021127
G01X020011Y020123
G01X020022Y020096
G01X020042Y020076
G01X020068Y020066
G01X021116Y020066
G01X02113Y020066
M16
G00X01363Y020068
M15
G01X013659Y020083
G01X01368Y020107
G01X01369Y020137
G01X013689Y020157
G01X013689Y021129
G01X013678Y021155
G01X013658Y021175
G01X013632Y021186
G01X012568Y021186
G01X012542Y021175
G01X012522Y021155
G01X012511Y021129
G01X012511Y020125
G01X012522Y020098
G01X012542Y020078
G01X012568Y020068
G01X013616Y020068
G01X01363Y020068
M16
G00X006155Y020066
M15
G01X006184Y020081
G01X006205Y020105
G01X006215Y020135
G01X006214Y020155
G01X006214Y021127
G01X006203Y021153
G01X006183Y021173
G01X006157Y021184
G01X005093Y021184
G01X005067Y021173
G01X005047Y021153
G01X005036Y021127
G01X005036Y020123
G01X005047Y020096
G01X005067Y020076
G01X005093Y020066
G01X006141Y020066
G01X006155Y020066
M16
G00X006132Y027566
M15
G01X006158Y027577
G01X006178Y027597
G01X006189Y027623
G01X006189Y028627
G01X006178Y028654
G01X006158Y028674
G01X006132Y028684
G01X005084Y028684
G01X00507Y028684
G01X005041Y028669
G01X00502Y028645
G01X00501Y028615
G01X005011Y028595
G01X005011Y027623
G01X005022Y027597
G01X005042Y027577
G01X005068Y027566
G01X006132Y027566
M16
G00X013632Y027566
M15
G01X013658Y027577
G01X013678Y027597
G01X013689Y027623
G01X013689Y028627
G01X013678Y028654
G01X013658Y028674
G01X013632Y028684
G01X012584Y028684
G01X01257Y028684
G01X012541Y028669
G01X01252Y028645
G01X01251Y028615
G01X012511Y028595
G01X012511Y027623
G01X012522Y027597
G01X012542Y027577
G01X012568Y027566
G01X013632Y027566
M16
G00X021132Y027566
M15
G01X021158Y027577
G01X021178Y027597
G01X021189Y027623
G01X021189Y028627
G01X021178Y028654
G01X021158Y028674
G01X021132Y028684
G01X020084Y028684
G01X02007Y028684
G01X020041Y028669
G01X02002Y028645
G01X02001Y028615
G01X020011Y028595
G01X020011Y027623
G01X020022Y027597
G01X020042Y027577
G01X020068Y027566
G01X021132Y027566
M16
G00X028632Y023816
M15
G01X028658Y023827
G01X028678Y023847
G01X028689Y023873
G01X028689Y024877
G01X028678Y024904
G01X028658Y024924
G01X028632Y024934
G01X027584Y024934
G01X02757Y024934
G01X027541Y024919
G01X02752Y024895
G01X02751Y024865
G01X027511Y024845
G01X027511Y023873
G01X027522Y023847
G01X027542Y023827
G01X027568Y023816
G01X028632Y023816
M16
G00X039907Y027566
M15
G01X039933Y027577
G01X039953Y027597
G01X039964Y027623
G01X039964Y028627
G01X039953Y028654
G01X039933Y028674
G01X039907Y028684
G01X038859Y028684
G01X038845Y028684
G01X038816Y028669
G01X038795Y028645
G01X038785Y028615
G01X038786Y028595
G01X038786Y027623
G01X038797Y027597
G01X038817Y027577
G01X038843Y027566
G01X039907Y027566
M16
G00X049282Y027566
M15
G01X049308Y027577
G01X049328Y027597
G01X049339Y027623
G01X049339Y028627
G01X049328Y028654
G01X049308Y028674
G01X049282Y028684
G01X048234Y028684
G01X04822Y028684
G01X048191Y028669
G01X04817Y028645
G01X04816Y028615
G01X048161Y028595
G01X048161Y027623
G01X048172Y027597
G01X048192Y027577
G01X048218Y027566
G01X049282Y027566
M16
G00X056782Y027566
M15
G01X056808Y027577
G01X056828Y027597
G01X056839Y027623
G01X056839Y028627
G01X056828Y028654
G01X056808Y028674
G01X056782Y028684
G01X055734Y028684
G01X05572Y028684
G01X055691Y028669
G01X05567Y028645
G01X05566Y028615
G01X055661Y028595
G01X055661Y027623
G01X055672Y027597
G01X055692Y027577
G01X055718Y027566
G01X056782Y027566
M16
G00X064282Y027566
M15
G01X064308Y027577
G01X064328Y027597
G01X064339Y027623
G01X064339Y028627
G01X064328Y028654
G01X064308Y028674
G01X064282Y028684
G01X063234Y028684
G01X06322Y028684
G01X063191Y028669
G01X06317Y028645
G01X06316Y028615
G01X063161Y028595
G01X063161Y027623
G01X063172Y027597
G01X063192Y027577
G01X063218Y027566
G01X064282Y027566
M16
G00X071782Y027566
M15
G01X071808Y027577
G01X071828Y027597
G01X071839Y027623
G01X071839Y028627
G01X071828Y028654
G01X071808Y028674
G01X071782Y028684
G01X070734Y028684
G01X07072Y028684
G01X070691Y028669
G01X07067Y028645
G01X07066Y028615
G01X070661Y028595
G01X070661Y027623
G01X070672Y027597
G01X070692Y027577
G01X070718Y027566
G01X071782Y027566
M16
G00X079282Y027566
M15
G01X079308Y027577
G01X079328Y027597
G01X079339Y027623
G01X079339Y028627
G01X079328Y028654
G01X079308Y028674
G01X079282Y028684
G01X078234Y028684
G01X07822Y028684
G01X078191Y028669
G01X07817Y028645
G01X07816Y028615
G01X078161Y028595
G01X078161Y027623
G01X078172Y027597
G01X078192Y027577
G01X078218Y027566
G01X079282Y027566
M16
G00X086782Y027566
M15
G01X086808Y027577
G01X086828Y027597
G01X086839Y027623
G01X086839Y028627
G01X086828Y028654
G01X086808Y028674
G01X086782Y028684
G01X085734Y028684
G01X08572Y028684
G01X085691Y028669
G01X08567Y028645
G01X08566Y028615
G01X085661Y028595
G01X085661Y027623
G01X085672Y027597
G01X085692Y027577
G01X085718Y027566
G01X086782Y027566
M16
G00X094282Y027566
M15
G01X094308Y027577
G01X094328Y027597
G01X094339Y027623
G01X094339Y028627
G01X094328Y028654
G01X094308Y028674
G01X094282Y028684
G01X093234Y028684
G01X09322Y028684
G01X093191Y028669
G01X09317Y028645
G01X09316Y028615
G01X093161Y028595
G01X093161Y027623
G01X093172Y027597
G01X093192Y027577
G01X093218Y027566
G01X094282Y027566
M16
G00X101782Y027566
M15
G01X101808Y027577
G01X101828Y027597
G01X101839Y027623
G01X101839Y028627
G01X101828Y028654
G01X101808Y028674
G01X101782Y028684
G01X100734Y028684
G01X10072Y028684
G01X100691Y028669
G01X10067Y028645
G01X10066Y028615
G01X100661Y028595
G01X100661Y027623
G01X100672Y027597
G01X100692Y027577
G01X100718Y027566
G01X101782Y027566
M16
G00X109282Y027566
M15
G01X109308Y027577
G01X109328Y027597
G01X109339Y027623
G01X109339Y028627
G01X109328Y028654
G01X109308Y028674
G01X109282Y028684
G01X108234Y028684
G01X10822Y028684
G01X108191Y028669
G01X10817Y028645
G01X10816Y028615
G01X108161Y028595
G01X108161Y027623
G01X108172Y027597
G01X108192Y027577
G01X108218Y027566
G01X109282Y027566
M16
G00X116782Y027566
M15
G01X116808Y027577
G01X116828Y027597
G01X116839Y027623
G01X116839Y028627
G01X116828Y028654
G01X116808Y028674
G01X116782Y028684
G01X115734Y028684
G01X11572Y028684
G01X115691Y028669
G01X11567Y028645
G01X11566Y028615
G01X115661Y028595
G01X115661Y027623
G01X115672Y027597
G01X115692Y027577
G01X115718Y027566
G01X116782Y027566
M16
G00X124282Y027566
M15
G01X124308Y027577
G01X124328Y027597
G01X124339Y027623
G01X124339Y028627
G01X124328Y028654
G01X124308Y028674
G01X124282Y028684
G01X123234Y028684
G01X12322Y028684
G01X123191Y028669
G01X12317Y028645
G01X12316Y028615
G01X123161Y028595
G01X123161Y027623
G01X123172Y027597
G01X123192Y027577
G01X123218Y027566
G01X124282Y027566
M16
G00X131782Y027566
M15
G01X131808Y027577
G01X131828Y027597
G01X131839Y027623
G01X131839Y028627
G01X131828Y028654
G01X131808Y028674
G01X131782Y028684
G01X130734Y028684
G01X13072Y028684
G01X130691Y028669
G01X13067Y028645
G01X13066Y028615
G01X130661Y028595
G01X130661Y027623
G01X130672Y027597
G01X130692Y027577
G01X130718Y027566
G01X131782Y027566
M16
G00X141157Y027566
M15
G01X141183Y027577
G01X141203Y027597
G01X141214Y027623
G01X141214Y028627
G01X141203Y028654
G01X141183Y028674
G01X141157Y028684
G01X140109Y028684
G01X140095Y028684
G01X140066Y028669
G01X140045Y028645
G01X140035Y028615
G01X140036Y028595
G01X140036Y027623
G01X140047Y027597
G01X140067Y027577
G01X140093Y027566
G01X141157Y027566
M16
G00X152407Y027566
M15
G01X152433Y027577
G01X152453Y027597
G01X152464Y027623
G01X152464Y028627
G01X152453Y028654
G01X152433Y028674
G01X152407Y028684
G01X151359Y028684
G01X151345Y028684
G01X151316Y028669
G01X151295Y028645
G01X151285Y028615
G01X151286Y028595
G01X151286Y027623
G01X151297Y027597
G01X151317Y027577
G01X151343Y027566
G01X152407Y027566
M16
G00X152405Y035066
M15
G01X152434Y035081
G01X152455Y035105
G01X152465Y035135
G01X152464Y035155
G01X152464Y036127
G01X152453Y036153
G01X152433Y036173
G01X152407Y036184
G01X151343Y036184
G01X151317Y036173
G01X151297Y036153
G01X151286Y036127
G01X151286Y035123
G01X151297Y035096
G01X151317Y035076
G01X151343Y035066
G01X152391Y035066
G01X152405Y035066
M16
G00X13928Y035066
M15
G01X139309Y035081
G01X13933Y035105
G01X13934Y035135
G01X139339Y035155
G01X139339Y036127
G01X139328Y036153
G01X139308Y036173
G01X139282Y036184
G01X138218Y036184
G01X138192Y036173
G01X138172Y036153
G01X138161Y036127
G01X138161Y035123
G01X138172Y035096
G01X138192Y035076
G01X138218Y035066
G01X139266Y035066
G01X13928Y035066
M16
G00X12803Y035066
M15
G01X128059Y035081
G01X12808Y035105
G01X12809Y035135
G01X128089Y035155
G01X128089Y036127
G01X128078Y036153
G01X128058Y036173
G01X128032Y036184
G01X126968Y036184
G01X126942Y036173
G01X126922Y036153
G01X126911Y036127
G01X126911Y035123
G01X126922Y035096
G01X126942Y035076
G01X126968Y035066
G01X128016Y035066
G01X12803Y035066
M16
G00X12053Y035066
M15
G01X120559Y035081
G01X12058Y035105
G01X12059Y035135
G01X120589Y035155
G01X120589Y036127
G01X120578Y036153
G01X120558Y036173
G01X120532Y036184
G01X119468Y036184
G01X119442Y036173
G01X119422Y036153
G01X119411Y036127
G01X119411Y035123
G01X119422Y035096
G01X119442Y035076
G01X119468Y035066
G01X120516Y035066
G01X12053Y035066
M16
G00X11303Y035066
M15
G01X113059Y035081
G01X11308Y035105
G01X11309Y035135
G01X113089Y035155
G01X113089Y036127
G01X113078Y036153
G01X113058Y036173
G01X113032Y036184
G01X111968Y036184
G01X111942Y036173
G01X111922Y036153
G01X111911Y036127
G01X111911Y035123
G01X111922Y035096
G01X111942Y035076
G01X111968Y035066
G01X113016Y035066
G01X11303Y035066
M16
G00X10553Y035066
M15
G01X105559Y035081
G01X10558Y035105
G01X10559Y035135
G01X105589Y035155
G01X105589Y036127
G01X105578Y036153
G01X105558Y036173
G01X105532Y036184
G01X104468Y036184
G01X104442Y036173
G01X104422Y036153
G01X104411Y036127
G01X104411Y035123
G01X104422Y035096
G01X104442Y035076
G01X104468Y035066
G01X105516Y035066
G01X10553Y035066
M16
G00X09803Y035066
M15
G01X098059Y035081
G01X09808Y035105
G01X09809Y035135
G01X098089Y035155
G01X098089Y036127
G01X098078Y036153
G01X098058Y036173
G01X098032Y036184
G01X096968Y036184
G01X096942Y036173
G01X096922Y036153
G01X096911Y036127
G01X096911Y035123
G01X096922Y035096
G01X096942Y035076
G01X096968Y035066
G01X098016Y035066
G01X09803Y035066
M16
G00X09053Y035066
M15
G01X090559Y035081
G01X09058Y035105
G01X09059Y035135
G01X090589Y035155
G01X090589Y036127
G01X090578Y036153
G01X090558Y036173
G01X090532Y036184
G01X089468Y036184
G01X089442Y036173
G01X089422Y036153
G01X089411Y036127
G01X089411Y035123
G01X089422Y035096
G01X089442Y035076
G01X089468Y035066
G01X090516Y035066
G01X09053Y035066
M16
G00X08303Y035066
M15
G01X083059Y035081
G01X08308Y035105
G01X08309Y035135
G01X083089Y035155
G01X083089Y036127
G01X083078Y036153
G01X083058Y036173
G01X083032Y036184
G01X081968Y036184
G01X081942Y036173
G01X081922Y036153
G01X081911Y036127
G01X081911Y035123
G01X081922Y035096
G01X081942Y035076
G01X081968Y035066
G01X083016Y035066
G01X08303Y035066
M16
G00X07553Y035066
M15
G01X075559Y035081
G01X07558Y035105
G01X07559Y035135
G01X075589Y035155
G01X075589Y036127
G01X075578Y036153
G01X075558Y036173
G01X075532Y036184
G01X074468Y036184
G01X074442Y036173
G01X074422Y036153
G01X074411Y036127
G01X074411Y035123
G01X074422Y035096
G01X074442Y035076
G01X074468Y035066
G01X075516Y035066
G01X07553Y035066
M16
G00X06803Y035066
M15
G01X068059Y035081
G01X06808Y035105
G01X06809Y035135
G01X068089Y035155
G01X068089Y036127
G01X068078Y036153
G01X068058Y036173
G01X068032Y036184
G01X066968Y036184
G01X066942Y036173
G01X066922Y036153
G01X066911Y036127
G01X066911Y035123
G01X066922Y035096
G01X066942Y035076
G01X066968Y035066
G01X068016Y035066
G01X06803Y035066
M16
G00X06053Y035066
M15
G01X060559Y035081
G01X06058Y035105
G01X06059Y035135
G01X060589Y035155
G01X060589Y036127
G01X060578Y036153
G01X060558Y036173
G01X060532Y036184
G01X059468Y036184
G01X059442Y036173
G01X059422Y036153
G01X059411Y036127
G01X059411Y035123
G01X059422Y035096
G01X059442Y035076
G01X059468Y035066
G01X060516Y035066
G01X06053Y035066
M16
G00X05303Y035066
M15
G01X053059Y035081
G01X05308Y035105
G01X05309Y035135
G01X053089Y035155
G01X053089Y036127
G01X053078Y036153
G01X053058Y036173
G01X053032Y036184
G01X051968Y036184
G01X051942Y036173
G01X051922Y036153
G01X051911Y036127
G01X051911Y035123
G01X051922Y035096
G01X051942Y035076
G01X051968Y035066
G01X053016Y035066
G01X05303Y035066
M16
G00X04553Y035066
M15
G01X045559Y035081
G01X04558Y035105
G01X04559Y035135
G01X045589Y035155
G01X045589Y036127
G01X045578Y036153
G01X045558Y036173
G01X045532Y036184
G01X044468Y036184
G01X044442Y036173
G01X044422Y036153
G01X044411Y036127
G01X044411Y035123
G01X044422Y035096
G01X044442Y035076
G01X044468Y035066
G01X045516Y035066
G01X04553Y035066
M16
G00X03803Y035066
M15
G01X038059Y035081
G01X03808Y035105
G01X03809Y035135
G01X038089Y035155
G01X038089Y036127
G01X038078Y036153
G01X038058Y036173
G01X038032Y036184
G01X036968Y036184
G01X036942Y036173
G01X036922Y036153
G01X036911Y036127
G01X036911Y035123
G01X036922Y035096
G01X036942Y035076
G01X036968Y035066
G01X038016Y035066
G01X03803Y035066
M16
G00X02863Y035066
M15
G01X028659Y035081
G01X02868Y035105
G01X02869Y035135
G01X028689Y035155
G01X028689Y036127
G01X028678Y036153
G01X028658Y036173
G01X028632Y036184
G01X027568Y036184
G01X027542Y036173
G01X027522Y036153
G01X027511Y036127
G01X027511Y035123
G01X027522Y035096
G01X027542Y035076
G01X027568Y035066
G01X028616Y035066
G01X02863Y035066
M16
G00X02113Y035066
M15
G01X021159Y035081
G01X02118Y035105
G01X02119Y035135
G01X021189Y035155
G01X021189Y036127
G01X021178Y036153
G01X021158Y036173
G01X021132Y036184
G01X020068Y036184
G01X020042Y036173
G01X020022Y036153
G01X020011Y036127
G01X020011Y035123
G01X020022Y035096
G01X020042Y035076
G01X020068Y035066
G01X021116Y035066
G01X02113Y035066
M16
G00X01363Y035066
M15
G01X013659Y035081
G01X01368Y035105
G01X01369Y035135
G01X013689Y035155
G01X013689Y036127
G01X013678Y036153
G01X013658Y036173
G01X013632Y036184
G01X012568Y036184
G01X012542Y036173
G01X012522Y036153
G01X012511Y036127
G01X012511Y035123
G01X012522Y035096
G01X012542Y035076
G01X012568Y035066
G01X013616Y035066
G01X01363Y035066
M16
G00X00613Y035066
M15
G01X006159Y035081
G01X00618Y035105
G01X00619Y035135
G01X006189Y035155
G01X006189Y036127
G01X006178Y036153
G01X006158Y036173
G01X006132Y036184
G01X005068Y036184
G01X005042Y036173
G01X005022Y036153
G01X005011Y036127
G01X005011Y035123
G01X005022Y035096
G01X005042Y035076
G01X005068Y035066
G01X006116Y035066
G01X00613Y035066
M16
G00X006132Y044441
M15
G01X006158Y044452
G01X006178Y044472
G01X006189Y044498
G01X006189Y045502
G01X006178Y045529
G01X006158Y045549
G01X006132Y045559
G01X005084Y045559
G01X00507Y045559
G01X005041Y045544
G01X00502Y04552
G01X00501Y04549
G01X005011Y04547
G01X005011Y044498
G01X005022Y044472
G01X005042Y044452
G01X005068Y044441
G01X006132Y044441
M16
G00X013632Y044441
M15
G01X013658Y044452
G01X013678Y044472
G01X013689Y044498
G01X013689Y045502
G01X013678Y045529
G01X013658Y045549
G01X013632Y045559
G01X012584Y045559
G01X01257Y045559
G01X012541Y045544
G01X01252Y04552
G01X01251Y04549
G01X012511Y04547
G01X012511Y044498
G01X012522Y044472
G01X012542Y044452
G01X012568Y044441
G01X013632Y044441
M16
G00X021132Y044441
M15
G01X021158Y044452
G01X021178Y044472
G01X021189Y044498
G01X021189Y045502
G01X021178Y045529
G01X021158Y045549
G01X021132Y045559
G01X020084Y045559
G01X02007Y045559
G01X020041Y045544
G01X02002Y04552
G01X02001Y04549
G01X020011Y04547
G01X020011Y044498
G01X020022Y044472
G01X020042Y044452
G01X020068Y044441
G01X021132Y044441
M16
G00X028632Y044441
M15
G01X028658Y044452
G01X028678Y044472
G01X028689Y044498
G01X028689Y045502
G01X028678Y045529
G01X028658Y045549
G01X028632Y045559
G01X027584Y045559
G01X02757Y045559
G01X027541Y045544
G01X02752Y04552
G01X02751Y04549
G01X027511Y04547
G01X027511Y044498
G01X027522Y044472
G01X027542Y044452
G01X027568Y044441
G01X028632Y044441
M16
G00X038032Y044441
M15
G01X038058Y044452
G01X038078Y044472
G01X038089Y044498
G01X038089Y045502
G01X038078Y045529
G01X038058Y045549
G01X038032Y045559
G01X036984Y045559
G01X03697Y045559
G01X036941Y045544
G01X03692Y04552
G01X03691Y04549
G01X036911Y04547
G01X036911Y044498
G01X036922Y044472
G01X036942Y044452
G01X036968Y044441
G01X038032Y044441
M16
G00X047407Y044441
M15
G01X047433Y044452
G01X047453Y044472
G01X047464Y044498
G01X047464Y045502
G01X047453Y045529
G01X047433Y045549
G01X047407Y045559
G01X046359Y045559
G01X046345Y045559
G01X046316Y045544
G01X046295Y04552
G01X046285Y04549
G01X046286Y04547
G01X046286Y044498
G01X046297Y044472
G01X046317Y044452
G01X046343Y044441
G01X047407Y044441
M16
G00X054907Y044441
M15
G01X054933Y044452
G01X054953Y044472
G01X054964Y044498
G01X054964Y045502
G01X054953Y045529
G01X054933Y045549
G01X054907Y045559
G01X053859Y045559
G01X053845Y045559
G01X053816Y045544
G01X053795Y04552
G01X053785Y04549
G01X053786Y04547
G01X053786Y044498
G01X053797Y044472
G01X053817Y044452
G01X053843Y044441
G01X054907Y044441
M16
G00X062407Y044441
M15
G01X062433Y044452
G01X062453Y044472
G01X062464Y044498
G01X062464Y045502
G01X062453Y045529
G01X062433Y045549
G01X062407Y045559
G01X061359Y045559
G01X061345Y045559
G01X061316Y045544
G01X061295Y04552
G01X061285Y04549
G01X061286Y04547
G01X061286Y044498
G01X061297Y044472
G01X061317Y044452
G01X061343Y044441
G01X062407Y044441
M16
G00X069907Y044441
M15
G01X069933Y044452
G01X069953Y044472
G01X069964Y044498
G01X069964Y045502
G01X069953Y045529
G01X069933Y045549
G01X069907Y045559
G01X068859Y045559
G01X068845Y045559
G01X068816Y045544
G01X068795Y04552
G01X068785Y04549
G01X068786Y04547
G01X068786Y044498
G01X068797Y044472
G01X068817Y044452
G01X068843Y044441
G01X069907Y044441
M16
G00X079282Y044441
M15
G01X079308Y044452
G01X079328Y044472
G01X079339Y044498
G01X079339Y045502
G01X079328Y045529
G01X079308Y045549
G01X079282Y045559
G01X078234Y045559
G01X07822Y045559
G01X078191Y045544
G01X07817Y04552
G01X07816Y04549
G01X078161Y04547
G01X078161Y044498
G01X078172Y044472
G01X078192Y044452
G01X078218Y044441
G01X079282Y044441
M16
G00X086782Y044441
M15
G01X086808Y044452
G01X086828Y044472
G01X086839Y044498
G01X086839Y045502
G01X086828Y045529
G01X086808Y045549
G01X086782Y045559
G01X085734Y045559
G01X08572Y045559
G01X085691Y045544
G01X08567Y04552
G01X08566Y04549
G01X085661Y04547
G01X085661Y044498
G01X085672Y044472
G01X085692Y044452
G01X085718Y044441
G01X086782Y044441
M16
G00X094282Y044441
M15
G01X094308Y044452
G01X094328Y044472
G01X094339Y044498
G01X094339Y045502
G01X094328Y045529
G01X094308Y045549
G01X094282Y045559
G01X093234Y045559
G01X09322Y045559
G01X093191Y045544
G01X09317Y04552
G01X09316Y04549
G01X093161Y04547
G01X093161Y044498
G01X093172Y044472
G01X093192Y044452
G01X093218Y044441
G01X094282Y044441
M16
G00X101782Y044441
M15
G01X101808Y044452
G01X101828Y044472
G01X101839Y044498
G01X101839Y045502
G01X101828Y045529
G01X101808Y045549
G01X101782Y045559
G01X100734Y045559
G01X10072Y045559
G01X100691Y045544
G01X10067Y04552
G01X10066Y04549
G01X100661Y04547
G01X100661Y044498
G01X100672Y044472
G01X100692Y044452
G01X100718Y044441
G01X101782Y044441
M16
G00X111157Y044441
M15
G01X111183Y044452
G01X111203Y044472
G01X111214Y044498
G01X111214Y045502
G01X111203Y045529
G01X111183Y045549
G01X111157Y045559
G01X110109Y045559
G01X110095Y045559
G01X110066Y045544
G01X110045Y04552
G01X110035Y04549
G01X110036Y04547
G01X110036Y044498
G01X110047Y044472
G01X110067Y044452
G01X110093Y044441
G01X111157Y044441
M16
G00X118657Y044441
M15
G01X118683Y044452
G01X118703Y044472
G01X118714Y044498
G01X118714Y045502
G01X118703Y045529
G01X118683Y045549
G01X118657Y045559
G01X117609Y045559
G01X117595Y045559
G01X117566Y045544
G01X117545Y04552
G01X117535Y04549
G01X117536Y04547
G01X117536Y044498
G01X117547Y044472
G01X117567Y044452
G01X117593Y044441
G01X118657Y044441
M16
G00X126157Y044441
M15
G01X126183Y044452
G01X126203Y044472
G01X126214Y044498
G01X126214Y045502
G01X126203Y045529
G01X126183Y045549
G01X126157Y045559
G01X125109Y045559
G01X125095Y045559
G01X125066Y045544
G01X125045Y04552
G01X125035Y04549
G01X125036Y04547
G01X125036Y044498
G01X125047Y044472
G01X125067Y044452
G01X125093Y044441
G01X126157Y044441
M16
G00X133657Y044441
M15
G01X133683Y044452
G01X133703Y044472
G01X133714Y044498
G01X133714Y045502
G01X133703Y045529
G01X133683Y045549
G01X133657Y045559
G01X132609Y045559
G01X132595Y045559
G01X132566Y045544
G01X132545Y04552
G01X132535Y04549
G01X132536Y04547
G01X132536Y044498
G01X132547Y044472
G01X132567Y044452
G01X132593Y044441
G01X133657Y044441
M16
G00X143032Y044441
M15
G01X143058Y044452
G01X143078Y044472
G01X143089Y044498
G01X143089Y045502
G01X143078Y045529
G01X143058Y045549
G01X143032Y045559
G01X141984Y045559
G01X14197Y045559
G01X141941Y045544
G01X14192Y04552
G01X14191Y04549
G01X141911Y04547
G01X141911Y044498
G01X141922Y044472
G01X141942Y044452
G01X141968Y044441
G01X143032Y044441
M16
G00X14303Y051941
M15
G01X143059Y051956
G01X14308Y05198
G01X14309Y05201
G01X143089Y05203
G01X143089Y053002
G01X143078Y053028
G01X143058Y053048
G01X143032Y053059
G01X141968Y053059
G01X141942Y053048
G01X141922Y053028
G01X141911Y053002
G01X141911Y051998
G01X141922Y051971
G01X141942Y051951
G01X141968Y051941
G01X143016Y051941
G01X14303Y051941
M16
G00X133655Y051941
M15
G01X133684Y051956
G01X133705Y05198
G01X133715Y05201
G01X133714Y05203
G01X133714Y053002
G01X133703Y053028
G01X133683Y053048
G01X133657Y053059
G01X132593Y053059
G01X132567Y053048
G01X132547Y053028
G01X132536Y053002
G01X132536Y051998
G01X132547Y051971
G01X132567Y051951
G01X132593Y051941
G01X133641Y051941
G01X133655Y051941
M16
G00X126155Y051941
M15
G01X126184Y051956
G01X126205Y05198
G01X126215Y05201
G01X126214Y05203
G01X126214Y053002
G01X126203Y053028
G01X126183Y053048
G01X126157Y053059
G01X125093Y053059
G01X125067Y053048
G01X125047Y053028
G01X125036Y053002
G01X125036Y051998
G01X125047Y051971
G01X125067Y051951
G01X125093Y051941
G01X126141Y051941
G01X126155Y051941
M16
G00X118655Y051941
M15
G01X118684Y051956
G01X118705Y05198
G01X118715Y05201
G01X118714Y05203
G01X118714Y053002
G01X118703Y053028
G01X118683Y053048
G01X118657Y053059
G01X117593Y053059
G01X117567Y053048
G01X117547Y053028
G01X117536Y053002
G01X117536Y051998
G01X117547Y051971
G01X117567Y051951
G01X117593Y051941
G01X118641Y051941
G01X118655Y051941
M16
G00X111155Y051941
M15
G01X111184Y051956
G01X111205Y05198
G01X111215Y05201
G01X111214Y05203
G01X111214Y053002
G01X111203Y053028
G01X111183Y053048
G01X111157Y053059
G01X110093Y053059
G01X110067Y053048
G01X110047Y053028
G01X110036Y053002
G01X110036Y051998
G01X110047Y051971
G01X110067Y051951
G01X110093Y051941
G01X111141Y051941
G01X111155Y051941
M16
G00X10178Y051941
M15
G01X101809Y051956
G01X10183Y05198
G01X10184Y05201
G01X101839Y05203
G01X101839Y053002
G01X101828Y053028
G01X101808Y053048
G01X101782Y053059
G01X100718Y053059
G01X100692Y053048
G01X100672Y053028
G01X100661Y053002
G01X100661Y051998
G01X100672Y051971
G01X100692Y051951
G01X100718Y051941
G01X101766Y051941
G01X10178Y051941
M16
G00X09428Y051941
M15
G01X094309Y051956
G01X09433Y05198
G01X09434Y05201
G01X094339Y05203
G01X094339Y053002
G01X094328Y053028
G01X094308Y053048
G01X094282Y053059
G01X093218Y053059
G01X093192Y053048
G01X093172Y053028
G01X093161Y053002
G01X093161Y051998
G01X093172Y051971
G01X093192Y051951
G01X093218Y051941
G01X094266Y051941
G01X09428Y051941
M16
G00X08678Y051941
M15
G01X086809Y051956
G01X08683Y05198
G01X08684Y05201
G01X086839Y05203
G01X086839Y053002
G01X086828Y053028
G01X086808Y053048
G01X086782Y053059
G01X085718Y053059
G01X085692Y053048
G01X085672Y053028
G01X085661Y053002
G01X085661Y051998
G01X085672Y051971
G01X085692Y051951
G01X085718Y051941
G01X086766Y051941
G01X08678Y051941
M16
G00X07928Y051941
M15
G01X079309Y051956
G01X07933Y05198
G01X07934Y05201
G01X079339Y05203
G01X079339Y053002
G01X079328Y053028
G01X079308Y053048
G01X079282Y053059
G01X078218Y053059
G01X078192Y053048
G01X078172Y053028
G01X078161Y053002
G01X078161Y051998
G01X078172Y051971
G01X078192Y051951
G01X078218Y051941
G01X079266Y051941
G01X07928Y051941
M16
G00X156192Y00095
M15
G01X156204Y000946
G01X1564Y000962
G01X156591Y001009
G01X156773Y001085
G01X15694Y001188
G01X157089Y001316
G01X157216Y001466
G01X157319Y001634
G01X157393Y001816
G01X157439Y002008
G01X157454Y0022
G01X15745Y003
G01X15745Y061592
G01X157454Y061604
G01X157438Y0618
G01X157391Y061991
G01X157315Y062173
G01X157212Y06234
G01X157084Y062489
G01X156934Y062616
G01X156766Y062719
G01X156584Y062793
G01X156392Y062839
G01X1562Y062854
G01X001508Y06285
G01X001496Y062854
G01X0013Y062838
G01X001109Y062791
G01X000927Y062715
G01X00076Y062612
G01X000611Y062484
G01X000484Y062334
G01X000381Y062166
G01X000307Y061984
G01X000261Y061792
G01X000246Y0616
G01X00025Y002208
G01X000246Y002196
G01X000262Y002
G01X000309Y001809
G01X000385Y001627
G01X000488Y00146
G01X000616Y001311
G01X000766Y001184
G01X000934Y001081
G01X001116Y001007
G01X001308Y000961
G01X0015Y000946
G01X156192Y00095
M16
M17
M30
