%TF.GenerationSoftware,KiCad,Pcbnew,8.0.4*%
%TF.CreationDate,2024-10-18T15:11:06-05:00*%
%TF.ProjectId,numlocked_numpad,6e756d6c-6f63-46b6-9564-5f6e756d7061,rev?*%
%TF.SameCoordinates,Original*%
%TF.FileFunction,Soldermask,Top*%
%TF.FilePolarity,Negative*%
%FSLAX46Y46*%
G04 Gerber Fmt 4.6, Leading zero omitted, Abs format (unit mm)*
G04 Created by KiCad (PCBNEW 8.0.4) date 2024-10-18 15:11:06*
%MOMM*%
%LPD*%
G01*
G04 APERTURE LIST*
G04 Aperture macros list*
%AMRoundRect*
0 Rectangle with rounded corners*
0 $1 Rounding radius*
0 $2 $3 $4 $5 $6 $7 $8 $9 X,Y pos of 4 corners*
0 Add a 4 corners polygon primitive as box body*
4,1,4,$2,$3,$4,$5,$6,$7,$8,$9,$2,$3,0*
0 Add four circle primitives for the rounded corners*
1,1,$1+$1,$2,$3*
1,1,$1+$1,$4,$5*
1,1,$1+$1,$6,$7*
1,1,$1+$1,$8,$9*
0 Add four rect primitives between the rounded corners*
20,1,$1+$1,$2,$3,$4,$5,0*
20,1,$1+$1,$4,$5,$6,$7,0*
20,1,$1+$1,$6,$7,$8,$9,0*
20,1,$1+$1,$8,$9,$2,$3,0*%
G04 Aperture macros list end*
%ADD10RoundRect,0.102000X0.825000X0.825000X-0.825000X0.825000X-0.825000X-0.825000X0.825000X-0.825000X0*%
%ADD11C,1.854000*%
%ADD12O,3.204000X6.204000*%
%ADD13C,1.700000*%
%ADD14C,3.000000*%
%ADD15C,4.000000*%
%ADD16C,1.100000*%
%ADD17R,1.350000X1.350000*%
%ADD18O,1.350000X1.350000*%
%ADD19C,4.400000*%
%ADD20C,1.800000*%
%ADD21R,1.700000X1.700000*%
%ADD22O,1.700000X1.700000*%
%ADD23C,3.050000*%
%ADD24C,1.450000*%
%ADD25C,2.150000*%
%ADD26C,1.200000*%
G04 APERTURE END LIST*
D10*
%TO.C,MT1*%
X161250000Y-70500000D03*
D11*
X156250000Y-70500000D03*
X161250000Y-56000000D03*
X156250000Y-56000000D03*
X158750000Y-56000000D03*
D12*
X164450000Y-63500000D03*
X153050000Y-63500000D03*
%TD*%
D13*
%TO.C,S9*%
X115570000Y-106362500D03*
D14*
X116840000Y-103822500D03*
D15*
X120650000Y-106362500D03*
D14*
X123190000Y-101282500D03*
D13*
X125730000Y-106362500D03*
%TD*%
D16*
%TO.C,SW2*%
X94218750Y-61000000D03*
X96718750Y-61000000D03*
X101718750Y-61000000D03*
X104218750Y-61000000D03*
X94218750Y-66000000D03*
X94218750Y-63500000D03*
X96718750Y-63500000D03*
X96718750Y-66000000D03*
X101718750Y-63500000D03*
X101718750Y-66000000D03*
X104218750Y-63500000D03*
X104218750Y-66000000D03*
%TD*%
D13*
%TO.C,S2*%
X96520000Y-106362500D03*
D14*
X97790000Y-103822500D03*
D15*
X101600000Y-106362500D03*
D14*
X104140000Y-101282500D03*
D13*
X106680000Y-106362500D03*
%TD*%
D17*
%TO.C,J6*%
X136800000Y-65500000D03*
D18*
X136800000Y-67500000D03*
%TD*%
D13*
%TO.C,S17*%
X134620000Y-106362500D03*
D14*
X135890000Y-103822500D03*
D15*
X139700000Y-106362500D03*
D14*
X142240000Y-101282500D03*
D13*
X144780000Y-106362500D03*
%TD*%
D19*
%TO.C,H5*%
X166656250Y-49500000D03*
%TD*%
D17*
%TO.C,J5*%
X162600000Y-53201000D03*
D18*
X160600000Y-53201000D03*
%TD*%
D13*
%TO.C,S8*%
X125730000Y-87312500D03*
D14*
X124460000Y-89852500D03*
D15*
X120650000Y-87312500D03*
D14*
X118110000Y-92392500D03*
D13*
X115570000Y-87312500D03*
%TD*%
D20*
%TO.C,J3*%
X167537500Y-91230000D03*
X167537500Y-93730000D03*
X167537500Y-96230000D03*
X167537500Y-98730000D03*
%TD*%
D13*
%TO.C,S6*%
X96520000Y-144462500D03*
D14*
X97790000Y-141922500D03*
D15*
X101600000Y-144462500D03*
D14*
X104140000Y-139382500D03*
D13*
X106680000Y-144462500D03*
%TD*%
%TO.C,S3*%
X96520000Y-125412500D03*
D14*
X97790000Y-122872500D03*
D15*
X101600000Y-125412500D03*
D14*
X104140000Y-120332500D03*
D13*
X106680000Y-125412500D03*
%TD*%
D21*
%TO.C,OLED1*%
X93880000Y-56700000D03*
D22*
X96420000Y-56700000D03*
X98960000Y-56700000D03*
X101500000Y-56700000D03*
X104040000Y-56700000D03*
X106580000Y-56700000D03*
X109120000Y-56700000D03*
%TD*%
D13*
%TO.C,S12*%
X134620000Y-163512500D03*
D14*
X135890000Y-160972500D03*
D15*
X139700000Y-163512500D03*
D14*
X142240000Y-158432500D03*
D13*
X144780000Y-163512500D03*
%TD*%
D20*
%TO.C,J4*%
X167537500Y-131110000D03*
X167537500Y-133610000D03*
X167537500Y-136110000D03*
X167537500Y-138610000D03*
%TD*%
D19*
%TO.C,H4*%
X166656250Y-176220900D03*
%TD*%
D13*
%TO.C,S11*%
X115570000Y-144462500D03*
D14*
X116840000Y-141922500D03*
D15*
X120650000Y-144462500D03*
D14*
X123190000Y-139382500D03*
D13*
X125730000Y-144462500D03*
%TD*%
D19*
%TO.C,H2*%
X93693750Y-176220900D03*
%TD*%
%TO.C,H6*%
X120650000Y-150181250D03*
%TD*%
D13*
%TO.C,S10*%
X115570000Y-125412500D03*
D14*
X116840000Y-122872500D03*
D15*
X120650000Y-125412500D03*
D14*
X123190000Y-120332500D03*
D13*
X125730000Y-125412500D03*
%TD*%
D19*
%TO.C,H1*%
X104300000Y-70900000D03*
%TD*%
D13*
%TO.C,S16*%
X153670000Y-87312500D03*
D14*
X154940000Y-84772500D03*
D15*
X158750000Y-87312500D03*
D14*
X161290000Y-82232500D03*
D13*
X163830000Y-87312500D03*
%TD*%
D23*
%TO.C,S15*%
X151750000Y-103987500D03*
X151750000Y-127787500D03*
D13*
X153670000Y-115887500D03*
D14*
X154940000Y-113347500D03*
D15*
X158750000Y-115887500D03*
D14*
X161290000Y-110807500D03*
D13*
X163830000Y-115887500D03*
D15*
X166990000Y-103987500D03*
X166990000Y-127787500D03*
%TD*%
D13*
%TO.C,S1*%
X106680000Y-87312500D03*
D14*
X105410000Y-89852500D03*
D15*
X101600000Y-87312500D03*
D14*
X99060000Y-92392500D03*
D13*
X96520000Y-87312500D03*
%TD*%
%TO.C,S18*%
X134620000Y-125412500D03*
D14*
X135890000Y-122872500D03*
D15*
X139700000Y-125412500D03*
D14*
X142240000Y-120332500D03*
D13*
X144780000Y-125412500D03*
%TD*%
%TO.C,S19*%
X134620000Y-144462500D03*
D14*
X135890000Y-141922500D03*
D15*
X139700000Y-144462500D03*
D14*
X142240000Y-139382500D03*
D13*
X144780000Y-144462500D03*
%TD*%
D24*
%TO.C,SW1*%
X116994000Y-43437500D03*
X112994000Y-43437500D03*
X110994000Y-43437500D03*
X108994000Y-43437500D03*
D25*
X119294000Y-43437500D03*
X106694000Y-43437500D03*
%TD*%
D23*
%TO.C,S7*%
X99225000Y-156512500D03*
D15*
X99225000Y-171752500D03*
D13*
X106045000Y-163512500D03*
D14*
X107315000Y-160972500D03*
D15*
X111125000Y-163512500D03*
D14*
X113665000Y-158432500D03*
D13*
X116205000Y-163512500D03*
D23*
X123025000Y-156512500D03*
D15*
X123025000Y-171752500D03*
%TD*%
D16*
%TO.C,SW3*%
X108506250Y-61000000D03*
X111006250Y-61000000D03*
X116006250Y-61000000D03*
X118506250Y-61000000D03*
X108506250Y-66000000D03*
X108506250Y-63500000D03*
X111006250Y-63500000D03*
X111006250Y-66000000D03*
X116006250Y-63500000D03*
X116006250Y-66000000D03*
X118506250Y-63500000D03*
X118506250Y-66000000D03*
%TD*%
D23*
%TO.C,S20*%
X151750000Y-142087500D03*
X151750000Y-165887500D03*
D13*
X153670000Y-153987500D03*
D14*
X154940000Y-151447500D03*
D15*
X158750000Y-153987500D03*
D14*
X161290000Y-148907500D03*
D13*
X163830000Y-153987500D03*
D15*
X166990000Y-142087500D03*
X166990000Y-165887500D03*
%TD*%
D13*
%TO.C,S14*%
X144780000Y-87312500D03*
D14*
X143510000Y-89852500D03*
D15*
X139700000Y-87312500D03*
D14*
X137160000Y-92392500D03*
D13*
X134620000Y-87312500D03*
%TD*%
D16*
%TO.C,SW4*%
X122793750Y-61000000D03*
X125293750Y-61000000D03*
X130293750Y-61000000D03*
X132793750Y-61000000D03*
X122793750Y-66000000D03*
X122793750Y-63500000D03*
X125293750Y-63500000D03*
X125293750Y-66000000D03*
X130293750Y-63500000D03*
X130293750Y-66000000D03*
X132793750Y-63500000D03*
X132793750Y-66000000D03*
%TD*%
D26*
%TO.C,BT1*%
X148500000Y-172500000D03*
X141000000Y-172500000D03*
%TD*%
D20*
%TO.C,J2*%
X92812500Y-131110000D03*
X92812500Y-133610000D03*
X92812500Y-136110000D03*
X92812500Y-138610000D03*
%TD*%
%TO.C,J1*%
X92812500Y-91230000D03*
X92812500Y-93730000D03*
X92812500Y-96230000D03*
X92812500Y-98730000D03*
%TD*%
M02*
