%TF.GenerationSoftware,KiCad,Pcbnew,8.0.4*%
%TF.CreationDate,2025-09-04T20:04:13-05:00*%
%TF.ProjectId,numlocked_numpad,6e756d6c-6f63-46b6-9564-5f6e756d7061,rev?*%
%TF.SameCoordinates,Original*%
%TF.FileFunction,Legend,Bot*%
%TF.FilePolarity,Positive*%
%FSLAX46Y46*%
G04 Gerber Fmt 4.6, Leading zero omitted, Abs format (unit mm)*
G04 Created by KiCad (PCBNEW 8.0.4) date 2025-09-04 20:04:13*
%MOMM*%
%LPD*%
G01*
G04 APERTURE LIST*
G04 Aperture macros list*
%AMRoundRect*
0 Rectangle with rounded corners*
0 $1 Rounding radius*
0 $2 $3 $4 $5 $6 $7 $8 $9 X,Y pos of 4 corners*
0 Add a 4 corners polygon primitive as box body*
4,1,4,$2,$3,$4,$5,$6,$7,$8,$9,$2,$3,0*
0 Add four circle primitives for the rounded corners*
1,1,$1+$1,$2,$3*
1,1,$1+$1,$4,$5*
1,1,$1+$1,$6,$7*
1,1,$1+$1,$8,$9*
0 Add four rect primitives between the rounded corners*
20,1,$1+$1,$2,$3,$4,$5,0*
20,1,$1+$1,$4,$5,$6,$7,0*
20,1,$1+$1,$6,$7,$8,$9,0*
20,1,$1+$1,$8,$9,$2,$3,0*%
%AMRotRect*
0 Rectangle, with rotation*
0 The origin of the aperture is its center*
0 $1 length*
0 $2 width*
0 $3 Rotation angle, in degrees counterclockwise*
0 Add horizontal line*
21,1,$1,$2,0,0,$3*%
G04 Aperture macros list end*
%ADD10C,0.150000*%
%ADD11C,0.100000*%
%ADD12C,0.120000*%
%ADD13C,0.152400*%
%ADD14C,0.127000*%
%ADD15C,0.200000*%
%ADD16C,0.508000*%
%ADD17RoundRect,0.225000X0.225000X0.250000X-0.225000X0.250000X-0.225000X-0.250000X0.225000X-0.250000X0*%
%ADD18C,1.700000*%
%ADD19C,3.000000*%
%ADD20C,4.000000*%
%ADD21R,2.550000X2.500000*%
%ADD22C,4.400000*%
%ADD23C,1.800000*%
%ADD24R,1.700000X1.700000*%
%ADD25O,1.700000X1.700000*%
%ADD26C,3.050000*%
%ADD27C,1.450000*%
%ADD28C,2.150000*%
%ADD29R,0.900000X0.900000*%
%ADD30RoundRect,0.225000X-0.250000X0.225000X-0.250000X-0.225000X0.250000X-0.225000X0.250000X0.225000X0*%
%ADD31RoundRect,0.225000X-0.225000X-0.250000X0.225000X-0.250000X0.225000X0.250000X-0.225000X0.250000X0*%
%ADD32R,1.350000X1.350000*%
%ADD33O,1.350000X1.350000*%
%ADD34RoundRect,0.200000X-0.275000X0.200000X-0.275000X-0.200000X0.275000X-0.200000X0.275000X0.200000X0*%
%ADD35RoundRect,0.200000X-0.200000X-0.275000X0.200000X-0.275000X0.200000X0.275000X-0.200000X0.275000X0*%
%ADD36R,1.524000X0.533400*%
%ADD37RoundRect,0.150000X-0.650000X-0.150000X0.650000X-0.150000X0.650000X0.150000X-0.650000X0.150000X0*%
%ADD38RoundRect,0.100500X-0.986500X-0.301500X0.986500X-0.301500X0.986500X0.301500X-0.986500X0.301500X0*%
%ADD39RoundRect,0.225000X0.250000X-0.225000X0.250000X0.225000X-0.250000X0.225000X-0.250000X-0.225000X0*%
%ADD40RoundRect,0.250000X0.650000X-0.325000X0.650000X0.325000X-0.650000X0.325000X-0.650000X-0.325000X0*%
%ADD41RoundRect,0.200000X0.200000X0.275000X-0.200000X0.275000X-0.200000X-0.275000X0.200000X-0.275000X0*%
%ADD42RoundRect,0.375000X0.375000X-0.625000X0.375000X0.625000X-0.375000X0.625000X-0.375000X-0.625000X0*%
%ADD43RoundRect,0.500000X1.400000X-0.500000X1.400000X0.500000X-1.400000X0.500000X-1.400000X-0.500000X0*%
%ADD44RoundRect,0.225000X0.335876X0.017678X0.017678X0.335876X-0.335876X-0.017678X-0.017678X-0.335876X0*%
%ADD45RotRect,1.400000X1.200000X225.000000*%
%ADD46RoundRect,0.200000X0.275000X-0.200000X0.275000X0.200000X-0.275000X0.200000X-0.275000X-0.200000X0*%
%ADD47R,1.549400X0.660400*%
%ADD48R,1.905000X1.295400*%
%ADD49RoundRect,0.050000X0.387500X0.050000X-0.387500X0.050000X-0.387500X-0.050000X0.387500X-0.050000X0*%
%ADD50RoundRect,0.050000X0.050000X0.387500X-0.050000X0.387500X-0.050000X-0.387500X0.050000X-0.387500X0*%
%ADD51R,3.200000X3.200000*%
%ADD52RoundRect,0.225000X0.017678X-0.335876X0.335876X-0.017678X-0.017678X0.335876X-0.335876X0.017678X0*%
%ADD53RoundRect,0.218750X0.218750X0.256250X-0.218750X0.256250X-0.218750X-0.256250X0.218750X-0.256250X0*%
G04 APERTURE END LIST*
D10*
X95466666Y-56229580D02*
X95514285Y-56277200D01*
X95514285Y-56277200D02*
X95657142Y-56324819D01*
X95657142Y-56324819D02*
X95752380Y-56324819D01*
X95752380Y-56324819D02*
X95895237Y-56277200D01*
X95895237Y-56277200D02*
X95990475Y-56181961D01*
X95990475Y-56181961D02*
X96038094Y-56086723D01*
X96038094Y-56086723D02*
X96085713Y-55896247D01*
X96085713Y-55896247D02*
X96085713Y-55753390D01*
X96085713Y-55753390D02*
X96038094Y-55562914D01*
X96038094Y-55562914D02*
X95990475Y-55467676D01*
X95990475Y-55467676D02*
X95895237Y-55372438D01*
X95895237Y-55372438D02*
X95752380Y-55324819D01*
X95752380Y-55324819D02*
X95657142Y-55324819D01*
X95657142Y-55324819D02*
X95514285Y-55372438D01*
X95514285Y-55372438D02*
X95466666Y-55420057D01*
X94514285Y-56324819D02*
X95085713Y-56324819D01*
X94799999Y-56324819D02*
X94799999Y-55324819D01*
X94799999Y-55324819D02*
X94895237Y-55467676D01*
X94895237Y-55467676D02*
X94990475Y-55562914D01*
X94990475Y-55562914D02*
X95085713Y-55610533D01*
X157224999Y-46194819D02*
X157224999Y-46432914D01*
X157463094Y-46337676D02*
X157224999Y-46432914D01*
X157224999Y-46432914D02*
X156986904Y-46337676D01*
X157367856Y-46623390D02*
X157224999Y-46432914D01*
X157224999Y-46432914D02*
X157082142Y-46623390D01*
D11*
X94619919Y-134526666D02*
X95334204Y-134526666D01*
X95334204Y-134526666D02*
X95477061Y-134479047D01*
X95477061Y-134479047D02*
X95572300Y-134383809D01*
X95572300Y-134383809D02*
X95619919Y-134240952D01*
X95619919Y-134240952D02*
X95619919Y-134145714D01*
X94715157Y-134955238D02*
X94667538Y-135002857D01*
X94667538Y-135002857D02*
X94619919Y-135098095D01*
X94619919Y-135098095D02*
X94619919Y-135336190D01*
X94619919Y-135336190D02*
X94667538Y-135431428D01*
X94667538Y-135431428D02*
X94715157Y-135479047D01*
X94715157Y-135479047D02*
X94810395Y-135526666D01*
X94810395Y-135526666D02*
X94905633Y-135526666D01*
X94905633Y-135526666D02*
X95048490Y-135479047D01*
X95048490Y-135479047D02*
X95619919Y-134907619D01*
X95619919Y-134907619D02*
X95619919Y-135526666D01*
D10*
X162004819Y-62433333D02*
X161528628Y-62100000D01*
X162004819Y-61861905D02*
X161004819Y-61861905D01*
X161004819Y-61861905D02*
X161004819Y-62242857D01*
X161004819Y-62242857D02*
X161052438Y-62338095D01*
X161052438Y-62338095D02*
X161100057Y-62385714D01*
X161100057Y-62385714D02*
X161195295Y-62433333D01*
X161195295Y-62433333D02*
X161338152Y-62433333D01*
X161338152Y-62433333D02*
X161433390Y-62385714D01*
X161433390Y-62385714D02*
X161481009Y-62338095D01*
X161481009Y-62338095D02*
X161528628Y-62242857D01*
X161528628Y-62242857D02*
X161528628Y-61861905D01*
X161100057Y-62814286D02*
X161052438Y-62861905D01*
X161052438Y-62861905D02*
X161004819Y-62957143D01*
X161004819Y-62957143D02*
X161004819Y-63195238D01*
X161004819Y-63195238D02*
X161052438Y-63290476D01*
X161052438Y-63290476D02*
X161100057Y-63338095D01*
X161100057Y-63338095D02*
X161195295Y-63385714D01*
X161195295Y-63385714D02*
X161290533Y-63385714D01*
X161290533Y-63385714D02*
X161433390Y-63338095D01*
X161433390Y-63338095D02*
X162004819Y-62766667D01*
X162004819Y-62766667D02*
X162004819Y-63385714D01*
X132804819Y-48916666D02*
X133519104Y-48916666D01*
X133519104Y-48916666D02*
X133661961Y-48869047D01*
X133661961Y-48869047D02*
X133757200Y-48773809D01*
X133757200Y-48773809D02*
X133804819Y-48630952D01*
X133804819Y-48630952D02*
X133804819Y-48535714D01*
X132804819Y-49297619D02*
X132804819Y-49964285D01*
X132804819Y-49964285D02*
X133804819Y-49535714D01*
D11*
X94619919Y-94646666D02*
X95334204Y-94646666D01*
X95334204Y-94646666D02*
X95477061Y-94599047D01*
X95477061Y-94599047D02*
X95572300Y-94503809D01*
X95572300Y-94503809D02*
X95619919Y-94360952D01*
X95619919Y-94360952D02*
X95619919Y-94265714D01*
X95619919Y-95646666D02*
X95619919Y-95075238D01*
X95619919Y-95360952D02*
X94619919Y-95360952D01*
X94619919Y-95360952D02*
X94762776Y-95265714D01*
X94762776Y-95265714D02*
X94858014Y-95170476D01*
X94858014Y-95170476D02*
X94905633Y-95075238D01*
D10*
X164404819Y-62433333D02*
X163928628Y-62100000D01*
X164404819Y-61861905D02*
X163404819Y-61861905D01*
X163404819Y-61861905D02*
X163404819Y-62242857D01*
X163404819Y-62242857D02*
X163452438Y-62338095D01*
X163452438Y-62338095D02*
X163500057Y-62385714D01*
X163500057Y-62385714D02*
X163595295Y-62433333D01*
X163595295Y-62433333D02*
X163738152Y-62433333D01*
X163738152Y-62433333D02*
X163833390Y-62385714D01*
X163833390Y-62385714D02*
X163881009Y-62338095D01*
X163881009Y-62338095D02*
X163928628Y-62242857D01*
X163928628Y-62242857D02*
X163928628Y-61861905D01*
X164404819Y-63385714D02*
X164404819Y-62814286D01*
X164404819Y-63100000D02*
X163404819Y-63100000D01*
X163404819Y-63100000D02*
X163547676Y-63004762D01*
X163547676Y-63004762D02*
X163642914Y-62909524D01*
X163642914Y-62909524D02*
X163690533Y-62814286D01*
X100992857Y-84584819D02*
X101326190Y-84108628D01*
X101564285Y-84584819D02*
X101564285Y-83584819D01*
X101564285Y-83584819D02*
X101183333Y-83584819D01*
X101183333Y-83584819D02*
X101088095Y-83632438D01*
X101088095Y-83632438D02*
X101040476Y-83680057D01*
X101040476Y-83680057D02*
X100992857Y-83775295D01*
X100992857Y-83775295D02*
X100992857Y-83918152D01*
X100992857Y-83918152D02*
X101040476Y-84013390D01*
X101040476Y-84013390D02*
X101088095Y-84061009D01*
X101088095Y-84061009D02*
X101183333Y-84108628D01*
X101183333Y-84108628D02*
X101564285Y-84108628D01*
X100040476Y-84584819D02*
X100611904Y-84584819D01*
X100326190Y-84584819D02*
X100326190Y-83584819D01*
X100326190Y-83584819D02*
X100421428Y-83727676D01*
X100421428Y-83727676D02*
X100516666Y-83822914D01*
X100516666Y-83822914D02*
X100611904Y-83870533D01*
X99421428Y-83584819D02*
X99326190Y-83584819D01*
X99326190Y-83584819D02*
X99230952Y-83632438D01*
X99230952Y-83632438D02*
X99183333Y-83680057D01*
X99183333Y-83680057D02*
X99135714Y-83775295D01*
X99135714Y-83775295D02*
X99088095Y-83965771D01*
X99088095Y-83965771D02*
X99088095Y-84203866D01*
X99088095Y-84203866D02*
X99135714Y-84394342D01*
X99135714Y-84394342D02*
X99183333Y-84489580D01*
X99183333Y-84489580D02*
X99230952Y-84537200D01*
X99230952Y-84537200D02*
X99326190Y-84584819D01*
X99326190Y-84584819D02*
X99421428Y-84584819D01*
X99421428Y-84584819D02*
X99516666Y-84537200D01*
X99516666Y-84537200D02*
X99564285Y-84489580D01*
X99564285Y-84489580D02*
X99611904Y-84394342D01*
X99611904Y-84394342D02*
X99659523Y-84203866D01*
X99659523Y-84203866D02*
X99659523Y-83965771D01*
X99659523Y-83965771D02*
X99611904Y-83775295D01*
X99611904Y-83775295D02*
X99564285Y-83680057D01*
X99564285Y-83680057D02*
X99516666Y-83632438D01*
X99516666Y-83632438D02*
X99421428Y-83584819D01*
X143166666Y-69104819D02*
X143499999Y-68628628D01*
X143738094Y-69104819D02*
X143738094Y-68104819D01*
X143738094Y-68104819D02*
X143357142Y-68104819D01*
X143357142Y-68104819D02*
X143261904Y-68152438D01*
X143261904Y-68152438D02*
X143214285Y-68200057D01*
X143214285Y-68200057D02*
X143166666Y-68295295D01*
X143166666Y-68295295D02*
X143166666Y-68438152D01*
X143166666Y-68438152D02*
X143214285Y-68533390D01*
X143214285Y-68533390D02*
X143261904Y-68581009D01*
X143261904Y-68581009D02*
X143357142Y-68628628D01*
X143357142Y-68628628D02*
X143738094Y-68628628D01*
X142833332Y-68104819D02*
X142214285Y-68104819D01*
X142214285Y-68104819D02*
X142547618Y-68485771D01*
X142547618Y-68485771D02*
X142404761Y-68485771D01*
X142404761Y-68485771D02*
X142309523Y-68533390D01*
X142309523Y-68533390D02*
X142261904Y-68581009D01*
X142261904Y-68581009D02*
X142214285Y-68676247D01*
X142214285Y-68676247D02*
X142214285Y-68914342D01*
X142214285Y-68914342D02*
X142261904Y-69009580D01*
X142261904Y-69009580D02*
X142309523Y-69057200D01*
X142309523Y-69057200D02*
X142404761Y-69104819D01*
X142404761Y-69104819D02*
X142690475Y-69104819D01*
X142690475Y-69104819D02*
X142785713Y-69057200D01*
X142785713Y-69057200D02*
X142833332Y-69009580D01*
D12*
%TO.C,C1*%
X95159420Y-56790000D02*
X95440580Y-56790000D01*
X95159420Y-57810000D02*
X95440580Y-57810000D01*
%TO.C,RN3*%
X119985000Y-76330000D02*
X117885000Y-76330000D01*
X119985000Y-81670000D02*
X117885000Y-81670000D01*
%TO.C,C22*%
X142590000Y-66440580D02*
X142590000Y-66159420D01*
X143610000Y-66440580D02*
X143610000Y-66159420D01*
%TO.C,C26*%
X160940580Y-102590000D02*
X160659420Y-102590000D01*
X160940580Y-103610000D02*
X160659420Y-103610000D01*
%TO.C,C29*%
X166728280Y-100463320D02*
X166447120Y-100463320D01*
X166728280Y-101483320D02*
X166447120Y-101483320D01*
%TO.C,J6*%
X124390000Y-51890000D02*
X124390000Y-54010000D01*
X124390000Y-51890000D02*
X126450000Y-51890000D01*
X124390000Y-54010000D02*
X126450000Y-54010000D01*
X126450000Y-51890000D02*
X126450000Y-54010000D01*
X127450000Y-51890000D02*
X128510000Y-51890000D01*
X128510000Y-51890000D02*
X128510000Y-52950000D01*
%TO.C,C19*%
X150040580Y-56790000D02*
X149759420Y-56790000D01*
X150040580Y-57810000D02*
X149759420Y-57810000D01*
%TO.C,R7*%
X139577500Y-66537258D02*
X139577500Y-66062742D01*
X140622500Y-66537258D02*
X140622500Y-66062742D01*
%TO.C,RN5*%
X140050000Y-76330000D02*
X137950000Y-76330000D01*
X140050000Y-81670000D02*
X137950000Y-81670000D01*
%TO.C,R9*%
X139237258Y-49627500D02*
X138762742Y-49627500D01*
X139237258Y-50672500D02*
X138762742Y-50672500D01*
%TO.C,J5*%
X159540000Y-52141000D02*
X159540000Y-54261000D01*
X159540000Y-52141000D02*
X161600000Y-52141000D01*
X159540000Y-54261000D02*
X161600000Y-54261000D01*
X161600000Y-52141000D02*
X161600000Y-54261000D01*
X162600000Y-52141000D02*
X163660000Y-52141000D01*
X163660000Y-52141000D02*
X163660000Y-53201000D01*
%TO.C,R13*%
X112137258Y-44977500D02*
X111662742Y-44977500D01*
X112137258Y-46022500D02*
X111662742Y-46022500D01*
%TO.C,RN1*%
X101235000Y-76330000D02*
X99135000Y-76330000D01*
X101235000Y-81670000D02*
X99135000Y-81670000D01*
D13*
%TO.C,U7*%
X150606000Y-47506000D02*
X150606000Y-47807656D01*
X150606000Y-52792344D02*
X150606000Y-53094000D01*
X150606000Y-53094000D02*
X156194000Y-53094000D01*
X156194000Y-47506000D02*
X150606000Y-47506000D01*
X156194000Y-47807656D02*
X156194000Y-47506000D01*
X156194000Y-53094000D02*
X156194000Y-52792344D01*
D12*
%TO.C,RN2*%
X112145000Y-76230000D02*
X114245000Y-76230000D01*
X112145000Y-81570000D02*
X114245000Y-81570000D01*
%TO.C,U5*%
X162025000Y-98440000D02*
X162800000Y-98440000D01*
X162025000Y-101560000D02*
X162800000Y-101560000D01*
X163575000Y-98440000D02*
X162800000Y-98440000D01*
X163575000Y-101560000D02*
X162800000Y-101560000D01*
X161677500Y-101840000D02*
X161197500Y-101840000D01*
X161437500Y-101510000D01*
X161677500Y-101840000D01*
G36*
X161677500Y-101840000D02*
G01*
X161197500Y-101840000D01*
X161437500Y-101510000D01*
X161677500Y-101840000D01*
G37*
D14*
%TO.C,U2*%
X108850000Y-73935000D02*
X104950000Y-73935000D01*
X108850000Y-84065000D02*
X104950000Y-84065000D01*
D15*
X102855000Y-83945000D02*
G75*
G02*
X102655000Y-83945000I-100000J0D01*
G01*
X102655000Y-83945000D02*
G75*
G02*
X102855000Y-83945000I100000J0D01*
G01*
D12*
%TO.C,C24*%
X147190000Y-49415580D02*
X147190000Y-49134420D01*
X148210000Y-49415580D02*
X148210000Y-49134420D01*
%TO.C,C2*%
X140290000Y-73359420D02*
X140290000Y-73640580D01*
X141310000Y-73359420D02*
X141310000Y-73640580D01*
%TO.C,C18*%
X143890000Y-52059420D02*
X143890000Y-52340580D01*
X144910000Y-52059420D02*
X144910000Y-52340580D01*
%TO.C,C7*%
X95590000Y-51888748D02*
X95590000Y-53311252D01*
X97410000Y-51888748D02*
X97410000Y-53311252D01*
%TO.C,C23*%
X137959420Y-55690000D02*
X138240580Y-55690000D01*
X137959420Y-56710000D02*
X138240580Y-56710000D01*
%TO.C,C21*%
X137959420Y-59990000D02*
X138240580Y-59990000D01*
X137959420Y-61010000D02*
X138240580Y-61010000D01*
D14*
%TO.C,U3*%
X128505000Y-73935000D02*
X124605000Y-73935000D01*
X128505000Y-84065000D02*
X124605000Y-84065000D01*
D15*
X122510000Y-83945000D02*
G75*
G02*
X122310000Y-83945000I-100000J0D01*
G01*
X122310000Y-83945000D02*
G75*
G02*
X122510000Y-83945000I100000J0D01*
G01*
D12*
%TO.C,R12*%
X107962742Y-44977500D02*
X108437258Y-44977500D01*
X107962742Y-46022500D02*
X108437258Y-46022500D01*
%TO.C,C14*%
X141090000Y-66440580D02*
X141090000Y-66159420D01*
X142110000Y-66440580D02*
X142110000Y-66159420D01*
%TO.C,C13*%
X137934420Y-52590000D02*
X138215580Y-52590000D01*
X137934420Y-53610000D02*
X138215580Y-53610000D01*
%TO.C,U9*%
X152525000Y-98440000D02*
X153300000Y-98440000D01*
X152525000Y-101560000D02*
X153300000Y-101560000D01*
X154075000Y-98440000D02*
X153300000Y-98440000D01*
X154075000Y-101560000D02*
X153300000Y-101560000D01*
X152177500Y-101840000D02*
X151697500Y-101840000D01*
X151937500Y-101510000D01*
X152177500Y-101840000D01*
G36*
X152177500Y-101840000D02*
G01*
X151697500Y-101840000D01*
X151937500Y-101510000D01*
X152177500Y-101840000D01*
G37*
%TO.C,R8*%
X139237258Y-48127500D02*
X138762742Y-48127500D01*
X139237258Y-49172500D02*
X138762742Y-49172500D01*
%TO.C,C15*%
X139990000Y-53859420D02*
X139990000Y-54140580D01*
X141010000Y-53859420D02*
X141010000Y-54140580D01*
%TO.C,R6*%
X162877500Y-104237258D02*
X162877500Y-103762742D01*
X163922500Y-104237258D02*
X163922500Y-103762742D01*
%TO.C,R11*%
X160962742Y-50377500D02*
X161437258Y-50377500D01*
X160962742Y-51422500D02*
X161437258Y-51422500D01*
%TO.C,U1*%
X98090000Y-48990000D02*
X98090000Y-52750000D01*
X99350000Y-48990000D02*
X98090000Y-48990000D01*
X103650000Y-48990000D02*
X104910000Y-48990000D01*
X104910000Y-48990000D02*
X104910000Y-52750000D01*
X105140000Y-54270000D02*
X104810000Y-54030000D01*
X105140000Y-53790000D01*
X105140000Y-54270000D01*
G36*
X105140000Y-54270000D02*
G01*
X104810000Y-54030000D01*
X105140000Y-53790000D01*
X105140000Y-54270000D01*
G37*
%TO.C,C11*%
X146039970Y-70561219D02*
X146238781Y-70760030D01*
X146761219Y-69839970D02*
X146960030Y-70038781D01*
%TO.C,R5*%
X119937258Y-49977500D02*
X119462742Y-49977500D01*
X119937258Y-51022500D02*
X119462742Y-51022500D01*
%TO.C,X1*%
X148352513Y-70880940D02*
X151180940Y-68052513D01*
X151180940Y-68052513D02*
X148847487Y-65719060D01*
%TO.C,U10*%
X157225000Y-98440000D02*
X158000000Y-98440000D01*
X157225000Y-101560000D02*
X158000000Y-101560000D01*
X158775000Y-98440000D02*
X158000000Y-98440000D01*
X158775000Y-101560000D02*
X158000000Y-101560000D01*
X156877500Y-101840000D02*
X156397500Y-101840000D01*
X156637500Y-101510000D01*
X156877500Y-101840000D01*
G36*
X156877500Y-101840000D02*
G01*
X156397500Y-101840000D01*
X156637500Y-101510000D01*
X156877500Y-101840000D01*
G37*
%TO.C,R2*%
X160967500Y-64762742D02*
X160967500Y-65237258D01*
X162012500Y-64762742D02*
X162012500Y-65237258D01*
%TO.C,C20*%
X137959420Y-57190000D02*
X138240580Y-57190000D01*
X137959420Y-58210000D02*
X138240580Y-58210000D01*
D13*
%TO.C,J7*%
X130346500Y-47580441D02*
X130346500Y-51219559D01*
X132458739Y-52524200D02*
X135553500Y-52524200D01*
X135553500Y-46275800D02*
X132458739Y-46275800D01*
X135553500Y-47237060D02*
X135553500Y-46275800D01*
X135553500Y-52524200D02*
X135553500Y-51562940D01*
D16*
X135429500Y-53159200D02*
G75*
G02*
X134667500Y-53159200I-381000J0D01*
G01*
X134667500Y-53159200D02*
G75*
G02*
X135429500Y-53159200I381000J0D01*
G01*
D12*
%TO.C,U6*%
X140290000Y-56290000D02*
X140940000Y-56290000D01*
X140290000Y-56940000D02*
X140290000Y-56290000D01*
X140290000Y-62860000D02*
X140290000Y-63510000D01*
X140290000Y-63510000D02*
X140940000Y-63510000D01*
X147210000Y-56290000D02*
X146860000Y-56290000D01*
X147510000Y-56530000D02*
X147510000Y-56940000D01*
X147510000Y-62860000D02*
X147510000Y-63510000D01*
X147510000Y-63510000D02*
X146860000Y-63510000D01*
X147510000Y-56290000D02*
X147270000Y-55960000D01*
X147750000Y-55960000D01*
X147510000Y-56290000D01*
G36*
X147510000Y-56290000D02*
G01*
X147270000Y-55960000D01*
X147750000Y-55960000D01*
X147510000Y-56290000D01*
G37*
D14*
%TO.C,U4*%
X147450000Y-73835000D02*
X143550000Y-73835000D01*
X147450000Y-83965000D02*
X143550000Y-83965000D01*
D15*
X141455000Y-83845000D02*
G75*
G02*
X141255000Y-83845000I-100000J0D01*
G01*
X141255000Y-83845000D02*
G75*
G02*
X141455000Y-83845000I100000J0D01*
G01*
D12*
%TO.C,RN4*%
X133125000Y-76330000D02*
X135225000Y-76330000D01*
X133125000Y-81670000D02*
X135225000Y-81670000D01*
%TO.C,C4*%
X121240000Y-73159420D02*
X121240000Y-73440580D01*
X122260000Y-73159420D02*
X122260000Y-73440580D01*
%TO.C,C10*%
X150238781Y-70039970D02*
X150039970Y-70238781D01*
X150960030Y-70761219D02*
X150761219Y-70960030D01*
%TO.C,C12*%
X145390000Y-52059420D02*
X145390000Y-52340580D01*
X146410000Y-52059420D02*
X146410000Y-52340580D01*
%TO.C,R1*%
X163477500Y-64762742D02*
X163477500Y-65237258D01*
X164522500Y-64762742D02*
X164522500Y-65237258D01*
%TO.C,RN6*%
X151150000Y-74330000D02*
X153250000Y-74330000D01*
X151150000Y-79670000D02*
X153250000Y-79670000D01*
%TO.C,C28*%
X153890000Y-103540580D02*
X153890000Y-103259420D01*
X154910000Y-103540580D02*
X154910000Y-103259420D01*
%TO.C,C9*%
X95159420Y-58390000D02*
X95440580Y-58390000D01*
X95159420Y-59410000D02*
X95440580Y-59410000D01*
%TO.C,C25*%
X157840580Y-105690000D02*
X157559420Y-105690000D01*
X157840580Y-106710000D02*
X157559420Y-106710000D01*
%TO.C,C3*%
X104840580Y-72390000D02*
X104559420Y-72390000D01*
X104840580Y-73410000D02*
X104559420Y-73410000D01*
%TO.C,C6*%
X105590000Y-51888748D02*
X105590000Y-53311252D01*
X107410000Y-51888748D02*
X107410000Y-53311252D01*
%TO.C,R10*%
X100587258Y-82177500D02*
X100112742Y-82177500D01*
X100587258Y-83222500D02*
X100112742Y-83222500D01*
%TO.C,C17*%
X149890000Y-63140580D02*
X149890000Y-62859420D01*
X150910000Y-63140580D02*
X150910000Y-62859420D01*
%TO.C,C16*%
X137959420Y-54090000D02*
X138240580Y-54090000D01*
X137959420Y-55110000D02*
X138240580Y-55110000D01*
%TO.C,D1*%
X122025000Y-51235000D02*
X124310000Y-51235000D01*
X124310000Y-49765000D02*
X122025000Y-49765000D01*
X124310000Y-51235000D02*
X124310000Y-49765000D01*
%TO.C,R14*%
X157937258Y-104177500D02*
X157462742Y-104177500D01*
X157937258Y-105222500D02*
X157462742Y-105222500D01*
%TO.C,R3*%
X145172500Y-67687258D02*
X145172500Y-67212742D01*
X144127500Y-67687258D02*
X144127500Y-67212742D01*
%TD*%
%LPC*%
D17*
%TO.C,C1*%
X96075000Y-57300000D03*
X94525000Y-57300000D03*
%TD*%
D18*
%TO.C,S9*%
X115570000Y-106362500D03*
D19*
X116840000Y-103822500D03*
D20*
X120650000Y-106362500D03*
D19*
X123190000Y-101282500D03*
D18*
X125730000Y-106362500D03*
D21*
X113240000Y-103822500D03*
X126665000Y-101282500D03*
%TD*%
D18*
%TO.C,S2*%
X96520000Y-106362500D03*
D19*
X97790000Y-103822500D03*
D20*
X101600000Y-106362500D03*
D19*
X104140000Y-101282500D03*
D18*
X106680000Y-106362500D03*
D21*
X94190000Y-103822500D03*
X107615000Y-101282500D03*
%TD*%
D18*
%TO.C,S17*%
X134620000Y-106362500D03*
D19*
X135890000Y-103822500D03*
D20*
X139700000Y-106362500D03*
D19*
X142240000Y-101282500D03*
D18*
X144780000Y-106362500D03*
D21*
X132290000Y-103822500D03*
X145715000Y-101282500D03*
%TD*%
D22*
%TO.C,H5*%
X166656250Y-49500000D03*
%TD*%
D18*
%TO.C,S8*%
X125730000Y-87312500D03*
D19*
X124460000Y-89852500D03*
D20*
X120650000Y-87312500D03*
D19*
X118110000Y-92392500D03*
D18*
X115570000Y-87312500D03*
D21*
X128060000Y-89852500D03*
X114635000Y-92392500D03*
%TD*%
D23*
%TO.C,J3*%
X167537500Y-91230000D03*
X167537500Y-93730000D03*
X167537500Y-96230000D03*
X167537500Y-98730000D03*
%TD*%
D18*
%TO.C,S6*%
X96520000Y-144462500D03*
D19*
X97790000Y-141922500D03*
D20*
X101600000Y-144462500D03*
D19*
X104140000Y-139382500D03*
D18*
X106680000Y-144462500D03*
D21*
X94190000Y-141922500D03*
X107615000Y-139382500D03*
%TD*%
D18*
%TO.C,S3*%
X96520000Y-125412500D03*
D19*
X97790000Y-122872500D03*
D20*
X101600000Y-125412500D03*
D19*
X104140000Y-120332500D03*
D18*
X106680000Y-125412500D03*
D21*
X94190000Y-122872500D03*
X107615000Y-120332500D03*
%TD*%
D24*
%TO.C,OLED1*%
X98575000Y-56930000D03*
D25*
X98575000Y-59470000D03*
X98575000Y-62010000D03*
X98575000Y-64550000D03*
X98575000Y-67090000D03*
X98575000Y-69630000D03*
X98575000Y-72170000D03*
%TD*%
D18*
%TO.C,S12*%
X134620000Y-163512500D03*
D19*
X135890000Y-160972500D03*
D20*
X139700000Y-163512500D03*
D19*
X142240000Y-158432500D03*
D18*
X144780000Y-163512500D03*
D21*
X132290000Y-160972500D03*
X145715000Y-158432500D03*
%TD*%
D23*
%TO.C,J4*%
X167537500Y-131110000D03*
X167537500Y-133610000D03*
X167537500Y-136110000D03*
X167537500Y-138610000D03*
%TD*%
D22*
%TO.C,H4*%
X166656250Y-176220900D03*
%TD*%
D18*
%TO.C,S11*%
X115570000Y-144462500D03*
D19*
X116840000Y-141922500D03*
D20*
X120650000Y-144462500D03*
D19*
X123190000Y-139382500D03*
D18*
X125730000Y-144462500D03*
D21*
X113240000Y-141922500D03*
X126665000Y-139382500D03*
%TD*%
D22*
%TO.C,H2*%
X93693750Y-176220900D03*
%TD*%
%TO.C,H6*%
X111125000Y-153987500D03*
%TD*%
D18*
%TO.C,S10*%
X115570000Y-125412500D03*
D19*
X116840000Y-122872500D03*
D20*
X120650000Y-125412500D03*
D19*
X123190000Y-120332500D03*
D18*
X125730000Y-125412500D03*
D21*
X113240000Y-122872500D03*
X126665000Y-120332500D03*
%TD*%
D22*
%TO.C,H1*%
X115050000Y-52300000D03*
%TD*%
D18*
%TO.C,S16*%
X153670000Y-87312500D03*
D19*
X154940000Y-84772500D03*
D20*
X158750000Y-87312500D03*
D19*
X161290000Y-82232500D03*
D18*
X163830000Y-87312500D03*
D21*
X151340000Y-84772500D03*
X164765000Y-82232500D03*
%TD*%
D26*
%TO.C,S15*%
X151750000Y-103987500D03*
X151750000Y-127787500D03*
D18*
X153670000Y-115887500D03*
D19*
X154940000Y-113347500D03*
D20*
X158750000Y-115887500D03*
D19*
X161290000Y-110807500D03*
D18*
X163830000Y-115887500D03*
D20*
X166990000Y-103987500D03*
X166990000Y-127787500D03*
D21*
X151340000Y-113347500D03*
X164765000Y-110807500D03*
%TD*%
D18*
%TO.C,S18*%
X134620000Y-125412500D03*
D19*
X135890000Y-122872500D03*
D20*
X139700000Y-125412500D03*
D19*
X142240000Y-120332500D03*
D18*
X144780000Y-125412500D03*
D21*
X132290000Y-122872500D03*
X145715000Y-120332500D03*
%TD*%
D18*
%TO.C,S19*%
X134620000Y-144462500D03*
D19*
X135890000Y-141922500D03*
D20*
X139700000Y-144462500D03*
D19*
X142240000Y-139382500D03*
D18*
X144780000Y-144462500D03*
D21*
X132290000Y-141922500D03*
X145715000Y-139382500D03*
%TD*%
D27*
%TO.C,SW1*%
X116994000Y-43437500D03*
X112994000Y-43437500D03*
X110994000Y-43437500D03*
X108994000Y-43437500D03*
D28*
X119294000Y-43437500D03*
X106694000Y-43437500D03*
%TD*%
D26*
%TO.C,S7*%
X99225000Y-156512500D03*
D20*
X99225000Y-171752500D03*
D18*
X106045000Y-163512500D03*
D19*
X107315000Y-160972500D03*
D20*
X111125000Y-163512500D03*
D19*
X113665000Y-158432500D03*
D18*
X116205000Y-163512500D03*
D26*
X123025000Y-156512500D03*
D20*
X123025000Y-171752500D03*
D21*
X103715000Y-160972500D03*
X117140000Y-158432500D03*
%TD*%
D18*
%TO.C,S1*%
X106680000Y-87312500D03*
D19*
X105410000Y-89852500D03*
D20*
X101600000Y-87312500D03*
D19*
X99060000Y-92392500D03*
D18*
X96520000Y-87312500D03*
D21*
X109010000Y-89852500D03*
X95585000Y-92392500D03*
%TD*%
D26*
%TO.C,S20*%
X151750000Y-142087500D03*
X151750000Y-165887500D03*
D18*
X153670000Y-153987500D03*
D19*
X154940000Y-151447500D03*
D20*
X158750000Y-153987500D03*
D19*
X161290000Y-148907500D03*
D18*
X163830000Y-153987500D03*
D20*
X166990000Y-142087500D03*
X166990000Y-165887500D03*
D21*
X151340000Y-151447500D03*
X164765000Y-148907500D03*
%TD*%
D18*
%TO.C,S14*%
X144780000Y-87312500D03*
D19*
X143510000Y-89852500D03*
D20*
X139700000Y-87312500D03*
D19*
X137160000Y-92392500D03*
D18*
X134620000Y-87312500D03*
D21*
X147110000Y-89852500D03*
X133685000Y-92392500D03*
%TD*%
D29*
%TO.C,RN3*%
X120435000Y-77000000D03*
X120435000Y-78340000D03*
X120435000Y-79660000D03*
X120435000Y-81000000D03*
X117435000Y-81000000D03*
X117435000Y-79660000D03*
X117435000Y-78340000D03*
X117435000Y-77000000D03*
%TD*%
D30*
%TO.C,C22*%
X143100000Y-65525000D03*
X143100000Y-67075000D03*
%TD*%
D31*
%TO.C,C26*%
X160025000Y-103100000D03*
X161575000Y-103100000D03*
%TD*%
%TO.C,C29*%
X165812700Y-100973320D03*
X167362700Y-100973320D03*
%TD*%
D32*
%TO.C,J6*%
X127450000Y-52950000D03*
D33*
X125450000Y-52950000D03*
%TD*%
D31*
%TO.C,C19*%
X149125000Y-57300000D03*
X150675000Y-57300000D03*
%TD*%
D34*
%TO.C,R7*%
X140100000Y-65475000D03*
X140100000Y-67125000D03*
%TD*%
D29*
%TO.C,RN5*%
X140500000Y-77000000D03*
X140500000Y-78340000D03*
X140500000Y-79660000D03*
X140500000Y-81000000D03*
X137500000Y-81000000D03*
X137500000Y-79660000D03*
X137500000Y-78340000D03*
X137500000Y-77000000D03*
%TD*%
D35*
%TO.C,R9*%
X138175000Y-50150000D03*
X139825000Y-50150000D03*
%TD*%
D32*
%TO.C,J5*%
X162600000Y-53201000D03*
D33*
X160600000Y-53201000D03*
%TD*%
D35*
%TO.C,R13*%
X111075000Y-45500000D03*
X112725000Y-45500000D03*
%TD*%
D29*
%TO.C,RN1*%
X101685000Y-77000000D03*
X101685000Y-78340000D03*
X101685000Y-79660000D03*
X101685000Y-81000000D03*
X98685000Y-81000000D03*
X98685000Y-79660000D03*
X98685000Y-78340000D03*
X98685000Y-77000000D03*
%TD*%
D36*
%TO.C,U7*%
X157044900Y-48395000D03*
X157044900Y-49665000D03*
X157044900Y-50935000D03*
X157044900Y-52205000D03*
X149755100Y-52205000D03*
X149755100Y-50935000D03*
X149755100Y-49665000D03*
X149755100Y-48395000D03*
%TD*%
D29*
%TO.C,RN2*%
X111695000Y-80900000D03*
X111695000Y-79560000D03*
X111695000Y-78240000D03*
X111695000Y-76900000D03*
X114695000Y-76900000D03*
X114695000Y-78240000D03*
X114695000Y-79560000D03*
X114695000Y-80900000D03*
%TD*%
D37*
%TO.C,U5*%
X161650000Y-100950000D03*
X161650000Y-100000000D03*
X161650000Y-99050000D03*
X163950000Y-99050000D03*
X163950000Y-100000000D03*
X163950000Y-100950000D03*
%TD*%
D38*
%TO.C,U2*%
X109070000Y-74555000D03*
X109070000Y-75825000D03*
X109070000Y-77095000D03*
X109070000Y-78365000D03*
X109070000Y-79635000D03*
X109070000Y-80905000D03*
X109070000Y-82175000D03*
X109070000Y-83445000D03*
X104120000Y-83445000D03*
X104120000Y-82175000D03*
X104120000Y-80905000D03*
X104120000Y-79635000D03*
X104120000Y-78365000D03*
X104120000Y-77095000D03*
X104120000Y-75825000D03*
X104120000Y-74555000D03*
%TD*%
D30*
%TO.C,C24*%
X147700000Y-48500000D03*
X147700000Y-50050000D03*
%TD*%
D39*
%TO.C,C2*%
X140800000Y-74275000D03*
X140800000Y-72725000D03*
%TD*%
%TO.C,C18*%
X144400000Y-52975000D03*
X144400000Y-51425000D03*
%TD*%
D40*
%TO.C,C7*%
X96500000Y-54075000D03*
X96500000Y-51125000D03*
%TD*%
D17*
%TO.C,C23*%
X138875000Y-56200000D03*
X137325000Y-56200000D03*
%TD*%
%TO.C,C21*%
X138875000Y-60500000D03*
X137325000Y-60500000D03*
%TD*%
D38*
%TO.C,U3*%
X128725000Y-74555000D03*
X128725000Y-75825000D03*
X128725000Y-77095000D03*
X128725000Y-78365000D03*
X128725000Y-79635000D03*
X128725000Y-80905000D03*
X128725000Y-82175000D03*
X128725000Y-83445000D03*
X123775000Y-83445000D03*
X123775000Y-82175000D03*
X123775000Y-80905000D03*
X123775000Y-79635000D03*
X123775000Y-78365000D03*
X123775000Y-77095000D03*
X123775000Y-75825000D03*
X123775000Y-74555000D03*
%TD*%
D41*
%TO.C,R12*%
X109025000Y-45500000D03*
X107375000Y-45500000D03*
%TD*%
D30*
%TO.C,C14*%
X141600000Y-65525000D03*
X141600000Y-67075000D03*
%TD*%
D17*
%TO.C,C13*%
X138850000Y-53100000D03*
X137300000Y-53100000D03*
%TD*%
D23*
%TO.C,J2*%
X92812500Y-131110000D03*
X92812500Y-133610000D03*
X92812500Y-136110000D03*
X92812500Y-138610000D03*
%TD*%
D37*
%TO.C,U9*%
X152150000Y-100950000D03*
X152150000Y-100000000D03*
X152150000Y-99050000D03*
X154450000Y-99050000D03*
X154450000Y-100000000D03*
X154450000Y-100950000D03*
%TD*%
D35*
%TO.C,R8*%
X138175000Y-48650000D03*
X139825000Y-48650000D03*
%TD*%
D39*
%TO.C,C15*%
X140500000Y-54775000D03*
X140500000Y-53225000D03*
%TD*%
D34*
%TO.C,R6*%
X163400000Y-103175000D03*
X163400000Y-104825000D03*
%TD*%
D41*
%TO.C,R11*%
X162025000Y-50900000D03*
X160375000Y-50900000D03*
%TD*%
D42*
%TO.C,U1*%
X103800000Y-54050000D03*
X101500000Y-54050000D03*
X99200000Y-54050000D03*
D43*
X101500000Y-47750000D03*
%TD*%
D44*
%TO.C,C11*%
X147048008Y-70848008D03*
X145951992Y-69751992D03*
%TD*%
D35*
%TO.C,R5*%
X118875000Y-50500000D03*
X120525000Y-50500000D03*
%TD*%
D45*
%TO.C,X1*%
X149943503Y-68087868D03*
X148387868Y-69643503D03*
X147256497Y-68512132D03*
X148812132Y-66956497D03*
%TD*%
D37*
%TO.C,U10*%
X156850000Y-100950000D03*
X156850000Y-100000000D03*
X156850000Y-99050000D03*
X159150000Y-99050000D03*
X159150000Y-100000000D03*
X159150000Y-100950000D03*
%TD*%
D46*
%TO.C,R2*%
X161490000Y-65825000D03*
X161490000Y-64175000D03*
%TD*%
D17*
%TO.C,C20*%
X138875000Y-57700000D03*
X137325000Y-57700000D03*
%TD*%
D47*
%TO.C,J7*%
X135048500Y-50900000D03*
X135048500Y-49899999D03*
X135048500Y-48900001D03*
X135048500Y-47900000D03*
D48*
X131173499Y-46600001D03*
X131173499Y-52199999D03*
%TD*%
D49*
%TO.C,U6*%
X147337500Y-57300000D03*
X147337500Y-57700000D03*
X147337500Y-58100000D03*
X147337500Y-58500000D03*
X147337500Y-58900000D03*
X147337500Y-59300000D03*
X147337500Y-59700000D03*
X147337500Y-60100000D03*
X147337500Y-60500000D03*
X147337500Y-60900000D03*
X147337500Y-61300000D03*
X147337500Y-61700000D03*
X147337500Y-62100000D03*
X147337500Y-62500000D03*
D50*
X146500000Y-63337500D03*
X146100000Y-63337500D03*
X145700000Y-63337500D03*
X145300000Y-63337500D03*
X144900000Y-63337500D03*
X144500000Y-63337500D03*
X144100000Y-63337500D03*
X143700000Y-63337500D03*
X143300000Y-63337500D03*
X142900000Y-63337500D03*
X142500000Y-63337500D03*
X142100000Y-63337500D03*
X141700000Y-63337500D03*
X141300000Y-63337500D03*
D49*
X140462500Y-62500000D03*
X140462500Y-62100000D03*
X140462500Y-61700000D03*
X140462500Y-61300000D03*
X140462500Y-60900000D03*
X140462500Y-60500000D03*
X140462500Y-60100000D03*
X140462500Y-59700000D03*
X140462500Y-59300000D03*
X140462500Y-58900000D03*
X140462500Y-58500000D03*
X140462500Y-58100000D03*
X140462500Y-57700000D03*
X140462500Y-57300000D03*
D50*
X141300000Y-56462500D03*
X141700000Y-56462500D03*
X142100000Y-56462500D03*
X142500000Y-56462500D03*
X142900000Y-56462500D03*
X143300000Y-56462500D03*
X143700000Y-56462500D03*
X144100000Y-56462500D03*
X144500000Y-56462500D03*
X144900000Y-56462500D03*
X145300000Y-56462500D03*
X145700000Y-56462500D03*
X146100000Y-56462500D03*
X146500000Y-56462500D03*
D51*
X143900000Y-59900000D03*
%TD*%
D38*
%TO.C,U4*%
X147670000Y-74455000D03*
X147670000Y-75725000D03*
X147670000Y-76995000D03*
X147670000Y-78265000D03*
X147670000Y-79535000D03*
X147670000Y-80805000D03*
X147670000Y-82075000D03*
X147670000Y-83345000D03*
X142720000Y-83345000D03*
X142720000Y-82075000D03*
X142720000Y-80805000D03*
X142720000Y-79535000D03*
X142720000Y-78265000D03*
X142720000Y-76995000D03*
X142720000Y-75725000D03*
X142720000Y-74455000D03*
%TD*%
D29*
%TO.C,RN4*%
X132675000Y-81000000D03*
X132675000Y-79660000D03*
X132675000Y-78340000D03*
X132675000Y-77000000D03*
X135675000Y-77000000D03*
X135675000Y-78340000D03*
X135675000Y-79660000D03*
X135675000Y-81000000D03*
%TD*%
D39*
%TO.C,C4*%
X121750000Y-74075000D03*
X121750000Y-72525000D03*
%TD*%
D23*
%TO.C,J1*%
X92812500Y-91230000D03*
X92812500Y-93730000D03*
X92812500Y-96230000D03*
X92812500Y-98730000D03*
%TD*%
D52*
%TO.C,C10*%
X149951992Y-71048008D03*
X151048008Y-69951992D03*
%TD*%
D39*
%TO.C,C12*%
X145900000Y-52975000D03*
X145900000Y-51425000D03*
%TD*%
D46*
%TO.C,R1*%
X164000000Y-65825000D03*
X164000000Y-64175000D03*
%TD*%
D29*
%TO.C,RN6*%
X150700000Y-79000000D03*
X150700000Y-77660000D03*
X150700000Y-76340000D03*
X150700000Y-75000000D03*
X153700000Y-75000000D03*
X153700000Y-76340000D03*
X153700000Y-77660000D03*
X153700000Y-79000000D03*
%TD*%
D30*
%TO.C,C28*%
X154400000Y-102625000D03*
X154400000Y-104175000D03*
%TD*%
D17*
%TO.C,C9*%
X96075000Y-58900000D03*
X94525000Y-58900000D03*
%TD*%
D31*
%TO.C,C25*%
X156925000Y-106200000D03*
X158475000Y-106200000D03*
%TD*%
%TO.C,C3*%
X103925000Y-72900000D03*
X105475000Y-72900000D03*
%TD*%
D40*
%TO.C,C6*%
X106500000Y-54075000D03*
X106500000Y-51125000D03*
%TD*%
D35*
%TO.C,R10*%
X99525000Y-82700000D03*
X101175000Y-82700000D03*
%TD*%
D30*
%TO.C,C17*%
X150400000Y-62225000D03*
X150400000Y-63775000D03*
%TD*%
D17*
%TO.C,C16*%
X138875000Y-54600000D03*
X137325000Y-54600000D03*
%TD*%
D53*
%TO.C,D1*%
X123612500Y-50500000D03*
X122037500Y-50500000D03*
%TD*%
D35*
%TO.C,R14*%
X156875000Y-104700000D03*
X158525000Y-104700000D03*
%TD*%
D34*
%TO.C,R3*%
X144650000Y-66625000D03*
X144650000Y-68275000D03*
%TD*%
%LPD*%
M02*
