%TF.GenerationSoftware,KiCad,Pcbnew,8.0.4*%
%TF.CreationDate,2024-10-18T15:11:06-05:00*%
%TF.ProjectId,numlocked_numpad,6e756d6c-6f63-46b6-9564-5f6e756d7061,rev?*%
%TF.SameCoordinates,Original*%
%TF.FileFunction,Paste,Bot*%
%TF.FilePolarity,Positive*%
%FSLAX46Y46*%
G04 Gerber Fmt 4.6, Leading zero omitted, Abs format (unit mm)*
G04 Created by KiCad (PCBNEW 8.0.4) date 2024-10-18 15:11:06*
%MOMM*%
%LPD*%
G01*
G04 APERTURE LIST*
G04 Aperture macros list*
%AMRoundRect*
0 Rectangle with rounded corners*
0 $1 Rounding radius*
0 $2 $3 $4 $5 $6 $7 $8 $9 X,Y pos of 4 corners*
0 Add a 4 corners polygon primitive as box body*
4,1,4,$2,$3,$4,$5,$6,$7,$8,$9,$2,$3,0*
0 Add four circle primitives for the rounded corners*
1,1,$1+$1,$2,$3*
1,1,$1+$1,$4,$5*
1,1,$1+$1,$6,$7*
1,1,$1+$1,$8,$9*
0 Add four rect primitives between the rounded corners*
20,1,$1+$1,$2,$3,$4,$5,0*
20,1,$1+$1,$4,$5,$6,$7,0*
20,1,$1+$1,$6,$7,$8,$9,0*
20,1,$1+$1,$8,$9,$2,$3,0*%
%AMRotRect*
0 Rectangle, with rotation*
0 The origin of the aperture is its center*
0 $1 length*
0 $2 width*
0 $3 Rotation angle, in degrees counterclockwise*
0 Add horizontal line*
21,1,$1,$2,0,0,$3*%
G04 Aperture macros list end*
%ADD10R,2.550000X2.500000*%
%ADD11R,0.900000X0.900000*%
%ADD12RoundRect,0.225000X-0.250000X0.225000X-0.250000X-0.225000X0.250000X-0.225000X0.250000X0.225000X0*%
%ADD13RoundRect,0.225000X-0.225000X-0.250000X0.225000X-0.250000X0.225000X0.250000X-0.225000X0.250000X0*%
%ADD14RoundRect,0.200000X-0.275000X0.200000X-0.275000X-0.200000X0.275000X-0.200000X0.275000X0.200000X0*%
%ADD15RoundRect,0.200000X-0.200000X-0.275000X0.200000X-0.275000X0.200000X0.275000X-0.200000X0.275000X0*%
%ADD16R,1.524000X0.533400*%
%ADD17RoundRect,0.150000X-0.650000X-0.150000X0.650000X-0.150000X0.650000X0.150000X-0.650000X0.150000X0*%
%ADD18RoundRect,0.075000X-0.910000X-0.225000X0.910000X-0.225000X0.910000X0.225000X-0.910000X0.225000X0*%
%ADD19RoundRect,0.200000X0.200000X0.275000X-0.200000X0.275000X-0.200000X-0.275000X0.200000X-0.275000X0*%
%ADD20RoundRect,0.225000X0.250000X-0.225000X0.250000X0.225000X-0.250000X0.225000X-0.250000X-0.225000X0*%
%ADD21RoundRect,0.250000X0.650000X-0.325000X0.650000X0.325000X-0.650000X0.325000X-0.650000X-0.325000X0*%
%ADD22R,4.350000X2.300000*%
%ADD23R,4.040000X2.300000*%
%ADD24RoundRect,0.225000X0.225000X0.250000X-0.225000X0.250000X-0.225000X-0.250000X0.225000X-0.250000X0*%
%ADD25RoundRect,0.375000X0.375000X-0.625000X0.375000X0.625000X-0.375000X0.625000X-0.375000X-0.625000X0*%
%ADD26RoundRect,0.500000X1.400000X-0.500000X1.400000X0.500000X-1.400000X0.500000X-1.400000X-0.500000X0*%
%ADD27RoundRect,0.225000X0.335876X0.017678X0.017678X0.335876X-0.335876X-0.017678X-0.017678X-0.335876X0*%
%ADD28RoundRect,0.150000X0.150000X-0.512500X0.150000X0.512500X-0.150000X0.512500X-0.150000X-0.512500X0*%
%ADD29RotRect,1.400000X1.200000X225.000000*%
%ADD30RoundRect,0.075000X0.325000X-0.075000X0.325000X0.075000X-0.325000X0.075000X-0.325000X-0.075000X0*%
%ADD31RoundRect,0.100000X0.300000X-0.100000X0.300000X0.100000X-0.300000X0.100000X-0.300000X-0.100000X0*%
%ADD32RoundRect,0.249999X0.395001X0.395001X-0.395001X0.395001X-0.395001X-0.395001X0.395001X-0.395001X0*%
%ADD33RoundRect,0.050000X0.387500X0.050000X-0.387500X0.050000X-0.387500X-0.050000X0.387500X-0.050000X0*%
%ADD34RoundRect,0.050000X0.050000X0.387500X-0.050000X0.387500X-0.050000X-0.387500X0.050000X-0.387500X0*%
%ADD35RoundRect,0.225000X-0.335876X-0.017678X-0.017678X-0.335876X0.335876X0.017678X0.017678X0.335876X0*%
%ADD36RoundRect,0.150000X0.150000X-0.825000X0.150000X0.825000X-0.150000X0.825000X-0.150000X-0.825000X0*%
%ADD37RoundRect,0.218750X0.218750X0.256250X-0.218750X0.256250X-0.218750X-0.256250X0.218750X-0.256250X0*%
%ADD38RoundRect,0.200000X0.275000X-0.200000X0.275000X0.200000X-0.275000X0.200000X-0.275000X-0.200000X0*%
G04 APERTURE END LIST*
D10*
%TO.C,S9*%
X113240000Y-103822500D03*
X126665000Y-101282500D03*
%TD*%
%TO.C,S2*%
X94190000Y-103822500D03*
X107615000Y-101282500D03*
%TD*%
%TO.C,S17*%
X132290000Y-103822500D03*
X145715000Y-101282500D03*
%TD*%
%TO.C,S8*%
X128060000Y-89852500D03*
X114635000Y-92392500D03*
%TD*%
%TO.C,S6*%
X94190000Y-141922500D03*
X107615000Y-139382500D03*
%TD*%
%TO.C,S3*%
X94190000Y-122872500D03*
X107615000Y-120332500D03*
%TD*%
%TO.C,S12*%
X132290000Y-160972500D03*
X145715000Y-158432500D03*
%TD*%
%TO.C,S11*%
X113240000Y-141922500D03*
X126665000Y-139382500D03*
%TD*%
%TO.C,S10*%
X113240000Y-122872500D03*
X126665000Y-120332500D03*
%TD*%
%TO.C,S16*%
X151340000Y-84772500D03*
X164765000Y-82232500D03*
%TD*%
%TO.C,S15*%
X151340000Y-113347500D03*
X164765000Y-110807500D03*
%TD*%
%TO.C,S1*%
X109010000Y-89852500D03*
X95585000Y-92392500D03*
%TD*%
%TO.C,S18*%
X132290000Y-122872500D03*
X145715000Y-120332500D03*
%TD*%
%TO.C,S19*%
X132290000Y-141922500D03*
X145715000Y-139382500D03*
%TD*%
%TO.C,S7*%
X103715000Y-160972500D03*
X117140000Y-158432500D03*
%TD*%
%TO.C,S20*%
X151340000Y-151447500D03*
X164765000Y-148907500D03*
%TD*%
%TO.C,S14*%
X147110000Y-89852500D03*
X133685000Y-92392500D03*
%TD*%
D11*
%TO.C,RN3*%
X120435000Y-77000000D03*
X120435000Y-78340000D03*
X120435000Y-79660000D03*
X120435000Y-81000000D03*
X117435000Y-81000000D03*
X117435000Y-79660000D03*
X117435000Y-78340000D03*
X117435000Y-77000000D03*
%TD*%
D12*
%TO.C,C22*%
X143100000Y-65525000D03*
X143100000Y-67075000D03*
%TD*%
D13*
%TO.C,C26*%
X160025000Y-103100000D03*
X161575000Y-103100000D03*
%TD*%
%TO.C,C29*%
X165812700Y-100973320D03*
X167362700Y-100973320D03*
%TD*%
%TO.C,C19*%
X149125000Y-57300000D03*
X150675000Y-57300000D03*
%TD*%
D14*
%TO.C,R7*%
X140100000Y-65475000D03*
X140100000Y-67125000D03*
%TD*%
D11*
%TO.C,RN5*%
X140500000Y-77000000D03*
X140500000Y-78340000D03*
X140500000Y-79660000D03*
X140500000Y-81000000D03*
X137500000Y-81000000D03*
X137500000Y-79660000D03*
X137500000Y-78340000D03*
X137500000Y-77000000D03*
%TD*%
D14*
%TO.C,R9*%
X141400000Y-50175000D03*
X141400000Y-51825000D03*
%TD*%
D15*
%TO.C,R13*%
X111075000Y-45500000D03*
X112725000Y-45500000D03*
%TD*%
D11*
%TO.C,RN1*%
X97750000Y-77000000D03*
X97750000Y-78340000D03*
X97750000Y-79660000D03*
X97750000Y-81000000D03*
X94750000Y-81000000D03*
X94750000Y-79660000D03*
X94750000Y-78340000D03*
X94750000Y-77000000D03*
%TD*%
D16*
%TO.C,U7*%
X157044900Y-48395000D03*
X157044900Y-49665000D03*
X157044900Y-50935000D03*
X157044900Y-52205000D03*
X149755100Y-52205000D03*
X149755100Y-50935000D03*
X149755100Y-49665000D03*
X149755100Y-48395000D03*
%TD*%
D11*
%TO.C,RN2*%
X109815000Y-81000000D03*
X109815000Y-79660000D03*
X109815000Y-78340000D03*
X109815000Y-77000000D03*
X112815000Y-77000000D03*
X112815000Y-78340000D03*
X112815000Y-79660000D03*
X112815000Y-81000000D03*
%TD*%
D12*
%TO.C,C5*%
X157000000Y-58025000D03*
X157000000Y-59575000D03*
%TD*%
D14*
%TO.C,R3*%
X152400000Y-56575000D03*
X152400000Y-58225000D03*
%TD*%
D17*
%TO.C,U5*%
X161650000Y-100950000D03*
X161650000Y-100000000D03*
X161650000Y-99050000D03*
X163950000Y-99050000D03*
X163950000Y-100000000D03*
X163950000Y-100950000D03*
%TD*%
D18*
%TO.C,U2*%
X105865000Y-74555000D03*
X105865000Y-75825000D03*
X105865000Y-77095000D03*
X105865000Y-78365000D03*
X105865000Y-79635000D03*
X105865000Y-80905000D03*
X105865000Y-82175000D03*
X105865000Y-83445000D03*
X100915000Y-83445000D03*
X100915000Y-82175000D03*
X100915000Y-80905000D03*
X100915000Y-79635000D03*
X100915000Y-78365000D03*
X100915000Y-77095000D03*
X100915000Y-75825000D03*
X100915000Y-74555000D03*
%TD*%
D12*
%TO.C,C24*%
X147700000Y-48500000D03*
X147700000Y-50050000D03*
%TD*%
D11*
%TO.C,RN7*%
X119900000Y-57200000D03*
X119900000Y-55860000D03*
X119900000Y-54540000D03*
X119900000Y-53200000D03*
X122900000Y-53200000D03*
X122900000Y-54540000D03*
X122900000Y-55860000D03*
X122900000Y-57200000D03*
%TD*%
D19*
%TO.C,R2*%
X164562686Y-57965752D03*
X162912686Y-57965752D03*
%TD*%
D20*
%TO.C,C2*%
X140800000Y-74275000D03*
X140800000Y-72725000D03*
%TD*%
%TO.C,C18*%
X144400000Y-52975000D03*
X144400000Y-51425000D03*
%TD*%
D21*
%TO.C,C7*%
X96500000Y-54075000D03*
X96500000Y-51125000D03*
%TD*%
D22*
%TO.C,BT1*%
X136935000Y-172500000D03*
D23*
X152900000Y-172500000D03*
%TD*%
D24*
%TO.C,C23*%
X138875000Y-56200000D03*
X137325000Y-56200000D03*
%TD*%
%TO.C,C21*%
X138875000Y-60600000D03*
X137325000Y-60600000D03*
%TD*%
D18*
%TO.C,U3*%
X128725000Y-74555000D03*
X128725000Y-75825000D03*
X128725000Y-77095000D03*
X128725000Y-78365000D03*
X128725000Y-79635000D03*
X128725000Y-80905000D03*
X128725000Y-82175000D03*
X128725000Y-83445000D03*
X123775000Y-83445000D03*
X123775000Y-82175000D03*
X123775000Y-80905000D03*
X123775000Y-79635000D03*
X123775000Y-78365000D03*
X123775000Y-77095000D03*
X123775000Y-75825000D03*
X123775000Y-74555000D03*
%TD*%
D19*
%TO.C,R12*%
X109025000Y-45500000D03*
X107375000Y-45500000D03*
%TD*%
D12*
%TO.C,C14*%
X141600000Y-65525000D03*
X141600000Y-67075000D03*
%TD*%
D20*
%TO.C,C13*%
X138900000Y-53075000D03*
X138900000Y-51525000D03*
%TD*%
D17*
%TO.C,U9*%
X152150000Y-100950000D03*
X152150000Y-100000000D03*
X152150000Y-99050000D03*
X154450000Y-99050000D03*
X154450000Y-100000000D03*
X154450000Y-100950000D03*
%TD*%
D14*
%TO.C,R8*%
X142900000Y-50175000D03*
X142900000Y-51825000D03*
%TD*%
D20*
%TO.C,C15*%
X140500000Y-54775000D03*
X140500000Y-53225000D03*
%TD*%
D13*
%TO.C,C32*%
X121325000Y-58900000D03*
X122875000Y-58900000D03*
%TD*%
D14*
%TO.C,R6*%
X163400000Y-103175000D03*
X163400000Y-104825000D03*
%TD*%
D19*
%TO.C,R11*%
X162025000Y-50900000D03*
X160375000Y-50900000D03*
%TD*%
D25*
%TO.C,U1*%
X103800000Y-54050000D03*
X101500000Y-54050000D03*
X99200000Y-54050000D03*
D26*
X101500000Y-47750000D03*
%TD*%
D27*
%TO.C,C11*%
X147048008Y-70848008D03*
X145951992Y-69751992D03*
%TD*%
D15*
%TO.C,R5*%
X115250000Y-69200000D03*
X116900000Y-69200000D03*
%TD*%
D28*
%TO.C,U8*%
X158400000Y-105837500D03*
X157450000Y-105837500D03*
X156500000Y-105837500D03*
X156500000Y-103562500D03*
X158400000Y-103562500D03*
%TD*%
D29*
%TO.C,X1*%
X149943503Y-68087868D03*
X148387868Y-69643503D03*
X147256497Y-68512132D03*
X148812132Y-66956497D03*
%TD*%
D17*
%TO.C,U10*%
X156850000Y-100950000D03*
X156850000Y-100000000D03*
X156850000Y-99050000D03*
X159150000Y-99050000D03*
X159150000Y-100000000D03*
X159150000Y-100950000D03*
%TD*%
D24*
%TO.C,C20*%
X138875000Y-57700000D03*
X137325000Y-57700000D03*
%TD*%
D30*
%TO.C,J7*%
X117500000Y-51950000D03*
X117500000Y-51450000D03*
X117500000Y-50950000D03*
X117500000Y-50450000D03*
D31*
X115000000Y-52950000D03*
X115000000Y-49450000D03*
%TD*%
D32*
%TO.C,U6*%
X144700000Y-60700000D03*
X144700000Y-59100000D03*
X143100000Y-60700000D03*
X143100000Y-59100000D03*
D33*
X147337500Y-57300000D03*
X147337500Y-57700000D03*
X147337500Y-58100000D03*
X147337500Y-58500000D03*
X147337500Y-58900000D03*
X147337500Y-59300000D03*
X147337500Y-59700000D03*
X147337500Y-60100000D03*
X147337500Y-60500000D03*
X147337500Y-60900000D03*
X147337500Y-61300000D03*
X147337500Y-61700000D03*
X147337500Y-62100000D03*
X147337500Y-62500000D03*
D34*
X146500000Y-63337500D03*
X146100000Y-63337500D03*
X145700000Y-63337500D03*
X145300000Y-63337500D03*
X144900000Y-63337500D03*
X144500000Y-63337500D03*
X144100000Y-63337500D03*
X143700000Y-63337500D03*
X143300000Y-63337500D03*
X142900000Y-63337500D03*
X142500000Y-63337500D03*
X142100000Y-63337500D03*
X141700000Y-63337500D03*
X141300000Y-63337500D03*
D33*
X140462500Y-62500000D03*
X140462500Y-62100000D03*
X140462500Y-61700000D03*
X140462500Y-61300000D03*
X140462500Y-60900000D03*
X140462500Y-60500000D03*
X140462500Y-60100000D03*
X140462500Y-59700000D03*
X140462500Y-59300000D03*
X140462500Y-58900000D03*
X140462500Y-58500000D03*
X140462500Y-58100000D03*
X140462500Y-57700000D03*
X140462500Y-57300000D03*
D34*
X141300000Y-56462500D03*
X141700000Y-56462500D03*
X142100000Y-56462500D03*
X142500000Y-56462500D03*
X142900000Y-56462500D03*
X143300000Y-56462500D03*
X143700000Y-56462500D03*
X144100000Y-56462500D03*
X144500000Y-56462500D03*
X144900000Y-56462500D03*
X145300000Y-56462500D03*
X145700000Y-56462500D03*
X146100000Y-56462500D03*
X146500000Y-56462500D03*
%TD*%
D18*
%TO.C,U4*%
X147670000Y-74455000D03*
X147670000Y-75725000D03*
X147670000Y-76995000D03*
X147670000Y-78265000D03*
X147670000Y-79535000D03*
X147670000Y-80805000D03*
X147670000Y-82075000D03*
X147670000Y-83345000D03*
X142720000Y-83345000D03*
X142720000Y-82075000D03*
X142720000Y-80805000D03*
X142720000Y-79535000D03*
X142720000Y-78265000D03*
X142720000Y-76995000D03*
X142720000Y-75725000D03*
X142720000Y-74455000D03*
%TD*%
D11*
%TO.C,RN4*%
X132675000Y-81000000D03*
X132675000Y-79660000D03*
X132675000Y-78340000D03*
X132675000Y-77000000D03*
X135675000Y-77000000D03*
X135675000Y-78340000D03*
X135675000Y-79660000D03*
X135675000Y-81000000D03*
%TD*%
D20*
%TO.C,C4*%
X121750000Y-74075000D03*
X121750000Y-72525000D03*
%TD*%
D19*
%TO.C,R4*%
X155555000Y-58125000D03*
X153905000Y-58125000D03*
%TD*%
D35*
%TO.C,C10*%
X150051992Y-65551992D03*
X151148008Y-66648008D03*
%TD*%
D20*
%TO.C,C12*%
X145900000Y-52975000D03*
X145900000Y-51425000D03*
%TD*%
D36*
%TO.C,U11*%
X128405000Y-57675000D03*
X127135000Y-57675000D03*
X125865000Y-57675000D03*
X124595000Y-57675000D03*
X124595000Y-52725000D03*
X125865000Y-52725000D03*
X127135000Y-52725000D03*
X128405000Y-52725000D03*
%TD*%
D11*
%TO.C,RN6*%
X150700000Y-79000000D03*
X150700000Y-77660000D03*
X150700000Y-76340000D03*
X150700000Y-75000000D03*
X153700000Y-75000000D03*
X153700000Y-76340000D03*
X153700000Y-77660000D03*
X153700000Y-79000000D03*
%TD*%
D13*
%TO.C,C28*%
X160025000Y-104700000D03*
X161575000Y-104700000D03*
%TD*%
D24*
%TO.C,C9*%
X96075000Y-58900000D03*
X94525000Y-58900000D03*
%TD*%
%TO.C,C25*%
X156702983Y-107700000D03*
X155152983Y-107700000D03*
%TD*%
D20*
%TO.C,C3*%
X98750000Y-74475000D03*
X98750000Y-72925000D03*
%TD*%
D21*
%TO.C,C6*%
X106500000Y-54075000D03*
X106500000Y-51125000D03*
%TD*%
D15*
%TO.C,R10*%
X96050000Y-82700000D03*
X97700000Y-82700000D03*
%TD*%
D12*
%TO.C,C17*%
X150400000Y-62225000D03*
X150400000Y-63775000D03*
%TD*%
D24*
%TO.C,C16*%
X138875000Y-54600000D03*
X137325000Y-54600000D03*
%TD*%
D12*
%TO.C,C27*%
X154400000Y-102725000D03*
X154400000Y-104275000D03*
%TD*%
D37*
%TO.C,D1*%
X119987500Y-69200000D03*
X118412500Y-69200000D03*
%TD*%
D15*
%TO.C,R14*%
X158177983Y-107700000D03*
X159827983Y-107700000D03*
%TD*%
D13*
%TO.C,C31*%
X127225000Y-59800000D03*
X128775000Y-59800000D03*
%TD*%
D12*
%TO.C,C1*%
X166047686Y-57955752D03*
X166047686Y-59505752D03*
%TD*%
D38*
%TO.C,R1*%
X161247686Y-59640752D03*
X161247686Y-57990752D03*
%TD*%
M02*
