M48
; DRILL file {KiCad 8.0.4} date 2025-09-04T20:04:13-0500
; FORMAT={-:-/ absolute / inch / decimal}
; #@! TF.CreationDate,2025-09-04T20:04:13-05:00
; #@! TF.GenerationSoftware,Kicad,Pcbnew,8.0.4
; #@! TF.FileFunction,Plated,1,4,PTH
FMAT,2
INCH
; #@! TA.AperFunction,Plated,PTH,ViaDrill
T1C0.0118
; #@! TA.AperFunction,Plated,PTH,ComponentDrill
T2C0.0295
; #@! TA.AperFunction,Plated,PTH,ComponentDrill
T3C0.0315
; #@! TA.AperFunction,Plated,PTH,ComponentDrill
T4C0.0394
; #@! TA.AperFunction,Plated,PTH,ComponentDrill
T5C0.0571
; #@! TA.AperFunction,Plated,PTH,ComponentDrill
T6C0.0866
%
G90
G05
T1
X3.7343Y-3.9114
X3.7441Y-2.0118
X3.7638Y-3.5551
X3.7736Y-3.9114
X3.813Y-3.9114
X3.8799Y-3.2559
X3.9016Y-1.8819
X3.9134Y-3.8819
X3.9429Y-3.1122
X3.9961Y-2.0531
X4.0433Y-3.0852
X4.0433Y-3.1352
X4.0886Y-1.8799
X4.1693Y-2.9843
X4.1693Y-3.0433
X4.1969Y-1.7953
X4.2303Y-2.4921
X4.2303Y-2.5945
X4.2303Y-2.6969
X4.2303Y-2.7972
X4.2303Y-3.2323
X4.2362Y-3.9094
X4.2362Y-4.6614
X4.252Y-2.0118
X4.2559Y-4.4409
X4.2638Y-5.3819
X4.2697Y-2.4921
X4.2697Y-2.5945
X4.2697Y-2.6969
X4.2697Y-2.7972
X4.2717Y-2.1437
X4.2835Y-3.3465
X4.2992Y-1.8307
X4.3071Y-5.4882
X4.3091Y-2.4921
X4.3091Y-2.5945
X4.3091Y-2.6969
X4.3091Y-2.7972
X4.311Y-2.1437
X4.3504Y-2.1437
X4.3504Y-5.3819
X4.3543Y-3.1323
X4.3583Y-2.0433
X4.3583Y-3.0803
X4.3937Y-5.5276
X4.4016Y-1.8228
X4.4213Y-4.7165
X4.4567Y-4.0079
X4.4665Y-1.7787
X4.5669Y-2.9057
X4.5689Y-3.0315
X4.5758Y-2.5974
X4.5846Y-3.2362
X4.624Y-3.2362
X4.6634Y-3.2362
X4.685Y-6.2362
X4.687Y-2.3642
X4.7126Y-5.2146
X4.7264Y-2.3642
X4.752Y-5.2146
X4.7657Y-2.3642
X4.7913Y-5.2146
X4.7953Y-3.1352
X4.7953Y-3.1852
X4.8031Y-3.0852
X4.8366Y-2.4606
X4.937Y-2.9852
X4.9803Y-2.4665
X4.9868Y-5.4148
X4.9882Y-3.9134
X4.9882Y-4.6575
X5.0157Y-3.2852
X5.0945Y-3.4409
X5.1339Y-6.2638
X5.1457Y-3.1852
X5.1772Y-3.1352
X5.2264Y-2.4429
X5.2264Y-3.2697
X5.2323Y-2.0551
X5.2657Y-3.2697
X5.2677Y-2.0551
X5.2689Y-4.7768
X5.2756Y-2.5413
X5.2756Y-2.7579
X5.3051Y-3.2697
X5.315Y-2.7579
X5.3346Y-3.9606
X5.3524Y-2.5787
X5.3543Y-2.7579
X5.3661Y-2.3858
X5.374Y-2.1496
X5.378Y-1.8858
X5.378Y-2.9242
X5.378Y-3.0843
X5.4055Y-2.1811
X5.4055Y-2.311
X5.4449Y-2.374
X5.4449Y-2.5197
X5.4449Y-5.3465
X5.4649Y-2.311
X5.4724Y-3.248
X5.4843Y-2.5787
X5.4941Y-2.5256
X5.5378Y-3.2819
X5.5533Y-2.6278
X5.5533Y-2.5924
X5.5591Y-2.75
X5.563Y-3.1813
X5.5669Y-2.0945
X5.5669Y-3.1313
X5.5679Y-2.1663
X5.6063Y-2.6614
X5.6102Y-2.6063
X5.6181Y-2.311
X5.6181Y-2.3583
X5.6181Y-2.4055
X5.6654Y-2.311
X5.6654Y-2.4055
X5.6811Y-3.122
X5.685Y-1.9803
X5.685Y-2.9803
X5.69Y-2.1309
X5.6969Y-3.0591
X5.7047Y-2.063
X5.7087Y-2.311
X5.7087Y-2.3583
X5.7087Y-2.4055
X5.7141Y-2.5527
X5.7362Y-4.0591
X5.7362Y-4.6654
X5.7368Y-5.41
X5.7421Y-1.9862
X5.7559Y-2.8189
X5.7598Y-3.2638
X5.7835Y-1.9409
X5.8031Y-2.0
X5.811Y-6.2362
X5.8268Y-2.6063
X5.8407Y-2.2848
X5.8425Y-2.811
X5.8646Y-2.3104
X5.8661Y-5.8622
X5.872Y-2.2303
X5.8819Y-3.102
X5.8869Y-2.5109
X5.8937Y-4.3976
X5.8996Y-2.3386
X5.9075Y-3.9744
X5.9154Y-2.5492
X5.9154Y-2.5807
X5.9154Y-3.498
X5.9331Y-2.2244
X5.9409Y-3.937
X5.9843Y-2.7992
X6.0276Y-3.7461
X6.0276Y-3.8819
X6.0394Y-2.8465
X6.0472Y-1.9567
X6.0512Y-2.9252
X6.0809Y-3.7008
X6.0809Y-3.8772
X6.0866Y-1.9567
X6.0906Y-2.6496
X6.109Y-4.0898
X6.1122Y-4.0512
X6.126Y-1.9567
X6.1299Y-2.0553
X6.1299Y-6.7913
X6.1324Y-3.962
X6.1339Y-5.2126
X6.1732Y-3.8012
X6.1732Y-3.8701
X6.1732Y-5.2126
X6.1732Y-2.6811
X6.1762Y-4.0561
X6.189Y-3.2205
X6.2126Y-3.937
X6.2126Y-5.2126
X6.2657Y-3.8563
X6.2677Y-3.6772
X6.2677Y-4.1811
X6.2953Y-3.626
X6.3386Y-4.0118
X6.3386Y-4.0974
X6.3504Y-2.8425
X6.3583Y-2.6496
X6.3642Y-3.8622
X6.3686Y-4.0842
X6.3898Y-2.8425
X6.4016Y-3.937
X6.4035Y-3.9744
X6.4144Y-4.0335
X6.4232Y-3.3012
X6.4291Y-2.8425
X6.435Y-2.2008
X6.4528Y-2.6772
X6.4606Y-3.626
X6.4606Y-3.6654
X6.4606Y-3.7047
X6.4744Y-2.2008
X6.4868Y-5.7848
X6.5138Y-2.2008
X6.5276Y-3.935
X6.5591Y-4.3622
X6.626Y-3.9764
T2
X4.2911Y-1.7101
X4.3698Y-1.7101
X4.4486Y-1.7101
X4.6061Y-1.7101
T3
X3.654Y-3.5917
X3.654Y-3.6902
X3.654Y-3.7886
X3.654Y-3.887
X3.654Y-5.1618
X3.654Y-5.2602
X3.654Y-5.3587
X3.654Y-5.4571
X4.939Y-2.0846
X5.0177Y-2.0846
X6.3228Y-2.0945
X6.4016Y-2.0945
X6.596Y-3.5917
X6.596Y-3.6902
X6.596Y-3.7886
X6.596Y-3.887
X6.596Y-5.1618
X6.596Y-5.2602
X6.596Y-5.3587
X6.596Y-5.4571
T4
X3.8809Y-2.2413
X3.8809Y-2.3413
X3.8809Y-2.4413
X3.8809Y-2.5413
X3.8809Y-2.6413
X3.8809Y-2.7413
X3.8809Y-2.8413
T5
X4.2006Y-1.7101
X4.6966Y-1.7101
T6
X3.6887Y-6.9378
X4.375Y-6.0625
X4.5295Y-2.0591
X6.5613Y-1.9488
X6.5613Y-6.9378
M30
