%TF.GenerationSoftware,KiCad,Pcbnew,8.0.4*%
%TF.CreationDate,2025-09-04T20:04:13-05:00*%
%TF.ProjectId,numlocked_numpad,6e756d6c-6f63-46b6-9564-5f6e756d7061,rev?*%
%TF.SameCoordinates,Original*%
%TF.FileFunction,Soldermask,Top*%
%TF.FilePolarity,Negative*%
%FSLAX46Y46*%
G04 Gerber Fmt 4.6, Leading zero omitted, Abs format (unit mm)*
G04 Created by KiCad (PCBNEW 8.0.4) date 2025-09-04 20:04:13*
%MOMM*%
%LPD*%
G01*
G04 APERTURE LIST*
%ADD10C,1.700000*%
%ADD11C,3.000000*%
%ADD12C,4.000000*%
%ADD13C,4.400000*%
%ADD14C,1.800000*%
%ADD15R,1.700000X1.700000*%
%ADD16O,1.700000X1.700000*%
%ADD17C,3.050000*%
%ADD18C,1.450000*%
%ADD19C,2.150000*%
%ADD20R,1.350000X1.350000*%
%ADD21O,1.350000X1.350000*%
G04 APERTURE END LIST*
D10*
%TO.C,S9*%
X115570000Y-106362500D03*
D11*
X116840000Y-103822500D03*
D12*
X120650000Y-106362500D03*
D11*
X123190000Y-101282500D03*
D10*
X125730000Y-106362500D03*
%TD*%
%TO.C,S2*%
X96520000Y-106362500D03*
D11*
X97790000Y-103822500D03*
D12*
X101600000Y-106362500D03*
D11*
X104140000Y-101282500D03*
D10*
X106680000Y-106362500D03*
%TD*%
%TO.C,S17*%
X134620000Y-106362500D03*
D11*
X135890000Y-103822500D03*
D12*
X139700000Y-106362500D03*
D11*
X142240000Y-101282500D03*
D10*
X144780000Y-106362500D03*
%TD*%
D13*
%TO.C,H5*%
X166656250Y-49500000D03*
%TD*%
D10*
%TO.C,S8*%
X125730000Y-87312500D03*
D11*
X124460000Y-89852500D03*
D12*
X120650000Y-87312500D03*
D11*
X118110000Y-92392500D03*
D10*
X115570000Y-87312500D03*
%TD*%
D14*
%TO.C,J3*%
X167537500Y-91230000D03*
X167537500Y-93730000D03*
X167537500Y-96230000D03*
X167537500Y-98730000D03*
%TD*%
D10*
%TO.C,S6*%
X96520000Y-144462500D03*
D11*
X97790000Y-141922500D03*
D12*
X101600000Y-144462500D03*
D11*
X104140000Y-139382500D03*
D10*
X106680000Y-144462500D03*
%TD*%
%TO.C,S3*%
X96520000Y-125412500D03*
D11*
X97790000Y-122872500D03*
D12*
X101600000Y-125412500D03*
D11*
X104140000Y-120332500D03*
D10*
X106680000Y-125412500D03*
%TD*%
D15*
%TO.C,OLED1*%
X98575000Y-56930000D03*
D16*
X98575000Y-59470000D03*
X98575000Y-62010000D03*
X98575000Y-64550000D03*
X98575000Y-67090000D03*
X98575000Y-69630000D03*
X98575000Y-72170000D03*
%TD*%
D10*
%TO.C,S12*%
X134620000Y-163512500D03*
D11*
X135890000Y-160972500D03*
D12*
X139700000Y-163512500D03*
D11*
X142240000Y-158432500D03*
D10*
X144780000Y-163512500D03*
%TD*%
D14*
%TO.C,J4*%
X167537500Y-131110000D03*
X167537500Y-133610000D03*
X167537500Y-136110000D03*
X167537500Y-138610000D03*
%TD*%
D13*
%TO.C,H4*%
X166656250Y-176220900D03*
%TD*%
D10*
%TO.C,S11*%
X115570000Y-144462500D03*
D11*
X116840000Y-141922500D03*
D12*
X120650000Y-144462500D03*
D11*
X123190000Y-139382500D03*
D10*
X125730000Y-144462500D03*
%TD*%
D13*
%TO.C,H2*%
X93693750Y-176220900D03*
%TD*%
%TO.C,H6*%
X111125000Y-153987500D03*
%TD*%
D10*
%TO.C,S10*%
X115570000Y-125412500D03*
D11*
X116840000Y-122872500D03*
D12*
X120650000Y-125412500D03*
D11*
X123190000Y-120332500D03*
D10*
X125730000Y-125412500D03*
%TD*%
D13*
%TO.C,H1*%
X115050000Y-52300000D03*
%TD*%
D10*
%TO.C,S16*%
X153670000Y-87312500D03*
D11*
X154940000Y-84772500D03*
D12*
X158750000Y-87312500D03*
D11*
X161290000Y-82232500D03*
D10*
X163830000Y-87312500D03*
%TD*%
D17*
%TO.C,S15*%
X151750000Y-103987500D03*
X151750000Y-127787500D03*
D10*
X153670000Y-115887500D03*
D11*
X154940000Y-113347500D03*
D12*
X158750000Y-115887500D03*
D11*
X161290000Y-110807500D03*
D10*
X163830000Y-115887500D03*
D12*
X166990000Y-103987500D03*
X166990000Y-127787500D03*
%TD*%
D10*
%TO.C,S18*%
X134620000Y-125412500D03*
D11*
X135890000Y-122872500D03*
D12*
X139700000Y-125412500D03*
D11*
X142240000Y-120332500D03*
D10*
X144780000Y-125412500D03*
%TD*%
%TO.C,S19*%
X134620000Y-144462500D03*
D11*
X135890000Y-141922500D03*
D12*
X139700000Y-144462500D03*
D11*
X142240000Y-139382500D03*
D10*
X144780000Y-144462500D03*
%TD*%
D18*
%TO.C,SW1*%
X116994000Y-43437500D03*
X112994000Y-43437500D03*
X110994000Y-43437500D03*
X108994000Y-43437500D03*
D19*
X119294000Y-43437500D03*
X106694000Y-43437500D03*
%TD*%
D17*
%TO.C,S7*%
X99225000Y-156512500D03*
D12*
X99225000Y-171752500D03*
D10*
X106045000Y-163512500D03*
D11*
X107315000Y-160972500D03*
D12*
X111125000Y-163512500D03*
D11*
X113665000Y-158432500D03*
D10*
X116205000Y-163512500D03*
D17*
X123025000Y-156512500D03*
D12*
X123025000Y-171752500D03*
%TD*%
D10*
%TO.C,S1*%
X106680000Y-87312500D03*
D11*
X105410000Y-89852500D03*
D12*
X101600000Y-87312500D03*
D11*
X99060000Y-92392500D03*
D10*
X96520000Y-87312500D03*
%TD*%
D17*
%TO.C,S20*%
X151750000Y-142087500D03*
X151750000Y-165887500D03*
D10*
X153670000Y-153987500D03*
D11*
X154940000Y-151447500D03*
D12*
X158750000Y-153987500D03*
D11*
X161290000Y-148907500D03*
D10*
X163830000Y-153987500D03*
D12*
X166990000Y-142087500D03*
X166990000Y-165887500D03*
%TD*%
D10*
%TO.C,S14*%
X144780000Y-87312500D03*
D11*
X143510000Y-89852500D03*
D12*
X139700000Y-87312500D03*
D11*
X137160000Y-92392500D03*
D10*
X134620000Y-87312500D03*
%TD*%
D20*
%TO.C,J6*%
X127450000Y-52950000D03*
D21*
X125450000Y-52950000D03*
%TD*%
D20*
%TO.C,J5*%
X162600000Y-53201000D03*
D21*
X160600000Y-53201000D03*
%TD*%
D14*
%TO.C,J2*%
X92812500Y-131110000D03*
X92812500Y-133610000D03*
X92812500Y-136110000D03*
X92812500Y-138610000D03*
%TD*%
%TO.C,J1*%
X92812500Y-91230000D03*
X92812500Y-93730000D03*
X92812500Y-96230000D03*
X92812500Y-98730000D03*
%TD*%
M02*
