%TF.GenerationSoftware,KiCad,Pcbnew,8.0.4*%
%TF.CreationDate,2024-10-18T15:11:06-05:00*%
%TF.ProjectId,numlocked_numpad,6e756d6c-6f63-46b6-9564-5f6e756d7061,rev?*%
%TF.SameCoordinates,Original*%
%TF.FileFunction,Legend,Top*%
%TF.FilePolarity,Positive*%
%FSLAX46Y46*%
G04 Gerber Fmt 4.6, Leading zero omitted, Abs format (unit mm)*
G04 Created by KiCad (PCBNEW 8.0.4) date 2024-10-18 15:11:06*
%MOMM*%
%LPD*%
G01*
G04 APERTURE LIST*
G04 Aperture macros list*
%AMRoundRect*
0 Rectangle with rounded corners*
0 $1 Rounding radius*
0 $2 $3 $4 $5 $6 $7 $8 $9 X,Y pos of 4 corners*
0 Add a 4 corners polygon primitive as box body*
4,1,4,$2,$3,$4,$5,$6,$7,$8,$9,$2,$3,0*
0 Add four circle primitives for the rounded corners*
1,1,$1+$1,$2,$3*
1,1,$1+$1,$4,$5*
1,1,$1+$1,$6,$7*
1,1,$1+$1,$8,$9*
0 Add four rect primitives between the rounded corners*
20,1,$1+$1,$2,$3,$4,$5,0*
20,1,$1+$1,$4,$5,$6,$7,0*
20,1,$1+$1,$6,$7,$8,$9,0*
20,1,$1+$1,$8,$9,$2,$3,0*%
G04 Aperture macros list end*
%ADD10C,0.300000*%
%ADD11C,0.150000*%
%ADD12C,0.100000*%
%ADD13C,0.127000*%
%ADD14C,0.200000*%
%ADD15C,0.120000*%
%ADD16C,0.000000*%
%ADD17RoundRect,0.102000X0.825000X0.825000X-0.825000X0.825000X-0.825000X-0.825000X0.825000X-0.825000X0*%
%ADD18C,1.854000*%
%ADD19O,3.204000X6.204000*%
%ADD20C,1.700000*%
%ADD21C,3.000000*%
%ADD22C,4.000000*%
%ADD23C,1.100000*%
%ADD24R,1.350000X1.350000*%
%ADD25O,1.350000X1.350000*%
%ADD26C,4.400000*%
%ADD27C,1.800000*%
%ADD28R,1.700000X1.700000*%
%ADD29O,1.700000X1.700000*%
%ADD30C,3.050000*%
%ADD31C,1.450000*%
%ADD32C,2.150000*%
%ADD33C,1.200000*%
G04 APERTURE END LIST*
D10*
X98573558Y-176939638D02*
X98573558Y-174939638D01*
X98573558Y-174939638D02*
X99716415Y-176939638D01*
X99716415Y-176939638D02*
X99716415Y-174939638D01*
X101525939Y-175606304D02*
X101525939Y-176939638D01*
X100668796Y-175606304D02*
X100668796Y-176653923D01*
X100668796Y-176653923D02*
X100764034Y-176844400D01*
X100764034Y-176844400D02*
X100954510Y-176939638D01*
X100954510Y-176939638D02*
X101240225Y-176939638D01*
X101240225Y-176939638D02*
X101430701Y-176844400D01*
X101430701Y-176844400D02*
X101525939Y-176749161D01*
X102478320Y-176939638D02*
X102478320Y-175606304D01*
X102478320Y-175796780D02*
X102573558Y-175701542D01*
X102573558Y-175701542D02*
X102764034Y-175606304D01*
X102764034Y-175606304D02*
X103049749Y-175606304D01*
X103049749Y-175606304D02*
X103240225Y-175701542D01*
X103240225Y-175701542D02*
X103335463Y-175892019D01*
X103335463Y-175892019D02*
X103335463Y-176939638D01*
X103335463Y-175892019D02*
X103430701Y-175701542D01*
X103430701Y-175701542D02*
X103621177Y-175606304D01*
X103621177Y-175606304D02*
X103906891Y-175606304D01*
X103906891Y-175606304D02*
X104097368Y-175701542D01*
X104097368Y-175701542D02*
X104192606Y-175892019D01*
X104192606Y-175892019D02*
X104192606Y-176939638D01*
X105430701Y-176939638D02*
X105240225Y-176844400D01*
X105240225Y-176844400D02*
X105144987Y-176653923D01*
X105144987Y-176653923D02*
X105144987Y-174939638D01*
X106478320Y-176939638D02*
X106287844Y-176844400D01*
X106287844Y-176844400D02*
X106192606Y-176749161D01*
X106192606Y-176749161D02*
X106097368Y-176558685D01*
X106097368Y-176558685D02*
X106097368Y-175987257D01*
X106097368Y-175987257D02*
X106192606Y-175796780D01*
X106192606Y-175796780D02*
X106287844Y-175701542D01*
X106287844Y-175701542D02*
X106478320Y-175606304D01*
X106478320Y-175606304D02*
X106764035Y-175606304D01*
X106764035Y-175606304D02*
X106954511Y-175701542D01*
X106954511Y-175701542D02*
X107049749Y-175796780D01*
X107049749Y-175796780D02*
X107144987Y-175987257D01*
X107144987Y-175987257D02*
X107144987Y-176558685D01*
X107144987Y-176558685D02*
X107049749Y-176749161D01*
X107049749Y-176749161D02*
X106954511Y-176844400D01*
X106954511Y-176844400D02*
X106764035Y-176939638D01*
X106764035Y-176939638D02*
X106478320Y-176939638D01*
X108859273Y-176844400D02*
X108668797Y-176939638D01*
X108668797Y-176939638D02*
X108287844Y-176939638D01*
X108287844Y-176939638D02*
X108097368Y-176844400D01*
X108097368Y-176844400D02*
X108002130Y-176749161D01*
X108002130Y-176749161D02*
X107906892Y-176558685D01*
X107906892Y-176558685D02*
X107906892Y-175987257D01*
X107906892Y-175987257D02*
X108002130Y-175796780D01*
X108002130Y-175796780D02*
X108097368Y-175701542D01*
X108097368Y-175701542D02*
X108287844Y-175606304D01*
X108287844Y-175606304D02*
X108668797Y-175606304D01*
X108668797Y-175606304D02*
X108859273Y-175701542D01*
X109716416Y-176939638D02*
X109716416Y-174939638D01*
X109906892Y-176177733D02*
X110478321Y-176939638D01*
X110478321Y-175606304D02*
X109716416Y-176368209D01*
X112097369Y-176844400D02*
X111906893Y-176939638D01*
X111906893Y-176939638D02*
X111525940Y-176939638D01*
X111525940Y-176939638D02*
X111335464Y-176844400D01*
X111335464Y-176844400D02*
X111240226Y-176653923D01*
X111240226Y-176653923D02*
X111240226Y-175892019D01*
X111240226Y-175892019D02*
X111335464Y-175701542D01*
X111335464Y-175701542D02*
X111525940Y-175606304D01*
X111525940Y-175606304D02*
X111906893Y-175606304D01*
X111906893Y-175606304D02*
X112097369Y-175701542D01*
X112097369Y-175701542D02*
X112192607Y-175892019D01*
X112192607Y-175892019D02*
X112192607Y-176082495D01*
X112192607Y-176082495D02*
X111240226Y-176272971D01*
X113906893Y-176939638D02*
X113906893Y-174939638D01*
X113906893Y-176844400D02*
X113716417Y-176939638D01*
X113716417Y-176939638D02*
X113335464Y-176939638D01*
X113335464Y-176939638D02*
X113144988Y-176844400D01*
X113144988Y-176844400D02*
X113049750Y-176749161D01*
X113049750Y-176749161D02*
X112954512Y-176558685D01*
X112954512Y-176558685D02*
X112954512Y-175987257D01*
X112954512Y-175987257D02*
X113049750Y-175796780D01*
X113049750Y-175796780D02*
X113144988Y-175701542D01*
X113144988Y-175701542D02*
X113335464Y-175606304D01*
X113335464Y-175606304D02*
X113716417Y-175606304D01*
X113716417Y-175606304D02*
X113906893Y-175701542D01*
X114859274Y-176749161D02*
X114954512Y-176844400D01*
X114954512Y-176844400D02*
X114859274Y-176939638D01*
X114859274Y-176939638D02*
X114764036Y-176844400D01*
X114764036Y-176844400D02*
X114859274Y-176749161D01*
X114859274Y-176749161D02*
X114859274Y-176939638D01*
X114859274Y-175701542D02*
X114954512Y-175796780D01*
X114954512Y-175796780D02*
X114859274Y-175892019D01*
X114859274Y-175892019D02*
X114764036Y-175796780D01*
X114764036Y-175796780D02*
X114859274Y-175701542D01*
X114859274Y-175701542D02*
X114859274Y-175892019D01*
X117240227Y-176844400D02*
X117525941Y-176939638D01*
X117525941Y-176939638D02*
X118002132Y-176939638D01*
X118002132Y-176939638D02*
X118192608Y-176844400D01*
X118192608Y-176844400D02*
X118287846Y-176749161D01*
X118287846Y-176749161D02*
X118383084Y-176558685D01*
X118383084Y-176558685D02*
X118383084Y-176368209D01*
X118383084Y-176368209D02*
X118287846Y-176177733D01*
X118287846Y-176177733D02*
X118192608Y-176082495D01*
X118192608Y-176082495D02*
X118002132Y-175987257D01*
X118002132Y-175987257D02*
X117621179Y-175892019D01*
X117621179Y-175892019D02*
X117430703Y-175796780D01*
X117430703Y-175796780D02*
X117335465Y-175701542D01*
X117335465Y-175701542D02*
X117240227Y-175511066D01*
X117240227Y-175511066D02*
X117240227Y-175320590D01*
X117240227Y-175320590D02*
X117335465Y-175130114D01*
X117335465Y-175130114D02*
X117430703Y-175034876D01*
X117430703Y-175034876D02*
X117621179Y-174939638D01*
X117621179Y-174939638D02*
X118097370Y-174939638D01*
X118097370Y-174939638D02*
X118383084Y-175034876D01*
X119240227Y-176939638D02*
X119240227Y-174939638D01*
X120097370Y-176939638D02*
X120097370Y-175892019D01*
X120097370Y-175892019D02*
X120002132Y-175701542D01*
X120002132Y-175701542D02*
X119811656Y-175606304D01*
X119811656Y-175606304D02*
X119525941Y-175606304D01*
X119525941Y-175606304D02*
X119335465Y-175701542D01*
X119335465Y-175701542D02*
X119240227Y-175796780D01*
X121049751Y-176939638D02*
X121049751Y-175606304D01*
X121049751Y-174939638D02*
X120954513Y-175034876D01*
X120954513Y-175034876D02*
X121049751Y-175130114D01*
X121049751Y-175130114D02*
X121144989Y-175034876D01*
X121144989Y-175034876D02*
X121049751Y-174939638D01*
X121049751Y-174939638D02*
X121049751Y-175130114D01*
X121716418Y-175606304D02*
X122478322Y-175606304D01*
X122002132Y-176939638D02*
X122002132Y-175225352D01*
X122002132Y-175225352D02*
X122097370Y-175034876D01*
X122097370Y-175034876D02*
X122287846Y-174939638D01*
X122287846Y-174939638D02*
X122478322Y-174939638D01*
X122859275Y-175606304D02*
X123621179Y-175606304D01*
X123144989Y-174939638D02*
X123144989Y-176653923D01*
X123144989Y-176653923D02*
X123240227Y-176844400D01*
X123240227Y-176844400D02*
X123430703Y-176939638D01*
X123430703Y-176939638D02*
X123621179Y-176939638D01*
X146473558Y-176219750D02*
X146473558Y-174219750D01*
X146473558Y-174219750D02*
X146949748Y-174219750D01*
X146949748Y-174219750D02*
X147235463Y-174314988D01*
X147235463Y-174314988D02*
X147425939Y-174505464D01*
X147425939Y-174505464D02*
X147521177Y-174695940D01*
X147521177Y-174695940D02*
X147616415Y-175076892D01*
X147616415Y-175076892D02*
X147616415Y-175362607D01*
X147616415Y-175362607D02*
X147521177Y-175743559D01*
X147521177Y-175743559D02*
X147425939Y-175934035D01*
X147425939Y-175934035D02*
X147235463Y-176124512D01*
X147235463Y-176124512D02*
X146949748Y-176219750D01*
X146949748Y-176219750D02*
X146473558Y-176219750D01*
X149235463Y-176124512D02*
X149044987Y-176219750D01*
X149044987Y-176219750D02*
X148664034Y-176219750D01*
X148664034Y-176219750D02*
X148473558Y-176124512D01*
X148473558Y-176124512D02*
X148378320Y-175934035D01*
X148378320Y-175934035D02*
X148378320Y-175172131D01*
X148378320Y-175172131D02*
X148473558Y-174981654D01*
X148473558Y-174981654D02*
X148664034Y-174886416D01*
X148664034Y-174886416D02*
X149044987Y-174886416D01*
X149044987Y-174886416D02*
X149235463Y-174981654D01*
X149235463Y-174981654D02*
X149330701Y-175172131D01*
X149330701Y-175172131D02*
X149330701Y-175362607D01*
X149330701Y-175362607D02*
X148378320Y-175553083D01*
X150092606Y-176124512D02*
X150283082Y-176219750D01*
X150283082Y-176219750D02*
X150664034Y-176219750D01*
X150664034Y-176219750D02*
X150854511Y-176124512D01*
X150854511Y-176124512D02*
X150949749Y-175934035D01*
X150949749Y-175934035D02*
X150949749Y-175838797D01*
X150949749Y-175838797D02*
X150854511Y-175648321D01*
X150854511Y-175648321D02*
X150664034Y-175553083D01*
X150664034Y-175553083D02*
X150378320Y-175553083D01*
X150378320Y-175553083D02*
X150187844Y-175457845D01*
X150187844Y-175457845D02*
X150092606Y-175267369D01*
X150092606Y-175267369D02*
X150092606Y-175172131D01*
X150092606Y-175172131D02*
X150187844Y-174981654D01*
X150187844Y-174981654D02*
X150378320Y-174886416D01*
X150378320Y-174886416D02*
X150664034Y-174886416D01*
X150664034Y-174886416D02*
X150854511Y-174981654D01*
X151806892Y-176219750D02*
X151806892Y-174886416D01*
X151806892Y-174219750D02*
X151711654Y-174314988D01*
X151711654Y-174314988D02*
X151806892Y-174410226D01*
X151806892Y-174410226D02*
X151902130Y-174314988D01*
X151902130Y-174314988D02*
X151806892Y-174219750D01*
X151806892Y-174219750D02*
X151806892Y-174410226D01*
X153616416Y-174886416D02*
X153616416Y-176505464D01*
X153616416Y-176505464D02*
X153521178Y-176695940D01*
X153521178Y-176695940D02*
X153425940Y-176791178D01*
X153425940Y-176791178D02*
X153235463Y-176886416D01*
X153235463Y-176886416D02*
X152949749Y-176886416D01*
X152949749Y-176886416D02*
X152759273Y-176791178D01*
X153616416Y-176124512D02*
X153425940Y-176219750D01*
X153425940Y-176219750D02*
X153044987Y-176219750D01*
X153044987Y-176219750D02*
X152854511Y-176124512D01*
X152854511Y-176124512D02*
X152759273Y-176029273D01*
X152759273Y-176029273D02*
X152664035Y-175838797D01*
X152664035Y-175838797D02*
X152664035Y-175267369D01*
X152664035Y-175267369D02*
X152759273Y-175076892D01*
X152759273Y-175076892D02*
X152854511Y-174981654D01*
X152854511Y-174981654D02*
X153044987Y-174886416D01*
X153044987Y-174886416D02*
X153425940Y-174886416D01*
X153425940Y-174886416D02*
X153616416Y-174981654D01*
X154568797Y-174886416D02*
X154568797Y-176219750D01*
X154568797Y-175076892D02*
X154664035Y-174981654D01*
X154664035Y-174981654D02*
X154854511Y-174886416D01*
X154854511Y-174886416D02*
X155140226Y-174886416D01*
X155140226Y-174886416D02*
X155330702Y-174981654D01*
X155330702Y-174981654D02*
X155425940Y-175172131D01*
X155425940Y-175172131D02*
X155425940Y-176219750D01*
X157140226Y-176124512D02*
X156949750Y-176219750D01*
X156949750Y-176219750D02*
X156568797Y-176219750D01*
X156568797Y-176219750D02*
X156378321Y-176124512D01*
X156378321Y-176124512D02*
X156283083Y-175934035D01*
X156283083Y-175934035D02*
X156283083Y-175172131D01*
X156283083Y-175172131D02*
X156378321Y-174981654D01*
X156378321Y-174981654D02*
X156568797Y-174886416D01*
X156568797Y-174886416D02*
X156949750Y-174886416D01*
X156949750Y-174886416D02*
X157140226Y-174981654D01*
X157140226Y-174981654D02*
X157235464Y-175172131D01*
X157235464Y-175172131D02*
X157235464Y-175362607D01*
X157235464Y-175362607D02*
X156283083Y-175553083D01*
X158949750Y-176219750D02*
X158949750Y-174219750D01*
X158949750Y-176124512D02*
X158759274Y-176219750D01*
X158759274Y-176219750D02*
X158378321Y-176219750D01*
X158378321Y-176219750D02*
X158187845Y-176124512D01*
X158187845Y-176124512D02*
X158092607Y-176029273D01*
X158092607Y-176029273D02*
X157997369Y-175838797D01*
X157997369Y-175838797D02*
X157997369Y-175267369D01*
X157997369Y-175267369D02*
X158092607Y-175076892D01*
X158092607Y-175076892D02*
X158187845Y-174981654D01*
X158187845Y-174981654D02*
X158378321Y-174886416D01*
X158378321Y-174886416D02*
X158759274Y-174886416D01*
X158759274Y-174886416D02*
X158949750Y-174981654D01*
X161425941Y-176219750D02*
X161425941Y-174219750D01*
X161425941Y-174981654D02*
X161616417Y-174886416D01*
X161616417Y-174886416D02*
X161997370Y-174886416D01*
X161997370Y-174886416D02*
X162187846Y-174981654D01*
X162187846Y-174981654D02*
X162283084Y-175076892D01*
X162283084Y-175076892D02*
X162378322Y-175267369D01*
X162378322Y-175267369D02*
X162378322Y-175838797D01*
X162378322Y-175838797D02*
X162283084Y-176029273D01*
X162283084Y-176029273D02*
X162187846Y-176124512D01*
X162187846Y-176124512D02*
X161997370Y-176219750D01*
X161997370Y-176219750D02*
X161616417Y-176219750D01*
X161616417Y-176219750D02*
X161425941Y-176124512D01*
X163044989Y-174886416D02*
X163521179Y-176219750D01*
X163997370Y-174886416D02*
X163521179Y-176219750D01*
X163521179Y-176219750D02*
X163330703Y-176695940D01*
X163330703Y-176695940D02*
X163235465Y-176791178D01*
X163235465Y-176791178D02*
X163044989Y-176886416D01*
X146854510Y-178487257D02*
X146854510Y-179439638D01*
X146187844Y-177439638D02*
X146854510Y-178487257D01*
X146854510Y-178487257D02*
X147521177Y-177439638D01*
X149044987Y-178106304D02*
X149044987Y-179439638D01*
X148187844Y-178106304D02*
X148187844Y-179153923D01*
X148187844Y-179153923D02*
X148283082Y-179344400D01*
X148283082Y-179344400D02*
X148473558Y-179439638D01*
X148473558Y-179439638D02*
X148759273Y-179439638D01*
X148759273Y-179439638D02*
X148949749Y-179344400D01*
X148949749Y-179344400D02*
X149044987Y-179249161D01*
X149997368Y-179439638D02*
X149997368Y-177439638D01*
X150854511Y-179439638D02*
X150854511Y-178392019D01*
X150854511Y-178392019D02*
X150759273Y-178201542D01*
X150759273Y-178201542D02*
X150568797Y-178106304D01*
X150568797Y-178106304D02*
X150283082Y-178106304D01*
X150283082Y-178106304D02*
X150092606Y-178201542D01*
X150092606Y-178201542D02*
X149997368Y-178296780D01*
X151806892Y-179439638D02*
X151806892Y-177439638D01*
X152949749Y-179439638D02*
X152092606Y-178296780D01*
X152949749Y-177439638D02*
X151806892Y-178582495D01*
X154664035Y-178106304D02*
X154664035Y-179439638D01*
X153806892Y-178106304D02*
X153806892Y-179153923D01*
X153806892Y-179153923D02*
X153902130Y-179344400D01*
X153902130Y-179344400D02*
X154092606Y-179439638D01*
X154092606Y-179439638D02*
X154378321Y-179439638D01*
X154378321Y-179439638D02*
X154568797Y-179344400D01*
X154568797Y-179344400D02*
X154664035Y-179249161D01*
X155616416Y-179439638D02*
X155616416Y-178106304D01*
X155616416Y-178487257D02*
X155711654Y-178296780D01*
X155711654Y-178296780D02*
X155806892Y-178201542D01*
X155806892Y-178201542D02*
X155997368Y-178106304D01*
X155997368Y-178106304D02*
X156187845Y-178106304D01*
X157140225Y-179439638D02*
X156949749Y-179344400D01*
X156949749Y-179344400D02*
X156854511Y-179249161D01*
X156854511Y-179249161D02*
X156759273Y-179058685D01*
X156759273Y-179058685D02*
X156759273Y-178487257D01*
X156759273Y-178487257D02*
X156854511Y-178296780D01*
X156854511Y-178296780D02*
X156949749Y-178201542D01*
X156949749Y-178201542D02*
X157140225Y-178106304D01*
X157140225Y-178106304D02*
X157425940Y-178106304D01*
X157425940Y-178106304D02*
X157616416Y-178201542D01*
X157616416Y-178201542D02*
X157711654Y-178296780D01*
X157711654Y-178296780D02*
X157806892Y-178487257D01*
X157806892Y-178487257D02*
X157806892Y-179058685D01*
X157806892Y-179058685D02*
X157711654Y-179249161D01*
X157711654Y-179249161D02*
X157616416Y-179344400D01*
X157616416Y-179344400D02*
X157425940Y-179439638D01*
X157425940Y-179439638D02*
X157140225Y-179439638D01*
D11*
X90564819Y-58628571D02*
X90564819Y-58438095D01*
X90564819Y-58438095D02*
X90612438Y-58342857D01*
X90612438Y-58342857D02*
X90707676Y-58247619D01*
X90707676Y-58247619D02*
X90898152Y-58200000D01*
X90898152Y-58200000D02*
X91231485Y-58200000D01*
X91231485Y-58200000D02*
X91421961Y-58247619D01*
X91421961Y-58247619D02*
X91517200Y-58342857D01*
X91517200Y-58342857D02*
X91564819Y-58438095D01*
X91564819Y-58438095D02*
X91564819Y-58628571D01*
X91564819Y-58628571D02*
X91517200Y-58723809D01*
X91517200Y-58723809D02*
X91421961Y-58819047D01*
X91421961Y-58819047D02*
X91231485Y-58866666D01*
X91231485Y-58866666D02*
X90898152Y-58866666D01*
X90898152Y-58866666D02*
X90707676Y-58819047D01*
X90707676Y-58819047D02*
X90612438Y-58723809D01*
X90612438Y-58723809D02*
X90564819Y-58628571D01*
X91564819Y-57295238D02*
X91564819Y-57771428D01*
X91564819Y-57771428D02*
X90564819Y-57771428D01*
X91041009Y-56961904D02*
X91041009Y-56628571D01*
X91564819Y-56485714D02*
X91564819Y-56961904D01*
X91564819Y-56961904D02*
X90564819Y-56961904D01*
X90564819Y-56961904D02*
X90564819Y-56485714D01*
X91564819Y-56057142D02*
X90564819Y-56057142D01*
X90564819Y-56057142D02*
X90564819Y-55819047D01*
X90564819Y-55819047D02*
X90612438Y-55676190D01*
X90612438Y-55676190D02*
X90707676Y-55580952D01*
X90707676Y-55580952D02*
X90802914Y-55533333D01*
X90802914Y-55533333D02*
X90993390Y-55485714D01*
X90993390Y-55485714D02*
X91136247Y-55485714D01*
X91136247Y-55485714D02*
X91326723Y-55533333D01*
X91326723Y-55533333D02*
X91421961Y-55580952D01*
X91421961Y-55580952D02*
X91517200Y-55676190D01*
X91517200Y-55676190D02*
X91564819Y-55819047D01*
X91564819Y-55819047D02*
X91564819Y-56057142D01*
X91564819Y-54533333D02*
X91564819Y-55104761D01*
X91564819Y-54819047D02*
X90564819Y-54819047D01*
X90564819Y-54819047D02*
X90707676Y-54914285D01*
X90707676Y-54914285D02*
X90802914Y-55009523D01*
X90802914Y-55009523D02*
X90850533Y-55104761D01*
D12*
X144403884Y-172491466D02*
X145165789Y-172491466D01*
X144784836Y-172872419D02*
X144784836Y-172110514D01*
D13*
%TO.C,MT1*%
X152500000Y-56800000D02*
X152500000Y-60100000D01*
X152500000Y-70200000D02*
X152500000Y-66900000D01*
X155050000Y-56800000D02*
X152500000Y-56800000D01*
X155050000Y-70200000D02*
X152500000Y-70200000D01*
X165000000Y-56800000D02*
X162450000Y-56800000D01*
X165000000Y-60100000D02*
X165000000Y-56800000D01*
X165000000Y-66900000D02*
X165000000Y-70200000D01*
X165000000Y-70200000D02*
X162450000Y-70200000D01*
D14*
X163050000Y-71100000D02*
G75*
G02*
X162850000Y-71100000I-100000J0D01*
G01*
X162850000Y-71100000D02*
G75*
G02*
X163050000Y-71100000I100000J0D01*
G01*
%TO.C,SW2*%
D12*
X92716350Y-59245500D02*
X105721150Y-59245500D01*
X105721150Y-67754500D01*
X92716350Y-67754500D01*
X92716350Y-59245500D01*
D15*
%TO.C,J6*%
X135740000Y-66500000D02*
X135740000Y-68560000D01*
X135740000Y-66500000D02*
X137860000Y-66500000D01*
X135740000Y-68560000D02*
X137860000Y-68560000D01*
X136800000Y-64440000D02*
X137860000Y-64440000D01*
X137860000Y-64440000D02*
X137860000Y-65500000D01*
X137860000Y-66500000D02*
X137860000Y-68560000D01*
%TO.C,J5*%
X159540000Y-52141000D02*
X159540000Y-54261000D01*
X161600000Y-52141000D02*
X159540000Y-52141000D01*
X161600000Y-52141000D02*
X161600000Y-54261000D01*
X161600000Y-54261000D02*
X159540000Y-54261000D01*
X163660000Y-53201000D02*
X163660000Y-54261000D01*
X163660000Y-54261000D02*
X162600000Y-54261000D01*
D16*
%TO.C,G\u002A\u002A\u002A*%
G36*
X112662856Y-169206921D02*
G01*
X112589415Y-169393028D01*
X112532527Y-169505238D01*
X112403994Y-169745767D01*
X112324919Y-169881293D01*
X112284157Y-169927971D01*
X112270565Y-169901954D01*
X112270107Y-169885648D01*
X112227838Y-169793105D01*
X112129011Y-169667949D01*
X112044437Y-169531617D01*
X112072861Y-169408935D01*
X112222126Y-169283519D01*
X112346477Y-169213654D01*
X112546085Y-169124598D01*
X112649979Y-169119899D01*
X112662856Y-169206921D01*
G37*
G36*
X110887005Y-171118420D02*
G01*
X110934655Y-171427238D01*
X110909232Y-171576566D01*
X110860161Y-171867894D01*
X110845967Y-172240840D01*
X110864608Y-172646681D01*
X110914043Y-173036698D01*
X110982829Y-173332791D01*
X111150530Y-173723368D01*
X111389680Y-174077279D01*
X111671925Y-174357860D01*
X111877694Y-174489891D01*
X112100773Y-174599836D01*
X111626640Y-174591230D01*
X111353131Y-174583307D01*
X111105619Y-174571091D01*
X110949307Y-174558378D01*
X110623335Y-174519534D01*
X110402312Y-174485522D01*
X110257203Y-174441190D01*
X110158971Y-174371387D01*
X110078580Y-174260963D01*
X109986996Y-174094765D01*
X109958093Y-174041148D01*
X109852821Y-173838416D01*
X109786157Y-173672238D01*
X109749332Y-173500386D01*
X109733575Y-173280634D01*
X109730115Y-172970757D01*
X109730107Y-172943454D01*
X109743925Y-172537632D01*
X109796198Y-172214859D01*
X109903155Y-171936165D01*
X110081024Y-171662581D01*
X110346034Y-171355137D01*
X110427554Y-171268681D01*
X110803253Y-170874800D01*
X110887005Y-171118420D01*
G37*
G36*
X112202373Y-171507898D02*
G01*
X112253871Y-171976247D01*
X112397377Y-172475180D01*
X112616413Y-172954155D01*
X112739965Y-173156809D01*
X113043575Y-173561370D01*
X113360492Y-173873233D01*
X113732511Y-174132140D01*
X113817055Y-174180979D01*
X113996351Y-174291518D01*
X114105427Y-174378222D01*
X114121855Y-174418979D01*
X114030093Y-174442085D01*
X113843058Y-174469809D01*
X113600538Y-174496290D01*
X113590907Y-174497180D01*
X113317934Y-174522803D01*
X113070743Y-174546982D01*
X112913573Y-174563329D01*
X112741299Y-174553105D01*
X112501589Y-174503506D01*
X112297115Y-174442043D01*
X111941833Y-174302259D01*
X111684929Y-174156749D01*
X111490591Y-173981224D01*
X111357145Y-173804442D01*
X111135931Y-173351851D01*
X111012997Y-172809909D01*
X110984832Y-172333854D01*
X110989387Y-171979586D01*
X111007219Y-171741038D01*
X111045018Y-171598622D01*
X111109475Y-171532754D01*
X111207281Y-171523844D01*
X111258701Y-171532133D01*
X111561089Y-171537336D01*
X111847135Y-171420283D01*
X111993953Y-171311853D01*
X112202373Y-171136478D01*
X112202373Y-171507898D01*
G37*
G36*
X112508481Y-168029114D02*
G01*
X112526392Y-168031116D01*
X112987408Y-168111493D01*
X113350838Y-168244047D01*
X113649452Y-168444083D01*
X113853561Y-168651073D01*
X114054840Y-168951312D01*
X114144729Y-169238979D01*
X114124078Y-169496134D01*
X113993735Y-169704836D01*
X113797777Y-169830552D01*
X113526715Y-169882934D01*
X113289069Y-169816501D01*
X113106807Y-169647423D01*
X113001899Y-169391866D01*
X112985245Y-169232577D01*
X112976566Y-169053648D01*
X112937721Y-168974529D01*
X112838237Y-168959563D01*
X112756554Y-168964970D01*
X112523851Y-169016227D01*
X112267492Y-169120110D01*
X112045482Y-169249737D01*
X111939814Y-169343497D01*
X111866482Y-169404484D01*
X111767481Y-169401234D01*
X111624787Y-169348448D01*
X111242589Y-169260320D01*
X110804766Y-169287674D01*
X110327970Y-169428511D01*
X110066308Y-169523352D01*
X109902124Y-169556668D01*
X109814406Y-169532593D01*
X109811804Y-169530111D01*
X109701229Y-169483300D01*
X109515699Y-169457162D01*
X109447885Y-169455187D01*
X109286926Y-169470804D01*
X109137175Y-169527125D01*
X108983685Y-169638358D01*
X108811512Y-169818711D01*
X108605709Y-170082392D01*
X108351332Y-170443607D01*
X108247945Y-170595871D01*
X108024717Y-170907885D01*
X107782105Y-171216480D01*
X107552646Y-171481720D01*
X107401279Y-171635070D01*
X107013043Y-171932261D01*
X106536818Y-172205724D01*
X106020073Y-172430151D01*
X105733840Y-172524076D01*
X105560200Y-172570403D01*
X105429676Y-172584060D01*
X105299552Y-172557425D01*
X105127113Y-172482878D01*
X104921040Y-172379047D01*
X104631415Y-172236178D01*
X104330795Y-172095966D01*
X104088200Y-171990426D01*
X103729493Y-171844055D01*
X104155933Y-171796414D01*
X104817556Y-171671315D01*
X105486055Y-171440514D01*
X106170778Y-171099118D01*
X106881071Y-170642234D01*
X107626280Y-170064969D01*
X107884676Y-169844411D01*
X108658570Y-169233761D01*
X109440118Y-168742851D01*
X110222601Y-168374307D01*
X110999302Y-168130754D01*
X111763501Y-168014814D01*
X112508481Y-168029114D01*
G37*
G36*
X111538034Y-169511885D02*
G01*
X111852003Y-169700413D01*
X112049743Y-169926066D01*
X112166988Y-170205892D01*
X112191024Y-170524562D01*
X112128490Y-170840125D01*
X111986027Y-171110629D01*
X111839806Y-171252464D01*
X111620597Y-171338650D01*
X111375313Y-171338165D01*
X111163455Y-171253997D01*
X111118640Y-171216254D01*
X111004097Y-171060994D01*
X111004166Y-170910322D01*
X111091682Y-170752811D01*
X111159170Y-170629374D01*
X111164520Y-170562223D01*
X111064551Y-170546793D01*
X110894480Y-170634085D01*
X110650936Y-170826348D01*
X110353472Y-171103359D01*
X110009001Y-171473567D01*
X109770500Y-171820944D01*
X109622044Y-172181764D01*
X109547713Y-172592304D01*
X109530926Y-172977320D01*
X109536548Y-173287254D01*
X109563189Y-173518512D01*
X109622538Y-173727563D01*
X109726283Y-173970878D01*
X109744715Y-174010254D01*
X109846020Y-174227984D01*
X109917834Y-174387451D01*
X109946993Y-174459298D01*
X109946682Y-174460653D01*
X109879054Y-174443644D01*
X109716436Y-174406187D01*
X109526907Y-174363711D01*
X109154001Y-174276703D01*
X108890384Y-174200224D01*
X108711943Y-174121241D01*
X108594565Y-174026721D01*
X108514137Y-173903632D01*
X108465617Y-173790121D01*
X108368644Y-173385988D01*
X108359531Y-172951033D01*
X108439415Y-172550122D01*
X108443673Y-172537967D01*
X108490847Y-172358592D01*
X108493749Y-172232909D01*
X108482758Y-172210878D01*
X108429159Y-172227228D01*
X108365429Y-172345011D01*
X108301533Y-172531690D01*
X108247436Y-172754730D01*
X108213104Y-172981597D01*
X108206107Y-173114088D01*
X108227787Y-173386419D01*
X108281757Y-173674675D01*
X108301078Y-173745489D01*
X108353929Y-173927520D01*
X108383316Y-174041538D01*
X108385570Y-174061054D01*
X108322154Y-174038500D01*
X108158439Y-173977405D01*
X107920657Y-173887615D01*
X107688240Y-173799268D01*
X107445494Y-173699976D01*
X107150958Y-173569199D01*
X106827671Y-173418413D01*
X106498670Y-173259095D01*
X106186996Y-173102719D01*
X105915686Y-172960763D01*
X105707778Y-172844703D01*
X105586312Y-172766015D01*
X105564507Y-172741369D01*
X105624755Y-172715082D01*
X105780445Y-172673544D01*
X105937892Y-172638477D01*
X106421189Y-172487647D01*
X106914130Y-172245695D01*
X107363480Y-171941485D01*
X107586370Y-171744705D01*
X107774786Y-171538547D01*
X108004388Y-171258372D01*
X108243339Y-170944263D01*
X108420556Y-170694427D01*
X108735497Y-170253978D01*
X109001494Y-169930831D01*
X109226291Y-169719256D01*
X109417632Y-169613520D01*
X109583261Y-169607892D01*
X109730922Y-169696639D01*
X109747040Y-169712574D01*
X109816698Y-169773633D01*
X109891629Y-169791858D01*
X110006725Y-169762515D01*
X110196877Y-169680870D01*
X110287114Y-169639295D01*
X110745092Y-169479618D01*
X111165565Y-169437717D01*
X111538034Y-169511885D01*
G37*
G36*
X117301197Y-169820818D02*
G01*
X117442308Y-169883263D01*
X117455481Y-169891698D01*
X117575496Y-169993272D01*
X117606914Y-170114538D01*
X117590556Y-170239910D01*
X117571592Y-170395810D01*
X117606168Y-170459977D01*
X117689068Y-170471187D01*
X117951025Y-170532614D01*
X118189222Y-170693690D01*
X118365529Y-170919608D01*
X118440513Y-171157178D01*
X118443786Y-171425775D01*
X118383874Y-171622456D01*
X118243031Y-171802925D01*
X118230860Y-171815214D01*
X117998975Y-171985249D01*
X117755010Y-172065332D01*
X117523711Y-172063216D01*
X117329826Y-171986654D01*
X117198103Y-171843399D01*
X117153289Y-171641203D01*
X117181046Y-171486328D01*
X117205763Y-171389677D01*
X117171109Y-171381885D01*
X117053247Y-171454346D01*
X116814004Y-171546039D01*
X116535396Y-171562174D01*
X116288907Y-171499088D01*
X116279164Y-171494032D01*
X116126370Y-171352705D01*
X116086717Y-171173880D01*
X116155306Y-170986527D01*
X116327236Y-170819613D01*
X116400484Y-170776688D01*
X116618435Y-170688790D01*
X116771802Y-170695535D01*
X116882416Y-170783750D01*
X116931142Y-170874241D01*
X116885969Y-170958802D01*
X116813381Y-171022511D01*
X116706236Y-171135661D01*
X116705034Y-171196903D01*
X116801769Y-171184366D01*
X116862204Y-171155890D01*
X117013055Y-171016482D01*
X117051371Y-170845961D01*
X116976299Y-170683798D01*
X116874072Y-170605636D01*
X116706555Y-170584555D01*
X116461174Y-170643409D01*
X116160052Y-170770734D01*
X115825312Y-170955068D01*
X115479078Y-171184946D01*
X115143474Y-171448907D01*
X115001873Y-171575700D01*
X114721813Y-171879757D01*
X114475595Y-172226536D01*
X114273778Y-172591508D01*
X114126918Y-172950145D01*
X114045574Y-173277920D01*
X114040302Y-173550303D01*
X114088790Y-173697070D01*
X114133836Y-173753725D01*
X114157023Y-173711285D01*
X114165698Y-173552859D01*
X114166188Y-173519187D01*
X114231375Y-173096956D01*
X114406779Y-172650639D01*
X114676658Y-172206009D01*
X115025270Y-171788840D01*
X115436876Y-171424904D01*
X115452329Y-171413373D01*
X115891352Y-171087805D01*
X115980669Y-171311740D01*
X116140461Y-171546939D01*
X116386012Y-171680922D01*
X116642418Y-171710416D01*
X116797706Y-171708619D01*
X116874054Y-171712850D01*
X116875690Y-171714025D01*
X116847656Y-171774587D01*
X116775658Y-171920013D01*
X116706357Y-172057466D01*
X116561343Y-172447058D01*
X116544487Y-172800078D01*
X116656933Y-173127060D01*
X116850885Y-173387951D01*
X117012444Y-173561514D01*
X116566410Y-173718978D01*
X116120375Y-173876441D01*
X115939374Y-173741534D01*
X115683717Y-173470950D01*
X115535255Y-173131866D01*
X115501128Y-172747108D01*
X115544604Y-172479625D01*
X115565884Y-172344178D01*
X115525589Y-172310829D01*
X115507328Y-172315336D01*
X115442444Y-172393892D01*
X115381116Y-172558606D01*
X115361218Y-172643699D01*
X115347963Y-173047538D01*
X115457259Y-173435676D01*
X115656650Y-173745765D01*
X115854026Y-173970564D01*
X115399800Y-174115595D01*
X115071813Y-174216735D01*
X114837040Y-174275475D01*
X114660995Y-174294622D01*
X114509191Y-174276984D01*
X114347142Y-174225367D01*
X114295847Y-174205450D01*
X113756961Y-173922326D01*
X113274058Y-173531168D01*
X112873258Y-173056075D01*
X112660567Y-172696619D01*
X112517705Y-172401247D01*
X112442870Y-172197355D01*
X112442182Y-172055929D01*
X112521763Y-171947955D01*
X112687732Y-171844421D01*
X112858315Y-171759184D01*
X113138923Y-171601951D01*
X113408273Y-171402335D01*
X113701809Y-171132442D01*
X113862649Y-170968758D01*
X114087321Y-170744507D01*
X114287709Y-170562351D01*
X114440714Y-170442179D01*
X114519208Y-170403454D01*
X114640479Y-170454842D01*
X114739269Y-170555043D01*
X114842662Y-170656848D01*
X114934333Y-170639710D01*
X115519074Y-170252227D01*
X116084796Y-169988199D01*
X116648243Y-169840421D01*
X116851892Y-169814464D01*
X117119686Y-169799842D01*
X117301197Y-169820818D01*
G37*
D15*
%TO.C,OLED1*%
X92550000Y-55370000D02*
X93880000Y-55370000D01*
X92550000Y-56700000D02*
X92550000Y-55370000D01*
X95150000Y-55370000D02*
X110450000Y-55370000D01*
X95150000Y-58030000D02*
X95150000Y-55370000D01*
X95150000Y-58030000D02*
X110450000Y-58030000D01*
X110450000Y-58030000D02*
X110450000Y-55370000D01*
%TO.C,SW3*%
D12*
X107003850Y-59245500D02*
X120008650Y-59245500D01*
X120008650Y-67754500D01*
X107003850Y-67754500D01*
X107003850Y-59245500D01*
%TO.C,SW4*%
X121291350Y-59245500D02*
X134296150Y-59245500D01*
X134296150Y-67754500D01*
X121291350Y-67754500D01*
X121291350Y-59245500D01*
%TD*%
%LPC*%
D17*
%TO.C,MT1*%
X161250000Y-70500000D03*
D18*
X156250000Y-70500000D03*
X161250000Y-56000000D03*
X156250000Y-56000000D03*
X158750000Y-56000000D03*
D19*
X164450000Y-63500000D03*
X153050000Y-63500000D03*
%TD*%
D20*
%TO.C,S9*%
X115570000Y-106362500D03*
D21*
X116840000Y-103822500D03*
D22*
X120650000Y-106362500D03*
D21*
X123190000Y-101282500D03*
D20*
X125730000Y-106362500D03*
%TD*%
D23*
%TO.C,SW2*%
X94218750Y-61000000D03*
X96718750Y-61000000D03*
X101718750Y-61000000D03*
X104218750Y-61000000D03*
X94218750Y-66000000D03*
X94218750Y-63500000D03*
X96718750Y-63500000D03*
X96718750Y-66000000D03*
X101718750Y-63500000D03*
X101718750Y-66000000D03*
X104218750Y-63500000D03*
X104218750Y-66000000D03*
%TD*%
D20*
%TO.C,S2*%
X96520000Y-106362500D03*
D21*
X97790000Y-103822500D03*
D22*
X101600000Y-106362500D03*
D21*
X104140000Y-101282500D03*
D20*
X106680000Y-106362500D03*
%TD*%
D24*
%TO.C,J6*%
X136800000Y-65500000D03*
D25*
X136800000Y-67500000D03*
%TD*%
D20*
%TO.C,S17*%
X134620000Y-106362500D03*
D21*
X135890000Y-103822500D03*
D22*
X139700000Y-106362500D03*
D21*
X142240000Y-101282500D03*
D20*
X144780000Y-106362500D03*
%TD*%
D26*
%TO.C,H5*%
X166656250Y-49500000D03*
%TD*%
D24*
%TO.C,J5*%
X162600000Y-53201000D03*
D25*
X160600000Y-53201000D03*
%TD*%
D20*
%TO.C,S8*%
X125730000Y-87312500D03*
D21*
X124460000Y-89852500D03*
D22*
X120650000Y-87312500D03*
D21*
X118110000Y-92392500D03*
D20*
X115570000Y-87312500D03*
%TD*%
D27*
%TO.C,J3*%
X167537500Y-91230000D03*
X167537500Y-93730000D03*
X167537500Y-96230000D03*
X167537500Y-98730000D03*
%TD*%
D20*
%TO.C,S6*%
X96520000Y-144462500D03*
D21*
X97790000Y-141922500D03*
D22*
X101600000Y-144462500D03*
D21*
X104140000Y-139382500D03*
D20*
X106680000Y-144462500D03*
%TD*%
%TO.C,S3*%
X96520000Y-125412500D03*
D21*
X97790000Y-122872500D03*
D22*
X101600000Y-125412500D03*
D21*
X104140000Y-120332500D03*
D20*
X106680000Y-125412500D03*
%TD*%
D28*
%TO.C,OLED1*%
X93880000Y-56700000D03*
D29*
X96420000Y-56700000D03*
X98960000Y-56700000D03*
X101500000Y-56700000D03*
X104040000Y-56700000D03*
X106580000Y-56700000D03*
X109120000Y-56700000D03*
%TD*%
D20*
%TO.C,S12*%
X134620000Y-163512500D03*
D21*
X135890000Y-160972500D03*
D22*
X139700000Y-163512500D03*
D21*
X142240000Y-158432500D03*
D20*
X144780000Y-163512500D03*
%TD*%
D27*
%TO.C,J4*%
X167537500Y-131110000D03*
X167537500Y-133610000D03*
X167537500Y-136110000D03*
X167537500Y-138610000D03*
%TD*%
D26*
%TO.C,H4*%
X166656250Y-176220900D03*
%TD*%
D20*
%TO.C,S11*%
X115570000Y-144462500D03*
D21*
X116840000Y-141922500D03*
D22*
X120650000Y-144462500D03*
D21*
X123190000Y-139382500D03*
D20*
X125730000Y-144462500D03*
%TD*%
D26*
%TO.C,H2*%
X93693750Y-176220900D03*
%TD*%
%TO.C,H6*%
X120650000Y-150181250D03*
%TD*%
D20*
%TO.C,S10*%
X115570000Y-125412500D03*
D21*
X116840000Y-122872500D03*
D22*
X120650000Y-125412500D03*
D21*
X123190000Y-120332500D03*
D20*
X125730000Y-125412500D03*
%TD*%
D26*
%TO.C,H1*%
X104300000Y-70900000D03*
%TD*%
D20*
%TO.C,S16*%
X153670000Y-87312500D03*
D21*
X154940000Y-84772500D03*
D22*
X158750000Y-87312500D03*
D21*
X161290000Y-82232500D03*
D20*
X163830000Y-87312500D03*
%TD*%
D30*
%TO.C,S15*%
X151750000Y-103987500D03*
X151750000Y-127787500D03*
D20*
X153670000Y-115887500D03*
D21*
X154940000Y-113347500D03*
D22*
X158750000Y-115887500D03*
D21*
X161290000Y-110807500D03*
D20*
X163830000Y-115887500D03*
D22*
X166990000Y-103987500D03*
X166990000Y-127787500D03*
%TD*%
D20*
%TO.C,S1*%
X106680000Y-87312500D03*
D21*
X105410000Y-89852500D03*
D22*
X101600000Y-87312500D03*
D21*
X99060000Y-92392500D03*
D20*
X96520000Y-87312500D03*
%TD*%
%TO.C,S18*%
X134620000Y-125412500D03*
D21*
X135890000Y-122872500D03*
D22*
X139700000Y-125412500D03*
D21*
X142240000Y-120332500D03*
D20*
X144780000Y-125412500D03*
%TD*%
%TO.C,S19*%
X134620000Y-144462500D03*
D21*
X135890000Y-141922500D03*
D22*
X139700000Y-144462500D03*
D21*
X142240000Y-139382500D03*
D20*
X144780000Y-144462500D03*
%TD*%
D31*
%TO.C,SW1*%
X116994000Y-43437500D03*
X112994000Y-43437500D03*
X110994000Y-43437500D03*
X108994000Y-43437500D03*
D32*
X119294000Y-43437500D03*
X106694000Y-43437500D03*
%TD*%
D30*
%TO.C,S7*%
X99225000Y-156512500D03*
D22*
X99225000Y-171752500D03*
D20*
X106045000Y-163512500D03*
D21*
X107315000Y-160972500D03*
D22*
X111125000Y-163512500D03*
D21*
X113665000Y-158432500D03*
D20*
X116205000Y-163512500D03*
D30*
X123025000Y-156512500D03*
D22*
X123025000Y-171752500D03*
%TD*%
D23*
%TO.C,SW3*%
X108506250Y-61000000D03*
X111006250Y-61000000D03*
X116006250Y-61000000D03*
X118506250Y-61000000D03*
X108506250Y-66000000D03*
X108506250Y-63500000D03*
X111006250Y-63500000D03*
X111006250Y-66000000D03*
X116006250Y-63500000D03*
X116006250Y-66000000D03*
X118506250Y-63500000D03*
X118506250Y-66000000D03*
%TD*%
D30*
%TO.C,S20*%
X151750000Y-142087500D03*
X151750000Y-165887500D03*
D20*
X153670000Y-153987500D03*
D21*
X154940000Y-151447500D03*
D22*
X158750000Y-153987500D03*
D21*
X161290000Y-148907500D03*
D20*
X163830000Y-153987500D03*
D22*
X166990000Y-142087500D03*
X166990000Y-165887500D03*
%TD*%
D20*
%TO.C,S14*%
X144780000Y-87312500D03*
D21*
X143510000Y-89852500D03*
D22*
X139700000Y-87312500D03*
D21*
X137160000Y-92392500D03*
D20*
X134620000Y-87312500D03*
%TD*%
D23*
%TO.C,SW4*%
X122793750Y-61000000D03*
X125293750Y-61000000D03*
X130293750Y-61000000D03*
X132793750Y-61000000D03*
X122793750Y-66000000D03*
X122793750Y-63500000D03*
X125293750Y-63500000D03*
X125293750Y-66000000D03*
X130293750Y-63500000D03*
X130293750Y-66000000D03*
X132793750Y-63500000D03*
X132793750Y-66000000D03*
%TD*%
D33*
%TO.C,BT1*%
X148500000Y-172500000D03*
X141000000Y-172500000D03*
%TD*%
D27*
%TO.C,J2*%
X92812500Y-131110000D03*
X92812500Y-133610000D03*
X92812500Y-136110000D03*
X92812500Y-138610000D03*
%TD*%
%TO.C,J1*%
X92812500Y-91230000D03*
X92812500Y-93730000D03*
X92812500Y-96230000D03*
X92812500Y-98730000D03*
%TD*%
%LPD*%
M02*
