%TF.GenerationSoftware,KiCad,Pcbnew,8.0.4*%
%TF.CreationDate,2024-10-24T20:47:50-05:00*%
%TF.ProjectId,numlocked_HUB,6e756d6c-6f63-46b6-9564-5f4855422e6b,rev?*%
%TF.SameCoordinates,Original*%
%TF.FileFunction,Copper,L4,Bot*%
%TF.FilePolarity,Positive*%
%FSLAX46Y46*%
G04 Gerber Fmt 4.6, Leading zero omitted, Abs format (unit mm)*
G04 Created by KiCad (PCBNEW 8.0.4) date 2024-10-24 20:47:50*
%MOMM*%
%LPD*%
G01*
G04 APERTURE LIST*
G04 Aperture macros list*
%AMRoundRect*
0 Rectangle with rounded corners*
0 $1 Rounding radius*
0 $2 $3 $4 $5 $6 $7 $8 $9 X,Y pos of 4 corners*
0 Add a 4 corners polygon primitive as box body*
4,1,4,$2,$3,$4,$5,$6,$7,$8,$9,$2,$3,0*
0 Add four circle primitives for the rounded corners*
1,1,$1+$1,$2,$3*
1,1,$1+$1,$4,$5*
1,1,$1+$1,$6,$7*
1,1,$1+$1,$8,$9*
0 Add four rect primitives between the rounded corners*
20,1,$1+$1,$2,$3,$4,$5,0*
20,1,$1+$1,$4,$5,$6,$7,0*
20,1,$1+$1,$6,$7,$8,$9,0*
20,1,$1+$1,$8,$9,$2,$3,0*%
G04 Aperture macros list end*
%TA.AperFunction,ComponentPad*%
%ADD10C,4.400000*%
%TD*%
%TA.AperFunction,ComponentPad*%
%ADD11O,1.000000X2.100000*%
%TD*%
%TA.AperFunction,ComponentPad*%
%ADD12O,1.000000X1.800000*%
%TD*%
%TA.AperFunction,ComponentPad*%
%ADD13R,1.508000X1.508000*%
%TD*%
%TA.AperFunction,ComponentPad*%
%ADD14C,1.508000*%
%TD*%
%TA.AperFunction,ComponentPad*%
%ADD15C,3.396000*%
%TD*%
%TA.AperFunction,ComponentPad*%
%ADD16RoundRect,0.377000X0.377000X0.377000X-0.377000X0.377000X-0.377000X-0.377000X0.377000X-0.377000X0*%
%TD*%
%TA.AperFunction,ComponentPad*%
%ADD17C,3.340000*%
%TD*%
%TA.AperFunction,ViaPad*%
%ADD18C,0.600000*%
%TD*%
%TA.AperFunction,ViaPad*%
%ADD19C,0.700000*%
%TD*%
%TA.AperFunction,Conductor*%
%ADD20C,0.500000*%
%TD*%
G04 APERTURE END LIST*
D10*
%TO.P,H3,1,1*%
%TO.N,GND*%
X92000000Y-42500000D03*
%TD*%
%TO.P,H6,1,1*%
%TO.N,GND*%
X92000000Y-71000000D03*
%TD*%
D11*
%TO.P,J1,SH1,SHELL_GND*%
%TO.N,GND*%
X180797500Y-44380000D03*
%TO.P,J1,SH2,SHELL_GND__1*%
X172157500Y-44380000D03*
D12*
%TO.P,J1,SH3,SHELL_GND__2*%
X180797500Y-40200000D03*
%TO.P,J1,SH4,SHELL_GND__3*%
X172157500Y-40200000D03*
%TD*%
D13*
%TO.P,J3,1,VCC*%
%TO.N,+5V*%
X133500000Y-50570000D03*
D14*
%TO.P,J3,2,D-*%
%TO.N,/USB_DOWN2_N*%
X131000000Y-50570000D03*
%TO.P,J3,3,D+*%
%TO.N,/USB_DOWN2_P*%
X129000000Y-50570000D03*
%TO.P,J3,4,GND*%
%TO.N,GND*%
X126500000Y-50570000D03*
D15*
%TO.P,J3,S1,SHIELD*%
X136570000Y-47860000D03*
%TO.P,J3,S2,SHIELD__1*%
X123430000Y-47860000D03*
%TD*%
D10*
%TO.P,H4,1,1*%
%TO.N,GND*%
X186000000Y-71000000D03*
%TD*%
D13*
%TO.P,J4,1,VCC*%
%TO.N,+5V*%
X108600000Y-50570000D03*
D14*
%TO.P,J4,2,D-*%
%TO.N,/USB_DOWN4_N*%
X106100000Y-50570000D03*
%TO.P,J4,3,D+*%
%TO.N,/USB_DOWN4_P*%
X104100000Y-50570000D03*
%TO.P,J4,4,GND*%
%TO.N,GND*%
X101600000Y-50570000D03*
D15*
%TO.P,J4,S1,SHIELD*%
X111670000Y-47860000D03*
%TO.P,J4,S2,SHIELD__1*%
X98530000Y-47860000D03*
%TD*%
D10*
%TO.P,H1,1,1*%
%TO.N,GND*%
X186000000Y-42500000D03*
%TD*%
%TO.P,H2,1,1*%
%TO.N,GND*%
X141300000Y-52400000D03*
%TD*%
%TO.P,H2,1,1*%
%TO.N,GND*%
X166000000Y-42500000D03*
%TD*%
D16*
%TO.P,J2,1,VCC*%
%TO.N,+5V*%
X155600000Y-43705000D03*
D14*
%TO.P,J2,2,D-*%
%TO.N,/USB_DOWN1_N*%
X153100000Y-43705000D03*
%TO.P,J2,3,D+*%
%TO.N,/USB_DOWN1_P*%
X151100000Y-43705000D03*
%TO.P,J2,4,GND*%
%TO.N,GND*%
X148600000Y-43705000D03*
D17*
%TO.P,J2,S1,SHIELD*%
X158670000Y-46415000D03*
%TO.P,J2,S2,SHIELD__1*%
X152100000Y-49915000D03*
%TO.P,J2,S3,SHIELD__2*%
X145530000Y-46415000D03*
%TD*%
D18*
%TO.N,GND*%
X154029677Y-65801303D03*
X152850000Y-65800000D03*
X154000000Y-64400000D03*
D19*
X117750000Y-57950000D03*
X159500000Y-64700000D03*
X166800000Y-61500000D03*
X161000000Y-55600000D03*
X92200000Y-59700000D03*
X119650000Y-57950000D03*
X175400000Y-66100000D03*
X92200000Y-55900000D03*
D18*
X178500000Y-49500000D03*
X186000000Y-60800000D03*
X171100000Y-67500000D03*
D19*
X175200000Y-62600000D03*
X103600000Y-43900000D03*
D18*
X171382417Y-72650000D03*
D19*
X166800000Y-63900000D03*
X162550000Y-55650000D03*
D18*
X186200000Y-55900000D03*
X186100000Y-65700000D03*
X164224008Y-73827830D03*
D19*
X162200000Y-48790000D03*
X165600000Y-62700000D03*
X126500000Y-48300000D03*
X168000000Y-62700000D03*
X165400000Y-53400000D03*
D18*
X183600000Y-60800000D03*
D19*
X92200000Y-57800000D03*
X168000000Y-61500000D03*
X159700000Y-59700000D03*
X148900000Y-66000000D03*
D18*
X165100000Y-57000000D03*
D19*
X168436999Y-56869581D03*
D18*
X163800000Y-65500000D03*
D19*
X165600000Y-63900000D03*
X171891637Y-56204519D03*
D18*
X166800011Y-69499989D03*
D19*
X105500000Y-43900000D03*
D18*
X167570487Y-70365000D03*
D19*
X101700000Y-43900000D03*
D18*
X164762767Y-66866989D03*
D19*
X170600000Y-48200000D03*
X115850000Y-57950000D03*
X126500000Y-52500000D03*
X163550000Y-47900000D03*
X161000000Y-49490000D03*
D18*
X166700000Y-72640274D03*
D19*
X128400000Y-48300000D03*
D18*
X175200000Y-60800000D03*
X181125000Y-49100000D03*
D19*
X101600000Y-52300000D03*
D18*
X175200000Y-59100000D03*
D19*
X165600000Y-61500000D03*
D18*
X173819879Y-64240783D03*
D19*
X130300000Y-48300000D03*
X168000000Y-63900000D03*
D18*
%TO.N,+5V*%
X178100000Y-55600000D03*
X171000000Y-73400000D03*
X175500000Y-55600000D03*
X170500000Y-69700000D03*
X164900000Y-73400000D03*
X174400000Y-68900000D03*
%TO.N,+3V3*%
X174400000Y-71600000D03*
X166700000Y-71840271D03*
X177550000Y-65350000D03*
X158500000Y-63100000D03*
X167100640Y-68724509D03*
X173500000Y-63500000D03*
X163973900Y-67000000D03*
X170052781Y-56608819D03*
X160000000Y-58100000D03*
%TD*%
D20*
%TO.N,+5V*%
X179800000Y-57300000D02*
X179800000Y-69000000D01*
X175400000Y-73400000D02*
X171000000Y-73400000D01*
X179800000Y-69000000D02*
X177685000Y-71115000D01*
X170500000Y-69700000D02*
X173600000Y-69700000D01*
X175500000Y-55600000D02*
X178100000Y-55600000D01*
X177685000Y-71115000D02*
X177150000Y-71650000D01*
X177685000Y-71115000D02*
X175400000Y-73400000D01*
X170990274Y-73390274D02*
X171000000Y-73400000D01*
X173600000Y-69700000D02*
X174400000Y-68900000D01*
X177150000Y-71650000D02*
X174400000Y-68900000D01*
X178100000Y-55600000D02*
X179800000Y-57300000D01*
X164900000Y-73400000D02*
X164909726Y-73390274D01*
X164909726Y-73390274D02*
X170990274Y-73390274D01*
%TO.N,+3V3*%
X166700000Y-71840271D02*
X163973900Y-69114171D01*
X174400000Y-71600000D02*
X168300000Y-71600000D01*
X163973900Y-69114171D02*
X163973900Y-67000000D01*
X168000000Y-71900000D02*
X168300000Y-71600000D01*
X177550000Y-65350000D02*
X176150000Y-65350000D01*
X166700000Y-71840271D02*
X166960658Y-71840271D01*
X168561600Y-58100000D02*
X170052781Y-56608819D01*
X173509217Y-63490783D02*
X173500000Y-63500000D01*
X168320487Y-69944356D02*
X167100640Y-68724509D01*
X168320487Y-71579513D02*
X168300000Y-71600000D01*
X158500000Y-63100000D02*
X158500000Y-59600000D01*
X167020387Y-71900000D02*
X168000000Y-71900000D01*
X174290783Y-63490783D02*
X173509217Y-63490783D01*
X168320487Y-69944356D02*
X168320487Y-71579513D01*
X158500000Y-59600000D02*
X160000000Y-58100000D01*
X166960658Y-71840271D02*
X167020387Y-71900000D01*
X176150000Y-65350000D02*
X174290783Y-63490783D01*
X160000000Y-58100000D02*
X168561600Y-58100000D01*
%TD*%
%TA.AperFunction,Conductor*%
%TO.N,GND*%
G36*
X171324070Y-39020185D02*
G01*
X171369825Y-39072989D01*
X171379769Y-39142147D01*
X171360133Y-39193391D01*
X171271314Y-39326316D01*
X171271307Y-39326328D01*
X171195930Y-39508306D01*
X171195927Y-39508318D01*
X171157500Y-39701504D01*
X171157500Y-39950000D01*
X171857500Y-39950000D01*
X171857500Y-40450000D01*
X171157500Y-40450000D01*
X171157500Y-40698495D01*
X171195927Y-40891681D01*
X171195930Y-40891693D01*
X171271307Y-41073671D01*
X171271314Y-41073684D01*
X171380748Y-41237462D01*
X171380751Y-41237466D01*
X171520033Y-41376748D01*
X171520037Y-41376751D01*
X171683815Y-41486185D01*
X171683828Y-41486192D01*
X171865808Y-41561569D01*
X171907500Y-41569862D01*
X171907500Y-40766988D01*
X171917440Y-40784205D01*
X171973295Y-40840060D01*
X172041704Y-40879556D01*
X172118004Y-40900000D01*
X172196996Y-40900000D01*
X172273296Y-40879556D01*
X172341705Y-40840060D01*
X172397560Y-40784205D01*
X172407500Y-40766988D01*
X172407500Y-41569862D01*
X172449190Y-41561569D01*
X172449192Y-41561569D01*
X172631171Y-41486192D01*
X172631184Y-41486185D01*
X172794962Y-41376751D01*
X172794966Y-41376748D01*
X172934248Y-41237466D01*
X172934251Y-41237462D01*
X173043685Y-41073684D01*
X173043692Y-41073671D01*
X173119069Y-40891693D01*
X173119072Y-40891681D01*
X173157499Y-40698495D01*
X173157500Y-40698492D01*
X173157500Y-40450000D01*
X172457500Y-40450000D01*
X172457500Y-39950000D01*
X173157500Y-39950000D01*
X173157500Y-39701508D01*
X173157499Y-39701504D01*
X173119072Y-39508318D01*
X173119069Y-39508306D01*
X173043692Y-39326328D01*
X173043685Y-39326316D01*
X172954867Y-39193391D01*
X172933989Y-39126714D01*
X172952473Y-39059334D01*
X173004452Y-39012643D01*
X173057969Y-39000500D01*
X179897031Y-39000500D01*
X179964070Y-39020185D01*
X180009825Y-39072989D01*
X180019769Y-39142147D01*
X180000133Y-39193391D01*
X179911314Y-39326316D01*
X179911307Y-39326328D01*
X179835930Y-39508306D01*
X179835927Y-39508318D01*
X179797500Y-39701504D01*
X179797500Y-39950000D01*
X180497500Y-39950000D01*
X180497500Y-40450000D01*
X179797500Y-40450000D01*
X179797500Y-40698495D01*
X179835927Y-40891681D01*
X179835930Y-40891693D01*
X179911307Y-41073671D01*
X179911314Y-41073684D01*
X180020748Y-41237462D01*
X180020751Y-41237466D01*
X180160033Y-41376748D01*
X180160037Y-41376751D01*
X180323815Y-41486185D01*
X180323828Y-41486192D01*
X180505808Y-41561569D01*
X180547500Y-41569862D01*
X180547500Y-40766988D01*
X180557440Y-40784205D01*
X180613295Y-40840060D01*
X180681704Y-40879556D01*
X180758004Y-40900000D01*
X180836996Y-40900000D01*
X180913296Y-40879556D01*
X180981705Y-40840060D01*
X181037560Y-40784205D01*
X181047500Y-40766988D01*
X181047500Y-41569862D01*
X181089190Y-41561569D01*
X181089192Y-41561569D01*
X181271171Y-41486192D01*
X181271184Y-41486185D01*
X181434962Y-41376751D01*
X181434966Y-41376748D01*
X181574248Y-41237466D01*
X181574251Y-41237462D01*
X181683685Y-41073684D01*
X181683692Y-41073671D01*
X181759069Y-40891693D01*
X181759072Y-40891681D01*
X181797499Y-40698495D01*
X181797500Y-40698492D01*
X181797500Y-40450000D01*
X181097500Y-40450000D01*
X181097500Y-39950000D01*
X181797500Y-39950000D01*
X181797500Y-39701508D01*
X181797499Y-39701504D01*
X181759072Y-39508318D01*
X181759069Y-39508306D01*
X181683692Y-39326328D01*
X181683685Y-39326316D01*
X181594867Y-39193391D01*
X181573989Y-39126714D01*
X181592473Y-39059334D01*
X181644452Y-39012643D01*
X181697969Y-39000500D01*
X187934108Y-39000500D01*
X187995572Y-39000500D01*
X188004418Y-39000816D01*
X188204561Y-39015130D01*
X188222063Y-39017647D01*
X188413797Y-39059355D01*
X188430755Y-39064334D01*
X188598000Y-39126714D01*
X188614609Y-39132909D01*
X188630701Y-39140259D01*
X188802904Y-39234288D01*
X188817784Y-39243849D01*
X188974867Y-39361441D01*
X188988237Y-39373027D01*
X189126972Y-39511762D01*
X189138558Y-39525132D01*
X189256146Y-39682210D01*
X189265711Y-39697095D01*
X189359740Y-39869298D01*
X189367090Y-39885390D01*
X189435662Y-40069236D01*
X189440646Y-40086212D01*
X189482351Y-40277931D01*
X189484869Y-40295442D01*
X189499184Y-40495580D01*
X189499500Y-40504427D01*
X189499500Y-72995572D01*
X189499184Y-73004419D01*
X189484869Y-73204557D01*
X189482351Y-73222068D01*
X189440646Y-73413787D01*
X189435662Y-73430763D01*
X189367090Y-73614609D01*
X189359740Y-73630701D01*
X189265711Y-73802904D01*
X189256146Y-73817789D01*
X189138558Y-73974867D01*
X189126972Y-73988237D01*
X188988237Y-74126972D01*
X188974867Y-74138558D01*
X188817789Y-74256146D01*
X188802904Y-74265711D01*
X188630701Y-74359740D01*
X188614609Y-74367090D01*
X188430763Y-74435662D01*
X188413787Y-74440646D01*
X188222068Y-74482351D01*
X188204557Y-74484869D01*
X188023779Y-74497799D01*
X188004417Y-74499184D01*
X187995572Y-74499500D01*
X90004428Y-74499500D01*
X89995582Y-74499184D01*
X89973622Y-74497613D01*
X89795442Y-74484869D01*
X89777931Y-74482351D01*
X89586212Y-74440646D01*
X89569236Y-74435662D01*
X89385390Y-74367090D01*
X89369298Y-74359740D01*
X89197095Y-74265711D01*
X89182210Y-74256146D01*
X89025132Y-74138558D01*
X89011762Y-74126972D01*
X88873027Y-73988237D01*
X88861441Y-73974867D01*
X88743849Y-73817784D01*
X88734288Y-73802904D01*
X88640259Y-73630701D01*
X88632909Y-73614609D01*
X88564334Y-73430755D01*
X88559355Y-73413797D01*
X88517647Y-73222063D01*
X88515130Y-73204556D01*
X88500816Y-73004418D01*
X88500500Y-72995572D01*
X88500500Y-71000000D01*
X89295065Y-71000000D01*
X89314786Y-71326038D01*
X89373667Y-71647341D01*
X89470835Y-71959164D01*
X89470839Y-71959175D01*
X89604897Y-72257041D01*
X89604898Y-72257043D01*
X89773881Y-72536576D01*
X89921476Y-72724968D01*
X91063708Y-71582736D01*
X91160967Y-71716602D01*
X91283398Y-71839033D01*
X91417262Y-71936290D01*
X90275030Y-73078522D01*
X90275030Y-73078523D01*
X90463423Y-73226118D01*
X90742956Y-73395101D01*
X90742958Y-73395102D01*
X91040824Y-73529160D01*
X91040835Y-73529164D01*
X91352658Y-73626332D01*
X91673961Y-73685213D01*
X92000000Y-73704934D01*
X92326038Y-73685213D01*
X92647341Y-73626332D01*
X92959164Y-73529164D01*
X92959175Y-73529160D01*
X93257041Y-73395102D01*
X93257043Y-73395101D01*
X93536586Y-73226112D01*
X93724968Y-73078523D01*
X93724968Y-73078522D01*
X92582737Y-71936290D01*
X92716602Y-71839033D01*
X92839033Y-71716602D01*
X92936290Y-71582737D01*
X94078522Y-72724968D01*
X94078523Y-72724968D01*
X94226112Y-72536586D01*
X94395101Y-72257043D01*
X94395102Y-72257041D01*
X94529160Y-71959175D01*
X94529164Y-71959164D01*
X94626332Y-71647341D01*
X94685213Y-71326038D01*
X94704934Y-71000000D01*
X94685213Y-70673961D01*
X94626332Y-70352658D01*
X94529164Y-70040835D01*
X94529160Y-70040824D01*
X94395102Y-69742958D01*
X94395101Y-69742956D01*
X94226118Y-69463423D01*
X94078522Y-69275030D01*
X92936290Y-70417262D01*
X92839033Y-70283398D01*
X92716602Y-70160967D01*
X92582736Y-70063709D01*
X93553762Y-69092682D01*
X145899500Y-69092682D01*
X145899500Y-69307317D01*
X145930044Y-69519764D01*
X145930047Y-69519774D01*
X145990517Y-69725715D01*
X146079672Y-69920938D01*
X146079679Y-69920951D01*
X146195720Y-70101514D01*
X146336275Y-70263724D01*
X146412550Y-70329816D01*
X146498487Y-70404281D01*
X146570406Y-70450500D01*
X146679048Y-70520320D01*
X146679061Y-70520327D01*
X146874284Y-70609482D01*
X146874288Y-70609483D01*
X146874290Y-70609484D01*
X147080231Y-70669954D01*
X147080232Y-70669954D01*
X147080235Y-70669955D01*
X147143584Y-70679062D01*
X147292682Y-70700500D01*
X147292683Y-70700500D01*
X156907317Y-70700500D01*
X156907318Y-70700500D01*
X157077851Y-70675980D01*
X157119764Y-70669955D01*
X157119765Y-70669954D01*
X157119769Y-70669954D01*
X157325710Y-70609484D01*
X157325713Y-70609482D01*
X157325715Y-70609482D01*
X157520938Y-70520327D01*
X157520944Y-70520323D01*
X157520950Y-70520321D01*
X157701513Y-70404281D01*
X157863724Y-70263724D01*
X158004281Y-70101513D01*
X158120321Y-69920950D01*
X158120323Y-69920944D01*
X158120327Y-69920938D01*
X158209482Y-69725715D01*
X158209482Y-69725713D01*
X158209484Y-69725710D01*
X158269954Y-69519769D01*
X158300500Y-69307318D01*
X158300500Y-69200000D01*
X158300500Y-69134108D01*
X158300500Y-69092682D01*
X158273338Y-68903764D01*
X158269955Y-68880235D01*
X158269952Y-68880225D01*
X158238727Y-68773881D01*
X158209484Y-68674290D01*
X158209483Y-68674288D01*
X158209482Y-68674284D01*
X158120327Y-68479061D01*
X158120320Y-68479048D01*
X158052596Y-68373667D01*
X158004281Y-68298487D01*
X157971172Y-68260277D01*
X157863724Y-68136275D01*
X157701514Y-67995720D01*
X157701513Y-67995719D01*
X157636991Y-67954253D01*
X157520951Y-67879679D01*
X157520938Y-67879672D01*
X157325715Y-67790517D01*
X157119774Y-67730047D01*
X157119764Y-67730044D01*
X156928754Y-67702582D01*
X156907318Y-67699500D01*
X156865892Y-67699500D01*
X147465892Y-67699500D01*
X147400000Y-67699500D01*
X147292682Y-67699500D01*
X147080235Y-67730044D01*
X147080225Y-67730047D01*
X146874284Y-67790517D01*
X146679061Y-67879672D01*
X146679048Y-67879679D01*
X146498485Y-67995720D01*
X146336275Y-68136275D01*
X146195720Y-68298485D01*
X146079679Y-68479048D01*
X146079672Y-68479061D01*
X145990517Y-68674284D01*
X145930047Y-68880225D01*
X145930044Y-68880235D01*
X145899500Y-69092682D01*
X93553762Y-69092682D01*
X93724968Y-68921476D01*
X93536576Y-68773881D01*
X93257043Y-68604898D01*
X93257041Y-68604897D01*
X92959175Y-68470839D01*
X92959164Y-68470835D01*
X92647341Y-68373667D01*
X92326038Y-68314786D01*
X92000000Y-68295065D01*
X91673961Y-68314786D01*
X91352658Y-68373667D01*
X91040835Y-68470835D01*
X91040824Y-68470839D01*
X90742958Y-68604897D01*
X90742956Y-68604898D01*
X90463422Y-68773881D01*
X90463416Y-68773886D01*
X90275030Y-68921474D01*
X90275029Y-68921476D01*
X91417262Y-70063709D01*
X91283398Y-70160967D01*
X91160967Y-70283398D01*
X91063709Y-70417262D01*
X89921476Y-69275029D01*
X89921474Y-69275030D01*
X89773886Y-69463416D01*
X89773881Y-69463422D01*
X89604898Y-69742956D01*
X89604897Y-69742958D01*
X89470839Y-70040824D01*
X89470835Y-70040835D01*
X89373667Y-70352658D01*
X89314786Y-70673961D01*
X89295065Y-71000000D01*
X88500500Y-71000000D01*
X88500500Y-66999996D01*
X163168335Y-66999996D01*
X163168335Y-67000003D01*
X163188530Y-67179249D01*
X163188531Y-67179254D01*
X163216442Y-67259017D01*
X163223400Y-67299972D01*
X163223400Y-69188089D01*
X163223400Y-69188091D01*
X163223399Y-69188091D01*
X163252240Y-69333078D01*
X163252243Y-69333088D01*
X163308813Y-69469661D01*
X163308814Y-69469662D01*
X163308816Y-69469666D01*
X163316447Y-69481086D01*
X163316448Y-69481089D01*
X163390946Y-69592585D01*
X163390952Y-69592592D01*
X165946692Y-72148330D01*
X165969358Y-72184396D01*
X165971188Y-72183515D01*
X165974209Y-72189789D01*
X165974211Y-72189793D01*
X166016466Y-72257041D01*
X166070184Y-72342533D01*
X166155744Y-72428093D01*
X166189229Y-72489416D01*
X166184245Y-72559108D01*
X166142373Y-72615041D01*
X166076909Y-72639458D01*
X166068063Y-72639774D01*
X165172176Y-72639774D01*
X165131221Y-72632815D01*
X165079262Y-72614633D01*
X165079249Y-72614630D01*
X164900004Y-72594435D01*
X164899996Y-72594435D01*
X164720750Y-72614630D01*
X164720745Y-72614631D01*
X164550476Y-72674211D01*
X164397737Y-72770184D01*
X164270184Y-72897737D01*
X164174211Y-73050476D01*
X164114631Y-73220745D01*
X164114630Y-73220750D01*
X164094435Y-73399996D01*
X164094435Y-73400003D01*
X164114630Y-73579249D01*
X164114631Y-73579254D01*
X164174211Y-73749523D01*
X164207753Y-73802904D01*
X164270184Y-73902262D01*
X164397738Y-74029816D01*
X164488080Y-74086582D01*
X164543903Y-74121658D01*
X164550478Y-74125789D01*
X164621098Y-74150500D01*
X164720745Y-74185368D01*
X164720750Y-74185369D01*
X164899996Y-74205565D01*
X164900000Y-74205565D01*
X164900004Y-74205565D01*
X165079246Y-74185369D01*
X165079245Y-74185369D01*
X165079255Y-74185368D01*
X165186809Y-74147732D01*
X165227764Y-74140774D01*
X170672236Y-74140774D01*
X170713190Y-74147732D01*
X170820745Y-74185368D01*
X170820751Y-74185368D01*
X170820753Y-74185369D01*
X170999996Y-74205565D01*
X171000000Y-74205565D01*
X171000004Y-74205565D01*
X171179249Y-74185369D01*
X171179252Y-74185368D01*
X171179255Y-74185368D01*
X171259017Y-74157457D01*
X171299972Y-74150500D01*
X175473920Y-74150500D01*
X175592198Y-74126972D01*
X175618913Y-74121658D01*
X175755495Y-74065084D01*
X175810826Y-74028113D01*
X175878416Y-73982952D01*
X178267952Y-71593416D01*
X178267952Y-71593415D01*
X178861367Y-71000000D01*
X183295065Y-71000000D01*
X183314786Y-71326038D01*
X183373667Y-71647341D01*
X183470835Y-71959164D01*
X183470839Y-71959175D01*
X183604897Y-72257041D01*
X183604898Y-72257043D01*
X183773881Y-72536576D01*
X183921476Y-72724968D01*
X185063708Y-71582736D01*
X185160967Y-71716602D01*
X185283398Y-71839033D01*
X185417262Y-71936290D01*
X184275030Y-73078522D01*
X184275030Y-73078523D01*
X184463423Y-73226118D01*
X184742956Y-73395101D01*
X184742958Y-73395102D01*
X185040824Y-73529160D01*
X185040835Y-73529164D01*
X185352658Y-73626332D01*
X185673961Y-73685213D01*
X186000000Y-73704934D01*
X186326038Y-73685213D01*
X186647341Y-73626332D01*
X186959164Y-73529164D01*
X186959175Y-73529160D01*
X187257041Y-73395102D01*
X187257043Y-73395101D01*
X187536586Y-73226112D01*
X187724968Y-73078523D01*
X187724968Y-73078522D01*
X186582737Y-71936290D01*
X186716602Y-71839033D01*
X186839033Y-71716602D01*
X186936290Y-71582737D01*
X188078522Y-72724968D01*
X188078523Y-72724968D01*
X188226112Y-72536586D01*
X188395101Y-72257043D01*
X188395102Y-72257041D01*
X188529160Y-71959175D01*
X188529164Y-71959164D01*
X188626332Y-71647341D01*
X188685213Y-71326038D01*
X188704934Y-71000000D01*
X188685213Y-70673961D01*
X188626332Y-70352658D01*
X188529164Y-70040835D01*
X188529160Y-70040824D01*
X188395102Y-69742958D01*
X188395101Y-69742956D01*
X188226118Y-69463423D01*
X188078522Y-69275030D01*
X186936290Y-70417262D01*
X186839033Y-70283398D01*
X186716602Y-70160967D01*
X186582736Y-70063709D01*
X187724968Y-68921476D01*
X187536576Y-68773881D01*
X187257043Y-68604898D01*
X187257041Y-68604897D01*
X186959175Y-68470839D01*
X186959164Y-68470835D01*
X186647341Y-68373667D01*
X186326038Y-68314786D01*
X186000000Y-68295065D01*
X185673961Y-68314786D01*
X185352658Y-68373667D01*
X185040835Y-68470835D01*
X185040824Y-68470839D01*
X184742958Y-68604897D01*
X184742956Y-68604898D01*
X184463422Y-68773881D01*
X184463416Y-68773886D01*
X184275030Y-68921474D01*
X184275029Y-68921476D01*
X185417262Y-70063709D01*
X185283398Y-70160967D01*
X185160967Y-70283398D01*
X185063709Y-70417262D01*
X183921476Y-69275029D01*
X183921474Y-69275030D01*
X183773886Y-69463416D01*
X183773881Y-69463422D01*
X183604898Y-69742956D01*
X183604897Y-69742958D01*
X183470839Y-70040824D01*
X183470835Y-70040835D01*
X183373667Y-70352658D01*
X183314786Y-70673961D01*
X183295065Y-71000000D01*
X178861367Y-71000000D01*
X180382952Y-69478415D01*
X180410205Y-69437627D01*
X180465084Y-69355495D01*
X180502199Y-69265892D01*
X180521659Y-69218912D01*
X180544763Y-69102759D01*
X180550500Y-69073918D01*
X180550500Y-57226082D01*
X180550500Y-57226079D01*
X180521659Y-57081092D01*
X180521658Y-57081091D01*
X180521658Y-57081087D01*
X180521656Y-57081082D01*
X180465086Y-56944509D01*
X180465085Y-56944507D01*
X180432186Y-56895270D01*
X180432185Y-56895268D01*
X180382956Y-56821589D01*
X180382952Y-56821584D01*
X178853307Y-55291939D01*
X178830653Y-55255869D01*
X178828813Y-55256756D01*
X178825792Y-55250484D01*
X178825789Y-55250480D01*
X178825789Y-55250478D01*
X178729816Y-55097738D01*
X178602262Y-54970184D01*
X178449523Y-54874211D01*
X178279254Y-54814631D01*
X178279249Y-54814630D01*
X178100004Y-54794435D01*
X178099996Y-54794435D01*
X177920750Y-54814630D01*
X177920745Y-54814631D01*
X177840983Y-54842542D01*
X177800028Y-54849500D01*
X175799972Y-54849500D01*
X175759017Y-54842542D01*
X175679254Y-54814631D01*
X175679249Y-54814630D01*
X175500004Y-54794435D01*
X175499996Y-54794435D01*
X175320750Y-54814630D01*
X175320745Y-54814631D01*
X175150476Y-54874211D01*
X174997737Y-54970184D01*
X174870184Y-55097737D01*
X174774211Y-55250476D01*
X174714631Y-55420745D01*
X174714630Y-55420750D01*
X174694435Y-55599996D01*
X174694435Y-55600003D01*
X174714630Y-55779249D01*
X174714631Y-55779254D01*
X174774211Y-55949523D01*
X174792735Y-55979003D01*
X174870184Y-56102262D01*
X174997738Y-56229816D01*
X175150478Y-56325789D01*
X175320745Y-56385368D01*
X175320750Y-56385369D01*
X175499996Y-56405565D01*
X175500000Y-56405565D01*
X175500004Y-56405565D01*
X175679249Y-56385369D01*
X175679252Y-56385368D01*
X175679255Y-56385368D01*
X175759017Y-56357457D01*
X175799972Y-56350500D01*
X177737770Y-56350500D01*
X177804809Y-56370185D01*
X177825451Y-56386819D01*
X179013181Y-57574549D01*
X179046666Y-57635872D01*
X179049500Y-57662230D01*
X179049500Y-68637769D01*
X179029815Y-68704808D01*
X179013181Y-68725450D01*
X177237680Y-70500950D01*
X177176357Y-70534435D01*
X177106665Y-70529451D01*
X177062318Y-70500950D01*
X176124265Y-69562897D01*
X175153305Y-68591937D01*
X175130656Y-68555864D01*
X175128812Y-68556753D01*
X175125792Y-68550483D01*
X175122510Y-68545259D01*
X175029816Y-68397738D01*
X174902262Y-68270184D01*
X174825971Y-68222247D01*
X174749523Y-68174211D01*
X174579254Y-68114631D01*
X174579249Y-68114630D01*
X174400004Y-68094435D01*
X174399996Y-68094435D01*
X174220750Y-68114630D01*
X174220745Y-68114631D01*
X174050476Y-68174211D01*
X173897737Y-68270184D01*
X173770184Y-68397737D01*
X173674211Y-68550478D01*
X173671188Y-68556756D01*
X173669362Y-68555876D01*
X173646693Y-68591937D01*
X173325449Y-68913182D01*
X173264128Y-68946666D01*
X173237770Y-68949500D01*
X170799972Y-68949500D01*
X170759017Y-68942542D01*
X170679254Y-68914631D01*
X170679249Y-68914630D01*
X170500004Y-68894435D01*
X170499996Y-68894435D01*
X170320750Y-68914630D01*
X170320745Y-68914631D01*
X170150476Y-68974211D01*
X169997737Y-69070184D01*
X169870184Y-69197737D01*
X169774211Y-69350476D01*
X169714631Y-69520745D01*
X169714630Y-69520750D01*
X169694435Y-69699996D01*
X169694435Y-69700003D01*
X169714630Y-69879249D01*
X169714631Y-69879254D01*
X169774211Y-70049523D01*
X169870184Y-70202262D01*
X169997738Y-70329816D01*
X170088080Y-70386582D01*
X170143903Y-70421658D01*
X170150478Y-70425789D01*
X170221098Y-70450500D01*
X170320745Y-70485368D01*
X170320750Y-70485369D01*
X170499996Y-70505565D01*
X170500000Y-70505565D01*
X170500004Y-70505565D01*
X170679249Y-70485369D01*
X170679252Y-70485368D01*
X170679255Y-70485368D01*
X170759017Y-70457457D01*
X170799972Y-70450500D01*
X173673920Y-70450500D01*
X173771462Y-70431096D01*
X173818913Y-70421658D01*
X173955495Y-70365084D01*
X174008277Y-70329816D01*
X174078416Y-70282952D01*
X174312320Y-70049046D01*
X174373641Y-70015563D01*
X174443333Y-70020547D01*
X174487681Y-70049048D01*
X176000951Y-71562318D01*
X176034436Y-71623641D01*
X176029452Y-71693333D01*
X176000951Y-71737680D01*
X175125451Y-72613181D01*
X175064128Y-72646666D01*
X175037770Y-72649500D01*
X174443043Y-72649500D01*
X174400101Y-72636890D01*
X174378351Y-72647640D01*
X174356957Y-72649500D01*
X171299972Y-72649500D01*
X171259017Y-72642542D01*
X171179254Y-72614631D01*
X171179249Y-72614630D01*
X171029160Y-72597720D01*
X171002633Y-72586573D01*
X170991892Y-72593477D01*
X170970840Y-72597720D01*
X170820750Y-72614630D01*
X170820737Y-72614633D01*
X170768779Y-72632815D01*
X170727824Y-72639774D01*
X168620956Y-72639774D01*
X168553917Y-72620089D01*
X168508162Y-72567285D01*
X168498218Y-72498127D01*
X168527243Y-72434571D01*
X168533275Y-72428093D01*
X168574549Y-72386819D01*
X168635872Y-72353334D01*
X168662230Y-72350500D01*
X170956957Y-72350500D01*
X170999898Y-72363109D01*
X171021649Y-72352360D01*
X171043043Y-72350500D01*
X174100028Y-72350500D01*
X174140982Y-72357457D01*
X174220745Y-72385368D01*
X174220750Y-72385369D01*
X174370840Y-72402280D01*
X174397366Y-72413426D01*
X174408108Y-72406523D01*
X174429160Y-72402280D01*
X174579249Y-72385369D01*
X174579252Y-72385368D01*
X174579255Y-72385368D01*
X174749522Y-72325789D01*
X174902262Y-72229816D01*
X175029816Y-72102262D01*
X175125789Y-71949522D01*
X175185368Y-71779255D01*
X175185369Y-71779249D01*
X175205565Y-71600003D01*
X175205565Y-71599996D01*
X175185369Y-71420750D01*
X175185368Y-71420745D01*
X175125789Y-71250478D01*
X175029816Y-71097738D01*
X174902262Y-70970184D01*
X174749523Y-70874211D01*
X174579254Y-70814631D01*
X174579249Y-70814630D01*
X174400004Y-70794435D01*
X174399996Y-70794435D01*
X174220750Y-70814630D01*
X174220745Y-70814631D01*
X174140983Y-70842542D01*
X174100028Y-70849500D01*
X169194987Y-70849500D01*
X169127948Y-70829815D01*
X169082193Y-70777011D01*
X169070987Y-70725500D01*
X169070987Y-69870435D01*
X169042146Y-69725448D01*
X169042145Y-69725447D01*
X169042145Y-69725443D01*
X169042143Y-69725438D01*
X168985574Y-69588867D01*
X168985567Y-69588854D01*
X168903439Y-69465941D01*
X168854223Y-69416725D01*
X168798903Y-69361405D01*
X168331933Y-68894435D01*
X167853948Y-68416449D01*
X167831283Y-68380379D01*
X167829452Y-68381262D01*
X167826432Y-68374992D01*
X167826428Y-68374985D01*
X167730456Y-68222247D01*
X167602902Y-68094693D01*
X167602491Y-68094435D01*
X167450163Y-67998720D01*
X167279894Y-67939140D01*
X167279889Y-67939139D01*
X167100644Y-67918944D01*
X167100636Y-67918944D01*
X166921390Y-67939139D01*
X166921385Y-67939140D01*
X166751116Y-67998720D01*
X166598377Y-68094693D01*
X166470824Y-68222246D01*
X166374851Y-68374985D01*
X166315271Y-68545254D01*
X166315270Y-68545259D01*
X166295075Y-68724505D01*
X166295075Y-68724512D01*
X166315270Y-68903758D01*
X166315271Y-68903763D01*
X166374851Y-69074032D01*
X166412600Y-69134108D01*
X166470824Y-69226771D01*
X166598378Y-69354325D01*
X166730960Y-69437632D01*
X166751123Y-69450301D01*
X166757393Y-69453321D01*
X166756510Y-69455152D01*
X166792580Y-69477817D01*
X167533668Y-70218904D01*
X167567153Y-70280227D01*
X167569987Y-70306585D01*
X167569987Y-71025500D01*
X167550302Y-71092539D01*
X167497498Y-71138294D01*
X167445987Y-71149500D01*
X167278804Y-71149500D01*
X167231352Y-71140061D01*
X167179575Y-71118614D01*
X167179565Y-71118611D01*
X167041870Y-71091221D01*
X166979959Y-71058836D01*
X166978381Y-71057285D01*
X164760719Y-68839622D01*
X164727234Y-68778299D01*
X164724400Y-68751941D01*
X164724400Y-67299972D01*
X164731358Y-67259017D01*
X164759268Y-67179254D01*
X164759269Y-67179249D01*
X164779465Y-67000003D01*
X164779465Y-66999996D01*
X164759269Y-66820750D01*
X164759268Y-66820745D01*
X164699688Y-66650476D01*
X164603715Y-66497737D01*
X164476162Y-66370184D01*
X164323423Y-66274211D01*
X164153154Y-66214631D01*
X164153149Y-66214630D01*
X163973904Y-66194435D01*
X163973896Y-66194435D01*
X163794650Y-66214630D01*
X163794645Y-66214631D01*
X163624376Y-66274211D01*
X163471637Y-66370184D01*
X163344084Y-66497737D01*
X163248111Y-66650476D01*
X163188531Y-66820745D01*
X163188530Y-66820750D01*
X163168335Y-66999996D01*
X88500500Y-66999996D01*
X88500500Y-63099996D01*
X157694435Y-63099996D01*
X157694435Y-63100003D01*
X157714630Y-63279249D01*
X157714631Y-63279254D01*
X157774211Y-63449523D01*
X157805926Y-63499996D01*
X157870184Y-63602262D01*
X157997738Y-63729816D01*
X158150478Y-63825789D01*
X158218306Y-63849523D01*
X158320745Y-63885368D01*
X158320750Y-63885369D01*
X158499996Y-63905565D01*
X158500000Y-63905565D01*
X158500004Y-63905565D01*
X158679249Y-63885369D01*
X158679252Y-63885368D01*
X158679255Y-63885368D01*
X158849522Y-63825789D01*
X159002262Y-63729816D01*
X159129816Y-63602262D01*
X159194074Y-63499996D01*
X172694435Y-63499996D01*
X172694435Y-63500003D01*
X172714630Y-63679249D01*
X172714631Y-63679254D01*
X172774211Y-63849523D01*
X172796735Y-63885369D01*
X172870184Y-64002262D01*
X172997738Y-64129816D01*
X173150478Y-64225789D01*
X173300806Y-64278391D01*
X173320745Y-64285368D01*
X173320750Y-64285369D01*
X173499997Y-64305565D01*
X173500000Y-64305565D01*
X173532158Y-64301940D01*
X173551520Y-64301282D01*
X173552636Y-64301331D01*
X173562611Y-64301772D01*
X173641561Y-64293956D01*
X173757913Y-64268328D01*
X173763085Y-64266528D01*
X173773696Y-64261362D01*
X173793014Y-64253882D01*
X173795100Y-64253269D01*
X173853422Y-64250459D01*
X173895771Y-64258583D01*
X173895778Y-64258583D01*
X173895780Y-64258584D01*
X173900229Y-64259001D01*
X173945830Y-64258882D01*
X174012918Y-64278391D01*
X174033832Y-64295200D01*
X175671586Y-65932954D01*
X175699639Y-65951697D01*
X175741723Y-65979816D01*
X175794505Y-66015084D01*
X175794507Y-66015085D01*
X175794511Y-66015087D01*
X175931082Y-66071656D01*
X175931087Y-66071658D01*
X175931091Y-66071658D01*
X175931092Y-66071659D01*
X176076079Y-66100500D01*
X176076082Y-66100500D01*
X176076083Y-66100500D01*
X176223917Y-66100500D01*
X176886637Y-66100500D01*
X176914409Y-66103650D01*
X176918749Y-66104648D01*
X177495391Y-66152701D01*
X177515718Y-66153983D01*
X177516651Y-66154023D01*
X177516652Y-66154022D01*
X177516653Y-66154023D01*
X177517297Y-66154003D01*
X177523264Y-66153821D01*
X177540927Y-66154542D01*
X177550000Y-66155565D01*
X177576085Y-66152625D01*
X177586164Y-66151906D01*
X177590640Y-66151770D01*
X177590648Y-66151767D01*
X177594758Y-66151195D01*
X177604572Y-66149415D01*
X177664614Y-66142650D01*
X177729249Y-66135369D01*
X177729252Y-66135368D01*
X177729255Y-66135368D01*
X177899522Y-66075789D01*
X178052262Y-65979816D01*
X178179816Y-65852262D01*
X178275789Y-65699522D01*
X178335368Y-65529255D01*
X178355565Y-65350000D01*
X178335368Y-65170745D01*
X178275789Y-65000478D01*
X178179816Y-64847738D01*
X178052262Y-64720184D01*
X177899523Y-64624211D01*
X177729254Y-64564631D01*
X177729249Y-64564630D01*
X177550004Y-64544435D01*
X177550002Y-64544435D01*
X177550000Y-64544435D01*
X177535285Y-64546092D01*
X177525080Y-64547242D01*
X177503817Y-64547800D01*
X177501190Y-64547644D01*
X177495393Y-64547298D01*
X177495392Y-64547298D01*
X177495391Y-64547298D01*
X177390545Y-64556035D01*
X176918727Y-64595353D01*
X176890283Y-64598667D01*
X176875937Y-64599500D01*
X176512230Y-64599500D01*
X176445191Y-64579815D01*
X176424549Y-64563181D01*
X174769204Y-62907835D01*
X174769197Y-62907829D01*
X174681998Y-62849565D01*
X174681899Y-62849500D01*
X174646278Y-62825699D01*
X174646277Y-62825698D01*
X174646275Y-62825697D01*
X174509700Y-62769126D01*
X174509690Y-62769123D01*
X174364703Y-62740283D01*
X174364701Y-62740283D01*
X174156134Y-62740283D01*
X174130180Y-62737536D01*
X174128659Y-62737210D01*
X174121652Y-62735710D01*
X174121641Y-62735709D01*
X173546836Y-62696519D01*
X173529875Y-62695648D01*
X173529262Y-62695627D01*
X173529141Y-62695623D01*
X173529140Y-62695623D01*
X173529139Y-62695623D01*
X173524022Y-62695800D01*
X173505860Y-62695095D01*
X173500000Y-62694435D01*
X173499999Y-62694435D01*
X173499998Y-62694435D01*
X173499997Y-62694435D01*
X173476625Y-62697067D01*
X173467052Y-62697771D01*
X173459365Y-62698037D01*
X173457487Y-62698303D01*
X173444060Y-62700737D01*
X173320750Y-62714630D01*
X173150478Y-62774210D01*
X172997737Y-62870184D01*
X172870184Y-62997737D01*
X172774211Y-63150476D01*
X172714631Y-63320745D01*
X172714630Y-63320750D01*
X172694435Y-63499996D01*
X159194074Y-63499996D01*
X159225789Y-63449522D01*
X159285368Y-63279255D01*
X159305565Y-63100000D01*
X159285368Y-62920745D01*
X159257458Y-62840982D01*
X159250500Y-62800028D01*
X159250500Y-59962229D01*
X159270185Y-59895190D01*
X159286819Y-59874548D01*
X160274548Y-58886819D01*
X160335871Y-58853334D01*
X160362229Y-58850500D01*
X168635520Y-58850500D01*
X168733062Y-58831096D01*
X168780513Y-58821658D01*
X168917095Y-58765084D01*
X168969877Y-58729816D01*
X169040016Y-58682952D01*
X170360840Y-57362125D01*
X170396913Y-57339476D01*
X170396025Y-57337632D01*
X170402296Y-57334611D01*
X170402297Y-57334609D01*
X170402303Y-57334608D01*
X170555043Y-57238635D01*
X170682597Y-57111081D01*
X170778570Y-56958341D01*
X170838149Y-56788074D01*
X170858346Y-56608819D01*
X170838149Y-56429564D01*
X170778570Y-56259297D01*
X170682597Y-56106557D01*
X170555043Y-55979003D01*
X170508126Y-55949523D01*
X170402304Y-55883030D01*
X170232035Y-55823450D01*
X170232030Y-55823449D01*
X170052785Y-55803254D01*
X170052777Y-55803254D01*
X169873531Y-55823449D01*
X169873526Y-55823450D01*
X169703257Y-55883030D01*
X169550518Y-55979003D01*
X169422965Y-56106556D01*
X169326989Y-56259302D01*
X169323967Y-56265577D01*
X169322142Y-56264697D01*
X169299473Y-56300758D01*
X168287051Y-57313181D01*
X168225728Y-57346666D01*
X168199370Y-57349500D01*
X160299972Y-57349500D01*
X160259017Y-57342542D01*
X160179254Y-57314631D01*
X160179249Y-57314630D01*
X160000004Y-57294435D01*
X159999996Y-57294435D01*
X159820750Y-57314630D01*
X159820745Y-57314631D01*
X159650476Y-57374211D01*
X159497737Y-57470184D01*
X159370184Y-57597737D01*
X159274208Y-57750483D01*
X159271186Y-57756758D01*
X159269361Y-57755878D01*
X159246692Y-57791939D01*
X157917050Y-59121580D01*
X157917044Y-59121588D01*
X157867812Y-59195268D01*
X157867813Y-59195269D01*
X157834921Y-59244496D01*
X157834914Y-59244508D01*
X157778342Y-59381086D01*
X157778340Y-59381092D01*
X157749500Y-59526079D01*
X157749500Y-62800028D01*
X157742542Y-62840982D01*
X157714631Y-62920747D01*
X157694435Y-63099996D01*
X88500500Y-63099996D01*
X88500500Y-52400000D01*
X138595065Y-52400000D01*
X138614786Y-52726038D01*
X138673667Y-53047341D01*
X138770835Y-53359164D01*
X138770839Y-53359175D01*
X138904897Y-53657041D01*
X138904898Y-53657043D01*
X139073881Y-53936576D01*
X139221476Y-54124968D01*
X140363708Y-52982736D01*
X140460967Y-53116602D01*
X140583398Y-53239033D01*
X140717262Y-53336290D01*
X139575030Y-54478522D01*
X139575030Y-54478523D01*
X139763423Y-54626118D01*
X140042956Y-54795101D01*
X140042958Y-54795102D01*
X140340824Y-54929160D01*
X140340835Y-54929164D01*
X140652658Y-55026332D01*
X140973961Y-55085213D01*
X141300000Y-55104934D01*
X141626038Y-55085213D01*
X141947341Y-55026332D01*
X142259164Y-54929164D01*
X142259175Y-54929160D01*
X142557041Y-54795102D01*
X142557043Y-54795101D01*
X142836586Y-54626112D01*
X143024968Y-54478523D01*
X143024968Y-54478522D01*
X141882737Y-53336290D01*
X142016602Y-53239033D01*
X142139033Y-53116602D01*
X142236290Y-52982736D01*
X143378522Y-54124968D01*
X143378523Y-54124968D01*
X143526112Y-53936586D01*
X143695101Y-53657043D01*
X143695102Y-53657041D01*
X143829160Y-53359175D01*
X143829164Y-53359164D01*
X143926332Y-53047341D01*
X143985213Y-52726038D01*
X144004934Y-52400000D01*
X143985213Y-52073961D01*
X143926332Y-51752658D01*
X143829164Y-51440835D01*
X143829160Y-51440824D01*
X143695102Y-51142958D01*
X143695101Y-51142956D01*
X143526118Y-50863423D01*
X143378522Y-50675030D01*
X142236290Y-51817261D01*
X142139033Y-51683398D01*
X142016602Y-51560967D01*
X141882736Y-51463709D01*
X143024968Y-50321476D01*
X142836576Y-50173881D01*
X142557043Y-50004898D01*
X142557041Y-50004897D01*
X142357297Y-49915000D01*
X149924929Y-49915000D01*
X149945187Y-50211172D01*
X149945188Y-50211174D01*
X150005583Y-50501812D01*
X150005588Y-50501831D01*
X150104999Y-50781549D01*
X150241577Y-51045133D01*
X150241581Y-51045139D01*
X150396639Y-51264805D01*
X150396640Y-51264806D01*
X151113593Y-50547852D01*
X151207574Y-50677204D01*
X151337796Y-50807426D01*
X151467146Y-50901405D01*
X150752439Y-51616111D01*
X150845682Y-51691970D01*
X151099327Y-51846214D01*
X151371611Y-51964483D01*
X151657462Y-52044575D01*
X151657469Y-52044576D01*
X151951567Y-52085000D01*
X152248433Y-52085000D01*
X152542530Y-52044576D01*
X152542537Y-52044575D01*
X152828388Y-51964483D01*
X153100672Y-51846214D01*
X153354314Y-51691972D01*
X153354329Y-51691962D01*
X153447558Y-51616111D01*
X152732852Y-50901405D01*
X152862204Y-50807426D01*
X152992426Y-50677204D01*
X153086405Y-50547852D01*
X153803358Y-51264805D01*
X153803359Y-51264805D01*
X153958422Y-51045132D01*
X154095000Y-50781549D01*
X154194411Y-50501831D01*
X154194416Y-50501812D01*
X154254811Y-50211174D01*
X154254812Y-50211172D01*
X154275070Y-49915000D01*
X154254812Y-49618827D01*
X154254811Y-49618825D01*
X154194416Y-49328187D01*
X154194411Y-49328168D01*
X154095000Y-49048450D01*
X153958422Y-48784867D01*
X153803358Y-48565193D01*
X153086405Y-49282146D01*
X152992426Y-49152796D01*
X152862204Y-49022574D01*
X152732852Y-48928594D01*
X153447559Y-48213887D01*
X153354326Y-48138037D01*
X153354313Y-48138027D01*
X153100672Y-47983785D01*
X152828388Y-47865516D01*
X152542537Y-47785424D01*
X152542530Y-47785423D01*
X152248433Y-47745000D01*
X151951567Y-47745000D01*
X151657469Y-47785423D01*
X151657462Y-47785424D01*
X151371611Y-47865516D01*
X151099327Y-47983785D01*
X150845681Y-48138031D01*
X150845668Y-48138039D01*
X150752439Y-48213886D01*
X150752439Y-48213887D01*
X151467147Y-48928594D01*
X151337796Y-49022574D01*
X151207574Y-49152796D01*
X151113594Y-49282146D01*
X150396640Y-48565192D01*
X150396639Y-48565192D01*
X150241581Y-48784860D01*
X150241577Y-48784866D01*
X150104999Y-49048450D01*
X150005588Y-49328168D01*
X150005583Y-49328187D01*
X149945188Y-49618825D01*
X149945187Y-49618827D01*
X149924929Y-49915000D01*
X142357297Y-49915000D01*
X142259175Y-49870839D01*
X142259164Y-49870835D01*
X141947341Y-49773667D01*
X141626038Y-49714786D01*
X141300000Y-49695065D01*
X140973961Y-49714786D01*
X140652658Y-49773667D01*
X140340835Y-49870835D01*
X140340824Y-49870839D01*
X140042958Y-50004897D01*
X140042956Y-50004898D01*
X139763422Y-50173881D01*
X139763416Y-50173886D01*
X139575030Y-50321474D01*
X139575029Y-50321476D01*
X140717262Y-51463709D01*
X140583398Y-51560967D01*
X140460967Y-51683398D01*
X140363709Y-51817262D01*
X139221476Y-50675029D01*
X139221474Y-50675030D01*
X139073886Y-50863416D01*
X139073881Y-50863422D01*
X138904898Y-51142956D01*
X138904897Y-51142958D01*
X138770839Y-51440824D01*
X138770835Y-51440835D01*
X138673667Y-51752658D01*
X138614786Y-52073961D01*
X138595065Y-52400000D01*
X88500500Y-52400000D01*
X88500500Y-50569999D01*
X100341210Y-50569999D01*
X100341210Y-50570000D01*
X100360333Y-50788582D01*
X100360335Y-50788592D01*
X100417121Y-51000524D01*
X100417125Y-51000533D01*
X100509854Y-51199392D01*
X100554003Y-51262443D01*
X101117037Y-50699409D01*
X101134075Y-50762993D01*
X101199901Y-50877007D01*
X101292993Y-50970099D01*
X101407007Y-51035925D01*
X101470590Y-51052962D01*
X100907555Y-51615996D01*
X100970601Y-51660142D01*
X100970605Y-51660144D01*
X101169466Y-51752874D01*
X101169475Y-51752878D01*
X101381407Y-51809664D01*
X101381417Y-51809666D01*
X101599999Y-51828790D01*
X101600001Y-51828790D01*
X101818582Y-51809666D01*
X101818592Y-51809664D01*
X102030524Y-51752878D01*
X102030533Y-51752874D01*
X102229392Y-51660145D01*
X102292443Y-51615995D01*
X101729410Y-51052962D01*
X101792993Y-51035925D01*
X101907007Y-50970099D01*
X102000099Y-50877007D01*
X102065925Y-50762993D01*
X102082962Y-50699409D01*
X102645995Y-51262442D01*
X102690146Y-51199390D01*
X102737342Y-51098179D01*
X102783514Y-51045739D01*
X102850707Y-51026587D01*
X102917589Y-51046802D01*
X102962106Y-51098178D01*
X103009421Y-51199646D01*
X103009423Y-51199650D01*
X103135322Y-51379452D01*
X103135327Y-51379458D01*
X103290541Y-51534672D01*
X103290547Y-51534677D01*
X103470349Y-51660576D01*
X103470351Y-51660577D01*
X103470354Y-51660579D01*
X103669297Y-51753347D01*
X103881326Y-51810161D01*
X104033510Y-51823475D01*
X104099998Y-51829292D01*
X104100000Y-51829292D01*
X104100002Y-51829292D01*
X104166490Y-51823475D01*
X104318674Y-51810161D01*
X104530703Y-51753347D01*
X104729646Y-51660579D01*
X104909457Y-51534674D01*
X105012319Y-51431812D01*
X105073642Y-51398327D01*
X105143334Y-51403311D01*
X105187681Y-51431812D01*
X105290541Y-51534672D01*
X105290547Y-51534677D01*
X105470349Y-51660576D01*
X105470351Y-51660577D01*
X105470354Y-51660579D01*
X105669297Y-51753347D01*
X105881326Y-51810161D01*
X106033510Y-51823475D01*
X106099998Y-51829292D01*
X106100000Y-51829292D01*
X106100002Y-51829292D01*
X106166490Y-51823475D01*
X106318674Y-51810161D01*
X106530703Y-51753347D01*
X106729646Y-51660579D01*
X106909457Y-51534674D01*
X107064674Y-51379457D01*
X107119926Y-51300547D01*
X107174501Y-51256924D01*
X107243999Y-51249730D01*
X107306354Y-51281252D01*
X107341769Y-51341481D01*
X107345120Y-51368573D01*
X107345146Y-51368571D01*
X107345146Y-51368573D01*
X107345324Y-51368564D01*
X107345479Y-51371473D01*
X107345500Y-51371637D01*
X107345500Y-51371852D01*
X107345501Y-51371876D01*
X107351908Y-51431483D01*
X107402202Y-51566328D01*
X107402206Y-51566335D01*
X107488452Y-51681544D01*
X107488455Y-51681547D01*
X107603664Y-51767793D01*
X107603671Y-51767797D01*
X107738517Y-51818091D01*
X107738516Y-51818091D01*
X107745444Y-51818835D01*
X107798127Y-51824500D01*
X109401872Y-51824499D01*
X109461483Y-51818091D01*
X109596331Y-51767796D01*
X109711546Y-51681546D01*
X109797796Y-51566331D01*
X109848091Y-51431483D01*
X109854500Y-51371873D01*
X109854499Y-50569999D01*
X125241210Y-50569999D01*
X125241210Y-50570000D01*
X125260333Y-50788582D01*
X125260335Y-50788592D01*
X125317121Y-51000524D01*
X125317125Y-51000533D01*
X125409854Y-51199392D01*
X125454003Y-51262443D01*
X126017037Y-50699409D01*
X126034075Y-50762993D01*
X126099901Y-50877007D01*
X126192993Y-50970099D01*
X126307007Y-51035925D01*
X126370590Y-51052962D01*
X125807555Y-51615996D01*
X125870601Y-51660142D01*
X125870605Y-51660144D01*
X126069466Y-51752874D01*
X126069475Y-51752878D01*
X126281407Y-51809664D01*
X126281417Y-51809666D01*
X126499999Y-51828790D01*
X126500001Y-51828790D01*
X126718582Y-51809666D01*
X126718592Y-51809664D01*
X126930524Y-51752878D01*
X126930533Y-51752874D01*
X127129392Y-51660145D01*
X127192443Y-51615995D01*
X126629410Y-51052962D01*
X126692993Y-51035925D01*
X126807007Y-50970099D01*
X126900099Y-50877007D01*
X126965925Y-50762993D01*
X126982962Y-50699409D01*
X127545995Y-51262442D01*
X127590146Y-51199390D01*
X127637342Y-51098179D01*
X127683514Y-51045739D01*
X127750707Y-51026587D01*
X127817589Y-51046802D01*
X127862106Y-51098178D01*
X127909421Y-51199646D01*
X127909423Y-51199650D01*
X128035322Y-51379452D01*
X128035327Y-51379458D01*
X128190541Y-51534672D01*
X128190547Y-51534677D01*
X128370349Y-51660576D01*
X128370351Y-51660577D01*
X128370354Y-51660579D01*
X128569297Y-51753347D01*
X128781326Y-51810161D01*
X128933510Y-51823475D01*
X128999998Y-51829292D01*
X129000000Y-51829292D01*
X129000002Y-51829292D01*
X129066490Y-51823475D01*
X129218674Y-51810161D01*
X129430703Y-51753347D01*
X129629646Y-51660579D01*
X129809457Y-51534674D01*
X129912319Y-51431812D01*
X129973642Y-51398327D01*
X130043334Y-51403311D01*
X130087681Y-51431812D01*
X130190541Y-51534672D01*
X130190547Y-51534677D01*
X130370349Y-51660576D01*
X130370351Y-51660577D01*
X130370354Y-51660579D01*
X130569297Y-51753347D01*
X130781326Y-51810161D01*
X130933510Y-51823475D01*
X130999998Y-51829292D01*
X131000000Y-51829292D01*
X131000002Y-51829292D01*
X131066490Y-51823475D01*
X131218674Y-51810161D01*
X131430703Y-51753347D01*
X131629646Y-51660579D01*
X131809457Y-51534674D01*
X131964674Y-51379457D01*
X132019926Y-51300547D01*
X132074501Y-51256924D01*
X132143999Y-51249730D01*
X132206354Y-51281252D01*
X132241769Y-51341481D01*
X132245120Y-51368573D01*
X132245146Y-51368571D01*
X132245146Y-51368573D01*
X132245324Y-51368564D01*
X132245479Y-51371473D01*
X132245500Y-51371637D01*
X132245500Y-51371852D01*
X132245501Y-51371876D01*
X132251908Y-51431483D01*
X132302202Y-51566328D01*
X132302206Y-51566335D01*
X132388452Y-51681544D01*
X132388455Y-51681547D01*
X132503664Y-51767793D01*
X132503671Y-51767797D01*
X132638517Y-51818091D01*
X132638516Y-51818091D01*
X132645444Y-51818835D01*
X132698127Y-51824500D01*
X134301872Y-51824499D01*
X134361483Y-51818091D01*
X134496331Y-51767796D01*
X134611546Y-51681546D01*
X134697796Y-51566331D01*
X134748091Y-51431483D01*
X134754500Y-51371873D01*
X134754499Y-49768128D01*
X134748091Y-49708517D01*
X134747968Y-49708188D01*
X134697797Y-49573671D01*
X134697793Y-49573664D01*
X134611547Y-49458455D01*
X134611544Y-49458452D01*
X134496335Y-49372206D01*
X134496328Y-49372202D01*
X134361482Y-49321908D01*
X134361483Y-49321908D01*
X134301883Y-49315501D01*
X134301881Y-49315500D01*
X134301873Y-49315500D01*
X134301864Y-49315500D01*
X132698129Y-49315500D01*
X132698123Y-49315501D01*
X132638516Y-49321908D01*
X132503671Y-49372202D01*
X132503664Y-49372206D01*
X132388455Y-49458452D01*
X132388452Y-49458455D01*
X132302206Y-49573664D01*
X132302202Y-49573671D01*
X132251908Y-49708517D01*
X132246315Y-49760543D01*
X132245501Y-49768123D01*
X132245500Y-49768135D01*
X132245500Y-49768326D01*
X132245487Y-49768368D01*
X132245322Y-49771452D01*
X132244593Y-49771412D01*
X132225815Y-49835365D01*
X132173011Y-49881120D01*
X132103853Y-49891064D01*
X132040297Y-49862039D01*
X132019925Y-49839449D01*
X131994353Y-49802929D01*
X131964674Y-49760543D01*
X131809457Y-49605326D01*
X131809455Y-49605325D01*
X131809452Y-49605322D01*
X131629650Y-49479423D01*
X131629642Y-49479419D01*
X131430708Y-49386655D01*
X131430706Y-49386654D01*
X131430703Y-49386653D01*
X131279885Y-49346240D01*
X131218675Y-49329839D01*
X131218668Y-49329838D01*
X131000002Y-49310708D01*
X130999998Y-49310708D01*
X130781331Y-49329838D01*
X130781324Y-49329839D01*
X130658902Y-49362642D01*
X130569297Y-49386653D01*
X130569295Y-49386653D01*
X130569291Y-49386655D01*
X130370357Y-49479419D01*
X130370349Y-49479423D01*
X130190547Y-49605322D01*
X130190541Y-49605327D01*
X130087681Y-49708188D01*
X130026358Y-49741673D01*
X129956666Y-49736689D01*
X129912319Y-49708188D01*
X129809458Y-49605327D01*
X129809452Y-49605322D01*
X129629650Y-49479423D01*
X129629642Y-49479419D01*
X129430708Y-49386655D01*
X129430706Y-49386654D01*
X129430703Y-49386653D01*
X129279885Y-49346240D01*
X129218675Y-49329839D01*
X129218668Y-49329838D01*
X129000002Y-49310708D01*
X128999998Y-49310708D01*
X128781331Y-49329838D01*
X128781324Y-49329839D01*
X128658902Y-49362642D01*
X128569297Y-49386653D01*
X128569295Y-49386653D01*
X128569291Y-49386655D01*
X128370357Y-49479419D01*
X128370349Y-49479423D01*
X128190547Y-49605322D01*
X128190541Y-49605327D01*
X128035327Y-49760541D01*
X128035322Y-49760547D01*
X127909423Y-49940349D01*
X127909421Y-49940353D01*
X127862106Y-50041821D01*
X127815933Y-50094260D01*
X127748740Y-50113412D01*
X127681859Y-50093196D01*
X127637342Y-50041821D01*
X127590144Y-49940605D01*
X127590142Y-49940601D01*
X127545996Y-49877555D01*
X126982962Y-50440589D01*
X126965925Y-50377007D01*
X126900099Y-50262993D01*
X126807007Y-50169901D01*
X126692993Y-50104075D01*
X126629409Y-50087037D01*
X127192443Y-49524003D01*
X127129392Y-49479854D01*
X126930533Y-49387125D01*
X126930524Y-49387121D01*
X126718592Y-49330335D01*
X126718582Y-49330333D01*
X126500001Y-49311210D01*
X126499999Y-49311210D01*
X126281417Y-49330333D01*
X126281407Y-49330335D01*
X126069475Y-49387121D01*
X126069466Y-49387124D01*
X125870606Y-49479855D01*
X125870604Y-49479856D01*
X125807556Y-49524003D01*
X125807555Y-49524003D01*
X126370590Y-50087037D01*
X126307007Y-50104075D01*
X126192993Y-50169901D01*
X126099901Y-50262993D01*
X126034075Y-50377007D01*
X126017037Y-50440589D01*
X125454003Y-49877555D01*
X125454003Y-49877556D01*
X125409856Y-49940604D01*
X125409855Y-49940606D01*
X125317124Y-50139466D01*
X125317121Y-50139475D01*
X125260335Y-50351407D01*
X125260333Y-50351417D01*
X125241210Y-50569999D01*
X109854499Y-50569999D01*
X109854499Y-49768128D01*
X109848091Y-49708517D01*
X109847968Y-49708188D01*
X109797797Y-49573671D01*
X109797793Y-49573664D01*
X109711547Y-49458455D01*
X109711544Y-49458452D01*
X109596335Y-49372206D01*
X109596328Y-49372202D01*
X109461482Y-49321908D01*
X109461483Y-49321908D01*
X109401883Y-49315501D01*
X109401881Y-49315500D01*
X109401873Y-49315500D01*
X109401864Y-49315500D01*
X107798129Y-49315500D01*
X107798123Y-49315501D01*
X107738516Y-49321908D01*
X107603671Y-49372202D01*
X107603664Y-49372206D01*
X107488455Y-49458452D01*
X107488452Y-49458455D01*
X107402206Y-49573664D01*
X107402202Y-49573671D01*
X107351908Y-49708517D01*
X107346315Y-49760543D01*
X107345501Y-49768123D01*
X107345500Y-49768135D01*
X107345500Y-49768326D01*
X107345487Y-49768368D01*
X107345322Y-49771452D01*
X107344593Y-49771412D01*
X107325815Y-49835365D01*
X107273011Y-49881120D01*
X107203853Y-49891064D01*
X107140297Y-49862039D01*
X107119925Y-49839449D01*
X107094353Y-49802929D01*
X107064674Y-49760543D01*
X106909457Y-49605326D01*
X106909455Y-49605325D01*
X106909452Y-49605322D01*
X106729650Y-49479423D01*
X106729642Y-49479419D01*
X106530708Y-49386655D01*
X106530706Y-49386654D01*
X106530703Y-49386653D01*
X106379885Y-49346240D01*
X106318675Y-49329839D01*
X106318668Y-49329838D01*
X106100002Y-49310708D01*
X106099998Y-49310708D01*
X105881331Y-49329838D01*
X105881324Y-49329839D01*
X105758902Y-49362642D01*
X105669297Y-49386653D01*
X105669295Y-49386653D01*
X105669291Y-49386655D01*
X105470357Y-49479419D01*
X105470349Y-49479423D01*
X105290547Y-49605322D01*
X105290541Y-49605327D01*
X105187681Y-49708188D01*
X105126358Y-49741673D01*
X105056666Y-49736689D01*
X105012319Y-49708188D01*
X104909458Y-49605327D01*
X104909452Y-49605322D01*
X104729650Y-49479423D01*
X104729642Y-49479419D01*
X104530708Y-49386655D01*
X104530706Y-49386654D01*
X104530703Y-49386653D01*
X104379885Y-49346240D01*
X104318675Y-49329839D01*
X104318668Y-49329838D01*
X104100002Y-49310708D01*
X104099998Y-49310708D01*
X103881331Y-49329838D01*
X103881324Y-49329839D01*
X103758902Y-49362642D01*
X103669297Y-49386653D01*
X103669295Y-49386653D01*
X103669291Y-49386655D01*
X103470357Y-49479419D01*
X103470349Y-49479423D01*
X103290547Y-49605322D01*
X103290541Y-49605327D01*
X103135327Y-49760541D01*
X103135322Y-49760547D01*
X103009423Y-49940349D01*
X103009421Y-49940353D01*
X102962106Y-50041821D01*
X102915933Y-50094260D01*
X102848740Y-50113412D01*
X102781859Y-50093196D01*
X102737342Y-50041821D01*
X102690144Y-49940605D01*
X102690142Y-49940601D01*
X102645996Y-49877555D01*
X102082962Y-50440589D01*
X102065925Y-50377007D01*
X102000099Y-50262993D01*
X101907007Y-50169901D01*
X101792993Y-50104075D01*
X101729409Y-50087037D01*
X102292443Y-49524003D01*
X102229392Y-49479854D01*
X102030533Y-49387125D01*
X102030524Y-49387121D01*
X101818592Y-49330335D01*
X101818582Y-49330333D01*
X101600001Y-49311210D01*
X101599999Y-49311210D01*
X101381417Y-49330333D01*
X101381407Y-49330335D01*
X101169475Y-49387121D01*
X101169466Y-49387124D01*
X100970606Y-49479855D01*
X100970604Y-49479856D01*
X100907556Y-49524003D01*
X100907555Y-49524003D01*
X101470590Y-50087037D01*
X101407007Y-50104075D01*
X101292993Y-50169901D01*
X101199901Y-50262993D01*
X101134075Y-50377007D01*
X101117037Y-50440589D01*
X100554003Y-49877555D01*
X100554003Y-49877556D01*
X100509856Y-49940604D01*
X100509855Y-49940606D01*
X100417124Y-50139466D01*
X100417121Y-50139475D01*
X100360335Y-50351407D01*
X100360333Y-50351417D01*
X100341210Y-50569999D01*
X88500500Y-50569999D01*
X88500500Y-47859992D01*
X96327284Y-47859992D01*
X96327284Y-47860007D01*
X96346127Y-48147495D01*
X96346131Y-48147522D01*
X96402339Y-48430099D01*
X96402344Y-48430118D01*
X96494952Y-48702935D01*
X96494956Y-48702945D01*
X96622392Y-48961359D01*
X96782468Y-49200930D01*
X96807253Y-49229191D01*
X96807254Y-49229191D01*
X97529275Y-48507170D01*
X97622319Y-48635233D01*
X97754767Y-48767681D01*
X97882828Y-48860723D01*
X97160807Y-49582744D01*
X97160807Y-49582745D01*
X97189071Y-49607531D01*
X97189076Y-49607536D01*
X97428640Y-49767607D01*
X97687054Y-49895043D01*
X97687064Y-49895047D01*
X97959881Y-49987655D01*
X97959900Y-49987660D01*
X98242477Y-50043868D01*
X98242504Y-50043872D01*
X98529993Y-50062716D01*
X98530007Y-50062716D01*
X98817495Y-50043872D01*
X98817522Y-50043868D01*
X99100099Y-49987660D01*
X99100118Y-49987655D01*
X99372935Y-49895047D01*
X99372945Y-49895043D01*
X99631359Y-49767607D01*
X99870921Y-49607537D01*
X99899191Y-49582743D01*
X99177171Y-48860723D01*
X99305233Y-48767681D01*
X99437681Y-48635233D01*
X99530723Y-48507171D01*
X100252743Y-49229191D01*
X100277537Y-49200921D01*
X100437607Y-48961359D01*
X100565043Y-48702945D01*
X100565047Y-48702935D01*
X100657655Y-48430118D01*
X100657660Y-48430099D01*
X100713868Y-48147522D01*
X100713872Y-48147495D01*
X100732716Y-47860007D01*
X100732716Y-47859992D01*
X109467284Y-47859992D01*
X109467284Y-47860007D01*
X109486127Y-48147495D01*
X109486131Y-48147522D01*
X109542339Y-48430099D01*
X109542344Y-48430118D01*
X109634952Y-48702935D01*
X109634956Y-48702945D01*
X109762392Y-48961359D01*
X109922468Y-49200930D01*
X109947253Y-49229191D01*
X109947254Y-49229191D01*
X110669275Y-48507170D01*
X110762319Y-48635233D01*
X110894767Y-48767681D01*
X111022828Y-48860723D01*
X110300807Y-49582744D01*
X110300807Y-49582745D01*
X110329071Y-49607531D01*
X110329076Y-49607536D01*
X110568640Y-49767607D01*
X110827054Y-49895043D01*
X110827064Y-49895047D01*
X111099881Y-49987655D01*
X111099900Y-49987660D01*
X111382477Y-50043868D01*
X111382504Y-50043872D01*
X111669993Y-50062716D01*
X111670007Y-50062716D01*
X111957495Y-50043872D01*
X111957522Y-50043868D01*
X112240099Y-49987660D01*
X112240118Y-49987655D01*
X112512935Y-49895047D01*
X112512945Y-49895043D01*
X112771359Y-49767607D01*
X113010921Y-49607537D01*
X113039191Y-49582743D01*
X112317171Y-48860723D01*
X112445233Y-48767681D01*
X112577681Y-48635233D01*
X112670723Y-48507171D01*
X113392743Y-49229191D01*
X113417537Y-49200921D01*
X113577607Y-48961359D01*
X113705043Y-48702945D01*
X113705047Y-48702935D01*
X113797655Y-48430118D01*
X113797660Y-48430099D01*
X113853868Y-48147522D01*
X113853872Y-48147495D01*
X113872716Y-47860007D01*
X113872716Y-47859992D01*
X121227284Y-47859992D01*
X121227284Y-47860007D01*
X121246127Y-48147495D01*
X121246131Y-48147522D01*
X121302339Y-48430099D01*
X121302344Y-48430118D01*
X121394952Y-48702935D01*
X121394956Y-48702945D01*
X121522392Y-48961359D01*
X121682468Y-49200930D01*
X121707253Y-49229191D01*
X121707254Y-49229191D01*
X122429275Y-48507170D01*
X122522319Y-48635233D01*
X122654767Y-48767681D01*
X122782828Y-48860723D01*
X122060807Y-49582744D01*
X122060807Y-49582745D01*
X122089071Y-49607531D01*
X122089076Y-49607536D01*
X122328640Y-49767607D01*
X122587054Y-49895043D01*
X122587064Y-49895047D01*
X122859881Y-49987655D01*
X122859900Y-49987660D01*
X123142477Y-50043868D01*
X123142504Y-50043872D01*
X123429993Y-50062716D01*
X123430007Y-50062716D01*
X123717495Y-50043872D01*
X123717522Y-50043868D01*
X124000099Y-49987660D01*
X124000118Y-49987655D01*
X124272935Y-49895047D01*
X124272945Y-49895043D01*
X124531359Y-49767607D01*
X124770921Y-49607537D01*
X124799191Y-49582743D01*
X124077171Y-48860723D01*
X124205233Y-48767681D01*
X124337681Y-48635233D01*
X124430723Y-48507171D01*
X125152743Y-49229191D01*
X125177537Y-49200921D01*
X125337607Y-48961359D01*
X125465043Y-48702945D01*
X125465047Y-48702935D01*
X125557655Y-48430118D01*
X125557660Y-48430099D01*
X125613868Y-48147522D01*
X125613872Y-48147495D01*
X125632716Y-47860007D01*
X125632716Y-47859992D01*
X134367284Y-47859992D01*
X134367284Y-47860007D01*
X134386127Y-48147495D01*
X134386131Y-48147522D01*
X134442339Y-48430099D01*
X134442344Y-48430118D01*
X134534952Y-48702935D01*
X134534956Y-48702945D01*
X134662392Y-48961359D01*
X134822468Y-49200930D01*
X134847253Y-49229191D01*
X134847254Y-49229191D01*
X135569275Y-48507170D01*
X135662319Y-48635233D01*
X135794767Y-48767681D01*
X135922828Y-48860723D01*
X135200807Y-49582744D01*
X135200807Y-49582745D01*
X135229071Y-49607531D01*
X135229076Y-49607536D01*
X135468640Y-49767607D01*
X135727054Y-49895043D01*
X135727064Y-49895047D01*
X135999881Y-49987655D01*
X135999900Y-49987660D01*
X136282477Y-50043868D01*
X136282504Y-50043872D01*
X136569993Y-50062716D01*
X136570007Y-50062716D01*
X136857495Y-50043872D01*
X136857522Y-50043868D01*
X137140099Y-49987660D01*
X137140118Y-49987655D01*
X137412935Y-49895047D01*
X137412945Y-49895043D01*
X137671359Y-49767607D01*
X137910921Y-49607537D01*
X137939191Y-49582743D01*
X137217171Y-48860723D01*
X137345233Y-48767681D01*
X137477681Y-48635233D01*
X137570723Y-48507171D01*
X138292743Y-49229191D01*
X138317537Y-49200921D01*
X138477607Y-48961359D01*
X138605043Y-48702945D01*
X138605047Y-48702935D01*
X138697655Y-48430118D01*
X138697660Y-48430099D01*
X138753868Y-48147522D01*
X138753872Y-48147495D01*
X138772716Y-47860007D01*
X138772716Y-47859992D01*
X138753872Y-47572504D01*
X138753868Y-47572477D01*
X138697660Y-47289900D01*
X138697655Y-47289881D01*
X138605047Y-47017064D01*
X138605043Y-47017054D01*
X138477607Y-46758640D01*
X138317536Y-46519076D01*
X138317531Y-46519071D01*
X138292744Y-46490807D01*
X137570723Y-47212827D01*
X137477681Y-47084767D01*
X137345233Y-46952319D01*
X137217170Y-46859275D01*
X137661445Y-46415000D01*
X143354929Y-46415000D01*
X143375187Y-46711172D01*
X143375188Y-46711174D01*
X143435583Y-47001812D01*
X143435588Y-47001831D01*
X143534999Y-47281549D01*
X143671577Y-47545133D01*
X143671581Y-47545139D01*
X143826639Y-47764805D01*
X143826640Y-47764806D01*
X144543594Y-47047852D01*
X144637574Y-47177204D01*
X144767796Y-47307426D01*
X144897146Y-47401405D01*
X144182439Y-48116111D01*
X144275682Y-48191970D01*
X144529327Y-48346214D01*
X144801611Y-48464483D01*
X145087462Y-48544575D01*
X145087469Y-48544576D01*
X145381567Y-48585000D01*
X145678433Y-48585000D01*
X145972530Y-48544576D01*
X145972537Y-48544575D01*
X146258388Y-48464483D01*
X146530672Y-48346214D01*
X146784314Y-48191972D01*
X146784329Y-48191962D01*
X146877558Y-48116111D01*
X146162852Y-47401405D01*
X146292204Y-47307426D01*
X146422426Y-47177204D01*
X146516405Y-47047852D01*
X147233358Y-47764805D01*
X147233359Y-47764805D01*
X147388422Y-47545132D01*
X147525000Y-47281549D01*
X147624411Y-47001831D01*
X147624416Y-47001812D01*
X147684811Y-46711174D01*
X147684812Y-46711172D01*
X147705070Y-46415000D01*
X156494929Y-46415000D01*
X156515187Y-46711172D01*
X156515188Y-46711174D01*
X156575583Y-47001812D01*
X156575588Y-47001831D01*
X156674999Y-47281549D01*
X156811577Y-47545133D01*
X156811581Y-47545139D01*
X156966639Y-47764805D01*
X156966640Y-47764806D01*
X157683593Y-47047852D01*
X157777574Y-47177204D01*
X157907796Y-47307426D01*
X158037146Y-47401405D01*
X157322439Y-48116111D01*
X157415682Y-48191970D01*
X157669327Y-48346214D01*
X157941611Y-48464483D01*
X158227462Y-48544575D01*
X158227469Y-48544576D01*
X158521567Y-48585000D01*
X158818433Y-48585000D01*
X159112530Y-48544576D01*
X159112537Y-48544575D01*
X159398388Y-48464483D01*
X159670672Y-48346214D01*
X159924314Y-48191972D01*
X159924329Y-48191962D01*
X160017558Y-48116111D01*
X159302852Y-47401405D01*
X159432204Y-47307426D01*
X159562426Y-47177204D01*
X159656405Y-47047852D01*
X160373358Y-47764805D01*
X160373359Y-47764805D01*
X160528422Y-47545132D01*
X160665000Y-47281549D01*
X160764411Y-47001831D01*
X160764416Y-47001812D01*
X160824811Y-46711174D01*
X160824812Y-46711172D01*
X160845070Y-46415000D01*
X160824812Y-46118827D01*
X160824811Y-46118825D01*
X160764416Y-45828187D01*
X160764411Y-45828168D01*
X160665000Y-45548450D01*
X160528422Y-45284867D01*
X160373358Y-45065193D01*
X159656405Y-45782146D01*
X159562426Y-45652796D01*
X159432204Y-45522574D01*
X159302852Y-45428594D01*
X160017559Y-44713887D01*
X159924326Y-44638037D01*
X159924313Y-44638027D01*
X159670672Y-44483785D01*
X159398388Y-44365516D01*
X159112537Y-44285424D01*
X159112530Y-44285423D01*
X158818433Y-44245000D01*
X158521567Y-44245000D01*
X158227469Y-44285423D01*
X158227462Y-44285424D01*
X157941611Y-44365516D01*
X157669327Y-44483785D01*
X157415681Y-44638031D01*
X157415668Y-44638039D01*
X157322439Y-44713886D01*
X157322439Y-44713887D01*
X158037147Y-45428594D01*
X157907796Y-45522574D01*
X157777574Y-45652796D01*
X157683594Y-45782146D01*
X156966640Y-45065192D01*
X156966639Y-45065192D01*
X156811581Y-45284860D01*
X156811577Y-45284866D01*
X156674999Y-45548450D01*
X156575588Y-45828168D01*
X156575583Y-45828187D01*
X156515188Y-46118825D01*
X156515187Y-46118827D01*
X156494929Y-46415000D01*
X147705070Y-46415000D01*
X147684812Y-46118827D01*
X147684811Y-46118825D01*
X147624416Y-45828187D01*
X147624411Y-45828168D01*
X147525000Y-45548450D01*
X147388422Y-45284867D01*
X147233358Y-45065193D01*
X146516405Y-45782146D01*
X146422426Y-45652796D01*
X146292204Y-45522574D01*
X146162852Y-45428594D01*
X146877559Y-44713887D01*
X146784326Y-44638037D01*
X146784313Y-44638027D01*
X146530672Y-44483785D01*
X146258388Y-44365516D01*
X145972537Y-44285424D01*
X145972530Y-44285423D01*
X145678433Y-44245000D01*
X145381567Y-44245000D01*
X145087469Y-44285423D01*
X145087462Y-44285424D01*
X144801611Y-44365516D01*
X144529327Y-44483785D01*
X144275681Y-44638031D01*
X144275668Y-44638039D01*
X144182439Y-44713886D01*
X144182439Y-44713887D01*
X144897147Y-45428594D01*
X144767796Y-45522574D01*
X144637574Y-45652796D01*
X144543594Y-45782146D01*
X143826640Y-45065192D01*
X143826639Y-45065192D01*
X143671581Y-45284860D01*
X143671577Y-45284866D01*
X143534999Y-45548450D01*
X143435588Y-45828168D01*
X143435583Y-45828187D01*
X143375188Y-46118825D01*
X143375187Y-46118827D01*
X143354929Y-46415000D01*
X137661445Y-46415000D01*
X137939191Y-46137254D01*
X137939191Y-46137253D01*
X137910930Y-46112468D01*
X137671359Y-45952392D01*
X137412945Y-45824956D01*
X137412935Y-45824952D01*
X137140118Y-45732344D01*
X137140099Y-45732339D01*
X136857522Y-45676131D01*
X136857495Y-45676127D01*
X136570007Y-45657284D01*
X136569993Y-45657284D01*
X136282504Y-45676127D01*
X136282477Y-45676131D01*
X135999900Y-45732339D01*
X135999881Y-45732344D01*
X135727064Y-45824952D01*
X135727054Y-45824956D01*
X135468641Y-45952392D01*
X135229065Y-46112472D01*
X135200807Y-46137253D01*
X135200807Y-46137255D01*
X135922828Y-46859276D01*
X135794767Y-46952319D01*
X135662319Y-47084767D01*
X135569276Y-47212828D01*
X134847255Y-46490807D01*
X134847253Y-46490807D01*
X134822472Y-46519065D01*
X134662392Y-46758641D01*
X134534956Y-47017054D01*
X134534952Y-47017064D01*
X134442344Y-47289881D01*
X134442339Y-47289900D01*
X134386131Y-47572477D01*
X134386127Y-47572504D01*
X134367284Y-47859992D01*
X125632716Y-47859992D01*
X125613872Y-47572504D01*
X125613868Y-47572477D01*
X125557660Y-47289900D01*
X125557655Y-47289881D01*
X125465047Y-47017064D01*
X125465043Y-47017054D01*
X125337607Y-46758640D01*
X125177536Y-46519076D01*
X125177531Y-46519071D01*
X125152744Y-46490807D01*
X124430723Y-47212827D01*
X124337681Y-47084767D01*
X124205233Y-46952319D01*
X124077170Y-46859275D01*
X124799191Y-46137254D01*
X124799191Y-46137253D01*
X124770930Y-46112468D01*
X124531359Y-45952392D01*
X124272945Y-45824956D01*
X124272935Y-45824952D01*
X124000118Y-45732344D01*
X124000099Y-45732339D01*
X123717522Y-45676131D01*
X123717495Y-45676127D01*
X123430007Y-45657284D01*
X123429993Y-45657284D01*
X123142504Y-45676127D01*
X123142477Y-45676131D01*
X122859900Y-45732339D01*
X122859881Y-45732344D01*
X122587064Y-45824952D01*
X122587054Y-45824956D01*
X122328641Y-45952392D01*
X122089065Y-46112472D01*
X122060807Y-46137253D01*
X122060807Y-46137255D01*
X122782828Y-46859276D01*
X122654767Y-46952319D01*
X122522319Y-47084767D01*
X122429276Y-47212828D01*
X121707255Y-46490807D01*
X121707253Y-46490807D01*
X121682472Y-46519065D01*
X121522392Y-46758641D01*
X121394956Y-47017054D01*
X121394952Y-47017064D01*
X121302344Y-47289881D01*
X121302339Y-47289900D01*
X121246131Y-47572477D01*
X121246127Y-47572504D01*
X121227284Y-47859992D01*
X113872716Y-47859992D01*
X113853872Y-47572504D01*
X113853868Y-47572477D01*
X113797660Y-47289900D01*
X113797655Y-47289881D01*
X113705047Y-47017064D01*
X113705043Y-47017054D01*
X113577607Y-46758640D01*
X113417536Y-46519076D01*
X113417531Y-46519071D01*
X113392744Y-46490807D01*
X112670723Y-47212827D01*
X112577681Y-47084767D01*
X112445233Y-46952319D01*
X112317170Y-46859275D01*
X113039191Y-46137254D01*
X113039191Y-46137253D01*
X113010930Y-46112468D01*
X112771359Y-45952392D01*
X112512945Y-45824956D01*
X112512935Y-45824952D01*
X112240118Y-45732344D01*
X112240099Y-45732339D01*
X111957522Y-45676131D01*
X111957495Y-45676127D01*
X111670007Y-45657284D01*
X111669993Y-45657284D01*
X111382504Y-45676127D01*
X111382477Y-45676131D01*
X111099900Y-45732339D01*
X111099881Y-45732344D01*
X110827064Y-45824952D01*
X110827054Y-45824956D01*
X110568641Y-45952392D01*
X110329065Y-46112472D01*
X110300807Y-46137253D01*
X110300807Y-46137255D01*
X111022828Y-46859276D01*
X110894767Y-46952319D01*
X110762319Y-47084767D01*
X110669276Y-47212828D01*
X109947255Y-46490807D01*
X109947253Y-46490807D01*
X109922472Y-46519065D01*
X109762392Y-46758641D01*
X109634956Y-47017054D01*
X109634952Y-47017064D01*
X109542344Y-47289881D01*
X109542339Y-47289900D01*
X109486131Y-47572477D01*
X109486127Y-47572504D01*
X109467284Y-47859992D01*
X100732716Y-47859992D01*
X100713872Y-47572504D01*
X100713868Y-47572477D01*
X100657660Y-47289900D01*
X100657655Y-47289881D01*
X100565047Y-47017064D01*
X100565043Y-47017054D01*
X100437607Y-46758640D01*
X100277536Y-46519076D01*
X100277531Y-46519071D01*
X100252744Y-46490807D01*
X99530723Y-47212827D01*
X99437681Y-47084767D01*
X99305233Y-46952319D01*
X99177170Y-46859275D01*
X99899191Y-46137254D01*
X99899191Y-46137253D01*
X99870930Y-46112468D01*
X99631359Y-45952392D01*
X99372945Y-45824956D01*
X99372935Y-45824952D01*
X99100118Y-45732344D01*
X99100099Y-45732339D01*
X98817522Y-45676131D01*
X98817495Y-45676127D01*
X98530007Y-45657284D01*
X98529993Y-45657284D01*
X98242504Y-45676127D01*
X98242477Y-45676131D01*
X97959900Y-45732339D01*
X97959881Y-45732344D01*
X97687064Y-45824952D01*
X97687054Y-45824956D01*
X97428641Y-45952392D01*
X97189065Y-46112472D01*
X97160807Y-46137253D01*
X97160807Y-46137255D01*
X97882828Y-46859276D01*
X97754767Y-46952319D01*
X97622319Y-47084767D01*
X97529276Y-47212828D01*
X96807255Y-46490807D01*
X96807253Y-46490807D01*
X96782472Y-46519065D01*
X96622392Y-46758641D01*
X96494956Y-47017054D01*
X96494952Y-47017064D01*
X96402344Y-47289881D01*
X96402339Y-47289900D01*
X96346131Y-47572477D01*
X96346127Y-47572504D01*
X96327284Y-47859992D01*
X88500500Y-47859992D01*
X88500500Y-42500000D01*
X89295065Y-42500000D01*
X89314786Y-42826038D01*
X89373667Y-43147341D01*
X89470835Y-43459164D01*
X89470839Y-43459175D01*
X89604897Y-43757041D01*
X89604898Y-43757043D01*
X89773881Y-44036576D01*
X89921476Y-44224968D01*
X91063708Y-43082736D01*
X91160967Y-43216602D01*
X91283398Y-43339033D01*
X91417262Y-43436290D01*
X90275030Y-44578522D01*
X90275030Y-44578523D01*
X90463423Y-44726118D01*
X90742956Y-44895101D01*
X90742958Y-44895102D01*
X91040824Y-45029160D01*
X91040835Y-45029164D01*
X91352658Y-45126332D01*
X91673961Y-45185213D01*
X92000000Y-45204934D01*
X92326038Y-45185213D01*
X92647341Y-45126332D01*
X92959164Y-45029164D01*
X92959175Y-45029160D01*
X93257041Y-44895102D01*
X93257043Y-44895101D01*
X93536586Y-44726112D01*
X93724968Y-44578523D01*
X93724968Y-44578522D01*
X92582737Y-43436290D01*
X92716602Y-43339033D01*
X92839033Y-43216602D01*
X92936290Y-43082737D01*
X94078522Y-44224968D01*
X94078523Y-44224968D01*
X94226112Y-44036586D01*
X94395101Y-43757043D01*
X94395102Y-43757041D01*
X94418524Y-43704999D01*
X147341210Y-43704999D01*
X147341210Y-43705000D01*
X147360333Y-43923582D01*
X147360335Y-43923592D01*
X147417121Y-44135524D01*
X147417125Y-44135533D01*
X147509854Y-44334392D01*
X147554003Y-44397443D01*
X148117037Y-43834409D01*
X148134075Y-43897993D01*
X148199901Y-44012007D01*
X148292993Y-44105099D01*
X148407007Y-44170925D01*
X148470590Y-44187962D01*
X147907555Y-44750996D01*
X147970601Y-44795142D01*
X147970605Y-44795144D01*
X148169466Y-44887874D01*
X148169475Y-44887878D01*
X148381407Y-44944664D01*
X148381417Y-44944666D01*
X148599999Y-44963790D01*
X148600001Y-44963790D01*
X148818582Y-44944666D01*
X148818592Y-44944664D01*
X149030524Y-44887878D01*
X149030533Y-44887874D01*
X149229392Y-44795145D01*
X149292443Y-44750995D01*
X148729410Y-44187962D01*
X148792993Y-44170925D01*
X148907007Y-44105099D01*
X149000099Y-44012007D01*
X149065925Y-43897993D01*
X149082962Y-43834409D01*
X149645995Y-44397442D01*
X149690146Y-44334390D01*
X149737342Y-44233179D01*
X149783514Y-44180739D01*
X149850707Y-44161587D01*
X149917589Y-44181802D01*
X149962106Y-44233178D01*
X150009421Y-44334646D01*
X150009423Y-44334650D01*
X150135322Y-44514452D01*
X150135327Y-44514458D01*
X150290541Y-44669672D01*
X150290547Y-44669677D01*
X150470349Y-44795576D01*
X150470351Y-44795577D01*
X150470354Y-44795579D01*
X150669297Y-44888347D01*
X150881326Y-44945161D01*
X151037521Y-44958826D01*
X151099998Y-44964292D01*
X151100000Y-44964292D01*
X151100002Y-44964292D01*
X151154774Y-44959500D01*
X151318674Y-44945161D01*
X151530703Y-44888347D01*
X151729646Y-44795579D01*
X151909457Y-44669674D01*
X152012319Y-44566812D01*
X152073642Y-44533327D01*
X152143334Y-44538311D01*
X152187681Y-44566812D01*
X152290541Y-44669672D01*
X152290547Y-44669677D01*
X152470349Y-44795576D01*
X152470351Y-44795577D01*
X152470354Y-44795579D01*
X152669297Y-44888347D01*
X152881326Y-44945161D01*
X153037521Y-44958826D01*
X153099998Y-44964292D01*
X153100000Y-44964292D01*
X153100002Y-44964292D01*
X153154774Y-44959500D01*
X153318674Y-44945161D01*
X153530703Y-44888347D01*
X153729646Y-44795579D01*
X153909457Y-44669674D01*
X154064674Y-44514457D01*
X154175714Y-44355875D01*
X154230288Y-44312252D01*
X154299787Y-44305058D01*
X154362142Y-44336580D01*
X154391207Y-44380500D01*
X154391483Y-44380364D01*
X154392576Y-44382569D01*
X154393679Y-44384235D01*
X154394468Y-44386383D01*
X154479274Y-44557379D01*
X154544109Y-44638037D01*
X154598855Y-44706145D01*
X154747620Y-44825725D01*
X154918613Y-44910530D01*
X155103839Y-44956594D01*
X155146696Y-44959500D01*
X155146697Y-44959500D01*
X156053303Y-44959500D01*
X156053304Y-44959500D01*
X156096161Y-44956594D01*
X156281387Y-44910530D01*
X156452380Y-44825725D01*
X156601145Y-44706145D01*
X156720725Y-44557380D01*
X156805530Y-44386387D01*
X156851594Y-44201161D01*
X156854500Y-44158304D01*
X156854500Y-43251696D01*
X156851594Y-43208839D01*
X156805530Y-43023613D01*
X156720725Y-42852620D01*
X156601145Y-42703855D01*
X156545347Y-42659003D01*
X156452379Y-42584274D01*
X156282456Y-42500000D01*
X163295065Y-42500000D01*
X163314786Y-42826038D01*
X163373667Y-43147341D01*
X163470835Y-43459164D01*
X163470839Y-43459175D01*
X163604897Y-43757041D01*
X163604898Y-43757043D01*
X163773881Y-44036576D01*
X163921476Y-44224968D01*
X165063708Y-43082736D01*
X165160967Y-43216602D01*
X165283398Y-43339033D01*
X165417262Y-43436290D01*
X164275030Y-44578522D01*
X164275030Y-44578523D01*
X164463423Y-44726118D01*
X164742956Y-44895101D01*
X164742958Y-44895102D01*
X165040824Y-45029160D01*
X165040835Y-45029164D01*
X165352658Y-45126332D01*
X165673961Y-45185213D01*
X166000000Y-45204934D01*
X166326038Y-45185213D01*
X166647341Y-45126332D01*
X166959164Y-45029164D01*
X166959175Y-45029160D01*
X167257041Y-44895102D01*
X167257043Y-44895101D01*
X167536586Y-44726112D01*
X167724968Y-44578523D01*
X167724968Y-44578522D01*
X166582737Y-43436290D01*
X166716602Y-43339033D01*
X166839033Y-43216602D01*
X166936290Y-43082737D01*
X168078522Y-44224968D01*
X168078523Y-44224968D01*
X168226112Y-44036586D01*
X168366573Y-43804234D01*
X173012000Y-43804234D01*
X173012000Y-43955765D01*
X173051219Y-44102136D01*
X173083647Y-44158302D01*
X173126985Y-44233365D01*
X173234135Y-44340515D01*
X173365365Y-44416281D01*
X173511734Y-44455500D01*
X173511736Y-44455500D01*
X173663264Y-44455500D01*
X173663266Y-44455500D01*
X173809635Y-44416281D01*
X173940865Y-44340515D01*
X174048015Y-44233365D01*
X174123781Y-44102135D01*
X174163000Y-43955766D01*
X174163000Y-43804234D01*
X178792000Y-43804234D01*
X178792000Y-43955765D01*
X178831219Y-44102136D01*
X178863647Y-44158302D01*
X178906985Y-44233365D01*
X179014135Y-44340515D01*
X179145365Y-44416281D01*
X179291734Y-44455500D01*
X179291736Y-44455500D01*
X179443264Y-44455500D01*
X179443266Y-44455500D01*
X179589635Y-44416281D01*
X179720865Y-44340515D01*
X179828015Y-44233365D01*
X179903781Y-44102135D01*
X179943000Y-43955766D01*
X179943000Y-43804234D01*
X179903781Y-43657865D01*
X179828015Y-43526635D01*
X179720865Y-43419485D01*
X179655250Y-43381602D01*
X179589636Y-43343719D01*
X179516450Y-43324109D01*
X179443266Y-43304500D01*
X179291734Y-43304500D01*
X179145363Y-43343719D01*
X179014135Y-43419485D01*
X179014132Y-43419487D01*
X178906987Y-43526632D01*
X178906985Y-43526635D01*
X178831219Y-43657863D01*
X178792000Y-43804234D01*
X174163000Y-43804234D01*
X174123781Y-43657865D01*
X174048015Y-43526635D01*
X173940865Y-43419485D01*
X173875250Y-43381602D01*
X173809636Y-43343719D01*
X173736450Y-43324109D01*
X173663266Y-43304500D01*
X173511734Y-43304500D01*
X173365363Y-43343719D01*
X173234135Y-43419485D01*
X173234132Y-43419487D01*
X173126987Y-43526632D01*
X173126985Y-43526635D01*
X173051219Y-43657863D01*
X173012000Y-43804234D01*
X168366573Y-43804234D01*
X168395101Y-43757043D01*
X168395102Y-43757041D01*
X168529160Y-43459175D01*
X168529164Y-43459164D01*
X168626332Y-43147341D01*
X168685213Y-42826038D01*
X168704934Y-42500000D01*
X183295065Y-42500000D01*
X183314786Y-42826038D01*
X183373667Y-43147341D01*
X183470835Y-43459164D01*
X183470839Y-43459175D01*
X183604897Y-43757041D01*
X183604898Y-43757043D01*
X183773881Y-44036576D01*
X183921476Y-44224968D01*
X185063708Y-43082736D01*
X185160967Y-43216602D01*
X185283398Y-43339033D01*
X185417262Y-43436290D01*
X184275030Y-44578522D01*
X184275030Y-44578523D01*
X184463423Y-44726118D01*
X184742956Y-44895101D01*
X184742958Y-44895102D01*
X185040824Y-45029160D01*
X185040835Y-45029164D01*
X185352658Y-45126332D01*
X185673961Y-45185213D01*
X186000000Y-45204934D01*
X186326038Y-45185213D01*
X186647341Y-45126332D01*
X186959164Y-45029164D01*
X186959175Y-45029160D01*
X187257041Y-44895102D01*
X187257043Y-44895101D01*
X187536586Y-44726112D01*
X187724968Y-44578523D01*
X187724968Y-44578522D01*
X186582737Y-43436290D01*
X186716602Y-43339033D01*
X186839033Y-43216602D01*
X186936290Y-43082737D01*
X188078522Y-44224968D01*
X188078523Y-44224968D01*
X188226112Y-44036586D01*
X188395101Y-43757043D01*
X188395102Y-43757041D01*
X188529160Y-43459175D01*
X188529164Y-43459164D01*
X188626332Y-43147341D01*
X188685213Y-42826038D01*
X188704934Y-42500000D01*
X188685213Y-42173961D01*
X188626332Y-41852658D01*
X188529164Y-41540835D01*
X188529160Y-41540824D01*
X188395102Y-41242958D01*
X188395101Y-41242956D01*
X188226118Y-40963423D01*
X188078522Y-40775030D01*
X186936290Y-41917261D01*
X186839033Y-41783398D01*
X186716602Y-41660967D01*
X186582736Y-41563709D01*
X187724968Y-40421476D01*
X187536576Y-40273881D01*
X187257043Y-40104898D01*
X187257041Y-40104897D01*
X186959175Y-39970839D01*
X186959164Y-39970835D01*
X186647341Y-39873667D01*
X186326038Y-39814786D01*
X186000000Y-39795065D01*
X185673961Y-39814786D01*
X185352658Y-39873667D01*
X185040835Y-39970835D01*
X185040824Y-39970839D01*
X184742958Y-40104897D01*
X184742956Y-40104898D01*
X184463422Y-40273881D01*
X184463416Y-40273886D01*
X184275030Y-40421474D01*
X184275029Y-40421476D01*
X185417262Y-41563709D01*
X185283398Y-41660967D01*
X185160967Y-41783398D01*
X185063709Y-41917262D01*
X183921476Y-40775029D01*
X183921474Y-40775030D01*
X183773886Y-40963416D01*
X183773881Y-40963422D01*
X183604898Y-41242956D01*
X183604897Y-41242958D01*
X183470839Y-41540824D01*
X183470835Y-41540835D01*
X183373667Y-41852658D01*
X183314786Y-42173961D01*
X183295065Y-42500000D01*
X168704934Y-42500000D01*
X168685213Y-42173961D01*
X168626332Y-41852658D01*
X168529164Y-41540835D01*
X168529160Y-41540824D01*
X168395102Y-41242958D01*
X168395101Y-41242956D01*
X168226118Y-40963423D01*
X168078522Y-40775030D01*
X166936290Y-41917262D01*
X166839033Y-41783398D01*
X166716602Y-41660967D01*
X166582736Y-41563709D01*
X167724968Y-40421476D01*
X167536576Y-40273881D01*
X167257043Y-40104898D01*
X167257041Y-40104897D01*
X166959175Y-39970839D01*
X166959164Y-39970835D01*
X166647341Y-39873667D01*
X166326038Y-39814786D01*
X166000000Y-39795065D01*
X165673961Y-39814786D01*
X165352658Y-39873667D01*
X165040835Y-39970835D01*
X165040824Y-39970839D01*
X164742958Y-40104897D01*
X164742956Y-40104898D01*
X164463422Y-40273881D01*
X164463416Y-40273886D01*
X164275030Y-40421474D01*
X164275029Y-40421476D01*
X165417262Y-41563709D01*
X165283398Y-41660967D01*
X165160967Y-41783398D01*
X165063709Y-41917262D01*
X163921476Y-40775029D01*
X163921474Y-40775030D01*
X163773886Y-40963416D01*
X163773881Y-40963422D01*
X163604898Y-41242956D01*
X163604897Y-41242958D01*
X163470839Y-41540824D01*
X163470835Y-41540835D01*
X163373667Y-41852658D01*
X163314786Y-42173961D01*
X163295065Y-42500000D01*
X156282456Y-42500000D01*
X156281389Y-42499471D01*
X156281387Y-42499470D01*
X156188291Y-42476317D01*
X156096163Y-42453406D01*
X156067589Y-42451468D01*
X156053304Y-42450500D01*
X155146696Y-42450500D01*
X155135981Y-42451226D01*
X155103836Y-42453406D01*
X154965644Y-42487773D01*
X154918613Y-42499470D01*
X154918611Y-42499470D01*
X154918610Y-42499471D01*
X154747620Y-42584274D01*
X154598855Y-42703854D01*
X154598854Y-42703855D01*
X154479274Y-42852620D01*
X154394469Y-43023614D01*
X154393678Y-43025768D01*
X154392841Y-43026896D01*
X154391483Y-43029636D01*
X154390992Y-43029392D01*
X154352078Y-43081904D01*
X154286733Y-43106639D01*
X154218389Y-43092118D01*
X154175712Y-43054122D01*
X154155858Y-43025768D01*
X154120691Y-42975544D01*
X154064677Y-42895547D01*
X154064672Y-42895541D01*
X153909458Y-42740327D01*
X153909452Y-42740322D01*
X153729650Y-42614423D01*
X153729642Y-42614419D01*
X153530708Y-42521655D01*
X153530706Y-42521654D01*
X153530703Y-42521653D01*
X153379885Y-42481240D01*
X153318675Y-42464839D01*
X153318668Y-42464838D01*
X153100002Y-42445708D01*
X153099998Y-42445708D01*
X152881331Y-42464838D01*
X152881324Y-42464839D01*
X152758902Y-42497642D01*
X152669297Y-42521653D01*
X152669295Y-42521653D01*
X152669291Y-42521655D01*
X152470357Y-42614419D01*
X152470349Y-42614423D01*
X152290547Y-42740322D01*
X152290541Y-42740327D01*
X152187681Y-42843188D01*
X152126358Y-42876673D01*
X152056666Y-42871689D01*
X152012319Y-42843188D01*
X151909458Y-42740327D01*
X151909452Y-42740322D01*
X151729650Y-42614423D01*
X151729642Y-42614419D01*
X151530708Y-42521655D01*
X151530706Y-42521654D01*
X151530703Y-42521653D01*
X151379885Y-42481240D01*
X151318675Y-42464839D01*
X151318668Y-42464838D01*
X151100002Y-42445708D01*
X151099998Y-42445708D01*
X150881331Y-42464838D01*
X150881324Y-42464839D01*
X150758902Y-42497642D01*
X150669297Y-42521653D01*
X150669295Y-42521653D01*
X150669291Y-42521655D01*
X150470357Y-42614419D01*
X150470349Y-42614423D01*
X150290547Y-42740322D01*
X150290541Y-42740327D01*
X150135327Y-42895541D01*
X150135322Y-42895547D01*
X150009423Y-43075349D01*
X150009421Y-43075353D01*
X149962106Y-43176821D01*
X149915933Y-43229260D01*
X149848740Y-43248412D01*
X149781859Y-43228196D01*
X149737342Y-43176821D01*
X149690144Y-43075605D01*
X149690142Y-43075601D01*
X149645996Y-43012555D01*
X149082962Y-43575589D01*
X149065925Y-43512007D01*
X149000099Y-43397993D01*
X148907007Y-43304901D01*
X148792993Y-43239075D01*
X148729409Y-43222037D01*
X149292443Y-42659003D01*
X149229392Y-42614854D01*
X149030533Y-42522125D01*
X149030524Y-42522121D01*
X148818592Y-42465335D01*
X148818582Y-42465333D01*
X148600001Y-42446210D01*
X148599999Y-42446210D01*
X148381417Y-42465333D01*
X148381407Y-42465335D01*
X148169475Y-42522121D01*
X148169466Y-42522124D01*
X147970606Y-42614855D01*
X147970604Y-42614856D01*
X147907556Y-42659003D01*
X147907555Y-42659003D01*
X148470590Y-43222037D01*
X148407007Y-43239075D01*
X148292993Y-43304901D01*
X148199901Y-43397993D01*
X148134075Y-43512007D01*
X148117037Y-43575589D01*
X147554003Y-43012555D01*
X147554003Y-43012556D01*
X147509856Y-43075604D01*
X147509855Y-43075606D01*
X147417124Y-43274466D01*
X147417121Y-43274475D01*
X147360335Y-43486407D01*
X147360333Y-43486417D01*
X147341210Y-43704999D01*
X94418524Y-43704999D01*
X94529160Y-43459175D01*
X94529164Y-43459164D01*
X94626332Y-43147341D01*
X94685213Y-42826038D01*
X94704934Y-42500000D01*
X94685213Y-42173961D01*
X94626332Y-41852658D01*
X94529164Y-41540835D01*
X94529160Y-41540824D01*
X94395102Y-41242958D01*
X94395101Y-41242956D01*
X94226118Y-40963423D01*
X94078522Y-40775030D01*
X92936290Y-41917262D01*
X92839033Y-41783398D01*
X92716602Y-41660967D01*
X92582736Y-41563709D01*
X93724968Y-40421476D01*
X93536576Y-40273881D01*
X93257043Y-40104898D01*
X93257041Y-40104897D01*
X92959175Y-39970839D01*
X92959164Y-39970835D01*
X92647341Y-39873667D01*
X92326038Y-39814786D01*
X92000000Y-39795065D01*
X91673961Y-39814786D01*
X91352658Y-39873667D01*
X91040835Y-39970835D01*
X91040824Y-39970839D01*
X90742958Y-40104897D01*
X90742956Y-40104898D01*
X90463422Y-40273881D01*
X90463416Y-40273886D01*
X90275030Y-40421474D01*
X90275029Y-40421476D01*
X91417262Y-41563709D01*
X91283398Y-41660967D01*
X91160967Y-41783398D01*
X91063709Y-41917262D01*
X89921476Y-40775029D01*
X89921474Y-40775030D01*
X89773886Y-40963416D01*
X89773881Y-40963422D01*
X89604898Y-41242956D01*
X89604897Y-41242958D01*
X89470839Y-41540824D01*
X89470835Y-41540835D01*
X89373667Y-41852658D01*
X89314786Y-42173961D01*
X89295065Y-42500000D01*
X88500500Y-42500000D01*
X88500500Y-40504427D01*
X88500816Y-40495581D01*
X88515130Y-40295443D01*
X88515131Y-40295442D01*
X88515130Y-40295436D01*
X88517646Y-40277938D01*
X88559356Y-40086199D01*
X88564333Y-40069248D01*
X88632911Y-39885385D01*
X88640259Y-39869298D01*
X88680793Y-39795065D01*
X88734291Y-39697089D01*
X88743845Y-39682221D01*
X88861448Y-39525123D01*
X88873020Y-39511769D01*
X89011769Y-39373020D01*
X89025123Y-39361448D01*
X89182221Y-39243845D01*
X89197089Y-39234291D01*
X89369298Y-39140258D01*
X89385385Y-39132911D01*
X89569248Y-39064333D01*
X89586199Y-39059356D01*
X89777938Y-39017646D01*
X89795436Y-39015130D01*
X89995582Y-39000816D01*
X90004428Y-39000500D01*
X90065892Y-39000500D01*
X171257031Y-39000500D01*
X171324070Y-39020185D01*
G37*
%TD.AperFunction*%
%TD*%
%TA.AperFunction,Conductor*%
%TO.N,+3V3*%
G36*
X177545900Y-65053780D02*
G01*
X177550002Y-65061740D01*
X177550042Y-65062673D01*
X177551000Y-65350000D01*
X177551000Y-65350078D01*
X177550042Y-65637326D01*
X177546588Y-65645588D01*
X177538303Y-65648987D01*
X177537370Y-65648947D01*
X176960728Y-65600894D01*
X176952768Y-65596792D01*
X176950000Y-65589234D01*
X176950000Y-65110766D01*
X176953427Y-65102493D01*
X176960728Y-65099106D01*
X177537371Y-65051052D01*
X177545900Y-65053780D01*
G37*
%TD.AperFunction*%
%TD*%
%TA.AperFunction,Conductor*%
%TO.N,+3V3*%
G36*
X173512450Y-63200848D02*
G01*
X174087264Y-63240039D01*
X174095284Y-63244021D01*
X174098167Y-63251712D01*
X174098167Y-63730184D01*
X174094740Y-63738457D01*
X174087620Y-63741827D01*
X173947402Y-63755707D01*
X173942953Y-63755290D01*
X173891841Y-63740283D01*
X173891840Y-63740283D01*
X173747918Y-63740283D01*
X173747917Y-63740283D01*
X173609827Y-63780829D01*
X173609825Y-63780830D01*
X173596932Y-63789115D01*
X173591760Y-63790915D01*
X173512810Y-63798731D01*
X173504239Y-63796136D01*
X173500014Y-63788241D01*
X173499957Y-63787127D01*
X173499806Y-63741827D01*
X173499000Y-63500000D01*
X173499958Y-63212482D01*
X173503412Y-63204221D01*
X173511697Y-63200822D01*
X173512450Y-63200848D01*
G37*
%TD.AperFunction*%
%TD*%
M02*
