M48
; DRILL file {KiCad 8.0.4} date 2024-10-24T20:47:50-0500
; FORMAT={-:-/ absolute / inch / decimal}
; #@! TF.CreationDate,2024-10-24T20:47:50-05:00
; #@! TF.GenerationSoftware,Kicad,Pcbnew,8.0.4
; #@! TF.FileFunction,Plated,1,4,PTH
FMAT,2
INCH
; #@! TA.AperFunction,Plated,PTH,ViaDrill
T1C0.0118
; #@! TA.AperFunction,Plated,PTH,ComponentDrill
T2C0.0236
; #@! TA.AperFunction,Plated,PTH,ComponentDrill
T3C0.0394
; #@! TA.AperFunction,Plated,PTH,ComponentDrill
T4C0.0866
; #@! TA.AperFunction,Plated,PTH,ComponentDrill
T5C0.0921
; #@! TA.AperFunction,Plated,PTH,ComponentDrill
T6C0.0937
%
G90
G05
T1
X3.6299Y-2.2008
X3.6299Y-2.2756
X3.6299Y-2.3504
X4.0Y-2.0591
X4.0039Y-1.7283
X4.0787Y-1.7283
X4.1535Y-1.7283
X4.561Y-2.2815
X4.6358Y-2.2815
X4.7106Y-2.2815
X4.9803Y-1.9016
X4.9803Y-2.0669
X5.0551Y-1.9016
X5.1299Y-1.9016
X5.8622Y-2.5984
X6.0177Y-2.5906
X6.063Y-2.5354
X6.0642Y-2.5906
X6.2402Y-2.4843
X6.2795Y-2.5472
X6.2874Y-2.3504
X6.2992Y-2.2874
X6.3386Y-1.9484
X6.3386Y-2.189
X6.3858Y-1.9209
X6.3996Y-2.1909
X6.439Y-1.8858
X6.4488Y-2.5787
X6.4557Y-2.6378
X6.4655Y-2.9066
X6.4867Y-2.6326
X6.4921Y-2.8898
X6.5Y-2.2441
X6.5118Y-2.1024
X6.5197Y-2.4213
X6.5197Y-2.4685
X6.5197Y-2.5157
X6.563Y-2.8284
X6.563Y-2.8599
X6.5669Y-2.4213
X6.5669Y-2.5157
X6.5669Y-2.7362
X6.5788Y-2.7057
X6.5973Y-2.7703
X6.6142Y-2.4213
X6.6142Y-2.4685
X6.6142Y-2.5157
X6.6314Y-2.239
X6.695Y-2.2287
X6.7126Y-2.7441
X6.7165Y-1.8976
X6.7323Y-2.8898
X6.7362Y-2.6575
X6.7473Y-2.8602
X6.7674Y-2.2128
X6.8307Y-2.5
X6.8433Y-2.5292
X6.8661Y-2.7126
X6.8661Y-2.8189
X6.8976Y-2.3268
X6.8976Y-2.3937
X6.8976Y-2.4646
X6.9055Y-2.6024
X6.9094Y-2.189
X6.9902Y-2.5728
X7.0118Y-2.189
X7.0276Y-1.9488
X7.1309Y-1.9331
X7.2283Y-2.3937
X7.3228Y-2.3937
X7.3268Y-2.5866
X7.3307Y-2.2008
T3
X4.0Y-1.9909
X4.0984Y-1.9909
X4.1772Y-1.9909
X4.2756Y-1.9909
X4.9803Y-1.9909
X5.0787Y-1.9909
X5.1575Y-1.9909
X5.2559Y-1.9909
X5.8504Y-1.7207
X5.9488Y-1.7207
X6.0276Y-1.7207
X6.126Y-1.7207
T4
X3.622Y-1.6732
X3.622Y-2.7953
X5.563Y-2.063
X6.5354Y-1.6732
X7.3228Y-1.6732
X7.3228Y-2.7953
T5
X5.7295Y-1.8274
X5.9882Y-1.9652
X6.2469Y-1.8274
T6
X3.8791Y-1.8843
X4.3965Y-1.8843
X4.8594Y-1.8843
X5.3768Y-1.8843
T2
G00X6.7779Y-1.5984
M15
G01X6.7779Y-1.5669
M16
G05
G00X6.7779Y-1.7689
M15
G01X6.7779Y-1.7256
M16
G05
G00X7.118Y-1.5984
M15
G01X7.118Y-1.5669
M16
G05
G00X7.118Y-1.7689
M15
G01X7.118Y-1.7256
M16
G05
M30
