%TF.GenerationSoftware,KiCad,Pcbnew,8.0.4*%
%TF.CreationDate,2024-10-18T15:09:14-05:00*%
%TF.ProjectId,numlocked_right,6e756d6c-6f63-46b6-9564-5f7269676874,rev?*%
%TF.SameCoordinates,Original*%
%TF.FileFunction,Profile,NP*%
%FSLAX46Y46*%
G04 Gerber Fmt 4.6, Leading zero omitted, Abs format (unit mm)*
G04 Created by KiCad (PCBNEW 8.0.4) date 2024-10-18 15:09:14*
%MOMM*%
%LPD*%
G01*
G04 APERTURE LIST*
%TA.AperFunction,Profile*%
%ADD10C,0.050000*%
%TD*%
G04 APERTURE END LIST*
D10*
X94012500Y-114516600D02*
X94012500Y-95466600D01*
X89250000Y-95466600D02*
X89250000Y-76416600D01*
X275168750Y-160000000D02*
X155925000Y-160000000D01*
X240000000Y-22000000D02*
X240000000Y-23000000D01*
X263000000Y-20000000D02*
X242000000Y-20000000D01*
X263000000Y-20000000D02*
G75*
G02*
X265000000Y-22000000I100J-1999900D01*
G01*
X228218750Y-25000000D02*
X235168750Y-25000000D01*
X105000000Y-25000000D02*
X100000000Y-25000000D01*
X155925000Y-133566600D02*
X155925000Y-160000000D01*
X240000000Y-23000000D02*
G75*
G02*
X238000000Y-25000000I-1999900J-100D01*
G01*
X275168750Y-25000000D02*
G75*
G02*
X277168700Y-27000000I50J-1999900D01*
G01*
X97500000Y-25000000D02*
X70200000Y-25000000D01*
X103537500Y-133566600D02*
X155925000Y-133566600D01*
X94012500Y-95466600D02*
X89250000Y-95466600D01*
X89250000Y-76416600D02*
X79725000Y-76416600D01*
X103537500Y-114516600D02*
X94012500Y-114516600D01*
X103537500Y-114516600D02*
X103537000Y-133566600D01*
X267000000Y-25000000D02*
G75*
G02*
X265000000Y-23000000I-100J1999900D01*
G01*
X70200000Y-52604100D02*
X70200000Y-25000000D01*
X265000000Y-23000000D02*
X265000000Y-22000000D01*
X277168750Y-158000000D02*
G75*
G02*
X275168750Y-159999950I-1999950J0D01*
G01*
X238000000Y-25000000D02*
X235168750Y-25000000D01*
X79725000Y-76416600D02*
X79725000Y-52604100D01*
X277168750Y-27000000D02*
X277168750Y-31000000D01*
X100000000Y-25000000D02*
X97500000Y-25000000D01*
X277168750Y-31000000D02*
X277168750Y-158000000D01*
X275168750Y-25000000D02*
X267000000Y-25000000D01*
X70200000Y-52604100D02*
X79725000Y-52604100D01*
X240000000Y-22000000D02*
G75*
G02*
X242000000Y-20000000I1999900J100D01*
G01*
X228218750Y-25000000D02*
X105000000Y-25000000D01*
M02*
