M48
; DRILL file {KiCad 8.0.4} date 2024-10-18T15:09:14-0500
; FORMAT={-:-/ absolute / inch / decimal}
; #@! TF.CreationDate,2024-10-18T15:09:14-05:00
; #@! TF.GenerationSoftware,Kicad,Pcbnew,8.0.4
; #@! TF.FileFunction,Plated,1,2,PTH
FMAT,2
INCH
; #@! TA.AperFunction,Plated,PTH,ViaDrill
T1C0.0118
; #@! TA.AperFunction,Plated,PTH,ViaDrill
T2C0.0197
; #@! TA.AperFunction,Plated,PTH,ComponentDrill
T3C0.0315
; #@! TA.AperFunction,Plated,PTH,ComponentDrill
T4C0.0866
%
G90
G05
T1
X3.0315Y-1.0472
X3.0903Y-1.881
X3.1299Y-1.881
X3.1496Y-1.2283
X3.1496Y-1.3346
X3.1693Y-1.881
X3.1772Y-1.0472
X3.189Y-1.2283
X3.189Y-1.3346
X3.2286Y-1.2283
X3.2286Y-1.3346
X3.2323Y-1.1496
X3.2323Y-2.1181
X3.3304Y-1.6133
X3.3465Y-1.2402
X3.3701Y-1.6133
X3.3793Y-2.1505
X3.3898Y-1.8386
X3.4094Y-1.6133
X3.4409Y-1.2813
X3.4409Y-1.4134
X3.4679Y-2.8365
X3.4837Y-2.1728
X3.4921Y-1.0512
X3.4989Y-1.5433
X3.5029Y-1.8386
X3.5075Y-2.8365
X3.5118Y-2.1251
X3.5157Y-1.7598
X3.5469Y-2.8365
X3.5659Y-1.4596
X3.5748Y-1.8189
X3.5748Y-2.0227
X3.5976Y-2.3176
X3.5984Y-2.1251
X3.6024Y-2.2362
X3.632Y-1.2127
X3.632Y-1.4617
X3.6339Y-1.8701
X3.6921Y-2.279
X3.7008Y-2.0079
X3.7441Y-2.5118
X3.7874Y-2.2323
X3.7899Y-2.1748
X3.7972Y-2.816
X3.8268Y-1.3898
X3.8287Y-2.0398
X3.8297Y-1.8465
X3.8307Y-1.2126
X3.8386Y-3.5625
X3.8421Y-3.0609
X3.863Y-2.751
X3.878Y-3.5625
X3.8803Y-2.3259
X3.8815Y-3.0609
X3.8858Y-1.0551
X3.9176Y-3.5625
X3.9211Y-3.0609
X3.9559Y-2.0658
X3.998Y-2.4341
X4.0193Y-4.3349
X4.0502Y-1.6182
X4.0506Y-1.8288
X4.0587Y-4.3349
X4.0748Y-1.8894
X4.0749Y-1.9908
X4.0749Y-2.1408
X4.0749Y-2.2471
X4.0896Y-1.6182
X4.0983Y-4.3349
X4.1181Y-3.2756
X4.1292Y-1.6182
X4.1535Y-5.1417
X4.1791Y-2.3042
X4.1791Y-2.3436
X4.1929Y-5.1417
X4.2154Y-4.0566
X4.2229Y-2.1098
X4.224Y-1.9428
X4.2325Y-5.1417
X4.252Y-1.1496
X4.252Y-1.2323
X4.2531Y-2.3073
X4.2547Y-4.0566
X4.2679Y-2.1118
X4.2889Y-2.1538
X4.2944Y-4.0566
X4.3031Y-3.8661
X4.3098Y-3.7936
X4.3369Y-1.7304
X4.3543Y-3.815
X4.3807Y-3.7215
X4.3812Y-2.5518
X4.4016Y-2.2402
X4.4134Y-3.7598
X4.4209Y-2.5518
X4.4359Y-2.0398
X4.4549Y-1.9871
X4.4559Y-2.3114
X4.4602Y-2.5518
X4.4685Y-4.5551
X4.5079Y-4.5551
X4.5323Y-3.8802
X4.5403Y-2.2121
X4.5475Y-4.5551
X4.5669Y-1.874
X4.5799Y-2.2121
X4.6142Y-4.626
X4.6189Y-2.3373
X4.6193Y-2.2121
X4.6457Y-5.1496
X4.7362Y-4.9055
X4.7622Y-4.7364
X4.7793Y-5.063
X4.7795Y-4.3066
X4.8189Y-4.3066
X4.8189Y-5.063
X4.8284Y-1.6104
X4.8346Y-4.6614
X4.8394Y-2.2207
X4.8406Y-2.0636
X4.8425Y-2.1562
X4.8504Y-4.9921
X4.8583Y-5.063
X4.8585Y-4.3066
X4.8661Y-3.2795
X4.8681Y-1.6104
X4.8752Y-2.2211
X4.8756Y-1.9408
X4.8858Y-1.0433
X4.9074Y-1.6104
X4.9134Y-4.9291
X4.9213Y-1.814
X4.9252Y-1.0433
X4.9299Y-2.3174
X4.9648Y-1.0433
X4.9829Y-1.9908
X4.9909Y-2.0908
X5.0239Y-1.7998
X5.0524Y-3.1007
X5.0551Y-4.0236
X5.0663Y-2.329
X5.1024Y-1.1732
X5.1059Y-2.329
X5.1063Y-5.0512
X5.1181Y-1.9408
X5.1229Y-2.0678
X5.1453Y-2.329
X5.1659Y-2.0178
X5.1732Y-1.1024
X5.1811Y-2.2388
X5.1879Y-2.0658
X5.2283Y-5.1867
X5.2441Y-2.5118
X5.2779Y-2.2924
X5.3173Y-2.287
X5.3249Y-2.1446
X5.326Y-5.1867
X5.3437Y-3.5723
X5.3489Y-2.0908
X5.3548Y-2.2855
X5.3831Y-3.5723
X5.3898Y-4.5827
X5.4094Y-2.2824
X5.4227Y-3.5723
X5.4291Y-4.5827
X5.4291Y-4.7795
X5.4559Y-2.0658
X5.4639Y-2.2814
X5.4688Y-4.5827
X5.5307Y-4.29
X5.5512Y-1.6142
X5.5701Y-4.29
X5.5906Y-1.6142
X5.6059Y-2.129
X5.6097Y-4.29
X5.6181Y-1.4252
X5.6181Y-3.2756
X5.6302Y-1.6142
X5.6417Y-5.0727
X5.6417Y-5.2172
X5.6441Y-3.8125
X5.6835Y-3.8125
X5.7231Y-3.8125
X5.7559Y-2.0658
X5.8031Y-4.0236
X5.8126Y-2.2424
X5.8196Y-1.8241
X5.8569Y-2.1408
X5.8919Y-1.9908
X5.8959Y-2.0908
X5.9047Y-5.0581
X5.9441Y-5.0581
X5.9479Y-1.7548
X5.9749Y-2.2994
X5.9837Y-5.0581
X5.9921Y-2.5197
X6.0197Y-2.0999
X6.0366Y-1.9412
X6.0439Y-2.3144
X6.0587Y-2.0168
X6.0839Y-2.3134
X6.085Y-2.1007
X6.0909Y-2.1478
X6.1349Y-2.3114
X6.1729Y-2.3104
X6.1811Y-4.7717
X6.189Y-2.2402
X6.2199Y-2.0398
X6.2399Y-2.3014
X6.2496Y-2.2022
X6.2598Y-4.6063
X6.2992Y-4.6063
X6.3159Y-2.2934
X6.3374Y-1.994
X6.3388Y-4.6063
X6.3512Y-1.8849
X6.3559Y-2.0658
X6.3661Y-3.2795
X6.4445Y-3.181
X6.4612Y-2.8207
X6.478Y-3.2007
X6.5008Y-2.8207
X6.5059Y-2.1262
X6.5075Y-2.9381
X6.51Y-2.253
X6.5402Y-2.8207
X6.5496Y-2.253
X6.5551Y-1.5827
X6.5551Y-3.8583
X6.565Y-2.9404
X6.589Y-2.253
X6.6559Y-2.0658
X6.6606Y-5.053
X6.6979Y-1.8237
X6.7Y-5.053
X6.7396Y-5.053
X6.7441Y-2.5197
X6.7441Y-5.5197
X6.7635Y-2.1444
X6.7815Y-1.9908
X6.7819Y-1.718
X6.7874Y-2.0918
X6.8049Y-3.0416
X6.8445Y-3.0416
X6.8663Y-2.289
X6.8839Y-3.0416
X6.8981Y-2.2889
X6.9291Y-4.7638
X6.9339Y-2.0858
X6.939Y-1.94
X6.9549Y-2.3354
X6.9567Y-2.9136
X6.9803Y-2.9404
X6.9829Y-2.0188
X6.9929Y-2.0578
X7.0087Y-2.2975
X7.0433Y-5.0109
X7.0433Y-5.2668
X7.048Y-2.292
X7.0705Y-2.7451
X7.0945Y-2.8255
X7.1101Y-2.7451
X7.1181Y-2.8587
X7.1181Y-3.2835
X7.1209Y-2.0918
X7.1248Y-2.2388
X7.1495Y-2.7451
X7.1509Y-2.1446
X7.1937Y-2.2562
X7.2165Y-2.229
X7.2197Y-1.8892
X7.2559Y-2.0658
X7.2677Y-1.1496
X7.3031Y-1.5906
X7.3052Y-4.0296
X7.3071Y-1.1496
X7.3248Y-2.3518
X7.3467Y-1.1496
X7.3666Y-1.7919
X7.4035Y-2.127
X7.4075Y-5.0507
X7.4091Y-1.374
X7.4094Y-1.1004
X7.4217Y-2.5495
X7.4469Y-5.0507
X7.4535Y-2.9562
X7.4602Y-1.3701
X7.4606Y-1.1437
X7.461Y-1.8373
X7.461Y-2.5495
X7.4865Y-5.0507
X7.4921Y-5.5276
X7.4929Y-2.9562
X7.5007Y-2.5495
X7.5306Y-1.8124
X7.5325Y-2.9562
X7.5346Y-2.3495
X7.5354Y-4.5148
X7.5559Y-2.0658
X7.5748Y-4.5148
X7.5953Y-3.5451
X7.6144Y-4.5148
X7.6346Y-3.5451
X7.6567Y-2.1408
X7.6743Y-3.5451
X7.6769Y-1.9908
X7.6811Y-4.7756
X7.6933Y-2.0908
X7.7339Y-5.0605
X7.7354Y-5.2499
X7.752Y-2.3302
X7.7598Y-2.2825
X7.7776Y-5.0636
X7.7776Y-5.2514
X7.7866Y-3.2947
X7.7953Y-2.4409
X7.811Y-2.0621
X7.8189Y-1.9428
X7.826Y-3.2947
X7.8268Y-2.292
X7.8504Y-2.0503
X7.8656Y-3.2947
X7.874Y-2.292
X7.8929Y-2.0778
X7.9173Y-2.292
X7.9921Y-2.437
X8.0236Y-2.2388
X8.0551Y-1.5866
X8.0551Y-4.0276
X8.1559Y-2.0658
X8.2441Y-5.5276
X8.2767Y-1.7488
X8.3075Y-2.1251
X8.3268Y-2.44
X8.3779Y-2.2364
X8.4063Y-1.3821
X8.4173Y-2.3062
X8.4287Y-5.0566
X8.4457Y-1.3821
X8.4559Y-2.0658
X8.4559Y-2.2374
X8.4559Y-2.3054
X8.4567Y-2.8298
X8.4681Y-5.0566
X8.4853Y-1.3821
X8.4961Y-2.8298
X8.5077Y-5.0566
X8.5357Y-2.8298
X8.55Y-2.316
X8.5799Y-1.9904
X8.6181Y-3.2717
X8.6791Y-4.5581
X8.7126Y-4.7717
X8.7185Y-4.5581
X8.7199Y-2.2124
X8.7244Y-1.9428
X8.7429Y-2.3042
X8.752Y-2.1999
X8.7575Y-2.0251
X8.7581Y-4.5581
X8.7849Y-2.3042
X8.7865Y-2.1982
X8.8031Y-1.5906
X8.8229Y-2.3042
X8.8508Y-5.0944
X8.8508Y-5.2444
X8.9071Y-2.9955
X8.9114Y-2.2408
X8.9276Y-1.9908
X8.9303Y-1.7924
X8.9476Y-2.3042
X8.948Y-2.0908
X8.9906Y-4.3314
X9.0299Y-4.3314
X9.0559Y-2.0658
X9.0696Y-4.3314
X9.1516Y-2.2038
X9.1811Y-5.7165
X9.1976Y-2.2518
X9.2047Y-2.1357
X9.274Y-4.0338
X9.2835Y-4.6408
X9.2858Y-3.5825
X9.3063Y-2.9384
X9.3252Y-3.5825
X9.3457Y-2.9384
X9.3559Y-2.0658
X9.3648Y-3.5825
X9.3661Y-2.5236
X9.3853Y-2.9384
X9.4018Y-4.8418
X9.4528Y-4.6723
X9.4803Y-2.6629
X9.5197Y-2.6629
X9.5317Y-1.1024
X9.5551Y-3.2756
X9.5593Y-2.6629
X9.622Y-1.9408
X9.6378Y-4.3259
X9.6559Y-2.0658
X9.6614Y-0.9873
X9.7441Y-1.5827
X9.7921Y-3.6121
X9.8071Y-3.029
X9.815Y-2.2402
X9.8315Y-3.6121
X9.8346Y-4.3967
X9.8386Y-1.9065
X9.8396Y-1.9408
X9.8425Y-2.6684
X9.8465Y-3.029
X9.8547Y-5.2759
X9.8553Y-0.8514
X9.8711Y-3.6121
X9.8728Y-4.6207
X9.874Y-0.9873
X9.874Y-4.3967
X9.8819Y-2.6684
X9.8861Y-3.029
X9.8937Y-0.9213
X9.8996Y-1.874
X9.9122Y-4.6207
X9.9136Y-4.3967
X9.9215Y-2.6684
X9.9291Y-4.9646
X9.9302Y-5.7244
X9.9518Y-4.6207
X9.9559Y-2.0658
X9.9898Y-2.2074
X10.0201Y-4.6723
X10.0719Y-1.8003
X10.0752Y-5.2782
X10.0764Y-4.6762
X10.1252Y-4.9058
X10.1409Y-1.9786
X10.1417Y-1.9321
X10.1517Y-2.3684
X10.1646Y-4.9058
X10.2042Y-4.9058
X10.2563Y-3.7223
X10.2957Y-3.7223
X10.314Y-1.061
X10.3353Y-3.7223
X10.3517Y-5.2105
X10.361Y-0.9304
X10.3612Y-1.1309
X10.3911Y-5.2105
X10.4012Y-1.9077
X10.4307Y-5.2105
X10.4406Y-1.9077
X10.4446Y-3.0774
X10.4576Y-2.942
X10.4626Y-2.1133
X10.4802Y-1.9077
X10.484Y-3.0774
X10.497Y-2.942
X10.502Y-2.1133
X10.5236Y-3.0774
X10.5366Y-2.942
X10.5416Y-2.1133
X10.6811Y-1.5866
X10.6811Y-2.5276
X10.6811Y-3.2717
X10.6811Y-4.0354
X10.6811Y-5.7165
X10.7411Y-1.4232
X10.7559Y-1.2303
X10.7953Y-1.2303
X10.8346Y-1.2303
X10.8703Y-1.4232
T2
X4.7039Y-1.8543
X4.7039Y-2.0398
X5.6079Y-1.8504
X5.6079Y-2.0398
X6.5079Y-1.8408
X6.5079Y-2.0398
X7.4059Y-1.8498
X7.4059Y-2.0398
X8.3049Y-1.8564
X8.3049Y-2.0398
X9.2009Y-1.8613
X9.2019Y-2.0398
T3
X2.9724Y-1.0838
X2.9724Y-1.1822
X2.9724Y-1.2806
X2.9724Y-1.379
X4.3529Y-5.0499
X4.4513Y-5.0499
X4.5497Y-5.0499
X4.6482Y-5.0499
X5.2275Y-5.0499
X5.326Y-5.0499
X5.4244Y-5.0499
X5.5228Y-5.0499
X10.7894Y-2.7956
X10.7894Y-2.8941
X10.7894Y-2.9925
X10.7894Y-3.0909
X10.7894Y-4.3657
X10.7894Y-4.4641
X10.7894Y-4.5626
X10.7894Y-4.661
T4
X2.9134Y-1.9214
X4.6309Y-3.0164
X6.2884Y-6.1417
X7.8184Y-4.5164
X9.8809Y-2.4414
X10.1378Y-0.9449
X10.7547Y-6.1417
M30
