%TF.GenerationSoftware,KiCad,Pcbnew,8.0.4*%
%TF.CreationDate,2024-10-30T12:37:52-05:00*%
%TF.ProjectId,numlocked_left_plate,6e756d6c-6f63-46b6-9564-5f6c6566745f,rev?*%
%TF.SameCoordinates,Original*%
%TF.FileFunction,Profile,NP*%
%FSLAX46Y46*%
G04 Gerber Fmt 4.6, Leading zero omitted, Abs format (unit mm)*
G04 Created by KiCad (PCBNEW 8.0.4) date 2024-10-30 12:37:52*
%MOMM*%
%LPD*%
G01*
G04 APERTURE LIST*
%TA.AperFunction,Profile*%
%ADD10C,0.200000*%
%TD*%
G04 APERTURE END LIST*
D10*
X62666350Y-125153972D02*
X62666350Y-119458128D01*
X62866400Y-125358500D02*
G75*
G02*
X62666347Y-125153972I100J200200D01*
G01*
X64269600Y-125358500D02*
X62866400Y-125358500D01*
X64269600Y-125358500D02*
G75*
G02*
X64469748Y-125554128I0J-200200D01*
G01*
X64469750Y-126322372D02*
X64469750Y-125554128D01*
X64669800Y-126526900D02*
G75*
G02*
X64469747Y-126322372I100J200200D01*
G01*
X67317750Y-126526900D02*
X64669800Y-126526900D01*
X67517750Y-126326900D02*
G75*
G02*
X67317750Y-126526850I-199950J0D01*
G01*
X67517750Y-125558500D02*
X67517750Y-126326900D01*
X67517750Y-125558500D02*
G75*
G02*
X67717750Y-125358550I199950J0D01*
G01*
X69321150Y-125358500D02*
X67717750Y-125358500D01*
X69321150Y-124771100D02*
X69321150Y-125358500D01*
X69321150Y-124771100D02*
G75*
G02*
X69521150Y-124571150I199950J0D01*
G01*
X70731600Y-124571100D02*
X69521150Y-124571100D01*
X70731600Y-124571100D02*
G75*
G02*
X70931748Y-124766728I0J-200200D01*
G01*
X70931750Y-125247400D02*
X70931750Y-124766728D01*
X71431800Y-125754500D02*
G75*
G02*
X70931748Y-125247400I100J500200D01*
G01*
X84431750Y-125754500D02*
X71431800Y-125754500D01*
X84931750Y-125254500D02*
G75*
G02*
X84431750Y-125754450I-499950J0D01*
G01*
X84931750Y-124771100D02*
X84931750Y-125254500D01*
X84931750Y-124771100D02*
G75*
G02*
X85131750Y-124571150I199950J0D01*
G01*
X86342200Y-124571100D02*
X85131750Y-124571100D01*
X86342200Y-124571100D02*
G75*
G02*
X86542348Y-124766728I0J-200200D01*
G01*
X86542350Y-125153972D02*
X86542350Y-124766728D01*
X86742400Y-125358500D02*
G75*
G02*
X86542347Y-125153972I100J200200D01*
G01*
X88145600Y-125358500D02*
X86742400Y-125358500D01*
X88145600Y-125358500D02*
G75*
G02*
X88345748Y-125554128I0J-200200D01*
G01*
X88345750Y-126322372D02*
X88345750Y-125554128D01*
X88545800Y-126526900D02*
G75*
G02*
X88345747Y-126322372I100J200200D01*
G01*
X91193750Y-126526900D02*
X88545800Y-126526900D01*
X91393750Y-126326900D02*
G75*
G02*
X91193750Y-126526850I-199950J0D01*
G01*
X91393750Y-125558500D02*
X91393750Y-126326900D01*
X91393750Y-125558500D02*
G75*
G02*
X91593750Y-125358550I199950J0D01*
G01*
X92997150Y-125358500D02*
X91593750Y-125358500D01*
X93197150Y-125158500D02*
G75*
G02*
X92997150Y-125358450I-199950J0D01*
G01*
X93197150Y-119462500D02*
X93197150Y-125158500D01*
X93197150Y-119462500D02*
G75*
G02*
X93397150Y-119262550I199950J0D01*
G01*
X93860750Y-119262500D02*
X93397150Y-119262500D01*
X94060750Y-119062500D02*
G75*
G02*
X93860750Y-119262450I-199950J0D01*
G01*
X94060750Y-116673072D02*
X94060750Y-119062500D01*
X93860700Y-116468500D02*
G75*
G02*
X94060752Y-116673072I-100J-200200D01*
G01*
X93397300Y-116468500D02*
X93860700Y-116468500D01*
X93397300Y-116468500D02*
G75*
G02*
X93197151Y-116272828I0J200200D01*
G01*
X93197150Y-113269472D02*
X93197150Y-116272828D01*
X92997100Y-113064900D02*
G75*
G02*
X93197152Y-113269472I-100J-200200D01*
G01*
X86542350Y-113064900D02*
X92997100Y-113064900D01*
X86542350Y-113677700D02*
X86542350Y-113064900D01*
X86542350Y-113677700D02*
G75*
G02*
X86342350Y-113877650I-199950J0D01*
G01*
X85131900Y-113877700D02*
X86342350Y-113877700D01*
X85131900Y-113877700D02*
G75*
G02*
X84931751Y-113682028I0J200200D01*
G01*
X84931750Y-112261671D02*
X84931750Y-113682028D01*
X84431700Y-111754500D02*
G75*
G02*
X84931751Y-112261671I-100J-500200D01*
G01*
X71431750Y-111754500D02*
X84431700Y-111754500D01*
X70931750Y-112254500D02*
G75*
G02*
X71431750Y-111754550I499950J0D01*
G01*
X70931750Y-113677700D02*
X70931750Y-112254500D01*
X70931750Y-113677700D02*
G75*
G02*
X70731750Y-113877650I-199950J0D01*
G01*
X69521300Y-113877700D02*
X70731750Y-113877700D01*
X69521300Y-113877700D02*
G75*
G02*
X69321151Y-113682028I0J200200D01*
G01*
X69321150Y-113269472D02*
X69321150Y-113682028D01*
X69121100Y-113064900D02*
G75*
G02*
X69321152Y-113269472I-100J-200200D01*
G01*
X62866350Y-113064900D02*
X69121100Y-113064900D01*
X62666350Y-113264900D02*
G75*
G02*
X62866350Y-113064950I199950J0D01*
G01*
X62666350Y-116268500D02*
X62666350Y-113264900D01*
X62666350Y-116268500D02*
G75*
G02*
X62466350Y-116468450I-199950J0D01*
G01*
X62002750Y-116468500D02*
X62466350Y-116468500D01*
X61802750Y-116668500D02*
G75*
G02*
X62002750Y-116468550I199950J0D01*
G01*
X61802750Y-119057972D02*
X61802750Y-116668500D01*
X62002800Y-119262500D02*
G75*
G02*
X61802747Y-119057972I100J200200D01*
G01*
X62466200Y-119262500D02*
X62002800Y-119262500D01*
X62466200Y-119262500D02*
G75*
G02*
X62666348Y-119458128I0J-200200D01*
G01*
X134409000Y-27130000D02*
G75*
G02*
X134209000Y-26930000I0J200000D01*
G01*
X139447000Y-27130000D02*
X134409000Y-27130000D01*
X139647000Y-26930000D02*
G75*
G02*
X139447000Y-27130000I-200000J0D01*
G01*
X139647000Y-23130000D02*
X139647000Y-26930000D01*
X139447000Y-22930000D02*
G75*
G02*
X139647000Y-23130000I0J-200000D01*
G01*
X134409000Y-22930000D02*
X139447000Y-22930000D01*
X134209000Y-23130000D02*
G75*
G02*
X134409000Y-22930000I200000J0D01*
G01*
X134209000Y-26930000D02*
X134209000Y-23130000D01*
X109031750Y-131304500D02*
G75*
G02*
X109531750Y-130804550I499950J0D01*
G01*
X109031750Y-144297400D02*
X109031750Y-131304500D01*
X109531800Y-144804500D02*
G75*
G02*
X109031748Y-144297400I100J500200D01*
G01*
X122531750Y-144804500D02*
X109531800Y-144804500D01*
X123031750Y-144304500D02*
G75*
G02*
X122531750Y-144804450I-499950J0D01*
G01*
X123031750Y-131311671D02*
X123031750Y-144304500D01*
X122531700Y-130804500D02*
G75*
G02*
X123031751Y-131311671I-100J-500200D01*
G01*
X109531750Y-130804500D02*
X122531700Y-130804500D01*
X85219250Y-131304500D02*
G75*
G02*
X85719250Y-130804550I499950J0D01*
G01*
X85219250Y-144297400D02*
X85219250Y-131304500D01*
X85719300Y-144804500D02*
G75*
G02*
X85219248Y-144297400I100J500200D01*
G01*
X98719250Y-144804500D02*
X85719300Y-144804500D01*
X99219250Y-144304500D02*
G75*
G02*
X98719250Y-144804450I-499950J0D01*
G01*
X99219250Y-131311671D02*
X99219250Y-144304500D01*
X98719200Y-130804500D02*
G75*
G02*
X99219251Y-131311671I-100J-500200D01*
G01*
X85719250Y-130804500D02*
X98719200Y-130804500D01*
X61406750Y-131304500D02*
G75*
G02*
X61906750Y-130804550I499950J0D01*
G01*
X61406750Y-144297400D02*
X61406750Y-131304500D01*
X61906800Y-144804500D02*
G75*
G02*
X61406748Y-144297400I100J500200D01*
G01*
X74906750Y-144804500D02*
X61906800Y-144804500D01*
X75406750Y-144304500D02*
G75*
G02*
X74906750Y-144804450I-499950J0D01*
G01*
X75406750Y-131311671D02*
X75406750Y-144304500D01*
X74906600Y-130804500D02*
G75*
G02*
X75406751Y-131311671I0J-500200D01*
G01*
X61906750Y-130804500D02*
X74906600Y-130804500D01*
X35213000Y-131304500D02*
G75*
G02*
X35713000Y-130804500I500000J0D01*
G01*
X35213000Y-144304500D02*
X35213000Y-131304500D01*
X35713000Y-144804500D02*
G75*
G02*
X35213000Y-144304500I0J500000D01*
G01*
X48713000Y-144804500D02*
X35713000Y-144804500D01*
X49213000Y-144304500D02*
G75*
G02*
X48713000Y-144804500I-500000J0D01*
G01*
X49213000Y-131304500D02*
X49213000Y-144304500D01*
X48713000Y-130804500D02*
G75*
G02*
X49213000Y-131304500I0J-500000D01*
G01*
X35713000Y-130804500D02*
X48713000Y-130804500D01*
X178088000Y-112254500D02*
G75*
G02*
X178588000Y-111754500I500000J0D01*
G01*
X178088000Y-125254500D02*
X178088000Y-112254500D01*
X178588000Y-125754500D02*
G75*
G02*
X178088000Y-125254500I0J500000D01*
G01*
X191588000Y-125754500D02*
X178588000Y-125754500D01*
X192088000Y-125254500D02*
G75*
G02*
X191588000Y-125754500I-500000J0D01*
G01*
X192088000Y-112254500D02*
X192088000Y-125254500D01*
X191588000Y-111754500D02*
G75*
G02*
X192088000Y-112254500I0J-500000D01*
G01*
X178588000Y-111754500D02*
X191588000Y-111754500D01*
X159038000Y-112254500D02*
G75*
G02*
X159538000Y-111754500I500000J0D01*
G01*
X159038000Y-125254500D02*
X159038000Y-112254500D01*
X159538000Y-125754500D02*
G75*
G02*
X159038000Y-125254500I0J500000D01*
G01*
X172538000Y-125754500D02*
X159538000Y-125754500D01*
X173038000Y-125254500D02*
G75*
G02*
X172538000Y-125754500I-500000J0D01*
G01*
X173038000Y-112254500D02*
X173038000Y-125254500D01*
X172538000Y-111754500D02*
G75*
G02*
X173038000Y-112254500I0J-500000D01*
G01*
X159538000Y-111754500D02*
X172538000Y-111754500D01*
X139988000Y-112254500D02*
G75*
G02*
X140488000Y-111754500I500000J0D01*
G01*
X139988000Y-125254500D02*
X139988000Y-112254500D01*
X140488000Y-125754500D02*
G75*
G02*
X139988000Y-125254500I0J500000D01*
G01*
X153488000Y-125754500D02*
X140488000Y-125754500D01*
X153988000Y-125254500D02*
G75*
G02*
X153488000Y-125754500I-500000J0D01*
G01*
X153988000Y-112254500D02*
X153988000Y-125254500D01*
X153488000Y-111754500D02*
G75*
G02*
X153988000Y-112254500I0J-500000D01*
G01*
X140488000Y-111754500D02*
X153488000Y-111754500D01*
X120938000Y-112254500D02*
G75*
G02*
X121438000Y-111754500I500000J0D01*
G01*
X120938000Y-125254500D02*
X120938000Y-112254500D01*
X121438000Y-125754500D02*
G75*
G02*
X120938000Y-125254500I0J500000D01*
G01*
X134438000Y-125754500D02*
X121438000Y-125754500D01*
X134938000Y-125254500D02*
G75*
G02*
X134438000Y-125754500I-500000J0D01*
G01*
X134938000Y-112254500D02*
X134938000Y-125254500D01*
X134438000Y-111754500D02*
G75*
G02*
X134938000Y-112254500I0J-500000D01*
G01*
X121438000Y-111754500D02*
X134438000Y-111754500D01*
X101888000Y-112254500D02*
G75*
G02*
X102388000Y-111754500I500000J0D01*
G01*
X101888000Y-125254500D02*
X101888000Y-112254500D01*
X102388000Y-125754500D02*
G75*
G02*
X101888000Y-125254500I0J500000D01*
G01*
X115388000Y-125754500D02*
X102388000Y-125754500D01*
X115888000Y-125254500D02*
G75*
G02*
X115388000Y-125754500I-500000J0D01*
G01*
X115888000Y-112254500D02*
X115888000Y-125254500D01*
X115388000Y-111754500D02*
G75*
G02*
X115888000Y-112254500I0J-500000D01*
G01*
X102388000Y-111754500D02*
X115388000Y-111754500D01*
X35213000Y-112254500D02*
G75*
G02*
X35713000Y-111754500I500000J0D01*
G01*
X35213000Y-125254500D02*
X35213000Y-112254500D01*
X35713000Y-125754500D02*
G75*
G02*
X35213000Y-125254500I0J500000D01*
G01*
X48713000Y-125754500D02*
X35713000Y-125754500D01*
X49213000Y-125254500D02*
G75*
G02*
X48713000Y-125754500I-500000J0D01*
G01*
X49213000Y-112254500D02*
X49213000Y-125254500D01*
X48713000Y-111754500D02*
G75*
G02*
X49213000Y-112254500I0J-500000D01*
G01*
X35713000Y-111754500D02*
X48713000Y-111754500D01*
X168563000Y-93204500D02*
G75*
G02*
X169063000Y-92704500I500000J0D01*
G01*
X168563000Y-106204500D02*
X168563000Y-93204500D01*
X169063000Y-106704500D02*
G75*
G02*
X168563000Y-106204500I0J500000D01*
G01*
X182063000Y-106704500D02*
X169063000Y-106704500D01*
X182563000Y-106204500D02*
G75*
G02*
X182063000Y-106704500I-500000J0D01*
G01*
X182563000Y-93204500D02*
X182563000Y-106204500D01*
X182063000Y-92704500D02*
G75*
G02*
X182563000Y-93204500I0J-500000D01*
G01*
X169063000Y-92704500D02*
X182063000Y-92704500D01*
X149513000Y-93204500D02*
G75*
G02*
X150013000Y-92704500I500000J0D01*
G01*
X149513000Y-106204500D02*
X149513000Y-93204500D01*
X150013000Y-106704500D02*
G75*
G02*
X149513000Y-106204500I0J500000D01*
G01*
X163013000Y-106704500D02*
X150013000Y-106704500D01*
X163513000Y-106204500D02*
G75*
G02*
X163013000Y-106704500I-500000J0D01*
G01*
X163513000Y-93204500D02*
X163513000Y-106204500D01*
X163013000Y-92704500D02*
G75*
G02*
X163513000Y-93204500I0J-500000D01*
G01*
X150013000Y-92704500D02*
X163013000Y-92704500D01*
X130463000Y-93204500D02*
G75*
G02*
X130963000Y-92704500I500000J0D01*
G01*
X130463000Y-106204500D02*
X130463000Y-93204500D01*
X130963000Y-106704500D02*
G75*
G02*
X130463000Y-106204500I0J500000D01*
G01*
X143963000Y-106704500D02*
X130963000Y-106704500D01*
X144463000Y-106204500D02*
G75*
G02*
X143963000Y-106704500I-500000J0D01*
G01*
X144463000Y-93204500D02*
X144463000Y-106204500D01*
X143963000Y-92704500D02*
G75*
G02*
X144463000Y-93204500I0J-500000D01*
G01*
X130963000Y-92704500D02*
X143963000Y-92704500D01*
X111413000Y-93204500D02*
G75*
G02*
X111913000Y-92704500I500000J0D01*
G01*
X111413000Y-106204500D02*
X111413000Y-93204500D01*
X111913000Y-106704500D02*
G75*
G02*
X111413000Y-106204500I0J500000D01*
G01*
X124913000Y-106704500D02*
X111913000Y-106704500D01*
X125413000Y-106204500D02*
G75*
G02*
X124913000Y-106704500I-500000J0D01*
G01*
X125413000Y-93204500D02*
X125413000Y-106204500D01*
X124913000Y-92704500D02*
G75*
G02*
X125413000Y-93204500I0J-500000D01*
G01*
X111913000Y-92704500D02*
X124913000Y-92704500D01*
X92363000Y-93204500D02*
G75*
G02*
X92863000Y-92704500I500000J0D01*
G01*
X92363000Y-106204500D02*
X92363000Y-93204500D01*
X92863000Y-106704500D02*
G75*
G02*
X92363000Y-106204500I0J500000D01*
G01*
X105863000Y-106704500D02*
X92863000Y-106704500D01*
X106363000Y-106204500D02*
G75*
G02*
X105863000Y-106704500I-500000J0D01*
G01*
X106363000Y-93204500D02*
X106363000Y-106204500D01*
X105863000Y-92704500D02*
G75*
G02*
X106363000Y-93204500I0J-500000D01*
G01*
X92863000Y-92704500D02*
X105863000Y-92704500D01*
X66169250Y-93204500D02*
G75*
G02*
X66669250Y-92704550I499950J0D01*
G01*
X66169250Y-106197400D02*
X66169250Y-93204500D01*
X66669300Y-106704500D02*
G75*
G02*
X66169248Y-106197400I100J500200D01*
G01*
X79669250Y-106704500D02*
X66669300Y-106704500D01*
X80169250Y-106204500D02*
G75*
G02*
X79669250Y-106704450I-499950J0D01*
G01*
X80169250Y-93211671D02*
X80169250Y-106204500D01*
X79669200Y-92704500D02*
G75*
G02*
X80169251Y-93211671I-100J-500200D01*
G01*
X66669250Y-92704500D02*
X79669200Y-92704500D01*
X35213000Y-93204500D02*
G75*
G02*
X35713000Y-92704500I500000J0D01*
G01*
X35213000Y-106204500D02*
X35213000Y-93204500D01*
X35713000Y-106704500D02*
G75*
G02*
X35213000Y-106204500I0J500000D01*
G01*
X48713000Y-106704500D02*
X35713000Y-106704500D01*
X49213000Y-106204500D02*
G75*
G02*
X48713000Y-106704500I-500000J0D01*
G01*
X49213000Y-93204500D02*
X49213000Y-106204500D01*
X48713000Y-92704500D02*
G75*
G02*
X49213000Y-93204500I0J-500000D01*
G01*
X35713000Y-92704500D02*
X48713000Y-92704500D01*
X163800500Y-74154500D02*
G75*
G02*
X164300500Y-73654500I500000J0D01*
G01*
X163800500Y-87154500D02*
X163800500Y-74154500D01*
X164300500Y-87654500D02*
G75*
G02*
X163800500Y-87154500I0J500000D01*
G01*
X177300500Y-87654500D02*
X164300500Y-87654500D01*
X177800500Y-87154500D02*
G75*
G02*
X177300500Y-87654500I-500000J0D01*
G01*
X177800500Y-74154500D02*
X177800500Y-87154500D01*
X177300500Y-73654500D02*
G75*
G02*
X177800500Y-74154500I0J-500000D01*
G01*
X164300500Y-73654500D02*
X177300500Y-73654500D01*
X144750500Y-74154500D02*
G75*
G02*
X145250500Y-73654500I500000J0D01*
G01*
X144750500Y-87154500D02*
X144750500Y-74154500D01*
X145250500Y-87654500D02*
G75*
G02*
X144750500Y-87154500I0J500000D01*
G01*
X158250500Y-87654500D02*
X145250500Y-87654500D01*
X158750500Y-87154500D02*
G75*
G02*
X158250500Y-87654500I-500000J0D01*
G01*
X158750500Y-74154500D02*
X158750500Y-87154500D01*
X158250500Y-73654500D02*
G75*
G02*
X158750500Y-74154500I0J-500000D01*
G01*
X145250500Y-73654500D02*
X158250500Y-73654500D01*
X125700500Y-74154500D02*
G75*
G02*
X126200500Y-73654500I500000J0D01*
G01*
X125700500Y-87154500D02*
X125700500Y-74154500D01*
X126200500Y-87654500D02*
G75*
G02*
X125700500Y-87154500I0J500000D01*
G01*
X139200500Y-87654500D02*
X126200500Y-87654500D01*
X139700500Y-87154500D02*
G75*
G02*
X139200500Y-87654500I-500000J0D01*
G01*
X139700500Y-74154500D02*
X139700500Y-87154500D01*
X139200500Y-73654500D02*
G75*
G02*
X139700500Y-74154500I0J-500000D01*
G01*
X126200500Y-73654500D02*
X139200500Y-73654500D01*
X106650500Y-74154500D02*
G75*
G02*
X107150500Y-73654500I500000J0D01*
G01*
X106650500Y-87154500D02*
X106650500Y-74154500D01*
X107150500Y-87654500D02*
G75*
G02*
X106650500Y-87154500I0J500000D01*
G01*
X120150500Y-87654500D02*
X107150500Y-87654500D01*
X120650500Y-87154500D02*
G75*
G02*
X120150500Y-87654500I-500000J0D01*
G01*
X120650500Y-74154500D02*
X120650500Y-87154500D01*
X120150500Y-73654500D02*
G75*
G02*
X120650500Y-74154500I0J-500000D01*
G01*
X107150500Y-73654500D02*
X120150500Y-73654500D01*
X87600500Y-74154500D02*
G75*
G02*
X88100500Y-73654500I500000J0D01*
G01*
X87600500Y-87154500D02*
X87600500Y-74154500D01*
X88100500Y-87654500D02*
G75*
G02*
X87600500Y-87154500I0J500000D01*
G01*
X101100500Y-87654500D02*
X88100500Y-87654500D01*
X101600500Y-87154500D02*
G75*
G02*
X101100500Y-87654500I-500000J0D01*
G01*
X101600500Y-74154500D02*
X101600500Y-87154500D01*
X101100500Y-73654500D02*
G75*
G02*
X101600500Y-74154500I0J-500000D01*
G01*
X88100500Y-73654500D02*
X101100500Y-73654500D01*
X63788000Y-74154500D02*
G75*
G02*
X64288000Y-73654500I500000J0D01*
G01*
X63788000Y-87154500D02*
X63788000Y-74154500D01*
X64288000Y-87654500D02*
G75*
G02*
X63788000Y-87154500I0J500000D01*
G01*
X77288000Y-87654500D02*
X64288000Y-87654500D01*
X77788000Y-87154500D02*
G75*
G02*
X77288000Y-87654500I-500000J0D01*
G01*
X77788000Y-74154500D02*
X77788000Y-87154500D01*
X77288000Y-73654500D02*
G75*
G02*
X77788000Y-74154500I0J-500000D01*
G01*
X64288000Y-73654500D02*
X77288000Y-73654500D01*
X35213000Y-74154500D02*
G75*
G02*
X35713000Y-73654500I500000J0D01*
G01*
X35213000Y-87154500D02*
X35213000Y-74154500D01*
X35713000Y-87654500D02*
G75*
G02*
X35213000Y-87154500I0J500000D01*
G01*
X48713000Y-87654500D02*
X35713000Y-87654500D01*
X49213000Y-87154500D02*
G75*
G02*
X48713000Y-87654500I-500000J0D01*
G01*
X49213000Y-74154500D02*
X49213000Y-87154500D01*
X48713000Y-73654500D02*
G75*
G02*
X49213000Y-74154500I0J-500000D01*
G01*
X35713000Y-73654500D02*
X48713000Y-73654500D01*
X154275500Y-55104500D02*
G75*
G02*
X154775500Y-54604500I500000J0D01*
G01*
X154275500Y-68104500D02*
X154275500Y-55104500D01*
X154775500Y-68604500D02*
G75*
G02*
X154275500Y-68104500I0J500000D01*
G01*
X167775500Y-68604500D02*
X154775500Y-68604500D01*
X168275500Y-68104500D02*
G75*
G02*
X167775500Y-68604500I-500000J0D01*
G01*
X168275500Y-55104500D02*
X168275500Y-68104500D01*
X167775500Y-54604500D02*
G75*
G02*
X168275500Y-55104500I0J-500000D01*
G01*
X154775500Y-54604500D02*
X167775500Y-54604500D01*
X135225500Y-55104500D02*
G75*
G02*
X135725500Y-54604500I500000J0D01*
G01*
X135225500Y-68104500D02*
X135225500Y-55104500D01*
X135725500Y-68604500D02*
G75*
G02*
X135225500Y-68104500I0J500000D01*
G01*
X148725500Y-68604500D02*
X135725500Y-68604500D01*
X149225500Y-68104500D02*
G75*
G02*
X148725500Y-68604500I-500000J0D01*
G01*
X149225500Y-55104500D02*
X149225500Y-68104500D01*
X148725500Y-54604500D02*
G75*
G02*
X149225500Y-55104500I0J-500000D01*
G01*
X135725500Y-54604500D02*
X148725500Y-54604500D01*
X116175500Y-55104500D02*
G75*
G02*
X116675500Y-54604500I500000J0D01*
G01*
X116175500Y-68104500D02*
X116175500Y-55104500D01*
X116675500Y-68604500D02*
G75*
G02*
X116175500Y-68104500I0J500000D01*
G01*
X129675500Y-68604500D02*
X116675500Y-68604500D01*
X130175500Y-68104500D02*
G75*
G02*
X129675500Y-68604500I-500000J0D01*
G01*
X130175500Y-55104500D02*
X130175500Y-68104500D01*
X129675500Y-54604500D02*
G75*
G02*
X130175500Y-55104500I0J-500000D01*
G01*
X116675500Y-54604500D02*
X129675500Y-54604500D01*
X97125500Y-55104500D02*
G75*
G02*
X97625500Y-54604500I500000J0D01*
G01*
X97125500Y-68104500D02*
X97125500Y-55104500D01*
X97625500Y-68604500D02*
G75*
G02*
X97125500Y-68104500I0J500000D01*
G01*
X110625500Y-68604500D02*
X97625500Y-68604500D01*
X111125500Y-68104500D02*
G75*
G02*
X110625500Y-68604500I-500000J0D01*
G01*
X111125500Y-55104500D02*
X111125500Y-68104500D01*
X110625500Y-54604500D02*
G75*
G02*
X111125500Y-55104500I0J-500000D01*
G01*
X97625500Y-54604500D02*
X110625500Y-54604500D01*
X78075500Y-55104500D02*
G75*
G02*
X78575500Y-54604500I500000J0D01*
G01*
X78075500Y-68104500D02*
X78075500Y-55104500D01*
X78575500Y-68604500D02*
G75*
G02*
X78075500Y-68104500I0J500000D01*
G01*
X91575500Y-68604500D02*
X78575500Y-68604500D01*
X92075500Y-68104500D02*
G75*
G02*
X91575500Y-68604500I-500000J0D01*
G01*
X92075500Y-55104500D02*
X92075500Y-68104500D01*
X91575500Y-54604500D02*
G75*
G02*
X92075500Y-55104500I0J-500000D01*
G01*
X78575500Y-54604500D02*
X91575500Y-54604500D01*
X59025500Y-55104500D02*
G75*
G02*
X59525500Y-54604500I500000J0D01*
G01*
X59025500Y-68104500D02*
X59025500Y-55104500D01*
X59525500Y-68604500D02*
G75*
G02*
X59025500Y-68104500I0J500000D01*
G01*
X72525500Y-68604500D02*
X59525500Y-68604500D01*
X73025500Y-68104500D02*
G75*
G02*
X72525500Y-68604500I-500000J0D01*
G01*
X73025500Y-55104500D02*
X73025500Y-68104500D01*
X72525500Y-54604500D02*
G75*
G02*
X73025500Y-55104500I0J-500000D01*
G01*
X59525500Y-54604500D02*
X72525500Y-54604500D01*
X35213000Y-55104500D02*
G75*
G02*
X35713000Y-54604500I500000J0D01*
G01*
X35213000Y-68104500D02*
X35213000Y-55104500D01*
X35713000Y-68604500D02*
G75*
G02*
X35213000Y-68104500I0J500000D01*
G01*
X48713000Y-68604500D02*
X35713000Y-68604500D01*
X49213000Y-68104500D02*
G75*
G02*
X48713000Y-68604500I-500000J0D01*
G01*
X49213000Y-55104500D02*
X49213000Y-68104500D01*
X48713000Y-54604500D02*
G75*
G02*
X49213000Y-55104500I0J-500000D01*
G01*
X35713000Y-54604500D02*
X48713000Y-54604500D01*
X139988000Y-31292000D02*
G75*
G02*
X140488000Y-30792000I500000J0D01*
G01*
X139988000Y-44292000D02*
X139988000Y-31292000D01*
X140488000Y-44792000D02*
G75*
G02*
X139988000Y-44292000I0J500000D01*
G01*
X153488000Y-44792000D02*
X140488000Y-44792000D01*
X153988000Y-44292000D02*
G75*
G02*
X153488000Y-44792000I-500000J0D01*
G01*
X153988000Y-31292000D02*
X153988000Y-44292000D01*
X153488000Y-30792000D02*
G75*
G02*
X153988000Y-31292000I0J-500000D01*
G01*
X140488000Y-30792000D02*
X153488000Y-30792000D01*
X120938000Y-31292000D02*
G75*
G02*
X121438000Y-30792000I500000J0D01*
G01*
X120938000Y-44292000D02*
X120938000Y-31292000D01*
X121438000Y-44792000D02*
G75*
G02*
X120938000Y-44292000I0J500000D01*
G01*
X134438000Y-44792000D02*
X121438000Y-44792000D01*
X134938000Y-44292000D02*
G75*
G02*
X134438000Y-44792000I-500000J0D01*
G01*
X134938000Y-31292000D02*
X134938000Y-44292000D01*
X134438000Y-30792000D02*
G75*
G02*
X134938000Y-31292000I0J-500000D01*
G01*
X121438000Y-30792000D02*
X134438000Y-30792000D01*
X101888000Y-31292000D02*
G75*
G02*
X102388000Y-30792000I500000J0D01*
G01*
X101888000Y-44292000D02*
X101888000Y-31292000D01*
X102388000Y-44792000D02*
G75*
G02*
X101888000Y-44292000I0J500000D01*
G01*
X115388000Y-44792000D02*
X102388000Y-44792000D01*
X115888000Y-44292000D02*
G75*
G02*
X115388000Y-44792000I-500000J0D01*
G01*
X115888000Y-31292000D02*
X115888000Y-44292000D01*
X115388000Y-30792000D02*
G75*
G02*
X115888000Y-31292000I0J-500000D01*
G01*
X102388000Y-30792000D02*
X115388000Y-30792000D01*
X82838000Y-31292000D02*
G75*
G02*
X83338000Y-30792000I500000J0D01*
G01*
X82838000Y-44292000D02*
X82838000Y-31292000D01*
X83338000Y-44792000D02*
G75*
G02*
X82838000Y-44292000I0J500000D01*
G01*
X96338000Y-44792000D02*
X83338000Y-44792000D01*
X96838000Y-44292000D02*
G75*
G02*
X96338000Y-44792000I-500000J0D01*
G01*
X96838000Y-31292000D02*
X96838000Y-44292000D01*
X96338000Y-30792000D02*
G75*
G02*
X96838000Y-31292000I0J-500000D01*
G01*
X83338000Y-30792000D02*
X96338000Y-30792000D01*
X59025500Y-31292000D02*
G75*
G02*
X59525500Y-30792000I500000J0D01*
G01*
X59025500Y-44292000D02*
X59025500Y-31292000D01*
X59525500Y-44792000D02*
G75*
G02*
X59025500Y-44292000I0J500000D01*
G01*
X72525500Y-44792000D02*
X59525500Y-44792000D01*
X73025500Y-44292000D02*
G75*
G02*
X72525500Y-44792000I-500000J0D01*
G01*
X73025500Y-31292000D02*
X73025500Y-44292000D01*
X72525500Y-30792000D02*
G75*
G02*
X73025500Y-31292000I0J-500000D01*
G01*
X59525500Y-30792000D02*
X72525500Y-30792000D01*
X30407000Y-26799999D02*
X30407000Y-152512501D01*
X30407000Y-26799999D02*
G75*
G02*
X32406999Y-24800000I1999999J0D01*
G01*
X39300000Y-24800000D02*
X32406999Y-24800000D01*
X39300000Y-22900000D02*
X39300000Y-24800000D01*
X39300000Y-22900000D02*
G75*
G02*
X41300000Y-20900000I2000000J0D01*
G01*
X57100000Y-20900000D02*
X41300000Y-20900000D01*
X57100000Y-20900000D02*
G75*
G02*
X59100000Y-22900000I0J-2000000D01*
G01*
X59100000Y-24800000D02*
X59100000Y-22900000D01*
X85270000Y-24800000D02*
X59100000Y-24800000D01*
X85270000Y-27967000D02*
X85270000Y-24800000D01*
X126151000Y-27967000D02*
X85270000Y-27967000D01*
X126151000Y-20412000D02*
X126151000Y-27967000D01*
X161151000Y-20412000D02*
X126151000Y-20412000D01*
X161151000Y-47416500D02*
X161151000Y-20412000D01*
X170700500Y-47416500D02*
X161151000Y-47416500D01*
X170700500Y-71229500D02*
X170700500Y-47416500D01*
X180225500Y-71229500D02*
X170700500Y-71229500D01*
X180225500Y-90279500D02*
X180225500Y-71229500D01*
X184988000Y-90279500D02*
X180225500Y-90279500D01*
X184988000Y-109329500D02*
X184988000Y-90279500D01*
X194513250Y-109329500D02*
X184988000Y-109329500D01*
X194513250Y-128403500D02*
X194513250Y-109329500D01*
X247000500Y-128403500D02*
X194513250Y-128403500D01*
X247000500Y-154512500D02*
X247000500Y-128403500D01*
X226525750Y-154512500D02*
X247000500Y-154512500D01*
X226525750Y-157162500D02*
X226525750Y-154512500D01*
X171999750Y-157162500D02*
X226525750Y-157162500D01*
X171999750Y-154512500D02*
X171999750Y-157162500D01*
X130799750Y-154512500D02*
X171999750Y-154512500D01*
X130799750Y-157162500D02*
X130799750Y-154512500D01*
X51031750Y-157162500D02*
X130799750Y-157162500D01*
X51031750Y-154512500D02*
X51031750Y-157162500D01*
X32406999Y-154512500D02*
X51031750Y-154512500D01*
X32406999Y-154512500D02*
G75*
G02*
X30407000Y-152512501I0J1999999D01*
G01*
X234141850Y-144203972D02*
X234141850Y-140300128D01*
X234342000Y-144408500D02*
G75*
G02*
X234141847Y-144203972I0J200200D01*
G01*
X235745200Y-144408500D02*
X234342000Y-144408500D01*
X235745200Y-144408500D02*
G75*
G02*
X235945248Y-144604128I-100J-200200D01*
G01*
X235945250Y-145372372D02*
X235945250Y-144604128D01*
X236145400Y-145576900D02*
G75*
G02*
X235945247Y-145372372I0J200200D01*
G01*
X238993250Y-145576900D02*
X236145400Y-145576900D01*
X238993250Y-144608500D02*
X238993250Y-145576900D01*
X238993250Y-144608500D02*
G75*
G02*
X239193250Y-144408550I199950J0D01*
G01*
X240596650Y-144408500D02*
X239193250Y-144408500D01*
X240796650Y-144208500D02*
G75*
G02*
X240596650Y-144408450I-199950J0D01*
G01*
X240796650Y-138512500D02*
X240796650Y-144208500D01*
X240796650Y-138512500D02*
G75*
G02*
X240996650Y-138312550I199950J0D01*
G01*
X241660250Y-138312500D02*
X240996650Y-138312500D01*
X241660250Y-135723072D02*
X241660250Y-138312500D01*
X241460100Y-135518500D02*
G75*
G02*
X241660252Y-135723072I0J-200200D01*
G01*
X240996700Y-135518500D02*
X241460100Y-135518500D01*
X240996700Y-135518500D02*
G75*
G02*
X240796651Y-135322828I100J200200D01*
G01*
X240796650Y-132319472D02*
X240796650Y-135322828D01*
X240596500Y-132114900D02*
G75*
G02*
X240796652Y-132319472I0J-200200D01*
G01*
X234341850Y-132114900D02*
X240596500Y-132114900D01*
X234141850Y-132314900D02*
G75*
G02*
X234341850Y-132114950I199950J0D01*
G01*
X234141850Y-135304500D02*
X234141850Y-132314900D01*
X234141850Y-135304500D02*
G75*
G02*
X233941850Y-135504450I-199950J0D01*
G01*
X194669300Y-135504500D02*
X233941850Y-135504500D01*
X194669300Y-135504500D02*
G75*
G02*
X194469251Y-135308828I100J200200D01*
G01*
X194469250Y-131311671D02*
X194469250Y-135308828D01*
X193969100Y-130804500D02*
G75*
G02*
X194469251Y-131311671I0J-500200D01*
G01*
X180969250Y-130804500D02*
X193969100Y-130804500D01*
X180469250Y-131304500D02*
G75*
G02*
X180969250Y-130804550I499950J0D01*
G01*
X180469250Y-135504500D02*
X180469250Y-131304500D01*
X140996700Y-135504500D02*
X180469250Y-135504500D01*
X140996700Y-135504500D02*
G75*
G02*
X140796651Y-135308828I100J200200D01*
G01*
X140796650Y-132319472D02*
X140796650Y-135308828D01*
X140596500Y-132114900D02*
G75*
G02*
X140796652Y-132319472I0J-200200D01*
G01*
X134341850Y-132114900D02*
X140596500Y-132114900D01*
X134141850Y-132314900D02*
G75*
G02*
X134341850Y-132114950I199950J0D01*
G01*
X134141850Y-135318500D02*
X134141850Y-132314900D01*
X134141850Y-135318500D02*
G75*
G02*
X133941850Y-135518450I-199950J0D01*
G01*
X133478250Y-135518500D02*
X133941850Y-135518500D01*
X133278250Y-135718500D02*
G75*
G02*
X133478250Y-135518550I199950J0D01*
G01*
X133278250Y-138107972D02*
X133278250Y-135718500D01*
X133478400Y-138312500D02*
G75*
G02*
X133278247Y-138107972I0J200200D01*
G01*
X133941800Y-138312500D02*
X133478400Y-138312500D01*
X133941800Y-138312500D02*
G75*
G02*
X134141848Y-138508128I-100J-200200D01*
G01*
X134141850Y-144203972D02*
X134141850Y-138508128D01*
X134342000Y-144408500D02*
G75*
G02*
X134141847Y-144203972I0J200200D01*
G01*
X135745200Y-144408500D02*
X134342000Y-144408500D01*
X135745200Y-144408500D02*
G75*
G02*
X135945248Y-144604128I-100J-200200D01*
G01*
X135945250Y-145372372D02*
X135945250Y-144604128D01*
X136145400Y-145576900D02*
G75*
G02*
X135945247Y-145372372I0J200200D01*
G01*
X138793250Y-145576900D02*
X136145400Y-145576900D01*
X138993250Y-145376900D02*
G75*
G02*
X138793250Y-145576850I-199950J0D01*
G01*
X138993250Y-144608500D02*
X138993250Y-145376900D01*
X138993250Y-144608500D02*
G75*
G02*
X139193250Y-144408550I199950J0D01*
G01*
X140596650Y-144408500D02*
X139193250Y-144408500D01*
X140796650Y-144208500D02*
G75*
G02*
X140596650Y-144408450I-199950J0D01*
G01*
X140796650Y-140304500D02*
X140796650Y-144208500D01*
X140796650Y-140304500D02*
G75*
G02*
X140996650Y-140104550I199950J0D01*
G01*
X180469250Y-140104500D02*
X140996650Y-140104500D01*
X180469250Y-144297400D02*
X180469250Y-140104500D01*
X180969400Y-144804500D02*
G75*
G02*
X180469248Y-144297400I0J500200D01*
G01*
X193969250Y-144804500D02*
X180969400Y-144804500D01*
X194469250Y-144304500D02*
G75*
G02*
X193969250Y-144804450I-499950J0D01*
G01*
X194469250Y-140304500D02*
X194469250Y-144304500D01*
X194469250Y-140304500D02*
G75*
G02*
X194669250Y-140104550I199950J0D01*
G01*
X233941800Y-140104500D02*
X194669250Y-140104500D01*
X233941800Y-140104500D02*
G75*
G02*
X234141848Y-140300128I-100J-200200D01*
G01*
M02*
