%TF.GenerationSoftware,KiCad,Pcbnew,8.0.4*%
%TF.CreationDate,2025-06-24T22:11:05-05:00*%
%TF.ProjectId,numlocked_HUB,6e756d6c-6f63-46b6-9564-5f4855422e6b,rev?*%
%TF.SameCoordinates,Original*%
%TF.FileFunction,Paste,Top*%
%TF.FilePolarity,Positive*%
%FSLAX46Y46*%
G04 Gerber Fmt 4.6, Leading zero omitted, Abs format (unit mm)*
G04 Created by KiCad (PCBNEW 8.0.4) date 2025-06-24 22:11:05*
%MOMM*%
%LPD*%
G01*
G04 APERTURE LIST*
G04 Aperture macros list*
%AMRoundRect*
0 Rectangle with rounded corners*
0 $1 Rounding radius*
0 $2 $3 $4 $5 $6 $7 $8 $9 X,Y pos of 4 corners*
0 Add a 4 corners polygon primitive as box body*
4,1,4,$2,$3,$4,$5,$6,$7,$8,$9,$2,$3,0*
0 Add four circle primitives for the rounded corners*
1,1,$1+$1,$2,$3*
1,1,$1+$1,$4,$5*
1,1,$1+$1,$6,$7*
1,1,$1+$1,$8,$9*
0 Add four rect primitives between the rounded corners*
20,1,$1+$1,$2,$3,$4,$5,0*
20,1,$1+$1,$4,$5,$6,$7,0*
20,1,$1+$1,$6,$7,$8,$9,0*
20,1,$1+$1,$8,$9,$2,$3,0*%
G04 Aperture macros list end*
%ADD10C,0.000000*%
%ADD11RoundRect,0.225000X0.250000X-0.225000X0.250000X0.225000X-0.250000X0.225000X-0.250000X-0.225000X0*%
%ADD12RoundRect,0.200000X-0.200000X-0.275000X0.200000X-0.275000X0.200000X0.275000X-0.200000X0.275000X0*%
%ADD13R,0.600000X1.150000*%
%ADD14R,0.300000X1.150000*%
%ADD15R,0.660400X1.549400*%
%ADD16R,1.295400X1.905000*%
%ADD17RoundRect,0.225000X-0.225000X-0.250000X0.225000X-0.250000X0.225000X0.250000X-0.225000X0.250000X0*%
%ADD18R,1.066800X0.254000*%
%ADD19R,0.254000X1.066800*%
%ADD20RoundRect,0.225000X0.225000X0.250000X-0.225000X0.250000X-0.225000X-0.250000X0.225000X-0.250000X0*%
%ADD21RoundRect,0.200000X0.275000X-0.200000X0.275000X0.200000X-0.275000X0.200000X-0.275000X-0.200000X0*%
%ADD22RoundRect,0.250000X-0.325000X-0.650000X0.325000X-0.650000X0.325000X0.650000X-0.325000X0.650000X0*%
%ADD23RoundRect,0.200000X-0.275000X0.200000X-0.275000X-0.200000X0.275000X-0.200000X0.275000X0.200000X0*%
%ADD24RoundRect,0.200000X0.200000X0.275000X-0.200000X0.275000X-0.200000X-0.275000X0.200000X-0.275000X0*%
%ADD25R,1.092200X0.609600*%
%ADD26RoundRect,0.225000X-0.250000X0.225000X-0.250000X-0.225000X0.250000X-0.225000X0.250000X0.225000X0*%
%ADD27R,1.400000X1.200000*%
%ADD28RoundRect,0.375000X-0.625000X-0.375000X0.625000X-0.375000X0.625000X0.375000X-0.625000X0.375000X0*%
%ADD29RoundRect,0.500000X-0.500000X-1.400000X0.500000X-1.400000X0.500000X1.400000X-0.500000X1.400000X0*%
G04 APERTURE END LIST*
D10*
%TO.C,U1*%
G36*
X165518900Y-61277479D02*
G01*
X165377479Y-61418900D01*
X164944530Y-61418900D01*
X164944530Y-60844530D01*
X165518900Y-60844530D01*
X165518900Y-61277479D01*
G37*
G36*
X165518900Y-64122521D02*
G01*
X165518900Y-64555470D01*
X164944530Y-64555470D01*
X164944530Y-63981100D01*
X165377479Y-63981100D01*
X165518900Y-64122521D01*
G37*
G36*
X168655470Y-61418900D02*
G01*
X168222521Y-61418900D01*
X168081100Y-61277479D01*
X168081100Y-60844530D01*
X168655470Y-60844530D01*
X168655470Y-61418900D01*
G37*
G36*
X168655470Y-64555470D02*
G01*
X168081100Y-64555470D01*
X168081100Y-64122521D01*
X168222521Y-63981100D01*
X168655470Y-63981100D01*
X168655470Y-64555470D01*
G37*
G36*
X165518900Y-61760321D02*
G01*
X165518900Y-62064879D01*
X165377479Y-62206300D01*
X164944530Y-62206300D01*
X164944530Y-61618900D01*
X165377479Y-61618900D01*
X165518900Y-61760321D01*
G37*
G36*
X165518900Y-62547721D02*
G01*
X165518900Y-62852279D01*
X165377479Y-62993700D01*
X164944530Y-62993700D01*
X164944530Y-62406300D01*
X165377479Y-62406300D01*
X165518900Y-62547721D01*
G37*
G36*
X165518900Y-63335121D02*
G01*
X165518900Y-63639679D01*
X165377479Y-63781100D01*
X164944530Y-63781100D01*
X164944530Y-63193700D01*
X165377479Y-63193700D01*
X165518900Y-63335121D01*
G37*
G36*
X166306300Y-61277479D02*
G01*
X166164879Y-61418900D01*
X165860321Y-61418900D01*
X165718900Y-61277479D01*
X165718900Y-60844530D01*
X166306300Y-60844530D01*
X166306300Y-61277479D01*
G37*
G36*
X166306300Y-64122521D02*
G01*
X166306300Y-64555470D01*
X165718900Y-64555470D01*
X165718900Y-64122521D01*
X165860321Y-63981100D01*
X166164879Y-63981100D01*
X166306300Y-64122521D01*
G37*
G36*
X167093700Y-61277479D02*
G01*
X166952279Y-61418900D01*
X166647721Y-61418900D01*
X166506300Y-61277479D01*
X166506300Y-60844530D01*
X167093700Y-60844530D01*
X167093700Y-61277479D01*
G37*
G36*
X167093700Y-64122521D02*
G01*
X167093700Y-64555470D01*
X166506300Y-64555470D01*
X166506300Y-64122521D01*
X166647721Y-63981100D01*
X166952279Y-63981100D01*
X167093700Y-64122521D01*
G37*
G36*
X167881100Y-61277479D02*
G01*
X167739679Y-61418900D01*
X167435121Y-61418900D01*
X167293700Y-61277479D01*
X167293700Y-60844530D01*
X167881100Y-60844530D01*
X167881100Y-61277479D01*
G37*
G36*
X167881100Y-64122521D02*
G01*
X167881100Y-64555470D01*
X167293700Y-64555470D01*
X167293700Y-64122521D01*
X167435121Y-63981100D01*
X167739679Y-63981100D01*
X167881100Y-64122521D01*
G37*
G36*
X168655470Y-62206300D02*
G01*
X168222521Y-62206300D01*
X168081100Y-62064879D01*
X168081100Y-61760321D01*
X168222521Y-61618900D01*
X168655470Y-61618900D01*
X168655470Y-62206300D01*
G37*
G36*
X168655470Y-62993700D02*
G01*
X168222521Y-62993700D01*
X168081100Y-62852279D01*
X168081100Y-62547721D01*
X168222521Y-62406300D01*
X168655470Y-62406300D01*
X168655470Y-62993700D01*
G37*
G36*
X168655470Y-63781100D02*
G01*
X168222521Y-63781100D01*
X168081100Y-63639679D01*
X168081100Y-63335121D01*
X168222521Y-63193700D01*
X168655470Y-63193700D01*
X168655470Y-63781100D01*
G37*
G36*
X166306300Y-61760321D02*
G01*
X166306300Y-62064879D01*
X166164879Y-62206300D01*
X165860321Y-62206300D01*
X165718900Y-62064879D01*
X165718900Y-61760321D01*
X165860321Y-61618900D01*
X166164879Y-61618900D01*
X166306300Y-61760321D01*
G37*
G36*
X166306300Y-62547721D02*
G01*
X166306300Y-62852279D01*
X166164879Y-62993700D01*
X165860321Y-62993700D01*
X165718900Y-62852279D01*
X165718900Y-62547721D01*
X165860321Y-62406300D01*
X166164879Y-62406300D01*
X166306300Y-62547721D01*
G37*
G36*
X166306300Y-63335121D02*
G01*
X166306300Y-63639679D01*
X166164879Y-63781100D01*
X165860321Y-63781100D01*
X165718900Y-63639679D01*
X165718900Y-63335121D01*
X165860321Y-63193700D01*
X166164879Y-63193700D01*
X166306300Y-63335121D01*
G37*
G36*
X167093700Y-61760321D02*
G01*
X167093700Y-62064879D01*
X166952279Y-62206300D01*
X166647721Y-62206300D01*
X166506300Y-62064879D01*
X166506300Y-61760321D01*
X166647721Y-61618900D01*
X166952279Y-61618900D01*
X167093700Y-61760321D01*
G37*
G36*
X167093700Y-62547721D02*
G01*
X167093700Y-62852279D01*
X166952279Y-62993700D01*
X166647721Y-62993700D01*
X166506300Y-62852279D01*
X166506300Y-62547721D01*
X166647721Y-62406300D01*
X166952279Y-62406300D01*
X167093700Y-62547721D01*
G37*
G36*
X167093700Y-63335121D02*
G01*
X167093700Y-63639679D01*
X166952279Y-63781100D01*
X166647721Y-63781100D01*
X166506300Y-63639679D01*
X166506300Y-63335121D01*
X166647721Y-63193700D01*
X166952279Y-63193700D01*
X167093700Y-63335121D01*
G37*
G36*
X167881100Y-61760321D02*
G01*
X167881100Y-62064879D01*
X167739679Y-62206300D01*
X167435121Y-62206300D01*
X167293700Y-62064879D01*
X167293700Y-61760321D01*
X167435121Y-61618900D01*
X167739679Y-61618900D01*
X167881100Y-61760321D01*
G37*
G36*
X167881100Y-62547721D02*
G01*
X167881100Y-62852279D01*
X167739679Y-62993700D01*
X167435121Y-62993700D01*
X167293700Y-62852279D01*
X167293700Y-62547721D01*
X167435121Y-62406300D01*
X167739679Y-62406300D01*
X167881100Y-62547721D01*
G37*
G36*
X167881100Y-63335121D02*
G01*
X167881100Y-63639679D01*
X167739679Y-63781100D01*
X167435121Y-63781100D01*
X167293700Y-63639679D01*
X167293700Y-63335121D01*
X167435121Y-63193700D01*
X167739679Y-63193700D01*
X167881100Y-63335121D01*
G37*
%TD*%
D11*
%TO.C,C15*%
X161000000Y-58025000D03*
X161000000Y-56475000D03*
%TD*%
D12*
%TO.C,R6*%
X172743900Y-60840000D03*
X174393900Y-60840000D03*
%TD*%
D13*
%TO.C,J1*%
X179677500Y-44955000D03*
X178877500Y-44955000D03*
D14*
X177727500Y-44955000D03*
X176727500Y-44955000D03*
X176227500Y-44955000D03*
X175227500Y-44955000D03*
D13*
X173277500Y-44955000D03*
X174077500Y-44955000D03*
D14*
X174727500Y-44955000D03*
X175727500Y-44955000D03*
X177227500Y-44955000D03*
X178227500Y-44955000D03*
%TD*%
D15*
%TO.C,J5*%
X150500000Y-66917400D03*
X151500001Y-66917400D03*
X152499999Y-66917400D03*
X153500000Y-66917400D03*
D16*
X154799999Y-70792401D03*
X149200001Y-70792401D03*
%TD*%
D17*
%TO.C,C5*%
X172808900Y-64380000D03*
X174358900Y-64380000D03*
%TD*%
D18*
%TO.C,U1*%
X163955200Y-60668000D03*
X163955200Y-61176000D03*
X163955200Y-61684000D03*
X163955200Y-62192000D03*
X163955200Y-62700000D03*
X163955200Y-63208000D03*
X163955200Y-63716000D03*
X163955200Y-64224000D03*
X163955200Y-64732000D03*
D19*
X164768000Y-65544800D03*
X165276000Y-65544800D03*
X165784000Y-65544800D03*
X166292000Y-65544800D03*
X166800000Y-65544800D03*
X167308000Y-65544800D03*
X167816000Y-65544800D03*
X168324000Y-65544800D03*
X168832000Y-65544800D03*
D18*
X169644800Y-64732000D03*
X169644800Y-64224000D03*
X169644800Y-63716000D03*
X169644800Y-63208000D03*
X169644800Y-62700000D03*
X169644800Y-62192000D03*
X169644800Y-61684000D03*
X169644800Y-61176000D03*
X169644800Y-60668000D03*
D19*
X168832000Y-59855200D03*
X168324000Y-59855200D03*
X167816000Y-59855200D03*
X167308000Y-59855200D03*
X166800000Y-59855200D03*
X166292000Y-59855200D03*
X165784000Y-59855200D03*
X165276000Y-59855200D03*
X164768000Y-59855200D03*
%TD*%
D12*
%TO.C,R16*%
X171575000Y-48200000D03*
X173225000Y-48200000D03*
%TD*%
D11*
%TO.C,C9*%
X164100000Y-58025000D03*
X164100000Y-56475000D03*
%TD*%
D12*
%TO.C,R8*%
X172763207Y-66090000D03*
X174413207Y-66090000D03*
%TD*%
D20*
%TO.C,C1*%
X161326000Y-63075000D03*
X159776000Y-63075000D03*
%TD*%
D11*
%TO.C,C10*%
X165898900Y-69615000D03*
X165898900Y-68065000D03*
%TD*%
D12*
%TO.C,R5*%
X170275000Y-53200000D03*
X171925000Y-53200000D03*
%TD*%
D21*
%TO.C,R12*%
X171209607Y-57849293D03*
X171209607Y-56199293D03*
%TD*%
D11*
%TO.C,C11*%
X161050000Y-52315000D03*
X161050000Y-50765000D03*
%TD*%
D22*
%TO.C,C13*%
X181925000Y-55900000D03*
X184875000Y-55900000D03*
%TD*%
D12*
%TO.C,R7*%
X172758900Y-62590000D03*
X174408900Y-62590000D03*
%TD*%
D20*
%TO.C,C4*%
X162375000Y-59700000D03*
X160825000Y-59700000D03*
%TD*%
D23*
%TO.C,R3*%
X169398900Y-68015000D03*
X169398900Y-69665000D03*
%TD*%
D11*
%TO.C,C6*%
X169100000Y-57750707D03*
X169100000Y-56200707D03*
%TD*%
D22*
%TO.C,C14*%
X181825000Y-65700000D03*
X184775000Y-65700000D03*
%TD*%
D12*
%TO.C,R14*%
X163425000Y-54550000D03*
X165075000Y-54550000D03*
%TD*%
D17*
%TO.C,C8*%
X172798900Y-59090000D03*
X174348900Y-59090000D03*
%TD*%
D23*
%TO.C,R9*%
X176388900Y-58855000D03*
X176388900Y-60505000D03*
%TD*%
D24*
%TO.C,R4*%
X174425000Y-67800000D03*
X172775000Y-67800000D03*
%TD*%
D25*
%TO.C,U4*%
X177644600Y-50439800D03*
X177644600Y-49500000D03*
X177644600Y-48560200D03*
X175155400Y-48560200D03*
X175155400Y-49500000D03*
X175155400Y-50439800D03*
%TD*%
D24*
%TO.C,R15*%
X181125000Y-48200000D03*
X179475000Y-48200000D03*
%TD*%
D12*
%TO.C,R17*%
X170275000Y-51600000D03*
X171925000Y-51600000D03*
%TD*%
D26*
%TO.C,C2*%
X164148900Y-68065000D03*
X164148900Y-69615000D03*
%TD*%
D24*
%TO.C,R10*%
X174413900Y-55590000D03*
X172763900Y-55590000D03*
%TD*%
D21*
%TO.C,R13*%
X162550000Y-58075000D03*
X162550000Y-56425000D03*
%TD*%
D23*
%TO.C,R1*%
X164148900Y-71265000D03*
X164148900Y-72915000D03*
%TD*%
D26*
%TO.C,C7*%
X176388900Y-61975000D03*
X176388900Y-63525000D03*
%TD*%
D20*
%TO.C,C12*%
X165075000Y-48790000D03*
X163525000Y-48790000D03*
%TD*%
D26*
%TO.C,C3*%
X167648900Y-68065000D03*
X167648900Y-69615000D03*
%TD*%
D27*
%TO.C,Y1*%
X163200000Y-52450000D03*
X165400000Y-52450000D03*
X165400000Y-50750000D03*
X163200000Y-50750000D03*
%TD*%
D23*
%TO.C,R2*%
X169400000Y-71265000D03*
X169400000Y-72915000D03*
%TD*%
D28*
%TO.C,U2*%
X181850000Y-58500000D03*
X181850000Y-60800000D03*
X181850000Y-63100000D03*
D29*
X188150000Y-60800000D03*
%TD*%
D12*
%TO.C,R11*%
X172753900Y-57340000D03*
X174403900Y-57340000D03*
%TD*%
D26*
%TO.C,C16*%
X167648900Y-71315000D03*
X167648900Y-72865000D03*
%TD*%
M02*
