%TF.GenerationSoftware,KiCad,Pcbnew,8.0.4*%
%TF.CreationDate,2025-06-24T22:11:05-05:00*%
%TF.ProjectId,numlocked_HUB,6e756d6c-6f63-46b6-9564-5f4855422e6b,rev?*%
%TF.SameCoordinates,Original*%
%TF.FileFunction,Legend,Top*%
%TF.FilePolarity,Positive*%
%FSLAX46Y46*%
G04 Gerber Fmt 4.6, Leading zero omitted, Abs format (unit mm)*
G04 Created by KiCad (PCBNEW 8.0.4) date 2025-06-24 22:11:05*
%MOMM*%
%LPD*%
G01*
G04 APERTURE LIST*
G04 Aperture macros list*
%AMRoundRect*
0 Rectangle with rounded corners*
0 $1 Rounding radius*
0 $2 $3 $4 $5 $6 $7 $8 $9 X,Y pos of 4 corners*
0 Add a 4 corners polygon primitive as box body*
4,1,4,$2,$3,$4,$5,$6,$7,$8,$9,$2,$3,0*
0 Add four circle primitives for the rounded corners*
1,1,$1+$1,$2,$3*
1,1,$1+$1,$4,$5*
1,1,$1+$1,$6,$7*
1,1,$1+$1,$8,$9*
0 Add four rect primitives between the rounded corners*
20,1,$1+$1,$2,$3,$4,$5,0*
20,1,$1+$1,$4,$5,$6,$7,0*
20,1,$1+$1,$6,$7,$8,$9,0*
20,1,$1+$1,$8,$9,$2,$3,0*%
G04 Aperture macros list end*
%ADD10C,0.250000*%
%ADD11C,0.150000*%
%ADD12C,0.100000*%
%ADD13C,0.300000*%
%ADD14C,0.120000*%
%ADD15C,0.200000*%
%ADD16C,0.127000*%
%ADD17C,0.152400*%
%ADD18C,0.508000*%
%ADD19C,0.000000*%
%ADD20C,0.010000*%
%ADD21RoundRect,0.225000X0.250000X-0.225000X0.250000X0.225000X-0.250000X0.225000X-0.250000X-0.225000X0*%
%ADD22RoundRect,0.200000X-0.200000X-0.275000X0.200000X-0.275000X0.200000X0.275000X-0.200000X0.275000X0*%
%ADD23C,4.400000*%
%ADD24C,0.650000*%
%ADD25O,1.204000X2.304000*%
%ADD26O,1.204000X2.004000*%
%ADD27RoundRect,0.102000X0.754000X0.754000X-0.754000X0.754000X-0.754000X-0.754000X0.754000X-0.754000X0*%
%ADD28C,1.712000*%
%ADD29C,3.600000*%
%ADD30R,0.660400X1.549400*%
%ADD31R,1.295400X1.905000*%
%ADD32RoundRect,0.225000X-0.225000X-0.250000X0.225000X-0.250000X0.225000X0.250000X-0.225000X0.250000X0*%
%ADD33R,1.066800X0.254000*%
%ADD34R,0.254000X1.066800*%
%ADD35RoundRect,0.225000X0.225000X0.250000X-0.225000X0.250000X-0.225000X-0.250000X0.225000X-0.250000X0*%
%ADD36RoundRect,0.200000X0.275000X-0.200000X0.275000X0.200000X-0.275000X0.200000X-0.275000X-0.200000X0*%
%ADD37RoundRect,0.250000X-0.325000X-0.650000X0.325000X-0.650000X0.325000X0.650000X-0.325000X0.650000X0*%
%ADD38RoundRect,0.200000X-0.275000X0.200000X-0.275000X-0.200000X0.275000X-0.200000X0.275000X0.200000X0*%
%ADD39RoundRect,0.200000X0.200000X0.275000X-0.200000X0.275000X-0.200000X-0.275000X0.200000X-0.275000X0*%
%ADD40R,1.092200X0.609600*%
%ADD41RoundRect,0.225000X-0.250000X0.225000X-0.250000X-0.225000X0.250000X-0.225000X0.250000X0.225000X0*%
%ADD42R,1.400000X1.200000*%
%ADD43RoundRect,0.375000X-0.625000X-0.375000X0.625000X-0.375000X0.625000X0.375000X-0.625000X0.375000X0*%
%ADD44RoundRect,0.500000X-0.500000X-1.400000X0.500000X-1.400000X0.500000X1.400000X-0.500000X1.400000X0*%
%ADD45RoundRect,0.377000X0.377000X0.377000X-0.377000X0.377000X-0.377000X-0.377000X0.377000X-0.377000X0*%
%ADD46C,1.508000*%
%ADD47C,3.340000*%
G04 APERTURE END LIST*
D10*
X163325000Y-59250000D02*
G75*
G02*
X163075000Y-59250000I-125000J0D01*
G01*
X163075000Y-59250000D02*
G75*
G02*
X163325000Y-59250000I125000J0D01*
G01*
D11*
G36*
X150996589Y-53529904D02*
G01*
X151052123Y-53531320D01*
X151103214Y-53534847D01*
X151152582Y-53542735D01*
X151188989Y-53554581D01*
X151235872Y-53580135D01*
X151273482Y-53615031D01*
X151292716Y-53642417D01*
X151311263Y-53687731D01*
X151317445Y-53738129D01*
X151317323Y-53745121D01*
X151308622Y-53795610D01*
X151286182Y-53842665D01*
X151282195Y-53848580D01*
X151247244Y-53886619D01*
X151203384Y-53913496D01*
X151193204Y-53917555D01*
X151142136Y-53929800D01*
X151092971Y-53934791D01*
X151041451Y-53936210D01*
X150916399Y-53936210D01*
X150916399Y-53529790D01*
X150973307Y-53529790D01*
X150996589Y-53529904D01*
G37*
G36*
X151039701Y-53107778D02*
G01*
X151093640Y-53111650D01*
X151142922Y-53123385D01*
X151187264Y-53147794D01*
X151203782Y-53163880D01*
X151229033Y-53209695D01*
X151235868Y-53258192D01*
X151228602Y-53308140D01*
X151206803Y-53353447D01*
X151172793Y-53390511D01*
X151128401Y-53416217D01*
X151125264Y-53417434D01*
X151074573Y-53429741D01*
X151023072Y-53434764D01*
X150974040Y-53436001D01*
X150916399Y-53436001D01*
X150916399Y-53107739D01*
X151033147Y-53107739D01*
X151039701Y-53107778D01*
G37*
G36*
X152212552Y-53107996D02*
G01*
X152274023Y-53109570D01*
X152329483Y-53112576D01*
X152378932Y-53117012D01*
X152430338Y-53124225D01*
X152485415Y-53137048D01*
X152516170Y-53147852D01*
X152565787Y-53171736D01*
X152610050Y-53201954D01*
X152648961Y-53238507D01*
X152682519Y-53281395D01*
X152710118Y-53329424D01*
X152730938Y-53381613D01*
X152743389Y-53429658D01*
X152750859Y-53480760D01*
X152753349Y-53534919D01*
X152751757Y-53578051D01*
X152745643Y-53627006D01*
X152732715Y-53680257D01*
X152713546Y-53729348D01*
X152688136Y-53774277D01*
X152671070Y-53797820D01*
X152637530Y-53834483D01*
X152599316Y-53865373D01*
X152556426Y-53890489D01*
X152508862Y-53909832D01*
X152480385Y-53917431D01*
X152429979Y-53925906D01*
X152376988Y-53931161D01*
X152325928Y-53934124D01*
X152268596Y-53935798D01*
X152218213Y-53936210D01*
X152101465Y-53936210D01*
X152101465Y-53107739D01*
X152172784Y-53107739D01*
X152212552Y-53107996D01*
G37*
G36*
X154915612Y-54156742D02*
G01*
X149094122Y-54156742D01*
X149094122Y-53621381D01*
X149205233Y-53621381D01*
X149205886Y-53675577D01*
X149208297Y-53730406D01*
X149213227Y-53781991D01*
X149223796Y-53833628D01*
X149236905Y-53868210D01*
X149264167Y-53915123D01*
X149300549Y-53956086D01*
X149340544Y-53987501D01*
X149351581Y-53994540D01*
X149398475Y-54018156D01*
X149449766Y-54034505D01*
X149498252Y-54042849D01*
X149550104Y-54045631D01*
X149604311Y-54041784D01*
X149654335Y-54030244D01*
X149700176Y-54011010D01*
X149741835Y-53984082D01*
X149765347Y-53964323D01*
X149801147Y-53926112D01*
X149828562Y-53884501D01*
X149847592Y-53839490D01*
X149849230Y-53834234D01*
X149849901Y-53831430D01*
X150013677Y-53831430D01*
X150017642Y-53838601D01*
X150046024Y-53885163D01*
X150075505Y-53925368D01*
X150110542Y-53963531D01*
X150151674Y-53996538D01*
X150175524Y-54010681D01*
X150220557Y-54030098D01*
X150268294Y-54041748D01*
X150318736Y-54045631D01*
X150333526Y-54045316D01*
X150383078Y-54039255D01*
X150435503Y-54022884D01*
X150483439Y-53996437D01*
X150521702Y-53965031D01*
X150558247Y-53922945D01*
X150584351Y-53877287D01*
X150600013Y-53828056D01*
X150605233Y-53775254D01*
X150605186Y-53770523D01*
X150598364Y-53718571D01*
X150582145Y-53671492D01*
X150556385Y-53624556D01*
X150531158Y-53590640D01*
X150498008Y-53554712D01*
X150456933Y-53516775D01*
X150415420Y-53482657D01*
X150376378Y-53453098D01*
X150369551Y-53448045D01*
X150353411Y-53436001D01*
X150817480Y-53436001D01*
X150817480Y-53936210D01*
X150817480Y-54030000D01*
X151094940Y-54030000D01*
X151140314Y-54027912D01*
X151190826Y-54019898D01*
X151244331Y-54002952D01*
X151291992Y-53977824D01*
X151333810Y-53944515D01*
X151341688Y-53936210D01*
X152004501Y-53936210D01*
X152004501Y-54030000D01*
X152325924Y-54030000D01*
X153046685Y-54030000D01*
X153151221Y-54030000D01*
X153151221Y-53247201D01*
X153817515Y-54030000D01*
X153840230Y-54030000D01*
X153840230Y-53107739D01*
X154545359Y-53107739D01*
X154704117Y-53107739D01*
X154704117Y-54030000D01*
X154804501Y-54030000D01*
X154804501Y-53013949D01*
X154605931Y-53013949D01*
X154545359Y-53107739D01*
X153840230Y-53107739D01*
X153840230Y-53013949D01*
X153740579Y-53013949D01*
X153740579Y-53803342D01*
X153068667Y-53013949D01*
X153046685Y-53013949D01*
X153046685Y-54030000D01*
X152325924Y-54030000D01*
X152360629Y-54029514D01*
X152415180Y-54026550D01*
X152465616Y-54020890D01*
X152520708Y-54010540D01*
X152569875Y-53996309D01*
X152619748Y-53974801D01*
X152645329Y-53960051D01*
X152687138Y-53929665D01*
X152725184Y-53893459D01*
X152759466Y-53851433D01*
X152789986Y-53803586D01*
X152797942Y-53788912D01*
X152818730Y-53743182D01*
X152834899Y-53694894D01*
X152846448Y-53644046D01*
X152853377Y-53590640D01*
X152855687Y-53534675D01*
X152853665Y-53480614D01*
X152847601Y-53428949D01*
X152837494Y-53379682D01*
X152823344Y-53332812D01*
X152801027Y-53279732D01*
X152772889Y-53230104D01*
X152762288Y-53214434D01*
X152727475Y-53170982D01*
X152688145Y-53132872D01*
X152644299Y-53100102D01*
X152595936Y-53072673D01*
X152543056Y-53050586D01*
X152536539Y-53048332D01*
X152484117Y-53034557D01*
X152429715Y-53025541D01*
X152377702Y-53019996D01*
X152319620Y-53016239D01*
X152268783Y-53014522D01*
X152214061Y-53013949D01*
X152004501Y-53013949D01*
X152004501Y-53936210D01*
X151341688Y-53936210D01*
X151354647Y-53922548D01*
X151384426Y-53881241D01*
X151405697Y-53836288D01*
X151418460Y-53787689D01*
X151422714Y-53735443D01*
X151422344Y-53720380D01*
X151415218Y-53669883D01*
X151399023Y-53622847D01*
X151395987Y-53616404D01*
X151368474Y-53571914D01*
X151332588Y-53534187D01*
X151302449Y-53512090D01*
X151256837Y-53488093D01*
X151210956Y-53470195D01*
X151237468Y-53454253D01*
X151276010Y-53422357D01*
X151307920Y-53381290D01*
X151319126Y-53360262D01*
X151335451Y-53311813D01*
X151340893Y-53259413D01*
X151338542Y-53224441D01*
X151326200Y-53175016D01*
X151303279Y-53129232D01*
X151282900Y-53101816D01*
X151245978Y-53067790D01*
X151201430Y-53042281D01*
X151165710Y-53029886D01*
X151117204Y-53020175D01*
X151066691Y-53015305D01*
X151016782Y-53013949D01*
X150817480Y-53013949D01*
X150817480Y-53436001D01*
X150353411Y-53436001D01*
X150326735Y-53416095D01*
X150284463Y-53383809D01*
X150245952Y-53351981D01*
X150223588Y-53327597D01*
X150195638Y-53284570D01*
X150189654Y-53268939D01*
X150181960Y-53220579D01*
X150191669Y-53170631D01*
X150220795Y-53129232D01*
X150228272Y-53122597D01*
X150271516Y-53099213D01*
X150320690Y-53092107D01*
X150360795Y-53096782D01*
X150408374Y-53116531D01*
X150440934Y-53142016D01*
X150474885Y-53178292D01*
X150505582Y-53217159D01*
X150587892Y-53154877D01*
X150570661Y-53133346D01*
X150536864Y-53095549D01*
X150499901Y-53061422D01*
X150456245Y-53031779D01*
X150424646Y-53017140D01*
X150375073Y-53003023D01*
X150322889Y-52998318D01*
X150297961Y-52999391D01*
X150246368Y-53009081D01*
X150198080Y-53028848D01*
X150177541Y-53041004D01*
X150139166Y-53072821D01*
X150109176Y-53112135D01*
X150098469Y-53132322D01*
X150082869Y-53178830D01*
X150077669Y-53229127D01*
X150077878Y-53239189D01*
X150085191Y-53288181D01*
X150102951Y-53334978D01*
X150131158Y-53379581D01*
X150163739Y-53415061D01*
X150201574Y-53448732D01*
X150244447Y-53483629D01*
X150288450Y-53517578D01*
X150303838Y-53529317D01*
X150346336Y-53563251D01*
X150388972Y-53600411D01*
X150428539Y-53639673D01*
X150461374Y-53679755D01*
X150463493Y-53682810D01*
X150487203Y-53729153D01*
X150495812Y-53779651D01*
X150491325Y-53817872D01*
X150472365Y-53864403D01*
X150445890Y-53898238D01*
X150404466Y-53928150D01*
X150358243Y-53945919D01*
X150308967Y-53951842D01*
X150294239Y-53951170D01*
X150244419Y-53938241D01*
X150197287Y-53908855D01*
X150159027Y-53870570D01*
X150128653Y-53829430D01*
X150099651Y-53779895D01*
X150013677Y-53831430D01*
X149849901Y-53831430D01*
X149861631Y-53782403D01*
X149869119Y-53729486D01*
X149872941Y-53677900D01*
X149874214Y-53621381D01*
X149874214Y-53013949D01*
X149773098Y-53013949D01*
X149773098Y-53622847D01*
X149772457Y-53677389D01*
X149769852Y-53731356D01*
X149762840Y-53780383D01*
X149761923Y-53783711D01*
X149744277Y-53829965D01*
X149717411Y-53871730D01*
X149682789Y-53905252D01*
X149640474Y-53930593D01*
X149593518Y-53946530D01*
X149544487Y-53951842D01*
X149526421Y-53951180D01*
X149476092Y-53942284D01*
X149429692Y-53924731D01*
X149422693Y-53921291D01*
X149380111Y-53894384D01*
X149345184Y-53857564D01*
X149341842Y-53852481D01*
X149320670Y-53806319D01*
X149310258Y-53757913D01*
X149307569Y-53722661D01*
X149306365Y-53671863D01*
X149306106Y-53622847D01*
X149306106Y-53013949D01*
X149205233Y-53013949D01*
X149205233Y-53621381D01*
X149094122Y-53621381D01*
X149094122Y-52887207D01*
X154915612Y-52887207D01*
X154915612Y-54156742D01*
G37*
D12*
X146603884Y-66791466D02*
X147365789Y-66791466D01*
D13*
X95673558Y-70439638D02*
X95673558Y-68439638D01*
X95673558Y-68439638D02*
X96149748Y-68439638D01*
X96149748Y-68439638D02*
X96435463Y-68534876D01*
X96435463Y-68534876D02*
X96625939Y-68725352D01*
X96625939Y-68725352D02*
X96721177Y-68915828D01*
X96721177Y-68915828D02*
X96816415Y-69296780D01*
X96816415Y-69296780D02*
X96816415Y-69582495D01*
X96816415Y-69582495D02*
X96721177Y-69963447D01*
X96721177Y-69963447D02*
X96625939Y-70153923D01*
X96625939Y-70153923D02*
X96435463Y-70344400D01*
X96435463Y-70344400D02*
X96149748Y-70439638D01*
X96149748Y-70439638D02*
X95673558Y-70439638D01*
X98435463Y-70344400D02*
X98244987Y-70439638D01*
X98244987Y-70439638D02*
X97864034Y-70439638D01*
X97864034Y-70439638D02*
X97673558Y-70344400D01*
X97673558Y-70344400D02*
X97578320Y-70153923D01*
X97578320Y-70153923D02*
X97578320Y-69392019D01*
X97578320Y-69392019D02*
X97673558Y-69201542D01*
X97673558Y-69201542D02*
X97864034Y-69106304D01*
X97864034Y-69106304D02*
X98244987Y-69106304D01*
X98244987Y-69106304D02*
X98435463Y-69201542D01*
X98435463Y-69201542D02*
X98530701Y-69392019D01*
X98530701Y-69392019D02*
X98530701Y-69582495D01*
X98530701Y-69582495D02*
X97578320Y-69772971D01*
X99292606Y-70344400D02*
X99483082Y-70439638D01*
X99483082Y-70439638D02*
X99864034Y-70439638D01*
X99864034Y-70439638D02*
X100054511Y-70344400D01*
X100054511Y-70344400D02*
X100149749Y-70153923D01*
X100149749Y-70153923D02*
X100149749Y-70058685D01*
X100149749Y-70058685D02*
X100054511Y-69868209D01*
X100054511Y-69868209D02*
X99864034Y-69772971D01*
X99864034Y-69772971D02*
X99578320Y-69772971D01*
X99578320Y-69772971D02*
X99387844Y-69677733D01*
X99387844Y-69677733D02*
X99292606Y-69487257D01*
X99292606Y-69487257D02*
X99292606Y-69392019D01*
X99292606Y-69392019D02*
X99387844Y-69201542D01*
X99387844Y-69201542D02*
X99578320Y-69106304D01*
X99578320Y-69106304D02*
X99864034Y-69106304D01*
X99864034Y-69106304D02*
X100054511Y-69201542D01*
X101006892Y-70439638D02*
X101006892Y-69106304D01*
X101006892Y-68439638D02*
X100911654Y-68534876D01*
X100911654Y-68534876D02*
X101006892Y-68630114D01*
X101006892Y-68630114D02*
X101102130Y-68534876D01*
X101102130Y-68534876D02*
X101006892Y-68439638D01*
X101006892Y-68439638D02*
X101006892Y-68630114D01*
X102816416Y-69106304D02*
X102816416Y-70725352D01*
X102816416Y-70725352D02*
X102721178Y-70915828D01*
X102721178Y-70915828D02*
X102625940Y-71011066D01*
X102625940Y-71011066D02*
X102435463Y-71106304D01*
X102435463Y-71106304D02*
X102149749Y-71106304D01*
X102149749Y-71106304D02*
X101959273Y-71011066D01*
X102816416Y-70344400D02*
X102625940Y-70439638D01*
X102625940Y-70439638D02*
X102244987Y-70439638D01*
X102244987Y-70439638D02*
X102054511Y-70344400D01*
X102054511Y-70344400D02*
X101959273Y-70249161D01*
X101959273Y-70249161D02*
X101864035Y-70058685D01*
X101864035Y-70058685D02*
X101864035Y-69487257D01*
X101864035Y-69487257D02*
X101959273Y-69296780D01*
X101959273Y-69296780D02*
X102054511Y-69201542D01*
X102054511Y-69201542D02*
X102244987Y-69106304D01*
X102244987Y-69106304D02*
X102625940Y-69106304D01*
X102625940Y-69106304D02*
X102816416Y-69201542D01*
X103768797Y-69106304D02*
X103768797Y-70439638D01*
X103768797Y-69296780D02*
X103864035Y-69201542D01*
X103864035Y-69201542D02*
X104054511Y-69106304D01*
X104054511Y-69106304D02*
X104340226Y-69106304D01*
X104340226Y-69106304D02*
X104530702Y-69201542D01*
X104530702Y-69201542D02*
X104625940Y-69392019D01*
X104625940Y-69392019D02*
X104625940Y-70439638D01*
X106340226Y-70344400D02*
X106149750Y-70439638D01*
X106149750Y-70439638D02*
X105768797Y-70439638D01*
X105768797Y-70439638D02*
X105578321Y-70344400D01*
X105578321Y-70344400D02*
X105483083Y-70153923D01*
X105483083Y-70153923D02*
X105483083Y-69392019D01*
X105483083Y-69392019D02*
X105578321Y-69201542D01*
X105578321Y-69201542D02*
X105768797Y-69106304D01*
X105768797Y-69106304D02*
X106149750Y-69106304D01*
X106149750Y-69106304D02*
X106340226Y-69201542D01*
X106340226Y-69201542D02*
X106435464Y-69392019D01*
X106435464Y-69392019D02*
X106435464Y-69582495D01*
X106435464Y-69582495D02*
X105483083Y-69772971D01*
X108149750Y-70439638D02*
X108149750Y-68439638D01*
X108149750Y-70344400D02*
X107959274Y-70439638D01*
X107959274Y-70439638D02*
X107578321Y-70439638D01*
X107578321Y-70439638D02*
X107387845Y-70344400D01*
X107387845Y-70344400D02*
X107292607Y-70249161D01*
X107292607Y-70249161D02*
X107197369Y-70058685D01*
X107197369Y-70058685D02*
X107197369Y-69487257D01*
X107197369Y-69487257D02*
X107292607Y-69296780D01*
X107292607Y-69296780D02*
X107387845Y-69201542D01*
X107387845Y-69201542D02*
X107578321Y-69106304D01*
X107578321Y-69106304D02*
X107959274Y-69106304D01*
X107959274Y-69106304D02*
X108149750Y-69201542D01*
X110625941Y-70439638D02*
X110625941Y-68439638D01*
X110625941Y-69201542D02*
X110816417Y-69106304D01*
X110816417Y-69106304D02*
X111197370Y-69106304D01*
X111197370Y-69106304D02*
X111387846Y-69201542D01*
X111387846Y-69201542D02*
X111483084Y-69296780D01*
X111483084Y-69296780D02*
X111578322Y-69487257D01*
X111578322Y-69487257D02*
X111578322Y-70058685D01*
X111578322Y-70058685D02*
X111483084Y-70249161D01*
X111483084Y-70249161D02*
X111387846Y-70344400D01*
X111387846Y-70344400D02*
X111197370Y-70439638D01*
X111197370Y-70439638D02*
X110816417Y-70439638D01*
X110816417Y-70439638D02*
X110625941Y-70344400D01*
X112244989Y-69106304D02*
X112721179Y-70439638D01*
X113197370Y-69106304D02*
X112721179Y-70439638D01*
X112721179Y-70439638D02*
X112530703Y-70915828D01*
X112530703Y-70915828D02*
X112435465Y-71011066D01*
X112435465Y-71011066D02*
X112244989Y-71106304D01*
D11*
G36*
X168840344Y-39729904D02*
G01*
X168895878Y-39731320D01*
X168946969Y-39734847D01*
X168996337Y-39742735D01*
X169032744Y-39754581D01*
X169079627Y-39780135D01*
X169117237Y-39815031D01*
X169136471Y-39842417D01*
X169155018Y-39887731D01*
X169161200Y-39938129D01*
X169161078Y-39945121D01*
X169152377Y-39995610D01*
X169129937Y-40042665D01*
X169125950Y-40048580D01*
X169090999Y-40086619D01*
X169047139Y-40113496D01*
X169036959Y-40117555D01*
X168985891Y-40129800D01*
X168936726Y-40134791D01*
X168885206Y-40136210D01*
X168760154Y-40136210D01*
X168760154Y-39729790D01*
X168817062Y-39729790D01*
X168840344Y-39729904D01*
G37*
G36*
X168883456Y-39307778D02*
G01*
X168937395Y-39311650D01*
X168986677Y-39323385D01*
X169031019Y-39347794D01*
X169047537Y-39363880D01*
X169072788Y-39409695D01*
X169079623Y-39458192D01*
X169072357Y-39508140D01*
X169050558Y-39553447D01*
X169016548Y-39590511D01*
X168972156Y-39616217D01*
X168969019Y-39617434D01*
X168918328Y-39629741D01*
X168866827Y-39634764D01*
X168817795Y-39636001D01*
X168760154Y-39636001D01*
X168760154Y-39307739D01*
X168876902Y-39307739D01*
X168883456Y-39307778D01*
G37*
G36*
X171070183Y-40356742D02*
G01*
X166937877Y-40356742D01*
X166937877Y-39821381D01*
X167048988Y-39821381D01*
X167049641Y-39875577D01*
X167052052Y-39930406D01*
X167056982Y-39981991D01*
X167067551Y-40033628D01*
X167080660Y-40068210D01*
X167107922Y-40115123D01*
X167144304Y-40156086D01*
X167184299Y-40187501D01*
X167195336Y-40194540D01*
X167242230Y-40218156D01*
X167293521Y-40234505D01*
X167342007Y-40242849D01*
X167393859Y-40245631D01*
X167448066Y-40241784D01*
X167498090Y-40230244D01*
X167543931Y-40211010D01*
X167585590Y-40184082D01*
X167609102Y-40164323D01*
X167644902Y-40126112D01*
X167672317Y-40084501D01*
X167691347Y-40039490D01*
X167692985Y-40034234D01*
X167693656Y-40031430D01*
X167857432Y-40031430D01*
X167861397Y-40038601D01*
X167889779Y-40085163D01*
X167919260Y-40125368D01*
X167954297Y-40163531D01*
X167995429Y-40196538D01*
X168019279Y-40210681D01*
X168064312Y-40230098D01*
X168112049Y-40241748D01*
X168162491Y-40245631D01*
X168177281Y-40245316D01*
X168226833Y-40239255D01*
X168279258Y-40222884D01*
X168327194Y-40196437D01*
X168365457Y-40165031D01*
X168402002Y-40122945D01*
X168428106Y-40077287D01*
X168443768Y-40028056D01*
X168448988Y-39975254D01*
X168448941Y-39970523D01*
X168442119Y-39918571D01*
X168425900Y-39871492D01*
X168400140Y-39824556D01*
X168374913Y-39790640D01*
X168341763Y-39754712D01*
X168300688Y-39716775D01*
X168259175Y-39682657D01*
X168220133Y-39653098D01*
X168213306Y-39648045D01*
X168197166Y-39636001D01*
X168661235Y-39636001D01*
X168661235Y-40136210D01*
X168661235Y-40230000D01*
X168938695Y-40230000D01*
X169833845Y-40230000D01*
X169934962Y-40230000D01*
X170165527Y-40230000D01*
X170270063Y-40230000D01*
X170270063Y-39447201D01*
X170936357Y-40230000D01*
X170959072Y-40230000D01*
X170959072Y-39213949D01*
X170859421Y-39213949D01*
X170859421Y-40003342D01*
X170187509Y-39213949D01*
X170165527Y-39213949D01*
X170165527Y-40230000D01*
X169934962Y-40230000D01*
X169934962Y-39213949D01*
X169833845Y-39213949D01*
X169833845Y-40230000D01*
X168938695Y-40230000D01*
X168984069Y-40227912D01*
X169034581Y-40219898D01*
X169088086Y-40202952D01*
X169135747Y-40177824D01*
X169177565Y-40144515D01*
X169198402Y-40122548D01*
X169228181Y-40081241D01*
X169249452Y-40036288D01*
X169262215Y-39987689D01*
X169266469Y-39935443D01*
X169266099Y-39920380D01*
X169258973Y-39869883D01*
X169242778Y-39822847D01*
X169239742Y-39816404D01*
X169212229Y-39771914D01*
X169176343Y-39734187D01*
X169146204Y-39712090D01*
X169100592Y-39688093D01*
X169054711Y-39670195D01*
X169081223Y-39654253D01*
X169119765Y-39622357D01*
X169151675Y-39581290D01*
X169162881Y-39560262D01*
X169179206Y-39511813D01*
X169184648Y-39459413D01*
X169182297Y-39424441D01*
X169169955Y-39375016D01*
X169147034Y-39329232D01*
X169126655Y-39301816D01*
X169089733Y-39267790D01*
X169045185Y-39242281D01*
X169009465Y-39229886D01*
X168960959Y-39220175D01*
X168910446Y-39215305D01*
X168860537Y-39213949D01*
X168661235Y-39213949D01*
X168661235Y-39636001D01*
X168197166Y-39636001D01*
X168170490Y-39616095D01*
X168128218Y-39583809D01*
X168089707Y-39551981D01*
X168067343Y-39527597D01*
X168039393Y-39484570D01*
X168033409Y-39468939D01*
X168025715Y-39420579D01*
X168035424Y-39370631D01*
X168064550Y-39329232D01*
X168072027Y-39322597D01*
X168115271Y-39299213D01*
X168164445Y-39292107D01*
X168204550Y-39296782D01*
X168252129Y-39316531D01*
X168284689Y-39342016D01*
X168318640Y-39378292D01*
X168349337Y-39417159D01*
X168431647Y-39354877D01*
X168414416Y-39333346D01*
X168380619Y-39295549D01*
X168343656Y-39261422D01*
X168300000Y-39231779D01*
X168268401Y-39217140D01*
X168218828Y-39203023D01*
X168166644Y-39198318D01*
X168141716Y-39199391D01*
X168090123Y-39209081D01*
X168041835Y-39228848D01*
X168021296Y-39241004D01*
X167982921Y-39272821D01*
X167952931Y-39312135D01*
X167942224Y-39332322D01*
X167926624Y-39378830D01*
X167921424Y-39429127D01*
X167921633Y-39439189D01*
X167928946Y-39488181D01*
X167946706Y-39534978D01*
X167974913Y-39579581D01*
X168007494Y-39615061D01*
X168045329Y-39648732D01*
X168088202Y-39683629D01*
X168132205Y-39717578D01*
X168147593Y-39729317D01*
X168190091Y-39763251D01*
X168232727Y-39800411D01*
X168272294Y-39839673D01*
X168305129Y-39879755D01*
X168307248Y-39882810D01*
X168330958Y-39929153D01*
X168339567Y-39979651D01*
X168335080Y-40017872D01*
X168316120Y-40064403D01*
X168289645Y-40098238D01*
X168248221Y-40128150D01*
X168201998Y-40145919D01*
X168152722Y-40151842D01*
X168137994Y-40151170D01*
X168088174Y-40138241D01*
X168041042Y-40108855D01*
X168002782Y-40070570D01*
X167972408Y-40029430D01*
X167943406Y-39979895D01*
X167857432Y-40031430D01*
X167693656Y-40031430D01*
X167705386Y-39982403D01*
X167712874Y-39929486D01*
X167716696Y-39877900D01*
X167717969Y-39821381D01*
X167717969Y-39213949D01*
X167616853Y-39213949D01*
X167616853Y-39822847D01*
X167616212Y-39877389D01*
X167613607Y-39931356D01*
X167606595Y-39980383D01*
X167605678Y-39983711D01*
X167588032Y-40029965D01*
X167561166Y-40071730D01*
X167526544Y-40105252D01*
X167484229Y-40130593D01*
X167437273Y-40146530D01*
X167388242Y-40151842D01*
X167370176Y-40151180D01*
X167319847Y-40142284D01*
X167273447Y-40124731D01*
X167266448Y-40121291D01*
X167223866Y-40094384D01*
X167188939Y-40057564D01*
X167185597Y-40052481D01*
X167164425Y-40006319D01*
X167154013Y-39957913D01*
X167151324Y-39922661D01*
X167150120Y-39871863D01*
X167149861Y-39822847D01*
X167149861Y-39213949D01*
X167048988Y-39213949D01*
X167048988Y-39821381D01*
X166937877Y-39821381D01*
X166937877Y-39087207D01*
X171070183Y-39087207D01*
X171070183Y-40356742D01*
G37*
G36*
X108496589Y-52529904D02*
G01*
X108552123Y-52531320D01*
X108603214Y-52534847D01*
X108652582Y-52542735D01*
X108688989Y-52554581D01*
X108735872Y-52580135D01*
X108773482Y-52615031D01*
X108792716Y-52642417D01*
X108811263Y-52687731D01*
X108817445Y-52738129D01*
X108817323Y-52745121D01*
X108808622Y-52795610D01*
X108786182Y-52842665D01*
X108782195Y-52848580D01*
X108747244Y-52886619D01*
X108703384Y-52913496D01*
X108693204Y-52917555D01*
X108642136Y-52929800D01*
X108592971Y-52934791D01*
X108541451Y-52936210D01*
X108416399Y-52936210D01*
X108416399Y-52529790D01*
X108473307Y-52529790D01*
X108496589Y-52529904D01*
G37*
G36*
X108539701Y-52107778D02*
G01*
X108593640Y-52111650D01*
X108642922Y-52123385D01*
X108687264Y-52147794D01*
X108703782Y-52163880D01*
X108729033Y-52209695D01*
X108735868Y-52258192D01*
X108728602Y-52308140D01*
X108706803Y-52353447D01*
X108672793Y-52390511D01*
X108628401Y-52416217D01*
X108625264Y-52417434D01*
X108574573Y-52429741D01*
X108523072Y-52434764D01*
X108474040Y-52436001D01*
X108416399Y-52436001D01*
X108416399Y-52107739D01*
X108533147Y-52107739D01*
X108539701Y-52107778D01*
G37*
G36*
X109712552Y-52107996D02*
G01*
X109774023Y-52109570D01*
X109829483Y-52112576D01*
X109878932Y-52117012D01*
X109930338Y-52124225D01*
X109985415Y-52137048D01*
X110016170Y-52147852D01*
X110065787Y-52171736D01*
X110110050Y-52201954D01*
X110148961Y-52238507D01*
X110182519Y-52281395D01*
X110210118Y-52329424D01*
X110230938Y-52381613D01*
X110243389Y-52429658D01*
X110250859Y-52480760D01*
X110253349Y-52534919D01*
X110251757Y-52578051D01*
X110245643Y-52627006D01*
X110232715Y-52680257D01*
X110213546Y-52729348D01*
X110188136Y-52774277D01*
X110171070Y-52797820D01*
X110137530Y-52834483D01*
X110099316Y-52865373D01*
X110056426Y-52890489D01*
X110008862Y-52909832D01*
X109980385Y-52917431D01*
X109929979Y-52925906D01*
X109876988Y-52931161D01*
X109825928Y-52934124D01*
X109768596Y-52935798D01*
X109718213Y-52936210D01*
X109601465Y-52936210D01*
X109601465Y-52107739D01*
X109672784Y-52107739D01*
X109712552Y-52107996D01*
G37*
G36*
X112364096Y-52701737D02*
G01*
X112066852Y-52701737D01*
X112364096Y-52281395D01*
X112364096Y-52701737D01*
G37*
G36*
X112698689Y-53156742D02*
G01*
X106594122Y-53156742D01*
X106594122Y-52621381D01*
X106705233Y-52621381D01*
X106705886Y-52675577D01*
X106708297Y-52730406D01*
X106713227Y-52781991D01*
X106723796Y-52833628D01*
X106736905Y-52868210D01*
X106764167Y-52915123D01*
X106800549Y-52956086D01*
X106840544Y-52987501D01*
X106851581Y-52994540D01*
X106898475Y-53018156D01*
X106949766Y-53034505D01*
X106998252Y-53042849D01*
X107050104Y-53045631D01*
X107104311Y-53041784D01*
X107154335Y-53030244D01*
X107200176Y-53011010D01*
X107241835Y-52984082D01*
X107265347Y-52964323D01*
X107301147Y-52926112D01*
X107328562Y-52884501D01*
X107347592Y-52839490D01*
X107349230Y-52834234D01*
X107349901Y-52831430D01*
X107513677Y-52831430D01*
X107517642Y-52838601D01*
X107546024Y-52885163D01*
X107575505Y-52925368D01*
X107610542Y-52963531D01*
X107651674Y-52996538D01*
X107675524Y-53010681D01*
X107720557Y-53030098D01*
X107768294Y-53041748D01*
X107818736Y-53045631D01*
X107833526Y-53045316D01*
X107883078Y-53039255D01*
X107935503Y-53022884D01*
X107983439Y-52996437D01*
X108021702Y-52965031D01*
X108058247Y-52922945D01*
X108084351Y-52877287D01*
X108100013Y-52828056D01*
X108105233Y-52775254D01*
X108105186Y-52770523D01*
X108098364Y-52718571D01*
X108082145Y-52671492D01*
X108056385Y-52624556D01*
X108031158Y-52590640D01*
X107998008Y-52554712D01*
X107956933Y-52516775D01*
X107915420Y-52482657D01*
X107876378Y-52453098D01*
X107869551Y-52448045D01*
X107853411Y-52436001D01*
X108317480Y-52436001D01*
X108317480Y-52936210D01*
X108317480Y-53030000D01*
X108594940Y-53030000D01*
X108640314Y-53027912D01*
X108690826Y-53019898D01*
X108744331Y-53002952D01*
X108791992Y-52977824D01*
X108833810Y-52944515D01*
X108841688Y-52936210D01*
X109504501Y-52936210D01*
X109504501Y-53030000D01*
X109825924Y-53030000D01*
X110546685Y-53030000D01*
X110651221Y-53030000D01*
X110651221Y-52247201D01*
X111317515Y-53030000D01*
X111340230Y-53030000D01*
X111340230Y-52795526D01*
X111881228Y-52795526D01*
X112364096Y-52795526D01*
X112364096Y-53030000D01*
X112465212Y-53030000D01*
X112465212Y-52795526D01*
X112587578Y-52795526D01*
X112587578Y-52701737D01*
X112465212Y-52701737D01*
X112465212Y-51998318D01*
X112444696Y-51998318D01*
X111947518Y-52701737D01*
X111881228Y-52795526D01*
X111340230Y-52795526D01*
X111340230Y-52013949D01*
X111240579Y-52013949D01*
X111240579Y-52803342D01*
X110568667Y-52013949D01*
X110546685Y-52013949D01*
X110546685Y-53030000D01*
X109825924Y-53030000D01*
X109860629Y-53029514D01*
X109915180Y-53026550D01*
X109965616Y-53020890D01*
X110020708Y-53010540D01*
X110069875Y-52996309D01*
X110119748Y-52974801D01*
X110145329Y-52960051D01*
X110187138Y-52929665D01*
X110225184Y-52893459D01*
X110259466Y-52851433D01*
X110289986Y-52803586D01*
X110297942Y-52788912D01*
X110318730Y-52743182D01*
X110334899Y-52694894D01*
X110346448Y-52644046D01*
X110353377Y-52590640D01*
X110355687Y-52534675D01*
X110353665Y-52480614D01*
X110347601Y-52428949D01*
X110337494Y-52379682D01*
X110323344Y-52332812D01*
X110301027Y-52279732D01*
X110272889Y-52230104D01*
X110262288Y-52214434D01*
X110227475Y-52170982D01*
X110188145Y-52132872D01*
X110144299Y-52100102D01*
X110095936Y-52072673D01*
X110043056Y-52050586D01*
X110036539Y-52048332D01*
X109984117Y-52034557D01*
X109929715Y-52025541D01*
X109877702Y-52019996D01*
X109819620Y-52016239D01*
X109768783Y-52014522D01*
X109714061Y-52013949D01*
X109504501Y-52013949D01*
X109504501Y-52936210D01*
X108841688Y-52936210D01*
X108854647Y-52922548D01*
X108884426Y-52881241D01*
X108905697Y-52836288D01*
X108918460Y-52787689D01*
X108922714Y-52735443D01*
X108922344Y-52720380D01*
X108915218Y-52669883D01*
X108899023Y-52622847D01*
X108895987Y-52616404D01*
X108868474Y-52571914D01*
X108832588Y-52534187D01*
X108802449Y-52512090D01*
X108756837Y-52488093D01*
X108710956Y-52470195D01*
X108737468Y-52454253D01*
X108776010Y-52422357D01*
X108807920Y-52381290D01*
X108819126Y-52360262D01*
X108835451Y-52311813D01*
X108840893Y-52259413D01*
X108838542Y-52224441D01*
X108826200Y-52175016D01*
X108803279Y-52129232D01*
X108782900Y-52101816D01*
X108745978Y-52067790D01*
X108701430Y-52042281D01*
X108665710Y-52029886D01*
X108617204Y-52020175D01*
X108566691Y-52015305D01*
X108516782Y-52013949D01*
X108317480Y-52013949D01*
X108317480Y-52436001D01*
X107853411Y-52436001D01*
X107826735Y-52416095D01*
X107784463Y-52383809D01*
X107745952Y-52351981D01*
X107723588Y-52327597D01*
X107695638Y-52284570D01*
X107689654Y-52268939D01*
X107681960Y-52220579D01*
X107691669Y-52170631D01*
X107720795Y-52129232D01*
X107728272Y-52122597D01*
X107771516Y-52099213D01*
X107820690Y-52092107D01*
X107860795Y-52096782D01*
X107908374Y-52116531D01*
X107940934Y-52142016D01*
X107974885Y-52178292D01*
X108005582Y-52217159D01*
X108087892Y-52154877D01*
X108070661Y-52133346D01*
X108036864Y-52095549D01*
X107999901Y-52061422D01*
X107956245Y-52031779D01*
X107924646Y-52017140D01*
X107875073Y-52003023D01*
X107822889Y-51998318D01*
X107797961Y-51999391D01*
X107746368Y-52009081D01*
X107698080Y-52028848D01*
X107677541Y-52041004D01*
X107639166Y-52072821D01*
X107609176Y-52112135D01*
X107598469Y-52132322D01*
X107582869Y-52178830D01*
X107577669Y-52229127D01*
X107577878Y-52239189D01*
X107585191Y-52288181D01*
X107602951Y-52334978D01*
X107631158Y-52379581D01*
X107663739Y-52415061D01*
X107701574Y-52448732D01*
X107744447Y-52483629D01*
X107788450Y-52517578D01*
X107803838Y-52529317D01*
X107846336Y-52563251D01*
X107888972Y-52600411D01*
X107928539Y-52639673D01*
X107961374Y-52679755D01*
X107963493Y-52682810D01*
X107987203Y-52729153D01*
X107995812Y-52779651D01*
X107991325Y-52817872D01*
X107972365Y-52864403D01*
X107945890Y-52898238D01*
X107904466Y-52928150D01*
X107858243Y-52945919D01*
X107808967Y-52951842D01*
X107794239Y-52951170D01*
X107744419Y-52938241D01*
X107697287Y-52908855D01*
X107659027Y-52870570D01*
X107628653Y-52829430D01*
X107599651Y-52779895D01*
X107513677Y-52831430D01*
X107349901Y-52831430D01*
X107361631Y-52782403D01*
X107369119Y-52729486D01*
X107372941Y-52677900D01*
X107374214Y-52621381D01*
X107374214Y-52013949D01*
X107273098Y-52013949D01*
X107273098Y-52622847D01*
X107272457Y-52677389D01*
X107269852Y-52731356D01*
X107262840Y-52780383D01*
X107261923Y-52783711D01*
X107244277Y-52829965D01*
X107217411Y-52871730D01*
X107182789Y-52905252D01*
X107140474Y-52930593D01*
X107093518Y-52946530D01*
X107044487Y-52951842D01*
X107026421Y-52951180D01*
X106976092Y-52942284D01*
X106929692Y-52924731D01*
X106922693Y-52921291D01*
X106880111Y-52894384D01*
X106845184Y-52857564D01*
X106841842Y-52852481D01*
X106820670Y-52806319D01*
X106810258Y-52757913D01*
X106807569Y-52722661D01*
X106806365Y-52671863D01*
X106806106Y-52622847D01*
X106806106Y-52013949D01*
X106705233Y-52013949D01*
X106705233Y-52621381D01*
X106594122Y-52621381D01*
X106594122Y-51887207D01*
X112698689Y-51887207D01*
X112698689Y-53156742D01*
G37*
D12*
X156403884Y-66891466D02*
X157165789Y-66891466D01*
X156784836Y-67272419D02*
X156784836Y-66510514D01*
D11*
G36*
X133296589Y-52529904D02*
G01*
X133352123Y-52531320D01*
X133403214Y-52534847D01*
X133452582Y-52542735D01*
X133488989Y-52554581D01*
X133535872Y-52580135D01*
X133573482Y-52615031D01*
X133592716Y-52642417D01*
X133611263Y-52687731D01*
X133617445Y-52738129D01*
X133617323Y-52745121D01*
X133608622Y-52795610D01*
X133586182Y-52842665D01*
X133582195Y-52848580D01*
X133547244Y-52886619D01*
X133503384Y-52913496D01*
X133493204Y-52917555D01*
X133442136Y-52929800D01*
X133392971Y-52934791D01*
X133341451Y-52936210D01*
X133216399Y-52936210D01*
X133216399Y-52529790D01*
X133273307Y-52529790D01*
X133296589Y-52529904D01*
G37*
G36*
X133339701Y-52107778D02*
G01*
X133393640Y-52111650D01*
X133442922Y-52123385D01*
X133487264Y-52147794D01*
X133503782Y-52163880D01*
X133529033Y-52209695D01*
X133535868Y-52258192D01*
X133528602Y-52308140D01*
X133506803Y-52353447D01*
X133472793Y-52390511D01*
X133428401Y-52416217D01*
X133425264Y-52417434D01*
X133374573Y-52429741D01*
X133323072Y-52434764D01*
X133274040Y-52436001D01*
X133216399Y-52436001D01*
X133216399Y-52107739D01*
X133333147Y-52107739D01*
X133339701Y-52107778D01*
G37*
G36*
X134512552Y-52107996D02*
G01*
X134574023Y-52109570D01*
X134629483Y-52112576D01*
X134678932Y-52117012D01*
X134730338Y-52124225D01*
X134785415Y-52137048D01*
X134816170Y-52147852D01*
X134865787Y-52171736D01*
X134910050Y-52201954D01*
X134948961Y-52238507D01*
X134982519Y-52281395D01*
X135010118Y-52329424D01*
X135030938Y-52381613D01*
X135043389Y-52429658D01*
X135050859Y-52480760D01*
X135053349Y-52534919D01*
X135051757Y-52578051D01*
X135045643Y-52627006D01*
X135032715Y-52680257D01*
X135013546Y-52729348D01*
X134988136Y-52774277D01*
X134971070Y-52797820D01*
X134937530Y-52834483D01*
X134899316Y-52865373D01*
X134856426Y-52890489D01*
X134808862Y-52909832D01*
X134780385Y-52917431D01*
X134729979Y-52925906D01*
X134676988Y-52931161D01*
X134625928Y-52934124D01*
X134568596Y-52935798D01*
X134518213Y-52936210D01*
X134401465Y-52936210D01*
X134401465Y-52107739D01*
X134472784Y-52107739D01*
X134512552Y-52107996D01*
G37*
G36*
X137484767Y-53156742D02*
G01*
X131394122Y-53156742D01*
X131394122Y-52621381D01*
X131505233Y-52621381D01*
X131505886Y-52675577D01*
X131508297Y-52730406D01*
X131513227Y-52781991D01*
X131523796Y-52833628D01*
X131536905Y-52868210D01*
X131564167Y-52915123D01*
X131600549Y-52956086D01*
X131640544Y-52987501D01*
X131651581Y-52994540D01*
X131698475Y-53018156D01*
X131749766Y-53034505D01*
X131798252Y-53042849D01*
X131850104Y-53045631D01*
X131904311Y-53041784D01*
X131954335Y-53030244D01*
X132000176Y-53011010D01*
X132041835Y-52984082D01*
X132065347Y-52964323D01*
X132101147Y-52926112D01*
X132128562Y-52884501D01*
X132147592Y-52839490D01*
X132149230Y-52834234D01*
X132149901Y-52831430D01*
X132313677Y-52831430D01*
X132317642Y-52838601D01*
X132346024Y-52885163D01*
X132375505Y-52925368D01*
X132410542Y-52963531D01*
X132451674Y-52996538D01*
X132475524Y-53010681D01*
X132520557Y-53030098D01*
X132568294Y-53041748D01*
X132618736Y-53045631D01*
X132633526Y-53045316D01*
X132683078Y-53039255D01*
X132735503Y-53022884D01*
X132783439Y-52996437D01*
X132821702Y-52965031D01*
X132858247Y-52922945D01*
X132884351Y-52877287D01*
X132900013Y-52828056D01*
X132905233Y-52775254D01*
X132905186Y-52770523D01*
X132898364Y-52718571D01*
X132882145Y-52671492D01*
X132856385Y-52624556D01*
X132831158Y-52590640D01*
X132798008Y-52554712D01*
X132756933Y-52516775D01*
X132715420Y-52482657D01*
X132676378Y-52453098D01*
X132669551Y-52448045D01*
X132653411Y-52436001D01*
X133117480Y-52436001D01*
X133117480Y-52936210D01*
X133117480Y-53030000D01*
X133394940Y-53030000D01*
X133440314Y-53027912D01*
X133490826Y-53019898D01*
X133544331Y-53002952D01*
X133591992Y-52977824D01*
X133633810Y-52944515D01*
X133641688Y-52936210D01*
X134304501Y-52936210D01*
X134304501Y-53030000D01*
X134625924Y-53030000D01*
X135346685Y-53030000D01*
X135451221Y-53030000D01*
X135451221Y-52247201D01*
X136117515Y-53030000D01*
X136140230Y-53030000D01*
X136687578Y-53030000D01*
X137373656Y-53030000D01*
X137373656Y-52936210D01*
X136907397Y-52936210D01*
X137158722Y-52665345D01*
X137187242Y-52634059D01*
X137225455Y-52590250D01*
X137258190Y-52550184D01*
X137289458Y-52508173D01*
X137318702Y-52461646D01*
X137323700Y-52452202D01*
X137343855Y-52403749D01*
X137355948Y-52353246D01*
X137359979Y-52300690D01*
X137358631Y-52270607D01*
X137349791Y-52220402D01*
X137332699Y-52173307D01*
X137307355Y-52129321D01*
X137273761Y-52088443D01*
X137245518Y-52062479D01*
X137201610Y-52033523D01*
X137152606Y-52013192D01*
X137098507Y-52001486D01*
X137048080Y-51998318D01*
X136996895Y-52001563D01*
X136948853Y-52011301D01*
X136896776Y-52030865D01*
X136848976Y-52059266D01*
X136811409Y-52090642D01*
X136778725Y-52127066D01*
X136748734Y-52174120D01*
X136727508Y-52226082D01*
X136716291Y-52274528D01*
X136711514Y-52326580D01*
X136808478Y-52326580D01*
X136813799Y-52286566D01*
X136826904Y-52238664D01*
X136849859Y-52192219D01*
X136881507Y-52153656D01*
X136898077Y-52139231D01*
X136943978Y-52111582D01*
X136990754Y-52096976D01*
X137042707Y-52092107D01*
X137054105Y-52092348D01*
X137107748Y-52100797D01*
X137155810Y-52121314D01*
X137198290Y-52153900D01*
X137205980Y-52161687D01*
X137236987Y-52203394D01*
X137255591Y-52249729D01*
X137261793Y-52300690D01*
X137259580Y-52333999D01*
X137247959Y-52382474D01*
X137226378Y-52429162D01*
X137210212Y-52454261D01*
X137179682Y-52494859D01*
X137144553Y-52537069D01*
X137108191Y-52578216D01*
X137073482Y-52616008D01*
X136687578Y-53030000D01*
X136140230Y-53030000D01*
X136140230Y-52013949D01*
X136040579Y-52013949D01*
X136040579Y-52803342D01*
X135368667Y-52013949D01*
X135346685Y-52013949D01*
X135346685Y-53030000D01*
X134625924Y-53030000D01*
X134660629Y-53029514D01*
X134715180Y-53026550D01*
X134765616Y-53020890D01*
X134820708Y-53010540D01*
X134869875Y-52996309D01*
X134919748Y-52974801D01*
X134945329Y-52960051D01*
X134987138Y-52929665D01*
X135025184Y-52893459D01*
X135059466Y-52851433D01*
X135089986Y-52803586D01*
X135097942Y-52788912D01*
X135118730Y-52743182D01*
X135134899Y-52694894D01*
X135146448Y-52644046D01*
X135153377Y-52590640D01*
X135155687Y-52534675D01*
X135153665Y-52480614D01*
X135147601Y-52428949D01*
X135137494Y-52379682D01*
X135123344Y-52332812D01*
X135101027Y-52279732D01*
X135072889Y-52230104D01*
X135062288Y-52214434D01*
X135027475Y-52170982D01*
X134988145Y-52132872D01*
X134944299Y-52100102D01*
X134895936Y-52072673D01*
X134843056Y-52050586D01*
X134836539Y-52048332D01*
X134784117Y-52034557D01*
X134729715Y-52025541D01*
X134677702Y-52019996D01*
X134619620Y-52016239D01*
X134568783Y-52014522D01*
X134514061Y-52013949D01*
X134304501Y-52013949D01*
X134304501Y-52936210D01*
X133641688Y-52936210D01*
X133654647Y-52922548D01*
X133684426Y-52881241D01*
X133705697Y-52836288D01*
X133718460Y-52787689D01*
X133722714Y-52735443D01*
X133722344Y-52720380D01*
X133715218Y-52669883D01*
X133699023Y-52622847D01*
X133695987Y-52616404D01*
X133668474Y-52571914D01*
X133632588Y-52534187D01*
X133602449Y-52512090D01*
X133556837Y-52488093D01*
X133510956Y-52470195D01*
X133537468Y-52454253D01*
X133576010Y-52422357D01*
X133607920Y-52381290D01*
X133619126Y-52360262D01*
X133635451Y-52311813D01*
X133640893Y-52259413D01*
X133638542Y-52224441D01*
X133626200Y-52175016D01*
X133603279Y-52129232D01*
X133582900Y-52101816D01*
X133545978Y-52067790D01*
X133501430Y-52042281D01*
X133465710Y-52029886D01*
X133417204Y-52020175D01*
X133366691Y-52015305D01*
X133316782Y-52013949D01*
X133117480Y-52013949D01*
X133117480Y-52436001D01*
X132653411Y-52436001D01*
X132626735Y-52416095D01*
X132584463Y-52383809D01*
X132545952Y-52351981D01*
X132523588Y-52327597D01*
X132495638Y-52284570D01*
X132489654Y-52268939D01*
X132481960Y-52220579D01*
X132491669Y-52170631D01*
X132520795Y-52129232D01*
X132528272Y-52122597D01*
X132571516Y-52099213D01*
X132620690Y-52092107D01*
X132660795Y-52096782D01*
X132708374Y-52116531D01*
X132740934Y-52142016D01*
X132774885Y-52178292D01*
X132805582Y-52217159D01*
X132887892Y-52154877D01*
X132870661Y-52133346D01*
X132836864Y-52095549D01*
X132799901Y-52061422D01*
X132756245Y-52031779D01*
X132724646Y-52017140D01*
X132675073Y-52003023D01*
X132622889Y-51998318D01*
X132597961Y-51999391D01*
X132546368Y-52009081D01*
X132498080Y-52028848D01*
X132477541Y-52041004D01*
X132439166Y-52072821D01*
X132409176Y-52112135D01*
X132398469Y-52132322D01*
X132382869Y-52178830D01*
X132377669Y-52229127D01*
X132377878Y-52239189D01*
X132385191Y-52288181D01*
X132402951Y-52334978D01*
X132431158Y-52379581D01*
X132463739Y-52415061D01*
X132501574Y-52448732D01*
X132544447Y-52483629D01*
X132588450Y-52517578D01*
X132603838Y-52529317D01*
X132646336Y-52563251D01*
X132688972Y-52600411D01*
X132728539Y-52639673D01*
X132761374Y-52679755D01*
X132763493Y-52682810D01*
X132787203Y-52729153D01*
X132795812Y-52779651D01*
X132791325Y-52817872D01*
X132772365Y-52864403D01*
X132745890Y-52898238D01*
X132704466Y-52928150D01*
X132658243Y-52945919D01*
X132608967Y-52951842D01*
X132594239Y-52951170D01*
X132544419Y-52938241D01*
X132497287Y-52908855D01*
X132459027Y-52870570D01*
X132428653Y-52829430D01*
X132399651Y-52779895D01*
X132313677Y-52831430D01*
X132149901Y-52831430D01*
X132161631Y-52782403D01*
X132169119Y-52729486D01*
X132172941Y-52677900D01*
X132174214Y-52621381D01*
X132174214Y-52013949D01*
X132073098Y-52013949D01*
X132073098Y-52622847D01*
X132072457Y-52677389D01*
X132069852Y-52731356D01*
X132062840Y-52780383D01*
X132061923Y-52783711D01*
X132044277Y-52829965D01*
X132017411Y-52871730D01*
X131982789Y-52905252D01*
X131940474Y-52930593D01*
X131893518Y-52946530D01*
X131844487Y-52951842D01*
X131826421Y-52951180D01*
X131776092Y-52942284D01*
X131729692Y-52924731D01*
X131722693Y-52921291D01*
X131680111Y-52894384D01*
X131645184Y-52857564D01*
X131641842Y-52852481D01*
X131620670Y-52806319D01*
X131610258Y-52757913D01*
X131607569Y-52722661D01*
X131606365Y-52671863D01*
X131606106Y-52622847D01*
X131606106Y-52013949D01*
X131505233Y-52013949D01*
X131505233Y-52621381D01*
X131394122Y-52621381D01*
X131394122Y-51887207D01*
X137484767Y-51887207D01*
X137484767Y-53156742D01*
G37*
D13*
X96326326Y-72869581D02*
X96326326Y-73821962D01*
X95659660Y-71821962D02*
X96326326Y-72869581D01*
X96326326Y-72869581D02*
X96992993Y-71821962D01*
X98516803Y-72488628D02*
X98516803Y-73821962D01*
X97659660Y-72488628D02*
X97659660Y-73536247D01*
X97659660Y-73536247D02*
X97754898Y-73726724D01*
X97754898Y-73726724D02*
X97945374Y-73821962D01*
X97945374Y-73821962D02*
X98231089Y-73821962D01*
X98231089Y-73821962D02*
X98421565Y-73726724D01*
X98421565Y-73726724D02*
X98516803Y-73631485D01*
X99469184Y-73821962D02*
X99469184Y-71821962D01*
X100326327Y-73821962D02*
X100326327Y-72774343D01*
X100326327Y-72774343D02*
X100231089Y-72583866D01*
X100231089Y-72583866D02*
X100040613Y-72488628D01*
X100040613Y-72488628D02*
X99754898Y-72488628D01*
X99754898Y-72488628D02*
X99564422Y-72583866D01*
X99564422Y-72583866D02*
X99469184Y-72679104D01*
X101278708Y-73821962D02*
X101278708Y-71821962D01*
X102421565Y-73821962D02*
X101564422Y-72679104D01*
X102421565Y-71821962D02*
X101278708Y-72964819D01*
X104135851Y-72488628D02*
X104135851Y-73821962D01*
X103278708Y-72488628D02*
X103278708Y-73536247D01*
X103278708Y-73536247D02*
X103373946Y-73726724D01*
X103373946Y-73726724D02*
X103564422Y-73821962D01*
X103564422Y-73821962D02*
X103850137Y-73821962D01*
X103850137Y-73821962D02*
X104040613Y-73726724D01*
X104040613Y-73726724D02*
X104135851Y-73631485D01*
X105088232Y-73821962D02*
X105088232Y-72488628D01*
X105088232Y-72869581D02*
X105183470Y-72679104D01*
X105183470Y-72679104D02*
X105278708Y-72583866D01*
X105278708Y-72583866D02*
X105469184Y-72488628D01*
X105469184Y-72488628D02*
X105659661Y-72488628D01*
X106612041Y-73821962D02*
X106421565Y-73726724D01*
X106421565Y-73726724D02*
X106326327Y-73631485D01*
X106326327Y-73631485D02*
X106231089Y-73441009D01*
X106231089Y-73441009D02*
X106231089Y-72869581D01*
X106231089Y-72869581D02*
X106326327Y-72679104D01*
X106326327Y-72679104D02*
X106421565Y-72583866D01*
X106421565Y-72583866D02*
X106612041Y-72488628D01*
X106612041Y-72488628D02*
X106897756Y-72488628D01*
X106897756Y-72488628D02*
X107088232Y-72583866D01*
X107088232Y-72583866D02*
X107183470Y-72679104D01*
X107183470Y-72679104D02*
X107278708Y-72869581D01*
X107278708Y-72869581D02*
X107278708Y-73441009D01*
X107278708Y-73441009D02*
X107183470Y-73631485D01*
X107183470Y-73631485D02*
X107088232Y-73726724D01*
X107088232Y-73726724D02*
X106897756Y-73821962D01*
X106897756Y-73821962D02*
X106612041Y-73821962D01*
X112326328Y-73821962D02*
X111659661Y-72869581D01*
X111183471Y-73821962D02*
X111183471Y-71821962D01*
X111183471Y-71821962D02*
X111945376Y-71821962D01*
X111945376Y-71821962D02*
X112135852Y-71917200D01*
X112135852Y-71917200D02*
X112231090Y-72012438D01*
X112231090Y-72012438D02*
X112326328Y-72202914D01*
X112326328Y-72202914D02*
X112326328Y-72488628D01*
X112326328Y-72488628D02*
X112231090Y-72679104D01*
X112231090Y-72679104D02*
X112135852Y-72774343D01*
X112135852Y-72774343D02*
X111945376Y-72869581D01*
X111945376Y-72869581D02*
X111183471Y-72869581D01*
X113183471Y-72774343D02*
X113850138Y-72774343D01*
X114135852Y-73821962D02*
X113183471Y-73821962D01*
X113183471Y-73821962D02*
X113183471Y-71821962D01*
X113183471Y-71821962D02*
X114135852Y-71821962D01*
X114707281Y-71821962D02*
X115373947Y-73821962D01*
X115373947Y-73821962D02*
X116040614Y-71821962D01*
X118897758Y-72774343D02*
X119183472Y-72869581D01*
X119183472Y-72869581D02*
X119278710Y-72964819D01*
X119278710Y-72964819D02*
X119373948Y-73155295D01*
X119373948Y-73155295D02*
X119373948Y-73441009D01*
X119373948Y-73441009D02*
X119278710Y-73631485D01*
X119278710Y-73631485D02*
X119183472Y-73726724D01*
X119183472Y-73726724D02*
X118992996Y-73821962D01*
X118992996Y-73821962D02*
X118231091Y-73821962D01*
X118231091Y-73821962D02*
X118231091Y-71821962D01*
X118231091Y-71821962D02*
X118897758Y-71821962D01*
X118897758Y-71821962D02*
X119088234Y-71917200D01*
X119088234Y-71917200D02*
X119183472Y-72012438D01*
X119183472Y-72012438D02*
X119278710Y-72202914D01*
X119278710Y-72202914D02*
X119278710Y-72393390D01*
X119278710Y-72393390D02*
X119183472Y-72583866D01*
X119183472Y-72583866D02*
X119088234Y-72679104D01*
X119088234Y-72679104D02*
X118897758Y-72774343D01*
X118897758Y-72774343D02*
X118231091Y-72774343D01*
D11*
G36*
X137982823Y-69358614D02*
G01*
X138031868Y-69366406D01*
X138084113Y-69385587D01*
X138126497Y-69411361D01*
X138165771Y-69445526D01*
X138185979Y-69468020D01*
X138214858Y-69510138D01*
X138235486Y-69555762D01*
X138247863Y-69604892D01*
X138251989Y-69657529D01*
X138251951Y-69662526D01*
X138247342Y-69711336D01*
X138233403Y-69762603D01*
X138212666Y-69807006D01*
X138185546Y-69847282D01*
X138149489Y-69884478D01*
X138106909Y-69914228D01*
X138064099Y-69934064D01*
X138014034Y-69947397D01*
X137960852Y-69951842D01*
X137912222Y-69948169D01*
X137861706Y-69935643D01*
X137814306Y-69914228D01*
X137775432Y-69887490D01*
X137738787Y-69850971D01*
X137708549Y-69807006D01*
X137686300Y-69758047D01*
X137673286Y-69706549D01*
X137669470Y-69657529D01*
X137670809Y-69627022D01*
X137679600Y-69576389D01*
X137696595Y-69529262D01*
X137721795Y-69485641D01*
X137755199Y-69445526D01*
X137777219Y-69424976D01*
X137818289Y-69395605D01*
X137862584Y-69374626D01*
X137910105Y-69362039D01*
X137960852Y-69357843D01*
X137982823Y-69358614D01*
G37*
G36*
X140114537Y-69359152D02*
G01*
X140166422Y-69368529D01*
X140212526Y-69385198D01*
X140230871Y-69394170D01*
X140273097Y-69421460D01*
X140309735Y-69457250D01*
X140329089Y-69484768D01*
X140350567Y-69528852D01*
X140365911Y-69576685D01*
X139809526Y-69576685D01*
X139815314Y-69558349D01*
X139835641Y-69508621D01*
X139863437Y-69462659D01*
X139896720Y-69426475D01*
X139938211Y-69396449D01*
X139983549Y-69375001D01*
X140032733Y-69362133D01*
X140085764Y-69357843D01*
X140114537Y-69359152D01*
G37*
G36*
X141836483Y-69361707D02*
G01*
X141886708Y-69374883D01*
X141934683Y-69397411D01*
X141978409Y-69428168D01*
X142015556Y-69466372D01*
X142043615Y-69507564D01*
X142064996Y-69552420D01*
X142079368Y-69603469D01*
X142084159Y-69656308D01*
X142079397Y-69708950D01*
X142065111Y-69759745D01*
X142043859Y-69804319D01*
X142016081Y-69845077D01*
X141979189Y-69882858D01*
X141935660Y-69913251D01*
X141887507Y-69935222D01*
X141836410Y-69948073D01*
X141787404Y-69951842D01*
X141756759Y-69950506D01*
X141706106Y-69941741D01*
X141659240Y-69924794D01*
X141616160Y-69899666D01*
X141576867Y-69866357D01*
X141556831Y-69844329D01*
X141528197Y-69802622D01*
X141507744Y-69756894D01*
X141495472Y-69707146D01*
X141491382Y-69653377D01*
X141495103Y-69602945D01*
X141507791Y-69551216D01*
X141529484Y-69503412D01*
X141559575Y-69460803D01*
X141597459Y-69424659D01*
X141638660Y-69397411D01*
X141683869Y-69376545D01*
X141735417Y-69362519D01*
X141788870Y-69357843D01*
X141836483Y-69361707D01*
G37*
G36*
X142726996Y-69358614D02*
G01*
X142776041Y-69366406D01*
X142828286Y-69385587D01*
X142870670Y-69411361D01*
X142909944Y-69445526D01*
X142930152Y-69468020D01*
X142959031Y-69510138D01*
X142979659Y-69555762D01*
X142992036Y-69604892D01*
X142996162Y-69657529D01*
X142996124Y-69662526D01*
X142991516Y-69711336D01*
X142977576Y-69762603D01*
X142956839Y-69807006D01*
X142929719Y-69847282D01*
X142893662Y-69884478D01*
X142851082Y-69914228D01*
X142808273Y-69934064D01*
X142758207Y-69947397D01*
X142705025Y-69951842D01*
X142656395Y-69948169D01*
X142605879Y-69935643D01*
X142558479Y-69914228D01*
X142519605Y-69887490D01*
X142482960Y-69850971D01*
X142452722Y-69807006D01*
X142430473Y-69758047D01*
X142417459Y-69706549D01*
X142413643Y-69657529D01*
X142414982Y-69627022D01*
X142423773Y-69576389D01*
X142440768Y-69529262D01*
X142465968Y-69485641D01*
X142499372Y-69445526D01*
X142521392Y-69424976D01*
X142562462Y-69395605D01*
X142606757Y-69374626D01*
X142654278Y-69362039D01*
X142705025Y-69357843D01*
X142726996Y-69358614D01*
G37*
G36*
X143658175Y-69359183D02*
G01*
X143708828Y-69367973D01*
X143755694Y-69384968D01*
X143798774Y-69410168D01*
X143838067Y-69443572D01*
X143858103Y-69465600D01*
X143886737Y-69507307D01*
X143907190Y-69553035D01*
X143919462Y-69602783D01*
X143923552Y-69656552D01*
X143919831Y-69707137D01*
X143907143Y-69759034D01*
X143885450Y-69807006D01*
X143855388Y-69849586D01*
X143817591Y-69885643D01*
X143776518Y-69912763D01*
X143731567Y-69933371D01*
X143680192Y-69947224D01*
X143626797Y-69951842D01*
X143578774Y-69948002D01*
X143528207Y-69934907D01*
X143480007Y-69912519D01*
X143436420Y-69881622D01*
X143399355Y-69843337D01*
X143371319Y-69802121D01*
X143349938Y-69757208D01*
X143335566Y-69706316D01*
X143330775Y-69653866D01*
X143335508Y-69601084D01*
X143349707Y-69550208D01*
X143370831Y-69505610D01*
X143398713Y-69464747D01*
X143435611Y-69426961D01*
X143479030Y-69396678D01*
X143527322Y-69374568D01*
X143578500Y-69361636D01*
X143627530Y-69357843D01*
X143658175Y-69359183D01*
G37*
G36*
X145036926Y-69359183D02*
G01*
X145087579Y-69367973D01*
X145134445Y-69384968D01*
X145177525Y-69410168D01*
X145216818Y-69443572D01*
X145236854Y-69465600D01*
X145265488Y-69507307D01*
X145285941Y-69553035D01*
X145298212Y-69602783D01*
X145302303Y-69656552D01*
X145298582Y-69707137D01*
X145285894Y-69759034D01*
X145264201Y-69807006D01*
X145234139Y-69849586D01*
X145196342Y-69885643D01*
X145155269Y-69912763D01*
X145110318Y-69933371D01*
X145058943Y-69947224D01*
X145005548Y-69951842D01*
X144957525Y-69948002D01*
X144906958Y-69934907D01*
X144858758Y-69912519D01*
X144815170Y-69881622D01*
X144778105Y-69843337D01*
X144750070Y-69802121D01*
X144728689Y-69757208D01*
X144714317Y-69706316D01*
X144709526Y-69653866D01*
X144714259Y-69601084D01*
X144728458Y-69550208D01*
X144749581Y-69505610D01*
X144777464Y-69464747D01*
X144814361Y-69426961D01*
X144857781Y-69396678D01*
X144906073Y-69374568D01*
X144957251Y-69361636D01*
X145006281Y-69357843D01*
X145036926Y-69359183D01*
G37*
G36*
X140096589Y-67849904D02*
G01*
X140152123Y-67851320D01*
X140203214Y-67854847D01*
X140252582Y-67862735D01*
X140288989Y-67874581D01*
X140335872Y-67900135D01*
X140373482Y-67935031D01*
X140392716Y-67962417D01*
X140411263Y-68007731D01*
X140417445Y-68058129D01*
X140417323Y-68065121D01*
X140408622Y-68115610D01*
X140386182Y-68162665D01*
X140382195Y-68168580D01*
X140347244Y-68206619D01*
X140303384Y-68233496D01*
X140293204Y-68237555D01*
X140242136Y-68249800D01*
X140192971Y-68254791D01*
X140141451Y-68256210D01*
X140016399Y-68256210D01*
X140016399Y-67849790D01*
X140073307Y-67849790D01*
X140096589Y-67849904D01*
G37*
G36*
X140139701Y-67427778D02*
G01*
X140193640Y-67431650D01*
X140242922Y-67443385D01*
X140287264Y-67467794D01*
X140303782Y-67483880D01*
X140329033Y-67529695D01*
X140335868Y-67578192D01*
X140328602Y-67628140D01*
X140306803Y-67673447D01*
X140272793Y-67710511D01*
X140228401Y-67736217D01*
X140225264Y-67737434D01*
X140174573Y-67749741D01*
X140123072Y-67754764D01*
X140074040Y-67756001D01*
X140016399Y-67756001D01*
X140016399Y-67427739D01*
X140133147Y-67427739D01*
X140139701Y-67427778D01*
G37*
G36*
X141312552Y-67427996D02*
G01*
X141374023Y-67429570D01*
X141429483Y-67432576D01*
X141478932Y-67437012D01*
X141530338Y-67444225D01*
X141585415Y-67457048D01*
X141616170Y-67467852D01*
X141665787Y-67491736D01*
X141710050Y-67521954D01*
X141748961Y-67558507D01*
X141782519Y-67601395D01*
X141810118Y-67649424D01*
X141830938Y-67701613D01*
X141843389Y-67749658D01*
X141850859Y-67800760D01*
X141853349Y-67854919D01*
X141851757Y-67898051D01*
X141845643Y-67947006D01*
X141832715Y-68000257D01*
X141813546Y-68049348D01*
X141788136Y-68094277D01*
X141771070Y-68117820D01*
X141737530Y-68154483D01*
X141699316Y-68185373D01*
X141656426Y-68210489D01*
X141608862Y-68229832D01*
X141580385Y-68237431D01*
X141529979Y-68245906D01*
X141476988Y-68251161D01*
X141425928Y-68254124D01*
X141368596Y-68255798D01*
X141318213Y-68256210D01*
X141201465Y-68256210D01*
X141201465Y-67427739D01*
X141272784Y-67427739D01*
X141312552Y-67427996D01*
G37*
G36*
X145502074Y-70406847D02*
G01*
X136815372Y-70406847D01*
X136815372Y-69107739D01*
X136926483Y-69107739D01*
X137152408Y-69107739D01*
X137152408Y-70030000D01*
X137255478Y-70030000D01*
X137255478Y-69656796D01*
X137571284Y-69656796D01*
X137571300Y-69657529D01*
X137571709Y-69676121D01*
X137578077Y-69732252D01*
X137592088Y-69785618D01*
X137613740Y-69836220D01*
X137643035Y-69884056D01*
X137679972Y-69929127D01*
X137708186Y-69956433D01*
X137754185Y-69990565D01*
X137804597Y-70016505D01*
X137859423Y-70034254D01*
X137908483Y-70042787D01*
X137960607Y-70045631D01*
X137992160Y-70044607D01*
X138042307Y-70038350D01*
X138073522Y-70030000D01*
X138925855Y-70030000D01*
X139028926Y-70030000D01*
X139028926Y-69540048D01*
X139472715Y-70030000D01*
X139606804Y-70030000D01*
X139259680Y-69656796D01*
X139701082Y-69656796D01*
X139701484Y-69675481D01*
X139707524Y-69730069D01*
X139720810Y-69782459D01*
X139741344Y-69832651D01*
X139769124Y-69880645D01*
X139804152Y-69926441D01*
X139838306Y-69960778D01*
X139884422Y-69994300D01*
X139936136Y-70019442D01*
X139983509Y-70033991D01*
X140034769Y-70042721D01*
X140089916Y-70045631D01*
X140134863Y-70043796D01*
X140186125Y-70036567D01*
X140237439Y-70022428D01*
X140269236Y-70009498D01*
X140313899Y-69985124D01*
X140354920Y-69954773D01*
X140389382Y-69920922D01*
X140420901Y-69880490D01*
X140446999Y-69838025D01*
X140365911Y-69795526D01*
X140352321Y-69814665D01*
X140320923Y-69853591D01*
X140284090Y-69888339D01*
X140281723Y-69890129D01*
X140239507Y-69915721D01*
X140192498Y-69934501D01*
X140178958Y-69938565D01*
X140130846Y-69948523D01*
X140081612Y-69951842D01*
X140074261Y-69951765D01*
X140024872Y-69946911D01*
X139972863Y-69932119D01*
X139925587Y-69907466D01*
X139883043Y-69872951D01*
X139873302Y-69862887D01*
X139840405Y-69819175D01*
X139817217Y-69769937D01*
X139804892Y-69722321D01*
X139800000Y-69670474D01*
X140471668Y-69670474D01*
X140471175Y-69651257D01*
X140465974Y-69596010D01*
X140455192Y-69544370D01*
X140438829Y-69496337D01*
X140416884Y-69451909D01*
X140389358Y-69411088D01*
X140374800Y-69393283D01*
X140335775Y-69353796D01*
X140292993Y-69321489D01*
X140246454Y-69296361D01*
X140199723Y-69279685D01*
X140565946Y-69279685D01*
X140872959Y-69969427D01*
X140728611Y-70295736D01*
X140830461Y-70295736D01*
X141112265Y-69653377D01*
X141402722Y-69653377D01*
X141402722Y-70030000D01*
X141498221Y-70030000D01*
X141498221Y-69892491D01*
X141509043Y-69906831D01*
X141543341Y-69945522D01*
X141584666Y-69980899D01*
X141629379Y-70008262D01*
X141643451Y-70014940D01*
X141692529Y-70032457D01*
X141744946Y-70042675D01*
X141794976Y-70045631D01*
X141824475Y-70044629D01*
X141881038Y-70036609D01*
X141934355Y-70020569D01*
X141984427Y-69996509D01*
X142031253Y-69964429D01*
X142067795Y-69931570D01*
X142088048Y-69909769D01*
X142122578Y-69863681D01*
X142149139Y-69814279D01*
X142167732Y-69761563D01*
X142178357Y-69705532D01*
X142181097Y-69656796D01*
X142315457Y-69656796D01*
X142315473Y-69657529D01*
X142315882Y-69676121D01*
X142322250Y-69732252D01*
X142336261Y-69785618D01*
X142357914Y-69836220D01*
X142387208Y-69884056D01*
X142424145Y-69929127D01*
X142452359Y-69956433D01*
X142498358Y-69990565D01*
X142548770Y-70016505D01*
X142603596Y-70034254D01*
X142652656Y-70042787D01*
X142704780Y-70045631D01*
X142736333Y-70044607D01*
X142786480Y-70038350D01*
X142842625Y-70023331D01*
X142894374Y-70000122D01*
X142941726Y-69968720D01*
X142984683Y-69929127D01*
X142997874Y-69914411D01*
X143032341Y-69868418D01*
X143059148Y-69819660D01*
X143078296Y-69768137D01*
X143089785Y-69713849D01*
X143093615Y-69656796D01*
X143093533Y-69652889D01*
X143233810Y-69652889D01*
X143233842Y-69653866D01*
X143234798Y-69683184D01*
X143242698Y-69741172D01*
X143258497Y-69795692D01*
X143282196Y-69846742D01*
X143313795Y-69894324D01*
X143346162Y-69931325D01*
X143360386Y-69945167D01*
X143405223Y-69981334D01*
X143453306Y-70009464D01*
X143504634Y-70029557D01*
X143559208Y-70041612D01*
X143617027Y-70045631D01*
X143628146Y-70045494D01*
X143682080Y-70040685D01*
X143733247Y-70029007D01*
X143781647Y-70010460D01*
X143800221Y-70001011D01*
X143844619Y-69972179D01*
X143882089Y-69939867D01*
X143917202Y-69901528D01*
X143917202Y-70030000D01*
X144012212Y-70030000D01*
X144012212Y-69279685D01*
X144187579Y-69279685D01*
X144187579Y-70030000D01*
X144285764Y-70030000D01*
X144285764Y-69777697D01*
X144286043Y-69731191D01*
X144287175Y-69678791D01*
X144288367Y-69652889D01*
X144612805Y-69652889D01*
X144612837Y-69653866D01*
X144613793Y-69683184D01*
X144621693Y-69741172D01*
X144637492Y-69795692D01*
X144661191Y-69846742D01*
X144692790Y-69894324D01*
X144725157Y-69931325D01*
X144739381Y-69945167D01*
X144784218Y-69981334D01*
X144832301Y-70009464D01*
X144883629Y-70029557D01*
X144938203Y-70041612D01*
X144996023Y-70045631D01*
X145007141Y-70045494D01*
X145061075Y-70040685D01*
X145112242Y-70029007D01*
X145160642Y-70010460D01*
X145179216Y-70001011D01*
X145223614Y-69972179D01*
X145261084Y-69939867D01*
X145296197Y-69901528D01*
X145296197Y-70030000D01*
X145390963Y-70030000D01*
X145390963Y-68998318D01*
X145296197Y-68998318D01*
X145296197Y-69420614D01*
X145281810Y-69401685D01*
X145247373Y-69363560D01*
X145210077Y-69331618D01*
X145165283Y-69303377D01*
X145151161Y-69296350D01*
X145101854Y-69277917D01*
X145049113Y-69267164D01*
X144998709Y-69264054D01*
X144969254Y-69265056D01*
X144912765Y-69273076D01*
X144859505Y-69289116D01*
X144809473Y-69313176D01*
X144762670Y-69345256D01*
X144726134Y-69378115D01*
X144705881Y-69399912D01*
X144671351Y-69445965D01*
X144644790Y-69495298D01*
X144626197Y-69547912D01*
X144615572Y-69603805D01*
X144612805Y-69652889D01*
X144288367Y-69652889D01*
X144289682Y-69624317D01*
X144294192Y-69572355D01*
X144303594Y-69519776D01*
X144316631Y-69480987D01*
X144338843Y-69436576D01*
X144371494Y-69397411D01*
X144414148Y-69369010D01*
X144464306Y-69357843D01*
X144466909Y-69357894D01*
X144515108Y-69370788D01*
X144565422Y-69289455D01*
X144529438Y-69273009D01*
X144480182Y-69264054D01*
X144473602Y-69264172D01*
X144425231Y-69272601D01*
X144378577Y-69294340D01*
X144351486Y-69313963D01*
X144316567Y-69348601D01*
X144285764Y-69388862D01*
X144285764Y-69279685D01*
X144187579Y-69279685D01*
X144012212Y-69279685D01*
X143917202Y-69279685D01*
X143917202Y-69416950D01*
X143906464Y-69402654D01*
X143872345Y-69364068D01*
X143831081Y-69328762D01*
X143786288Y-69301423D01*
X143772165Y-69294745D01*
X143722859Y-69277228D01*
X143670118Y-69267010D01*
X143619714Y-69264054D01*
X143590259Y-69265056D01*
X143533770Y-69273076D01*
X143480510Y-69289116D01*
X143430478Y-69313176D01*
X143383675Y-69345256D01*
X143347139Y-69378115D01*
X143326886Y-69399912D01*
X143292356Y-69445965D01*
X143265795Y-69495298D01*
X143247202Y-69547912D01*
X143236577Y-69603805D01*
X143233810Y-69652889D01*
X143093533Y-69652889D01*
X143093212Y-69637573D01*
X143087173Y-69581860D01*
X143073887Y-69529083D01*
X143053353Y-69479243D01*
X143025572Y-69432340D01*
X142990544Y-69388374D01*
X142983404Y-69380725D01*
X142945968Y-69346124D01*
X142905647Y-69317594D01*
X142853451Y-69291370D01*
X142806780Y-69276195D01*
X142757223Y-69267089D01*
X142704780Y-69264054D01*
X142683398Y-69264542D01*
X142631978Y-69270038D01*
X142583468Y-69281639D01*
X142537868Y-69299347D01*
X142495178Y-69323161D01*
X142455398Y-69353080D01*
X142418528Y-69389106D01*
X142406047Y-69403433D01*
X142373434Y-69448335D01*
X142348069Y-69496123D01*
X142329952Y-69546796D01*
X142319081Y-69600353D01*
X142315457Y-69656796D01*
X142181097Y-69656796D01*
X142181124Y-69656308D01*
X142180136Y-69626102D01*
X142172237Y-69568280D01*
X142156437Y-69513909D01*
X142132738Y-69462990D01*
X142101139Y-69415523D01*
X142068772Y-69378604D01*
X142054547Y-69364733D01*
X142009696Y-69328488D01*
X141961582Y-69300298D01*
X141910205Y-69280163D01*
X141855565Y-69268081D01*
X141797662Y-69264054D01*
X141786574Y-69264198D01*
X141732793Y-69269240D01*
X141681779Y-69281486D01*
X141633531Y-69300935D01*
X141615068Y-69310681D01*
X141570847Y-69340191D01*
X141533413Y-69373031D01*
X141498221Y-69411821D01*
X141498221Y-68998318D01*
X141402722Y-68998318D01*
X141402722Y-69653377D01*
X141112265Y-69653377D01*
X141276204Y-69279685D01*
X141173866Y-69279685D01*
X140924494Y-69853412D01*
X140667551Y-69279685D01*
X140565946Y-69279685D01*
X140199723Y-69279685D01*
X140196159Y-69278413D01*
X140142107Y-69267644D01*
X140084299Y-69264054D01*
X140061418Y-69264603D01*
X140006771Y-69270786D01*
X139955774Y-69283838D01*
X139908425Y-69303759D01*
X139864726Y-69330549D01*
X139824677Y-69364209D01*
X139788277Y-69404738D01*
X139777718Y-69418688D01*
X139750129Y-69461982D01*
X139728671Y-69507440D01*
X139713344Y-69555062D01*
X139709349Y-69576685D01*
X139704147Y-69604847D01*
X139701082Y-69656796D01*
X139259680Y-69656796D01*
X139083392Y-69467264D01*
X139568946Y-69013949D01*
X139432170Y-69013949D01*
X139028926Y-69395701D01*
X139028926Y-69013949D01*
X138925855Y-69013949D01*
X138925855Y-70030000D01*
X138073522Y-70030000D01*
X138098452Y-70023331D01*
X138150201Y-70000122D01*
X138197553Y-69968720D01*
X138240510Y-69929127D01*
X138253701Y-69914411D01*
X138288167Y-69868418D01*
X138314975Y-69819660D01*
X138334123Y-69768137D01*
X138345612Y-69713849D01*
X138349442Y-69656796D01*
X138349039Y-69637573D01*
X138343000Y-69581860D01*
X138329714Y-69529083D01*
X138309180Y-69479243D01*
X138281399Y-69432340D01*
X138246371Y-69388374D01*
X138239231Y-69380725D01*
X138201795Y-69346124D01*
X138161474Y-69317594D01*
X138109278Y-69291370D01*
X138062607Y-69276195D01*
X138013050Y-69267089D01*
X137960607Y-69264054D01*
X137939225Y-69264542D01*
X137887805Y-69270038D01*
X137839295Y-69281639D01*
X137793695Y-69299347D01*
X137751005Y-69323161D01*
X137711225Y-69353080D01*
X137674355Y-69389106D01*
X137661873Y-69403433D01*
X137629261Y-69448335D01*
X137603896Y-69496123D01*
X137585778Y-69546796D01*
X137574908Y-69600353D01*
X137571284Y-69656796D01*
X137255478Y-69656796D01*
X137255478Y-69107739D01*
X137480914Y-69107739D01*
X137480914Y-69013949D01*
X136926483Y-69013949D01*
X136926483Y-69107739D01*
X136815372Y-69107739D01*
X136815372Y-67941381D01*
X138305233Y-67941381D01*
X138305886Y-67995577D01*
X138308297Y-68050406D01*
X138313227Y-68101991D01*
X138323796Y-68153628D01*
X138336905Y-68188210D01*
X138364167Y-68235123D01*
X138400549Y-68276086D01*
X138440544Y-68307501D01*
X138451581Y-68314540D01*
X138498475Y-68338156D01*
X138549766Y-68354505D01*
X138598252Y-68362849D01*
X138650104Y-68365631D01*
X138704311Y-68361784D01*
X138754335Y-68350244D01*
X138800176Y-68331010D01*
X138841835Y-68304082D01*
X138865347Y-68284323D01*
X138901147Y-68246112D01*
X138928562Y-68204501D01*
X138947592Y-68159490D01*
X138949230Y-68154234D01*
X138949901Y-68151430D01*
X139113677Y-68151430D01*
X139117642Y-68158601D01*
X139146024Y-68205163D01*
X139175505Y-68245368D01*
X139210542Y-68283531D01*
X139251674Y-68316538D01*
X139275524Y-68330681D01*
X139320557Y-68350098D01*
X139368294Y-68361748D01*
X139418736Y-68365631D01*
X139433526Y-68365316D01*
X139483078Y-68359255D01*
X139535503Y-68342884D01*
X139583439Y-68316437D01*
X139621702Y-68285031D01*
X139658247Y-68242945D01*
X139684351Y-68197287D01*
X139700013Y-68148056D01*
X139705233Y-68095254D01*
X139705186Y-68090523D01*
X139698364Y-68038571D01*
X139682145Y-67991492D01*
X139656385Y-67944556D01*
X139631158Y-67910640D01*
X139598008Y-67874712D01*
X139556933Y-67836775D01*
X139515420Y-67802657D01*
X139476378Y-67773098D01*
X139469551Y-67768045D01*
X139453411Y-67756001D01*
X139917480Y-67756001D01*
X139917480Y-68256210D01*
X139917480Y-68350000D01*
X140194940Y-68350000D01*
X140240314Y-68347912D01*
X140290826Y-68339898D01*
X140344331Y-68322952D01*
X140391992Y-68297824D01*
X140433810Y-68264515D01*
X140441688Y-68256210D01*
X141104501Y-68256210D01*
X141104501Y-68350000D01*
X141425924Y-68350000D01*
X142146685Y-68350000D01*
X142251221Y-68350000D01*
X142251221Y-67567201D01*
X142917515Y-68350000D01*
X142940230Y-68350000D01*
X142940230Y-68068632D01*
X143495150Y-68068632D01*
X143505018Y-68112551D01*
X143520749Y-68160705D01*
X143544463Y-68210612D01*
X143573950Y-68253764D01*
X143609211Y-68290160D01*
X143631685Y-68307849D01*
X143674266Y-68333128D01*
X143720984Y-68351185D01*
X143771839Y-68362020D01*
X143826831Y-68365631D01*
X143856674Y-68364605D01*
X143908075Y-68357590D01*
X143956502Y-68343929D01*
X144001953Y-68323621D01*
X144016362Y-68315394D01*
X144060173Y-68283566D01*
X144097496Y-68244964D01*
X144125540Y-68204431D01*
X144131042Y-68194782D01*
X144153224Y-68145595D01*
X144166533Y-68094833D01*
X144170970Y-68042498D01*
X144168651Y-68006256D01*
X144156480Y-67954406D01*
X144133875Y-67905569D01*
X144105024Y-67864689D01*
X144073315Y-67832098D01*
X144032540Y-67802418D01*
X143985589Y-67779204D01*
X144022952Y-67754396D01*
X144059428Y-67721194D01*
X144090458Y-67677727D01*
X144109076Y-67629164D01*
X144115282Y-67575505D01*
X144112931Y-67543006D01*
X144100589Y-67495573D01*
X144077669Y-67449720D01*
X144051284Y-67414448D01*
X144015263Y-67381269D01*
X143971912Y-67353977D01*
X143928248Y-67335172D01*
X143877740Y-67322531D01*
X143824633Y-67318318D01*
X143772197Y-67322378D01*
X143723333Y-67334560D01*
X143678042Y-67354863D01*
X143636322Y-67383286D01*
X143631396Y-67387386D01*
X143595610Y-67424099D01*
X143566267Y-67467772D01*
X143543365Y-67518407D01*
X143528611Y-67568422D01*
X143631681Y-67568422D01*
X143649068Y-67528916D01*
X143675917Y-67484764D01*
X143712037Y-67447766D01*
X143727280Y-67437493D01*
X143774590Y-67417992D01*
X143824633Y-67412107D01*
X143867749Y-67415874D01*
X143914411Y-67430711D01*
X143957746Y-67459734D01*
X143975591Y-67478221D01*
X144001591Y-67522577D01*
X144010258Y-67572819D01*
X144005302Y-67610238D01*
X143984368Y-67654640D01*
X143982734Y-67656963D01*
X143945548Y-67692507D01*
X143901570Y-67716189D01*
X143876076Y-67725611D01*
X143825568Y-67736969D01*
X143775296Y-67740369D01*
X143775296Y-67834159D01*
X143796783Y-67835477D01*
X143848791Y-67840694D01*
X143898104Y-67849519D01*
X143948709Y-67866154D01*
X143962337Y-67873024D01*
X144004445Y-67903317D01*
X144037857Y-67943335D01*
X144045700Y-67956215D01*
X144064914Y-68003158D01*
X144071318Y-68053000D01*
X144070732Y-68069289D01*
X144060314Y-68120733D01*
X144036872Y-68167788D01*
X144004640Y-68206385D01*
X143978199Y-68228630D01*
X143932806Y-68253368D01*
X143880534Y-68267751D01*
X143828297Y-68271842D01*
X143810419Y-68271339D01*
X143760416Y-68263805D01*
X143711248Y-68244828D01*
X143668806Y-68214689D01*
X143659890Y-68205727D01*
X143630578Y-68164493D01*
X143608539Y-68115587D01*
X143594068Y-68068632D01*
X143495150Y-68068632D01*
X142940230Y-68068632D01*
X142940230Y-67333949D01*
X142840579Y-67333949D01*
X142840579Y-68123342D01*
X142168667Y-67333949D01*
X142146685Y-67333949D01*
X142146685Y-68350000D01*
X141425924Y-68350000D01*
X141460629Y-68349514D01*
X141515180Y-68346550D01*
X141565616Y-68340890D01*
X141620708Y-68330540D01*
X141669875Y-68316309D01*
X141719748Y-68294801D01*
X141745329Y-68280051D01*
X141787138Y-68249665D01*
X141825184Y-68213459D01*
X141859466Y-68171433D01*
X141889986Y-68123586D01*
X141897942Y-68108912D01*
X141918730Y-68063182D01*
X141934899Y-68014894D01*
X141946448Y-67964046D01*
X141953377Y-67910640D01*
X141955687Y-67854675D01*
X141953665Y-67800614D01*
X141947601Y-67748949D01*
X141937494Y-67699682D01*
X141923344Y-67652812D01*
X141901027Y-67599732D01*
X141872889Y-67550104D01*
X141862288Y-67534434D01*
X141827475Y-67490982D01*
X141788145Y-67452872D01*
X141744299Y-67420102D01*
X141695936Y-67392673D01*
X141643056Y-67370586D01*
X141636539Y-67368332D01*
X141584117Y-67354557D01*
X141529715Y-67345541D01*
X141477702Y-67339996D01*
X141419620Y-67336239D01*
X141368783Y-67334522D01*
X141314061Y-67333949D01*
X141104501Y-67333949D01*
X141104501Y-68256210D01*
X140441688Y-68256210D01*
X140454647Y-68242548D01*
X140484426Y-68201241D01*
X140505697Y-68156288D01*
X140518460Y-68107689D01*
X140522714Y-68055443D01*
X140522344Y-68040380D01*
X140515218Y-67989883D01*
X140499023Y-67942847D01*
X140495987Y-67936404D01*
X140468474Y-67891914D01*
X140432588Y-67854187D01*
X140402449Y-67832090D01*
X140356837Y-67808093D01*
X140310956Y-67790195D01*
X140337468Y-67774253D01*
X140376010Y-67742357D01*
X140407920Y-67701290D01*
X140419126Y-67680262D01*
X140435451Y-67631813D01*
X140440893Y-67579413D01*
X140438542Y-67544441D01*
X140426200Y-67495016D01*
X140403279Y-67449232D01*
X140382900Y-67421816D01*
X140345978Y-67387790D01*
X140301430Y-67362281D01*
X140265710Y-67349886D01*
X140217204Y-67340175D01*
X140166691Y-67335305D01*
X140116782Y-67333949D01*
X139917480Y-67333949D01*
X139917480Y-67756001D01*
X139453411Y-67756001D01*
X139426735Y-67736095D01*
X139384463Y-67703809D01*
X139345952Y-67671981D01*
X139323588Y-67647597D01*
X139295638Y-67604570D01*
X139289654Y-67588939D01*
X139281960Y-67540579D01*
X139291669Y-67490631D01*
X139320795Y-67449232D01*
X139328272Y-67442597D01*
X139371516Y-67419213D01*
X139420690Y-67412107D01*
X139460795Y-67416782D01*
X139508374Y-67436531D01*
X139540934Y-67462016D01*
X139574885Y-67498292D01*
X139605582Y-67537159D01*
X139687892Y-67474877D01*
X139670661Y-67453346D01*
X139636864Y-67415549D01*
X139599901Y-67381422D01*
X139556245Y-67351779D01*
X139524646Y-67337140D01*
X139475073Y-67323023D01*
X139422889Y-67318318D01*
X139397961Y-67319391D01*
X139346368Y-67329081D01*
X139298080Y-67348848D01*
X139277541Y-67361004D01*
X139239166Y-67392821D01*
X139209176Y-67432135D01*
X139198469Y-67452322D01*
X139182869Y-67498830D01*
X139177669Y-67549127D01*
X139177878Y-67559189D01*
X139185191Y-67608181D01*
X139202951Y-67654978D01*
X139231158Y-67699581D01*
X139263739Y-67735061D01*
X139301574Y-67768732D01*
X139344447Y-67803629D01*
X139388450Y-67837578D01*
X139403838Y-67849317D01*
X139446336Y-67883251D01*
X139488972Y-67920411D01*
X139528539Y-67959673D01*
X139561374Y-67999755D01*
X139563493Y-68002810D01*
X139587203Y-68049153D01*
X139595812Y-68099651D01*
X139591325Y-68137872D01*
X139572365Y-68184403D01*
X139545890Y-68218238D01*
X139504466Y-68248150D01*
X139458243Y-68265919D01*
X139408967Y-68271842D01*
X139394239Y-68271170D01*
X139344419Y-68258241D01*
X139297287Y-68228855D01*
X139259027Y-68190570D01*
X139228653Y-68149430D01*
X139199651Y-68099895D01*
X139113677Y-68151430D01*
X138949901Y-68151430D01*
X138961631Y-68102403D01*
X138969119Y-68049486D01*
X138972941Y-67997900D01*
X138974214Y-67941381D01*
X138974214Y-67333949D01*
X138873098Y-67333949D01*
X138873098Y-67942847D01*
X138872457Y-67997389D01*
X138869852Y-68051356D01*
X138862840Y-68100383D01*
X138861923Y-68103711D01*
X138844277Y-68149965D01*
X138817411Y-68191730D01*
X138782789Y-68225252D01*
X138740474Y-68250593D01*
X138693518Y-68266530D01*
X138644487Y-68271842D01*
X138626421Y-68271180D01*
X138576092Y-68262284D01*
X138529692Y-68244731D01*
X138522693Y-68241291D01*
X138480111Y-68214384D01*
X138445184Y-68177564D01*
X138441842Y-68172481D01*
X138420670Y-68126319D01*
X138410258Y-68077913D01*
X138407569Y-68042661D01*
X138406365Y-67991863D01*
X138406106Y-67942847D01*
X138406106Y-67333949D01*
X138305233Y-67333949D01*
X138305233Y-67941381D01*
X136815372Y-67941381D01*
X136815372Y-67207207D01*
X145502074Y-67207207D01*
X145502074Y-70406847D01*
G37*
X152333333Y-67462580D02*
X152333333Y-66748295D01*
X152333333Y-66748295D02*
X152380952Y-66605438D01*
X152380952Y-66605438D02*
X152476190Y-66510200D01*
X152476190Y-66510200D02*
X152619047Y-66462580D01*
X152619047Y-66462580D02*
X152714285Y-66462580D01*
X151380952Y-67462580D02*
X151857142Y-67462580D01*
X151857142Y-67462580D02*
X151904761Y-66986390D01*
X151904761Y-66986390D02*
X151857142Y-67034009D01*
X151857142Y-67034009D02*
X151761904Y-67081628D01*
X151761904Y-67081628D02*
X151523809Y-67081628D01*
X151523809Y-67081628D02*
X151428571Y-67034009D01*
X151428571Y-67034009D02*
X151380952Y-66986390D01*
X151380952Y-66986390D02*
X151333333Y-66891152D01*
X151333333Y-66891152D02*
X151333333Y-66653057D01*
X151333333Y-66653057D02*
X151380952Y-66557819D01*
X151380952Y-66557819D02*
X151428571Y-66510200D01*
X151428571Y-66510200D02*
X151523809Y-66462580D01*
X151523809Y-66462580D02*
X151761904Y-66462580D01*
X151761904Y-66462580D02*
X151857142Y-66510200D01*
X151857142Y-66510200D02*
X151904761Y-66557819D01*
D14*
%TO.C,C15*%
X160490000Y-57390580D02*
X160490000Y-57109420D01*
X161510000Y-57390580D02*
X161510000Y-57109420D01*
%TO.C,R6*%
X173331642Y-60317500D02*
X173806158Y-60317500D01*
X173331642Y-61362500D02*
X173806158Y-61362500D01*
D15*
%TO.C,J1*%
X172007500Y-42850000D02*
X172007500Y-41600000D01*
X180947500Y-42850000D02*
X180947500Y-41600000D01*
X179827500Y-46200000D02*
G75*
G02*
X179627500Y-46200000I-100000J0D01*
G01*
X179627500Y-46200000D02*
G75*
G02*
X179827500Y-46200000I100000J0D01*
G01*
D16*
%TO.C,J3*%
X123450000Y-37580000D02*
X123450000Y-45830000D01*
X123450000Y-51430000D02*
X123450000Y-49890000D01*
X125420000Y-51430000D02*
X123450000Y-51430000D01*
X136550000Y-37580000D02*
X123450000Y-37580000D01*
X136550000Y-45830000D02*
X136550000Y-37580000D01*
X136550000Y-49890000D02*
X136550000Y-51430000D01*
X136550000Y-51430000D02*
X134580000Y-51430000D01*
D15*
X137100000Y-51070000D02*
G75*
G02*
X136900000Y-51070000I-100000J0D01*
G01*
X136900000Y-51070000D02*
G75*
G02*
X137100000Y-51070000I100000J0D01*
G01*
D17*
%TO.C,J5*%
X148875800Y-66412400D02*
X148875800Y-69507161D01*
X149837060Y-66412400D02*
X148875800Y-66412400D01*
X150180441Y-71619400D02*
X153819559Y-71619400D01*
X155124200Y-66412400D02*
X154162940Y-66412400D01*
X155124200Y-69507161D02*
X155124200Y-66412400D01*
D18*
X148621800Y-66917400D02*
G75*
G02*
X147859800Y-66917400I-381000J0D01*
G01*
X147859800Y-66917400D02*
G75*
G02*
X148621800Y-66917400I381000J0D01*
G01*
D14*
%TO.C,C5*%
X173443320Y-63870000D02*
X173724480Y-63870000D01*
X173443320Y-64890000D02*
X173724480Y-64890000D01*
D17*
%TO.C,U1*%
X163701200Y-59601200D02*
X163701200Y-60208260D01*
X163701200Y-65191740D02*
X163701200Y-65798800D01*
X163701200Y-65798800D02*
X164308260Y-65798800D01*
X164308260Y-59601200D02*
X163701200Y-59601200D01*
X169291740Y-65798800D02*
X169898800Y-65798800D01*
X169898800Y-59601200D02*
X169291740Y-59601200D01*
X169898800Y-60208260D02*
X169898800Y-59601200D01*
X169898800Y-65798800D02*
X169898800Y-65191740D01*
D19*
G36*
X164958500Y-66586200D02*
G01*
X164577500Y-66586200D01*
X164577500Y-66332200D01*
X164958500Y-66332200D01*
X164958500Y-66586200D01*
G37*
G36*
X168006500Y-59067800D02*
G01*
X167625500Y-59067800D01*
X167625500Y-58813800D01*
X168006500Y-58813800D01*
X168006500Y-59067800D01*
G37*
G36*
X170686200Y-64414500D02*
G01*
X170432200Y-64414500D01*
X170432200Y-64033500D01*
X170686200Y-64033500D01*
X170686200Y-64414500D01*
G37*
D14*
%TO.C,R16*%
X172162742Y-47677500D02*
X172637258Y-47677500D01*
X172162742Y-48722500D02*
X172637258Y-48722500D01*
%TO.C,C9*%
X163590000Y-57390580D02*
X163590000Y-57109420D01*
X164610000Y-57390580D02*
X164610000Y-57109420D01*
%TO.C,R8*%
X173350949Y-65567500D02*
X173825465Y-65567500D01*
X173350949Y-66612500D02*
X173825465Y-66612500D01*
D16*
%TO.C,J4*%
X98550000Y-37580000D02*
X98550000Y-45830000D01*
X98550000Y-51430000D02*
X98550000Y-49890000D01*
X100520000Y-51430000D02*
X98550000Y-51430000D01*
X111650000Y-37580000D02*
X98550000Y-37580000D01*
X111650000Y-45830000D02*
X111650000Y-37580000D01*
X111650000Y-49890000D02*
X111650000Y-51430000D01*
X111650000Y-51430000D02*
X109680000Y-51430000D01*
D15*
X112200000Y-51070000D02*
G75*
G02*
X112000000Y-51070000I-100000J0D01*
G01*
X112000000Y-51070000D02*
G75*
G02*
X112200000Y-51070000I100000J0D01*
G01*
D14*
%TO.C,C1*%
X160691580Y-62565000D02*
X160410420Y-62565000D01*
X160691580Y-63585000D02*
X160410420Y-63585000D01*
%TO.C,C10*%
X165388900Y-68980580D02*
X165388900Y-68699420D01*
X166408900Y-68980580D02*
X166408900Y-68699420D01*
%TO.C,R5*%
X170862742Y-52677500D02*
X171337258Y-52677500D01*
X170862742Y-53722500D02*
X171337258Y-53722500D01*
%TO.C,R12*%
X170687107Y-57261551D02*
X170687107Y-56787035D01*
X171732107Y-57261551D02*
X171732107Y-56787035D01*
%TO.C,C11*%
X160540000Y-51680580D02*
X160540000Y-51399420D01*
X161560000Y-51680580D02*
X161560000Y-51399420D01*
%TO.C,C13*%
X182688748Y-54990000D02*
X184111252Y-54990000D01*
X182688748Y-56810000D02*
X184111252Y-56810000D01*
%TO.C,R7*%
X173346642Y-62067500D02*
X173821158Y-62067500D01*
X173346642Y-63112500D02*
X173821158Y-63112500D01*
%TO.C,C4*%
X161740580Y-59190000D02*
X161459420Y-59190000D01*
X161740580Y-60210000D02*
X161459420Y-60210000D01*
%TO.C,R3*%
X168876400Y-68602742D02*
X168876400Y-69077258D01*
X169921400Y-68602742D02*
X169921400Y-69077258D01*
D19*
%TO.C,G\u002A\u002A\u002A*%
G36*
X98662856Y-62106921D02*
G01*
X98589415Y-62293028D01*
X98532527Y-62405238D01*
X98403994Y-62645767D01*
X98324919Y-62781293D01*
X98284157Y-62827971D01*
X98270565Y-62801954D01*
X98270107Y-62785648D01*
X98227838Y-62693105D01*
X98129011Y-62567949D01*
X98044437Y-62431617D01*
X98072861Y-62308935D01*
X98222126Y-62183519D01*
X98346477Y-62113654D01*
X98546085Y-62024598D01*
X98649979Y-62019899D01*
X98662856Y-62106921D01*
G37*
G36*
X96887005Y-64018420D02*
G01*
X96934655Y-64327238D01*
X96909232Y-64476566D01*
X96860161Y-64767894D01*
X96845967Y-65140840D01*
X96864608Y-65546681D01*
X96914043Y-65936698D01*
X96982829Y-66232791D01*
X97150530Y-66623368D01*
X97389680Y-66977279D01*
X97671925Y-67257860D01*
X97877694Y-67389891D01*
X98100773Y-67499836D01*
X97626640Y-67491230D01*
X97353131Y-67483307D01*
X97105619Y-67471091D01*
X96949307Y-67458378D01*
X96623335Y-67419534D01*
X96402312Y-67385522D01*
X96257203Y-67341190D01*
X96158971Y-67271387D01*
X96078580Y-67160963D01*
X95986996Y-66994765D01*
X95958093Y-66941148D01*
X95852821Y-66738416D01*
X95786157Y-66572238D01*
X95749332Y-66400386D01*
X95733575Y-66180634D01*
X95730115Y-65870757D01*
X95730107Y-65843454D01*
X95743925Y-65437632D01*
X95796198Y-65114859D01*
X95903155Y-64836165D01*
X96081024Y-64562581D01*
X96346034Y-64255137D01*
X96427554Y-64168681D01*
X96803253Y-63774800D01*
X96887005Y-64018420D01*
G37*
G36*
X98202373Y-64407898D02*
G01*
X98253871Y-64876247D01*
X98397377Y-65375180D01*
X98616413Y-65854155D01*
X98739965Y-66056809D01*
X99043575Y-66461370D01*
X99360492Y-66773233D01*
X99732511Y-67032140D01*
X99817055Y-67080979D01*
X99996351Y-67191518D01*
X100105427Y-67278222D01*
X100121855Y-67318979D01*
X100030093Y-67342085D01*
X99843058Y-67369809D01*
X99600538Y-67396290D01*
X99590907Y-67397180D01*
X99317934Y-67422803D01*
X99070743Y-67446982D01*
X98913573Y-67463329D01*
X98741299Y-67453105D01*
X98501589Y-67403506D01*
X98297115Y-67342043D01*
X97941833Y-67202259D01*
X97684929Y-67056749D01*
X97490591Y-66881224D01*
X97357145Y-66704442D01*
X97135931Y-66251851D01*
X97012997Y-65709909D01*
X96984832Y-65233854D01*
X96989387Y-64879586D01*
X97007219Y-64641038D01*
X97045018Y-64498622D01*
X97109475Y-64432754D01*
X97207281Y-64423844D01*
X97258701Y-64432133D01*
X97561089Y-64437336D01*
X97847135Y-64320283D01*
X97993953Y-64211853D01*
X98202373Y-64036478D01*
X98202373Y-64407898D01*
G37*
G36*
X98508481Y-60929114D02*
G01*
X98526392Y-60931116D01*
X98987408Y-61011493D01*
X99350838Y-61144047D01*
X99649452Y-61344083D01*
X99853561Y-61551073D01*
X100054840Y-61851312D01*
X100144729Y-62138979D01*
X100124078Y-62396134D01*
X99993735Y-62604836D01*
X99797777Y-62730552D01*
X99526715Y-62782934D01*
X99289069Y-62716501D01*
X99106807Y-62547423D01*
X99001899Y-62291866D01*
X98985245Y-62132577D01*
X98976566Y-61953648D01*
X98937721Y-61874529D01*
X98838237Y-61859563D01*
X98756554Y-61864970D01*
X98523851Y-61916227D01*
X98267492Y-62020110D01*
X98045482Y-62149737D01*
X97939814Y-62243497D01*
X97866482Y-62304484D01*
X97767481Y-62301234D01*
X97624787Y-62248448D01*
X97242589Y-62160320D01*
X96804766Y-62187674D01*
X96327970Y-62328511D01*
X96066308Y-62423352D01*
X95902124Y-62456668D01*
X95814406Y-62432593D01*
X95811804Y-62430111D01*
X95701229Y-62383300D01*
X95515699Y-62357162D01*
X95447885Y-62355187D01*
X95286926Y-62370804D01*
X95137175Y-62427125D01*
X94983685Y-62538358D01*
X94811512Y-62718711D01*
X94605709Y-62982392D01*
X94351332Y-63343607D01*
X94247945Y-63495871D01*
X94024717Y-63807885D01*
X93782105Y-64116480D01*
X93552646Y-64381720D01*
X93401279Y-64535070D01*
X93013043Y-64832261D01*
X92536818Y-65105724D01*
X92020073Y-65330151D01*
X91733840Y-65424076D01*
X91560200Y-65470403D01*
X91429676Y-65484060D01*
X91299552Y-65457425D01*
X91127113Y-65382878D01*
X90921040Y-65279047D01*
X90631415Y-65136178D01*
X90330795Y-64995966D01*
X90088200Y-64890426D01*
X89729493Y-64744055D01*
X90155933Y-64696414D01*
X90817556Y-64571315D01*
X91486055Y-64340514D01*
X92170778Y-63999118D01*
X92881071Y-63542234D01*
X93626280Y-62964969D01*
X93884676Y-62744411D01*
X94658570Y-62133761D01*
X95440118Y-61642851D01*
X96222601Y-61274307D01*
X96999302Y-61030754D01*
X97763501Y-60914814D01*
X98508481Y-60929114D01*
G37*
G36*
X97538034Y-62411885D02*
G01*
X97852003Y-62600413D01*
X98049743Y-62826066D01*
X98166988Y-63105892D01*
X98191024Y-63424562D01*
X98128490Y-63740125D01*
X97986027Y-64010629D01*
X97839806Y-64152464D01*
X97620597Y-64238650D01*
X97375313Y-64238165D01*
X97163455Y-64153997D01*
X97118640Y-64116254D01*
X97004097Y-63960994D01*
X97004166Y-63810322D01*
X97091682Y-63652811D01*
X97159170Y-63529374D01*
X97164520Y-63462223D01*
X97064551Y-63446793D01*
X96894480Y-63534085D01*
X96650936Y-63726348D01*
X96353472Y-64003359D01*
X96009001Y-64373567D01*
X95770500Y-64720944D01*
X95622044Y-65081764D01*
X95547713Y-65492304D01*
X95530926Y-65877320D01*
X95536548Y-66187254D01*
X95563189Y-66418512D01*
X95622538Y-66627563D01*
X95726283Y-66870878D01*
X95744715Y-66910254D01*
X95846020Y-67127984D01*
X95917834Y-67287451D01*
X95946993Y-67359298D01*
X95946682Y-67360653D01*
X95879054Y-67343644D01*
X95716436Y-67306187D01*
X95526907Y-67263711D01*
X95154001Y-67176703D01*
X94890384Y-67100224D01*
X94711943Y-67021241D01*
X94594565Y-66926721D01*
X94514137Y-66803632D01*
X94465617Y-66690121D01*
X94368644Y-66285988D01*
X94359531Y-65851033D01*
X94439415Y-65450122D01*
X94443673Y-65437967D01*
X94490847Y-65258592D01*
X94493749Y-65132909D01*
X94482758Y-65110878D01*
X94429159Y-65127228D01*
X94365429Y-65245011D01*
X94301533Y-65431690D01*
X94247436Y-65654730D01*
X94213104Y-65881597D01*
X94206107Y-66014088D01*
X94227787Y-66286419D01*
X94281757Y-66574675D01*
X94301078Y-66645489D01*
X94353929Y-66827520D01*
X94383316Y-66941538D01*
X94385570Y-66961054D01*
X94322154Y-66938500D01*
X94158439Y-66877405D01*
X93920657Y-66787615D01*
X93688240Y-66699268D01*
X93445494Y-66599976D01*
X93150958Y-66469199D01*
X92827671Y-66318413D01*
X92498670Y-66159095D01*
X92186996Y-66002719D01*
X91915686Y-65860763D01*
X91707778Y-65744703D01*
X91586312Y-65666015D01*
X91564507Y-65641369D01*
X91624755Y-65615082D01*
X91780445Y-65573544D01*
X91937892Y-65538477D01*
X92421189Y-65387647D01*
X92914130Y-65145695D01*
X93363480Y-64841485D01*
X93586370Y-64644705D01*
X93774786Y-64438547D01*
X94004388Y-64158372D01*
X94243339Y-63844263D01*
X94420556Y-63594427D01*
X94735497Y-63153978D01*
X95001494Y-62830831D01*
X95226291Y-62619256D01*
X95417632Y-62513520D01*
X95583261Y-62507892D01*
X95730922Y-62596639D01*
X95747040Y-62612574D01*
X95816698Y-62673633D01*
X95891629Y-62691858D01*
X96006725Y-62662515D01*
X96196877Y-62580870D01*
X96287114Y-62539295D01*
X96745092Y-62379618D01*
X97165565Y-62337717D01*
X97538034Y-62411885D01*
G37*
G36*
X103301197Y-62720818D02*
G01*
X103442308Y-62783263D01*
X103455481Y-62791698D01*
X103575496Y-62893272D01*
X103606914Y-63014538D01*
X103590556Y-63139910D01*
X103571592Y-63295810D01*
X103606168Y-63359977D01*
X103689068Y-63371187D01*
X103951025Y-63432614D01*
X104189222Y-63593690D01*
X104365529Y-63819608D01*
X104440513Y-64057178D01*
X104443786Y-64325775D01*
X104383874Y-64522456D01*
X104243031Y-64702925D01*
X104230860Y-64715214D01*
X103998975Y-64885249D01*
X103755010Y-64965332D01*
X103523711Y-64963216D01*
X103329826Y-64886654D01*
X103198103Y-64743399D01*
X103153289Y-64541203D01*
X103181046Y-64386328D01*
X103205763Y-64289677D01*
X103171109Y-64281885D01*
X103053247Y-64354346D01*
X102814004Y-64446039D01*
X102535396Y-64462174D01*
X102288907Y-64399088D01*
X102279164Y-64394032D01*
X102126370Y-64252705D01*
X102086717Y-64073880D01*
X102155306Y-63886527D01*
X102327236Y-63719613D01*
X102400484Y-63676688D01*
X102618435Y-63588790D01*
X102771802Y-63595535D01*
X102882416Y-63683750D01*
X102931142Y-63774241D01*
X102885969Y-63858802D01*
X102813381Y-63922511D01*
X102706236Y-64035661D01*
X102705034Y-64096903D01*
X102801769Y-64084366D01*
X102862204Y-64055890D01*
X103013055Y-63916482D01*
X103051371Y-63745961D01*
X102976299Y-63583798D01*
X102874072Y-63505636D01*
X102706555Y-63484555D01*
X102461174Y-63543409D01*
X102160052Y-63670734D01*
X101825312Y-63855068D01*
X101479078Y-64084946D01*
X101143474Y-64348907D01*
X101001873Y-64475700D01*
X100721813Y-64779757D01*
X100475595Y-65126536D01*
X100273778Y-65491508D01*
X100126918Y-65850145D01*
X100045574Y-66177920D01*
X100040302Y-66450303D01*
X100088790Y-66597070D01*
X100133836Y-66653725D01*
X100157023Y-66611285D01*
X100165698Y-66452859D01*
X100166188Y-66419187D01*
X100231375Y-65996956D01*
X100406779Y-65550639D01*
X100676658Y-65106009D01*
X101025270Y-64688840D01*
X101436876Y-64324904D01*
X101452329Y-64313373D01*
X101891352Y-63987805D01*
X101980669Y-64211740D01*
X102140461Y-64446939D01*
X102386012Y-64580922D01*
X102642418Y-64610416D01*
X102797706Y-64608619D01*
X102874054Y-64612850D01*
X102875690Y-64614025D01*
X102847656Y-64674587D01*
X102775658Y-64820013D01*
X102706357Y-64957466D01*
X102561343Y-65347058D01*
X102544487Y-65700078D01*
X102656933Y-66027060D01*
X102850885Y-66287951D01*
X103012444Y-66461514D01*
X102566410Y-66618978D01*
X102120375Y-66776441D01*
X101939374Y-66641534D01*
X101683717Y-66370950D01*
X101535255Y-66031866D01*
X101501128Y-65647108D01*
X101544604Y-65379625D01*
X101565884Y-65244178D01*
X101525589Y-65210829D01*
X101507328Y-65215336D01*
X101442444Y-65293892D01*
X101381116Y-65458606D01*
X101361218Y-65543699D01*
X101347963Y-65947538D01*
X101457259Y-66335676D01*
X101656650Y-66645765D01*
X101854026Y-66870564D01*
X101399800Y-67015595D01*
X101071813Y-67116735D01*
X100837040Y-67175475D01*
X100660995Y-67194622D01*
X100509191Y-67176984D01*
X100347142Y-67125367D01*
X100295847Y-67105450D01*
X99756961Y-66822326D01*
X99274058Y-66431168D01*
X98873258Y-65956075D01*
X98660567Y-65596619D01*
X98517705Y-65301247D01*
X98442870Y-65097355D01*
X98442182Y-64955929D01*
X98521763Y-64847955D01*
X98687732Y-64744421D01*
X98858315Y-64659184D01*
X99138923Y-64501951D01*
X99408273Y-64302335D01*
X99701809Y-64032442D01*
X99862649Y-63868758D01*
X100087321Y-63644507D01*
X100287709Y-63462351D01*
X100440714Y-63342179D01*
X100519208Y-63303454D01*
X100640479Y-63354842D01*
X100739269Y-63455043D01*
X100842662Y-63556848D01*
X100934333Y-63539710D01*
X101519074Y-63152227D01*
X102084796Y-62888199D01*
X102648243Y-62740421D01*
X102851892Y-62714464D01*
X103119686Y-62699842D01*
X103301197Y-62720818D01*
G37*
D14*
%TO.C,C6*%
X168590000Y-57116287D02*
X168590000Y-56835127D01*
X169610000Y-57116287D02*
X169610000Y-56835127D01*
%TO.C,C14*%
X182588748Y-64790000D02*
X184011252Y-64790000D01*
X182588748Y-66610000D02*
X184011252Y-66610000D01*
%TO.C,R14*%
X164012742Y-54027500D02*
X164487258Y-54027500D01*
X164012742Y-55072500D02*
X164487258Y-55072500D01*
%TO.C,C8*%
X173433320Y-58580000D02*
X173714480Y-58580000D01*
X173433320Y-59600000D02*
X173714480Y-59600000D01*
%TO.C,R9*%
X175866400Y-59442742D02*
X175866400Y-59917258D01*
X176911400Y-59442742D02*
X176911400Y-59917258D01*
%TO.C,R4*%
X173837258Y-67277500D02*
X173362742Y-67277500D01*
X173837258Y-68322500D02*
X173362742Y-68322500D01*
D17*
%TO.C,U4*%
X175742535Y-51074800D02*
X177057465Y-51074800D01*
X177057465Y-47925200D02*
X175742535Y-47925200D01*
X178990800Y-50439800D02*
G75*
G02*
X178838400Y-50439800I-76200J0D01*
G01*
X178838400Y-50439800D02*
G75*
G02*
X178990800Y-50439800I76200J0D01*
G01*
D14*
%TO.C,R15*%
X180537258Y-47677500D02*
X180062742Y-47677500D01*
X180537258Y-48722500D02*
X180062742Y-48722500D01*
%TO.C,R17*%
X170862742Y-51077500D02*
X171337258Y-51077500D01*
X170862742Y-52122500D02*
X171337258Y-52122500D01*
%TO.C,C2*%
X163638900Y-68699420D02*
X163638900Y-68980580D01*
X164658900Y-68699420D02*
X164658900Y-68980580D01*
%TO.C,R10*%
X173826158Y-55067500D02*
X173351642Y-55067500D01*
X173826158Y-56112500D02*
X173351642Y-56112500D01*
%TO.C,R13*%
X162027500Y-57487258D02*
X162027500Y-57012742D01*
X163072500Y-57487258D02*
X163072500Y-57012742D01*
%TO.C,R1*%
X163626400Y-71852742D02*
X163626400Y-72327258D01*
X164671400Y-71852742D02*
X164671400Y-72327258D01*
%TO.C,C7*%
X175878900Y-62609420D02*
X175878900Y-62890580D01*
X176898900Y-62609420D02*
X176898900Y-62890580D01*
%TO.C,C12*%
X164440580Y-48280000D02*
X164159420Y-48280000D01*
X164440580Y-49300000D02*
X164159420Y-49300000D01*
%TO.C,C3*%
X167138900Y-68699420D02*
X167138900Y-68980580D01*
X168158900Y-68699420D02*
X168158900Y-68980580D01*
%TO.C,Y1*%
X162300000Y-49950000D02*
X162300000Y-53250000D01*
X162300000Y-53250000D02*
X166300000Y-53250000D01*
%TO.C,R2*%
X168877500Y-71852742D02*
X168877500Y-72327258D01*
X169922500Y-71852742D02*
X169922500Y-72327258D01*
%TO.C,U2*%
X183150000Y-57390000D02*
X186910000Y-57390000D01*
X183150000Y-64210000D02*
X186910000Y-64210000D01*
X186910000Y-57390000D02*
X186910000Y-58650000D01*
X186910000Y-64210000D02*
X186910000Y-62950000D01*
X181870000Y-57490000D02*
X181630000Y-57160000D01*
X182110000Y-57160000D01*
X181870000Y-57490000D01*
G36*
X181870000Y-57490000D02*
G01*
X181630000Y-57160000D01*
X182110000Y-57160000D01*
X181870000Y-57490000D01*
G37*
%TO.C,R11*%
X173341642Y-56817500D02*
X173816158Y-56817500D01*
X173341642Y-57862500D02*
X173816158Y-57862500D01*
%TO.C,C16*%
X167138900Y-71949420D02*
X167138900Y-72230580D01*
X168158900Y-71949420D02*
X168158900Y-72230580D01*
%TD*%
%LPC*%
D20*
%TO.C,J1*%
X173627500Y-45580000D02*
X172927500Y-45580000D01*
X172927500Y-44330000D01*
X173627500Y-44330000D01*
X173627500Y-45580000D01*
G36*
X173627500Y-45580000D02*
G01*
X172927500Y-45580000D01*
X172927500Y-44330000D01*
X173627500Y-44330000D01*
X173627500Y-45580000D01*
G37*
X174427500Y-45580000D02*
X173727500Y-45580000D01*
X173727500Y-44330000D01*
X174427500Y-44330000D01*
X174427500Y-45580000D01*
G36*
X174427500Y-45580000D02*
G01*
X173727500Y-45580000D01*
X173727500Y-44330000D01*
X174427500Y-44330000D01*
X174427500Y-45580000D01*
G37*
X174927500Y-45580000D02*
X174527500Y-45580000D01*
X174527500Y-44330000D01*
X174927500Y-44330000D01*
X174927500Y-45580000D01*
G36*
X174927500Y-45580000D02*
G01*
X174527500Y-45580000D01*
X174527500Y-44330000D01*
X174927500Y-44330000D01*
X174927500Y-45580000D01*
G37*
X175427500Y-45580000D02*
X175027500Y-45580000D01*
X175027500Y-44330000D01*
X175427500Y-44330000D01*
X175427500Y-45580000D01*
G36*
X175427500Y-45580000D02*
G01*
X175027500Y-45580000D01*
X175027500Y-44330000D01*
X175427500Y-44330000D01*
X175427500Y-45580000D01*
G37*
X175927500Y-45580000D02*
X175527500Y-45580000D01*
X175527500Y-44330000D01*
X175927500Y-44330000D01*
X175927500Y-45580000D01*
G36*
X175927500Y-45580000D02*
G01*
X175527500Y-45580000D01*
X175527500Y-44330000D01*
X175927500Y-44330000D01*
X175927500Y-45580000D01*
G37*
X176427500Y-45580000D02*
X176027500Y-45580000D01*
X176027500Y-44330000D01*
X176427500Y-44330000D01*
X176427500Y-45580000D01*
G36*
X176427500Y-45580000D02*
G01*
X176027500Y-45580000D01*
X176027500Y-44330000D01*
X176427500Y-44330000D01*
X176427500Y-45580000D01*
G37*
X176927500Y-45580000D02*
X176527500Y-45580000D01*
X176527500Y-44330000D01*
X176927500Y-44330000D01*
X176927500Y-45580000D01*
G36*
X176927500Y-45580000D02*
G01*
X176527500Y-45580000D01*
X176527500Y-44330000D01*
X176927500Y-44330000D01*
X176927500Y-45580000D01*
G37*
X177427500Y-45580000D02*
X177027500Y-45580000D01*
X177027500Y-44330000D01*
X177427500Y-44330000D01*
X177427500Y-45580000D01*
G36*
X177427500Y-45580000D02*
G01*
X177027500Y-45580000D01*
X177027500Y-44330000D01*
X177427500Y-44330000D01*
X177427500Y-45580000D01*
G37*
X177927500Y-45580000D02*
X177527500Y-45580000D01*
X177527500Y-44330000D01*
X177927500Y-44330000D01*
X177927500Y-45580000D01*
G36*
X177927500Y-45580000D02*
G01*
X177527500Y-45580000D01*
X177527500Y-44330000D01*
X177927500Y-44330000D01*
X177927500Y-45580000D01*
G37*
X178427500Y-45580000D02*
X178027500Y-45580000D01*
X178027500Y-44330000D01*
X178427500Y-44330000D01*
X178427500Y-45580000D01*
G36*
X178427500Y-45580000D02*
G01*
X178027500Y-45580000D01*
X178027500Y-44330000D01*
X178427500Y-44330000D01*
X178427500Y-45580000D01*
G37*
X179227500Y-45580000D02*
X178527500Y-45580000D01*
X178527500Y-44330000D01*
X179227500Y-44330000D01*
X179227500Y-45580000D01*
G36*
X179227500Y-45580000D02*
G01*
X178527500Y-45580000D01*
X178527500Y-44330000D01*
X179227500Y-44330000D01*
X179227500Y-45580000D01*
G37*
X180027500Y-45580000D02*
X179327500Y-45580000D01*
X179327500Y-44330000D01*
X180027500Y-44330000D01*
X180027500Y-45580000D01*
G36*
X180027500Y-45580000D02*
G01*
X179327500Y-45580000D01*
X179327500Y-44330000D01*
X180027500Y-44330000D01*
X180027500Y-45580000D01*
G37*
D19*
%TO.C,U1*%
G36*
X165418900Y-64693900D02*
G01*
X164806100Y-64693900D01*
X164806100Y-60706100D01*
X165418900Y-60706100D01*
X165418900Y-64693900D01*
G37*
G36*
X168793900Y-61318900D02*
G01*
X164806100Y-61318900D01*
X164806100Y-60706100D01*
X168793900Y-60706100D01*
X168793900Y-61318900D01*
G37*
G36*
X168793900Y-62106300D02*
G01*
X164806100Y-62106300D01*
X164806100Y-61718900D01*
X168793900Y-61718900D01*
X168793900Y-62106300D01*
G37*
G36*
X168793900Y-62893700D02*
G01*
X164806100Y-62893700D01*
X164806100Y-62506300D01*
X168793900Y-62506300D01*
X168793900Y-62893700D01*
G37*
G36*
X168793900Y-63681100D02*
G01*
X164806100Y-63681100D01*
X164806100Y-63293700D01*
X168793900Y-63293700D01*
X168793900Y-63681100D01*
G37*
G36*
X168793900Y-64693900D02*
G01*
X164806100Y-64693900D01*
X164806100Y-64081100D01*
X168793900Y-64081100D01*
X168793900Y-64693900D01*
G37*
G36*
X166206300Y-64693900D02*
G01*
X165818900Y-64693900D01*
X165818900Y-60706100D01*
X166206300Y-60706100D01*
X166206300Y-64693900D01*
G37*
G36*
X166993700Y-64693900D02*
G01*
X166606300Y-64693900D01*
X166606300Y-60706100D01*
X166993700Y-60706100D01*
X166993700Y-64693900D01*
G37*
G36*
X167781100Y-64693900D02*
G01*
X167393700Y-64693900D01*
X167393700Y-60706100D01*
X167781100Y-60706100D01*
X167781100Y-64693900D01*
G37*
G36*
X168793900Y-64693900D02*
G01*
X168181100Y-64693900D01*
X168181100Y-60706100D01*
X168793900Y-60706100D01*
X168793900Y-64693900D01*
G37*
%TD*%
D21*
%TO.C,C15*%
X161000000Y-58025000D03*
X161000000Y-56475000D03*
%TD*%
D22*
%TO.C,R6*%
X172743900Y-60840000D03*
X174393900Y-60840000D03*
%TD*%
D23*
%TO.C,H3*%
X92000000Y-42500000D03*
%TD*%
%TO.C,H6*%
X92000000Y-71000000D03*
%TD*%
D24*
%TO.C,J1*%
X179367500Y-43880000D03*
X173587500Y-43880000D03*
D25*
X180797500Y-44380000D03*
X172157500Y-44380000D03*
D26*
X180797500Y-40200000D03*
X172157500Y-40200000D03*
%TD*%
D27*
%TO.C,J3*%
X133500000Y-50570000D03*
D28*
X131000000Y-50570000D03*
X129000000Y-50570000D03*
X126500000Y-50570000D03*
D29*
X136570000Y-47860000D03*
X123430000Y-47860000D03*
%TD*%
D30*
%TO.C,J5*%
X150500000Y-66917400D03*
X151500001Y-66917400D03*
X152499999Y-66917400D03*
X153500000Y-66917400D03*
D31*
X154799999Y-70792401D03*
X149200001Y-70792401D03*
%TD*%
D32*
%TO.C,C5*%
X172808900Y-64380000D03*
X174358900Y-64380000D03*
%TD*%
D33*
%TO.C,U1*%
X163955200Y-60668000D03*
X163955200Y-61176000D03*
X163955200Y-61684000D03*
X163955200Y-62192000D03*
X163955200Y-62700000D03*
X163955200Y-63208000D03*
X163955200Y-63716000D03*
X163955200Y-64224000D03*
X163955200Y-64732000D03*
D34*
X164768000Y-65544800D03*
X165276000Y-65544800D03*
X165784000Y-65544800D03*
X166292000Y-65544800D03*
X166800000Y-65544800D03*
X167308000Y-65544800D03*
X167816000Y-65544800D03*
X168324000Y-65544800D03*
X168832000Y-65544800D03*
D33*
X169644800Y-64732000D03*
X169644800Y-64224000D03*
X169644800Y-63716000D03*
X169644800Y-63208000D03*
X169644800Y-62700000D03*
X169644800Y-62192000D03*
X169644800Y-61684000D03*
X169644800Y-61176000D03*
X169644800Y-60668000D03*
D34*
X168832000Y-59855200D03*
X168324000Y-59855200D03*
X167816000Y-59855200D03*
X167308000Y-59855200D03*
X166800000Y-59855200D03*
X166292000Y-59855200D03*
X165784000Y-59855200D03*
X165276000Y-59855200D03*
X164768000Y-59855200D03*
%TD*%
D22*
%TO.C,R16*%
X171575000Y-48200000D03*
X173225000Y-48200000D03*
%TD*%
D21*
%TO.C,C9*%
X164100000Y-58025000D03*
X164100000Y-56475000D03*
%TD*%
D22*
%TO.C,R8*%
X172763207Y-66090000D03*
X174413207Y-66090000D03*
%TD*%
D23*
%TO.C,H4*%
X186000000Y-71000000D03*
%TD*%
D27*
%TO.C,J4*%
X108600000Y-50570000D03*
D28*
X106100000Y-50570000D03*
X104100000Y-50570000D03*
X101600000Y-50570000D03*
D29*
X111670000Y-47860000D03*
X98530000Y-47860000D03*
%TD*%
D35*
%TO.C,C1*%
X161326000Y-63075000D03*
X159776000Y-63075000D03*
%TD*%
D21*
%TO.C,C10*%
X165898900Y-69615000D03*
X165898900Y-68065000D03*
%TD*%
D22*
%TO.C,R5*%
X170275000Y-53200000D03*
X171925000Y-53200000D03*
%TD*%
D23*
%TO.C,H1*%
X186000000Y-42500000D03*
%TD*%
D36*
%TO.C,R12*%
X171209607Y-57849293D03*
X171209607Y-56199293D03*
%TD*%
D21*
%TO.C,C11*%
X161050000Y-52315000D03*
X161050000Y-50765000D03*
%TD*%
D37*
%TO.C,C13*%
X181925000Y-55900000D03*
X184875000Y-55900000D03*
%TD*%
D22*
%TO.C,R7*%
X172758900Y-62590000D03*
X174408900Y-62590000D03*
%TD*%
D35*
%TO.C,C4*%
X162375000Y-59700000D03*
X160825000Y-59700000D03*
%TD*%
D23*
%TO.C,H2*%
X141300000Y-52400000D03*
%TD*%
D38*
%TO.C,R3*%
X169398900Y-68015000D03*
X169398900Y-69665000D03*
%TD*%
D21*
%TO.C,C6*%
X169100000Y-57750707D03*
X169100000Y-56200707D03*
%TD*%
D37*
%TO.C,C14*%
X181825000Y-65700000D03*
X184775000Y-65700000D03*
%TD*%
D22*
%TO.C,R14*%
X163425000Y-54550000D03*
X165075000Y-54550000D03*
%TD*%
D32*
%TO.C,C8*%
X172798900Y-59090000D03*
X174348900Y-59090000D03*
%TD*%
D38*
%TO.C,R9*%
X176388900Y-58855000D03*
X176388900Y-60505000D03*
%TD*%
D39*
%TO.C,R4*%
X174425000Y-67800000D03*
X172775000Y-67800000D03*
%TD*%
D40*
%TO.C,U4*%
X177644600Y-50439800D03*
X177644600Y-49500000D03*
X177644600Y-48560200D03*
X175155400Y-48560200D03*
X175155400Y-49500000D03*
X175155400Y-50439800D03*
%TD*%
D39*
%TO.C,R15*%
X181125000Y-48200000D03*
X179475000Y-48200000D03*
%TD*%
D22*
%TO.C,R17*%
X170275000Y-51600000D03*
X171925000Y-51600000D03*
%TD*%
D41*
%TO.C,C2*%
X164148900Y-68065000D03*
X164148900Y-69615000D03*
%TD*%
D39*
%TO.C,R10*%
X174413900Y-55590000D03*
X172763900Y-55590000D03*
%TD*%
D36*
%TO.C,R13*%
X162550000Y-58075000D03*
X162550000Y-56425000D03*
%TD*%
D38*
%TO.C,R1*%
X164148900Y-71265000D03*
X164148900Y-72915000D03*
%TD*%
D41*
%TO.C,C7*%
X176388900Y-61975000D03*
X176388900Y-63525000D03*
%TD*%
D35*
%TO.C,C12*%
X165075000Y-48790000D03*
X163525000Y-48790000D03*
%TD*%
D41*
%TO.C,C3*%
X167648900Y-68065000D03*
X167648900Y-69615000D03*
%TD*%
D42*
%TO.C,Y1*%
X163200000Y-52450000D03*
X165400000Y-52450000D03*
X165400000Y-50750000D03*
X163200000Y-50750000D03*
%TD*%
D38*
%TO.C,R2*%
X169400000Y-71265000D03*
X169400000Y-72915000D03*
%TD*%
D23*
%TO.C,H2*%
X166000000Y-42500000D03*
%TD*%
D43*
%TO.C,U2*%
X181850000Y-58500000D03*
X181850000Y-60800000D03*
X181850000Y-63100000D03*
D44*
X188150000Y-60800000D03*
%TD*%
D22*
%TO.C,R11*%
X172753900Y-57340000D03*
X174403900Y-57340000D03*
%TD*%
D41*
%TO.C,C16*%
X167648900Y-71315000D03*
X167648900Y-72865000D03*
%TD*%
D45*
%TO.C,J2*%
X155600000Y-43705000D03*
D46*
X153100000Y-43705000D03*
X151100000Y-43705000D03*
X148600000Y-43705000D03*
D47*
X158670000Y-46415000D03*
X152100000Y-49915000D03*
X145530000Y-46415000D03*
%TD*%
%LPD*%
M02*
