%TF.GenerationSoftware,KiCad,Pcbnew,8.0.4*%
%TF.CreationDate,2025-06-24T22:11:05-05:00*%
%TF.ProjectId,numlocked_HUB,6e756d6c-6f63-46b6-9564-5f4855422e6b,rev?*%
%TF.SameCoordinates,Original*%
%TF.FileFunction,Soldermask,Top*%
%TF.FilePolarity,Negative*%
%FSLAX46Y46*%
G04 Gerber Fmt 4.6, Leading zero omitted, Abs format (unit mm)*
G04 Created by KiCad (PCBNEW 8.0.4) date 2025-06-24 22:11:05*
%MOMM*%
%LPD*%
G01*
G04 APERTURE LIST*
G04 Aperture macros list*
%AMRoundRect*
0 Rectangle with rounded corners*
0 $1 Rounding radius*
0 $2 $3 $4 $5 $6 $7 $8 $9 X,Y pos of 4 corners*
0 Add a 4 corners polygon primitive as box body*
4,1,4,$2,$3,$4,$5,$6,$7,$8,$9,$2,$3,0*
0 Add four circle primitives for the rounded corners*
1,1,$1+$1,$2,$3*
1,1,$1+$1,$4,$5*
1,1,$1+$1,$6,$7*
1,1,$1+$1,$8,$9*
0 Add four rect primitives between the rounded corners*
20,1,$1+$1,$2,$3,$4,$5,0*
20,1,$1+$1,$4,$5,$6,$7,0*
20,1,$1+$1,$6,$7,$8,$9,0*
20,1,$1+$1,$8,$9,$2,$3,0*%
G04 Aperture macros list end*
%ADD10C,0.010000*%
%ADD11C,0.000000*%
%ADD12RoundRect,0.225000X0.250000X-0.225000X0.250000X0.225000X-0.250000X0.225000X-0.250000X-0.225000X0*%
%ADD13RoundRect,0.200000X-0.200000X-0.275000X0.200000X-0.275000X0.200000X0.275000X-0.200000X0.275000X0*%
%ADD14C,4.400000*%
%ADD15C,0.650000*%
%ADD16O,1.204000X2.304000*%
%ADD17O,1.204000X2.004000*%
%ADD18RoundRect,0.102000X0.754000X0.754000X-0.754000X0.754000X-0.754000X-0.754000X0.754000X-0.754000X0*%
%ADD19C,1.712000*%
%ADD20C,3.600000*%
%ADD21R,0.660400X1.549400*%
%ADD22R,1.295400X1.905000*%
%ADD23RoundRect,0.225000X-0.225000X-0.250000X0.225000X-0.250000X0.225000X0.250000X-0.225000X0.250000X0*%
%ADD24R,1.066800X0.254000*%
%ADD25R,0.254000X1.066800*%
%ADD26RoundRect,0.225000X0.225000X0.250000X-0.225000X0.250000X-0.225000X-0.250000X0.225000X-0.250000X0*%
%ADD27RoundRect,0.200000X0.275000X-0.200000X0.275000X0.200000X-0.275000X0.200000X-0.275000X-0.200000X0*%
%ADD28RoundRect,0.250000X-0.325000X-0.650000X0.325000X-0.650000X0.325000X0.650000X-0.325000X0.650000X0*%
%ADD29RoundRect,0.200000X-0.275000X0.200000X-0.275000X-0.200000X0.275000X-0.200000X0.275000X0.200000X0*%
%ADD30RoundRect,0.200000X0.200000X0.275000X-0.200000X0.275000X-0.200000X-0.275000X0.200000X-0.275000X0*%
%ADD31R,1.092200X0.609600*%
%ADD32RoundRect,0.225000X-0.250000X0.225000X-0.250000X-0.225000X0.250000X-0.225000X0.250000X0.225000X0*%
%ADD33R,1.400000X1.200000*%
%ADD34RoundRect,0.375000X-0.625000X-0.375000X0.625000X-0.375000X0.625000X0.375000X-0.625000X0.375000X0*%
%ADD35RoundRect,0.500000X-0.500000X-1.400000X0.500000X-1.400000X0.500000X1.400000X-0.500000X1.400000X0*%
%ADD36RoundRect,0.377000X0.377000X0.377000X-0.377000X0.377000X-0.377000X-0.377000X0.377000X-0.377000X0*%
%ADD37C,1.508000*%
%ADD38C,3.340000*%
G04 APERTURE END LIST*
D10*
%TO.C,J1*%
X173627500Y-45580000D02*
X172927500Y-45580000D01*
X172927500Y-44330000D01*
X173627500Y-44330000D01*
X173627500Y-45580000D01*
G36*
X173627500Y-45580000D02*
G01*
X172927500Y-45580000D01*
X172927500Y-44330000D01*
X173627500Y-44330000D01*
X173627500Y-45580000D01*
G37*
X174427500Y-45580000D02*
X173727500Y-45580000D01*
X173727500Y-44330000D01*
X174427500Y-44330000D01*
X174427500Y-45580000D01*
G36*
X174427500Y-45580000D02*
G01*
X173727500Y-45580000D01*
X173727500Y-44330000D01*
X174427500Y-44330000D01*
X174427500Y-45580000D01*
G37*
X174927500Y-45580000D02*
X174527500Y-45580000D01*
X174527500Y-44330000D01*
X174927500Y-44330000D01*
X174927500Y-45580000D01*
G36*
X174927500Y-45580000D02*
G01*
X174527500Y-45580000D01*
X174527500Y-44330000D01*
X174927500Y-44330000D01*
X174927500Y-45580000D01*
G37*
X175427500Y-45580000D02*
X175027500Y-45580000D01*
X175027500Y-44330000D01*
X175427500Y-44330000D01*
X175427500Y-45580000D01*
G36*
X175427500Y-45580000D02*
G01*
X175027500Y-45580000D01*
X175027500Y-44330000D01*
X175427500Y-44330000D01*
X175427500Y-45580000D01*
G37*
X175927500Y-45580000D02*
X175527500Y-45580000D01*
X175527500Y-44330000D01*
X175927500Y-44330000D01*
X175927500Y-45580000D01*
G36*
X175927500Y-45580000D02*
G01*
X175527500Y-45580000D01*
X175527500Y-44330000D01*
X175927500Y-44330000D01*
X175927500Y-45580000D01*
G37*
X176427500Y-45580000D02*
X176027500Y-45580000D01*
X176027500Y-44330000D01*
X176427500Y-44330000D01*
X176427500Y-45580000D01*
G36*
X176427500Y-45580000D02*
G01*
X176027500Y-45580000D01*
X176027500Y-44330000D01*
X176427500Y-44330000D01*
X176427500Y-45580000D01*
G37*
X176927500Y-45580000D02*
X176527500Y-45580000D01*
X176527500Y-44330000D01*
X176927500Y-44330000D01*
X176927500Y-45580000D01*
G36*
X176927500Y-45580000D02*
G01*
X176527500Y-45580000D01*
X176527500Y-44330000D01*
X176927500Y-44330000D01*
X176927500Y-45580000D01*
G37*
X177427500Y-45580000D02*
X177027500Y-45580000D01*
X177027500Y-44330000D01*
X177427500Y-44330000D01*
X177427500Y-45580000D01*
G36*
X177427500Y-45580000D02*
G01*
X177027500Y-45580000D01*
X177027500Y-44330000D01*
X177427500Y-44330000D01*
X177427500Y-45580000D01*
G37*
X177927500Y-45580000D02*
X177527500Y-45580000D01*
X177527500Y-44330000D01*
X177927500Y-44330000D01*
X177927500Y-45580000D01*
G36*
X177927500Y-45580000D02*
G01*
X177527500Y-45580000D01*
X177527500Y-44330000D01*
X177927500Y-44330000D01*
X177927500Y-45580000D01*
G37*
X178427500Y-45580000D02*
X178027500Y-45580000D01*
X178027500Y-44330000D01*
X178427500Y-44330000D01*
X178427500Y-45580000D01*
G36*
X178427500Y-45580000D02*
G01*
X178027500Y-45580000D01*
X178027500Y-44330000D01*
X178427500Y-44330000D01*
X178427500Y-45580000D01*
G37*
X179227500Y-45580000D02*
X178527500Y-45580000D01*
X178527500Y-44330000D01*
X179227500Y-44330000D01*
X179227500Y-45580000D01*
G36*
X179227500Y-45580000D02*
G01*
X178527500Y-45580000D01*
X178527500Y-44330000D01*
X179227500Y-44330000D01*
X179227500Y-45580000D01*
G37*
X180027500Y-45580000D02*
X179327500Y-45580000D01*
X179327500Y-44330000D01*
X180027500Y-44330000D01*
X180027500Y-45580000D01*
G36*
X180027500Y-45580000D02*
G01*
X179327500Y-45580000D01*
X179327500Y-44330000D01*
X180027500Y-44330000D01*
X180027500Y-45580000D01*
G37*
D11*
%TO.C,U1*%
G36*
X165418900Y-64693900D02*
G01*
X164806100Y-64693900D01*
X164806100Y-60706100D01*
X165418900Y-60706100D01*
X165418900Y-64693900D01*
G37*
G36*
X168793900Y-61318900D02*
G01*
X164806100Y-61318900D01*
X164806100Y-60706100D01*
X168793900Y-60706100D01*
X168793900Y-61318900D01*
G37*
G36*
X168793900Y-62106300D02*
G01*
X164806100Y-62106300D01*
X164806100Y-61718900D01*
X168793900Y-61718900D01*
X168793900Y-62106300D01*
G37*
G36*
X168793900Y-62893700D02*
G01*
X164806100Y-62893700D01*
X164806100Y-62506300D01*
X168793900Y-62506300D01*
X168793900Y-62893700D01*
G37*
G36*
X168793900Y-63681100D02*
G01*
X164806100Y-63681100D01*
X164806100Y-63293700D01*
X168793900Y-63293700D01*
X168793900Y-63681100D01*
G37*
G36*
X168793900Y-64693900D02*
G01*
X164806100Y-64693900D01*
X164806100Y-64081100D01*
X168793900Y-64081100D01*
X168793900Y-64693900D01*
G37*
G36*
X166206300Y-64693900D02*
G01*
X165818900Y-64693900D01*
X165818900Y-60706100D01*
X166206300Y-60706100D01*
X166206300Y-64693900D01*
G37*
G36*
X166993700Y-64693900D02*
G01*
X166606300Y-64693900D01*
X166606300Y-60706100D01*
X166993700Y-60706100D01*
X166993700Y-64693900D01*
G37*
G36*
X167781100Y-64693900D02*
G01*
X167393700Y-64693900D01*
X167393700Y-60706100D01*
X167781100Y-60706100D01*
X167781100Y-64693900D01*
G37*
G36*
X168793900Y-64693900D02*
G01*
X168181100Y-64693900D01*
X168181100Y-60706100D01*
X168793900Y-60706100D01*
X168793900Y-64693900D01*
G37*
%TD*%
D12*
%TO.C,C15*%
X161000000Y-58025000D03*
X161000000Y-56475000D03*
%TD*%
D13*
%TO.C,R6*%
X172743900Y-60840000D03*
X174393900Y-60840000D03*
%TD*%
D14*
%TO.C,H3*%
X92000000Y-42500000D03*
%TD*%
%TO.C,H6*%
X92000000Y-71000000D03*
%TD*%
D15*
%TO.C,J1*%
X179367500Y-43880000D03*
X173587500Y-43880000D03*
D16*
X180797500Y-44380000D03*
X172157500Y-44380000D03*
D17*
X180797500Y-40200000D03*
X172157500Y-40200000D03*
%TD*%
D18*
%TO.C,J3*%
X133500000Y-50570000D03*
D19*
X131000000Y-50570000D03*
X129000000Y-50570000D03*
X126500000Y-50570000D03*
D20*
X136570000Y-47860000D03*
X123430000Y-47860000D03*
%TD*%
D21*
%TO.C,J5*%
X150500000Y-66917400D03*
X151500001Y-66917400D03*
X152499999Y-66917400D03*
X153500000Y-66917400D03*
D22*
X154799999Y-70792401D03*
X149200001Y-70792401D03*
%TD*%
D23*
%TO.C,C5*%
X172808900Y-64380000D03*
X174358900Y-64380000D03*
%TD*%
D24*
%TO.C,U1*%
X163955200Y-60668000D03*
X163955200Y-61176000D03*
X163955200Y-61684000D03*
X163955200Y-62192000D03*
X163955200Y-62700000D03*
X163955200Y-63208000D03*
X163955200Y-63716000D03*
X163955200Y-64224000D03*
X163955200Y-64732000D03*
D25*
X164768000Y-65544800D03*
X165276000Y-65544800D03*
X165784000Y-65544800D03*
X166292000Y-65544800D03*
X166800000Y-65544800D03*
X167308000Y-65544800D03*
X167816000Y-65544800D03*
X168324000Y-65544800D03*
X168832000Y-65544800D03*
D24*
X169644800Y-64732000D03*
X169644800Y-64224000D03*
X169644800Y-63716000D03*
X169644800Y-63208000D03*
X169644800Y-62700000D03*
X169644800Y-62192000D03*
X169644800Y-61684000D03*
X169644800Y-61176000D03*
X169644800Y-60668000D03*
D25*
X168832000Y-59855200D03*
X168324000Y-59855200D03*
X167816000Y-59855200D03*
X167308000Y-59855200D03*
X166800000Y-59855200D03*
X166292000Y-59855200D03*
X165784000Y-59855200D03*
X165276000Y-59855200D03*
X164768000Y-59855200D03*
%TD*%
D13*
%TO.C,R16*%
X171575000Y-48200000D03*
X173225000Y-48200000D03*
%TD*%
D12*
%TO.C,C9*%
X164100000Y-58025000D03*
X164100000Y-56475000D03*
%TD*%
D13*
%TO.C,R8*%
X172763207Y-66090000D03*
X174413207Y-66090000D03*
%TD*%
D14*
%TO.C,H4*%
X186000000Y-71000000D03*
%TD*%
D18*
%TO.C,J4*%
X108600000Y-50570000D03*
D19*
X106100000Y-50570000D03*
X104100000Y-50570000D03*
X101600000Y-50570000D03*
D20*
X111670000Y-47860000D03*
X98530000Y-47860000D03*
%TD*%
D26*
%TO.C,C1*%
X161326000Y-63075000D03*
X159776000Y-63075000D03*
%TD*%
D12*
%TO.C,C10*%
X165898900Y-69615000D03*
X165898900Y-68065000D03*
%TD*%
D13*
%TO.C,R5*%
X170275000Y-53200000D03*
X171925000Y-53200000D03*
%TD*%
D14*
%TO.C,H1*%
X186000000Y-42500000D03*
%TD*%
D27*
%TO.C,R12*%
X171209607Y-57849293D03*
X171209607Y-56199293D03*
%TD*%
D12*
%TO.C,C11*%
X161050000Y-52315000D03*
X161050000Y-50765000D03*
%TD*%
D28*
%TO.C,C13*%
X181925000Y-55900000D03*
X184875000Y-55900000D03*
%TD*%
D13*
%TO.C,R7*%
X172758900Y-62590000D03*
X174408900Y-62590000D03*
%TD*%
D26*
%TO.C,C4*%
X162375000Y-59700000D03*
X160825000Y-59700000D03*
%TD*%
D14*
%TO.C,H2*%
X141300000Y-52400000D03*
%TD*%
D29*
%TO.C,R3*%
X169398900Y-68015000D03*
X169398900Y-69665000D03*
%TD*%
D12*
%TO.C,C6*%
X169100000Y-57750707D03*
X169100000Y-56200707D03*
%TD*%
D28*
%TO.C,C14*%
X181825000Y-65700000D03*
X184775000Y-65700000D03*
%TD*%
D13*
%TO.C,R14*%
X163425000Y-54550000D03*
X165075000Y-54550000D03*
%TD*%
D23*
%TO.C,C8*%
X172798900Y-59090000D03*
X174348900Y-59090000D03*
%TD*%
D29*
%TO.C,R9*%
X176388900Y-58855000D03*
X176388900Y-60505000D03*
%TD*%
D30*
%TO.C,R4*%
X174425000Y-67800000D03*
X172775000Y-67800000D03*
%TD*%
D31*
%TO.C,U4*%
X177644600Y-50439800D03*
X177644600Y-49500000D03*
X177644600Y-48560200D03*
X175155400Y-48560200D03*
X175155400Y-49500000D03*
X175155400Y-50439800D03*
%TD*%
D30*
%TO.C,R15*%
X181125000Y-48200000D03*
X179475000Y-48200000D03*
%TD*%
D13*
%TO.C,R17*%
X170275000Y-51600000D03*
X171925000Y-51600000D03*
%TD*%
D32*
%TO.C,C2*%
X164148900Y-68065000D03*
X164148900Y-69615000D03*
%TD*%
D30*
%TO.C,R10*%
X174413900Y-55590000D03*
X172763900Y-55590000D03*
%TD*%
D27*
%TO.C,R13*%
X162550000Y-58075000D03*
X162550000Y-56425000D03*
%TD*%
D29*
%TO.C,R1*%
X164148900Y-71265000D03*
X164148900Y-72915000D03*
%TD*%
D32*
%TO.C,C7*%
X176388900Y-61975000D03*
X176388900Y-63525000D03*
%TD*%
D26*
%TO.C,C12*%
X165075000Y-48790000D03*
X163525000Y-48790000D03*
%TD*%
D32*
%TO.C,C3*%
X167648900Y-68065000D03*
X167648900Y-69615000D03*
%TD*%
D33*
%TO.C,Y1*%
X163200000Y-52450000D03*
X165400000Y-52450000D03*
X165400000Y-50750000D03*
X163200000Y-50750000D03*
%TD*%
D29*
%TO.C,R2*%
X169400000Y-71265000D03*
X169400000Y-72915000D03*
%TD*%
D14*
%TO.C,H2*%
X166000000Y-42500000D03*
%TD*%
D34*
%TO.C,U2*%
X181850000Y-58500000D03*
X181850000Y-60800000D03*
X181850000Y-63100000D03*
D35*
X188150000Y-60800000D03*
%TD*%
D13*
%TO.C,R11*%
X172753900Y-57340000D03*
X174403900Y-57340000D03*
%TD*%
D32*
%TO.C,C16*%
X167648900Y-71315000D03*
X167648900Y-72865000D03*
%TD*%
D36*
%TO.C,J2*%
X155600000Y-43705000D03*
D37*
X153100000Y-43705000D03*
X151100000Y-43705000D03*
X148600000Y-43705000D03*
D38*
X158670000Y-46415000D03*
X152100000Y-49915000D03*
X145530000Y-46415000D03*
%TD*%
M02*
