M48
;Layer_Color=9474304
;FILE_FORMAT=2:4
INCH,LZ
;TYPE=PLATED
T1F00S00C0.0118
T2F00S00C0.0197
T3F00S00C0.0200
T4F00S00C0.0300
T5F00S00C0.0394
T6F00S00C0.0400
T7F00S00C0.0433
T10F00S00C0.1200
T11F00S00C0.1570
T12F00S00C0.1575
;TYPE=NON_PLATED
T14F00S00C0.1181
T15F00S00C0.1570
%
T01
X0013Y0043
X0019
X0025
X0041Y0028
X0047
X0053
X006407Y009589
X0145Y0084
X0151
X0157
X017663Y009518
X0253Y0132
X03Y0121
X0306
X0312
X02865Y00785
X02805
X02745
X0354Y0096
X0416Y0117
X0422
X0428
X0448Y0095
X053188Y008808
X0531Y0068
X0525
X0519
X0589Y015
X0664
X0739
X0814
X0838Y0117
X0844
X085
X082341Y009535
X081031Y008939
X080431
X079831
X0847Y004
X0853
X0859
X089347Y010236
X089947
X090547
X0889Y015
X0964
X1039
X1114
X1189
X117Y0096
X1095Y0094
X124527Y0066
X1339Y0077
X1362Y009
X1368
X1374
X137528Y013423
X1391Y0131
X1397
X1403
X1365Y015
X1359
X1353
X1328Y0117
X1322
X1316
X1414Y0131
Y0081
X1489
X1513Y009
X1519
X1525
X145Y0022
X1444
X1438
Y0225
X1432
X1444
X1489Y0248
X1513Y0264
X1519
X1525
X1537Y0284
Y0209
X13485Y022504
X131Y0225
X1304
X1298
X129204Y017096
X1244Y0264
X1238
X1232
X1227Y0251
X115139Y025239
X1077Y0255
X1038Y0256
X1032
X1026
X1001Y0213
X0983Y03
X0908
X0868Y0271
X0862
X0856
X085143Y022501
X0926Y0213
X077672Y022495
X070135Y022499
X062647Y022493
X0631Y0271
X0637
X0643
X060772Y029997
X0587Y0254
X0581
X0575
X055139Y022497
X0533Y03
X0459Y0214
X0453
X0447
X038487Y020924
X038082Y020557
X0363Y0193
X0342Y0173
X0315Y0174
X0373Y0245
X0374Y0254
X03875Y0266
X03935
X03995
X0312Y0272
X0306
X03
X0287Y0302
X0281
X0275
X0248Y0285
X0212Y0271
X0206
X02
X017631Y024718
X017662Y01699
X0303Y0174
X0309
X0287Y0228
X0281
X0275
X0137Y0269
X0131
X0125
X010147Y024791
X0062Y0271
X0056
X005
X002616Y024644
X0018Y031
X002638Y016922
X010146Y016972
X0098Y0319
X010145Y039607
X0062Y0409
X0056
X005
Y0435
X0056
X0062
X002643Y039502
X017697Y039574
X020003Y042284
X020603
X021203
X027508Y042308
X028108
X028708
X025175Y039753
X017655Y032323
X0363Y0321
X0401Y0332
X0421Y0395
X0443Y0408
X0449
X0455
X0463Y0438
X0381
X0375
X0369
Y0408
X0375
X0381
X0356Y0396
X0495Y0402
X0519Y0407
X0525
X0531
X057Y0401
X0613Y0434
X0619
X0475Y0438
X0469
X0625Y0434
X0645Y0399
X072Y0397
X07Y0434
X0694
X0688
X0681Y0323
X0758Y0321
X083274Y032074
X0932Y0331
X087Y0397
X086837Y042404
X086237
X085637
X079466Y039732
X0945Y0396
X0969Y042404
X0975
X0981
X102Y0397
X105Y0419
X1053Y0416
X1058Y0321
X0944Y0331
X0938
X113248Y031977
X1208Y0318
X1245Y0396
X114Y0447
X1134
X1128
X1372
X1378
X1384
X137Y042
X137663Y03215
X1308Y0334
X1302
X1296
X128249Y031963
X1435Y0374
X1441
X1447
X1445Y0453
X1513Y0422
X1519
X1525
X1512Y0408
X1537Y0359
X155Y0328
X1492Y0502
X1443Y0528
X1491Y058782
X1507Y0587
X1512Y058782
X1526Y0587
X1506Y0617
X1498Y0616
X148985Y061676
X1384Y0615
X1378
X1372
Y056
X1378
X1384
X136306Y053696
X1361Y0504
X1372Y0469
X1378
X1384
X13Y0501
X1302Y0532
X1227Y0526
X1226Y0499
X1225Y0469
X1219
X1213
X1209Y0545
X1203
X1197
X115105Y052596
X115Y0496
X1133Y0544
X1127
X1121
X111898Y060098
Y060602
X1127Y0606
Y0601
X1139Y0597
Y0613
X110604Y060932
X110604Y059598
X1197Y0615
X1203
X1209
X1068Y0609
X106914Y059591
X1056Y0601
Y0606
X1049
X104807Y060098
X10364Y059591
X1037Y0609
X0997
X0998Y0596
X098671Y060109
X0984Y0606
X098
X0979Y0601
X096644Y05972
X0967Y0609
X0975Y0576
X0944
X0938
X1006
X1012
X1018
X1068Y0561
X1077Y0495
X0932Y0576
X0929Y0605
X093Y0609
X0918Y0598
X0915Y0601
X0911
X0909Y0596
X0898Y0604
Y0609
X086Y060818
Y0597
X0847Y0601
X0845Y0606
X0841
X0839Y0601
X0827Y0596
X0828Y0609
X078749Y060816
X078823Y059596
X0792Y058036
X0788Y0573
X0856Y0576
X0862
X0868
X075737Y057363
X0755Y0595
Y0608
X0769Y0605
X0773
X077541Y060095
X0768Y0598
X0737Y0569
X0731
X0725
X073663Y054535
X0742Y0505
X0745Y0502
X0742Y0499
X075777Y049112
X07Y0502
X0694
X0688
X0694Y0523
X069323Y05278
X0693Y0536
X0679Y0533
X0675
X0674Y0528
X06608Y05228
X0661Y0536
X0653Y0549
X0671Y0569
X0677
X0683
X0625Y0523
Y0502
X0619
X0613
X0593Y0509
X0589
X0585
X058
X05862Y052159
X059249Y052304
X059252Y053252
X0594Y0536
X0605Y0535
X0608Y0533
X0612Y0528
X0614Y0569
X0608
X0602
X0584Y055
X057347Y055915
X057313Y058913
X0568Y0589
X056276Y058876
X0532Y0568
X0526
X052
X050892Y056919
X0498Y056608
X049Y0575
Y057934
X048567
X048134
Y058367
X048567
X049
Y0588
X048567
X048134
X048406Y060137
X048434Y061509
X0494Y0615
X048495Y055918
X047926Y055918
X0483Y0553
X048714Y055314
X0483Y0543
X0482Y0537
Y0524
X04704Y052809
X0469Y0533
X0474Y0565
X0502Y055
X050694Y055004
X0519Y0554
X052271Y053542
X052177Y052304
X053451Y052801
X0535Y0533
X0542
X054318Y052561
X055485Y052173
X0554Y0537
X0464Y0533
X046182Y0528
X0451Y0524
X044866Y053664
X043518Y053688
Y054268
X0435Y0549
X0442Y055018
X0439Y0557
X0437Y0567
X0443
X0449
X0453Y0583
X0457Y0586
X046196Y058823
X045998Y059525
X045784Y060048
X045732Y060629
X046369Y061461
X04638Y061825
X0451Y0615
X0445
X0439
X0451Y0595
X04472Y059067
X0443Y0586
X045875Y057825
X0464Y0545
X041403Y053717
X039994Y053235
X039519Y053216
X039359Y05278
X040127Y0528
X041621Y051852
X0381Y0523
X037963Y053664
X037248Y055036
X0372Y0567
X0378
X0366
X0403
X0409
X0415
Y0604
X0409
X0403
X0377
X0371
X0365
X03351Y053717
X033574Y052304
X032618Y0528
X032291Y053271
X031672Y053262
X031575Y052786
X0345Y049
X0288Y0502
X0282
X0276
X0251Y0491
X0248Y0528
X0246Y0532
X0241
X02372Y052961
X0225Y0525
X02242Y053527
X0218Y055
X019Y0535
X018988Y052583
X0174Y0526
X0171Y0532
X0167
X016431Y052615
X017918Y0491
X02Y0502
X0206
X0212
X025972Y052304
X0259Y053522
X03036Y053714
X0303Y052304
X029412Y05503
X0292Y0566
X0299
X0306
X0192Y0579
X0186
X018
X0126Y058
X012
X0114
X0061Y0579
X0055
X0049
X0047Y0609
X0053
X0059
X005798Y055201
X0047Y0549
X00553Y053854
X003682Y053688
X0047Y0519
X0053
X0059
X0071Y0523
X007092Y052816
X012Y0519
X0126
X0132
X0134Y0539
X015146Y051319
T02
X032Y0584
X0299Y0606
X0272Y0588
T03
X114935Y0616
X1084Y0612
X1016
X0946
X0875
X0805
X074854Y059188
X0711Y054
X063551Y054002
X0565Y054
X0487
X0525Y0593
X0499Y062
X0455Y0575
X0424Y054
X027019Y053983
X020087Y053987
X005827Y056161
T04
X0346Y054
T05
X152859Y051744
X150891
Y057453
X151875
X152859
X025281Y058017
X024494
X023706
X022919
T06
X0333Y0596
T07
X0087Y052875
Y053875
Y054875
Y055875
T10
X00465Y01025
X014099
X030875Y006526
X065628Y01025
X104998
X142537Y02525
X133088
X046912Y01775
X037463
X030875Y015974
Y021526
Y030974
X134026Y03475
X143474
T11
X00465Y00425
X014099
X0258Y006526
X037463Y01175
X046912
X065628Y00425
X104998
X142537Y01925
X133088
X026Y021526
X0259Y015974
X0257Y030974
X134026Y04075
X143474
T12
X0023Y003
X0705
X1554
Y0608
X0705
X0023
T14
X007875Y0085
X010375Y0095
X019125Y0085
X021625Y0095
X026625Y01225
X029125Y01325
X036937Y0085
X039437Y0095
X046312Y0085
X048812Y0095
X055687Y0085
X058187Y0095
X083813Y0085
X086313Y0095
X111Y0085
X1135Y0095
X1185Y0085
X121Y0095
X126Y0085
X1285Y0095
X135375Y006625
X137875Y007625
X142875Y006625
X145375Y007625
X150375Y006625
X152875Y007625
X145375Y015125
X142875Y014125
X150375Y0235
X152875Y0245
X150375Y031
X139125
X138813Y0245
X136313Y0235
X133188Y017
X130688Y016
X126625Y0245
X12975Y031
X12225
X11475
X116625Y0235
X119125Y0245
X124125Y0235
X122875Y017
X120375Y016
X115375Y017
X112875Y016
X111625Y0245
X109125Y0235
X104125Y0245
X101625Y0235
X096625Y0245
X094125Y0235
X097875Y016
X100375Y017
X105375Y016
X107875Y017
X10725Y031
X09975
X09225
X08475
X086625Y0235
X089125Y0245
X081625
X079125Y0235
X082875Y016
X085375Y017
X090375Y016
X092875Y017
X077875
X075375Y016
X070375Y017
X067875Y016
X062875Y017
X064125Y0235
X066625Y0245
X071625Y0235
X074125Y0245
X07725Y031
X06975
X06225
X05475
X04725
X049125Y0235
X051625Y0245
X056625Y0235
X059125Y0245
X060375Y016
X055375Y017
X052875Y016
X043187Y017
X040687Y016
X041312Y0245
X038812Y0235
X037875Y031
X029125Y02825
X026625Y02725
X021625Y0245
X019125Y0235
Y031
Y016
X021625Y017
X014125
X011625Y016
X006625Y017
X004125Y016
Y0235
X006625Y0245
X011625Y0235
X014125Y0245
X011625Y031
X004125
X006625Y032
X014125
Y0395
X011625Y0385
X006625Y0395
X004125Y0385
X019125
X021625Y0395
X026625Y0385
X029125Y0395
X021625Y032
X040375
X0385Y0395
X036Y0385
X0435
X046Y0395
X051Y0385
X0535Y0395
X0585Y0385
X061Y0395
X05725Y032
X04975
X06475
X07225
X0735Y0385
X076Y0395
X0685
X066Y0385
X081
X0835Y0395
X0885Y0385
X091Y0395
X08725Y032
X07975
X09475
X10225
X1035Y0385
X106Y0395
X0985
X096Y0385
X111
X1135Y0395
X1185Y0385
X121Y0395
X11725Y032
X10975
X12475
X13225
X1285Y0395
X126Y0385
X13725
X13975Y0395
X141625Y032
X152875
Y0395
X150375Y0385
Y047875
X152875Y048875
X1435
X141Y047875
Y055375
X1435Y056375
X134125
X131625Y055375
X126625Y056375
Y048875
X131625Y047875
X134125Y048875
X124125Y047875
X119125Y048875
X116625Y047875
X111625Y048875
Y056375
X116625Y055375
X119125Y056375
X124125Y055375
X109125
Y047875
X10225Y048875
X09975Y047875
X09475Y048875
Y056375
X09975Y055375
X10225Y056375
X09225Y055375
X08725Y056375
X08475Y055375
X07975Y056375
Y048875
X08475Y047875
X08725Y048875
X09225Y047875
X07725
Y055375
X070375Y048875
X067875Y047875
X062875Y048875
X060375Y047875
X055375Y048875
X052875Y047875
X047875Y048875
X045375Y047875
X0385Y048875
X036Y047875
X029125Y048875
X026625Y047875
X021625Y048875
X019125Y047875
X0141Y048875
X0116Y047875
X0066Y048875
X0041Y047875
T15
X009375Y0075
X005625Y015
X013125
X020625
Y0075
X028125Y01125
X038438Y0075
X042188Y015
X054375
X061875
X057188Y0075
X047812
X069375Y015
X076875
X084375
X091875
X085312Y0075
X099375Y015
X106875
X114375
X121875
X12Y0075
X1125
X1275
X136875Y005625
X132188Y015
X144375Y013125
Y005625
X151875
Y0225
Y03
X140625
X13125
X125625Y0225
X137812
X118125
X110625
X11625Y03
X12375
X10875
X10125
X09375
X095625Y0225
X103125
X088125
X080625
X07875Y03
X08625
X07125
X06375
X065625Y0225
X073125
X058125
X050625
X04875Y03
X05625
X039375
X040312Y0225
X028125Y02625
X020625Y0225
Y03
X013125
Y0225
X005625
Y03
Y0375
X013125
X020625
X028125
X0375
X045
X0525
X06
X0675
X075
X0825
X09
X0975
X105
X1125
X12
X1275
X13875
X151875
Y046875
X1425
Y054375
X133125
Y046875
X125625
Y054375
X118125
X110625
Y046875
X118125
X10125
Y054375
X09375
Y046875
X08625
Y054375
X07875
Y046875
X069375
X061875
X054375
X046875
X0375
X028125
X020625
X0131
X0056
M30
