G04*
G04 #@! TF.GenerationSoftware,Altium Limited,Altium Designer,23.5.1 (21)*
G04*
G04 Layer_Color=8388736*
%FSLAX25Y25*%
%MOIN*%
G70*
G04*
G04 #@! TF.SameCoordinates,508BA793-0958-4452-B0AF-20FDD5A17331*
G04*
G04*
G04 #@! TF.FilePolarity,Negative*
G04*
G01*
G75*
%ADD13R,0.05118X0.07874*%
%ADD14R,0.03937X0.01181*%
%ADD15R,0.01575X0.01968*%
%ADD16C,0.06706*%
%ADD17R,0.06706X0.06706*%
G04:AMPARAMS|DCode=18|XSize=94.49mil|YSize=196.85mil|CornerRadius=47.24mil|HoleSize=0mil|Usage=FLASHONLY|Rotation=180.000|XOffset=0mil|YOffset=0mil|HoleType=Round|Shape=RoundedRectangle|*
%AMROUNDEDRECTD18*
21,1,0.09449,0.10236,0,0,180.0*
21,1,0.00000,0.19685,0,0,180.0*
1,1,0.09449,0.00000,0.05118*
1,1,0.09449,0.00000,0.05118*
1,1,0.09449,0.00000,-0.05118*
1,1,0.09449,0.00000,-0.05118*
%
%ADD18ROUNDEDRECTD18*%
%ADD19C,0.06102*%
%ADD20R,0.06102X0.06102*%
%ADD21C,0.07099*%
%ADD22R,0.07099X0.07099*%
%ADD23C,0.03162*%
%ADD24C,0.04800*%
%ADD25C,0.04737*%
%ADD26C,0.08800*%
%ADD27C,0.02769*%
%ADD28C,0.05300*%
D13*
X21114Y525837D02*
D03*
Y561663D02*
D03*
D14*
X31744Y534892D02*
D03*
Y536860D02*
D03*
Y538829D02*
D03*
Y540797D02*
D03*
Y542766D02*
D03*
Y544734D02*
D03*
Y546703D02*
D03*
Y548671D02*
D03*
Y550640D02*
D03*
Y552608D02*
D03*
D15*
X54575Y552000D02*
D03*
X51425D02*
D03*
D16*
X229189Y580165D02*
D03*
X244937D02*
D03*
X237063D02*
D03*
D17*
X252811D02*
D03*
D18*
X1496309Y545000D02*
D03*
X1541191D02*
D03*
D19*
X1508907Y574528D02*
D03*
X1518750D02*
D03*
X1508907Y517441D02*
D03*
X1528593D02*
D03*
D20*
Y574528D02*
D03*
D21*
X87000Y538750D02*
D03*
Y548750D02*
D03*
Y558750D02*
D03*
D22*
Y528750D02*
D03*
D23*
X519000Y554000D02*
D03*
X484955Y559185D02*
D03*
X479257Y559185D02*
D03*
X506942Y550036D02*
D03*
X502000Y550000D02*
D03*
X508916Y569187D02*
D03*
X487136Y553135D02*
D03*
X490000Y575000D02*
D03*
X1506000Y617000D02*
D03*
X1489849Y616764D02*
D03*
X1384000Y615000D02*
D03*
X1378000D02*
D03*
X1372000D02*
D03*
X1209000D02*
D03*
X1203000D02*
D03*
X1197000D02*
D03*
X1512000Y587819D02*
D03*
X1491000D02*
D03*
X543181Y525610D02*
D03*
X1139000Y613000D02*
D03*
X1498000Y616000D02*
D03*
X1245267Y66000D02*
D03*
X1292042Y170958D02*
D03*
X1370000Y420000D02*
D03*
X1375279Y134226D02*
D03*
X326181Y528000D02*
D03*
X356000Y396000D02*
D03*
X401000Y332000D02*
D03*
X416212Y518521D02*
D03*
X482000Y524000D02*
D03*
X975000Y576000D02*
D03*
X57978Y552006D02*
D03*
X55303Y538540D02*
D03*
X36823Y536881D02*
D03*
X132000Y519000D02*
D03*
X126000D02*
D03*
X120000D02*
D03*
X59000D02*
D03*
X53000D02*
D03*
X47000D02*
D03*
X61000Y579000D02*
D03*
X55000D02*
D03*
X49000D02*
D03*
X126000Y580000D02*
D03*
X120000D02*
D03*
X114000D02*
D03*
X192000Y579000D02*
D03*
X186000D02*
D03*
X180000D02*
D03*
X451000Y615000D02*
D03*
X445000D02*
D03*
X439000D02*
D03*
X415000Y604000D02*
D03*
X409000D02*
D03*
X403000D02*
D03*
X377000D02*
D03*
X371000D02*
D03*
X365000D02*
D03*
X457843Y600484D02*
D03*
X459978Y595253D02*
D03*
X457323Y606290D02*
D03*
X458751Y578249D02*
D03*
X443000Y586000D02*
D03*
X447197Y590675D02*
D03*
X461964Y588232D02*
D03*
X457000Y586000D02*
D03*
X453000Y583000D02*
D03*
X451000Y595000D02*
D03*
X288000Y502000D02*
D03*
X282000D02*
D03*
X276000D02*
D03*
X212000D02*
D03*
X206000D02*
D03*
X200000D02*
D03*
X315000Y174000D02*
D03*
X309000D02*
D03*
X303000D02*
D03*
X856366Y424042D02*
D03*
X862366D02*
D03*
X868366D02*
D03*
X969000D02*
D03*
X975000D02*
D03*
X981000D02*
D03*
X1372000Y447000D02*
D03*
X1378000D02*
D03*
X1384000D02*
D03*
X1128000D02*
D03*
X1134000D02*
D03*
X1140000D02*
D03*
X1197000Y545000D02*
D03*
X1203000D02*
D03*
X1209000D02*
D03*
X1121000Y544000D02*
D03*
X1127000D02*
D03*
X1133000D02*
D03*
X792000Y580362D02*
D03*
X768000Y598000D02*
D03*
X932000Y576000D02*
D03*
X938000D02*
D03*
X944000D02*
D03*
X1006000D02*
D03*
X1012000D02*
D03*
X1018000D02*
D03*
X868000D02*
D03*
X862000D02*
D03*
X856000D02*
D03*
X125000Y269000D02*
D03*
X131000D02*
D03*
X137000D02*
D03*
X1513000Y264000D02*
D03*
X1519000D02*
D03*
X1525000D02*
D03*
X856000Y271000D02*
D03*
X862000D02*
D03*
X868000D02*
D03*
X932000Y331000D02*
D03*
X938000D02*
D03*
X944000D02*
D03*
X1026000Y256000D02*
D03*
X1032000D02*
D03*
X1038000D02*
D03*
X631000Y271000D02*
D03*
X637000D02*
D03*
X643000D02*
D03*
X384868Y209235D02*
D03*
X380819Y205566D02*
D03*
X483000Y553000D02*
D03*
X482996Y542996D02*
D03*
X474000Y565000D02*
D03*
X464000Y545000D02*
D03*
X435180Y542681D02*
D03*
Y536880D02*
D03*
X439000Y557000D02*
D03*
X442000Y550181D02*
D03*
X435000Y549000D02*
D03*
X448660Y536643D02*
D03*
X482000Y537000D02*
D03*
X498000Y566078D02*
D03*
X287000Y228000D02*
D03*
X374000Y254000D02*
D03*
X832736Y320736D02*
D03*
X758000Y321000D02*
D03*
X681000Y323000D02*
D03*
X495000Y402000D02*
D03*
X531000Y407000D02*
D03*
X525000D02*
D03*
X519000D02*
D03*
X570000Y401000D02*
D03*
X645000Y399000D02*
D03*
X587000Y254000D02*
D03*
X581000D02*
D03*
X575000D02*
D03*
X62000Y435000D02*
D03*
X56000D02*
D03*
X50000D02*
D03*
X62000Y409000D02*
D03*
X56000D02*
D03*
X50000D02*
D03*
X62000Y271000D02*
D03*
X56000D02*
D03*
X50000D02*
D03*
X212000D02*
D03*
X206000D02*
D03*
X200000D02*
D03*
X287000Y302000D02*
D03*
X281000D02*
D03*
X275000D02*
D03*
X810312Y89385D02*
D03*
X804313D02*
D03*
X798313D02*
D03*
X437000Y567000D02*
D03*
X443000D02*
D03*
X449000D02*
D03*
X1328000Y117000D02*
D03*
X1322000D02*
D03*
X1316000D02*
D03*
X850000D02*
D03*
X844000D02*
D03*
X838000D02*
D03*
X463800Y618253D02*
D03*
X463686Y614606D02*
D03*
X287078Y423080D02*
D03*
X281078D02*
D03*
X275078D02*
D03*
X59000Y609000D02*
D03*
X53000D02*
D03*
X47000D02*
D03*
X700000Y502000D02*
D03*
X694000D02*
D03*
X688000D02*
D03*
X625000D02*
D03*
X619000D02*
D03*
X613000D02*
D03*
X737000Y569000D02*
D03*
X731000D02*
D03*
X725000D02*
D03*
X683000D02*
D03*
X677000D02*
D03*
X671000D02*
D03*
X614000D02*
D03*
X608000D02*
D03*
X602000D02*
D03*
X532000Y568000D02*
D03*
X526000D02*
D03*
X520000D02*
D03*
X415000Y567000D02*
D03*
X409000D02*
D03*
X403000D02*
D03*
X378000D02*
D03*
X372000D02*
D03*
X366000D02*
D03*
X1525000Y90000D02*
D03*
X1519000D02*
D03*
X1513000D02*
D03*
X1374000D02*
D03*
X1368000D02*
D03*
X1362000D02*
D03*
X25000Y43000D02*
D03*
X19000D02*
D03*
X13000D02*
D03*
X41000Y28000D02*
D03*
X47000D02*
D03*
X53000D02*
D03*
X145000Y84000D02*
D03*
X151000D02*
D03*
X157000D02*
D03*
X300000Y121000D02*
D03*
X306000D02*
D03*
X312000D02*
D03*
X274500Y78500D02*
D03*
X280500D02*
D03*
X286500D02*
D03*
X275000Y228000D02*
D03*
X281000D02*
D03*
X447000Y214000D02*
D03*
X453000D02*
D03*
X459000D02*
D03*
X416000Y117000D02*
D03*
X422000D02*
D03*
X428000D02*
D03*
X387500Y266000D02*
D03*
X393500D02*
D03*
X399500D02*
D03*
X847000Y40000D02*
D03*
X853000D02*
D03*
X859000D02*
D03*
X1438000Y22000D02*
D03*
X1444000D02*
D03*
X1450000D02*
D03*
X1353000Y150000D02*
D03*
X1359000D02*
D03*
X1365000D02*
D03*
X1391000Y131000D02*
D03*
X1397000D02*
D03*
X1403000D02*
D03*
X1298000Y225000D02*
D03*
X1304000D02*
D03*
X1310000D02*
D03*
X1432000D02*
D03*
X1438000D02*
D03*
X1444000D02*
D03*
X1435000Y374000D02*
D03*
X1441000D02*
D03*
X1447000D02*
D03*
X1372000Y560000D02*
D03*
X1378000D02*
D03*
X1384000D02*
D03*
X1372000Y469000D02*
D03*
X1378000D02*
D03*
X1384000D02*
D03*
X1213000D02*
D03*
X1219000D02*
D03*
X1225000D02*
D03*
X688000Y434000D02*
D03*
X694000D02*
D03*
X700000D02*
D03*
X613000D02*
D03*
X619000D02*
D03*
X625000D02*
D03*
X443000Y408000D02*
D03*
X449000D02*
D03*
X455000D02*
D03*
X463000Y438000D02*
D03*
X469000D02*
D03*
X475000D02*
D03*
X369000D02*
D03*
X375000D02*
D03*
X381000D02*
D03*
X369000Y408000D02*
D03*
X375000D02*
D03*
X381000D02*
D03*
X200026Y422841D02*
D03*
X206027D02*
D03*
X212027D02*
D03*
X519000Y68000D02*
D03*
X525000D02*
D03*
X531000D02*
D03*
X1296000Y334000D02*
D03*
X1302000D02*
D03*
X1308000D02*
D03*
X1513000Y422000D02*
D03*
X1519000D02*
D03*
X1525000D02*
D03*
X893465Y102362D02*
D03*
X899465D02*
D03*
X905465D02*
D03*
X534507Y528012D02*
D03*
X1537000Y359000D02*
D03*
X494000Y615000D02*
D03*
X484339Y615086D02*
D03*
X484065Y601367D02*
D03*
X259000Y535217D02*
D03*
X1118978Y600978D02*
D03*
X979000Y601000D02*
D03*
X522708Y535418D02*
D03*
X755000Y595000D02*
D03*
X998000Y596000D02*
D03*
X898000Y604000D02*
D03*
Y609000D02*
D03*
X775409Y600952D02*
D03*
X847000Y601000D02*
D03*
X585000Y509000D02*
D03*
X580000D02*
D03*
X593000D02*
D03*
X315746Y527855D02*
D03*
X303598Y537143D02*
D03*
X335104Y537166D02*
D03*
X401268Y528001D02*
D03*
X393590Y527798D02*
D03*
X470404Y528088D02*
D03*
X554849Y521735D02*
D03*
X586199Y521587D02*
D03*
X693234Y527798D02*
D03*
X967000Y609000D02*
D03*
X966439Y597199D02*
D03*
X997000Y609000D02*
D03*
X1056000Y601000D02*
D03*
X554000Y537000D02*
D03*
X71000Y523000D02*
D03*
X47000Y549000D02*
D03*
X70925Y528156D02*
D03*
X373000Y245000D02*
D03*
X253000Y132000D02*
D03*
X788000Y573000D02*
D03*
X1445000Y453000D02*
D03*
X1443000Y528000D02*
D03*
X745000Y502000D02*
D03*
X742000Y499000D02*
D03*
Y505000D02*
D03*
X294125Y550300D02*
D03*
X372484Y550363D02*
D03*
X1127000Y601000D02*
D03*
Y606000D02*
D03*
X1106038Y609319D02*
D03*
X1139000Y597000D02*
D03*
X1069144Y595914D02*
D03*
X1049000Y606000D02*
D03*
X1056000D02*
D03*
X1048070Y600984D02*
D03*
X1037000Y609000D02*
D03*
X986708Y601086D02*
D03*
X984000Y606000D02*
D03*
X980000D02*
D03*
X930000Y609000D02*
D03*
X929000Y605000D02*
D03*
X918000Y598000D02*
D03*
X915000Y601000D02*
D03*
X911000D02*
D03*
X860000Y597000D02*
D03*
Y608181D02*
D03*
X845000Y606000D02*
D03*
X841000D02*
D03*
X828000Y609000D02*
D03*
X773000Y605000D02*
D03*
X769000D02*
D03*
X625000Y523000D02*
D03*
X612000Y528000D02*
D03*
X660801Y522801D02*
D03*
X674000Y528000D02*
D03*
X675000Y533000D02*
D03*
X679000D02*
D03*
X693000Y536000D02*
D03*
X661000D02*
D03*
X594000D02*
D03*
X589000Y509000D02*
D03*
X592488Y523041D02*
D03*
X592521Y532521D02*
D03*
X171000Y532000D02*
D03*
X174000Y526000D02*
D03*
X167000Y532000D02*
D03*
X179181Y491000D02*
D03*
X189880Y525830D02*
D03*
X241000Y532000D02*
D03*
X246000D02*
D03*
X237203Y529606D02*
D03*
X259715Y523041D02*
D03*
X322913Y532711D02*
D03*
X316717Y532624D02*
D03*
X399936Y532354D02*
D03*
X395189Y532162D02*
D03*
X414031Y537169D02*
D03*
X451000Y524000D02*
D03*
X461819Y528000D02*
D03*
X464000Y533000D02*
D03*
X469000D02*
D03*
X542000D02*
D03*
X535000D02*
D03*
X421000Y395000D02*
D03*
X251000Y491000D02*
D03*
X345000Y490000D02*
D03*
X251752Y397533D02*
D03*
X306000Y566000D02*
D03*
X299000D02*
D03*
X292000D02*
D03*
X1050000Y419000D02*
D03*
X1068000Y609000D02*
D03*
X787485Y608163D02*
D03*
X755000Y608000D02*
D03*
X736628Y545352D02*
D03*
X312000Y272000D02*
D03*
X306000D02*
D03*
X300000D02*
D03*
X1244000Y264000D02*
D03*
X1238000D02*
D03*
X1232000D02*
D03*
X757767Y491117D02*
D03*
X589000Y150000D02*
D03*
X664000D02*
D03*
X739000D02*
D03*
X814000D02*
D03*
X889000D02*
D03*
X964000D02*
D03*
X1039000D02*
D03*
X1114000D02*
D03*
X1189000D02*
D03*
X1348505Y225039D02*
D03*
X1053000Y416000D02*
D03*
X720000Y397000D02*
D03*
X794659Y397321D02*
D03*
X1020000Y397000D02*
D03*
X945000Y396000D02*
D03*
X870000Y397000D02*
D03*
X363000Y321000D02*
D03*
X176969Y395737D02*
D03*
X176547Y323229D02*
D03*
X225000Y525000D02*
D03*
X224197Y535266D02*
D03*
X101449Y396072D02*
D03*
X26428Y395024D02*
D03*
X26163Y246437D02*
D03*
X101474Y247911D02*
D03*
X176306Y247177D02*
D03*
X176616Y169903D02*
D03*
X101460Y169723D02*
D03*
X26379Y169224D02*
D03*
X64068Y95886D02*
D03*
X176628Y95183D02*
D03*
X354000Y96000D02*
D03*
X448000Y95000D02*
D03*
X531879Y88077D02*
D03*
X823413Y95352D02*
D03*
X1095000Y94000D02*
D03*
X1170000Y96000D02*
D03*
X1414000Y131000D02*
D03*
X1339000Y77000D02*
D03*
X1489000Y81000D02*
D03*
X1414000D02*
D03*
X1537000Y209000D02*
D03*
X1489000Y248000D02*
D03*
X1537000Y284000D02*
D03*
X1376632Y321499D02*
D03*
X1282486Y319630D02*
D03*
X1245000Y396000D02*
D03*
X1208000Y318000D02*
D03*
X1132481Y319771D02*
D03*
X1058000Y321000D02*
D03*
X908000Y300000D02*
D03*
X983000D02*
D03*
X607719Y299968D02*
D03*
X533000Y300000D02*
D03*
X551392Y224973D02*
D03*
X626470Y224931D02*
D03*
X701350Y224992D02*
D03*
X776722Y224954D02*
D03*
X851426Y225014D02*
D03*
X1526000Y587000D02*
D03*
X1507000D02*
D03*
X653000Y549000D02*
D03*
X584000Y550000D02*
D03*
X218000D02*
D03*
X379631Y536643D02*
D03*
X98000Y319000D02*
D03*
X18000Y310000D02*
D03*
X134000Y539000D02*
D03*
X151465Y513192D02*
D03*
X1550000Y328000D02*
D03*
X1077000Y495000D02*
D03*
X573470Y559155D02*
D03*
X573129Y589129D02*
D03*
X568000Y589000D02*
D03*
X562757Y588757D02*
D03*
X248000Y285000D02*
D03*
X1492000Y502000D02*
D03*
X1227000Y251000D02*
D03*
X788231Y595955D02*
D03*
X1151392Y252392D02*
D03*
X1077000Y255000D02*
D03*
X1001000Y213000D02*
D03*
X926000D02*
D03*
X839000Y601000D02*
D03*
X827000Y596000D02*
D03*
X757368Y573632D02*
D03*
X608000Y533000D02*
D03*
X1227000Y526000D02*
D03*
X164311Y526153D02*
D03*
X1068000Y561000D02*
D03*
X909000Y596000D02*
D03*
X1036401Y595914D02*
D03*
X1150000Y496000D02*
D03*
X1300000Y501000D02*
D03*
X1226000Y499000D02*
D03*
X1361000Y504000D02*
D03*
X1151055Y525959D02*
D03*
X1363055Y536959D02*
D03*
X1302000Y532000D02*
D03*
X1106038Y595978D02*
D03*
X1512000Y408000D02*
D03*
X1118978Y606022D02*
D03*
X605000Y535000D02*
D03*
X521773Y523041D02*
D03*
X363000Y193000D02*
D03*
X381000Y523000D02*
D03*
X342000Y173000D02*
D03*
X335744Y523041D02*
D03*
X303001D02*
D03*
X248000Y528000D02*
D03*
X190000Y535000D02*
D03*
D24*
X455000Y575000D02*
D03*
X1149347Y616000D02*
D03*
X424000Y540000D02*
D03*
X58274Y561611D02*
D03*
X499000Y620000D02*
D03*
X1084000Y612000D02*
D03*
X1016000D02*
D03*
X946000D02*
D03*
X875000D02*
D03*
X805000D02*
D03*
X525000Y593000D02*
D03*
X748540Y591884D02*
D03*
X711000Y540000D02*
D03*
X635512Y540024D02*
D03*
X565000Y540000D02*
D03*
X487000D02*
D03*
X270188Y539827D02*
D03*
X200867Y539867D02*
D03*
D25*
X299000Y606000D02*
D03*
X320000Y584000D02*
D03*
X272000Y588000D02*
D03*
D26*
X333000Y596000D02*
D03*
D27*
X694000Y523000D02*
D03*
X481338Y579338D02*
D03*
X485669D02*
D03*
X490000D02*
D03*
X481338Y583669D02*
D03*
X485669D02*
D03*
X490000D02*
D03*
X481338Y588000D02*
D03*
X485669D02*
D03*
X490000D02*
D03*
D28*
X346000Y540000D02*
D03*
M02*
