G04*
G04 #@! TF.GenerationSoftware,Altium Limited,Altium Designer,23.5.1 (21)*
G04*
G04 Layer_Color=32896*
%FSLAX25Y25*%
%MOIN*%
G70*
G04*
G04 #@! TF.SameCoordinates,508BA793-0958-4452-B0AF-20FDD5A17331*
G04*
G04*
G04 #@! TF.FilePolarity,Positive*
G04*
G01*
G75*
%ADD10C,0.00984*%
%ADD11C,0.01000*%
%ADD12C,0.00787*%
%ADD33C,0.01968*%
%ADD88C,0.02362*%
%ADD89C,0.00500*%
D10*
X483273Y548140D02*
G03*
X483273Y548140I-492J0D01*
G01*
X998846Y621054D02*
G03*
X998846Y621054I-492J0D01*
G01*
X1083922Y598731D02*
G03*
X1083922Y598731I-492J0D01*
G01*
X290339Y605429D02*
G03*
X290339Y605429I-492J0D01*
G01*
X544138Y625516D02*
G03*
X544138Y625516I-492J0D01*
G01*
X503090Y597449D02*
G03*
X503090Y597449I-492J0D01*
G01*
X513641Y564149D02*
G03*
X513641Y564149I-492J0D01*
G01*
X58906Y535087D02*
G03*
X58906Y535087I-492J0D01*
G01*
X205602Y525817D02*
G03*
X205602Y525817I-492J0D01*
G01*
X1092212Y608180D02*
G03*
X1092212Y608180I-492J0D01*
G01*
X1153636Y598731D02*
G03*
X1153636Y598731I-492J0D01*
G01*
X1139275Y621054D02*
G03*
X1139275Y621054I-492J0D01*
G01*
X1022498Y608180D02*
G03*
X1022498Y608180I-492J0D01*
G01*
X1069560Y621054D02*
G03*
X1069560Y621054I-492J0D01*
G01*
X951783Y608180D02*
G03*
X951783Y608180I-492J0D01*
G01*
X1013207Y598731D02*
G03*
X1013207Y598731I-492J0D01*
G01*
X883069Y608180D02*
G03*
X883069Y608180I-492J0D01*
G01*
X945270Y598731D02*
G03*
X945270Y598731I-492J0D01*
G01*
X930391Y621054D02*
G03*
X930391Y621054I-492J0D01*
G01*
X813354Y608180D02*
G03*
X813354Y608180I-492J0D01*
G01*
X874778Y598731D02*
G03*
X874778Y598731I-492J0D01*
G01*
X860417Y621054D02*
G03*
X860417Y621054I-492J0D01*
G01*
X741640Y608180D02*
G03*
X741640Y608180I-492J0D01*
G01*
X803064Y598731D02*
G03*
X803064Y598731I-492J0D01*
G01*
X788702Y621054D02*
G03*
X788702Y621054I-492J0D01*
G01*
X708778Y525817D02*
G03*
X708778Y525817I-492J0D01*
G01*
X694416Y548140D02*
G03*
X694416Y548140I-492J0D01*
G01*
X647354Y535266D02*
G03*
X647354Y535266I-492J0D01*
G01*
X640063Y525817D02*
G03*
X640063Y525817I-492J0D01*
G01*
X578639Y535266D02*
G03*
X578639Y535266I-492J0D01*
G01*
X625702Y548140D02*
G03*
X625702Y548140I-492J0D01*
G01*
X569349Y525817D02*
G03*
X569349Y525817I-492J0D01*
G01*
X507925Y535266D02*
G03*
X507925Y535266I-492J0D01*
G01*
X554987Y548140D02*
G03*
X554987Y548140I-492J0D01*
G01*
X497634Y525817D02*
G03*
X497634Y525817I-492J0D01*
G01*
X436210Y535266D02*
G03*
X436210Y535266I-492J0D01*
G01*
X367181D02*
G03*
X367181Y535266I-492J0D01*
G01*
X428605Y525817D02*
G03*
X428605Y525817I-492J0D01*
G01*
X414244Y548140D02*
G03*
X414244Y548140I-492J0D01*
G01*
X350576Y525817D02*
G03*
X350576Y525817I-492J0D01*
G01*
X289153Y535266D02*
G03*
X289153Y535266I-492J0D01*
G01*
X336215Y548140D02*
G03*
X336215Y548140I-492J0D01*
G01*
X274548Y525817D02*
G03*
X274548Y525817I-492J0D01*
G01*
X209529Y535266D02*
G03*
X209529Y535266I-492J0D01*
G01*
X260187Y548140D02*
G03*
X260187Y548140I-492J0D01*
G01*
X139095Y535266D02*
G03*
X139095Y535266I-492J0D01*
G01*
X186093Y548348D02*
G03*
X186093Y548348I-492J0D01*
G01*
D11*
X218050Y585350D02*
X212052D01*
Y582351D01*
X213052Y581352D01*
X215051D01*
X216051Y582351D01*
Y585350D01*
X218050Y579352D02*
Y577353D01*
Y578353D01*
X212052D01*
X213052Y579352D01*
D12*
X470559Y511053D02*
Y550029D01*
X462301Y511053D02*
X470559D01*
X462301D02*
Y550029D01*
X470559D01*
X491461Y608933D02*
Y613067D01*
X486539Y608933D02*
Y613067D01*
X460114Y603456D02*
X467225D01*
X460114Y597132D02*
X467225D01*
X467114Y615456D02*
X474225D01*
X467114Y609132D02*
X474225D01*
X1495089Y591483D02*
X1500061D01*
X1495089Y586512D02*
X1500061D01*
X1515819Y586516D02*
X1520791D01*
X1515819Y591487D02*
X1520791D01*
X977874Y622943D02*
X986132D01*
X977874Y583967D02*
Y622943D01*
Y583967D02*
X986132D01*
Y622943D01*
X375933Y547539D02*
X380067D01*
X375933Y552461D02*
X380067D01*
X221512Y569142D02*
X260488D01*
Y586858D01*
X221512Y569142D02*
Y586858D01*
X260488D01*
X285811Y594701D02*
X286598D01*
X293291D02*
X295654D01*
X302346D02*
X304709D01*
X311402D02*
X312189D01*
Y580134D02*
Y594701D01*
X285811Y580134D02*
X291126D01*
X306874D02*
X312189D01*
X285811D02*
Y594701D01*
X315429Y588492D02*
Y601508D01*
X324705Y588492D02*
Y601508D01*
X274819Y595000D02*
X277181D01*
X482541Y561027D02*
Y565162D01*
X487462Y561027D02*
Y565162D01*
X461602Y608755D02*
X465736D01*
X461602Y603833D02*
X465736D01*
X504209Y591442D02*
X508343D01*
X504209Y596363D02*
X508343D01*
X504933Y583461D02*
X509067D01*
X504933Y578539D02*
X509067D01*
X538724Y604039D02*
Y625299D01*
X520614Y604039D02*
Y625299D01*
X538724D01*
X520614Y604039D02*
X538724D01*
X462269Y597699D02*
X466403D01*
X462269Y592778D02*
X466403D01*
X462933Y581461D02*
X467067D01*
X462933Y576539D02*
X467067D01*
X476712Y561027D02*
Y565161D01*
X481633Y561027D02*
Y565161D01*
X490539Y617933D02*
Y622067D01*
X495461Y617933D02*
Y622067D01*
X489461Y617933D02*
Y622067D01*
X484539Y617933D02*
Y622067D01*
X505539Y621933D02*
Y626067D01*
X510461Y621933D02*
Y626067D01*
X468027Y620755D02*
X472161D01*
X468027Y615834D02*
X472161D01*
X497874Y569299D02*
X500039D01*
Y571464D01*
X471299Y569299D02*
X473464D01*
X471299D02*
Y571464D01*
Y595874D02*
Y598039D01*
X473464D01*
X497874D02*
X500039D01*
Y595874D02*
Y598039D01*
X504867Y550439D02*
X513775Y559347D01*
X494706Y560600D02*
X503614Y569508D01*
X891539Y621508D02*
Y625642D01*
X896461Y621508D02*
Y625642D01*
X95539Y535358D02*
Y539492D01*
X100461Y535358D02*
Y539492D01*
X51031Y534102D02*
X54969D01*
X51031Y521898D02*
X54969D01*
Y534102D01*
X51031Y521898D02*
Y534102D01*
X296933Y552461D02*
X301067D01*
X296933Y547539D02*
X301067D01*
X63539Y527508D02*
Y531642D01*
X68461Y527508D02*
Y531642D01*
X46911Y536062D02*
X51045D01*
X46911Y540984D02*
X51045D01*
X1118303Y622943D02*
X1126561D01*
X1118303Y583967D02*
Y622943D01*
Y583967D02*
X1126561D01*
Y622943D01*
X1104461Y621358D02*
Y625492D01*
X1099539Y621358D02*
Y625492D01*
X1048589Y622943D02*
X1056846D01*
X1048589Y583967D02*
Y622943D01*
Y583967D02*
X1056846D01*
Y622943D01*
X1035461Y621358D02*
Y625492D01*
X1030539Y621358D02*
Y625492D01*
X965461Y621933D02*
Y626067D01*
X960539Y621933D02*
Y626067D01*
X909420Y622943D02*
X917677D01*
X909420Y583967D02*
Y622943D01*
Y583967D02*
X917677D01*
Y622943D01*
X826461Y621508D02*
Y625642D01*
X821539Y621508D02*
Y625642D01*
X839445Y622943D02*
X847703D01*
X839445Y583967D02*
Y622943D01*
Y583967D02*
X847703D01*
Y622943D01*
X755461Y621933D02*
Y626067D01*
X750539Y621933D02*
Y626067D01*
X767731Y622943D02*
X775988D01*
X767731Y583967D02*
Y622943D01*
Y583967D02*
X775988D01*
Y622943D01*
X655933Y551461D02*
X660067D01*
X655933Y546539D02*
X660067D01*
X673445Y550029D02*
X681702D01*
X673445Y511053D02*
Y550029D01*
Y511053D02*
X681702D01*
Y550029D01*
X604730D02*
X612988D01*
X604730Y511053D02*
Y550029D01*
Y511053D02*
X612988D01*
Y550029D01*
X586933Y552461D02*
X591067D01*
X586933Y547539D02*
X591067D01*
X534016Y550029D02*
X542273D01*
X534016Y511053D02*
Y550029D01*
Y511053D02*
X542273D01*
Y550029D01*
X516933Y552461D02*
X521067D01*
X516933Y547539D02*
X521067D01*
X444933Y552461D02*
X449067D01*
X444933Y547539D02*
X449067D01*
X393273Y550029D02*
X401530D01*
X393273Y511053D02*
Y550029D01*
Y511053D02*
X401530D01*
Y550029D01*
X315244D02*
X323501D01*
X315244Y511053D02*
Y550029D01*
Y511053D02*
X323501D01*
Y550029D01*
X239215D02*
X247472D01*
X239215Y511053D02*
Y550029D01*
Y511053D02*
X247472D01*
Y550029D01*
X220933Y552461D02*
X225067D01*
X220933Y547539D02*
X225067D01*
X146933Y552461D02*
X151067D01*
X146933Y547539D02*
X151067D01*
X165121Y550238D02*
X173379D01*
X165121Y511262D02*
Y550238D01*
Y511262D02*
X173379D01*
Y550238D01*
D33*
X468590Y547077D02*
G03*
X468590Y547077I-984J0D01*
G01*
X984163Y619991D02*
G03*
X984163Y619991I-984J0D01*
G01*
X1124592D02*
G03*
X1124592Y619991I-984J0D01*
G01*
X1054878D02*
G03*
X1054878Y619991I-984J0D01*
G01*
X915709D02*
G03*
X915709Y619991I-984J0D01*
G01*
X845734D02*
G03*
X845734Y619991I-984J0D01*
G01*
X774020D02*
G03*
X774020Y619991I-984J0D01*
G01*
X679734Y547077D02*
G03*
X679734Y547077I-984J0D01*
G01*
X611019D02*
G03*
X611019Y547077I-984J0D01*
G01*
X540305D02*
G03*
X540305Y547077I-984J0D01*
G01*
X399561D02*
G03*
X399561Y547077I-984J0D01*
G01*
X321533D02*
G03*
X321533Y547077I-984J0D01*
G01*
X245504D02*
G03*
X245504Y547077I-984J0D01*
G01*
X171410Y547285D02*
G03*
X171410Y547285I-984J0D01*
G01*
D88*
X535968Y621362D02*
G03*
X535968Y621362I-1181J0D01*
G01*
D89*
X1529132Y443720D02*
X1533742D01*
X1535321Y445299D01*
Y449441D01*
X1535321Y449441D02*
X1535321Y449441D01*
X1428758Y118780D02*
X1433368D01*
X1427179Y117201D02*
X1428758Y118780D01*
X1427179Y113059D02*
Y117201D01*
Y113059D02*
X1427179Y113059D01*
X1503758Y43780D02*
X1508368D01*
X1502179Y42201D02*
X1503758Y43780D01*
X1502179Y38059D02*
Y42201D01*
Y38059D02*
X1502179Y38059D01*
X1428758Y43780D02*
X1433368D01*
X1427179Y42201D02*
X1428758Y43780D01*
X1427179Y38059D02*
Y42201D01*
Y38059D02*
X1427179Y38059D01*
X1353758Y43780D02*
X1358368D01*
X1352179Y42201D02*
X1353758Y43780D01*
X1352179Y38059D02*
Y42201D01*
Y38059D02*
X1352179Y38059D01*
X1260008Y62529D02*
X1264618D01*
X1258429Y60951D02*
X1260008Y62529D01*
X1258429Y56809D02*
Y60951D01*
Y56809D02*
X1258429Y56809D01*
X1185008Y62529D02*
X1189618D01*
X1183429Y60951D02*
X1185008Y62529D01*
X1183429Y56809D02*
Y60951D01*
Y56809D02*
X1183429Y56809D01*
X1110008Y62529D02*
X1114618D01*
X1108429Y60951D02*
X1110008Y62529D01*
X1108429Y56809D02*
Y60951D01*
Y56809D02*
X1108429Y56809D01*
X838133Y62529D02*
X842743D01*
X836554Y60951D02*
X838133Y62529D01*
X836554Y56809D02*
Y60951D01*
Y56809D02*
X836554Y56809D01*
X556883Y62529D02*
X561493D01*
X555304Y60951D02*
X556883Y62529D01*
X555304Y56809D02*
Y60951D01*
Y56809D02*
X555304Y56809D01*
X463133Y62529D02*
X467743D01*
X461554Y60951D02*
X463133Y62529D01*
X461554Y56809D02*
Y60951D01*
Y56809D02*
X461554Y56809D01*
X369383Y62529D02*
X373993D01*
X367804Y60951D02*
X369383Y62529D01*
X367804Y56809D02*
Y60951D01*
Y56809D02*
X367804Y56809D01*
X191008Y62529D02*
X195618D01*
X189429Y60951D02*
X191008Y62529D01*
X189429Y56809D02*
Y60951D01*
Y56809D02*
X189429Y56809D01*
X78758Y62529D02*
X83368D01*
X77179Y60951D02*
X78758Y62529D01*
X77179Y56809D02*
Y60951D01*
Y56809D02*
X77179Y56809D01*
X66632Y124970D02*
X71242D01*
X72821Y126549D01*
Y130691D01*
X72821Y130691D02*
X72821Y130691D01*
X141382Y124970D02*
X145992D01*
X147571Y126549D01*
Y130691D01*
X147571Y130691D02*
X147571Y130691D01*
X216382Y124970D02*
X220992D01*
X222571Y126549D01*
Y130691D01*
X222571Y130691D02*
X222571Y130691D01*
X291382Y87471D02*
X295992D01*
X297571Y89049D01*
Y93191D01*
X297571Y93191D02*
X297571Y93191D01*
X432257Y124970D02*
X436867D01*
X438446Y126549D01*
Y130691D01*
X438446Y130691D02*
X438446Y130691D01*
X554132Y124970D02*
X558742D01*
X560321Y126549D01*
Y130691D01*
X560321Y130691D02*
X560321Y130691D01*
X629132Y124970D02*
X633742D01*
X635321Y126549D01*
Y130691D01*
X635321Y130691D02*
X635321Y130691D01*
X704132Y124970D02*
X708742D01*
X710321Y126549D01*
Y130691D01*
X710321Y130691D02*
X710321Y130691D01*
X779132Y124970D02*
X783742D01*
X785321Y126549D01*
Y130691D01*
X785321Y130691D02*
X785321Y130691D01*
X854132Y124970D02*
X858742D01*
X860321Y126549D01*
Y130691D01*
X860321Y130691D02*
X860321Y130691D01*
X929132Y124970D02*
X933742D01*
X935321Y126549D01*
Y130691D01*
X935321Y130691D02*
X935321Y130691D01*
X1004132Y124970D02*
X1008742D01*
X1010321Y126549D01*
Y130691D01*
X1010321Y130691D02*
X1010321Y130691D01*
X1079132Y124970D02*
X1083742D01*
X1085321Y126549D01*
Y130691D01*
X1085321Y130691D02*
X1085321Y130691D01*
X1154132Y124970D02*
X1158742D01*
X1160321Y126549D01*
Y130691D01*
X1160321Y130691D02*
X1160321Y130691D01*
X1229132Y124970D02*
X1233742D01*
X1235321Y126549D01*
Y130691D01*
X1235321Y130691D02*
X1235321Y130691D01*
X1332257Y124970D02*
X1336867D01*
X1338446Y126549D01*
Y130691D01*
X1338446Y130691D02*
X1338446Y130691D01*
X1503758Y212529D02*
X1508368D01*
X1502179Y210951D02*
X1503758Y212529D01*
X1502179Y206809D02*
Y210951D01*
Y206809D02*
X1502179Y206809D01*
X1363133Y212529D02*
X1367743D01*
X1361554Y210951D02*
X1363133Y212529D01*
X1361554Y206809D02*
Y210951D01*
Y206809D02*
X1361554Y206809D01*
X1241258Y212529D02*
X1245868D01*
X1239679Y210951D02*
X1241258Y212529D01*
X1239679Y206809D02*
Y210951D01*
Y206809D02*
X1239679Y206809D01*
X1166258Y212529D02*
X1170868D01*
X1164679Y210951D02*
X1166258Y212529D01*
X1164679Y206809D02*
Y210951D01*
Y206809D02*
X1164679Y206809D01*
X1091258Y212529D02*
X1095868D01*
X1089679Y210951D02*
X1091258Y212529D01*
X1089679Y206809D02*
Y210951D01*
Y206809D02*
X1089679Y206809D01*
X1016258Y212529D02*
X1020868D01*
X1014679Y210951D02*
X1016258Y212529D01*
X1014679Y206809D02*
Y210951D01*
Y206809D02*
X1014679Y206809D01*
X941258Y212529D02*
X945868D01*
X939679Y210951D02*
X941258Y212529D01*
X939679Y206809D02*
Y210951D01*
Y206809D02*
X939679Y206809D01*
X866258Y212529D02*
X870868D01*
X864679Y210951D02*
X866258Y212529D01*
X864679Y206809D02*
Y210951D01*
Y206809D02*
X864679Y206809D01*
X791258Y212529D02*
X795868D01*
X789679Y210951D02*
X791258Y212529D01*
X789679Y206809D02*
Y210951D01*
Y206809D02*
X789679Y206809D01*
X716258Y212529D02*
X720868D01*
X714679Y210951D02*
X716258Y212529D01*
X714679Y206809D02*
Y210951D01*
Y206809D02*
X714679Y206809D01*
X641258Y212529D02*
X645868D01*
X639679Y210951D02*
X641258Y212529D01*
X639679Y206809D02*
Y210951D01*
Y206809D02*
X639679Y206809D01*
X566258Y212529D02*
X570868D01*
X564679Y210951D02*
X566258Y212529D01*
X564679Y206809D02*
Y210951D01*
Y206809D02*
X564679Y206809D01*
X491258Y212529D02*
X495868D01*
X489679Y210951D02*
X491258Y212529D01*
X489679Y206809D02*
Y210951D01*
Y206809D02*
X489679Y206809D01*
X388133Y212529D02*
X392743D01*
X386554Y210951D02*
X388133Y212529D01*
X386554Y206809D02*
Y210951D01*
Y206809D02*
X386554Y206809D01*
X191008Y212529D02*
X195618D01*
X189429Y210951D02*
X191008Y212529D01*
X189429Y206809D02*
Y210951D01*
Y206809D02*
X189429Y206809D01*
X116008Y212549D02*
X120618D01*
X114429Y210970D02*
X116008Y212549D01*
X114429Y206829D02*
Y210970D01*
Y206829D02*
X114429Y206829D01*
X41258Y212529D02*
X45868D01*
X39679Y210951D02*
X41258Y212529D01*
X39679Y206809D02*
Y210951D01*
Y206809D02*
X39679Y206809D01*
X66382Y274971D02*
X70992D01*
X72571Y276549D01*
Y280691D01*
X72571Y280691D02*
X72571Y280691D01*
X141382Y274971D02*
X145992D01*
X147571Y276549D01*
Y280691D01*
X147571Y280691D02*
X147571Y280691D01*
X216382Y274971D02*
X220992D01*
X222571Y276549D01*
Y280691D01*
X222571Y280691D02*
X222571Y280691D01*
X291382Y237471D02*
X295992D01*
X297571Y239049D01*
Y243191D01*
X297571Y243191D02*
X297571Y243191D01*
X404132Y274971D02*
X408742D01*
X410321Y276549D01*
Y280691D01*
X410321Y280691D02*
X410321Y280691D01*
X497882Y274971D02*
X502492D01*
X504071Y276549D01*
Y280691D01*
X504071Y280691D02*
X504071Y280691D01*
X572882Y274971D02*
X577492D01*
X579071Y276549D01*
Y280691D01*
X579071Y280691D02*
X579071Y280691D01*
X647882Y274971D02*
X652492D01*
X654071Y276549D01*
Y280691D01*
X654071Y280691D02*
X654071Y280691D01*
X722882Y274971D02*
X727492D01*
X729071Y276549D01*
Y280691D01*
X729071Y280691D02*
X729071Y280691D01*
X797882Y274971D02*
X802492D01*
X804071Y276549D01*
Y280691D01*
X804071Y280691D02*
X804071Y280691D01*
X872882Y274971D02*
X877492D01*
X879071Y276549D01*
Y280691D01*
X879071Y280691D02*
X879071Y280691D01*
X947882Y274971D02*
X952492D01*
X954071Y276549D01*
Y280691D01*
X954071Y280691D02*
X954071Y280691D01*
X1022882Y274971D02*
X1027492D01*
X1029071Y276549D01*
Y280691D01*
X1029071Y280691D02*
X1029071Y280691D01*
X1097882Y274971D02*
X1102492D01*
X1104071Y276549D01*
Y280691D01*
X1104071Y280691D02*
X1104071Y280691D01*
X1172882Y274971D02*
X1177492D01*
X1179071Y276549D01*
Y280691D01*
X1179071Y280691D02*
X1179071Y280691D01*
X1247882Y274971D02*
X1252492D01*
X1254071Y276549D01*
Y280691D01*
X1254071Y280691D02*
X1254071Y280691D01*
X1322882Y274971D02*
X1327492D01*
X1329071Y276549D01*
Y280691D01*
X1329071Y280691D02*
X1329071Y280691D01*
X1416632Y274971D02*
X1421242D01*
X1422821Y276549D01*
Y280691D01*
X1422821Y280691D02*
X1422821Y280691D01*
X1529132Y274971D02*
X1533742D01*
X1535321Y276549D01*
Y280691D01*
X1535321Y280691D02*
X1535321Y280691D01*
X1503758Y362529D02*
X1508368D01*
X1502179Y360951D02*
X1503758Y362529D01*
X1502179Y356809D02*
Y360951D01*
Y356809D02*
X1502179Y356809D01*
X1372508Y362529D02*
X1377118D01*
X1370929Y360951D02*
X1372508Y362529D01*
X1370929Y356809D02*
Y360951D01*
Y356809D02*
X1370929Y356809D01*
X1260008Y362529D02*
X1264618D01*
X1258429Y360951D02*
X1260008Y362529D01*
X1258429Y356809D02*
Y360951D01*
Y356809D02*
X1258429Y356809D01*
X1185008Y362529D02*
X1189618D01*
X1183429Y360951D02*
X1185008Y362529D01*
X1183429Y356809D02*
Y360951D01*
Y356809D02*
X1183429Y356809D01*
X1110008Y362529D02*
X1114618D01*
X1108429Y360951D02*
X1110008Y362529D01*
X1108429Y356809D02*
Y360951D01*
Y356809D02*
X1108429Y356809D01*
X1035008Y362529D02*
X1039618D01*
X1033429Y360951D02*
X1035008Y362529D01*
X1033429Y356809D02*
Y360951D01*
Y356809D02*
X1033429Y356809D01*
X960008Y362529D02*
X964618D01*
X958429Y360951D02*
X960008Y362529D01*
X958429Y356809D02*
Y360951D01*
Y356809D02*
X958429Y356809D01*
X885008Y362529D02*
X889618D01*
X883429Y360951D02*
X885008Y362529D01*
X883429Y356809D02*
Y360951D01*
Y356809D02*
X883429Y356809D01*
X810008Y362529D02*
X814618D01*
X808429Y360951D02*
X810008Y362529D01*
X808429Y356809D02*
Y360951D01*
Y356809D02*
X808429Y356809D01*
X735008Y362529D02*
X739618D01*
X733429Y360951D02*
X735008Y362529D01*
X733429Y356809D02*
Y360951D01*
Y356809D02*
X733429Y356809D01*
X660008Y362529D02*
X664618D01*
X658429Y360951D02*
X660008Y362529D01*
X658429Y356809D02*
Y360951D01*
Y356809D02*
X658429Y356809D01*
X585008Y362529D02*
X589618D01*
X583429Y360951D02*
X585008Y362529D01*
X583429Y356809D02*
Y360951D01*
Y356809D02*
X583429Y356809D01*
X510008Y362529D02*
X514618D01*
X508429Y360951D02*
X510008Y362529D01*
X508429Y356809D02*
Y360951D01*
Y356809D02*
X508429Y356809D01*
X435008Y362529D02*
X439618D01*
X433429Y360951D02*
X435008Y362529D01*
X433429Y356809D02*
Y360951D01*
Y356809D02*
X433429Y356809D01*
X360008Y362529D02*
X364618D01*
X358429Y360951D02*
X360008Y362529D01*
X358429Y356809D02*
Y360951D01*
Y356809D02*
X358429Y356809D01*
X266008Y362529D02*
X270618D01*
X264429Y360951D02*
X266008Y362529D01*
X264429Y356809D02*
Y360951D01*
Y356809D02*
X264429Y356809D01*
X191008Y362529D02*
X195618D01*
X189429Y360951D02*
X191008Y362529D01*
X189429Y356809D02*
Y360951D01*
Y356809D02*
X189429Y356809D01*
X116008Y362529D02*
X120618D01*
X114429Y360951D02*
X116008Y362529D01*
X114429Y356809D02*
Y360951D01*
Y356809D02*
X114429Y356809D01*
X41008Y362529D02*
X45618D01*
X39429Y360951D02*
X41008Y362529D01*
X39429Y356809D02*
Y360951D01*
Y356809D02*
X39429Y356809D01*
X66382Y443720D02*
X70992D01*
X72571Y445299D01*
Y449441D01*
X72571Y449441D02*
X72571Y449441D01*
X141382Y443720D02*
X145992D01*
X147571Y445299D01*
Y449441D01*
X147571Y449441D02*
X147571Y449441D01*
X216382Y443720D02*
X220992D01*
X222571Y445299D01*
Y449441D01*
X222571Y449441D02*
X222571Y449441D01*
X291382Y443720D02*
X295992D01*
X297571Y445299D01*
Y449441D01*
X297571Y449441D02*
X297571Y449441D01*
X385382Y443720D02*
X389992D01*
X391571Y445299D01*
Y449441D01*
X391571Y449441D02*
X391571Y449441D01*
X479132Y443720D02*
X483742D01*
X485321Y445299D01*
Y449441D01*
X485321Y449441D02*
X485321Y449441D01*
X554132Y443720D02*
X558742D01*
X560321Y445299D01*
Y449441D01*
X560321Y449441D02*
X560321Y449441D01*
X629132Y443720D02*
X633742D01*
X635321Y445299D01*
Y449441D01*
X635321Y449441D02*
X635321Y449441D01*
X704132Y443720D02*
X708742D01*
X710321Y445299D01*
Y449441D01*
X710321Y449441D02*
X710321Y449441D01*
X797882Y443720D02*
X802492D01*
X804071Y445299D01*
Y449441D01*
X804071Y449441D02*
X804071Y449441D01*
X872882Y443720D02*
X877492D01*
X879071Y445299D01*
Y449441D01*
X879071Y449441D02*
X879071Y449441D01*
X947882Y443720D02*
X952492D01*
X954071Y445299D01*
Y449441D01*
X954071Y449441D02*
X954071Y449441D01*
X1022882Y443720D02*
X1027492D01*
X1029071Y445299D01*
Y449441D01*
X1029071Y449441D02*
X1029071Y449441D01*
X1116632Y443720D02*
X1121242D01*
X1122821Y445299D01*
Y449441D01*
X1122821Y449441D02*
X1122821Y449441D01*
X1191632Y443720D02*
X1196242D01*
X1197821Y445299D01*
Y449441D01*
X1197821Y449441D02*
X1197821Y449441D01*
X1266632Y443720D02*
X1271242D01*
X1272821Y445299D01*
Y449441D01*
X1272821Y449441D02*
X1272821Y449441D01*
X1341632Y443720D02*
X1346242D01*
X1347821Y445299D01*
Y449441D01*
X1347821Y449441D02*
X1347821Y449441D01*
X1435382Y443720D02*
X1439992D01*
X1441571Y445299D01*
Y449441D01*
X1441571Y449441D02*
X1441571Y449441D01*
X1410008Y531280D02*
X1414618D01*
X1408429Y529701D02*
X1410008Y531280D01*
X1408429Y525559D02*
Y529701D01*
Y525559D02*
X1408429Y525559D01*
X1316258Y531280D02*
X1320868D01*
X1314679Y529701D02*
X1316258Y531280D01*
X1314679Y525559D02*
Y529701D01*
Y525559D02*
X1314679Y525559D01*
X1241258Y531280D02*
X1245868D01*
X1239679Y529701D02*
X1241258Y531280D01*
X1239679Y525559D02*
Y529701D01*
Y525559D02*
X1239679Y525559D01*
X1166258Y531280D02*
X1170868D01*
X1164679Y529701D02*
X1166258Y531280D01*
X1164679Y525559D02*
Y529701D01*
Y525559D02*
X1164679Y525559D01*
X1091258Y531280D02*
X1095868D01*
X1089679Y529701D02*
X1091258Y531280D01*
X1089679Y525559D02*
Y529701D01*
Y525559D02*
X1089679Y525559D01*
X997508Y531280D02*
X1002118D01*
X995929Y529701D02*
X997508Y531280D01*
X995929Y525559D02*
Y529701D01*
Y525559D02*
X995929Y525559D01*
X922508Y531280D02*
X927118D01*
X920929Y529701D02*
X922508Y531280D01*
X920929Y525559D02*
Y529701D01*
Y525559D02*
X920929Y525559D01*
X847508Y531280D02*
X852118D01*
X845929Y529701D02*
X847508Y531280D01*
X845929Y525559D02*
Y529701D01*
Y525559D02*
X845929Y525559D01*
X772508Y531280D02*
X777118D01*
X770929Y529701D02*
X772508Y531280D01*
X770929Y525559D02*
Y529701D01*
Y525559D02*
X770929Y525559D01*
M02*
