M48
; DRILL file {KiCad 8.0.4} date 2024-10-18T15:11:07-0500
; FORMAT={-:-/ absolute / inch / decimal}
; #@! TF.CreationDate,2024-10-18T15:11:07-05:00
; #@! TF.GenerationSoftware,Kicad,Pcbnew,8.0.4
; #@! TF.FileFunction,Plated,1,4,PTH
FMAT,2
INCH
; #@! TA.AperFunction,Plated,PTH,ViaDrill
T1C0.0118
; #@! TA.AperFunction,Plated,PTH,ComponentDrill
T2C0.0295
; #@! TA.AperFunction,Plated,PTH,ComponentDrill
T3C0.0315
; #@! TA.AperFunction,Plated,PTH,ComponentDrill
T4C0.0394
; #@! TA.AperFunction,Plated,PTH,ComponentDrill
T5C0.0433
; #@! TA.AperFunction,Plated,PTH,ComponentDrill
T6C0.0571
; #@! TA.AperFunction,Plated,PTH,ComponentDrill
T7C0.0787
; #@! TA.AperFunction,Plated,PTH,ComponentDrill
T8C0.0866
%
G90
G05
T1
X3.7343Y-3.9114
X3.7441Y-2.0118
X3.7538Y-2.9746
X3.7638Y-3.5551
X3.7736Y-3.9114
X3.7815Y-3.2953
X3.813Y-3.9114
X3.8386Y-2.937
X3.8701Y-5.4252
X3.9016Y-1.8819
X3.9016Y-3.1352
X3.9961Y-2.1693
X4.0Y-4.5472
X4.0157Y-3.8937
X4.0394Y-2.9843
X4.0433Y-3.0866
X4.0472Y-3.2047
X4.0551Y-2.0512
X4.0886Y-1.8799
X4.0984Y-2.3425
X4.1063Y-3.2717
X4.122Y-1.9843
X4.122Y-3.3661
X4.1437Y-6.2776
X4.1811Y-1.874
X4.1969Y-1.7953
X4.1969Y-2.3189
X4.2362Y-3.9094
X4.2362Y-4.6614
X4.252Y-2.0118
X4.2559Y-3.0843
X4.2717Y-3.0352
X4.2835Y-3.1352
X4.2992Y-1.8307
X4.3071Y-5.4882
X4.3937Y-5.5276
X4.3976Y-1.874
X4.4016Y-1.8228
X4.4213Y-4.7165
X4.4567Y-4.0079
X4.4665Y-1.7787
X4.5Y-2.9057
X4.5279Y-3.0843
X4.5846Y-3.2362
X4.624Y-3.2362
X4.626Y-1.9646
X4.6594Y-2.0965
X4.6594Y-2.1358
X4.6594Y-2.1752
X4.6634Y-3.2362
X4.685Y-6.2362
X4.7126Y-5.2146
X4.752Y-5.2146
X4.7705Y-2.3661
X4.7874Y-2.1496
X4.7913Y-5.2146
X4.7953Y-3.1352
X4.7953Y-3.1852
X4.8031Y-3.0852
X4.8386Y-2.3661
X4.8789Y-2.2228
X4.9055Y-2.0276
X4.937Y-2.9852
X4.9528Y-2.1496
X4.9721Y-2.3701
X4.9868Y-5.4148
X4.9882Y-3.9134
X4.9882Y-4.6575
X5.0157Y-3.2852
X5.0354Y-2.2228
X5.0413Y-2.4567
X5.0945Y-3.4409
X5.1102Y-2.0472
X5.1339Y-6.2638
X5.1457Y-3.1852
X5.1496Y-2.0472
X5.1614Y-3.0352
X5.1772Y-3.1352
X5.189Y-2.0472
X5.2264Y-3.2697
X5.2323Y-2.0551
X5.2657Y-3.2697
X5.2677Y-2.0551
X5.2689Y-4.7768
X5.296Y-6.6962
X5.3051Y-3.2697
X5.3346Y-3.9606
X5.3661Y-2.3858
X5.374Y-2.1496
X5.378Y-2.9242
X5.378Y-3.0843
X5.4055Y-2.1811
X5.4055Y-2.311
X5.4291Y-2.1102
X5.4449Y-2.3937
X5.4449Y-2.5197
X5.4449Y-5.3465
X5.4649Y-2.311
X5.4685Y-2.0039
X5.4724Y-3.248
X5.4843Y-2.5787
X5.5378Y-3.2819
X5.563Y-3.1813
X5.5669Y-2.0945
X5.5669Y-2.6811
X5.5669Y-3.1313
X5.6102Y-2.6063
X5.6102Y-2.6772
X5.6181Y-2.311
X5.6181Y-2.3583
X5.6181Y-2.4055
X5.6654Y-2.311
X5.6654Y-2.4055
X5.6693Y-2.6417
X5.6811Y-3.122
X5.685Y-1.9803
X5.685Y-2.9803
X5.6969Y-3.0591
X5.7047Y-2.063
X5.7087Y-2.311
X5.7087Y-2.3583
X5.7087Y-2.4055
X5.7273Y-2.53
X5.7362Y-4.0591
X5.7362Y-4.6654
X5.7368Y-5.41
X5.7421Y-1.9862
X5.7559Y-2.8189
X5.7598Y-3.2638
X5.7835Y-1.9409
X5.8031Y-2.0
X5.811Y-6.2362
X5.8268Y-2.6063
X5.8367Y-2.4688
X5.8407Y-2.2848
X5.8632Y-2.4517
X5.8646Y-2.3104
X5.8661Y-5.8622
X5.872Y-2.2303
X5.878Y-2.5512
X5.878Y-2.7795
X5.8819Y-3.102
X5.8826Y-2.4035
X5.8869Y-2.5109
X5.8937Y-4.3976
X5.8996Y-2.3386
X5.9075Y-3.4902
X5.9075Y-3.9744
X5.9211Y-2.3951
X5.9272Y-2.3642
X5.9331Y-2.2244
X5.9409Y-3.937
X5.9843Y-2.9528
X6.0Y-1.8661
X6.0Y-2.185
X6.0276Y-3.7598
X6.0276Y-3.8819
X6.041Y-3.9472
X6.0472Y-1.9567
X6.0512Y-2.8465
X6.0512Y-2.9252
X6.0551Y-4.0236
X6.063Y-2.2087
X6.0709Y-4.2402
X6.0787Y-4.1417
X6.0809Y-3.7008
X6.0809Y-3.8772
X6.0866Y-1.9567
X6.126Y-1.9567
X6.1275Y-4.1668
X6.1299Y-2.0553
X6.1299Y-6.7913
X6.1324Y-3.962
X6.1339Y-5.2126
X6.1732Y-3.7886
X6.1732Y-3.8772
X6.1732Y-5.2126
X6.189Y-3.2205
X6.2126Y-3.937
X6.2126Y-5.2126
X6.2244Y-2.3465
X6.2283Y-2.2835
X6.2544Y-4.0591
X6.2657Y-3.8563
X6.2677Y-3.6772
X6.2953Y-3.626
X6.3071Y-3.937
X6.3504Y-2.8425
X6.3642Y-3.8622
X6.3898Y-2.8425
X6.3937Y-4.0591
X6.3937Y-4.122
X6.4016Y-3.937
X6.4035Y-3.9744
X6.4144Y-4.0335
X6.4232Y-3.3012
X6.4291Y-2.8425
X6.435Y-2.2008
X6.4547Y-3.937
X6.4606Y-3.626
X6.4606Y-3.6654
X6.4606Y-3.7047
X6.4744Y-2.2008
X6.4868Y-5.7848
X6.5079Y-2.3425
X6.5131Y-2.3092
X6.5138Y-2.2008
X6.5591Y-4.3622
X6.626Y-3.9764
T2
X4.2911Y-1.7101
X4.3698Y-1.7101
X4.4486Y-1.7101
X4.6061Y-1.7101
T3
X3.654Y-3.5917
X3.654Y-3.6902
X3.654Y-3.7886
X3.654Y-3.887
X3.654Y-5.1618
X3.654Y-5.2602
X3.654Y-5.3587
X3.654Y-5.4571
X3.7094Y-2.4016
X3.7094Y-2.5
X3.7094Y-2.5984
X3.8078Y-2.4016
X3.8078Y-2.5
X3.8078Y-2.5984
X4.0047Y-2.4016
X4.0047Y-2.5
X4.0047Y-2.5984
X4.1031Y-2.4016
X4.1031Y-2.5
X4.1031Y-2.5984
X4.2719Y-2.4016
X4.2719Y-2.5
X4.2719Y-2.5984
X4.3703Y-2.4016
X4.3703Y-2.5
X4.3703Y-2.5984
X4.5672Y-2.4016
X4.5672Y-2.5
X4.5672Y-2.5984
X4.6656Y-2.4016
X4.6656Y-2.5
X4.6656Y-2.5984
X4.8344Y-2.4016
X4.8344Y-2.5
X4.8344Y-2.5984
X4.9328Y-2.4016
X4.9328Y-2.5
X4.9328Y-2.5984
X5.1297Y-2.4016
X5.1297Y-2.5
X5.1297Y-2.5984
X5.2281Y-2.4016
X5.2281Y-2.5
X5.2281Y-2.5984
X5.3858Y-2.5787
X5.3858Y-2.6575
X6.3228Y-2.0945
X6.4016Y-2.0945
X6.596Y-3.5917
X6.596Y-3.6902
X6.596Y-3.7886
X6.596Y-3.887
X6.596Y-5.1618
X6.596Y-5.2602
X6.596Y-5.3587
X6.596Y-5.4571
T4
X3.6961Y-2.2323
X3.7961Y-2.2323
X3.8961Y-2.2323
X3.9961Y-2.2323
X4.0961Y-2.2323
X4.1961Y-2.2323
X4.2961Y-2.2323
T5
X6.1516Y-2.2047
X6.1516Y-2.7756
X6.25Y-2.2047
X6.3484Y-2.2047
X6.3484Y-2.7756
T6
X4.2006Y-1.7101
X4.6966Y-1.7101
T8
X3.6887Y-6.9378
X4.1063Y-2.7913
X4.75Y-5.9126
X6.5613Y-1.9488
X6.5613Y-6.9378
T7
G00X6.0256Y-2.5157
M15
G01X6.0256Y-2.4843
M16
G05
G00X6.4744Y-2.5157
M15
G01X6.4744Y-2.4843
M16
G05
M30
