M48
; DRILL file {KiCad 8.0.4} date 2024-10-18T15:11:07-0500
; FORMAT={-:-/ absolute / inch / decimal}
; #@! TF.CreationDate,2024-10-18T15:11:07-05:00
; #@! TF.GenerationSoftware,Kicad,Pcbnew,8.0.4
; #@! TF.FileFunction,NonPlated,1,4,NPTH
FMAT,2
INCH
; #@! TA.AperFunction,NonPlated,NPTH,ComponentDrill
T1C0.0472
; #@! TA.AperFunction,NonPlated,NPTH,ComponentDrill
T2C0.0669
; #@! TA.AperFunction,NonPlated,NPTH,ComponentDrill
T3C0.1181
; #@! TA.AperFunction,NonPlated,NPTH,ComponentDrill
T4C0.1201
; #@! TA.AperFunction,NonPlated,NPTH,ComponentDrill
T5C0.1575
%
G90
G05
T1
X5.5512Y-6.7913
X5.8465Y-6.7913
T2
X3.8Y-3.4375
X3.8Y-4.1875
X3.8Y-4.9375
X3.8Y-5.6875
X4.175Y-6.4375
X4.2Y-3.4375
X4.2Y-4.1875
X4.2Y-4.9375
X4.2Y-5.6875
X4.55Y-3.4375
X4.55Y-4.1875
X4.55Y-4.9375
X4.55Y-5.6875
X4.575Y-6.4375
X4.95Y-3.4375
X4.95Y-4.1875
X4.95Y-4.9375
X4.95Y-5.6875
X5.3Y-3.4375
X5.3Y-4.1875
X5.3Y-4.9375
X5.3Y-5.6875
X5.3Y-6.4375
X5.7Y-3.4375
X5.7Y-4.1875
X5.7Y-4.9375
X5.7Y-5.6875
X5.7Y-6.4375
X6.05Y-3.4375
X6.05Y-4.5625
X6.05Y-6.0625
X6.45Y-3.4375
X6.45Y-4.5625
X6.45Y-6.0625
T3
X3.85Y-4.0875
X3.85Y-4.8375
X3.85Y-5.5875
X3.9Y-3.6375
X4.1Y-3.9875
X4.1Y-4.7375
X4.1Y-5.4875
X4.15Y-3.5375
X4.225Y-6.3375
X4.475Y-6.2375
X4.6Y-4.0875
X4.6Y-4.8375
X4.6Y-5.5875
X4.65Y-3.6375
X4.85Y-3.9875
X4.85Y-4.7375
X4.85Y-5.4875
X4.9Y-3.5375
X5.35Y-4.0875
X5.35Y-4.8375
X5.35Y-5.5875
X5.35Y-6.3375
X5.4Y-3.6375
X5.6Y-3.9875
X5.6Y-4.7375
X5.6Y-5.4875
X5.6Y-6.2375
X5.65Y-3.5375
X6.1Y-3.3375
X6.1Y-4.4625
X6.1Y-5.9625
X6.35Y-3.2375
X6.35Y-4.3625
X6.35Y-5.8625
T4
X3.9065Y-6.1619
X4.8435Y-6.1619
X5.9744Y-4.094
X5.9744Y-5.031
X5.9744Y-5.594
X5.9744Y-6.531
T5
X3.9065Y-6.7619
X4.0Y-3.4375
X4.0Y-4.1875
X4.0Y-4.9375
X4.0Y-5.6875
X4.375Y-6.4375
X4.75Y-3.4375
X4.75Y-4.1875
X4.75Y-4.9375
X4.75Y-5.6875
X4.8435Y-6.7619
X5.5Y-3.4375
X5.5Y-4.1875
X5.5Y-4.9375
X5.5Y-5.6875
X5.5Y-6.4375
X6.25Y-3.4375
X6.25Y-4.5625
X6.25Y-6.0625
X6.5744Y-4.094
X6.5744Y-5.031
X6.5744Y-5.594
X6.5744Y-6.531
M30
