%TF.GenerationSoftware,KiCad,Pcbnew,8.0.4*%
%TF.CreationDate,2024-10-31T13:51:07-05:00*%
%TF.ProjectId,numlocked_right_plate,6e756d6c-6f63-46b6-9564-5f7269676874,rev?*%
%TF.SameCoordinates,Original*%
%TF.FileFunction,Profile,NP*%
%FSLAX46Y46*%
G04 Gerber Fmt 4.6, Leading zero omitted, Abs format (unit mm)*
G04 Created by KiCad (PCBNEW 8.0.4) date 2024-10-31 13:51:07*
%MOMM*%
%LPD*%
G01*
G04 APERTURE LIST*
%TA.AperFunction,Profile*%
%ADD10C,0.200000*%
%TD*%
G04 APERTURE END LIST*
D10*
X244194500Y-32150000D02*
X241944500Y-32150000D01*
X244194500Y-29850000D02*
X244194500Y-32150000D01*
X241944500Y-29850000D02*
X244194500Y-29850000D01*
X241944500Y-32150000D02*
X241944500Y-29850000D01*
X62425000Y-41779000D02*
G75*
G02*
X62925000Y-41279000I500000J0D01*
G01*
X62425000Y-54779000D02*
X62425000Y-41779000D01*
X62925000Y-55279000D02*
G75*
G02*
X62425000Y-54779000I0J500000D01*
G01*
X75925000Y-55279000D02*
X62925000Y-55279000D01*
X76425000Y-54779000D02*
G75*
G02*
X75925000Y-55279000I-500000J0D01*
G01*
X76425000Y-41779000D02*
X76425000Y-54779000D01*
X75925000Y-41279000D02*
G75*
G02*
X76425000Y-41779000I0J-500000D01*
G01*
X62925000Y-41279000D02*
X75925000Y-41279000D01*
X81475000Y-41779000D02*
G75*
G02*
X81975000Y-41279000I500000J0D01*
G01*
X81475000Y-54779000D02*
X81475000Y-41779000D01*
X81975000Y-55279000D02*
G75*
G02*
X81475000Y-54779000I0J500000D01*
G01*
X94975000Y-55279000D02*
X81975000Y-55279000D01*
X95475000Y-54779000D02*
G75*
G02*
X94975000Y-55279000I-500000J0D01*
G01*
X95475000Y-41779000D02*
X95475000Y-54779000D01*
X94975000Y-41279000D02*
G75*
G02*
X95475000Y-41779000I0J-500000D01*
G01*
X81975000Y-41279000D02*
X94975000Y-41279000D01*
X100525000Y-41779000D02*
G75*
G02*
X101025000Y-41279000I500000J0D01*
G01*
X100525000Y-54779000D02*
X100525000Y-41779000D01*
X101025000Y-55279000D02*
G75*
G02*
X100525000Y-54779000I0J500000D01*
G01*
X114025000Y-55279000D02*
X101025000Y-55279000D01*
X114525000Y-54779000D02*
G75*
G02*
X114025000Y-55279000I-500000J0D01*
G01*
X114525000Y-41779000D02*
X114525000Y-54779000D01*
X114025000Y-41279000D02*
G75*
G02*
X114525000Y-41779000I0J-500000D01*
G01*
X101025000Y-41279000D02*
X114025000Y-41279000D01*
X119575000Y-41779000D02*
G75*
G02*
X120075000Y-41279000I500000J0D01*
G01*
X119575000Y-54779000D02*
X119575000Y-41779000D01*
X120075000Y-55279000D02*
G75*
G02*
X119575000Y-54779000I0J500000D01*
G01*
X133075000Y-55279000D02*
X120075000Y-55279000D01*
X133575000Y-54779000D02*
G75*
G02*
X133075000Y-55279000I-500000J0D01*
G01*
X133575000Y-41779000D02*
X133575000Y-54779000D01*
X133075000Y-41279000D02*
G75*
G02*
X133575000Y-41779000I0J-500000D01*
G01*
X120075000Y-41279000D02*
X133075000Y-41279000D01*
X143387500Y-41779000D02*
G75*
G02*
X143887500Y-41279000I500000J0D01*
G01*
X143387500Y-54779000D02*
X143387500Y-41779000D01*
X143887500Y-55279000D02*
G75*
G02*
X143387500Y-54779000I0J500000D01*
G01*
X156887500Y-55279000D02*
X143887500Y-55279000D01*
X157387500Y-54779000D02*
G75*
G02*
X156887500Y-55279000I-500000J0D01*
G01*
X157387500Y-41779000D02*
X157387500Y-54779000D01*
X156887500Y-41279000D02*
G75*
G02*
X157387500Y-41779000I0J-500000D01*
G01*
X143887500Y-41279000D02*
X156887500Y-41279000D01*
X162437500Y-41779000D02*
G75*
G02*
X162937500Y-41279000I500000J0D01*
G01*
X162437500Y-54779000D02*
X162437500Y-41779000D01*
X162937500Y-55279000D02*
G75*
G02*
X162437500Y-54779000I0J500000D01*
G01*
X175937500Y-55279000D02*
X162937500Y-55279000D01*
X176437500Y-54779000D02*
G75*
G02*
X175937500Y-55279000I-500000J0D01*
G01*
X176437500Y-41779000D02*
X176437500Y-54779000D01*
X175937500Y-41279000D02*
G75*
G02*
X176437500Y-41779000I0J-500000D01*
G01*
X162937500Y-41279000D02*
X175937500Y-41279000D01*
X181487500Y-41779000D02*
G75*
G02*
X181987500Y-41279000I500000J0D01*
G01*
X181487500Y-54779000D02*
X181487500Y-41779000D01*
X181987500Y-55279000D02*
G75*
G02*
X181487500Y-54779000I0J500000D01*
G01*
X194987500Y-55279000D02*
X181987500Y-55279000D01*
X195487500Y-54779000D02*
G75*
G02*
X194987500Y-55279000I-500000J0D01*
G01*
X195487500Y-41779000D02*
X195487500Y-54779000D01*
X194987500Y-41279000D02*
G75*
G02*
X195487500Y-41779000I0J-500000D01*
G01*
X181987500Y-41279000D02*
X194987500Y-41279000D01*
X200537500Y-41779000D02*
G75*
G02*
X201037500Y-41279000I500000J0D01*
G01*
X200537500Y-54779000D02*
X200537500Y-41779000D01*
X201037500Y-55279000D02*
G75*
G02*
X200537500Y-54779000I0J500000D01*
G01*
X214037500Y-55279000D02*
X201037500Y-55279000D01*
X214537500Y-54779000D02*
G75*
G02*
X214037500Y-55279000I-500000J0D01*
G01*
X214537500Y-41779000D02*
X214537500Y-54779000D01*
X214037500Y-41279000D02*
G75*
G02*
X214537500Y-41779000I0J-500000D01*
G01*
X201037500Y-41279000D02*
X214037500Y-41279000D01*
X224350000Y-41779000D02*
G75*
G02*
X224850000Y-41279000I500000J0D01*
G01*
X224350000Y-54779000D02*
X224350000Y-41779000D01*
X224850000Y-55279000D02*
G75*
G02*
X224350000Y-54779000I0J500000D01*
G01*
X237850000Y-55279000D02*
X224850000Y-55279000D01*
X238350000Y-54779000D02*
G75*
G02*
X237850000Y-55279000I-500000J0D01*
G01*
X238350000Y-41779000D02*
X238350000Y-54779000D01*
X237850000Y-41279000D02*
G75*
G02*
X238350000Y-41779000I0J-500000D01*
G01*
X224850000Y-41279000D02*
X237850000Y-41279000D01*
X248162500Y-41779000D02*
G75*
G02*
X248662500Y-41279000I500000J0D01*
G01*
X248162500Y-54779000D02*
X248162500Y-41779000D01*
X248662500Y-55279000D02*
G75*
G02*
X248162500Y-54779000I0J500000D01*
G01*
X261662500Y-55279000D02*
X248662500Y-55279000D01*
X262162500Y-54779000D02*
G75*
G02*
X261662500Y-55279000I-500000J0D01*
G01*
X262162500Y-41779000D02*
X262162500Y-54779000D01*
X261662500Y-41279000D02*
G75*
G02*
X262162500Y-41779000I0J-500000D01*
G01*
X248662500Y-41279000D02*
X261662500Y-41279000D01*
X71950000Y-65591500D02*
G75*
G02*
X72450000Y-65091500I500000J0D01*
G01*
X71950000Y-78591500D02*
X71950000Y-65591500D01*
X72450000Y-79091500D02*
G75*
G02*
X71950000Y-78591500I0J500000D01*
G01*
X85450000Y-79091500D02*
X72450000Y-79091500D01*
X85950000Y-78591500D02*
G75*
G02*
X85450000Y-79091500I-500000J0D01*
G01*
X85950000Y-65591500D02*
X85950000Y-78591500D01*
X85450000Y-65091500D02*
G75*
G02*
X85950000Y-65591500I0J-500000D01*
G01*
X72450000Y-65091500D02*
X85450000Y-65091500D01*
X91000000Y-65591500D02*
G75*
G02*
X91500000Y-65091500I500000J0D01*
G01*
X91000000Y-78591500D02*
X91000000Y-65591500D01*
X91500000Y-79091500D02*
G75*
G02*
X91000000Y-78591500I0J500000D01*
G01*
X104500000Y-79091500D02*
X91500000Y-79091500D01*
X105000000Y-78591500D02*
G75*
G02*
X104500000Y-79091500I-500000J0D01*
G01*
X105000000Y-65591500D02*
X105000000Y-78591500D01*
X104500000Y-65091500D02*
G75*
G02*
X105000000Y-65591500I0J-500000D01*
G01*
X91500000Y-65091500D02*
X104500000Y-65091500D01*
X110050000Y-65591500D02*
G75*
G02*
X110550000Y-65091500I500000J0D01*
G01*
X110050000Y-78591500D02*
X110050000Y-65591500D01*
X110550000Y-79091500D02*
G75*
G02*
X110050000Y-78591500I0J500000D01*
G01*
X123550000Y-79091500D02*
X110550000Y-79091500D01*
X124050000Y-78591500D02*
G75*
G02*
X123550000Y-79091500I-500000J0D01*
G01*
X124050000Y-65591500D02*
X124050000Y-78591500D01*
X123550000Y-65091500D02*
G75*
G02*
X124050000Y-65591500I0J-500000D01*
G01*
X110550000Y-65091500D02*
X123550000Y-65091500D01*
X129100000Y-65591500D02*
G75*
G02*
X129600000Y-65091500I500000J0D01*
G01*
X129100000Y-78591500D02*
X129100000Y-65591500D01*
X129600000Y-79091500D02*
G75*
G02*
X129100000Y-78591500I0J500000D01*
G01*
X142600000Y-79091500D02*
X129600000Y-79091500D01*
X143100000Y-78591500D02*
G75*
G02*
X142600000Y-79091500I-500000J0D01*
G01*
X143100000Y-65591500D02*
X143100000Y-78591500D01*
X142600000Y-65091500D02*
G75*
G02*
X143100000Y-65591500I0J-500000D01*
G01*
X129600000Y-65091500D02*
X142600000Y-65091500D01*
X148150000Y-65591500D02*
G75*
G02*
X148650000Y-65091500I500000J0D01*
G01*
X148150000Y-78591500D02*
X148150000Y-65591500D01*
X148650000Y-79091500D02*
G75*
G02*
X148150000Y-78591500I0J500000D01*
G01*
X161650000Y-79091500D02*
X148650000Y-79091500D01*
X162150000Y-78591500D02*
G75*
G02*
X161650000Y-79091500I-500000J0D01*
G01*
X162150000Y-65591500D02*
X162150000Y-78591500D01*
X161650000Y-65091500D02*
G75*
G02*
X162150000Y-65591500I0J-500000D01*
G01*
X148650000Y-65091500D02*
X161650000Y-65091500D01*
X167200000Y-65591500D02*
G75*
G02*
X167700000Y-65091500I500000J0D01*
G01*
X167200000Y-78591500D02*
X167200000Y-65591500D01*
X167700000Y-79091500D02*
G75*
G02*
X167200000Y-78591500I0J500000D01*
G01*
X180700000Y-79091500D02*
X167700000Y-79091500D01*
X181200000Y-78591500D02*
G75*
G02*
X180700000Y-79091500I-500000J0D01*
G01*
X181200000Y-65591500D02*
X181200000Y-78591500D01*
X180700000Y-65091500D02*
G75*
G02*
X181200000Y-65591500I0J-500000D01*
G01*
X167700000Y-65091500D02*
X180700000Y-65091500D01*
X186250000Y-65591500D02*
G75*
G02*
X186750000Y-65091500I500000J0D01*
G01*
X186250000Y-78591500D02*
X186250000Y-65591500D01*
X186750000Y-79091500D02*
G75*
G02*
X186250000Y-78591500I0J500000D01*
G01*
X199750000Y-79091500D02*
X186750000Y-79091500D01*
X200250000Y-78591500D02*
G75*
G02*
X199750000Y-79091500I-500000J0D01*
G01*
X200250000Y-65591500D02*
X200250000Y-78591500D01*
X199750000Y-65091500D02*
G75*
G02*
X200250000Y-65591500I0J-500000D01*
G01*
X186750000Y-65091500D02*
X199750000Y-65091500D01*
X248162500Y-65591500D02*
G75*
G02*
X248662500Y-65091500I500000J0D01*
G01*
X248162500Y-78591500D02*
X248162500Y-65591500D01*
X248662500Y-79091500D02*
G75*
G02*
X248162500Y-78591500I0J500000D01*
G01*
X261662500Y-79091500D02*
X248662500Y-79091500D01*
X262162500Y-78591500D02*
G75*
G02*
X261662500Y-79091500I-500000J0D01*
G01*
X262162500Y-65591500D02*
X262162500Y-78591500D01*
X261662500Y-65091500D02*
G75*
G02*
X262162500Y-65591500I0J-500000D01*
G01*
X248662500Y-65091500D02*
X261662500Y-65091500D01*
X81475000Y-84641500D02*
G75*
G02*
X81975000Y-84141500I500000J0D01*
G01*
X81475000Y-97641500D02*
X81475000Y-84641500D01*
X81975000Y-98141500D02*
G75*
G02*
X81475000Y-97641500I0J500000D01*
G01*
X94975000Y-98141500D02*
X81975000Y-98141500D01*
X95475000Y-97641500D02*
G75*
G02*
X94975000Y-98141500I-500000J0D01*
G01*
X95475000Y-84641500D02*
X95475000Y-97641500D01*
X94975000Y-84141500D02*
G75*
G02*
X95475000Y-84641500I0J-500000D01*
G01*
X81975000Y-84141500D02*
X94975000Y-84141500D01*
X100525000Y-84641500D02*
G75*
G02*
X101025000Y-84141500I500000J0D01*
G01*
X100525000Y-97641500D02*
X100525000Y-84641500D01*
X101025000Y-98141500D02*
G75*
G02*
X100525000Y-97641500I0J500000D01*
G01*
X114025000Y-98141500D02*
X101025000Y-98141500D01*
X114525000Y-97641500D02*
G75*
G02*
X114025000Y-98141500I-500000J0D01*
G01*
X114525000Y-84641500D02*
X114525000Y-97641500D01*
X114025000Y-84141500D02*
G75*
G02*
X114525000Y-84641500I0J-500000D01*
G01*
X101025000Y-84141500D02*
X114025000Y-84141500D01*
X119575000Y-84641500D02*
G75*
G02*
X120075000Y-84141500I500000J0D01*
G01*
X119575000Y-97641500D02*
X119575000Y-84641500D01*
X120075000Y-98141500D02*
G75*
G02*
X119575000Y-97641500I0J500000D01*
G01*
X133075000Y-98141500D02*
X120075000Y-98141500D01*
X133575000Y-97641500D02*
G75*
G02*
X133075000Y-98141500I-500000J0D01*
G01*
X133575000Y-84641500D02*
X133575000Y-97641500D01*
X133075000Y-84141500D02*
G75*
G02*
X133575000Y-84641500I0J-500000D01*
G01*
X120075000Y-84141500D02*
X133075000Y-84141500D01*
X138625000Y-84641500D02*
G75*
G02*
X139125000Y-84141500I500000J0D01*
G01*
X138625000Y-97641500D02*
X138625000Y-84641500D01*
X139125000Y-98141500D02*
G75*
G02*
X138625000Y-97641500I0J500000D01*
G01*
X152125000Y-98141500D02*
X139125000Y-98141500D01*
X152625000Y-97641500D02*
G75*
G02*
X152125000Y-98141500I-500000J0D01*
G01*
X152625000Y-84641500D02*
X152625000Y-97641500D01*
X152125000Y-84141500D02*
G75*
G02*
X152625000Y-84641500I0J-500000D01*
G01*
X139125000Y-84141500D02*
X152125000Y-84141500D01*
X157675000Y-84641500D02*
G75*
G02*
X158175000Y-84141500I500000J0D01*
G01*
X157675000Y-97641500D02*
X157675000Y-84641500D01*
X158175000Y-98141500D02*
G75*
G02*
X157675000Y-97641500I0J500000D01*
G01*
X171175000Y-98141500D02*
X158175000Y-98141500D01*
X171675000Y-97641500D02*
G75*
G02*
X171175000Y-98141500I-500000J0D01*
G01*
X171675000Y-84641500D02*
X171675000Y-97641500D01*
X171175000Y-84141500D02*
G75*
G02*
X171675000Y-84641500I0J-500000D01*
G01*
X158175000Y-84141500D02*
X171175000Y-84141500D01*
X176725000Y-84641500D02*
G75*
G02*
X177225000Y-84141500I500000J0D01*
G01*
X176725000Y-97641500D02*
X176725000Y-84641500D01*
X177225000Y-98141500D02*
G75*
G02*
X176725000Y-97641500I0J500000D01*
G01*
X190225000Y-98141500D02*
X177225000Y-98141500D01*
X190725000Y-97641500D02*
G75*
G02*
X190225000Y-98141500I-500000J0D01*
G01*
X190725000Y-84641500D02*
X190725000Y-97641500D01*
X190225000Y-84141500D02*
G75*
G02*
X190725000Y-84641500I0J-500000D01*
G01*
X177225000Y-84141500D02*
X190225000Y-84141500D01*
X195775000Y-84641500D02*
G75*
G02*
X196275000Y-84141500I500000J0D01*
G01*
X195775000Y-97641500D02*
X195775000Y-84641500D01*
X196275000Y-98141500D02*
G75*
G02*
X195775000Y-97641500I0J500000D01*
G01*
X209275000Y-98141500D02*
X196275000Y-98141500D01*
X209775000Y-97641500D02*
G75*
G02*
X209275000Y-98141500I-500000J0D01*
G01*
X209775000Y-84641500D02*
X209775000Y-97641500D01*
X209275000Y-84141500D02*
G75*
G02*
X209775000Y-84641500I0J-500000D01*
G01*
X196275000Y-84141500D02*
X209275000Y-84141500D01*
X219587500Y-84641500D02*
G75*
G02*
X220087500Y-84141500I500000J0D01*
G01*
X219587500Y-97641500D02*
X219587500Y-84641500D01*
X220087500Y-98141500D02*
G75*
G02*
X219587500Y-97641500I0J500000D01*
G01*
X233087500Y-98141500D02*
X220087500Y-98141500D01*
X233587500Y-97641500D02*
G75*
G02*
X233087500Y-98141500I-500000J0D01*
G01*
X233587500Y-84641500D02*
X233587500Y-97641500D01*
X233087500Y-84141500D02*
G75*
G02*
X233587500Y-84641500I0J-500000D01*
G01*
X220087500Y-84141500D02*
X233087500Y-84141500D01*
X248162500Y-84641500D02*
G75*
G02*
X248662500Y-84141500I500000J0D01*
G01*
X248162500Y-97641500D02*
X248162500Y-84641500D01*
X248662500Y-98141500D02*
G75*
G02*
X248162500Y-97641500I0J500000D01*
G01*
X261662500Y-98141500D02*
X248662500Y-98141500D01*
X262162500Y-97641500D02*
G75*
G02*
X261662500Y-98141500I-500000J0D01*
G01*
X262162500Y-84641500D02*
X262162500Y-97641500D01*
X261662500Y-84141500D02*
G75*
G02*
X262162500Y-84641500I0J-500000D01*
G01*
X248662500Y-84141500D02*
X261662500Y-84141500D01*
X86237500Y-103691500D02*
G75*
G02*
X86737500Y-103191500I500000J0D01*
G01*
X86237500Y-116691500D02*
X86237500Y-103691500D01*
X86737500Y-117191500D02*
G75*
G02*
X86237500Y-116691500I0J500000D01*
G01*
X99737500Y-117191500D02*
X86737500Y-117191500D01*
X100237500Y-116691500D02*
G75*
G02*
X99737500Y-117191500I-500000J0D01*
G01*
X100237500Y-103691500D02*
X100237500Y-116691500D01*
X99737500Y-103191500D02*
G75*
G02*
X100237500Y-103691500I0J-500000D01*
G01*
X86737500Y-103191500D02*
X99737500Y-103191500D01*
X105287500Y-103691500D02*
G75*
G02*
X105787500Y-103191500I500000J0D01*
G01*
X105287500Y-116691500D02*
X105287500Y-103691500D01*
X105787500Y-117191500D02*
G75*
G02*
X105287500Y-116691500I0J500000D01*
G01*
X118787500Y-117191500D02*
X105787500Y-117191500D01*
X119287500Y-116691500D02*
G75*
G02*
X118787500Y-117191500I-500000J0D01*
G01*
X119287500Y-103691500D02*
X119287500Y-116691500D01*
X118787500Y-103191500D02*
G75*
G02*
X119287500Y-103691500I0J-500000D01*
G01*
X105787500Y-103191500D02*
X118787500Y-103191500D01*
X124337500Y-103691500D02*
G75*
G02*
X124837500Y-103191500I500000J0D01*
G01*
X124337500Y-116691500D02*
X124337500Y-103691500D01*
X124837500Y-117191500D02*
G75*
G02*
X124337500Y-116691500I0J500000D01*
G01*
X137837500Y-117191500D02*
X124837500Y-117191500D01*
X138337500Y-116691500D02*
G75*
G02*
X137837500Y-117191500I-500000J0D01*
G01*
X138337500Y-103691500D02*
X138337500Y-116691500D01*
X137837500Y-103191500D02*
G75*
G02*
X138337500Y-103691500I0J-500000D01*
G01*
X124837500Y-103191500D02*
X137837500Y-103191500D01*
X143387500Y-103691500D02*
G75*
G02*
X143887500Y-103191500I500000J0D01*
G01*
X143387500Y-116691500D02*
X143387500Y-103691500D01*
X143887500Y-117191500D02*
G75*
G02*
X143387500Y-116691500I0J500000D01*
G01*
X156887500Y-117191500D02*
X143887500Y-117191500D01*
X157387500Y-116691500D02*
G75*
G02*
X156887500Y-117191500I-500000J0D01*
G01*
X157387500Y-103691500D02*
X157387500Y-116691500D01*
X156887500Y-103191500D02*
G75*
G02*
X157387500Y-103691500I0J-500000D01*
G01*
X143887500Y-103191500D02*
X156887500Y-103191500D01*
X162437500Y-103691500D02*
G75*
G02*
X162937500Y-103191500I500000J0D01*
G01*
X162437500Y-116691500D02*
X162437500Y-103691500D01*
X162937500Y-117191500D02*
G75*
G02*
X162437500Y-116691500I0J500000D01*
G01*
X175937500Y-117191500D02*
X162937500Y-117191500D01*
X176437500Y-116691500D02*
G75*
G02*
X175937500Y-117191500I-500000J0D01*
G01*
X176437500Y-103691500D02*
X176437500Y-116691500D01*
X175937500Y-103191500D02*
G75*
G02*
X176437500Y-103691500I0J-500000D01*
G01*
X162937500Y-103191500D02*
X175937500Y-103191500D01*
X181487500Y-103691500D02*
G75*
G02*
X181987500Y-103191500I500000J0D01*
G01*
X181487500Y-116691500D02*
X181487500Y-103691500D01*
X181987500Y-117191500D02*
G75*
G02*
X181487500Y-116691500I0J500000D01*
G01*
X194987500Y-117191500D02*
X181987500Y-117191500D01*
X195487500Y-116691500D02*
G75*
G02*
X194987500Y-117191500I-500000J0D01*
G01*
X195487500Y-103691500D02*
X195487500Y-116691500D01*
X194987500Y-103191500D02*
G75*
G02*
X195487500Y-103691500I0J-500000D01*
G01*
X181987500Y-103191500D02*
X194987500Y-103191500D01*
X248162500Y-103691500D02*
G75*
G02*
X248662500Y-103191500I500000J0D01*
G01*
X248162500Y-116691500D02*
X248162500Y-103691500D01*
X248662500Y-117191500D02*
G75*
G02*
X248162500Y-116691500I0J500000D01*
G01*
X261662500Y-117191500D02*
X248662500Y-117191500D01*
X262162500Y-116691500D02*
G75*
G02*
X261662500Y-117191500I-500000J0D01*
G01*
X262162500Y-103691500D02*
X262162500Y-116691500D01*
X261662500Y-103191500D02*
G75*
G02*
X262162500Y-103691500I0J-500000D01*
G01*
X248662500Y-103191500D02*
X261662500Y-103191500D01*
X95762500Y-122741500D02*
G75*
G02*
X96262500Y-122241500I500000J0D01*
G01*
X95762500Y-135741500D02*
X95762500Y-122741500D01*
X96262500Y-136241500D02*
G75*
G02*
X95762500Y-135741500I0J500000D01*
G01*
X109262500Y-136241500D02*
X96262500Y-136241500D01*
X109762500Y-135741500D02*
G75*
G02*
X109262500Y-136241500I-500000J0D01*
G01*
X109762500Y-122741500D02*
X109762500Y-135741500D01*
X109262500Y-122241500D02*
G75*
G02*
X109762500Y-122741500I0J-500000D01*
G01*
X96262500Y-122241500D02*
X109262500Y-122241500D01*
X114812500Y-122741500D02*
G75*
G02*
X115312500Y-122241500I500000J0D01*
G01*
X114812500Y-135741500D02*
X114812500Y-122741500D01*
X115312500Y-136241500D02*
G75*
G02*
X114812500Y-135741500I0J500000D01*
G01*
X128312500Y-136241500D02*
X115312500Y-136241500D01*
X128812500Y-135741500D02*
G75*
G02*
X128312500Y-136241500I-500000J0D01*
G01*
X128812500Y-122741500D02*
X128812500Y-135741500D01*
X128312500Y-122241500D02*
G75*
G02*
X128812500Y-122741500I0J-500000D01*
G01*
X115312500Y-122241500D02*
X128312500Y-122241500D01*
X133862500Y-122741500D02*
G75*
G02*
X134362500Y-122241500I500000J0D01*
G01*
X133862500Y-135741500D02*
X133862500Y-122741500D01*
X134362500Y-136241500D02*
G75*
G02*
X133862500Y-135741500I0J500000D01*
G01*
X147362500Y-136241500D02*
X134362500Y-136241500D01*
X147862500Y-135741500D02*
G75*
G02*
X147362500Y-136241500I-500000J0D01*
G01*
X147862500Y-122741500D02*
X147862500Y-135741500D01*
X147362500Y-122241500D02*
G75*
G02*
X147862500Y-122741500I0J-500000D01*
G01*
X134362500Y-122241500D02*
X147362500Y-122241500D01*
X152912500Y-122741500D02*
G75*
G02*
X153412500Y-122241500I500000J0D01*
G01*
X152912500Y-135741500D02*
X152912500Y-122741500D01*
X153412500Y-136241500D02*
G75*
G02*
X152912500Y-135741500I0J500000D01*
G01*
X166412500Y-136241500D02*
X153412500Y-136241500D01*
X166912500Y-135741500D02*
G75*
G02*
X166412500Y-136241500I-500000J0D01*
G01*
X166912500Y-122741500D02*
X166912500Y-135741500D01*
X166412500Y-122241500D02*
G75*
G02*
X166912500Y-122741500I0J-500000D01*
G01*
X153412500Y-122241500D02*
X166412500Y-122241500D01*
X171962500Y-122741500D02*
G75*
G02*
X172462500Y-122241500I500000J0D01*
G01*
X171962500Y-135741500D02*
X171962500Y-122741500D01*
X172462500Y-136241500D02*
G75*
G02*
X171962500Y-135741500I0J500000D01*
G01*
X185462500Y-136241500D02*
X172462500Y-136241500D01*
X185962500Y-135741500D02*
G75*
G02*
X185462500Y-136241500I-500000J0D01*
G01*
X185962500Y-122741500D02*
X185962500Y-135741500D01*
X185462500Y-122241500D02*
G75*
G02*
X185962500Y-122741500I0J-500000D01*
G01*
X172462500Y-122241500D02*
X185462500Y-122241500D01*
X198156250Y-122741500D02*
G75*
G02*
X198656250Y-122241550I499950J0D01*
G01*
X198156250Y-135734400D02*
X198156250Y-122741500D01*
X198656300Y-136241500D02*
G75*
G02*
X198156248Y-135734400I100J500200D01*
G01*
X211656250Y-136241500D02*
X198656300Y-136241500D01*
X212156250Y-135741500D02*
G75*
G02*
X211656250Y-136241450I-499950J0D01*
G01*
X212156250Y-122748671D02*
X212156250Y-135741500D01*
X211656200Y-122241500D02*
G75*
G02*
X212156251Y-122748671I-100J-500200D01*
G01*
X198656250Y-122241500D02*
X211656200Y-122241500D01*
X229112500Y-127504000D02*
G75*
G02*
X229612500Y-127004000I500000J0D01*
G01*
X229112500Y-140504000D02*
X229112500Y-127504000D01*
X229612500Y-141004000D02*
G75*
G02*
X229112500Y-140504000I0J500000D01*
G01*
X242612500Y-141004000D02*
X229612500Y-141004000D01*
X243112500Y-140504000D02*
G75*
G02*
X242612500Y-141004000I-500000J0D01*
G01*
X243112500Y-127504000D02*
X243112500Y-140504000D01*
X242612500Y-127004000D02*
G75*
G02*
X243112500Y-127504000I0J-500000D01*
G01*
X229612500Y-127004000D02*
X242612500Y-127004000D01*
X148150000Y-141791500D02*
G75*
G02*
X148650000Y-141291500I500000J0D01*
G01*
X148150000Y-154791500D02*
X148150000Y-141791500D01*
X148650000Y-155291500D02*
G75*
G02*
X148150000Y-154791500I0J500000D01*
G01*
X161650000Y-155291500D02*
X148650000Y-155291500D01*
X162150000Y-154791500D02*
G75*
G02*
X161650000Y-155291500I-500000J0D01*
G01*
X162150000Y-141791500D02*
X162150000Y-154791500D01*
X161650000Y-141291500D02*
G75*
G02*
X162150000Y-141791500I0J-500000D01*
G01*
X148650000Y-141291500D02*
X161650000Y-141291500D01*
X167200000Y-141791500D02*
G75*
G02*
X167700000Y-141291500I500000J0D01*
G01*
X167200000Y-154791500D02*
X167200000Y-141791500D01*
X167700000Y-155291500D02*
G75*
G02*
X167200000Y-154791500I0J500000D01*
G01*
X180700000Y-155291500D02*
X167700000Y-155291500D01*
X181200000Y-154791500D02*
G75*
G02*
X180700000Y-155291500I-500000J0D01*
G01*
X181200000Y-141791500D02*
X181200000Y-154791500D01*
X180700000Y-141291500D02*
G75*
G02*
X181200000Y-141791500I0J-500000D01*
G01*
X167700000Y-141291500D02*
X180700000Y-141291500D01*
X186250000Y-141791500D02*
G75*
G02*
X186750000Y-141291500I500000J0D01*
G01*
X186250000Y-154791500D02*
X186250000Y-141791500D01*
X186750000Y-155291500D02*
G75*
G02*
X186250000Y-154791500I0J500000D01*
G01*
X199750000Y-155291500D02*
X186750000Y-155291500D01*
X200250000Y-154791500D02*
G75*
G02*
X199750000Y-155291500I-500000J0D01*
G01*
X200250000Y-141791500D02*
X200250000Y-154791500D01*
X199750000Y-141291500D02*
G75*
G02*
X200250000Y-141791500I0J-500000D01*
G01*
X186750000Y-141291500D02*
X199750000Y-141291500D01*
X210062500Y-146554000D02*
G75*
G02*
X210562500Y-146054000I500000J0D01*
G01*
X210062500Y-159554000D02*
X210062500Y-146554000D01*
X210562500Y-160054000D02*
G75*
G02*
X210062500Y-159554000I0J500000D01*
G01*
X223562500Y-160054000D02*
X210562500Y-160054000D01*
X224062500Y-159554000D02*
G75*
G02*
X223562500Y-160054000I-500000J0D01*
G01*
X224062500Y-146554000D02*
X224062500Y-159554000D01*
X223562500Y-146054000D02*
G75*
G02*
X224062500Y-146554000I0J-500000D01*
G01*
X210562500Y-146054000D02*
X223562500Y-146054000D01*
X229112500Y-146554000D02*
G75*
G02*
X229612500Y-146054000I500000J0D01*
G01*
X229112500Y-159554000D02*
X229112500Y-146554000D01*
X229612500Y-160054000D02*
G75*
G02*
X229112500Y-159554000I0J500000D01*
G01*
X242612500Y-160054000D02*
X229612500Y-160054000D01*
X243112500Y-159554000D02*
G75*
G02*
X242612500Y-160054000I-500000J0D01*
G01*
X243112500Y-146554000D02*
X243112500Y-159554000D01*
X242612500Y-146054000D02*
G75*
G02*
X243112500Y-146554000I0J-500000D01*
G01*
X229612500Y-146054000D02*
X242612500Y-146054000D01*
X248162500Y-146554000D02*
G75*
G02*
X248662500Y-146054000I500000J0D01*
G01*
X248162500Y-159554000D02*
X248162500Y-146554000D01*
X248662500Y-160054000D02*
G75*
G02*
X248162500Y-159554000I0J500000D01*
G01*
X261662500Y-160054000D02*
X248662500Y-160054000D01*
X262162500Y-159554000D02*
G75*
G02*
X261662500Y-160054000I-500000J0D01*
G01*
X262162500Y-146554000D02*
X262162500Y-159554000D01*
X261662500Y-146054000D02*
G75*
G02*
X262162500Y-146554000I0J-500000D01*
G01*
X248662500Y-146054000D02*
X261662500Y-146054000D01*
X229935600Y-77908100D02*
G75*
G02*
X230435600Y-78408100I0J-500000D01*
G01*
X230435600Y-78695500D02*
X230435600Y-78408100D01*
X231739000Y-78695500D02*
X230435600Y-78695500D01*
X231739000Y-78695500D02*
G75*
G02*
X232239000Y-79195500I0J-500000D01*
G01*
X232239000Y-79363900D02*
X232239000Y-79195500D01*
X232739000Y-79863900D02*
G75*
G02*
X232239000Y-79363900I0J500000D01*
G01*
X234787000Y-79863900D02*
X232739000Y-79863900D01*
X235287000Y-79363900D02*
G75*
G02*
X234787000Y-79863900I-500000J0D01*
G01*
X235287000Y-79195500D02*
X235287000Y-79363900D01*
X235287000Y-79195500D02*
G75*
G02*
X235787000Y-78695500I500000J0D01*
G01*
X236590400Y-78695500D02*
X235787000Y-78695500D01*
X237090400Y-78195500D02*
G75*
G02*
X236590400Y-78695500I-500000J0D01*
G01*
X237090400Y-73099500D02*
X237090400Y-78195500D01*
X237090400Y-73099500D02*
G75*
G02*
X237590400Y-72599500I500000J0D01*
G01*
X237954000Y-72599500D02*
X237590400Y-72599500D01*
X237954000Y-70305500D02*
X237954000Y-72599500D01*
X237454000Y-69805500D02*
G75*
G02*
X237954000Y-70305500I0J-500000D01*
G01*
X237090400Y-69805500D02*
X237454000Y-69805500D01*
X237090400Y-66901900D02*
X237090400Y-69805500D01*
X236590400Y-66401900D02*
G75*
G02*
X237090400Y-66901900I0J-500000D01*
G01*
X230935600Y-66401900D02*
X236590400Y-66401900D01*
X230435600Y-66901900D02*
G75*
G02*
X230935600Y-66401900I500000J0D01*
G01*
X230435600Y-67214700D02*
X230435600Y-66901900D01*
X228825000Y-67214700D02*
X230435600Y-67214700D01*
X228825000Y-65591500D02*
X228825000Y-67214700D01*
X228325000Y-65091500D02*
G75*
G02*
X228825000Y-65591500I0J-500000D01*
G01*
X215325000Y-65091500D02*
X228325000Y-65091500D01*
X214825000Y-65591500D02*
G75*
G02*
X215325000Y-65091500I500000J0D01*
G01*
X214825000Y-67214700D02*
X214825000Y-65591500D01*
X213214400Y-67214700D02*
X214825000Y-67214700D01*
X213214400Y-66901900D02*
X213214400Y-67214700D01*
X212714400Y-66401900D02*
G75*
G02*
X213214400Y-66901900I0J-500000D01*
G01*
X207059600Y-66401900D02*
X212714400Y-66401900D01*
X206559600Y-66901900D02*
G75*
G02*
X207059600Y-66401900I500000J0D01*
G01*
X206559600Y-69805500D02*
X206559600Y-66901900D01*
X206196000Y-69805500D02*
X206559600Y-69805500D01*
X205696000Y-70305500D02*
G75*
G02*
X206196000Y-69805500I500000J0D01*
G01*
X205696000Y-72599500D02*
X205696000Y-70305500D01*
X206059600Y-72599500D02*
X205696000Y-72599500D01*
X206059600Y-72599500D02*
G75*
G02*
X206559600Y-73099500I0J-500000D01*
G01*
X206559600Y-78195500D02*
X206559600Y-73099500D01*
X207059600Y-78695500D02*
G75*
G02*
X206559600Y-78195500I0J500000D01*
G01*
X207863000Y-78695500D02*
X207059600Y-78695500D01*
X207863000Y-78695500D02*
G75*
G02*
X208363000Y-79195500I0J-500000D01*
G01*
X208363000Y-79363900D02*
X208363000Y-79195500D01*
X208863000Y-79863900D02*
G75*
G02*
X208363000Y-79363900I0J500000D01*
G01*
X210911000Y-79863900D02*
X208863000Y-79863900D01*
X211411000Y-79363900D02*
G75*
G02*
X210911000Y-79863900I-500000J0D01*
G01*
X211411000Y-79195500D02*
X211411000Y-79363900D01*
X211411000Y-79195500D02*
G75*
G02*
X211911000Y-78695500I500000J0D01*
G01*
X213214400Y-78695500D02*
X211911000Y-78695500D01*
X213214400Y-78408100D02*
X213214400Y-78695500D01*
X213214400Y-78408100D02*
G75*
G02*
X213714400Y-77908100I500000J0D01*
G01*
X214825000Y-77908100D02*
X213714400Y-77908100D01*
X214825000Y-78591500D02*
X214825000Y-77908100D01*
X215325000Y-79091500D02*
G75*
G02*
X214825000Y-78591500I0J500000D01*
G01*
X228325000Y-79091500D02*
X215325000Y-79091500D01*
X228825000Y-78591500D02*
G75*
G02*
X228325000Y-79091500I-500000J0D01*
G01*
X228825000Y-77908100D02*
X228825000Y-78591500D01*
X229935600Y-77908100D02*
X228825000Y-77908100D01*
X227554200Y-116008100D02*
G75*
G02*
X228054349Y-116501129I0J-500200D01*
G01*
X228054350Y-116795500D02*
X228054350Y-116501129D01*
X229357600Y-116795500D02*
X228054350Y-116795500D01*
X229357600Y-116795500D02*
G75*
G02*
X229857749Y-117288529I0J-500200D01*
G01*
X229857750Y-117456800D02*
X229857750Y-117288529D01*
X230357800Y-117963900D02*
G75*
G02*
X229857748Y-117456800I100J500200D01*
G01*
X232405750Y-117963900D02*
X230357800Y-117963900D01*
X232905750Y-117463900D02*
G75*
G02*
X232405750Y-117963850I-499950J0D01*
G01*
X232905750Y-117295500D02*
X232905750Y-117463900D01*
X232905750Y-117295500D02*
G75*
G02*
X233405750Y-116795550I499950J0D01*
G01*
X234209150Y-116795500D02*
X233405750Y-116795500D01*
X234709150Y-116295500D02*
G75*
G02*
X234209150Y-116795450I-499950J0D01*
G01*
X234709150Y-111199500D02*
X234709150Y-116295500D01*
X234709150Y-111199500D02*
G75*
G02*
X235209150Y-110699550I499950J0D01*
G01*
X235572750Y-110699500D02*
X235209150Y-110699500D01*
X235572750Y-108412671D02*
X235572750Y-110699500D01*
X235072700Y-107905500D02*
G75*
G02*
X235572751Y-108412671I-100J-500200D01*
G01*
X234709150Y-107905500D02*
X235072700Y-107905500D01*
X234709150Y-105009071D02*
X234709150Y-107905500D01*
X234209100Y-104501900D02*
G75*
G02*
X234709151Y-105009071I-100J-500200D01*
G01*
X228554350Y-104501900D02*
X234209100Y-104501900D01*
X228054350Y-105001900D02*
G75*
G02*
X228554350Y-104501950I499950J0D01*
G01*
X228054350Y-105314700D02*
X228054350Y-105001900D01*
X226443750Y-105314700D02*
X228054350Y-105314700D01*
X226443750Y-103698671D02*
X226443750Y-105314700D01*
X225943700Y-103191500D02*
G75*
G02*
X226443751Y-103698671I-100J-500200D01*
G01*
X212943750Y-103191500D02*
X225943700Y-103191500D01*
X212443750Y-103691500D02*
G75*
G02*
X212943750Y-103191550I499950J0D01*
G01*
X212443750Y-105314700D02*
X212443750Y-103691500D01*
X210833150Y-105314700D02*
X212443750Y-105314700D01*
X210833150Y-105009071D02*
X210833150Y-105314700D01*
X210333000Y-104501900D02*
G75*
G02*
X210833151Y-105009071I0J-500200D01*
G01*
X204678350Y-104501900D02*
X210333000Y-104501900D01*
X204178350Y-105001900D02*
G75*
G02*
X204678350Y-104501950I499950J0D01*
G01*
X204178350Y-107905500D02*
X204178350Y-105001900D01*
X203814750Y-107905500D02*
X204178350Y-107905500D01*
X203314750Y-108405500D02*
G75*
G02*
X203814750Y-107905550I499950J0D01*
G01*
X203314750Y-110699500D02*
X203314750Y-108405500D01*
X203678200Y-110699500D02*
X203314750Y-110699500D01*
X203678200Y-110699500D02*
G75*
G02*
X204178349Y-111192529I0J-500200D01*
G01*
X204178350Y-116288400D02*
X204178350Y-111192529D01*
X204678400Y-116795500D02*
G75*
G02*
X204178348Y-116288400I100J500200D01*
G01*
X205481600Y-116795500D02*
X204678400Y-116795500D01*
X205481600Y-116795500D02*
G75*
G02*
X205981749Y-117288529I0J-500200D01*
G01*
X205981750Y-117456800D02*
X205981750Y-117288529D01*
X206481800Y-117963900D02*
G75*
G02*
X205981748Y-117456800I100J500200D01*
G01*
X208529750Y-117963900D02*
X206481800Y-117963900D01*
X209029750Y-117463900D02*
G75*
G02*
X208529750Y-117963850I-499950J0D01*
G01*
X209029750Y-117295500D02*
X209029750Y-117463900D01*
X209029750Y-117295500D02*
G75*
G02*
X209529750Y-116795550I499950J0D01*
G01*
X210833150Y-116795500D02*
X209529750Y-116795500D01*
X210833150Y-116508100D02*
X210833150Y-116795500D01*
X210833150Y-116508100D02*
G75*
G02*
X211333150Y-116008150I499950J0D01*
G01*
X212443750Y-116008100D02*
X211333150Y-116008100D01*
X212443750Y-116684400D02*
X212443750Y-116008100D01*
X212943800Y-117191500D02*
G75*
G02*
X212443748Y-116684400I100J500200D01*
G01*
X225943750Y-117191500D02*
X212943800Y-117191500D01*
X226443750Y-116691500D02*
G75*
G02*
X225943750Y-117191450I-499950J0D01*
G01*
X226443750Y-116008100D02*
X226443750Y-116691500D01*
X227554200Y-116008100D02*
X226443750Y-116008100D01*
X234194500Y-32150000D02*
X231944500Y-32150000D01*
X234194500Y-29850000D02*
X234194500Y-32150000D01*
X231944500Y-29850000D02*
X234194500Y-29850000D01*
X231944500Y-32150000D02*
X231944500Y-29850000D01*
X251944500Y-29850000D02*
X254194500Y-29850000D01*
X251944500Y-32150000D02*
X251944500Y-29850000D01*
X254194500Y-32150000D02*
X251944500Y-32150000D01*
X254194500Y-29850000D02*
X254194500Y-32150000D01*
X167046500Y-168150000D02*
X246290500Y-168150000D01*
X167046500Y-168150000D02*
G75*
G02*
X166046500Y-167150000I0J1000000D01*
G01*
X166046500Y-165000000D02*
X166046500Y-167150000D01*
X145725000Y-165000000D02*
X166046500Y-165000000D01*
X145725000Y-138666500D02*
X145725000Y-165000000D01*
X93337500Y-138666500D02*
X145725000Y-138666500D01*
X93337500Y-119616500D02*
X93337500Y-138666500D01*
X83812500Y-119616500D02*
X93337500Y-119616500D01*
X83812500Y-100566500D02*
X83812500Y-119616500D01*
X79050000Y-100566500D02*
X83812500Y-100566500D01*
X79050000Y-81516500D02*
X79050000Y-100566500D01*
X69525000Y-81516500D02*
X79050000Y-81516500D01*
X69525000Y-57704000D02*
X69525000Y-81516500D01*
X60000000Y-57704000D02*
X69525000Y-57704000D01*
X60000000Y-30000000D02*
X60000000Y-57704000D01*
X80321000Y-30000000D02*
X60000000Y-30000000D01*
X80321000Y-27350000D02*
X80321000Y-30000000D01*
X80321000Y-27350000D02*
G75*
G02*
X81321000Y-26350000I1000000J0D01*
G01*
X124847000Y-26350000D02*
X81321000Y-26350000D01*
X124847000Y-26350000D02*
G75*
G02*
X125847000Y-27350000I0J-1000000D01*
G01*
X125847000Y-30000000D02*
X125847000Y-27350000D01*
X171627000Y-30000000D02*
X125847000Y-30000000D01*
X171627000Y-27350000D02*
X171627000Y-30000000D01*
X171627000Y-27350000D02*
G75*
G02*
X172627000Y-26350000I1000000J0D01*
G01*
X215427000Y-26350000D02*
X172627000Y-26350000D01*
X215427000Y-26350000D02*
G75*
G02*
X216427000Y-27350000I0J-1000000D01*
G01*
X216427000Y-30000000D02*
X216427000Y-27350000D01*
X229090500Y-30000000D02*
X216427000Y-30000000D01*
X229090500Y-26000000D02*
X229090500Y-30000000D01*
X229090500Y-26000000D02*
G75*
G02*
X230090500Y-25000000I1000000J0D01*
G01*
X254700500Y-25000000D02*
X230090500Y-25000000D01*
X254700500Y-25000000D02*
G75*
G02*
X255700500Y-26000000I0J-1000000D01*
G01*
X255700500Y-30000000D02*
X255700500Y-26000000D01*
X265068500Y-30000000D02*
X255700500Y-30000000D01*
X265068500Y-30000000D02*
G75*
G02*
X267068500Y-32000000I0J-2000000D01*
G01*
X267068500Y-163000000D02*
X267068500Y-32000000D01*
X267068500Y-163000000D02*
G75*
G02*
X265068500Y-165000000I-2000000J0D01*
G01*
X247290500Y-165000000D02*
X265068500Y-165000000D01*
X247290500Y-167150000D02*
X247290500Y-165000000D01*
X247290500Y-167150000D02*
G75*
G02*
X246290500Y-168150000I-1000000J0D01*
G01*
M02*
