G04*
G04 #@! TF.GenerationSoftware,Altium Limited,Altium Designer,23.5.1 (21)*
G04*
G04 Layer_Color=65535*
%FSLAX44Y44*%
%MOMM*%
G71*
G04*
G04 #@! TF.SameCoordinates,2BC34154-30F2-4EB8-A0CA-646768C512BA*
G04*
G04*
G04 #@! TF.FilePolarity,Positive*
G04*
G01*
G75*
%ADD10C,0.2000*%
%ADD11C,0.2500*%
%ADD12C,0.2540*%
G36*
X888218Y1100435D02*
X889968D01*
Y1100185D01*
X890968D01*
Y1099935D01*
X891719D01*
Y1099685D01*
X892219D01*
Y1099435D01*
X892969D01*
Y1099185D01*
X893469D01*
Y1098935D01*
X893969D01*
Y1098685D01*
X894469D01*
Y1098435D01*
X894719D01*
Y1098185D01*
X895219D01*
Y1097935D01*
X895719D01*
Y1097685D01*
X895969D01*
Y1097185D01*
X895469D01*
Y1096935D01*
X894969D01*
Y1096685D01*
X894719D01*
Y1096435D01*
X894219D01*
Y1096185D01*
X893969D01*
Y1095935D01*
X893719D01*
Y1095685D01*
X893469D01*
Y1095434D01*
X893219D01*
Y1095184D01*
X892969D01*
Y1094934D01*
X892719D01*
Y1094685D01*
X892469D01*
Y1094434D01*
X892219D01*
Y1094184D01*
X891969D01*
Y1093934D01*
X891719D01*
Y1093434D01*
X891469D01*
Y1093184D01*
X891218D01*
Y1092684D01*
X890968D01*
Y1092184D01*
X890719D01*
Y1091684D01*
X890468D01*
Y1091184D01*
X890218D01*
Y1091934D01*
X889968D01*
Y1092684D01*
X889718D01*
Y1093434D01*
X889468D01*
Y1094184D01*
X889218D01*
Y1094685D01*
X888968D01*
Y1095184D01*
X888718D01*
Y1095685D01*
X888468D01*
Y1096185D01*
X888218D01*
Y1096685D01*
X887968D01*
Y1097185D01*
X887718D01*
Y1097685D01*
X887468D01*
Y1097935D01*
X887218D01*
Y1098435D01*
X886968D01*
Y1098685D01*
X886718D01*
Y1099185D01*
X886468D01*
Y1099435D01*
X886218D01*
Y1099685D01*
X885968D01*
Y1100185D01*
X885718D01*
Y1100435D01*
X885968D01*
Y1100685D01*
X888218D01*
Y1100435D01*
D02*
G37*
G36*
X895469Y1111187D02*
X899470D01*
Y1110937D01*
X900970D01*
Y1110686D01*
X902220D01*
Y1110436D01*
X903220D01*
Y1110186D01*
X904220D01*
Y1109936D01*
X905220D01*
Y1109686D01*
X905970D01*
Y1109436D01*
X906971D01*
Y1109186D01*
X907721D01*
Y1108936D01*
X908471D01*
Y1108686D01*
X909221D01*
Y1108436D01*
X909971D01*
Y1108186D01*
X910721D01*
Y1107936D01*
X911471D01*
Y1107686D01*
X911971D01*
Y1107436D01*
X912721D01*
Y1107186D01*
X913221D01*
Y1106936D01*
X913971D01*
Y1106686D01*
X914471D01*
Y1106436D01*
X914971D01*
Y1106186D01*
X915722D01*
Y1105936D01*
X916222D01*
Y1105686D01*
X916722D01*
Y1105436D01*
X917222D01*
Y1105186D01*
X917722D01*
Y1104936D01*
X918222D01*
Y1104686D01*
X918722D01*
Y1104436D01*
X919222D01*
Y1104186D01*
X919722D01*
Y1103936D01*
X920222D01*
Y1103686D01*
X920722D01*
Y1103436D01*
X920972D01*
Y1103186D01*
X921472D01*
Y1102935D01*
X921972D01*
Y1102685D01*
X922472D01*
Y1102435D01*
X922722D01*
Y1102185D01*
X923223D01*
Y1101935D01*
X923723D01*
Y1101685D01*
X923973D01*
Y1101435D01*
X924473D01*
Y1101185D01*
X924723D01*
Y1100935D01*
X925223D01*
Y1100685D01*
X925723D01*
Y1100435D01*
X925973D01*
Y1100185D01*
X926473D01*
Y1099935D01*
X926723D01*
Y1099685D01*
X926973D01*
Y1099435D01*
X927473D01*
Y1099185D01*
X927723D01*
Y1098935D01*
X928223D01*
Y1098685D01*
X928473D01*
Y1098435D01*
X928973D01*
Y1098185D01*
X929223D01*
Y1097935D01*
X929473D01*
Y1097685D01*
X929973D01*
Y1097435D01*
X930223D01*
Y1097185D01*
X930473D01*
Y1096935D01*
X930723D01*
Y1096685D01*
X931224D01*
Y1096435D01*
X931473D01*
Y1096185D01*
X931724D01*
Y1095935D01*
X931974D01*
Y1095685D01*
X932474D01*
Y1095434D01*
X932724D01*
Y1095184D01*
X932974D01*
Y1094934D01*
X933224D01*
Y1094685D01*
X933474D01*
Y1094434D01*
X933724D01*
Y1094184D01*
X934224D01*
Y1093934D01*
X934474D01*
Y1093684D01*
X934724D01*
Y1093434D01*
X934974D01*
Y1093184D01*
X935224D01*
Y1092934D01*
X935474D01*
Y1092684D01*
X935974D01*
Y1092434D01*
X936224D01*
Y1092184D01*
X936474D01*
Y1091934D01*
X936724D01*
Y1091684D01*
X936974D01*
Y1091434D01*
X937224D01*
Y1091184D01*
X937724D01*
Y1090934D01*
X937974D01*
Y1090684D01*
X938224D01*
Y1090434D01*
X938474D01*
Y1090184D01*
X938725D01*
Y1089934D01*
X938975D01*
Y1089684D01*
X939474D01*
Y1089434D01*
X939725D01*
Y1089184D01*
X939975D01*
Y1088934D01*
X940225D01*
Y1088684D01*
X940725D01*
Y1088434D01*
X940975D01*
Y1088184D01*
X941225D01*
Y1087934D01*
X941475D01*
Y1087684D01*
X941975D01*
Y1087433D01*
X942225D01*
Y1087184D01*
X942475D01*
Y1086934D01*
X942975D01*
Y1086684D01*
X943225D01*
Y1086433D01*
X943475D01*
Y1086183D01*
X943975D01*
Y1085933D01*
X944225D01*
Y1085683D01*
X944725D01*
Y1085433D01*
X944975D01*
Y1085183D01*
X945475D01*
Y1084933D01*
X945725D01*
Y1084683D01*
X946225D01*
Y1084433D01*
X946475D01*
Y1084183D01*
X946975D01*
Y1083933D01*
X947225D01*
Y1083683D01*
X947726D01*
Y1083433D01*
X948226D01*
Y1083183D01*
X948476D01*
Y1082933D01*
X948976D01*
Y1082683D01*
X949476D01*
Y1082433D01*
X949726D01*
Y1082183D01*
X950226D01*
Y1081933D01*
X950726D01*
Y1081683D01*
X951226D01*
Y1081433D01*
X951726D01*
Y1081183D01*
X951976D01*
Y1080933D01*
X952476D01*
Y1080683D01*
X952976D01*
Y1080433D01*
X953476D01*
Y1080183D01*
X953976D01*
Y1079933D01*
X954726D01*
Y1079683D01*
X955227D01*
Y1079433D01*
X955727D01*
Y1079183D01*
X956227D01*
Y1078932D01*
X956727D01*
Y1078682D01*
X957477D01*
Y1078432D01*
X957977D01*
Y1078182D01*
X958477D01*
Y1077932D01*
X959227D01*
Y1077682D01*
X959727D01*
Y1077432D01*
X960477D01*
Y1077182D01*
X961227D01*
Y1076932D01*
X961977D01*
Y1076682D01*
X962728D01*
Y1076432D01*
X963477D01*
Y1076182D01*
X964228D01*
Y1075932D01*
X965228D01*
Y1075682D01*
X966228D01*
Y1075432D01*
X967228D01*
Y1075182D01*
X968478D01*
Y1074932D01*
X969978D01*
Y1074682D01*
X971979D01*
Y1074432D01*
X979980D01*
Y1074182D01*
X978979D01*
Y1073932D01*
X978229D01*
Y1073682D01*
X977479D01*
Y1073432D01*
X976729D01*
Y1073182D01*
X975979D01*
Y1072932D01*
X975229D01*
Y1072682D01*
X974479D01*
Y1072432D01*
X973729D01*
Y1072182D01*
X972979D01*
Y1071932D01*
X972479D01*
Y1071682D01*
X971729D01*
Y1071432D01*
X971228D01*
Y1071181D01*
X970729D01*
Y1070931D01*
X969978D01*
Y1070682D01*
X969478D01*
Y1070431D01*
X968978D01*
Y1070181D01*
X968478D01*
Y1069931D01*
X967978D01*
Y1069681D01*
X967228D01*
Y1069431D01*
X966728D01*
Y1069181D01*
X966228D01*
Y1068931D01*
X965728D01*
Y1068681D01*
X965228D01*
Y1068431D01*
X964728D01*
Y1068181D01*
X964228D01*
Y1067931D01*
X963978D01*
Y1067681D01*
X963477D01*
Y1067431D01*
X962978D01*
Y1067181D01*
X962477D01*
Y1066931D01*
X961977D01*
Y1066681D01*
X961477D01*
Y1066431D01*
X960977D01*
Y1066181D01*
X960727D01*
Y1065931D01*
X960227D01*
Y1065681D01*
X959227D01*
Y1065931D01*
X957727D01*
Y1066181D01*
X956727D01*
Y1066431D01*
X955727D01*
Y1066681D01*
X955227D01*
Y1066931D01*
X954476D01*
Y1067181D01*
X953726D01*
Y1067431D01*
X952976D01*
Y1067681D01*
X952226D01*
Y1067931D01*
X951726D01*
Y1068181D01*
X950976D01*
Y1068431D01*
X950226D01*
Y1068681D01*
X949726D01*
Y1068931D01*
X948976D01*
Y1069181D01*
X948476D01*
Y1069431D01*
X947976D01*
Y1069681D01*
X947476D01*
Y1069931D01*
X946975D01*
Y1070181D01*
X946475D01*
Y1070431D01*
X945975D01*
Y1070682D01*
X945475D01*
Y1070931D01*
X944975D01*
Y1071181D01*
X944725D01*
Y1071432D01*
X944225D01*
Y1071682D01*
X943725D01*
Y1071932D01*
X943475D01*
Y1072182D01*
X942975D01*
Y1072432D01*
X942725D01*
Y1072682D01*
X942225D01*
Y1072932D01*
X941975D01*
Y1073182D01*
X941725D01*
Y1073432D01*
X941225D01*
Y1073682D01*
X940975D01*
Y1073932D01*
X940725D01*
Y1074182D01*
X940225D01*
Y1074432D01*
X939975D01*
Y1074682D01*
X939725D01*
Y1074932D01*
X939474D01*
Y1075182D01*
X939224D01*
Y1075432D01*
X938975D01*
Y1075682D01*
X938725D01*
Y1075932D01*
X938474D01*
Y1076182D01*
X938224D01*
Y1076432D01*
X937974D01*
Y1076682D01*
X937724D01*
Y1076932D01*
X937474D01*
Y1077182D01*
X937224D01*
Y1077432D01*
X936974D01*
Y1077682D01*
X936724D01*
Y1077932D01*
X936474D01*
Y1078182D01*
X936224D01*
Y1078432D01*
X935974D01*
Y1078932D01*
X935724D01*
Y1079183D01*
X935474D01*
Y1079433D01*
X935224D01*
Y1079683D01*
X934974D01*
Y1080183D01*
X934724D01*
Y1080433D01*
X934474D01*
Y1080683D01*
X934224D01*
Y1081183D01*
X933974D01*
Y1081433D01*
X933724D01*
Y1081933D01*
X933474D01*
Y1082183D01*
X933224D01*
Y1082433D01*
X932974D01*
Y1082933D01*
X932724D01*
Y1083183D01*
X932474D01*
Y1083683D01*
X932224D01*
Y1083933D01*
X931974D01*
Y1084433D01*
X931724D01*
Y1084683D01*
X931473D01*
Y1085183D01*
X931224D01*
Y1085433D01*
X930974D01*
Y1085933D01*
X930723D01*
Y1086183D01*
X930473D01*
Y1086684D01*
X930223D01*
Y1086934D01*
X929973D01*
Y1087184D01*
X929723D01*
Y1087684D01*
X929473D01*
Y1087934D01*
X929223D01*
Y1088434D01*
X928973D01*
Y1088684D01*
X928723D01*
Y1089184D01*
X928473D01*
Y1089434D01*
X928223D01*
Y1089934D01*
X927973D01*
Y1090184D01*
X927723D01*
Y1090684D01*
X927473D01*
Y1090934D01*
X927223D01*
Y1091184D01*
X926973D01*
Y1091684D01*
X926723D01*
Y1091934D01*
X926473D01*
Y1092184D01*
X926223D01*
Y1092434D01*
X925973D01*
Y1092934D01*
X925723D01*
Y1093184D01*
X925473D01*
Y1093434D01*
X925223D01*
Y1093684D01*
X924973D01*
Y1093934D01*
X924723D01*
Y1094184D01*
X924473D01*
Y1094434D01*
X924223D01*
Y1094685D01*
X923973D01*
Y1094934D01*
X923723D01*
Y1095184D01*
X923223D01*
Y1095434D01*
X922972D01*
Y1095685D01*
X922722D01*
Y1095935D01*
X922222D01*
Y1096185D01*
X921722D01*
Y1096435D01*
X921222D01*
Y1096685D01*
X920722D01*
Y1096935D01*
X919472D01*
Y1097185D01*
X918972D01*
Y1096935D01*
X916972D01*
Y1096685D01*
X916222D01*
Y1096435D01*
X915722D01*
Y1096185D01*
X915471D01*
Y1095935D01*
X915221D01*
Y1095685D01*
X914971D01*
Y1095434D01*
X914722D01*
Y1095184D01*
X913971D01*
Y1095434D01*
X913471D01*
Y1095685D01*
X912971D01*
Y1095935D01*
X912471D01*
Y1096185D01*
X911971D01*
Y1096435D01*
X911471D01*
Y1096685D01*
X910971D01*
Y1096935D01*
X910471D01*
Y1097185D01*
X909721D01*
Y1097435D01*
X909221D01*
Y1097685D01*
X908471D01*
Y1097935D01*
X907721D01*
Y1098185D01*
X906721D01*
Y1098435D01*
X905470D01*
Y1098685D01*
X902970D01*
Y1098935D01*
X902220D01*
Y1098685D01*
X899720D01*
Y1098435D01*
X898719D01*
Y1098185D01*
X897219D01*
Y1098435D01*
X896969D01*
Y1098685D01*
X896469D01*
Y1098935D01*
X896219D01*
Y1099185D01*
X895719D01*
Y1099435D01*
X895219D01*
Y1099685D01*
X894969D01*
Y1099935D01*
X894469D01*
Y1100185D01*
X893969D01*
Y1100435D01*
X893219D01*
Y1100685D01*
X892719D01*
Y1100935D01*
X892219D01*
Y1101185D01*
X891469D01*
Y1101435D01*
X890468D01*
Y1101685D01*
X888968D01*
Y1101935D01*
X885218D01*
Y1101685D01*
X883718D01*
Y1101435D01*
X883467D01*
Y1100435D01*
X883718D01*
Y1099935D01*
X883968D01*
Y1097685D01*
X883718D01*
Y1096935D01*
X883467D01*
Y1096435D01*
X883217D01*
Y1095935D01*
X882968D01*
Y1095434D01*
X882718D01*
Y1095184D01*
X882467D01*
Y1094934D01*
X882217D01*
Y1094685D01*
X881967D01*
Y1094434D01*
X881717D01*
Y1094184D01*
X881217D01*
Y1093934D01*
X880967D01*
Y1093684D01*
X880467D01*
Y1093434D01*
X879967D01*
Y1093184D01*
X879217D01*
Y1092934D01*
X876967D01*
Y1093184D01*
X876217D01*
Y1093434D01*
X875467D01*
Y1093684D01*
X874967D01*
Y1093934D01*
X874716D01*
Y1094184D01*
X874466D01*
Y1094434D01*
X874216D01*
Y1094685D01*
X873966D01*
Y1094934D01*
X873716D01*
Y1095184D01*
X873466D01*
Y1095434D01*
X873216D01*
Y1095685D01*
X872966D01*
Y1096185D01*
X872716D01*
Y1096685D01*
X872466D01*
Y1097435D01*
X872216D01*
Y1100185D01*
X872466D01*
Y1100935D01*
X872716D01*
Y1101685D01*
X872966D01*
Y1102185D01*
X873216D01*
Y1102685D01*
X873466D01*
Y1103186D01*
X873716D01*
Y1103436D01*
X873966D01*
Y1103936D01*
X874216D01*
Y1104186D01*
X874466D01*
Y1104436D01*
X874716D01*
Y1104936D01*
X874967D01*
Y1105186D01*
X875217D01*
Y1105436D01*
X875467D01*
Y1105686D01*
X875717D01*
Y1105936D01*
X875967D01*
Y1106186D01*
X876217D01*
Y1106436D01*
X876467D01*
Y1106686D01*
X876717D01*
Y1106936D01*
X876967D01*
Y1107186D01*
X877467D01*
Y1107436D01*
X877717D01*
Y1107686D01*
X877967D01*
Y1107936D01*
X878467D01*
Y1108186D01*
X878717D01*
Y1108436D01*
X879217D01*
Y1108686D01*
X879717D01*
Y1108936D01*
X880217D01*
Y1109186D01*
X880717D01*
Y1109436D01*
X881217D01*
Y1109686D01*
X881717D01*
Y1109936D01*
X882467D01*
Y1110186D01*
X883217D01*
Y1110436D01*
X883968D01*
Y1110686D01*
X884968D01*
Y1110937D01*
X885968D01*
Y1111187D01*
X889718D01*
Y1111436D01*
X895469D01*
Y1111187D01*
D02*
G37*
G36*
X845463Y1092934D02*
X847463D01*
Y1092684D01*
X848713D01*
Y1092434D01*
X849963D01*
Y1092184D01*
X850964D01*
Y1091934D01*
X851714D01*
Y1091684D01*
X852464D01*
Y1091434D01*
X853214D01*
Y1091184D01*
X853964D01*
Y1090934D01*
X854464D01*
Y1090684D01*
X855214D01*
Y1090434D01*
X855714D01*
Y1090184D01*
X856214D01*
Y1089934D01*
X856714D01*
Y1089684D01*
X857214D01*
Y1089434D01*
X857714D01*
Y1089184D01*
X858214D01*
Y1088934D01*
X858715D01*
Y1088684D01*
X858964D01*
Y1088434D01*
X859464D01*
Y1088184D01*
X859965D01*
Y1087934D01*
X860215D01*
Y1087684D01*
X860715D01*
Y1087433D01*
X860965D01*
Y1087184D01*
X861215D01*
Y1086934D01*
X861715D01*
Y1086684D01*
X861965D01*
Y1086433D01*
X862465D01*
Y1086183D01*
X862715D01*
Y1085933D01*
X862965D01*
Y1085683D01*
X863215D01*
Y1085433D01*
X863465D01*
Y1085183D01*
X863965D01*
Y1084933D01*
X864215D01*
Y1084683D01*
X864465D01*
Y1084433D01*
X864715D01*
Y1084183D01*
X864965D01*
Y1083933D01*
X865465D01*
Y1084183D01*
X865715D01*
Y1084933D01*
X865965D01*
Y1085683D01*
X866215D01*
Y1085933D01*
X866465D01*
Y1086183D01*
X866715D01*
Y1086433D01*
X866965D01*
Y1086684D01*
X867716D01*
Y1086934D01*
X869466D01*
Y1086684D01*
X870216D01*
Y1086433D01*
X870466D01*
Y1086183D01*
X870966D01*
Y1085933D01*
X871216D01*
Y1085683D01*
X871466D01*
Y1085433D01*
X871716D01*
Y1085183D01*
X871966D01*
Y1084933D01*
X872216D01*
Y1084683D01*
X872466D01*
Y1084433D01*
X872716D01*
Y1083933D01*
X872966D01*
Y1083683D01*
X873216D01*
Y1083433D01*
X873466D01*
Y1083183D01*
X873716D01*
Y1082683D01*
X873966D01*
Y1082433D01*
X874216D01*
Y1082183D01*
X874466D01*
Y1081933D01*
X874716D01*
Y1081433D01*
X874967D01*
Y1081183D01*
X875217D01*
Y1080933D01*
X875467D01*
Y1080683D01*
X875717D01*
Y1080433D01*
X875967D01*
Y1079933D01*
X876217D01*
Y1079683D01*
X876467D01*
Y1079433D01*
X876717D01*
Y1079183D01*
X876967D01*
Y1078932D01*
X877217D01*
Y1078682D01*
X877467D01*
Y1078432D01*
X877717D01*
Y1078182D01*
X878217D01*
Y1077932D01*
X878467D01*
Y1077682D01*
X878717D01*
Y1077432D01*
X878967D01*
Y1077182D01*
X879217D01*
Y1076932D01*
X879717D01*
Y1076682D01*
X879967D01*
Y1076432D01*
X880217D01*
Y1076182D01*
X880467D01*
Y1075932D01*
X880967D01*
Y1075682D01*
X881217D01*
Y1075432D01*
X881717D01*
Y1075182D01*
X881967D01*
Y1074932D01*
X882467D01*
Y1074682D01*
X882718D01*
Y1074432D01*
X883217D01*
Y1074182D01*
X883718D01*
Y1073932D01*
X884218D01*
Y1073682D01*
X884468D01*
Y1073432D01*
X884968D01*
Y1073182D01*
X885468D01*
Y1072932D01*
X885968D01*
Y1072682D01*
X886468D01*
Y1072432D01*
X887218D01*
Y1072182D01*
X887718D01*
Y1071932D01*
X888468D01*
Y1071682D01*
X888968D01*
Y1071432D01*
X889718D01*
Y1070682D01*
X889468D01*
Y1069681D01*
X889218D01*
Y1068681D01*
X888968D01*
Y1067931D01*
X888718D01*
Y1067181D01*
X888468D01*
Y1066431D01*
X888218D01*
Y1065681D01*
X887968D01*
Y1065181D01*
X887718D01*
Y1064681D01*
X887468D01*
Y1064181D01*
X887218D01*
Y1063681D01*
X886968D01*
Y1063180D01*
X886718D01*
Y1062681D01*
X886468D01*
Y1062180D01*
X886218D01*
Y1061680D01*
X885968D01*
Y1061430D01*
X885718D01*
Y1060930D01*
X885468D01*
Y1060430D01*
X885218D01*
Y1060180D01*
X884968D01*
Y1059680D01*
X884718D01*
Y1059430D01*
X884468D01*
Y1059180D01*
X884218D01*
Y1058680D01*
X883968D01*
Y1058430D01*
X883718D01*
Y1058180D01*
X883467D01*
Y1057680D01*
X883217D01*
Y1057430D01*
X882968D01*
Y1057180D01*
X882718D01*
Y1056930D01*
X882467D01*
Y1056680D01*
X882217D01*
Y1056430D01*
X881967D01*
Y1056180D01*
X881717D01*
Y1055680D01*
X881467D01*
Y1055430D01*
X881217D01*
Y1055180D01*
X880967D01*
Y1054930D01*
X880717D01*
Y1054679D01*
X880217D01*
Y1054429D01*
X879967D01*
Y1054179D01*
X879717D01*
Y1053929D01*
X879467D01*
Y1053679D01*
X879217D01*
Y1053429D01*
X878967D01*
Y1053179D01*
X878717D01*
Y1052929D01*
X878217D01*
Y1052679D01*
X877967D01*
Y1052429D01*
X877717D01*
Y1052179D01*
X877217D01*
Y1051929D01*
X876967D01*
Y1051679D01*
X876467D01*
Y1051429D01*
X876217D01*
Y1051179D01*
X875717D01*
Y1050929D01*
X875467D01*
Y1050679D01*
X874967D01*
Y1050429D01*
X874466D01*
Y1050179D01*
X874216D01*
Y1049929D01*
X873716D01*
Y1049679D01*
X873216D01*
Y1049429D01*
X872716D01*
Y1049179D01*
X872216D01*
Y1048929D01*
X871466D01*
Y1048679D01*
X870966D01*
Y1048429D01*
X870466D01*
Y1048179D01*
X869716D01*
Y1047929D01*
X868966D01*
Y1047679D01*
X867716D01*
Y1047929D01*
X866465D01*
Y1048179D01*
X865465D01*
Y1048429D01*
X864465D01*
Y1048679D01*
X863465D01*
Y1048929D01*
X862465D01*
Y1049179D01*
X861465D01*
Y1049429D01*
X860465D01*
Y1049679D01*
X859715D01*
Y1049929D01*
X858715D01*
Y1050179D01*
X857964D01*
Y1050429D01*
X857214D01*
Y1050679D01*
X856464D01*
Y1050929D01*
X855714D01*
Y1051179D01*
X855214D01*
Y1051429D01*
X855464D01*
Y1051679D01*
X855714D01*
Y1051929D01*
X856214D01*
Y1052179D01*
X856464D01*
Y1052429D01*
X856714D01*
Y1052679D01*
X856964D01*
Y1053179D01*
X857214D01*
Y1053429D01*
X857464D01*
Y1053679D01*
X857714D01*
Y1053929D01*
X857964D01*
Y1054429D01*
X858214D01*
Y1054679D01*
X858464D01*
Y1055180D01*
X858715D01*
Y1055680D01*
X858964D01*
Y1056180D01*
X859214D01*
Y1056680D01*
X859464D01*
Y1057430D01*
X859715D01*
Y1058180D01*
X859965D01*
Y1059180D01*
X860215D01*
Y1060680D01*
X860465D01*
Y1063681D01*
X860215D01*
Y1065431D01*
X859965D01*
Y1066181D01*
X859715D01*
Y1066931D01*
X859464D01*
Y1067681D01*
X859214D01*
Y1067931D01*
X858715D01*
Y1067681D01*
X858464D01*
Y1067431D01*
X858214D01*
Y1066931D01*
X858464D01*
Y1066181D01*
X858715D01*
Y1065431D01*
X858964D01*
Y1064181D01*
X859214D01*
Y1060680D01*
X858964D01*
Y1059430D01*
X858715D01*
Y1058680D01*
X858464D01*
Y1057930D01*
X858214D01*
Y1057180D01*
X857964D01*
Y1056680D01*
X857714D01*
Y1056180D01*
X857464D01*
Y1055680D01*
X857214D01*
Y1055430D01*
X856964D01*
Y1054930D01*
X856714D01*
Y1054679D01*
X856464D01*
Y1054429D01*
X856214D01*
Y1054179D01*
X855964D01*
Y1053929D01*
X855714D01*
Y1053679D01*
X855464D01*
Y1053429D01*
X855214D01*
Y1053179D01*
X854964D01*
Y1052929D01*
X854714D01*
Y1052679D01*
X854214D01*
Y1052429D01*
X853964D01*
Y1052179D01*
X853464D01*
Y1051929D01*
X852714D01*
Y1052179D01*
X851964D01*
Y1052429D01*
X851463D01*
Y1052679D01*
X850714D01*
Y1052929D01*
X849963D01*
Y1053179D01*
X849463D01*
Y1053429D01*
X848713D01*
Y1053679D01*
X848213D01*
Y1053929D01*
X847463D01*
Y1054179D01*
X846963D01*
Y1054429D01*
X846213D01*
Y1054679D01*
X845463D01*
Y1054930D01*
X844963D01*
Y1055180D01*
X844213D01*
Y1055430D01*
X843713D01*
Y1055680D01*
X843463D01*
Y1055930D01*
X843963D01*
Y1056180D01*
X844463D01*
Y1056430D01*
X844713D01*
Y1056680D01*
X845213D01*
Y1056930D01*
X845463D01*
Y1057180D01*
X845713D01*
Y1057430D01*
X845963D01*
Y1057680D01*
X846213D01*
Y1057930D01*
X846463D01*
Y1058430D01*
X846713D01*
Y1058680D01*
X846963D01*
Y1059180D01*
X847213D01*
Y1059680D01*
X847463D01*
Y1060180D01*
X847713D01*
Y1060680D01*
X847963D01*
Y1061430D01*
X848213D01*
Y1062681D01*
X848463D01*
Y1066431D01*
X848213D01*
Y1067431D01*
X847963D01*
Y1068181D01*
X847713D01*
Y1068931D01*
X847463D01*
Y1069681D01*
X847213D01*
Y1070181D01*
X846963D01*
Y1070682D01*
X846713D01*
Y1071181D01*
X846463D01*
Y1071432D01*
X846213D01*
Y1071932D01*
X845963D01*
Y1072432D01*
X845713D01*
Y1072682D01*
X845463D01*
Y1073182D01*
X845213D01*
Y1073432D01*
X844963D01*
Y1073932D01*
X844713D01*
Y1074182D01*
X844463D01*
Y1074432D01*
X845463D01*
Y1074182D01*
X846713D01*
Y1073932D01*
X848713D01*
Y1074182D01*
X849963D01*
Y1074432D01*
X850714D01*
Y1074682D01*
X851214D01*
Y1074932D01*
X851714D01*
Y1075182D01*
X851964D01*
Y1075432D01*
X852464D01*
Y1075682D01*
X852714D01*
Y1075932D01*
X852964D01*
Y1076182D01*
X853214D01*
Y1076682D01*
X853464D01*
Y1076932D01*
X853714D01*
Y1077432D01*
X853964D01*
Y1078182D01*
X854214D01*
Y1080183D01*
X853964D01*
Y1080933D01*
X854214D01*
Y1080683D01*
X854464D01*
Y1080433D01*
X854964D01*
Y1080183D01*
X855464D01*
Y1079933D01*
X855714D01*
Y1079683D01*
X856214D01*
Y1079433D01*
X856464D01*
Y1079183D01*
X856964D01*
Y1078932D01*
X857214D01*
Y1078682D01*
X857714D01*
Y1078432D01*
X857964D01*
Y1078182D01*
X858214D01*
Y1077932D01*
X858715D01*
Y1077682D01*
X858964D01*
Y1077432D01*
X859214D01*
Y1077182D01*
X859715D01*
Y1076932D01*
X859965D01*
Y1076682D01*
X860215D01*
Y1076432D01*
X860465D01*
Y1076182D01*
X860965D01*
Y1075932D01*
X861215D01*
Y1075682D01*
X861465D01*
Y1075432D01*
X861715D01*
Y1075182D01*
X861965D01*
Y1074932D01*
X862215D01*
Y1074682D01*
X862465D01*
Y1074432D01*
X862715D01*
Y1074182D01*
X862965D01*
Y1073932D01*
X863215D01*
Y1073682D01*
X863465D01*
Y1073432D01*
X863715D01*
Y1073182D01*
X863965D01*
Y1072932D01*
X864215D01*
Y1072682D01*
X864465D01*
Y1072432D01*
X864715D01*
Y1072182D01*
X864965D01*
Y1071932D01*
X865215D01*
Y1071682D01*
X865465D01*
Y1071181D01*
X865715D01*
Y1070931D01*
X865965D01*
Y1070682D01*
X866215D01*
Y1070431D01*
X866465D01*
Y1069931D01*
X866715D01*
Y1069681D01*
X866965D01*
Y1069431D01*
X867215D01*
Y1068931D01*
X867466D01*
Y1068681D01*
X867716D01*
Y1068181D01*
X867966D01*
Y1067931D01*
X868216D01*
Y1067431D01*
X868466D01*
Y1066931D01*
X868716D01*
Y1066681D01*
X868966D01*
Y1066181D01*
X869216D01*
Y1065681D01*
X869466D01*
Y1065181D01*
X869716D01*
Y1064681D01*
X869966D01*
Y1064181D01*
X870216D01*
Y1063681D01*
X870466D01*
Y1062931D01*
X870716D01*
Y1062430D01*
X870966D01*
Y1061680D01*
X871216D01*
Y1060930D01*
X871466D01*
Y1060180D01*
X871716D01*
Y1059430D01*
X871966D01*
Y1058180D01*
X872216D01*
Y1053679D01*
X871966D01*
Y1053179D01*
X872466D01*
Y1053429D01*
X872716D01*
Y1054179D01*
X872966D01*
Y1055430D01*
X873216D01*
Y1058180D01*
X872966D01*
Y1059680D01*
X872716D01*
Y1060680D01*
X872466D01*
Y1061680D01*
X872216D01*
Y1062430D01*
X871966D01*
Y1062931D01*
X871716D01*
Y1063681D01*
X871466D01*
Y1064431D01*
X871216D01*
Y1064931D01*
X870966D01*
Y1065431D01*
X870716D01*
Y1065931D01*
X870466D01*
Y1066431D01*
X870216D01*
Y1066931D01*
X869966D01*
Y1067431D01*
X869716D01*
Y1067931D01*
X869466D01*
Y1068181D01*
X869216D01*
Y1068681D01*
X868966D01*
Y1069181D01*
X868716D01*
Y1069431D01*
X868466D01*
Y1069931D01*
X868216D01*
Y1070181D01*
X867966D01*
Y1070682D01*
X867716D01*
Y1070931D01*
X867466D01*
Y1071181D01*
X867215D01*
Y1071682D01*
X866965D01*
Y1071932D01*
X866715D01*
Y1072182D01*
X866465D01*
Y1072682D01*
X866215D01*
Y1072932D01*
X865965D01*
Y1073182D01*
X865715D01*
Y1073432D01*
X865465D01*
Y1073682D01*
X865215D01*
Y1073932D01*
X864965D01*
Y1074182D01*
X864715D01*
Y1074432D01*
X864465D01*
Y1074932D01*
X864215D01*
Y1075182D01*
X863965D01*
Y1075432D01*
X863715D01*
Y1075682D01*
X863215D01*
Y1075932D01*
X862965D01*
Y1076182D01*
X862715D01*
Y1076432D01*
X862465D01*
Y1076682D01*
X862215D01*
Y1076932D01*
X861965D01*
Y1077182D01*
X861715D01*
Y1077432D01*
X861465D01*
Y1077682D01*
X860965D01*
Y1077932D01*
X860715D01*
Y1078182D01*
X860465D01*
Y1078432D01*
X860215D01*
Y1078682D01*
X859715D01*
Y1078932D01*
X859464D01*
Y1079183D01*
X859214D01*
Y1079433D01*
X858715D01*
Y1079683D01*
X858464D01*
Y1079933D01*
X857964D01*
Y1080183D01*
X857714D01*
Y1080433D01*
X857214D01*
Y1080683D01*
X856964D01*
Y1080933D01*
X856464D01*
Y1081183D01*
X855964D01*
Y1081433D01*
X855464D01*
Y1081683D01*
X855214D01*
Y1081933D01*
X854714D01*
Y1082183D01*
X854214D01*
Y1082433D01*
X853714D01*
Y1082683D01*
X853464D01*
Y1082933D01*
X852964D01*
Y1083183D01*
X852464D01*
Y1083433D01*
X851964D01*
Y1083683D01*
X851463D01*
Y1083933D01*
X850964D01*
Y1084183D01*
X850463D01*
Y1084433D01*
X849963D01*
Y1084683D01*
X849463D01*
Y1084933D01*
X848713D01*
Y1085183D01*
X847713D01*
Y1085433D01*
X845463D01*
Y1085183D01*
X844713D01*
Y1084933D01*
X844463D01*
Y1084683D01*
X843963D01*
Y1084433D01*
X843713D01*
Y1083933D01*
X843463D01*
Y1083683D01*
X843213D01*
Y1082933D01*
X842962D01*
Y1081683D01*
X843213D01*
Y1081183D01*
X843463D01*
Y1080683D01*
X843713D01*
Y1080433D01*
X843963D01*
Y1080183D01*
X844213D01*
Y1079933D01*
X844463D01*
Y1079683D01*
X844963D01*
Y1079433D01*
X845463D01*
Y1079183D01*
X847213D01*
Y1079433D01*
X847463D01*
Y1079933D01*
X847213D01*
Y1080183D01*
X846713D01*
Y1080433D01*
X846213D01*
Y1080683D01*
X845463D01*
Y1080933D01*
X845213D01*
Y1081183D01*
X844713D01*
Y1081433D01*
X844463D01*
Y1081933D01*
X844213D01*
Y1082683D01*
X844463D01*
Y1083183D01*
X844713D01*
Y1083683D01*
X845213D01*
Y1083933D01*
X845463D01*
Y1084183D01*
X847963D01*
Y1083933D01*
X848713D01*
Y1083683D01*
X849213D01*
Y1083433D01*
X849713D01*
Y1083183D01*
X850213D01*
Y1082933D01*
X850463D01*
Y1082683D01*
X850964D01*
Y1082433D01*
X851214D01*
Y1082183D01*
X851463D01*
Y1081933D01*
X851714D01*
Y1081683D01*
X851964D01*
Y1081433D01*
X852214D01*
Y1081183D01*
X852464D01*
Y1080683D01*
X852714D01*
Y1080183D01*
X852964D01*
Y1078182D01*
X852714D01*
Y1077682D01*
X852464D01*
Y1077182D01*
X852214D01*
Y1076932D01*
X851964D01*
Y1076682D01*
X851714D01*
Y1076432D01*
X851463D01*
Y1076182D01*
X850964D01*
Y1075932D01*
X850463D01*
Y1075682D01*
X849963D01*
Y1075432D01*
X848963D01*
Y1075182D01*
X846213D01*
Y1075432D01*
X845213D01*
Y1075682D01*
X844463D01*
Y1075932D01*
X843963D01*
Y1076182D01*
X843463D01*
Y1076432D01*
X843213D01*
Y1076682D01*
X842962D01*
Y1077182D01*
X842712D01*
Y1077432D01*
X842462D01*
Y1077682D01*
X841712D01*
Y1077432D01*
X841462D01*
Y1076432D01*
X841712D01*
Y1076182D01*
X841962D01*
Y1075682D01*
X842212D01*
Y1075182D01*
X842462D01*
Y1073682D01*
X842212D01*
Y1072932D01*
X841962D01*
Y1072432D01*
X841712D01*
Y1071932D01*
X841462D01*
Y1071682D01*
X840962D01*
Y1071432D01*
X840712D01*
Y1071181D01*
X840462D01*
Y1070931D01*
X839962D01*
Y1070682D01*
X839462D01*
Y1070431D01*
X838712D01*
Y1070181D01*
X835712D01*
Y1070431D01*
X834961D01*
Y1070682D01*
X834211D01*
Y1070931D01*
X833711D01*
Y1071181D01*
X833211D01*
Y1071432D01*
X832961D01*
Y1071682D01*
X832461D01*
Y1071932D01*
X832211D01*
Y1072182D01*
X831961D01*
Y1072432D01*
X831711D01*
Y1072682D01*
X831461D01*
Y1072932D01*
X831211D01*
Y1073182D01*
X830961D01*
Y1073432D01*
X830711D01*
Y1073932D01*
X830461D01*
Y1074182D01*
X830211D01*
Y1074682D01*
X829961D01*
Y1075182D01*
X829711D01*
Y1075932D01*
X829461D01*
Y1076682D01*
X829211D01*
Y1079683D01*
X829461D01*
Y1080683D01*
X829711D01*
Y1081183D01*
X829961D01*
Y1081933D01*
X830211D01*
Y1082183D01*
X830461D01*
Y1082683D01*
X830711D01*
Y1082933D01*
X830961D01*
Y1083433D01*
X831211D01*
Y1083683D01*
X831461D01*
Y1083933D01*
X831711D01*
Y1084183D01*
X831961D01*
Y1084433D01*
X832211D01*
Y1084683D01*
X832461D01*
Y1084933D01*
X832961D01*
Y1085183D01*
X833211D01*
Y1085433D01*
X833711D01*
Y1085683D01*
X834211D01*
Y1085933D01*
X834961D01*
Y1086183D01*
X835712D01*
Y1086433D01*
X838712D01*
Y1087684D01*
X838212D01*
Y1087934D01*
X837962D01*
Y1088434D01*
X837712D01*
Y1088934D01*
X837462D01*
Y1090184D01*
X837712D01*
Y1090934D01*
X837962D01*
Y1091434D01*
X838212D01*
Y1091684D01*
X838462D01*
Y1091934D01*
X838712D01*
Y1092184D01*
X839212D01*
Y1092434D01*
X839712D01*
Y1092684D01*
X840462D01*
Y1092934D01*
X841462D01*
Y1093184D01*
X845463D01*
Y1092934D01*
D02*
G37*
G36*
X902970Y1096935D02*
X905220D01*
Y1096685D01*
X906470D01*
Y1096435D01*
X907470D01*
Y1096185D01*
X908221D01*
Y1095935D01*
X908971D01*
Y1095685D01*
X909471D01*
Y1095434D01*
X910221D01*
Y1095184D01*
X910721D01*
Y1094934D01*
X911221D01*
Y1094685D01*
X911721D01*
Y1094434D01*
X912221D01*
Y1094184D01*
X912721D01*
Y1093934D01*
X913221D01*
Y1093684D01*
X913471D01*
Y1093434D01*
X913971D01*
Y1093184D01*
X914471D01*
Y1092934D01*
X914971D01*
Y1093184D01*
X915471D01*
Y1093684D01*
X915722D01*
Y1093934D01*
X915972D01*
Y1094184D01*
X916222D01*
Y1094434D01*
X916472D01*
Y1094685D01*
X916972D01*
Y1094934D01*
X917472D01*
Y1095184D01*
X919722D01*
Y1094934D01*
X920472D01*
Y1094685D01*
X920972D01*
Y1094434D01*
X921222D01*
Y1094184D01*
X921722D01*
Y1093934D01*
X921972D01*
Y1093684D01*
X922222D01*
Y1093434D01*
X922722D01*
Y1093184D01*
X922972D01*
Y1092934D01*
X923223D01*
Y1092684D01*
X923473D01*
Y1092434D01*
X923723D01*
Y1091934D01*
X923973D01*
Y1091684D01*
X924223D01*
Y1091434D01*
X924473D01*
Y1091184D01*
X924723D01*
Y1090934D01*
X924973D01*
Y1090434D01*
X925223D01*
Y1090184D01*
X925473D01*
Y1089934D01*
X925723D01*
Y1089684D01*
X925973D01*
Y1089184D01*
X926223D01*
Y1088934D01*
X926473D01*
Y1088684D01*
X926723D01*
Y1088184D01*
X926973D01*
Y1087934D01*
X927223D01*
Y1087684D01*
X927473D01*
Y1087184D01*
X927723D01*
Y1086934D01*
X927973D01*
Y1086433D01*
X928223D01*
Y1086183D01*
X928473D01*
Y1085683D01*
X928723D01*
Y1085433D01*
X928973D01*
Y1085183D01*
X929223D01*
Y1084683D01*
X929473D01*
Y1084433D01*
X929723D01*
Y1083933D01*
X929973D01*
Y1083683D01*
X930223D01*
Y1083183D01*
X930473D01*
Y1082933D01*
X930723D01*
Y1082433D01*
X930974D01*
Y1082183D01*
X931224D01*
Y1081933D01*
X931473D01*
Y1081433D01*
X931724D01*
Y1081183D01*
X931974D01*
Y1080683D01*
X932224D01*
Y1080433D01*
X932474D01*
Y1080183D01*
X932724D01*
Y1079683D01*
X932974D01*
Y1079433D01*
X933224D01*
Y1078932D01*
X933474D01*
Y1078682D01*
X933724D01*
Y1078432D01*
X933974D01*
Y1078182D01*
X934224D01*
Y1077682D01*
X934474D01*
Y1077432D01*
X934724D01*
Y1077182D01*
X934974D01*
Y1076932D01*
X935224D01*
Y1076682D01*
X935474D01*
Y1076182D01*
X935724D01*
Y1075932D01*
X935974D01*
Y1075682D01*
X936224D01*
Y1075432D01*
X936474D01*
Y1075182D01*
X936724D01*
Y1074932D01*
X936974D01*
Y1074682D01*
X937224D01*
Y1074432D01*
X937474D01*
Y1074182D01*
X937724D01*
Y1073932D01*
X937974D01*
Y1073682D01*
X938224D01*
Y1073432D01*
X938474D01*
Y1073182D01*
X938725D01*
Y1072932D01*
X939224D01*
Y1072682D01*
X939474D01*
Y1072432D01*
X939725D01*
Y1072182D01*
X939975D01*
Y1071932D01*
X940475D01*
Y1071682D01*
X940725D01*
Y1071432D01*
X940975D01*
Y1071181D01*
X941475D01*
Y1070931D01*
X941725D01*
Y1070682D01*
X942225D01*
Y1070431D01*
X942475D01*
Y1070181D01*
X942975D01*
Y1069931D01*
X943225D01*
Y1069681D01*
X943725D01*
Y1069431D01*
X944225D01*
Y1069181D01*
X944725D01*
Y1068931D01*
X945225D01*
Y1068681D01*
X945725D01*
Y1068431D01*
X946225D01*
Y1068181D01*
X946725D01*
Y1067931D01*
X947225D01*
Y1067681D01*
X947726D01*
Y1067431D01*
X948226D01*
Y1067181D01*
X948976D01*
Y1066931D01*
X949726D01*
Y1066681D01*
X950226D01*
Y1066431D01*
X950976D01*
Y1066181D01*
X951976D01*
Y1065931D01*
X952976D01*
Y1065681D01*
X953976D01*
Y1065431D01*
X955227D01*
Y1065181D01*
X956727D01*
Y1064931D01*
X958477D01*
Y1064681D01*
X958227D01*
Y1064431D01*
X957977D01*
Y1064181D01*
X957477D01*
Y1063931D01*
X957227D01*
Y1063681D01*
X956727D01*
Y1063430D01*
X956227D01*
Y1063180D01*
X955727D01*
Y1062931D01*
X955227D01*
Y1062681D01*
X954726D01*
Y1062430D01*
X954476D01*
Y1062180D01*
X953976D01*
Y1061930D01*
X953476D01*
Y1061680D01*
X952976D01*
Y1061430D01*
X952726D01*
Y1061180D01*
X952226D01*
Y1060930D01*
X951726D01*
Y1060680D01*
X951226D01*
Y1060430D01*
X950726D01*
Y1060180D01*
X950226D01*
Y1059930D01*
X949976D01*
Y1059680D01*
X949476D01*
Y1059430D01*
X948976D01*
Y1059180D01*
X948476D01*
Y1058930D01*
X947976D01*
Y1058680D01*
X947476D01*
Y1058430D01*
X946975D01*
Y1058180D01*
X946475D01*
Y1057930D01*
X945975D01*
Y1057680D01*
X945725D01*
Y1057430D01*
X945225D01*
Y1057180D01*
X944725D01*
Y1056930D01*
X944225D01*
Y1056680D01*
X943725D01*
Y1056430D01*
X943225D01*
Y1056180D01*
X942725D01*
Y1055930D01*
X942225D01*
Y1055680D01*
X941725D01*
Y1055430D01*
X940975D01*
Y1055180D01*
X940475D01*
Y1054930D01*
X939725D01*
Y1054679D01*
X938975D01*
Y1054429D01*
X938474D01*
Y1054179D01*
X937724D01*
Y1053929D01*
X937224D01*
Y1053679D01*
X936474D01*
Y1053429D01*
X935974D01*
Y1053179D01*
X935224D01*
Y1052929D01*
X934474D01*
Y1052679D01*
X933974D01*
Y1052429D01*
X933224D01*
Y1052179D01*
X932474D01*
Y1051929D01*
X931724D01*
Y1051679D01*
X930974D01*
Y1051429D01*
X930473D01*
Y1051179D01*
X929973D01*
Y1051679D01*
X930223D01*
Y1052429D01*
X930473D01*
Y1053179D01*
X930723D01*
Y1054179D01*
X930974D01*
Y1055430D01*
X931224D01*
Y1056930D01*
X931473D01*
Y1062180D01*
X931224D01*
Y1063681D01*
X930974D01*
Y1064931D01*
X930723D01*
Y1065681D01*
X930473D01*
Y1066431D01*
X930223D01*
Y1067181D01*
X929973D01*
Y1067931D01*
X929723D01*
Y1068431D01*
X929473D01*
Y1068931D01*
X928723D01*
Y1068681D01*
X928473D01*
Y1067931D01*
X928723D01*
Y1067181D01*
X928973D01*
Y1066681D01*
X929223D01*
Y1065931D01*
X929473D01*
Y1065181D01*
X929723D01*
Y1064181D01*
X929973D01*
Y1062681D01*
X930223D01*
Y1059930D01*
X930473D01*
Y1059430D01*
X930223D01*
Y1056430D01*
X929973D01*
Y1055180D01*
X929723D01*
Y1054179D01*
X929473D01*
Y1053429D01*
X929223D01*
Y1052679D01*
X928973D01*
Y1051929D01*
X928723D01*
Y1051429D01*
X928473D01*
Y1050929D01*
X928223D01*
Y1050679D01*
X927973D01*
Y1050429D01*
X927223D01*
Y1050179D01*
X926473D01*
Y1049929D01*
X925473D01*
Y1049679D01*
X924723D01*
Y1049429D01*
X923723D01*
Y1049179D01*
X922972D01*
Y1048929D01*
X921972D01*
Y1048679D01*
X920972D01*
Y1048429D01*
X919972D01*
Y1048179D01*
X918722D01*
Y1047929D01*
X917722D01*
Y1047679D01*
X916472D01*
Y1047429D01*
X914971D01*
Y1047178D01*
X914221D01*
Y1047429D01*
X914471D01*
Y1047679D01*
X914722D01*
Y1048179D01*
X914971D01*
Y1048679D01*
X915221D01*
Y1048929D01*
X915471D01*
Y1049429D01*
X915722D01*
Y1049929D01*
X915972D01*
Y1050429D01*
X916222D01*
Y1050929D01*
X916472D01*
Y1051679D01*
X916722D01*
Y1052179D01*
X916972D01*
Y1052929D01*
X917222D01*
Y1053679D01*
X917472D01*
Y1054679D01*
X917722D01*
Y1055430D01*
X917972D01*
Y1056680D01*
X918222D01*
Y1058430D01*
X918472D01*
Y1064431D01*
X918222D01*
Y1066181D01*
X917972D01*
Y1067431D01*
X917722D01*
Y1068431D01*
X917472D01*
Y1069181D01*
X917222D01*
Y1069931D01*
X916972D01*
Y1070682D01*
X916722D01*
Y1071181D01*
X916472D01*
Y1071682D01*
X916222D01*
Y1072432D01*
X915972D01*
Y1072682D01*
X915722D01*
Y1073182D01*
X915471D01*
Y1073682D01*
X915221D01*
Y1074182D01*
X914971D01*
Y1074432D01*
X914722D01*
Y1074932D01*
X914471D01*
Y1075182D01*
X914221D01*
Y1075682D01*
X913971D01*
Y1075932D01*
X913721D01*
Y1076182D01*
X913471D01*
Y1076682D01*
X913221D01*
Y1076932D01*
X912971D01*
Y1077182D01*
X912721D01*
Y1077432D01*
X912471D01*
Y1077682D01*
X912221D01*
Y1077932D01*
X911971D01*
Y1078432D01*
X911721D01*
Y1078682D01*
X911471D01*
Y1078932D01*
X911221D01*
Y1079183D01*
X910971D01*
Y1079433D01*
X910721D01*
Y1079683D01*
X910471D01*
Y1079933D01*
X910221D01*
Y1080183D01*
X909971D01*
Y1080433D01*
X909721D01*
Y1080683D01*
X909471D01*
Y1080933D01*
X909221D01*
Y1081183D01*
X908971D01*
Y1081433D01*
X908471D01*
Y1081683D01*
X908221D01*
Y1081933D01*
X907971D01*
Y1082183D01*
X907721D01*
Y1082433D01*
X907470D01*
Y1082683D01*
X907221D01*
Y1082933D01*
X906971D01*
Y1083183D01*
X906470D01*
Y1083433D01*
X906220D01*
Y1083683D01*
X905970D01*
Y1083933D01*
X905720D01*
Y1084183D01*
X905220D01*
Y1084433D01*
X904970D01*
Y1084683D01*
X904720D01*
Y1084933D01*
X904220D01*
Y1085183D01*
X903720D01*
Y1085433D01*
X903470D01*
Y1085683D01*
X903220D01*
Y1085933D01*
X902720D01*
Y1086183D01*
X901970D01*
Y1085933D01*
X901720D01*
Y1085183D01*
X901970D01*
Y1084933D01*
X902220D01*
Y1084683D01*
X902470D01*
Y1084433D01*
X902720D01*
Y1084183D01*
X902970D01*
Y1083933D01*
X903220D01*
Y1083433D01*
X903470D01*
Y1082433D01*
X903720D01*
Y1081683D01*
X903470D01*
Y1080683D01*
X903220D01*
Y1079933D01*
X902970D01*
Y1079683D01*
X902720D01*
Y1079433D01*
X902470D01*
Y1079183D01*
X902220D01*
Y1078932D01*
X901970D01*
Y1078682D01*
X901720D01*
Y1078432D01*
X900970D01*
Y1078182D01*
X900220D01*
Y1077932D01*
X898219D01*
Y1078182D01*
X897219D01*
Y1078432D01*
X896469D01*
Y1078682D01*
X895969D01*
Y1078932D01*
X895719D01*
Y1079183D01*
X895219D01*
Y1079433D01*
X894969D01*
Y1079683D01*
X894719D01*
Y1079933D01*
X894469D01*
Y1080183D01*
X894219D01*
Y1080433D01*
X893969D01*
Y1080683D01*
X893719D01*
Y1080933D01*
X893469D01*
Y1081183D01*
X893219D01*
Y1081683D01*
X892969D01*
Y1082183D01*
X892719D01*
Y1082683D01*
X892469D01*
Y1083183D01*
X892219D01*
Y1083933D01*
X891969D01*
Y1084933D01*
X891719D01*
Y1088934D01*
X891969D01*
Y1089934D01*
X892219D01*
Y1090684D01*
X892469D01*
Y1091434D01*
X892719D01*
Y1091934D01*
X892969D01*
Y1092184D01*
X893219D01*
Y1092684D01*
X893469D01*
Y1092934D01*
X893719D01*
Y1093184D01*
X893969D01*
Y1093434D01*
X894219D01*
Y1093684D01*
X894469D01*
Y1093934D01*
X894719D01*
Y1094184D01*
X894969D01*
Y1094434D01*
X895219D01*
Y1094685D01*
X895469D01*
Y1094934D01*
X895969D01*
Y1095184D01*
X896219D01*
Y1095434D01*
X896719D01*
Y1095685D01*
X897219D01*
Y1095935D01*
X897719D01*
Y1096185D01*
X898219D01*
Y1096435D01*
X898969D01*
Y1096685D01*
X899970D01*
Y1096935D01*
X901970D01*
Y1097185D01*
X902970D01*
Y1096935D01*
D02*
G37*
G36*
X891969Y1080183D02*
X892219D01*
Y1079933D01*
X892469D01*
Y1079683D01*
X892719D01*
Y1079433D01*
X892969D01*
Y1079183D01*
X893219D01*
Y1078932D01*
X893469D01*
Y1078682D01*
X893719D01*
Y1078432D01*
X893969D01*
Y1078182D01*
X894219D01*
Y1077932D01*
X894719D01*
Y1077682D01*
X895219D01*
Y1077432D01*
X895469D01*
Y1077182D01*
X895969D01*
Y1076932D01*
X896719D01*
Y1076682D01*
X897719D01*
Y1076432D01*
X900970D01*
Y1076682D01*
X901720D01*
Y1076932D01*
X902220D01*
Y1077182D01*
X902970D01*
Y1076182D01*
X903220D01*
Y1075432D01*
X903470D01*
Y1074182D01*
X903720D01*
Y1072932D01*
X903970D01*
Y1071181D01*
X904220D01*
Y1064431D01*
X903970D01*
Y1062681D01*
X903720D01*
Y1061180D01*
X903470D01*
Y1060180D01*
X903220D01*
Y1059180D01*
X902970D01*
Y1058430D01*
X902720D01*
Y1057680D01*
X902470D01*
Y1056930D01*
X902220D01*
Y1056180D01*
X901970D01*
Y1055680D01*
X901720D01*
Y1055180D01*
X901470D01*
Y1054679D01*
X901220D01*
Y1054179D01*
X900970D01*
Y1053679D01*
X900720D01*
Y1053179D01*
X900470D01*
Y1052929D01*
X900220D01*
Y1052429D01*
X899970D01*
Y1052179D01*
X899720D01*
Y1051929D01*
X899470D01*
Y1051429D01*
X899220D01*
Y1051179D01*
X898969D01*
Y1050929D01*
X898719D01*
Y1050679D01*
X898469D01*
Y1050429D01*
X898219D01*
Y1050179D01*
X897969D01*
Y1049929D01*
X897719D01*
Y1049679D01*
X897469D01*
Y1049429D01*
X897219D01*
Y1049179D01*
X896969D01*
Y1048929D01*
X896719D01*
Y1048679D01*
X896219D01*
Y1048429D01*
X895969D01*
Y1048179D01*
X895719D01*
Y1047929D01*
X895219D01*
Y1047679D01*
X894719D01*
Y1047429D01*
X894219D01*
Y1047178D01*
X893719D01*
Y1046928D01*
X892969D01*
Y1046678D01*
X892219D01*
Y1046428D01*
X891218D01*
Y1046178D01*
X889968D01*
Y1045928D01*
X889218D01*
Y1045678D01*
X888468D01*
Y1045428D01*
X885718D01*
Y1045678D01*
X881467D01*
Y1045928D01*
X878717D01*
Y1046178D01*
X876717D01*
Y1046428D01*
X874716D01*
Y1046678D01*
X873216D01*
Y1046928D01*
X871716D01*
Y1047178D01*
X871966D01*
Y1047429D01*
X872466D01*
Y1047679D01*
X872966D01*
Y1047929D01*
X873716D01*
Y1048179D01*
X873966D01*
Y1048429D01*
X874466D01*
Y1048679D01*
X874967D01*
Y1048929D01*
X875467D01*
Y1049179D01*
X875967D01*
Y1049429D01*
X876217D01*
Y1049679D01*
X876717D01*
Y1049929D01*
X876967D01*
Y1050179D01*
X877467D01*
Y1050429D01*
X877717D01*
Y1050679D01*
X878217D01*
Y1050929D01*
X878467D01*
Y1051179D01*
X878717D01*
Y1051429D01*
X879217D01*
Y1051679D01*
X879467D01*
Y1051929D01*
X879717D01*
Y1052179D01*
X879967D01*
Y1052429D01*
X880217D01*
Y1052679D01*
X880717D01*
Y1052929D01*
X880967D01*
Y1053179D01*
X881217D01*
Y1053429D01*
X881467D01*
Y1053679D01*
X881717D01*
Y1053929D01*
X881967D01*
Y1054179D01*
X882217D01*
Y1054429D01*
X882467D01*
Y1054679D01*
X882718D01*
Y1054930D01*
X882968D01*
Y1055180D01*
X883217D01*
Y1055430D01*
X883467D01*
Y1055680D01*
X883718D01*
Y1056180D01*
X883968D01*
Y1056430D01*
X884218D01*
Y1056680D01*
X884468D01*
Y1056930D01*
X884718D01*
Y1057430D01*
X884968D01*
Y1057680D01*
X885218D01*
Y1057930D01*
X885468D01*
Y1058430D01*
X885718D01*
Y1058680D01*
X885968D01*
Y1058930D01*
X886218D01*
Y1059430D01*
X886468D01*
Y1059680D01*
X886718D01*
Y1060180D01*
X886968D01*
Y1060680D01*
X887218D01*
Y1060930D01*
X887468D01*
Y1061430D01*
X887718D01*
Y1061930D01*
X887968D01*
Y1062430D01*
X888218D01*
Y1062931D01*
X888468D01*
Y1063430D01*
X888718D01*
Y1063931D01*
X888968D01*
Y1064431D01*
X889218D01*
Y1065181D01*
X889468D01*
Y1065681D01*
X889718D01*
Y1066431D01*
X889968D01*
Y1067181D01*
X890218D01*
Y1067931D01*
X890468D01*
Y1068681D01*
X890719D01*
Y1069681D01*
X890968D01*
Y1070931D01*
X891218D01*
Y1072182D01*
X891469D01*
Y1074182D01*
X891719D01*
Y1080683D01*
X891969D01*
Y1080183D01*
D02*
G37*
G36*
X905220Y1082433D02*
X905720D01*
Y1082183D01*
X905970D01*
Y1081933D01*
X906220D01*
Y1081683D01*
X906470D01*
Y1081433D01*
X906721D01*
Y1081183D01*
X906971D01*
Y1080933D01*
X907221D01*
Y1080683D01*
X907721D01*
Y1080433D01*
X907971D01*
Y1080183D01*
X908221D01*
Y1079933D01*
X908471D01*
Y1079683D01*
X908721D01*
Y1079433D01*
X908971D01*
Y1079183D01*
X909221D01*
Y1078932D01*
X909471D01*
Y1078682D01*
X909721D01*
Y1078432D01*
X909971D01*
Y1078182D01*
X910221D01*
Y1077932D01*
X910471D01*
Y1077682D01*
X910721D01*
Y1077182D01*
X910971D01*
Y1076932D01*
X911221D01*
Y1076682D01*
X911471D01*
Y1076432D01*
X911721D01*
Y1076182D01*
X911971D01*
Y1075932D01*
X912221D01*
Y1075432D01*
X912471D01*
Y1075182D01*
X912721D01*
Y1074932D01*
X912971D01*
Y1074432D01*
X913221D01*
Y1074182D01*
X913471D01*
Y1073682D01*
X913721D01*
Y1073432D01*
X913971D01*
Y1072932D01*
X914221D01*
Y1072432D01*
X914471D01*
Y1071932D01*
X914722D01*
Y1071432D01*
X914971D01*
Y1070931D01*
X915221D01*
Y1070431D01*
X915471D01*
Y1069681D01*
X915722D01*
Y1069181D01*
X915972D01*
Y1068431D01*
X916222D01*
Y1067431D01*
X916472D01*
Y1066431D01*
X916722D01*
Y1064931D01*
X916972D01*
Y1058430D01*
X916722D01*
Y1056930D01*
X916472D01*
Y1055930D01*
X916222D01*
Y1054930D01*
X915972D01*
Y1054179D01*
X915722D01*
Y1053429D01*
X915471D01*
Y1052679D01*
X915221D01*
Y1052179D01*
X914971D01*
Y1051429D01*
X914722D01*
Y1050929D01*
X914471D01*
Y1050429D01*
X914221D01*
Y1049929D01*
X913971D01*
Y1049429D01*
X913721D01*
Y1049179D01*
X913471D01*
Y1048679D01*
X913221D01*
Y1048179D01*
X912971D01*
Y1047929D01*
X912721D01*
Y1047429D01*
X912471D01*
Y1047178D01*
X912221D01*
Y1046928D01*
X911971D01*
Y1046678D01*
X910471D01*
Y1046428D01*
X908721D01*
Y1046178D01*
X906470D01*
Y1045928D01*
X903720D01*
Y1045678D01*
X899470D01*
Y1045428D01*
X894719D01*
Y1045178D01*
X892969D01*
Y1045428D01*
X893719D01*
Y1045678D01*
X894219D01*
Y1045928D01*
X894719D01*
Y1046178D01*
X895219D01*
Y1046428D01*
X895719D01*
Y1046678D01*
X896219D01*
Y1046928D01*
X896469D01*
Y1047178D01*
X896969D01*
Y1047429D01*
X897219D01*
Y1047679D01*
X897469D01*
Y1047929D01*
X897969D01*
Y1048179D01*
X898219D01*
Y1048429D01*
X898469D01*
Y1048679D01*
X898719D01*
Y1048929D01*
X898969D01*
Y1049179D01*
X899220D01*
Y1049429D01*
X899470D01*
Y1049679D01*
X899720D01*
Y1049929D01*
X899970D01*
Y1050429D01*
X900220D01*
Y1050679D01*
X900470D01*
Y1050929D01*
X900720D01*
Y1051429D01*
X900970D01*
Y1051679D01*
X901220D01*
Y1051929D01*
X901470D01*
Y1052429D01*
X901720D01*
Y1052929D01*
X901970D01*
Y1053429D01*
X902220D01*
Y1053679D01*
X902470D01*
Y1054179D01*
X902720D01*
Y1054930D01*
X902970D01*
Y1055430D01*
X903220D01*
Y1055930D01*
X903470D01*
Y1056680D01*
X903720D01*
Y1057430D01*
X903970D01*
Y1058180D01*
X904220D01*
Y1059180D01*
X904470D01*
Y1060180D01*
X904720D01*
Y1061430D01*
X904970D01*
Y1062931D01*
X905220D01*
Y1065681D01*
X905470D01*
Y1069431D01*
X905220D01*
Y1072182D01*
X904970D01*
Y1073682D01*
X904720D01*
Y1074932D01*
X904470D01*
Y1075932D01*
X904220D01*
Y1076682D01*
X903970D01*
Y1077432D01*
X903720D01*
Y1078432D01*
X903970D01*
Y1078682D01*
X904220D01*
Y1079183D01*
X904470D01*
Y1079683D01*
X904720D01*
Y1080433D01*
X904970D01*
Y1082683D01*
X905220D01*
Y1082433D01*
D02*
G37*
D10*
X646460Y1132000D02*
G03*
X646460Y1132000I-1000J0D01*
G01*
X901870D02*
G03*
X901870Y1132000I-1000J0D01*
G01*
X493700Y1111350D02*
X504200D01*
X493700Y1123850D02*
X504200D01*
X540460Y1137200D02*
X678460D01*
X540460Y1278800D02*
X678460D01*
Y1137200D02*
Y1153800D01*
Y1199700D02*
Y1278800D01*
X540460Y1137200D02*
Y1153800D01*
Y1199700D02*
Y1278800D01*
X418860Y1077960D02*
X424460D01*
X474760D02*
X480360D01*
Y1133860D02*
Y1139460D01*
Y1077960D02*
Y1083560D01*
X418860Y1139460D02*
X424460D01*
X474760D02*
X480360D01*
X418860Y1133860D02*
Y1139460D01*
Y1077960D02*
Y1083560D01*
X376300Y1065400D02*
Y1099400D01*
X338800Y1065400D02*
Y1099400D01*
X228910Y1171580D02*
X235910D01*
X228910Y1188080D02*
X235910D01*
X487580Y1061550D02*
Y1072050D01*
X475080Y1061550D02*
Y1072050D01*
X444630Y1060640D02*
Y1071140D01*
X457130Y1060640D02*
Y1071140D01*
X426620Y1060280D02*
Y1070780D01*
X414120Y1060280D02*
Y1070780D01*
X493700Y1099010D02*
X504200D01*
X493700Y1111510D02*
X504200D01*
X391780Y1095590D02*
Y1106590D01*
X405780Y1095590D02*
Y1106590D01*
X795870Y1199700D02*
Y1278800D01*
Y1137200D02*
Y1153800D01*
X933870Y1199700D02*
Y1278800D01*
Y1137200D02*
Y1153800D01*
X795870Y1278800D02*
X933870D01*
X795870Y1137200D02*
X933870D01*
X250550Y1265738D02*
Y1279738D01*
Y1225438D02*
Y1240238D01*
Y1279738D02*
X347850D01*
Y1265738D02*
Y1279738D01*
Y1225438D02*
Y1240238D01*
X296200Y1140200D02*
Y1171200D01*
X302200Y1140200D02*
Y1171200D01*
X296200D02*
X302200D01*
X296200Y1140200D02*
X302200D01*
X231690Y1149830D02*
X268690D01*
Y1082830D02*
Y1096330D01*
Y1136330D02*
Y1149830D01*
X231690Y1082830D02*
X268690D01*
X231690D02*
Y1084830D01*
Y1101830D02*
Y1107830D01*
Y1124830D02*
Y1130830D01*
Y1147830D02*
Y1149830D01*
X214609Y1052479D02*
X247671D01*
X214609Y1076041D02*
X247671D01*
X226060Y1157780D02*
Y1163780D01*
D11*
X430860Y1070710D02*
G03*
X430860Y1070710I-1250J0D01*
G01*
X375310Y1055730D02*
G03*
X375310Y1055730I-1250J0D01*
G01*
X340338Y1193129D02*
G03*
X340338Y1193129I-1250J0D01*
G01*
X312950Y1137700D02*
G03*
X312950Y1137700I-1250J0D01*
G01*
X205690Y1139580D02*
G03*
X205690Y1139580I-1250J0D01*
G01*
D12*
X836930Y1037585D02*
Y1024889D01*
X839469Y1022350D01*
X844548D01*
X847087Y1024889D01*
Y1037585D01*
X862322Y1035046D02*
X859783Y1037585D01*
X854704D01*
X852165Y1035046D01*
Y1032507D01*
X854704Y1029967D01*
X859783D01*
X862322Y1027428D01*
Y1024889D01*
X859783Y1022350D01*
X854704D01*
X852165Y1024889D01*
X867400Y1037585D02*
Y1022350D01*
X875018D01*
X877557Y1024889D01*
Y1027428D01*
X875018Y1029967D01*
X867400D01*
X875018D01*
X877557Y1032507D01*
Y1035046D01*
X875018Y1037585D01*
X867400D01*
X897870D02*
Y1022350D01*
Y1029967D01*
X908027D01*
Y1037585D01*
Y1022350D01*
X913105Y1037585D02*
Y1024889D01*
X915645Y1022350D01*
X920723D01*
X923262Y1024889D01*
Y1037585D01*
X928340D02*
Y1022350D01*
X935958D01*
X938497Y1024889D01*
Y1027428D01*
X935958Y1029967D01*
X928340D01*
X935958D01*
X938497Y1032507D01*
Y1035046D01*
X935958Y1037585D01*
X928340D01*
X979333Y1102674D02*
Y1099342D01*
Y1101008D01*
X987664D01*
X989330Y1099342D01*
Y1097676D01*
X987664Y1096010D01*
X979333Y1106007D02*
X989330D01*
Y1112671D01*
X980999Y1122668D02*
X979333Y1121002D01*
Y1117670D01*
X980999Y1116004D01*
X987664D01*
X989330Y1117670D01*
Y1121002D01*
X987664Y1122668D01*
X979333Y1132665D02*
Y1129333D01*
Y1130999D01*
X987664D01*
X989330Y1129333D01*
Y1127666D01*
X987664Y1126000D01*
X979333Y1135997D02*
X989330D01*
Y1142662D01*
X980999Y1152658D02*
X979333Y1150992D01*
Y1147660D01*
X980999Y1145994D01*
X987664D01*
X989330Y1147660D01*
Y1150992D01*
X987664Y1152658D01*
X979333Y1162655D02*
Y1159323D01*
Y1160989D01*
X987664D01*
X989330Y1159323D01*
Y1157657D01*
X987664Y1155991D01*
X979333Y1165987D02*
X989330D01*
Y1172652D01*
X980999Y1182649D02*
X979333Y1180983D01*
Y1177650D01*
X980999Y1175984D01*
X987664D01*
X989330Y1177650D01*
Y1180983D01*
X987664Y1182649D01*
X979333Y1192645D02*
Y1189313D01*
Y1190979D01*
X987664D01*
X989330Y1189313D01*
Y1187647D01*
X987664Y1185981D01*
X979333Y1195978D02*
X989330D01*
Y1202642D01*
X980999Y1212639D02*
X979333Y1210973D01*
Y1207641D01*
X980999Y1205975D01*
X987664D01*
X989330Y1207641D01*
Y1210973D01*
X987664Y1212639D01*
X810260Y1012185D02*
Y1009646D01*
X815338Y1004567D01*
X820417Y1009646D01*
Y1012185D01*
X815338Y1004567D02*
Y996950D01*
X825495D02*
Y999489D01*
X828034D01*
Y996950D01*
X825495D01*
X853426Y1012185D02*
Y996950D01*
Y1002028D01*
X863583Y1012185D01*
X855965Y1004567D01*
X863583Y996950D01*
X868661Y1007107D02*
Y999489D01*
X871200Y996950D01*
X878818D01*
Y1007107D01*
X883896D02*
Y996950D01*
Y1002028D01*
X886435Y1004567D01*
X888975Y1007107D01*
X891514D01*
X901670Y996950D02*
X906749D01*
X909288Y999489D01*
Y1004567D01*
X906749Y1007107D01*
X901670D01*
X899131Y1004567D01*
Y999489D01*
X901670Y996950D01*
X914366D02*
X921984D01*
X924523Y999489D01*
X921984Y1002028D01*
X916906D01*
X914366Y1004567D01*
X916906Y1007107D01*
X924523D01*
X937219Y996950D02*
X932141D01*
X929601Y999489D01*
Y1004567D01*
X932141Y1007107D01*
X937219D01*
X939758Y1004567D01*
Y1002028D01*
X929601D01*
M02*
