M48
;Layer_Color=9474304
;FILE_FORMAT=2:5
INCH,LZ
T9F00S00C0.01000
%
G90
G05
T09
G00X0384827Y0387889
M15
G01X0386558Y0388424
G01X0388151Y0389286
G01X0389545Y0390442
G01X0390709Y0391875
G01X0391571Y0393507
G01X0392097Y0395275
G01X0392271Y0397064
G01X0392226Y0492939
G01X0392266Y0493074
G01X0392079Y0494876
G01X0391544Y0496607
G01X0390681Y04982
G01X0389525Y0499594
G01X0388093Y0500758
G01X0386461Y0501619
G01X0384692Y0502146
G01X0382888Y0502319
G01X0381464Y0502267
G01X0381384Y0502251
G01X0085086Y0502251
G01X0084951Y0502291
G01X0083149Y0502104
G01X0081418Y0501569
G01X0079825Y0500707
G01X0078675Y0499763
G01X0078623Y0499727
G01X007843Y0499622
G01X0077267Y0498189
G01X0076406Y0496557
G01X0075879Y0494788
G01X0075706Y0493
G01X0075748Y0397086
G01X0075709Y0396951
G01X0075896Y0395149
G01X0076431Y0393418
G01X0077293Y0391825
G01X0078449Y039043
G01X0079882Y0389267
G01X0081514Y0388406
G01X0083283Y0387879
G01X0085071Y0387706
G01X0381692Y0387748
G01X0381775Y0387741
G01X038289Y0387741
G01X0383025Y0387701
G01X0384827Y0387889
M16
M17
M30
