G04*
G04 #@! TF.GenerationSoftware,Altium Limited,Altium Designer,23.5.1 (21)*
G04*
G04 Layer_Physical_Order=1*
G04 Layer_Color=255*
%FSLAX44Y44*%
%MOMM*%
G71*
G04*
G04 #@! TF.SameCoordinates,10AFCB3B-55C8-42C2-B7EA-D5DD10926C34*
G04*
G04*
G04 #@! TF.FilePolarity,Positive*
G04*
G01*
G75*
%ADD13C,0.2540*%
%ADD14R,0.4000X0.5000*%
%ADD15R,0.5153X0.4725*%
%ADD16R,0.6500X0.6500*%
%ADD17R,0.9000X0.2800*%
%ADD18R,0.3000X1.1500*%
%ADD19R,0.6000X1.1500*%
%ADD20R,1.1000X0.6000*%
%ADD21R,0.4750X0.5000*%
%ADD22R,2.1500X0.9500*%
%ADD23R,2.1500X3.2500*%
%ADD24R,1.5781X1.5562*%
G04:AMPARAMS|DCode=25|XSize=0.76mm|YSize=0.6604mm|CornerRadius=0.0825mm|HoleSize=0mm|Usage=FLASHONLY|Rotation=90.000|XOffset=0mm|YOffset=0mm|HoleType=Round|Shape=RoundedRectangle|*
%AMROUNDEDRECTD25*
21,1,0.7600,0.4953,0,0,90.0*
21,1,0.5949,0.6604,0,0,90.0*
1,1,0.1651,0.2477,0.2975*
1,1,0.1651,0.2477,-0.2975*
1,1,0.1651,-0.2477,-0.2975*
1,1,0.1651,-0.2477,0.2975*
%
%ADD25ROUNDEDRECTD25*%
G04:AMPARAMS|DCode=26|XSize=1.3mm|YSize=1.05mm|CornerRadius=0mm|HoleSize=0mm|Usage=FLASHONLY|Rotation=225.000|XOffset=0mm|YOffset=0mm|HoleType=Round|Shape=Rectangle|*
%AMROTATEDRECTD26*
4,1,4,0.0884,0.8309,0.8309,0.0884,-0.0884,-0.8309,-0.8309,-0.0884,0.0884,0.8309,0.0*
%
%ADD26ROTATEDRECTD26*%

%ADD27R,0.5000X0.4000*%
%ADD28R,0.8000X0.9000*%
%ADD29R,3.7000X3.7000*%
%ADD30R,0.2800X0.9000*%
%ADD31R,0.9000X0.8000*%
G04:AMPARAMS|DCode=32|XSize=0.55mm|YSize=0.5mm|CornerRadius=0.0625mm|HoleSize=0mm|Usage=FLASHONLY|Rotation=0.000|XOffset=0mm|YOffset=0mm|HoleType=Round|Shape=RoundedRectangle|*
%AMROUNDEDRECTD32*
21,1,0.5500,0.3750,0,0,0.0*
21,1,0.4250,0.5000,0,0,0.0*
1,1,0.1250,0.2125,-0.1875*
1,1,0.1250,-0.2125,-0.1875*
1,1,0.1250,-0.2125,0.1875*
1,1,0.1250,0.2125,0.1875*
%
%ADD32ROUNDEDRECTD32*%
%ADD33R,0.6000X0.5000*%
G04:AMPARAMS|DCode=34|XSize=0.85mm|YSize=0.75mm|CornerRadius=0mm|HoleSize=0mm|Usage=FLASHONLY|Rotation=315.000|XOffset=0mm|YOffset=0mm|HoleType=Round|Shape=Rectangle|*
%AMROTATEDRECTD34*
4,1,4,-0.5657,0.0354,-0.0354,0.5657,0.5657,-0.0354,0.0354,-0.5657,-0.5657,0.0354,0.0*
%
%ADD34ROTATEDRECTD34*%

%ADD35R,0.5000X0.6000*%
G04:AMPARAMS|DCode=36|XSize=0.85mm|YSize=0.75mm|CornerRadius=0mm|HoleSize=0mm|Usage=FLASHONLY|Rotation=225.000|XOffset=0mm|YOffset=0mm|HoleType=Round|Shape=Rectangle|*
%AMROTATEDRECTD36*
4,1,4,0.0354,0.5657,0.5657,0.0354,-0.0354,-0.5657,-0.5657,-0.0354,0.0354,0.5657,0.0*
%
%ADD36ROTATEDRECTD36*%

%ADD50C,0.6500*%
G04:AMPARAMS|DCode=51|XSize=1mm|YSize=2.1mm|CornerRadius=0.5mm|HoleSize=0mm|Usage=FLASHONLY|Rotation=180.000|XOffset=0mm|YOffset=0mm|HoleType=Round|Shape=RoundedRectangle|*
%AMROUNDEDRECTD51*
21,1,1.0000,1.1000,0,0,180.0*
21,1,0.0000,2.1000,0,0,180.0*
1,1,1.0000,0.0000,0.5500*
1,1,1.0000,0.0000,0.5500*
1,1,1.0000,0.0000,-0.5500*
1,1,1.0000,0.0000,-0.5500*
%
%ADD51ROUNDEDRECTD51*%
G04:AMPARAMS|DCode=52|XSize=1mm|YSize=1.8mm|CornerRadius=0.5mm|HoleSize=0mm|Usage=FLASHONLY|Rotation=180.000|XOffset=0mm|YOffset=0mm|HoleType=Round|Shape=RoundedRectangle|*
%AMROUNDEDRECTD52*
21,1,1.0000,0.8000,0,0,180.0*
21,1,0.0000,1.8000,0,0,180.0*
1,1,1.0000,0.0000,0.4000*
1,1,1.0000,0.0000,0.4000*
1,1,1.0000,0.0000,-0.4000*
1,1,1.0000,0.0000,-0.4000*
%
%ADD52ROUNDEDRECTD52*%
%ADD57C,0.5000*%
%ADD58C,0.3000*%
%ADD59C,0.2794*%
%ADD60C,0.7500*%
%ADD61C,0.6000*%
%ADD62C,0.5080*%
%ADD63C,0.6350*%
%ADD64R,1.4280X1.4280*%
%ADD65C,1.4280*%
%ADD66C,3.2760*%
%ADD67C,1.5000*%
%ADD68R,1.5000X1.5000*%
%ADD69C,4.0000*%
%ADD70C,0.6000*%
%ADD71C,1.0000*%
%ADD72C,0.5000*%
G36*
X974090Y1273810D02*
X976179Y1273770D01*
X980261Y1272876D01*
X984091Y1271204D01*
X987520Y1268816D01*
X990418Y1265805D01*
X992673Y1262287D01*
X994198Y1258396D01*
X994934Y1254283D01*
X994894Y1252194D01*
X994894Y1252194D01*
X994894Y1252194D01*
X994410Y1008380D01*
X994410Y1006254D01*
X993580Y1002082D01*
X991953Y998153D01*
X989590Y994617D01*
X986583Y991610D01*
X983047Y989247D01*
X979118Y987619D01*
X974946Y986790D01*
X972820Y986790D01*
X215900D01*
X213773Y986790D01*
X209602Y987620D01*
X205673Y989247D01*
X202137Y991610D01*
X199130Y994617D01*
X196767Y998153D01*
X195140Y1002082D01*
X194310Y1006254D01*
X194310Y1008380D01*
Y1253490D01*
Y1255491D01*
X195091Y1259417D01*
X196623Y1263115D01*
X198846Y1266443D01*
X201677Y1269273D01*
X205005Y1271497D01*
X208703Y1273029D01*
X212629Y1273810D01*
X214630D01*
X974090Y1273810D01*
D02*
G37*
%LPC*%
G36*
X343672Y1258747D02*
Y1248579D01*
X350007D01*
Y1251309D01*
X349748Y1253278D01*
X348988Y1255112D01*
X347779Y1256687D01*
X346204Y1257895D01*
X344370Y1258655D01*
X343672Y1258747D01*
D02*
G37*
G36*
X257272D02*
Y1248579D01*
X263607D01*
Y1251309D01*
X263348Y1253278D01*
X262588Y1255112D01*
X261379Y1256687D01*
X259804Y1257895D01*
X257970Y1258655D01*
X257272Y1258747D01*
D02*
G37*
G36*
X341132D02*
X340434Y1258655D01*
X338599Y1257895D01*
X337024Y1256687D01*
X335816Y1255112D01*
X335056Y1253278D01*
X334797Y1251309D01*
Y1248579D01*
X341132D01*
Y1258747D01*
D02*
G37*
G36*
X254732D02*
X254034Y1258655D01*
X252199Y1257895D01*
X250624Y1256687D01*
X249416Y1255112D01*
X248656Y1253278D01*
X248397Y1251309D01*
Y1248579D01*
X254732D01*
Y1258747D01*
D02*
G37*
G36*
X398060Y1246360D02*
X392790D01*
Y1240590D01*
X398060D01*
Y1246360D01*
D02*
G37*
G36*
X390250D02*
X384980D01*
Y1240590D01*
X390250D01*
Y1246360D01*
D02*
G37*
G36*
X457520Y1243170D02*
X453750D01*
Y1239900D01*
X457520D01*
Y1243170D01*
D02*
G37*
G36*
X420730D02*
X416960D01*
Y1239900D01*
X420730D01*
Y1243170D01*
D02*
G37*
G36*
X350007Y1246039D02*
X343672D01*
Y1235871D01*
X344370Y1235963D01*
X346204Y1236723D01*
X347779Y1237932D01*
X348988Y1239507D01*
X349748Y1241341D01*
X350007Y1243309D01*
Y1246039D01*
D02*
G37*
G36*
X263607D02*
X257272D01*
Y1235871D01*
X257970Y1235963D01*
X259804Y1236723D01*
X261379Y1237932D01*
X262588Y1239507D01*
X263348Y1241341D01*
X263607Y1243309D01*
Y1246039D01*
D02*
G37*
G36*
X341132D02*
X334797D01*
Y1243309D01*
X335056Y1241341D01*
X335816Y1239507D01*
X337024Y1237932D01*
X338599Y1236723D01*
X340434Y1235963D01*
X341132Y1235871D01*
Y1246039D01*
D02*
G37*
G36*
X254732D02*
X248397D01*
Y1243309D01*
X248656Y1241341D01*
X249416Y1239507D01*
X250624Y1237932D01*
X252199Y1236723D01*
X254034Y1235963D01*
X254732Y1235871D01*
Y1246039D01*
D02*
G37*
G36*
X398060Y1238050D02*
X392790D01*
Y1232280D01*
X398060D01*
Y1238050D01*
D02*
G37*
G36*
X390250D02*
X384980D01*
Y1232280D01*
X390250D01*
Y1238050D01*
D02*
G37*
G36*
X966097Y1265330D02*
X961763D01*
X957513Y1264484D01*
X953509Y1262826D01*
X949906Y1260418D01*
X946842Y1257354D01*
X944434Y1253751D01*
X942775Y1249747D01*
X941930Y1245497D01*
Y1241163D01*
X942775Y1236913D01*
X944434Y1232909D01*
X946842Y1229306D01*
X949906Y1226242D01*
X953509Y1223834D01*
X957513Y1222176D01*
X961763Y1221330D01*
X966097D01*
X970347Y1222176D01*
X974351Y1223834D01*
X977954Y1226242D01*
X981019Y1229306D01*
X983426Y1232909D01*
X985085Y1236913D01*
X985930Y1241163D01*
Y1245497D01*
X985085Y1249747D01*
X983426Y1253751D01*
X981019Y1257354D01*
X977954Y1260418D01*
X974351Y1262826D01*
X970347Y1264484D01*
X966097Y1265330D01*
D02*
G37*
G36*
X226957D02*
X222623D01*
X218373Y1264484D01*
X214369Y1262826D01*
X210766Y1260418D01*
X207701Y1257354D01*
X205294Y1253751D01*
X203636Y1249747D01*
X202790Y1245497D01*
Y1241163D01*
X203636Y1236913D01*
X205294Y1232909D01*
X207701Y1229306D01*
X210766Y1226242D01*
X214369Y1223834D01*
X218373Y1222176D01*
X222623Y1221330D01*
X226957D01*
X231207Y1222176D01*
X235211Y1223834D01*
X238814Y1226242D01*
X241879Y1229306D01*
X244286Y1232909D01*
X245944Y1236913D01*
X246790Y1241163D01*
Y1245497D01*
X245944Y1249747D01*
X244286Y1253751D01*
X241879Y1257354D01*
X238814Y1260418D01*
X235211Y1262826D01*
X231207Y1264484D01*
X226957Y1265330D01*
D02*
G37*
G36*
X445025Y1266220D02*
X443035D01*
X441198Y1265459D01*
X440423Y1264684D01*
X436956D01*
X435631Y1264420D01*
X434507Y1263669D01*
X426333Y1255495D01*
X425582Y1254371D01*
X425318Y1253046D01*
Y1243170D01*
X423270D01*
Y1238630D01*
X422000D01*
Y1237360D01*
X416960D01*
Y1234090D01*
X417500D01*
Y1226630D01*
X421602D01*
X423697Y1224535D01*
Y1222910D01*
X408760D01*
Y1212310D01*
X398160D01*
Y1210558D01*
X396987Y1210072D01*
X394854Y1212205D01*
Y1215820D01*
X397520D01*
Y1228820D01*
X385520D01*
X384501Y1229426D01*
X384329Y1229842D01*
X382922Y1231249D01*
X381085Y1232010D01*
X379095D01*
X377258Y1231249D01*
X375851Y1229842D01*
X375090Y1228005D01*
Y1226015D01*
X375851Y1224178D01*
X376975Y1223054D01*
Y1213511D01*
X377076Y1213000D01*
X376155Y1211730D01*
X374090D01*
Y1207960D01*
X378630D01*
Y1206690D01*
X379900D01*
Y1201650D01*
X383170D01*
Y1202190D01*
X385732D01*
X388028Y1199893D01*
X387542Y1198720D01*
X379550D01*
Y1186720D01*
X387769D01*
X388439Y1185898D01*
X387943Y1184750D01*
X379550D01*
X379550Y1172750D01*
X378458Y1172320D01*
X376642D01*
X375550Y1172750D01*
Y1184750D01*
X362550D01*
Y1172750D01*
X365326D01*
Y1171057D01*
X364421Y1170152D01*
X363660Y1168315D01*
Y1166326D01*
X364421Y1164488D01*
X365749Y1163160D01*
X365715Y1162779D01*
X365385Y1161890D01*
X362550D01*
Y1149890D01*
X364722D01*
Y1131541D01*
X363969Y1130788D01*
X363047Y1129192D01*
X362570Y1127412D01*
Y1125568D01*
X363047Y1123788D01*
X363969Y1122192D01*
X365272Y1120889D01*
X366868Y1119967D01*
X368648Y1119490D01*
X370492D01*
X372272Y1119967D01*
X373868Y1120889D01*
X375171Y1122192D01*
X376093Y1123788D01*
X376570Y1125568D01*
Y1127412D01*
X376093Y1129192D01*
X375171Y1130788D01*
X373898Y1132061D01*
Y1149890D01*
X375550D01*
X375550Y1161890D01*
X376642Y1162320D01*
X378458D01*
X379550Y1161890D01*
X379550Y1161050D01*
Y1149890D01*
X379550D01*
X380440Y1149300D01*
Y1136300D01*
X392273D01*
X393053Y1135284D01*
X392361Y1134592D01*
X391635Y1132840D01*
X387710D01*
Y1127070D01*
X393775D01*
X394250Y1127321D01*
X395605Y1126760D01*
X397595D01*
X399432Y1127521D01*
X400839Y1128928D01*
X401600Y1130766D01*
Y1132755D01*
X400839Y1134592D01*
X399934Y1135497D01*
Y1143769D01*
X403831Y1147666D01*
X410662D01*
X411880Y1147540D01*
Y1144270D01*
X416920D01*
Y1143000D01*
X418190D01*
Y1138460D01*
X419410D01*
Y1131515D01*
X400219Y1112324D01*
X353035D01*
X349791Y1114374D01*
X349524Y1114476D01*
X349286Y1114635D01*
X348922Y1114707D01*
X348576Y1114840D01*
X348291Y1114833D01*
X348181Y1114855D01*
X347830Y1115221D01*
X347344Y1116116D01*
X347508Y1116531D01*
X348119Y1117445D01*
X348364Y1118680D01*
Y1119285D01*
X343012D01*
X337660D01*
Y1118680D01*
X337906Y1117445D01*
X338517Y1116531D01*
X338681Y1116116D01*
X338437Y1115573D01*
X337863Y1114836D01*
X337486Y1114761D01*
X336854Y1114635D01*
X336853Y1114634D01*
X336852Y1114634D01*
X336304Y1114268D01*
X335773Y1113912D01*
X335772Y1113912D01*
X335771Y1113911D01*
X333528Y1111665D01*
X312911D01*
X304441Y1120134D01*
Y1134698D01*
X311336Y1141803D01*
X319041D01*
Y1150763D01*
X319581D01*
Y1155033D01*
X311541D01*
Y1157573D01*
X319581D01*
Y1161843D01*
X319041D01*
Y1170803D01*
X305036D01*
Y1190309D01*
X308598D01*
Y1189898D01*
X308852Y1188622D01*
X309574Y1187541D01*
X309960Y1187155D01*
X309960Y1183456D01*
X309420Y1182410D01*
X309420Y1181824D01*
Y1178640D01*
X320500D01*
Y1182410D01*
X319960Y1183456D01*
X319960Y1190309D01*
X325662D01*
Y1189769D01*
X329932D01*
Y1198059D01*
X332472D01*
Y1189769D01*
X336742D01*
Y1193248D01*
X338012Y1193874D01*
X338599Y1193423D01*
X340434Y1192663D01*
X341132Y1192571D01*
Y1205509D01*
Y1218447D01*
X340434Y1218355D01*
X338599Y1217595D01*
X337024Y1216387D01*
X335816Y1214812D01*
X335056Y1212978D01*
X334797Y1211009D01*
Y1206349D01*
X333026D01*
X332540Y1207523D01*
X332552Y1207535D01*
X333352Y1209465D01*
Y1211553D01*
X332552Y1213483D01*
X331076Y1214960D01*
X329146Y1215759D01*
X327057D01*
X325128Y1214960D01*
X323651Y1213483D01*
X323609Y1213381D01*
X322339Y1213633D01*
Y1215390D01*
X322067Y1216756D01*
X321293Y1217913D01*
X314153Y1225054D01*
X312995Y1225828D01*
X311629Y1226099D01*
X285271D01*
X283905Y1225828D01*
X282747Y1225054D01*
X276740Y1219047D01*
X275966Y1217889D01*
X275695Y1216523D01*
Y1214275D01*
X274425Y1213811D01*
X273276Y1214960D01*
X271346Y1215759D01*
X269258D01*
X267328Y1214960D01*
X265851Y1213483D01*
X265052Y1211553D01*
Y1209465D01*
X265851Y1207535D01*
X265864Y1207523D01*
X265378Y1206349D01*
X263607D01*
Y1211009D01*
X263348Y1212978D01*
X262588Y1214812D01*
X261379Y1216387D01*
X259804Y1217595D01*
X257970Y1218355D01*
X257272Y1218447D01*
Y1205509D01*
Y1192571D01*
X257970Y1192663D01*
X259804Y1193423D01*
X260392Y1193874D01*
X261662Y1193248D01*
Y1189769D01*
X265932D01*
Y1198059D01*
X268472D01*
Y1189769D01*
X270614D01*
Y1187692D01*
X262171Y1179250D01*
X258560D01*
Y1179250D01*
X257290Y1179116D01*
X257060Y1179250D01*
Y1179250D01*
X255900Y1179517D01*
X254928Y1180166D01*
X252685Y1180613D01*
X224790D01*
X222547Y1180166D01*
X220644Y1178895D01*
X211105Y1169355D01*
X211105Y1169355D01*
X197785Y1156036D01*
X196514Y1154134D01*
X196067Y1151890D01*
Y1057910D01*
X196514Y1055667D01*
X197785Y1053764D01*
X208825Y1042723D01*
X210728Y1041453D01*
X212971Y1041006D01*
X356199D01*
X358442Y1041453D01*
X360344Y1042723D01*
X361381Y1043760D01*
X372090D01*
Y1050835D01*
X373360Y1051002D01*
X373737Y1049593D01*
X374988Y1047427D01*
X376757Y1045658D01*
X378923Y1044408D01*
X381339Y1043760D01*
X383841D01*
X386257Y1044408D01*
X388423Y1045658D01*
X390192Y1047427D01*
X391442Y1049593D01*
X391933Y1051422D01*
X393247D01*
X393737Y1049593D01*
X394988Y1047427D01*
X396757Y1045658D01*
X398923Y1044408D01*
X401339Y1043760D01*
X403841D01*
X406257Y1044408D01*
X408423Y1045658D01*
X410192Y1047427D01*
X411443Y1049593D01*
X412090Y1052009D01*
Y1054511D01*
X411443Y1056927D01*
X410192Y1059093D01*
X408423Y1060862D01*
X406257Y1062113D01*
X403841Y1062760D01*
X401339D01*
X398923Y1062113D01*
X398805Y1062044D01*
X397779Y1063070D01*
Y1072514D01*
X403971Y1078706D01*
X482908D01*
X484184Y1078960D01*
X485266Y1079682D01*
X523058Y1117474D01*
X523780Y1118556D01*
X524034Y1119832D01*
Y1163320D01*
X523780Y1164596D01*
X523058Y1165678D01*
X513383Y1175352D01*
X513568Y1176964D01*
X513843Y1177148D01*
X528431Y1191736D01*
X682841D01*
X687801Y1186776D01*
X686991Y1185790D01*
X684122Y1187707D01*
X680679Y1189133D01*
X677023Y1189860D01*
X676430D01*
Y1172210D01*
X694080D01*
Y1172803D01*
X693353Y1176459D01*
X691927Y1179902D01*
X690010Y1182771D01*
X690996Y1183581D01*
X696436Y1178141D01*
Y1159621D01*
X645049Y1108234D01*
X607461D01*
Y1111982D01*
X613792Y1118312D01*
X614429Y1119267D01*
X615644Y1119400D01*
X615644Y1119400D01*
X615644Y1119400D01*
X620164D01*
Y1125190D01*
Y1130980D01*
X615644D01*
X614768Y1131887D01*
Y1134725D01*
X615699Y1135262D01*
X616038Y1135294D01*
X618257Y1134700D01*
X620663D01*
X622988Y1135323D01*
X625072Y1136526D01*
X626774Y1138228D01*
X627977Y1140312D01*
X628600Y1142637D01*
Y1145043D01*
X627977Y1147368D01*
X626774Y1149452D01*
X625072Y1151154D01*
X622988Y1152357D01*
X620663Y1152980D01*
X618257D01*
X615932Y1152357D01*
X613848Y1151154D01*
X612146Y1149452D01*
X610943Y1147368D01*
X610830Y1146945D01*
X610704Y1146920D01*
X609622Y1146198D01*
X609609Y1146184D01*
X608193Y1146564D01*
X607977Y1147368D01*
X606774Y1149452D01*
X605072Y1151154D01*
X602988Y1152357D01*
X600663Y1152980D01*
X598257D01*
X595932Y1152357D01*
X593848Y1151154D01*
X592146Y1149452D01*
X590943Y1147368D01*
X590830Y1146945D01*
X590704Y1146920D01*
X589622Y1146198D01*
X588900Y1145116D01*
X588646Y1143840D01*
X588900Y1142564D01*
X589622Y1141482D01*
X589676Y1141429D01*
Y1131917D01*
X588800Y1131010D01*
X584280D01*
Y1125220D01*
Y1119430D01*
X588800D01*
X588800Y1119430D01*
X590015Y1119297D01*
X590653Y1118343D01*
X596983Y1112012D01*
Y1104810D01*
X597237Y1103534D01*
X597960Y1102452D01*
X601679Y1098733D01*
X602761Y1098010D01*
X604037Y1097756D01*
X648008D01*
X649284Y1098010D01*
X650366Y1098733D01*
X705938Y1154304D01*
X706660Y1155386D01*
X706914Y1156662D01*
Y1181100D01*
X706660Y1182376D01*
X705938Y1183458D01*
X688158Y1201237D01*
X687076Y1201960D01*
X685800Y1202214D01*
X525472D01*
X524196Y1201960D01*
X523114Y1201238D01*
X508526Y1186649D01*
X495778D01*
X495443Y1187513D01*
X495404Y1187919D01*
X496877Y1189392D01*
X497650Y1191260D01*
X486710D01*
X487483Y1189392D01*
X488956Y1187919D01*
X488917Y1187513D01*
X488582Y1186649D01*
X482610D01*
Y1187640D01*
X478070D01*
Y1190180D01*
X482610D01*
Y1193950D01*
X481167D01*
X480681Y1195123D01*
X483511Y1197953D01*
X484145Y1197690D01*
X486135D01*
X487972Y1198451D01*
X489379Y1199858D01*
X490140Y1201695D01*
Y1203685D01*
X489379Y1205522D01*
X487972Y1206929D01*
X486503Y1207537D01*
X486128Y1208636D01*
X486125Y1208960D01*
X486557Y1209516D01*
X687921D01*
X791719Y1105717D01*
X792801Y1104995D01*
X794077Y1104741D01*
X855425D01*
X856701Y1104995D01*
X857783Y1105717D01*
X873305Y1121240D01*
X878050D01*
Y1120700D01*
X882570D01*
Y1126490D01*
Y1132280D01*
X878050D01*
X877174Y1133187D01*
Y1134995D01*
X878398Y1135323D01*
X880482Y1136526D01*
X882184Y1138228D01*
X883387Y1140312D01*
X884010Y1142637D01*
Y1145043D01*
X883387Y1147368D01*
X882184Y1149452D01*
X880482Y1151154D01*
X878398Y1152357D01*
X876073Y1152980D01*
X873667D01*
X871342Y1152357D01*
X869258Y1151154D01*
X867556Y1149452D01*
X866353Y1147368D01*
X865730Y1145043D01*
Y1142637D01*
X866353Y1140312D01*
X867556Y1138228D01*
X869258Y1136526D01*
X870506Y1135806D01*
Y1131740D01*
X868590D01*
Y1125955D01*
X862395Y1119761D01*
X862184Y1119715D01*
X861150Y1120311D01*
X861150Y1121099D01*
Y1130470D01*
X859924D01*
Y1136204D01*
X860482Y1136526D01*
X862184Y1138228D01*
X863387Y1140312D01*
X864010Y1142637D01*
Y1145043D01*
X863387Y1147368D01*
X862184Y1149452D01*
X860482Y1151154D01*
X858398Y1152357D01*
X856073Y1152980D01*
X853667D01*
X851342Y1152357D01*
X849258Y1151154D01*
X847556Y1149452D01*
X846353Y1147368D01*
X845730Y1145043D01*
Y1142637D01*
X846353Y1140312D01*
X847556Y1138228D01*
X849258Y1136526D01*
X851342Y1135323D01*
X853256Y1134810D01*
Y1130470D01*
X851690D01*
Y1131010D01*
X847170D01*
Y1125220D01*
Y1119430D01*
X851690D01*
X852566Y1118523D01*
Y1115319D01*
X852466Y1115219D01*
X797036D01*
X693238Y1219017D01*
X692156Y1219740D01*
X690880Y1219994D01*
X483244D01*
X481968Y1219740D01*
X480886Y1219017D01*
X467430Y1205561D01*
X466160Y1206087D01*
Y1212310D01*
X455560D01*
Y1216090D01*
X455624Y1216410D01*
Y1226630D01*
X456980D01*
Y1234090D01*
X457520D01*
Y1237360D01*
X452480D01*
Y1238630D01*
X451210D01*
Y1243170D01*
X447494D01*
Y1257613D01*
X448269Y1258388D01*
X449030Y1260225D01*
Y1262215D01*
X448269Y1264052D01*
X446862Y1265459D01*
X445025Y1266220D01*
D02*
G37*
G36*
X343672Y1218447D02*
Y1206779D01*
X350007D01*
Y1211009D01*
X349748Y1212978D01*
X348988Y1214812D01*
X347779Y1216387D01*
X346204Y1217595D01*
X344370Y1218355D01*
X343672Y1218447D01*
D02*
G37*
G36*
X254732D02*
X254034Y1218355D01*
X252199Y1217595D01*
X250624Y1216387D01*
X249416Y1214812D01*
X248656Y1212978D01*
X248397Y1211009D01*
Y1206779D01*
X254732D01*
Y1218447D01*
D02*
G37*
G36*
X377360Y1205420D02*
X374090D01*
Y1201650D01*
X377360D01*
Y1205420D01*
D02*
G37*
G36*
X376090Y1199260D02*
X370320D01*
Y1193990D01*
X376090D01*
Y1199260D01*
D02*
G37*
G36*
X367780D02*
X362010D01*
Y1193990D01*
X367780D01*
Y1199260D01*
D02*
G37*
G36*
X493450Y1198000D02*
Y1193800D01*
X497650D01*
X496877Y1195668D01*
X495318Y1197227D01*
X493450Y1198000D01*
D02*
G37*
G36*
X490910D02*
X489042Y1197227D01*
X487483Y1195668D01*
X486710Y1193800D01*
X490910D01*
Y1198000D01*
D02*
G37*
G36*
X350007Y1204239D02*
X343672D01*
Y1192571D01*
X344370Y1192663D01*
X346204Y1193423D01*
X347779Y1194632D01*
X348988Y1196207D01*
X349748Y1198041D01*
X350007Y1200009D01*
Y1204239D01*
D02*
G37*
G36*
X254732D02*
X248397D01*
Y1200009D01*
X248656Y1198041D01*
X249416Y1196207D01*
X250624Y1194632D01*
X252199Y1193423D01*
X254034Y1192663D01*
X254732Y1192571D01*
Y1204239D01*
D02*
G37*
G36*
X376090Y1191450D02*
X370320D01*
Y1186180D01*
X376090D01*
Y1191450D01*
D02*
G37*
G36*
X367780D02*
X362010D01*
Y1186180D01*
X367780D01*
Y1191450D01*
D02*
G37*
G36*
X320500Y1176100D02*
X316230D01*
Y1172330D01*
X320500D01*
Y1176100D01*
D02*
G37*
G36*
X313690D02*
X309420D01*
Y1172330D01*
X313690D01*
Y1176100D01*
D02*
G37*
G36*
X932433Y1189860D02*
X931840D01*
Y1172210D01*
X949490D01*
Y1172803D01*
X948763Y1176459D01*
X947337Y1179902D01*
X945266Y1183001D01*
X942631Y1185636D01*
X939532Y1187707D01*
X936089Y1189133D01*
X932433Y1189860D01*
D02*
G37*
G36*
X801033D02*
X800440D01*
Y1172210D01*
X818090D01*
Y1172803D01*
X817363Y1176459D01*
X815937Y1179902D01*
X813866Y1183001D01*
X811231Y1185636D01*
X808132Y1187707D01*
X804689Y1189133D01*
X801033Y1189860D01*
D02*
G37*
G36*
X545623D02*
X545030D01*
Y1172210D01*
X562680D01*
Y1172803D01*
X561953Y1176459D01*
X560527Y1179902D01*
X558456Y1183001D01*
X555821Y1185636D01*
X552722Y1187707D01*
X549279Y1189133D01*
X545623Y1189860D01*
D02*
G37*
G36*
X797900D02*
X797307D01*
X793651Y1189133D01*
X790208Y1187707D01*
X787109Y1185636D01*
X784474Y1183001D01*
X782403Y1179902D01*
X780977Y1176459D01*
X780250Y1172803D01*
Y1172210D01*
X797900D01*
Y1189860D01*
D02*
G37*
G36*
X673890D02*
X673297D01*
X669641Y1189133D01*
X666198Y1187707D01*
X663099Y1185636D01*
X660464Y1183001D01*
X658393Y1179902D01*
X656967Y1176459D01*
X656240Y1172803D01*
Y1172210D01*
X673890D01*
Y1189860D01*
D02*
G37*
G36*
X542490D02*
X541897D01*
X538241Y1189133D01*
X534798Y1187707D01*
X531699Y1185636D01*
X529064Y1183001D01*
X526993Y1179902D01*
X525567Y1176459D01*
X524840Y1172803D01*
Y1172210D01*
X542490D01*
Y1189860D01*
D02*
G37*
G36*
X929300D02*
X928707D01*
X925051Y1189133D01*
X921608Y1187707D01*
X918509Y1185636D01*
X915874Y1183001D01*
X913803Y1179902D01*
X912377Y1176459D01*
X911650Y1172803D01*
Y1172210D01*
X929300D01*
Y1189860D01*
D02*
G37*
G36*
X949490Y1169670D02*
X931840D01*
Y1152020D01*
X932433D01*
X936089Y1152747D01*
X939532Y1154173D01*
X942631Y1156244D01*
X945266Y1158879D01*
X947337Y1161978D01*
X948763Y1165421D01*
X949490Y1169077D01*
Y1169670D01*
D02*
G37*
G36*
X929300D02*
X911650D01*
Y1169077D01*
X912377Y1165421D01*
X913803Y1161978D01*
X915874Y1158879D01*
X918509Y1156244D01*
X921608Y1154173D01*
X925051Y1152747D01*
X928707Y1152020D01*
X929300D01*
Y1169670D01*
D02*
G37*
G36*
X818090D02*
X800440D01*
Y1152020D01*
X801033D01*
X804689Y1152747D01*
X808132Y1154173D01*
X811231Y1156244D01*
X813866Y1158879D01*
X815937Y1161978D01*
X817363Y1165421D01*
X818090Y1169077D01*
Y1169670D01*
D02*
G37*
G36*
X797900D02*
X780250D01*
Y1169077D01*
X780977Y1165421D01*
X782403Y1161978D01*
X784474Y1158879D01*
X787109Y1156244D01*
X790208Y1154173D01*
X793651Y1152747D01*
X797307Y1152020D01*
X797900D01*
Y1169670D01*
D02*
G37*
G36*
X694080D02*
X676430D01*
Y1152020D01*
X677023D01*
X680679Y1152747D01*
X684122Y1154173D01*
X687221Y1156244D01*
X689856Y1158879D01*
X691927Y1161978D01*
X693353Y1165421D01*
X694080Y1169077D01*
Y1169670D01*
D02*
G37*
G36*
X673890D02*
X656240D01*
Y1169077D01*
X656967Y1165421D01*
X658393Y1161978D01*
X660464Y1158879D01*
X663099Y1156244D01*
X666198Y1154173D01*
X669641Y1152747D01*
X673297Y1152020D01*
X673890D01*
Y1169670D01*
D02*
G37*
G36*
X562680D02*
X545030D01*
Y1152020D01*
X545623D01*
X549279Y1152747D01*
X552722Y1154173D01*
X555821Y1156244D01*
X558456Y1158879D01*
X560527Y1161978D01*
X561953Y1165421D01*
X562680Y1169077D01*
Y1169670D01*
D02*
G37*
G36*
X542490D02*
X524840D01*
Y1169077D01*
X525567Y1165421D01*
X526993Y1161978D01*
X529064Y1158879D01*
X531699Y1156244D01*
X534798Y1154173D01*
X538241Y1152747D01*
X541897Y1152020D01*
X542490D01*
Y1169670D01*
D02*
G37*
G36*
X831144Y1153520D02*
X831140D01*
Y1145110D01*
X839550D01*
Y1145114D01*
X838890Y1147576D01*
X837616Y1149784D01*
X835814Y1151586D01*
X833606Y1152860D01*
X831144Y1153520D01*
D02*
G37*
G36*
X575734D02*
X575730D01*
Y1145110D01*
X584140D01*
Y1145114D01*
X583480Y1147576D01*
X582206Y1149784D01*
X580404Y1151586D01*
X578196Y1152860D01*
X575734Y1153520D01*
D02*
G37*
G36*
X828600D02*
X828596D01*
X826134Y1152860D01*
X823926Y1151586D01*
X822124Y1149784D01*
X820850Y1147576D01*
X820190Y1145114D01*
Y1145110D01*
X828600D01*
Y1153520D01*
D02*
G37*
G36*
X573190D02*
X573186D01*
X570724Y1152860D01*
X568516Y1151586D01*
X566714Y1149784D01*
X565440Y1147576D01*
X564780Y1145114D01*
Y1145110D01*
X573190D01*
Y1153520D01*
D02*
G37*
G36*
X415650Y1141730D02*
X411880D01*
Y1138460D01*
X415650D01*
Y1141730D01*
D02*
G37*
G36*
X909010Y1152980D02*
X890730D01*
Y1134700D01*
X909010D01*
Y1152980D01*
D02*
G37*
G36*
X653600D02*
X635320D01*
Y1134700D01*
X653600D01*
Y1152980D01*
D02*
G37*
G36*
X839550Y1142570D02*
X831140D01*
Y1134160D01*
X831144D01*
X833606Y1134820D01*
X835814Y1136094D01*
X837616Y1137896D01*
X838890Y1140104D01*
X839550Y1142566D01*
Y1142570D01*
D02*
G37*
G36*
X828600D02*
X820190D01*
Y1142566D01*
X820850Y1140104D01*
X822124Y1137896D01*
X823926Y1136094D01*
X826134Y1134820D01*
X828596Y1134160D01*
X828600D01*
Y1142570D01*
D02*
G37*
G36*
X584140D02*
X575730D01*
Y1134160D01*
X575734D01*
X578196Y1134820D01*
X580404Y1136094D01*
X582206Y1137896D01*
X583480Y1140104D01*
X584140Y1142566D01*
Y1142570D01*
D02*
G37*
G36*
X573190D02*
X564780D01*
Y1142566D01*
X565440Y1140104D01*
X566714Y1137896D01*
X568516Y1136094D01*
X570724Y1134820D01*
X573186Y1134160D01*
X573190D01*
Y1142570D01*
D02*
G37*
G36*
X885110Y1132280D02*
Y1127760D01*
X889630D01*
Y1132280D01*
X885110D01*
D02*
G37*
G36*
X385170Y1132840D02*
X379900D01*
Y1127070D01*
X385170D01*
Y1132840D01*
D02*
G37*
G36*
X844630Y1131010D02*
X840110D01*
Y1126490D01*
X844630D01*
Y1131010D01*
D02*
G37*
G36*
X581740D02*
X577220D01*
Y1126490D01*
X581740D01*
Y1131010D01*
D02*
G37*
G36*
X622704Y1130980D02*
Y1126460D01*
X627224D01*
Y1130980D01*
X622704D01*
D02*
G37*
G36*
X345137Y1125657D02*
X344282D01*
Y1121825D01*
X348364D01*
Y1122430D01*
X348119Y1123665D01*
X347419Y1124712D01*
X346372Y1125411D01*
X345137Y1125657D01*
D02*
G37*
G36*
X341742D02*
X340887D01*
X339652Y1125411D01*
X338606Y1124712D01*
X337906Y1123665D01*
X337660Y1122430D01*
Y1121825D01*
X341742D01*
Y1125657D01*
D02*
G37*
G36*
X889630Y1125220D02*
X885110D01*
Y1120700D01*
X889630D01*
Y1125220D01*
D02*
G37*
G36*
X581740Y1123950D02*
X577220D01*
Y1119430D01*
X581740D01*
Y1123950D01*
D02*
G37*
G36*
X844630D02*
X840110D01*
Y1119430D01*
X844630D01*
Y1123950D01*
D02*
G37*
G36*
X627224Y1123920D02*
X622704D01*
Y1119400D01*
X627224D01*
Y1123920D01*
D02*
G37*
G36*
X392980Y1124530D02*
X387710D01*
Y1118760D01*
X392980D01*
Y1124530D01*
D02*
G37*
G36*
X385170D02*
X379900D01*
Y1118760D01*
X385170D01*
Y1124530D01*
D02*
G37*
G36*
X966097Y1039270D02*
X961763D01*
X957513Y1038425D01*
X953509Y1036766D01*
X949906Y1034359D01*
X946842Y1031294D01*
X944434Y1027691D01*
X942775Y1023687D01*
X941930Y1019437D01*
Y1015103D01*
X942775Y1010853D01*
X944434Y1006849D01*
X946842Y1003246D01*
X949906Y1000182D01*
X953509Y997774D01*
X957513Y996115D01*
X961763Y995270D01*
X966097D01*
X970347Y996115D01*
X974351Y997774D01*
X977954Y1000182D01*
X981019Y1003246D01*
X983426Y1006849D01*
X985085Y1010853D01*
X985930Y1015103D01*
Y1019437D01*
X985085Y1023687D01*
X983426Y1027691D01*
X981019Y1031294D01*
X977954Y1034359D01*
X974351Y1036766D01*
X970347Y1038425D01*
X966097Y1039270D01*
D02*
G37*
G36*
X226957D02*
X222623D01*
X218373Y1038425D01*
X214369Y1036766D01*
X210766Y1034359D01*
X207701Y1031294D01*
X205294Y1027691D01*
X203636Y1023687D01*
X202790Y1019437D01*
Y1015103D01*
X203636Y1010853D01*
X205294Y1006849D01*
X207701Y1003246D01*
X210766Y1000182D01*
X214369Y997774D01*
X218373Y996115D01*
X222623Y995270D01*
X226957D01*
X231207Y996115D01*
X235211Y997774D01*
X238814Y1000182D01*
X241879Y1003246D01*
X244286Y1006849D01*
X245944Y1010853D01*
X246790Y1015103D01*
Y1019437D01*
X245944Y1023687D01*
X244286Y1027691D01*
X241879Y1031294D01*
X238814Y1034359D01*
X235211Y1036766D01*
X231207Y1038425D01*
X226957Y1039270D01*
D02*
G37*
%LPD*%
G36*
X293368Y1170803D02*
X279041D01*
Y1160891D01*
X273033D01*
X264944Y1168980D01*
X265470Y1170250D01*
X267310D01*
Y1171443D01*
X267404Y1171506D01*
X277670Y1181771D01*
X278940Y1181245D01*
Y1178640D01*
X290020D01*
Y1182410D01*
X289480Y1183456D01*
X289480Y1190309D01*
X293368D01*
Y1170803D01*
D02*
G37*
G36*
X447980Y1229732D02*
Y1226630D01*
X448697D01*
Y1216410D01*
X448760Y1216090D01*
Y1209910D01*
X453160D01*
Y1200510D01*
Y1190510D01*
Y1180510D01*
Y1167910D01*
X411160D01*
Y1180510D01*
Y1190510D01*
Y1200510D01*
Y1209910D01*
X445560D01*
Y1222910D01*
X435494D01*
Y1225939D01*
X436185Y1226630D01*
X440470D01*
Y1234090D01*
X441010D01*
Y1234906D01*
X442280Y1235432D01*
X447980Y1229732D01*
D02*
G37*
G36*
X267888Y1153058D02*
X269377Y1152064D01*
X271132Y1151714D01*
X279041D01*
Y1141803D01*
X286826D01*
X292238Y1136390D01*
X291712Y1135120D01*
X291588Y1135120D01*
X291588Y1135120D01*
X291528Y1135120D01*
X280460D01*
Y1117600D01*
X292480D01*
Y1133055D01*
X293750Y1133734D01*
X293963Y1133592D01*
Y1117175D01*
X294217Y1115899D01*
X294939Y1114818D01*
X307594Y1102163D01*
X308675Y1101440D01*
X309951Y1101186D01*
X333529D01*
X335776Y1098939D01*
X336858Y1098216D01*
X338092Y1097970D01*
X338295Y1097707D01*
X338833Y1096854D01*
X338485Y1095974D01*
X337874Y1095060D01*
X337628Y1093825D01*
Y1093220D01*
X348332D01*
Y1093825D01*
X348086Y1095060D01*
X347475Y1095974D01*
X347236Y1096579D01*
X347991Y1097759D01*
X348043Y1097789D01*
X349282Y1098036D01*
X350364Y1098758D01*
X353451Y1101846D01*
X403178D01*
X404454Y1102100D01*
X405536Y1102822D01*
X418793Y1116079D01*
X421981Y1112891D01*
X428373Y1119284D01*
X429271Y1118385D01*
X430169Y1119284D01*
X435677Y1113775D01*
X437892Y1115990D01*
X439066Y1115504D01*
Y1113684D01*
X430508Y1105127D01*
X440762Y1094874D01*
X444323Y1098436D01*
X446723Y1096035D01*
X447847Y1095284D01*
X449172Y1095021D01*
X453199D01*
X457765Y1090454D01*
X457239Y1089184D01*
X401012D01*
X399736Y1088930D01*
X398654Y1088207D01*
X388278Y1077831D01*
X387555Y1076749D01*
X387301Y1075473D01*
Y1062895D01*
X386273Y1062103D01*
X386257Y1062113D01*
X383841Y1062760D01*
X381339D01*
X378923Y1062113D01*
X376757Y1060862D01*
X374988Y1059093D01*
X373737Y1056927D01*
X373360Y1055518D01*
X372090Y1055685D01*
Y1062760D01*
X353090D01*
Y1052732D01*
X250362D01*
X250211Y1053939D01*
X250211D01*
Y1062990D01*
X239781D01*
Y1065530D01*
X250211D01*
Y1071222D01*
X272698D01*
X273832Y1070089D01*
X275428Y1069167D01*
X277208Y1068690D01*
X279052D01*
X280832Y1069167D01*
X282428Y1070089D01*
X283731Y1071392D01*
X284653Y1072988D01*
X285130Y1074768D01*
Y1076612D01*
X284653Y1078392D01*
X283731Y1079988D01*
X282428Y1081291D01*
X280832Y1082213D01*
X279052Y1082690D01*
X277208D01*
X275428Y1082213D01*
X273832Y1081291D01*
X273020Y1080480D01*
X230312D01*
X230312Y1080480D01*
X228541Y1080128D01*
X227039Y1079124D01*
X227039Y1079124D01*
X225762Y1077847D01*
X224588Y1078333D01*
Y1086580D01*
X233940D01*
Y1100080D01*
X208440D01*
X207793Y1101082D01*
Y1107814D01*
X207900Y1109040D01*
X209063Y1109040D01*
X219920D01*
Y1116330D01*
Y1123620D01*
X209063D01*
X207900Y1123620D01*
X207793Y1124846D01*
Y1131578D01*
X208440Y1132580D01*
X233940D01*
Y1146080D01*
X221113D01*
Y1160282D01*
X221063Y1160531D01*
X221113Y1160780D01*
Y1162782D01*
X222072Y1163741D01*
X223342Y1163215D01*
Y1162050D01*
X227980D01*
Y1167875D01*
X227679Y1168456D01*
X227983Y1168887D01*
X252059D01*
X267888Y1153058D01*
D02*
G37*
G36*
X513556Y1160361D02*
Y1122791D01*
X479949Y1089184D01*
X459909D01*
X459383Y1090454D01*
X466133Y1097204D01*
X466291Y1097362D01*
X467413Y1097720D01*
X467828Y1098135D01*
X470963Y1101270D01*
X466161Y1106071D01*
X461360Y1110873D01*
X458225Y1107738D01*
X457810Y1107323D01*
X457453Y1106201D01*
X453199Y1101948D01*
X450607D01*
X449221Y1103334D01*
X452782Y1106895D01*
X445993Y1113684D01*
Y1119571D01*
X445983Y1119620D01*
X447154Y1120246D01*
X450619Y1116780D01*
X457011Y1123173D01*
X457909Y1122275D01*
X458807Y1123173D01*
X464315Y1117664D01*
X468624Y1121973D01*
X470156Y1120442D01*
X474059Y1124345D01*
X469611Y1128793D01*
X471407Y1130589D01*
X475855Y1126141D01*
X479758Y1130044D01*
X479059Y1130743D01*
X479545Y1131917D01*
X483490D01*
Y1130880D01*
X490950D01*
Y1130340D01*
X494220D01*
Y1135380D01*
Y1140420D01*
X490950D01*
Y1139880D01*
X483490D01*
Y1138844D01*
X478955D01*
X470846Y1146952D01*
X471332Y1148125D01*
X483128D01*
Y1146258D01*
X490159D01*
Y1145718D01*
X494006D01*
Y1150620D01*
X495276D01*
Y1151890D01*
X500392D01*
Y1155522D01*
X500392Y1155522D01*
X500392D01*
X501076Y1156479D01*
X502155Y1157558D01*
X503915D01*
X505752Y1158319D01*
X507159Y1159726D01*
X507920Y1161564D01*
Y1163553D01*
X507462Y1164659D01*
X508538Y1165378D01*
X513556Y1160361D01*
D02*
G37*
G36*
X408760Y1154910D02*
X407729Y1154334D01*
X402450D01*
X401174Y1154080D01*
X400093Y1153358D01*
X394243Y1147507D01*
X393710Y1146711D01*
X392440Y1147012D01*
Y1149300D01*
X392440D01*
X392550Y1149890D01*
X392550Y1149890D01*
X392550Y1150524D01*
Y1157492D01*
X400502Y1165443D01*
X404657D01*
X404991Y1165510D01*
X408760D01*
Y1154910D01*
D02*
G37*
G36*
X215330Y1074041D02*
X212609D01*
Y1057181D01*
X211436Y1056695D01*
X207793Y1060338D01*
Y1085578D01*
X208440Y1086580D01*
X215330D01*
Y1074041D01*
D02*
G37*
%LPC*%
G36*
X290020Y1176100D02*
X285750D01*
Y1172330D01*
X290020D01*
Y1176100D01*
D02*
G37*
G36*
X283210D02*
X278940D01*
Y1172330D01*
X283210D01*
Y1176100D01*
D02*
G37*
G36*
X231726Y1167186D02*
X230520D01*
Y1162050D01*
X235158D01*
Y1163755D01*
X234897Y1165068D01*
X234153Y1166181D01*
X233040Y1166925D01*
X231726Y1167186D01*
D02*
G37*
G36*
X235158Y1159510D02*
X230520D01*
Y1154374D01*
X231726D01*
X233040Y1154635D01*
X234153Y1155379D01*
X234897Y1156492D01*
X235158Y1157805D01*
Y1159510D01*
D02*
G37*
G36*
X227980D02*
X223342D01*
Y1157805D01*
X223603Y1156492D01*
X224347Y1155379D01*
X225460Y1154635D01*
X226773Y1154374D01*
X227980D01*
Y1159510D01*
D02*
G37*
G36*
X277920Y1135120D02*
X265900D01*
Y1117600D01*
X277920D01*
Y1135120D01*
D02*
G37*
G36*
X222460Y1123620D02*
Y1117600D01*
X234480D01*
Y1123620D01*
X222460D01*
D02*
G37*
G36*
X234480Y1115060D02*
X222460D01*
Y1109040D01*
X234480D01*
Y1115060D01*
D02*
G37*
G36*
X429271Y1116589D02*
X423777Y1111095D01*
X428387Y1106485D01*
X433881Y1111979D01*
X429271Y1116589D01*
D02*
G37*
G36*
X292480Y1115060D02*
X280460D01*
Y1097540D01*
X292480D01*
Y1115060D01*
D02*
G37*
G36*
X277920D02*
X265900D01*
Y1097540D01*
X277920D01*
Y1115060D01*
D02*
G37*
G36*
X348332Y1090680D02*
X344250D01*
Y1086848D01*
X345105D01*
X346340Y1087094D01*
X347387Y1087793D01*
X348086Y1088840D01*
X348332Y1090075D01*
Y1090680D01*
D02*
G37*
G36*
X341710D02*
X337628D01*
Y1090075D01*
X337874Y1088840D01*
X338573Y1087793D01*
X339620Y1087094D01*
X340855Y1086848D01*
X341710D01*
Y1090680D01*
D02*
G37*
G36*
X500392Y1149350D02*
X496546D01*
Y1145718D01*
X500392D01*
Y1149350D01*
D02*
G37*
G36*
X500030Y1140420D02*
X496760D01*
Y1136650D01*
X500030D01*
Y1140420D01*
D02*
G37*
G36*
Y1134110D02*
X496760D01*
Y1130340D01*
X500030D01*
Y1134110D01*
D02*
G37*
G36*
X457909Y1120479D02*
X452415Y1114984D01*
X457025Y1110374D01*
X462519Y1115868D01*
X457909Y1120479D01*
D02*
G37*
G36*
X466706Y1116218D02*
X463156Y1112669D01*
X467059Y1108765D01*
X470609Y1112315D01*
X466706Y1116218D01*
D02*
G37*
G36*
X472405Y1110519D02*
X468855Y1106970D01*
X472759Y1103066D01*
X476308Y1106616D01*
X472405Y1110519D01*
D02*
G37*
%LPD*%
D13*
X464282Y1169040D02*
X465342Y1170100D01*
X508531D01*
X516890Y1161742D01*
X510110Y1173910D02*
X520700Y1163320D01*
X459660Y1173910D02*
X510110D01*
X486865Y1151459D02*
X487704Y1150620D01*
X452619Y1151459D02*
X486865D01*
X459660Y1168910D02*
X459790Y1169040D01*
X464282D01*
X447290Y1156788D02*
X452619Y1151459D01*
X458163Y1138529D02*
X461671D01*
X455167Y1135533D02*
X458163Y1138529D01*
X446418Y1135533D02*
X455167D01*
X445535Y1134649D02*
X446418Y1135533D01*
X437160Y1143024D02*
Y1161410D01*
Y1143024D02*
X445535Y1134649D01*
Y1134649D02*
Y1134649D01*
X511485Y1179505D02*
X527050Y1195070D01*
X466078Y1179040D02*
X466543Y1179505D01*
X466543Y1183315D02*
X509907D01*
X466543Y1179505D02*
X511485D01*
X509907Y1183315D02*
X525472Y1198880D01*
X466078Y1183780D02*
X466543Y1183315D01*
X459790Y1183780D02*
X466078D01*
X459660Y1178910D02*
X459790Y1179040D01*
X466078D01*
X459660Y1183910D02*
X459790Y1183780D01*
X447160Y1161410D02*
X447290Y1161280D01*
Y1156788D02*
Y1161280D01*
X525472Y1198880D02*
X685800D01*
X527050Y1195070D02*
X684222D01*
X516890Y1121410D02*
Y1161742D01*
X520700Y1119832D02*
Y1163320D01*
X482908Y1082040D02*
X520700Y1119832D01*
X481330Y1085850D02*
X516890Y1121410D01*
X648008Y1101090D02*
X703580Y1156662D01*
X604037Y1101090D02*
X648008D01*
X703580Y1156662D02*
Y1181100D01*
X699770Y1158240D02*
Y1179522D01*
X605615Y1104900D02*
X646430D01*
X699770Y1158240D01*
X684222Y1195070D02*
X699770Y1179522D01*
X685800Y1198880D02*
X703580Y1181100D01*
X301702Y1153950D02*
Y1198059D01*
X301107Y1118753D02*
Y1136050D01*
Y1118753D02*
X311530Y1108330D01*
X301107Y1136050D02*
X311541Y1146800D01*
X286541Y1146803D02*
X297297Y1136046D01*
Y1117175D02*
X309951Y1104520D01*
X297297Y1117175D02*
Y1136046D01*
X338130Y1111555D02*
X343012D01*
X311530Y1108330D02*
X334910D01*
X352070Y1108990D02*
X401600D01*
X343012Y1111555D02*
X348010D01*
X352070Y1108990D01*
Y1105180D02*
X403178D01*
X343146Y1101116D02*
X348006D01*
X342980Y1100950D02*
X343146Y1101116D01*
X348006D02*
X352070Y1105180D01*
X690880Y1216660D02*
X795655Y1111885D01*
X465494Y1198910D02*
X483244Y1216660D01*
X690880D01*
X467072Y1195100D02*
X484822Y1212850D01*
X689302D02*
X794077Y1108075D01*
X484822Y1212850D02*
X689302D01*
X853847Y1111885D02*
X855900Y1113938D01*
Y1125220D01*
X795655Y1111885D02*
X853847D01*
X794077Y1108075D02*
X855425D01*
X873840Y1126490D01*
X856590Y1125220D02*
Y1142120D01*
X873840Y1126490D02*
Y1142810D01*
X600317Y1104810D02*
Y1113393D01*
X604127Y1106388D02*
Y1113363D01*
Y1106388D02*
X605615Y1104900D01*
X600317Y1104810D02*
X604037Y1101090D01*
X390635Y1075473D02*
X401012Y1085850D01*
X382590Y1053260D02*
X390635Y1061305D01*
Y1075473D01*
X394445Y1061689D02*
Y1073895D01*
Y1061689D02*
X402590Y1053544D01*
X394445Y1073895D02*
X402590Y1082040D01*
Y1053260D02*
Y1053544D01*
X401012Y1085850D02*
X481330D01*
X402590Y1082040D02*
X482908D01*
X459790Y1194040D02*
X465948D01*
X459660Y1193910D02*
X459790Y1194040D01*
X459660Y1198910D02*
X465494D01*
X465948Y1194040D02*
X467008Y1195100D01*
X467072D01*
X415542Y1151000D02*
X417160Y1152618D01*
X422160Y1161410D02*
X422290Y1161280D01*
Y1155510D02*
Y1161280D01*
Y1155510D02*
X422744Y1155056D01*
Y1130134D02*
Y1155056D01*
X401600Y1108990D02*
X422744Y1130134D01*
X334910Y1108330D02*
X338130Y1111555D01*
X305505Y1211579D02*
Y1215520D01*
X306887Y1148533D02*
X309811D01*
X305505Y1215520D02*
X305976Y1215991D01*
X309811Y1148533D02*
X311541Y1146803D01*
X301702Y1207776D02*
X305505Y1211579D01*
X289352Y1211207D02*
X291702Y1208857D01*
X289352Y1211207D02*
Y1211575D01*
X301702Y1153950D02*
X306887Y1148530D01*
X301702Y1198059D02*
Y1207776D01*
X291702Y1198059D02*
Y1208857D01*
X427030Y1161280D02*
X427160Y1161410D01*
X427030Y1157176D02*
Y1161280D01*
X426554Y1128556D02*
Y1156700D01*
X427030Y1157176D01*
X403178Y1105180D02*
X426554Y1128556D01*
X334910Y1104520D02*
X338134Y1101296D01*
X309951Y1104520D02*
X334910D01*
X342634Y1101296D02*
X342980Y1100950D01*
X338134Y1101296D02*
X342634D01*
X311230Y1210233D02*
X311766D01*
X306702Y1205705D02*
X311230Y1210233D01*
X306702Y1198059D02*
Y1205705D01*
X296680Y1215525D02*
X296702Y1215503D01*
Y1198294D02*
Y1215503D01*
Y1153952D02*
Y1198059D01*
X291283Y1148533D02*
X296702Y1153952D01*
X286541Y1146803D02*
X288271Y1148533D01*
X291283D01*
X402450Y1151000D02*
X415542D01*
X396600Y1145150D02*
X402450Y1151000D01*
X396600Y1131760D02*
Y1145150D01*
X611434Y1143294D02*
X611980Y1143840D01*
X611434Y1125190D02*
Y1143294D01*
X591980Y1143840D02*
X593010Y1142810D01*
Y1125220D02*
Y1142810D01*
X604127Y1113363D02*
X611434Y1120670D01*
Y1125190D01*
X593010Y1120700D02*
X600317Y1113393D01*
X593010Y1120700D02*
Y1125220D01*
X873840Y1142810D02*
X874870Y1143840D01*
X854870D02*
X856590Y1142120D01*
X281932Y1189771D02*
Y1197829D01*
X314460Y1187370D02*
X314960D01*
X311932Y1189898D02*
Y1197829D01*
Y1189898D02*
X314460Y1187370D01*
X311702Y1198059D02*
X311932Y1197829D01*
X284425Y1187279D02*
X284925D01*
X281932Y1189771D02*
X284425Y1187279D01*
X281702Y1198059D02*
X281932Y1197829D01*
X417160Y1152618D02*
Y1161410D01*
X397154Y1196924D02*
X400038Y1194040D01*
X397154Y1196924D02*
Y1205190D01*
X391520Y1210824D02*
X397154Y1205190D01*
X400038Y1194040D02*
X404530D01*
X386050Y1192720D02*
X386550D01*
X395360Y1183910D01*
X404530Y1194040D02*
X404660Y1193910D01*
X368660Y1167320D02*
Y1178360D01*
Y1167320D02*
X377630D01*
X368660Y1178360D02*
X369050Y1178750D01*
X386630Y1206690D02*
Y1207190D01*
X380309Y1213511D02*
X386630Y1207190D01*
X380309Y1213511D02*
Y1226791D01*
X380090Y1227010D02*
X380309Y1226791D01*
X391520Y1210824D02*
Y1222320D01*
X386050Y1178750D02*
X386210Y1178910D01*
X395360Y1183910D02*
X404660D01*
X432160Y1227320D02*
X435470Y1230630D01*
X435970D01*
X432160Y1216410D02*
Y1227320D01*
D14*
X481520Y1163320D02*
D03*
X473520D02*
D03*
X378630Y1206690D02*
D03*
X386630D02*
D03*
X487490Y1135380D02*
D03*
X495490D02*
D03*
X478070Y1188910D02*
D03*
X470070D02*
D03*
D15*
X495276Y1150620D02*
D03*
X487704D02*
D03*
D16*
X855900Y1125220D02*
D03*
X873840Y1126490D02*
D03*
X611434Y1125190D02*
D03*
X621434D02*
D03*
X845900Y1125220D02*
D03*
X883840Y1126490D02*
D03*
X593010Y1125220D02*
D03*
X583010D02*
D03*
D17*
X459660Y1178910D02*
D03*
Y1183910D02*
D03*
Y1193910D02*
D03*
Y1198910D02*
D03*
Y1168910D02*
D03*
Y1173910D02*
D03*
X404660Y1168910D02*
D03*
Y1173910D02*
D03*
Y1178910D02*
D03*
Y1183910D02*
D03*
Y1188910D02*
D03*
Y1193910D02*
D03*
Y1198910D02*
D03*
Y1203910D02*
D03*
Y1208910D02*
D03*
X459660D02*
D03*
Y1203910D02*
D03*
Y1188910D02*
D03*
D18*
X311702Y1198059D02*
D03*
X316702D02*
D03*
X306702D02*
D03*
X291702D02*
D03*
X286702D02*
D03*
X281702D02*
D03*
X301702D02*
D03*
X296702D02*
D03*
D19*
X331202D02*
D03*
X323202D02*
D03*
X267202D02*
D03*
X275202D02*
D03*
D20*
X286541Y1156303D02*
D03*
Y1165803D02*
D03*
X311541D02*
D03*
Y1156303D02*
D03*
Y1146803D02*
D03*
X286541D02*
D03*
D21*
X252685Y1174750D02*
D03*
X262935D02*
D03*
D22*
X221190Y1139330D02*
D03*
Y1116330D02*
D03*
Y1093330D02*
D03*
D23*
X279190Y1116330D02*
D03*
D24*
X222499Y1064260D02*
D03*
X239781D02*
D03*
D25*
X229250Y1160780D02*
D03*
X215250D02*
D03*
D26*
X457909Y1122275D02*
D03*
X441645Y1106011D02*
D03*
X429271Y1118385D02*
D03*
X445535Y1134649D02*
D03*
D27*
X452480Y1238630D02*
D03*
Y1230630D02*
D03*
X416920Y1143000D02*
D03*
Y1151000D02*
D03*
X435970Y1230630D02*
D03*
Y1238630D02*
D03*
X422000D02*
D03*
Y1230630D02*
D03*
D28*
X391520Y1239320D02*
D03*
Y1222320D02*
D03*
X386440Y1125800D02*
D03*
Y1142800D02*
D03*
D29*
X432160Y1188910D02*
D03*
D30*
X452160Y1161410D02*
D03*
X447160D02*
D03*
X442160D02*
D03*
X437160D02*
D03*
X432160D02*
D03*
X427160D02*
D03*
X422160D02*
D03*
X417160D02*
D03*
X412160D02*
D03*
Y1216410D02*
D03*
X417160D02*
D03*
X422160D02*
D03*
X427160D02*
D03*
X432160D02*
D03*
X437160D02*
D03*
X442160D02*
D03*
X447160D02*
D03*
X452160D02*
D03*
D31*
X369050Y1192720D02*
D03*
X386050D02*
D03*
Y1155890D02*
D03*
X369050D02*
D03*
X386050Y1178750D02*
D03*
X369050D02*
D03*
D32*
X342980Y1091950D02*
D03*
Y1100950D02*
D03*
X343012Y1111555D02*
D03*
Y1120555D02*
D03*
D33*
X314960Y1187370D02*
D03*
Y1177370D02*
D03*
X284480Y1187370D02*
D03*
Y1177370D02*
D03*
D34*
X458221Y1098131D02*
D03*
X467059Y1106970D02*
D03*
D35*
X387630Y1167320D02*
D03*
X377630D02*
D03*
D36*
X461671Y1138529D02*
D03*
X470509Y1129691D02*
D03*
D50*
X270302Y1210509D02*
D03*
X328102D02*
D03*
D51*
X256002Y1205509D02*
D03*
X342402D02*
D03*
D52*
X256002Y1247309D02*
D03*
X342402D02*
D03*
D57*
X491460Y1163320D02*
X491490Y1163290D01*
X481520Y1163320D02*
X491460D01*
X495490Y1135380D02*
X509270D01*
X495276Y1150620D02*
X509270D01*
X429001Y1117611D02*
X429271D01*
X470780Y1115060D02*
X476250D01*
X462682Y1123158D02*
X470780Y1115060D01*
X470645Y1129826D02*
X470863Y1130044D01*
X472631D01*
X478534Y1124141D01*
X484949D01*
X485140Y1123950D01*
X467059Y1106970D02*
X468827D01*
X473245Y1102551D01*
X477329D01*
X477520Y1102360D01*
X315460Y1177370D02*
X326310D01*
X458207Y1122573D02*
X458793Y1123158D01*
X462682D01*
X419100Y1107711D02*
X429001Y1117611D01*
X419100Y1107440D02*
Y1107711D01*
X311599Y1156244D02*
X324143D01*
X215250Y1160282D02*
Y1160780D01*
X386440Y1125300D02*
Y1125800D01*
Y1125300D02*
X389043Y1122697D01*
X389543D01*
X389553Y1122687D01*
X397517D01*
X326310Y1177370D02*
X326390Y1177290D01*
X275661Y1174610D02*
X278421Y1177370D01*
X283980D01*
X275390Y1174610D02*
X275661D01*
X262935Y1174750D02*
X264160D01*
X275202Y1185792D02*
Y1198059D01*
X264160Y1174750D02*
X275202Y1185792D01*
X358235Y1192625D02*
X368955D01*
X369665Y1206595D02*
X378535D01*
X421848Y1238782D02*
Y1246994D01*
X435719Y1247031D02*
X435910Y1246840D01*
Y1238690D02*
Y1246840D01*
Y1238690D02*
X435970Y1238630D01*
X452311Y1238799D02*
X452480Y1238630D01*
X452311Y1238799D02*
Y1246949D01*
X452120Y1247140D02*
X452311Y1246949D01*
X271132Y1156303D02*
X286541D01*
X252685Y1174750D02*
X271132Y1156303D01*
X369050Y1155890D02*
X369310Y1155630D01*
Y1126750D02*
Y1155630D01*
Y1126750D02*
X369570Y1126490D01*
D58*
X495440Y1155890D02*
X502108Y1162558D01*
X473520Y1162820D02*
X480450Y1155890D01*
X495440D01*
X502108Y1162558D02*
X502920D01*
X452160Y1161410D02*
X472110D01*
X473520Y1162820D01*
X262935Y1174750D02*
X263018Y1174833D01*
X279263Y1208086D02*
Y1216523D01*
X311629Y1222531D02*
X318770Y1215390D01*
X285271Y1222531D02*
X311629D01*
X279263Y1216523D02*
X285271Y1222531D01*
X321702Y1199559D02*
X323202Y1198059D01*
X321702Y1199559D02*
Y1205525D01*
X318770Y1208457D02*
X321702Y1205525D01*
X318770Y1208457D02*
Y1215390D01*
X275202Y1198059D02*
X276702Y1199559D01*
Y1205525D01*
X279263Y1208086D01*
D59*
X477520Y1135380D02*
X487490D01*
X447598Y1147522D02*
X465378D01*
X477520Y1135380D01*
X442160Y1152960D02*
X447598Y1147522D01*
X442160Y1152960D02*
Y1161410D01*
X442529Y1106895D02*
Y1119571D01*
X432160Y1129940D02*
Y1161410D01*
Y1129940D02*
X442529Y1119571D01*
X441645Y1106011D02*
X442529Y1106895D01*
X457867Y1098484D02*
X458221Y1098131D01*
X449172Y1098484D02*
X457867D01*
X441646Y1106011D02*
X449172Y1098484D01*
X441645Y1106011D02*
X441646D01*
X314960Y1177370D02*
X315460D01*
X311541Y1156303D02*
X311599Y1156244D01*
X283377Y1176267D02*
X284480Y1177370D01*
X368955Y1192625D02*
X369050Y1192720D01*
X358140Y1192530D02*
X358235Y1192625D01*
X378535Y1206595D02*
X378630Y1206690D01*
X369570Y1206500D02*
X369665Y1206595D01*
X421848Y1238782D02*
X422000Y1238630D01*
X421695Y1247146D02*
X421848Y1246994D01*
X428782Y1253046D02*
X436956Y1261220D01*
X428782Y1236912D02*
Y1253046D01*
X422500Y1230630D02*
X428782Y1236912D01*
X436956Y1261220D02*
X444030D01*
X470070Y1188910D02*
Y1189410D01*
X482737Y1202077D01*
X487692Y1188910D02*
X491312Y1192530D01*
X492180D01*
X478070Y1188910D02*
X487692D01*
X451377Y1231233D02*
X451877D01*
X452480Y1230630D01*
X444030Y1238580D02*
Y1261220D01*
Y1238580D02*
X451377Y1231233D01*
X256002Y1205509D02*
X257538Y1203973D01*
X340866Y1202703D02*
X342402Y1204239D01*
X386050Y1155890D02*
X386440Y1155500D01*
X386050Y1155890D02*
X386550D01*
X219886Y1116296D02*
X219920Y1116330D01*
X452160Y1230310D02*
X452480Y1230630D01*
X452160Y1216410D02*
Y1230310D01*
X447157Y1216413D02*
X447160Y1216410D01*
X447157Y1216413D02*
Y1222686D01*
X443752Y1226091D02*
X447157Y1222686D01*
X443752Y1226091D02*
Y1226959D01*
X459660Y1188910D02*
X470070D01*
X427160Y1216410D02*
Y1225970D01*
X386550Y1155890D02*
X389153Y1158493D01*
X393217Y1195293D02*
Y1199603D01*
X404657Y1188913D02*
X404660Y1188910D01*
X399597Y1188913D02*
X404657D01*
X393217Y1195293D02*
X399597Y1188913D01*
X389153Y1158493D02*
Y1158993D01*
X399067Y1168907D01*
X387233Y1205587D02*
X393217Y1199603D01*
X387960Y1167320D02*
X394550Y1173910D01*
X387710Y1167320D02*
X387960D01*
X394550Y1173910D02*
X404660D01*
X399067Y1168907D02*
X404657D01*
X404660Y1168910D01*
X387233Y1205587D02*
Y1206087D01*
X386630Y1206690D02*
X387233Y1206087D01*
X368830Y1192940D02*
X369050Y1192720D01*
X386210Y1178910D02*
X404660D01*
X422000Y1238630D02*
X422500D01*
Y1230630D02*
X427160Y1225970D01*
X422000Y1230630D02*
X422500D01*
D60*
X201930Y1151890D02*
X215250Y1165210D01*
X224790Y1174750D02*
X252685D01*
X215250Y1160780D02*
Y1165210D01*
X224790Y1174750D01*
X201930Y1057910D02*
Y1151890D01*
X356199Y1046869D02*
X362590Y1053260D01*
X212971Y1046869D02*
X356199D01*
X201930Y1057910D02*
X212971Y1046869D01*
X215250Y1140330D02*
Y1160282D01*
X216250Y1139330D02*
X221190D01*
X215250Y1140330D02*
X216250Y1139330D01*
D61*
X331202Y1185178D02*
X331336Y1185044D01*
X331202Y1185178D02*
Y1198059D01*
X266730Y1188690D02*
X267202Y1189162D01*
Y1198059D01*
D62*
X277969Y1075851D02*
X278130Y1075690D01*
X230312Y1075851D02*
X277969D01*
X227850Y1069501D02*
Y1073389D01*
X221339Y1064260D02*
X222609D01*
X227850Y1073389D02*
X230312Y1075851D01*
X222609Y1064260D02*
X227850Y1069501D01*
X219959Y1064260D02*
Y1093291D01*
X219920Y1093330D02*
X219959Y1093291D01*
D63*
X386440Y1142800D02*
Y1155500D01*
D64*
X644460Y1143840D02*
D03*
X899870D02*
D03*
D65*
X619460D02*
D03*
X599460D02*
D03*
X574460D02*
D03*
X829870D02*
D03*
X854870D02*
D03*
X874870D02*
D03*
D66*
X675160Y1170940D02*
D03*
X543760D02*
D03*
X799170D02*
D03*
X930570D02*
D03*
D67*
X422590Y1053260D02*
D03*
X382590D02*
D03*
X402590D02*
D03*
D68*
X362590D02*
D03*
D69*
X963930Y1243330D02*
D03*
Y1017270D02*
D03*
X224790D02*
D03*
Y1243330D02*
D03*
D70*
X491490Y1163290D02*
D03*
X502920Y1162558D02*
D03*
X509270Y1135380D02*
D03*
X485140Y1123950D02*
D03*
X476250Y1115060D02*
D03*
X477520Y1102360D02*
D03*
X419100Y1107440D02*
D03*
X509270Y1150620D02*
D03*
X324143Y1156244D02*
D03*
X397517Y1122687D02*
D03*
X331336Y1185044D02*
D03*
X326390Y1177290D02*
D03*
X266730Y1188690D02*
D03*
X275390Y1174610D02*
D03*
X358140Y1192530D02*
D03*
X369570Y1206500D02*
D03*
X391160Y1252220D02*
D03*
X435719Y1247031D02*
D03*
X421695Y1247146D02*
D03*
X452120Y1247140D02*
D03*
X502920Y1238250D02*
D03*
X492760D02*
D03*
X482600D02*
D03*
X753110Y1120140D02*
D03*
X742950D02*
D03*
X732790D02*
D03*
X485140Y1202690D02*
D03*
X302260Y1088390D02*
D03*
X312420D02*
D03*
X322580D02*
D03*
X334010Y1169670D02*
D03*
X339090Y1177290D02*
D03*
X492180Y1192530D02*
D03*
X446160Y1174910D02*
D03*
X444030Y1261220D02*
D03*
X443752Y1226959D02*
D03*
X418160Y1202910D02*
D03*
Y1188954D02*
D03*
X368660Y1167320D02*
D03*
X313690Y1017270D02*
D03*
X323850D02*
D03*
X380090Y1227010D02*
D03*
X432160Y1188910D02*
D03*
Y1174910D02*
D03*
X446160Y1188910D02*
D03*
Y1202910D02*
D03*
X432160D02*
D03*
X867410Y1071880D02*
D03*
X593090Y1078230D02*
D03*
X857250Y1071880D02*
D03*
X603250Y1078230D02*
D03*
X877570Y1071880D02*
D03*
X613410Y1078230D02*
D03*
X396600Y1131760D02*
D03*
X418160Y1174910D02*
D03*
X303530Y1017270D02*
D03*
D71*
X278130Y1075690D02*
D03*
X369570Y1126490D02*
D03*
D72*
X305976Y1215991D02*
D03*
X289352Y1211575D02*
D03*
X311766Y1210233D02*
D03*
X296680Y1215525D02*
D03*
M02*
