G04*
G04 #@! TF.GenerationSoftware,Altium Limited,Altium Designer,23.5.1 (21)*
G04*
G04 Layer_Color=65535*
%FSLAX44Y44*%
%MOMM*%
G71*
G04*
G04 #@! TF.SameCoordinates,10AFCB3B-55C8-42C2-B7EA-D5DD10926C34*
G04*
G04*
G04 #@! TF.FilePolarity,Positive*
G04*
G01*
G75*
%ADD10C,0.2000*%
%ADD11C,0.2500*%
%ADD12C,0.1500*%
%ADD13C,0.2540*%
D10*
X646460Y1126940D02*
G03*
X646460Y1126940I-1000J0D01*
G01*
X901870D02*
G03*
X901870Y1126940I-1000J0D01*
G01*
X540460Y1132140D02*
X678460D01*
X540460Y1273740D02*
X678460D01*
Y1132140D02*
Y1148740D01*
Y1194640D02*
Y1273740D01*
X540460Y1132140D02*
Y1148740D01*
Y1194640D02*
Y1273740D01*
X472270Y1157070D02*
X482770D01*
X472270Y1169570D02*
X482770D01*
X485128Y1157370D02*
X497852D01*
X485128Y1143870D02*
X497852D01*
X795870Y1194640D02*
Y1273740D01*
Y1132140D02*
Y1148740D01*
X933870Y1194640D02*
Y1273740D01*
Y1132140D02*
Y1148740D01*
X795870Y1273740D02*
X933870D01*
X795870Y1132140D02*
X933870D01*
X347852Y1219759D02*
Y1234559D01*
Y1260059D02*
Y1274059D01*
X250552D02*
X347852D01*
X250552Y1219759D02*
Y1234559D01*
Y1260059D02*
Y1274059D01*
X296041Y1140803D02*
Y1171803D01*
X302041Y1140803D02*
Y1171803D01*
X296041D02*
X302041D01*
X296041Y1140803D02*
X302041D01*
X377380Y1212940D02*
X387880D01*
X377380Y1200440D02*
X387880D01*
X252417Y1181413D02*
X263417D01*
X252310Y1168000D02*
X263310D01*
X231690Y1149830D02*
X268690D01*
Y1082830D02*
Y1096330D01*
Y1136330D02*
Y1149830D01*
X231690Y1082830D02*
X268690D01*
X231690D02*
Y1084830D01*
Y1101830D02*
Y1107830D01*
Y1124830D02*
Y1130830D01*
Y1147830D02*
Y1149830D01*
X214609Y1052479D02*
X247671D01*
X214609Y1076041D02*
X247671D01*
X222250Y1157780D02*
Y1163780D01*
X486240Y1141630D02*
X496740D01*
X486240Y1129130D02*
X496740D01*
X444827Y1095051D02*
X468869Y1119093D01*
X418311Y1121568D02*
X442353Y1145609D01*
X458730Y1229380D02*
Y1239880D01*
X446230Y1229380D02*
Y1239880D01*
X396020Y1230570D02*
Y1231070D01*
X387020Y1230570D02*
Y1231070D01*
X468820Y1182660D02*
X479320D01*
X468820Y1195160D02*
X479320D01*
X462910Y1158160D02*
Y1163760D01*
Y1214060D02*
Y1219660D01*
X401410D02*
X407010D01*
X457310D02*
X462910D01*
X401410Y1158160D02*
Y1163760D01*
Y1214060D02*
Y1219660D01*
Y1158160D02*
X407010D01*
X457310D02*
X462910D01*
X377300Y1197220D02*
X377800D01*
X377300Y1188220D02*
X377800D01*
X410670Y1141750D02*
Y1152250D01*
X423170Y1141750D02*
Y1152250D01*
X381940Y1134050D02*
Y1134550D01*
X390940Y1134050D02*
Y1134550D01*
X377300Y1151390D02*
X377800D01*
X377300Y1160390D02*
X377800D01*
X377300Y1174250D02*
X377800D01*
X377300Y1183250D02*
X377800D01*
X429720Y1229380D02*
Y1239880D01*
X442220Y1229380D02*
Y1239880D01*
X428250Y1229380D02*
Y1239880D01*
X415750Y1229380D02*
Y1239880D01*
D11*
X340340Y1187450D02*
G03*
X340340Y1187450I-1250J0D01*
G01*
X312791Y1138303D02*
G03*
X312791Y1138303I-1250J0D01*
G01*
X205690Y1139580D02*
G03*
X205690Y1139580I-1250J0D01*
G01*
X453730Y1148270D02*
G03*
X453730Y1148270I-1250J0D01*
G01*
X468610Y1165860D02*
G03*
X468610Y1165860I-1250J0D01*
G01*
D12*
X340980Y1096450D02*
X344980D01*
X341012Y1116055D02*
X345012D01*
D13*
X698500Y1035045D02*
Y1022349D01*
X701039Y1019810D01*
X706117D01*
X708657Y1022349D01*
Y1035045D01*
X723892Y1032506D02*
X721353Y1035045D01*
X716274D01*
X713735Y1032506D01*
Y1029967D01*
X716274Y1027428D01*
X721353D01*
X723892Y1024888D01*
Y1022349D01*
X721353Y1019810D01*
X716274D01*
X713735Y1022349D01*
X728970Y1035045D02*
Y1019810D01*
X736588D01*
X739127Y1022349D01*
Y1024888D01*
X736588Y1027428D01*
X728970D01*
X736588D01*
X739127Y1029967D01*
Y1032506D01*
X736588Y1035045D01*
X728970D01*
X759440D02*
Y1019810D01*
Y1027428D01*
X769597D01*
Y1035045D01*
Y1019810D01*
X774675Y1035045D02*
Y1022349D01*
X777215Y1019810D01*
X782293D01*
X784832Y1022349D01*
Y1035045D01*
X789910D02*
Y1019810D01*
X797528D01*
X800067Y1022349D01*
Y1024888D01*
X797528Y1027428D01*
X789910D01*
X797528D01*
X800067Y1029967D01*
Y1032506D01*
X797528Y1035045D01*
X789910D01*
X979333Y1102674D02*
Y1099342D01*
Y1101008D01*
X987664D01*
X989330Y1099342D01*
Y1097676D01*
X987664Y1096010D01*
X979333Y1106007D02*
X989330D01*
Y1112671D01*
X980999Y1122668D02*
X979333Y1121002D01*
Y1117670D01*
X980999Y1116004D01*
X987664D01*
X989330Y1117670D01*
Y1121002D01*
X987664Y1122668D01*
X979333Y1132665D02*
Y1129333D01*
Y1130999D01*
X987664D01*
X989330Y1129333D01*
Y1127666D01*
X987664Y1126000D01*
X979333Y1135997D02*
X989330D01*
Y1142662D01*
X980999Y1152658D02*
X979333Y1150992D01*
Y1147660D01*
X980999Y1145994D01*
X987664D01*
X989330Y1147660D01*
Y1150992D01*
X987664Y1152658D01*
X979333Y1162655D02*
Y1159323D01*
Y1160989D01*
X987664D01*
X989330Y1159323D01*
Y1157657D01*
X987664Y1155991D01*
X979333Y1165987D02*
X989330D01*
Y1172652D01*
X980999Y1182649D02*
X979333Y1180983D01*
Y1177650D01*
X980999Y1175984D01*
X987664D01*
X989330Y1177650D01*
Y1180983D01*
X987664Y1182649D01*
X979333Y1192645D02*
Y1189313D01*
Y1190979D01*
X987664D01*
X989330Y1189313D01*
Y1187647D01*
X987664Y1185981D01*
X979333Y1195978D02*
X989330D01*
Y1202642D01*
X980999Y1212639D02*
X979333Y1210973D01*
Y1207641D01*
X980999Y1205975D01*
X987664D01*
X989330Y1207641D01*
Y1210973D01*
X987664Y1212639D01*
X704850Y1008375D02*
Y1005836D01*
X709928Y1000758D01*
X715007Y1005836D01*
Y1008375D01*
X709928Y1000758D02*
Y993140D01*
X720085Y1003297D02*
Y995679D01*
X722624Y993140D01*
X730242D01*
Y1003297D01*
X735320Y1008375D02*
Y993140D01*
Y1000758D01*
X737859Y1003297D01*
X742938D01*
X745477Y1000758D01*
Y993140D01*
X765790Y1008375D02*
Y993140D01*
Y998218D01*
X775947Y1008375D01*
X768329Y1000758D01*
X775947Y993140D01*
X781025D02*
Y995679D01*
X783565D01*
Y993140D01*
X781025D01*
M02*
