G04*
G04 #@! TF.GenerationSoftware,Altium Limited,Altium Designer,23.5.1 (21)*
G04*
G04 Layer_Color=128*
%FSLAX44Y44*%
%MOMM*%
G71*
G04*
G04 #@! TF.SameCoordinates,2BC34154-30F2-4EB8-A0CA-646768C512BA*
G04*
G04*
G04 #@! TF.FilePolarity,Positive*
G04*
G01*
G75*
%ADD71C,0.1270*%
D71*
X639860Y1148900D02*
X649060D01*
X644460Y1144300D02*
Y1153500D01*
X614860Y1148900D02*
X624060D01*
X619460Y1144300D02*
Y1153500D01*
X594860Y1148900D02*
X604060D01*
X599460Y1144300D02*
Y1153500D01*
X569860Y1148900D02*
X579060D01*
X574460Y1144300D02*
Y1153500D01*
X663860Y1176000D02*
X686460D01*
X675160Y1164700D02*
Y1187300D01*
X532460Y1176000D02*
X555060D01*
X543760Y1164700D02*
Y1187300D01*
X204790Y1017270D02*
X244790D01*
X224790Y997270D02*
Y1037270D01*
X787870Y1176000D02*
X810470D01*
X799170Y1164700D02*
Y1187300D01*
X919270Y1176000D02*
X941870D01*
X930570Y1164700D02*
Y1187300D01*
X825270Y1148900D02*
X834470D01*
X829870Y1144300D02*
Y1153500D01*
X850270Y1148900D02*
X859470D01*
X854870Y1144300D02*
Y1153500D01*
X870270Y1148900D02*
X879470D01*
X874870Y1144300D02*
Y1153500D01*
X895270Y1148900D02*
X904470D01*
X899870Y1144300D02*
Y1153500D01*
X335400Y1252988D02*
X349400D01*
X342400Y1245988D02*
Y1259988D01*
X249000Y1252988D02*
X263000D01*
X256000Y1245988D02*
Y1259988D01*
X333900Y1211189D02*
X350900D01*
X342400Y1202689D02*
Y1219688D01*
X247500Y1211189D02*
X264500D01*
X256000Y1202689D02*
Y1219688D01*
X324850Y1216188D02*
X331350D01*
X328100Y1212938D02*
Y1219438D01*
X267050Y1216188D02*
X273550D01*
X270300Y1212938D02*
Y1219438D01*
X397590Y1011770D02*
X407590D01*
X402590Y1006770D02*
Y1016770D01*
X377590Y1011770D02*
X387590D01*
X382590Y1006770D02*
Y1016770D01*
X357590Y1011770D02*
X367590D01*
X362590Y1006770D02*
Y1016770D01*
X417590Y1011770D02*
X427590D01*
X422590Y1006770D02*
Y1016770D01*
X943930Y1243330D02*
X983930D01*
X963930Y1223330D02*
Y1263330D01*
X943930Y1017270D02*
X983930D01*
X963930Y997270D02*
Y1037270D01*
X204790Y1243330D02*
X244790D01*
X224790Y1223330D02*
Y1263330D01*
X416330Y1139190D02*
X419330D01*
X417830Y1137690D02*
Y1140690D01*
X431300Y1164590D02*
X434300D01*
X432800Y1163090D02*
Y1166090D01*
X509230Y1117640D02*
X512230D01*
X510730Y1116140D02*
Y1119140D01*
X458240Y1156970D02*
X461240D01*
X459740Y1155470D02*
Y1158470D01*
X415965Y1164360D02*
X418965D01*
X417465Y1162860D02*
Y1165860D01*
X413790Y1192530D02*
X416790D01*
X415290Y1191030D02*
Y1194030D01*
X392200Y1148080D02*
X395200D01*
X393700Y1146580D02*
Y1149580D01*
X434110Y1192530D02*
X437110D01*
X435610Y1191030D02*
Y1194030D01*
X423950Y1192530D02*
X426950D01*
X425450Y1191030D02*
Y1194030D01*
X403630Y1192530D02*
X406630D01*
X405130Y1191030D02*
Y1194030D01*
X444270Y1192530D02*
X447270D01*
X445770Y1191030D02*
Y1194030D01*
X454430Y1192530D02*
X457430D01*
X455930Y1191030D02*
Y1194030D01*
X450200Y1164590D02*
X453200D01*
X451700Y1163090D02*
Y1166090D01*
X526820Y1122680D02*
X529820D01*
X528320Y1121180D02*
Y1124180D01*
X516660Y1070610D02*
X519660D01*
X518160Y1069110D02*
Y1072110D01*
X489990Y1062990D02*
X492990D01*
X491490Y1061490D02*
Y1064490D01*
X546140Y1082040D02*
X551140D01*
X548640Y1079540D02*
Y1084540D01*
X383310Y1137920D02*
X386310D01*
X384810Y1136420D02*
Y1139420D01*
X373150Y1136650D02*
X376150D01*
X374650Y1135150D02*
Y1138150D01*
X393470Y1065530D02*
X396470D01*
X394970Y1064030D02*
Y1067030D01*
X478270Y1169380D02*
X481270D01*
X479770Y1167880D02*
Y1170880D01*
X511122Y1142248D02*
X514122D01*
X512622Y1140748D02*
Y1143748D01*
X509090Y1183690D02*
X512090D01*
X510590Y1182190D02*
Y1185190D01*
X509230Y1092429D02*
X512230D01*
X510730Y1090929D02*
Y1093929D01*
X324890Y1155700D02*
X327890D01*
X326390Y1154200D02*
Y1157200D01*
X242340Y1160780D02*
X245340D01*
X243840Y1159280D02*
Y1162280D01*
X300500Y1219200D02*
X303500D01*
X302000Y1217700D02*
Y1220700D01*
X286003Y1216043D02*
X289004D01*
X287504Y1214543D02*
Y1217543D01*
X308400Y1216320D02*
X311400D01*
X309900Y1214820D02*
Y1217820D01*
X292089Y1222820D02*
X295089D01*
X293589Y1221320D02*
Y1224320D01*
X370974Y1111130D02*
X373974D01*
X372474Y1109630D02*
Y1112630D01*
X334230Y1070610D02*
X337230D01*
X335730Y1069110D02*
Y1072110D01*
X337967Y1054027D02*
X340967D01*
X339468Y1052527D02*
Y1055527D01*
X378101Y1094101D02*
X381101D01*
X379601Y1092601D02*
Y1095601D01*
X383310Y1075690D02*
X386310D01*
X384810Y1074190D02*
Y1077190D01*
X726210Y1010920D02*
X729210D01*
X727710Y1009420D02*
Y1012420D01*
X746530Y1010920D02*
X749530D01*
X748030Y1009420D02*
Y1012420D01*
X736370Y1010920D02*
X739370D01*
X737870Y1009420D02*
Y1012420D01*
X460780Y1050290D02*
X463780D01*
X462280Y1048790D02*
Y1051790D01*
X411250Y1050290D02*
X414250D01*
X412750Y1048790D02*
Y1051790D01*
X449455Y1051560D02*
X452455D01*
X450955Y1050060D02*
Y1053060D01*
X430300Y1234440D02*
X433300D01*
X431800Y1232940D02*
Y1235940D01*
X440460Y1234440D02*
X443460D01*
X441960Y1232940D02*
Y1235940D01*
X450620Y1234440D02*
X453620D01*
X452120Y1232940D02*
Y1235940D01*
X260120Y1192530D02*
X263120D01*
X261620Y1191030D02*
Y1194030D01*
X546140Y1130300D02*
X551140D01*
X548640Y1127800D02*
Y1132800D01*
X295095Y1115848D02*
X300095D01*
X297595Y1113348D02*
Y1118348D01*
X299110Y1076612D02*
X304110D01*
X301610Y1074112D02*
Y1079112D01*
X421410Y1054100D02*
X424410D01*
X422910Y1052600D02*
Y1055600D01*
X509230Y1105260D02*
X512230D01*
X510730Y1103760D02*
Y1106760D01*
X618260Y1084580D02*
X621260D01*
X619760Y1083080D02*
Y1086080D01*
X628420Y1084580D02*
X631420D01*
X629920Y1083080D02*
Y1086080D01*
X608100Y1084580D02*
X611100D01*
X609600Y1083080D02*
Y1086080D01*
X726210Y1084580D02*
X729210D01*
X727710Y1083080D02*
Y1086080D01*
X736370Y1084580D02*
X739370D01*
X737870Y1083080D02*
Y1086080D01*
X448154Y1122710D02*
X451154D01*
X449654Y1121210D02*
Y1124210D01*
X434110Y1122710D02*
X437110D01*
X435610Y1121210D02*
Y1124210D01*
X462110Y1122710D02*
X465110D01*
X463610Y1121210D02*
Y1124210D01*
X462110Y1108710D02*
X465110D01*
X463610Y1107210D02*
Y1110210D01*
X434110Y1108710D02*
X437110D01*
X435610Y1107210D02*
Y1110210D01*
X448110Y1108710D02*
X451110D01*
X449610Y1107210D02*
Y1110210D01*
X434110Y1094710D02*
X437110D01*
X435610Y1093210D02*
Y1096210D01*
X448110Y1094710D02*
X451110D01*
X449610Y1093210D02*
Y1096210D01*
X462110Y1094710D02*
X465110D01*
X463610Y1093210D02*
Y1096210D01*
X746530Y1084580D02*
X749530D01*
X748030Y1083080D02*
Y1086080D01*
X282980Y1010920D02*
X285980D01*
X284480Y1009420D02*
Y1012420D01*
X293140Y1010920D02*
X296140D01*
X294640Y1009420D02*
Y1012420D01*
X272820Y1010920D02*
X275820D01*
X274320Y1009420D02*
Y1012420D01*
X273689Y1172994D02*
X276688D01*
X275189Y1171494D02*
Y1174494D01*
X237530Y1116330D02*
X242530D01*
X240030Y1113830D02*
Y1118830D01*
X253540Y1064260D02*
X259540D01*
X256540Y1061260D02*
Y1067260D01*
X321080Y1177290D02*
X324080D01*
X322580Y1175790D02*
Y1178790D01*
X628420Y1010920D02*
X631420D01*
X629920Y1009420D02*
Y1012420D01*
X618260Y1010920D02*
X621260D01*
X619760Y1009420D02*
Y1012420D01*
X608100Y1010920D02*
X611100D01*
X609600Y1009420D02*
Y1012420D01*
X329836Y1185044D02*
X332836D01*
X331336Y1183544D02*
Y1186544D01*
M02*
