G04*
G04 #@! TF.GenerationSoftware,Altium Limited,Altium Designer,23.5.1 (21)*
G04*
G04 Layer_Color=8388736*
%FSLAX44Y44*%
%MOMM*%
G71*
G04*
G04 #@! TF.SameCoordinates,10AFCB3B-55C8-42C2-B7EA-D5DD10926C34*
G04*
G04*
G04 #@! TF.FilePolarity,Negative*
G04*
G01*
G75*
%ADD14R,0.4000X0.5000*%
%ADD15R,0.5153X0.4725*%
%ADD17R,0.9000X0.2800*%
%ADD18R,0.3000X1.1500*%
%ADD19R,0.6000X1.1500*%
%ADD21R,0.4750X0.5000*%
%ADD22R,2.1500X0.9500*%
%ADD23R,2.1500X3.2500*%
%ADD24R,1.5781X1.5562*%
G04:AMPARAMS|DCode=26|XSize=1.3mm|YSize=1.05mm|CornerRadius=0mm|HoleSize=0mm|Usage=FLASHONLY|Rotation=225.000|XOffset=0mm|YOffset=0mm|HoleType=Round|Shape=Rectangle|*
%AMROTATEDRECTD26*
4,1,4,0.0884,0.8309,0.8309,0.0884,-0.0884,-0.8309,-0.8309,-0.0884,0.0884,0.8309,0.0*
%
%ADD26ROTATEDRECTD26*%

%ADD27R,0.5000X0.4000*%
%ADD28R,0.8000X0.9000*%
%ADD29R,3.7000X3.7000*%
%ADD30R,0.2800X0.9000*%
%ADD31R,0.9000X0.8000*%
%ADD37R,0.8532X0.8532*%
%ADD38R,1.3032X0.8032*%
G04:AMPARAMS|DCode=39|XSize=0.9632mm|YSize=0.8636mm|CornerRadius=0.1842mm|HoleSize=0mm|Usage=FLASHONLY|Rotation=90.000|XOffset=0mm|YOffset=0mm|HoleType=Round|Shape=RoundedRectangle|*
%AMROUNDEDRECTD39*
21,1,0.9632,0.4953,0,0,90.0*
21,1,0.5949,0.8636,0,0,90.0*
1,1,0.3683,0.2477,0.2975*
1,1,0.3683,0.2477,-0.2975*
1,1,0.3683,-0.2477,-0.2975*
1,1,0.3683,-0.2477,0.2975*
%
%ADD39ROUNDEDRECTD39*%
G04:AMPARAMS|DCode=40|XSize=0.7532mm|YSize=0.7032mm|CornerRadius=0.1641mm|HoleSize=0mm|Usage=FLASHONLY|Rotation=0.000|XOffset=0mm|YOffset=0mm|HoleType=Round|Shape=RoundedRectangle|*
%AMROUNDEDRECTD40*
21,1,0.7532,0.3750,0,0,0.0*
21,1,0.4250,0.7032,0,0,0.0*
1,1,0.3282,0.2125,-0.1875*
1,1,0.3282,-0.2125,-0.1875*
1,1,0.3282,-0.2125,0.1875*
1,1,0.3282,0.2125,0.1875*
%
%ADD40ROUNDEDRECTD40*%
%ADD41R,0.8032X0.7032*%
G04:AMPARAMS|DCode=42|XSize=1.0532mm|YSize=0.9532mm|CornerRadius=0mm|HoleSize=0mm|Usage=FLASHONLY|Rotation=315.000|XOffset=0mm|YOffset=0mm|HoleType=Round|Shape=Rectangle|*
%AMROTATEDRECTD42*
4,1,4,-0.7094,0.0354,-0.0354,0.7094,0.7094,-0.0354,0.0354,-0.7094,-0.7094,0.0354,0.0*
%
%ADD42ROTATEDRECTD42*%

%ADD43R,0.7032X0.8032*%
G04:AMPARAMS|DCode=44|XSize=1.0532mm|YSize=0.9532mm|CornerRadius=0mm|HoleSize=0mm|Usage=FLASHONLY|Rotation=225.000|XOffset=0mm|YOffset=0mm|HoleType=Round|Shape=Rectangle|*
%AMROTATEDRECTD44*
4,1,4,0.0354,0.7094,0.7094,0.0354,-0.0354,-0.7094,-0.7094,-0.0354,0.0354,0.7094,0.0*
%
%ADD44ROTATEDRECTD44*%

%ADD45R,1.6312X1.6312*%
%ADD46C,1.6312*%
%ADD47C,3.4792*%
%ADD48C,1.7032*%
%ADD49R,1.7032X1.7032*%
%ADD50C,0.6500*%
G04:AMPARAMS|DCode=51|XSize=1mm|YSize=2.1mm|CornerRadius=0.5mm|HoleSize=0mm|Usage=FLASHONLY|Rotation=180.000|XOffset=0mm|YOffset=0mm|HoleType=Round|Shape=RoundedRectangle|*
%AMROUNDEDRECTD51*
21,1,1.0000,1.1000,0,0,180.0*
21,1,0.0000,2.1000,0,0,180.0*
1,1,1.0000,0.0000,0.5500*
1,1,1.0000,0.0000,0.5500*
1,1,1.0000,0.0000,-0.5500*
1,1,1.0000,0.0000,-0.5500*
%
%ADD51ROUNDEDRECTD51*%
G04:AMPARAMS|DCode=52|XSize=1mm|YSize=1.8mm|CornerRadius=0.5mm|HoleSize=0mm|Usage=FLASHONLY|Rotation=180.000|XOffset=0mm|YOffset=0mm|HoleType=Round|Shape=RoundedRectangle|*
%AMROUNDEDRECTD52*
21,1,1.0000,0.8000,0,0,180.0*
21,1,0.0000,1.8000,0,0,180.0*
1,1,1.0000,0.0000,0.4000*
1,1,1.0000,0.0000,0.4000*
1,1,1.0000,0.0000,-0.4000*
1,1,1.0000,0.0000,-0.4000*
%
%ADD52ROUNDEDRECTD52*%
%ADD53C,4.2032*%
%ADD54C,0.8032*%
%ADD55C,1.2032*%
%ADD56C,0.7032*%
D14*
X481520Y1163320D02*
D03*
X473520D02*
D03*
X378630Y1206690D02*
D03*
X386630D02*
D03*
X487490Y1135380D02*
D03*
X495490D02*
D03*
X478070Y1188910D02*
D03*
X470070D02*
D03*
D15*
X495276Y1150620D02*
D03*
X487704D02*
D03*
D17*
X459660Y1178910D02*
D03*
Y1183910D02*
D03*
Y1193910D02*
D03*
Y1198910D02*
D03*
Y1168910D02*
D03*
Y1173910D02*
D03*
X404660Y1168910D02*
D03*
Y1173910D02*
D03*
Y1178910D02*
D03*
Y1183910D02*
D03*
Y1188910D02*
D03*
Y1193910D02*
D03*
Y1198910D02*
D03*
Y1203910D02*
D03*
Y1208910D02*
D03*
X459660D02*
D03*
Y1203910D02*
D03*
Y1188910D02*
D03*
D18*
X311702Y1198059D02*
D03*
X316702D02*
D03*
X306702D02*
D03*
X291702D02*
D03*
X286702D02*
D03*
X281702D02*
D03*
X301702D02*
D03*
X296702D02*
D03*
D19*
X331202D02*
D03*
X323202D02*
D03*
X267202D02*
D03*
X275202D02*
D03*
D21*
X252685Y1174750D02*
D03*
X262935D02*
D03*
D22*
X221190Y1139330D02*
D03*
Y1116330D02*
D03*
Y1093330D02*
D03*
D23*
X279190Y1116330D02*
D03*
D24*
X222499Y1064260D02*
D03*
X239781D02*
D03*
D26*
X457909Y1122275D02*
D03*
X441645Y1106011D02*
D03*
X429271Y1118385D02*
D03*
X445535Y1134649D02*
D03*
D27*
X452480Y1238630D02*
D03*
Y1230630D02*
D03*
X416920Y1143000D02*
D03*
Y1151000D02*
D03*
X435970Y1230630D02*
D03*
Y1238630D02*
D03*
X422000D02*
D03*
Y1230630D02*
D03*
D28*
X391520Y1239320D02*
D03*
Y1222320D02*
D03*
X386440Y1125800D02*
D03*
Y1142800D02*
D03*
D29*
X432160Y1188910D02*
D03*
D30*
X452160Y1161410D02*
D03*
X447160D02*
D03*
X442160D02*
D03*
X437160D02*
D03*
X432160D02*
D03*
X427160D02*
D03*
X422160D02*
D03*
X417160D02*
D03*
X412160D02*
D03*
Y1216410D02*
D03*
X417160D02*
D03*
X422160D02*
D03*
X427160D02*
D03*
X432160D02*
D03*
X437160D02*
D03*
X442160D02*
D03*
X447160D02*
D03*
X452160D02*
D03*
D31*
X369050Y1192720D02*
D03*
X386050D02*
D03*
Y1155890D02*
D03*
X369050D02*
D03*
X386050Y1178750D02*
D03*
X369050D02*
D03*
D37*
X855900Y1125220D02*
D03*
X873840Y1126490D02*
D03*
X611434Y1125190D02*
D03*
X621434D02*
D03*
X845900Y1125220D02*
D03*
X883840Y1126490D02*
D03*
X593010Y1125220D02*
D03*
X583010D02*
D03*
D38*
X286541Y1156303D02*
D03*
Y1165803D02*
D03*
X311541D02*
D03*
Y1156303D02*
D03*
Y1146803D02*
D03*
X286541D02*
D03*
D39*
X229250Y1160780D02*
D03*
X215250D02*
D03*
D40*
X342980Y1091950D02*
D03*
Y1100950D02*
D03*
X343012Y1111555D02*
D03*
Y1120555D02*
D03*
D41*
X314960Y1187370D02*
D03*
Y1177370D02*
D03*
X284480Y1187370D02*
D03*
Y1177370D02*
D03*
D42*
X458221Y1098131D02*
D03*
X467059Y1106970D02*
D03*
D43*
X387630Y1167320D02*
D03*
X377630D02*
D03*
D44*
X461671Y1138529D02*
D03*
X470509Y1129691D02*
D03*
D45*
X644460Y1143840D02*
D03*
X899870D02*
D03*
D46*
X619460D02*
D03*
X599460D02*
D03*
X574460D02*
D03*
X829870D02*
D03*
X854870D02*
D03*
X874870D02*
D03*
D47*
X675160Y1170940D02*
D03*
X543760D02*
D03*
X799170D02*
D03*
X930570D02*
D03*
D48*
X422590Y1053260D02*
D03*
X382590D02*
D03*
X402590D02*
D03*
D49*
X362590D02*
D03*
D50*
X270302Y1210509D02*
D03*
X328102D02*
D03*
D51*
X256002Y1205509D02*
D03*
X342402D02*
D03*
D52*
X256002Y1247309D02*
D03*
X342402D02*
D03*
D53*
X963930Y1243330D02*
D03*
Y1017270D02*
D03*
X224790D02*
D03*
Y1243330D02*
D03*
D54*
X491490Y1163290D02*
D03*
X502920Y1162558D02*
D03*
X509270Y1135380D02*
D03*
X485140Y1123950D02*
D03*
X476250Y1115060D02*
D03*
X477520Y1102360D02*
D03*
X419100Y1107440D02*
D03*
X509270Y1150620D02*
D03*
X324143Y1156244D02*
D03*
X397517Y1122687D02*
D03*
X331336Y1185044D02*
D03*
X326390Y1177290D02*
D03*
X266730Y1188690D02*
D03*
X275390Y1174610D02*
D03*
X358140Y1192530D02*
D03*
X369570Y1206500D02*
D03*
X391160Y1252220D02*
D03*
X435719Y1247031D02*
D03*
X421695Y1247146D02*
D03*
X452120Y1247140D02*
D03*
X502920Y1238250D02*
D03*
X492760D02*
D03*
X482600D02*
D03*
X753110Y1120140D02*
D03*
X742950D02*
D03*
X732790D02*
D03*
X485140Y1202690D02*
D03*
X302260Y1088390D02*
D03*
X312420D02*
D03*
X322580D02*
D03*
X334010Y1169670D02*
D03*
X339090Y1177290D02*
D03*
X492180Y1192530D02*
D03*
X446160Y1174910D02*
D03*
X444030Y1261220D02*
D03*
X443752Y1226959D02*
D03*
X418160Y1202910D02*
D03*
Y1188954D02*
D03*
X368660Y1167320D02*
D03*
X313690Y1017270D02*
D03*
X323850D02*
D03*
X380090Y1227010D02*
D03*
X432160Y1188910D02*
D03*
Y1174910D02*
D03*
X446160Y1188910D02*
D03*
Y1202910D02*
D03*
X432160D02*
D03*
X867410Y1071880D02*
D03*
X593090Y1078230D02*
D03*
X857250Y1071880D02*
D03*
X603250Y1078230D02*
D03*
X877570Y1071880D02*
D03*
X613410Y1078230D02*
D03*
X396600Y1131760D02*
D03*
X418160Y1174910D02*
D03*
X303530Y1017270D02*
D03*
D55*
X278130Y1075690D02*
D03*
X369570Y1126490D02*
D03*
D56*
X305976Y1215991D02*
D03*
X289352Y1211575D02*
D03*
X311766Y1210233D02*
D03*
X296680Y1215525D02*
D03*
M02*
