M48
;Layer_Color=9474304
;FILE_FORMAT=2:5
INCH,LZ
;TYPE=PLATED
T1F00S00C0.01181
T2F00S00C0.01968
T4F00S00C0.03622
T5F00S00C0.03937
T6F00S00C0.08898
T7F00S00C0.15748
;TYPE=NON_PLATED
T9F00S00C0.02559
%
T01
X01195Y04005
X01235
X01275
X0127Y04285
X0123
X0119
X0127615Y0455214
X01285Y04635
X0130447Y0466553
X01335Y04635
X01315Y04605
X0145142Y0459575
X0156142Y0445575
X0108421Y0462445
X0105012Y0467988
X016463Y0468092
X0170142Y0468075
Y0462563
X0175654
Y0468075
X016463Y0462563
X0165Y0436
X0156503Y0442003
X01875Y0439
X0188Y0434
X0191Y04425
X02005Y0447
Y0453
X0198Y04577
X01935Y0457988
X02335Y04245
X02375
X02415
X02885Y0441
X02925
X02965
X03375Y0422
X03415
X03455
X0193772Y04695
X0191Y04735
X019Y04875
X0194
X0198
X0178Y0491
X0171543Y0490957
X0166022Y0491003
X0174815Y0496543
X0174706Y0483055
X0175654Y0473587
X0170142
X016463
X01455Y0475
X0141Y04695
X0149642Y0483075
X0154Y0493
X0122743Y047647
X0120463Y0478737
X0116803Y0478553
X0113918Y0476998
T02
X01095Y04235
X01455Y04435
T04
X0226165Y0450331
X0236008
X0243882
X0253724
X032672
X0336563
X0344437
X0354279
T05
X0142752Y0414669
X0150626
X01585
X0166374
T06
X0214079Y0461
X0265811
X0314634
X0366366
T07
X00885Y04005
X03795
Y04895
X00885
T09
X0106418Y0476578
X0129174
M30
