G04*
G04 #@! TF.GenerationSoftware,Altium Limited,Altium Designer,23.5.1 (21)*
G04*
G04 Layer_Color=16711935*
%FSLAX44Y44*%
%MOMM*%
G71*
G04*
G04 #@! TF.SameCoordinates,10AFCB3B-55C8-42C2-B7EA-D5DD10926C34*
G04*
G04*
G04 #@! TF.FilePolarity,Negative*
G04*
G01*
G75*
%ADD45R,1.6312X1.6312*%
%ADD46C,1.6312*%
%ADD47C,3.4792*%
%ADD48C,1.7032*%
%ADD49R,1.7032X1.7032*%
%ADD50C,0.6500*%
G04:AMPARAMS|DCode=51|XSize=1mm|YSize=2.1mm|CornerRadius=0.5mm|HoleSize=0mm|Usage=FLASHONLY|Rotation=180.000|XOffset=0mm|YOffset=0mm|HoleType=Round|Shape=RoundedRectangle|*
%AMROUNDEDRECTD51*
21,1,1.0000,1.1000,0,0,180.0*
21,1,0.0000,2.1000,0,0,180.0*
1,1,1.0000,0.0000,0.5500*
1,1,1.0000,0.0000,0.5500*
1,1,1.0000,0.0000,-0.5500*
1,1,1.0000,0.0000,-0.5500*
%
%ADD51ROUNDEDRECTD51*%
G04:AMPARAMS|DCode=52|XSize=1mm|YSize=1.8mm|CornerRadius=0.5mm|HoleSize=0mm|Usage=FLASHONLY|Rotation=180.000|XOffset=0mm|YOffset=0mm|HoleType=Round|Shape=RoundedRectangle|*
%AMROUNDEDRECTD52*
21,1,1.0000,0.8000,0,0,180.0*
21,1,0.0000,1.8000,0,0,180.0*
1,1,1.0000,0.0000,0.4000*
1,1,1.0000,0.0000,0.4000*
1,1,1.0000,0.0000,-0.4000*
1,1,1.0000,0.0000,-0.4000*
%
%ADD52ROUNDEDRECTD52*%
%ADD53C,4.2032*%
%ADD54C,0.8032*%
%ADD55C,1.2032*%
%ADD56C,0.7032*%
D45*
X644460Y1143840D02*
D03*
X899870D02*
D03*
D46*
X619460D02*
D03*
X599460D02*
D03*
X574460D02*
D03*
X829870D02*
D03*
X854870D02*
D03*
X874870D02*
D03*
D47*
X675160Y1170940D02*
D03*
X543760D02*
D03*
X799170D02*
D03*
X930570D02*
D03*
D48*
X422590Y1053260D02*
D03*
X382590D02*
D03*
X402590D02*
D03*
D49*
X362590D02*
D03*
D50*
X270302Y1210509D02*
D03*
X328102D02*
D03*
D51*
X256002Y1205509D02*
D03*
X342402D02*
D03*
D52*
X256002Y1247309D02*
D03*
X342402D02*
D03*
D53*
X963930Y1243330D02*
D03*
Y1017270D02*
D03*
X224790D02*
D03*
Y1243330D02*
D03*
D54*
X491490Y1163290D02*
D03*
X502920Y1162558D02*
D03*
X509270Y1135380D02*
D03*
X485140Y1123950D02*
D03*
X476250Y1115060D02*
D03*
X477520Y1102360D02*
D03*
X419100Y1107440D02*
D03*
X509270Y1150620D02*
D03*
X324143Y1156244D02*
D03*
X397517Y1122687D02*
D03*
X331336Y1185044D02*
D03*
X326390Y1177290D02*
D03*
X266730Y1188690D02*
D03*
X275390Y1174610D02*
D03*
X358140Y1192530D02*
D03*
X369570Y1206500D02*
D03*
X391160Y1252220D02*
D03*
X435719Y1247031D02*
D03*
X421695Y1247146D02*
D03*
X452120Y1247140D02*
D03*
X502920Y1238250D02*
D03*
X492760D02*
D03*
X482600D02*
D03*
X753110Y1120140D02*
D03*
X742950D02*
D03*
X732790D02*
D03*
X485140Y1202690D02*
D03*
X302260Y1088390D02*
D03*
X312420D02*
D03*
X322580D02*
D03*
X334010Y1169670D02*
D03*
X339090Y1177290D02*
D03*
X492180Y1192530D02*
D03*
X446160Y1174910D02*
D03*
X444030Y1261220D02*
D03*
X443752Y1226959D02*
D03*
X418160Y1202910D02*
D03*
Y1188954D02*
D03*
X368660Y1167320D02*
D03*
X313690Y1017270D02*
D03*
X323850D02*
D03*
X380090Y1227010D02*
D03*
X432160Y1188910D02*
D03*
Y1174910D02*
D03*
X446160Y1188910D02*
D03*
Y1202910D02*
D03*
X432160D02*
D03*
X867410Y1071880D02*
D03*
X593090Y1078230D02*
D03*
X857250Y1071880D02*
D03*
X603250Y1078230D02*
D03*
X877570Y1071880D02*
D03*
X613410Y1078230D02*
D03*
X396600Y1131760D02*
D03*
X418160Y1174910D02*
D03*
X303530Y1017270D02*
D03*
D55*
X278130Y1075690D02*
D03*
X369570Y1126490D02*
D03*
D56*
X305976Y1215991D02*
D03*
X289352Y1211575D02*
D03*
X311766Y1210233D02*
D03*
X296680Y1215525D02*
D03*
M02*
