M48
;Layer_Color=9474304
;FILE_FORMAT=2:5
INCH,LZ
;TYPE=PLATED
T1F00S00C0.01181
T2F00S00C0.01968
T3F00S00C0.02362
T5F00S00C0.03622
T6F00S00C0.03937
T7F00S00C0.08898
T8F00S00C0.15748
;TYPE=NON_PLATED
T10F00S00C0.02559
%
T01
X0108Y0398
X0112
X0116
X0133649Y0414971
X0132177Y04215
X01515Y04235
X01555Y04195
X0149449Y0430749
X0146643Y0437453
X01475Y04475
X01515Y0448
X0155Y0452
X01285Y0455
X0127Y04635
X0130447Y0466553
X0108342Y0461809
X0096Y0457
X0164356Y0458409
X0170394Y04585
X0177835
X0181Y04555
X0188886Y0460386
X020102Y046602
X020182Y0449704
X0201075Y0440016
Y0435142
Y043009
X0204Y04215
X01935Y04185
X0182Y04135
X0177541Y0414
X01665Y0415
X01625Y04135
X01715Y0430988
Y04365
Y0442012
X0177029
X0182524
Y04365
X0177012
Y0430988
X0182524
X01645Y04485
X0208Y0442
X024Y0427
X0244
X0248
Y0398
X0244
X024
X02865
X02905
X02945
Y0427
X02905
X02865
X01795Y04695
X01755
X01715
X01675
X01635
X01595
X017Y0486
X0174
X0178
X0122008Y0478866
X0118898Y048
X0115586Y0481425
X011319Y0478757
X0103Y04695
T02
X00945Y04395
X0117163Y043931
X0118744Y0423863
X0216Y0426
Y0445
T03
X0101Y0419
T05
X0226165Y0452323
X0236008
X0243882
X0253724
X032672
X0336563
X0344437
X0354279
T06
X0142752Y0398335
X0150626
X01585
X0166374
T07
X0214079Y0462992
X0265811
X0314634
X0366366
T08
X00885Y04005
X03795
Y04895
X00885
T10
X0106417Y0478814
X0129173
M30
