G04*
G04 #@! TF.GenerationSoftware,Altium Limited,Altium Designer,23.5.1 (21)*
G04*
G04 Layer_Physical_Order=2*
G04 Layer_Color=16711680*
%FSLAX44Y44*%
%MOMM*%
G71*
G04*
G04 #@! TF.SameCoordinates,10AFCB3B-55C8-42C2-B7EA-D5DD10926C34*
G04*
G04*
G04 #@! TF.FilePolarity,Positive*
G04*
G01*
G75*
%ADD13C,0.2540*%
%ADD50C,0.6500*%
G04:AMPARAMS|DCode=51|XSize=1mm|YSize=2.1mm|CornerRadius=0.5mm|HoleSize=0mm|Usage=FLASHONLY|Rotation=180.000|XOffset=0mm|YOffset=0mm|HoleType=Round|Shape=RoundedRectangle|*
%AMROUNDEDRECTD51*
21,1,1.0000,1.1000,0,0,180.0*
21,1,0.0000,2.1000,0,0,180.0*
1,1,1.0000,0.0000,0.5500*
1,1,1.0000,0.0000,0.5500*
1,1,1.0000,0.0000,-0.5500*
1,1,1.0000,0.0000,-0.5500*
%
%ADD51ROUNDEDRECTD51*%
G04:AMPARAMS|DCode=52|XSize=1mm|YSize=1.8mm|CornerRadius=0.5mm|HoleSize=0mm|Usage=FLASHONLY|Rotation=180.000|XOffset=0mm|YOffset=0mm|HoleType=Round|Shape=RoundedRectangle|*
%AMROUNDEDRECTD52*
21,1,1.0000,0.8000,0,0,180.0*
21,1,0.0000,1.8000,0,0,180.0*
1,1,1.0000,0.0000,0.4000*
1,1,1.0000,0.0000,0.4000*
1,1,1.0000,0.0000,-0.4000*
1,1,1.0000,0.0000,-0.4000*
%
%ADD52ROUNDEDRECTD52*%
%ADD57C,0.5000*%
%ADD58C,0.3000*%
%ADD64R,1.4280X1.4280*%
%ADD65C,1.4280*%
%ADD66C,3.2760*%
%ADD67C,1.5000*%
%ADD68R,1.5000X1.5000*%
%ADD69C,4.0000*%
%ADD70C,0.6000*%
%ADD71C,1.0000*%
%ADD72C,0.5000*%
G36*
X974090Y1273810D02*
X976179Y1273770D01*
X980261Y1272876D01*
X984091Y1271204D01*
X987520Y1268816D01*
X990418Y1265805D01*
X992673Y1262287D01*
X994198Y1258396D01*
X994934Y1254283D01*
X994894Y1252194D01*
X994894Y1252194D01*
X994894Y1252194D01*
X994410Y1008380D01*
X994410Y1006254D01*
X993580Y1002082D01*
X991953Y998153D01*
X989590Y994617D01*
X986583Y991610D01*
X983047Y989247D01*
X979118Y987619D01*
X974946Y986790D01*
X972820Y986790D01*
X215900D01*
X213773Y986790D01*
X209602Y987620D01*
X205673Y989247D01*
X202137Y991610D01*
X199130Y994617D01*
X196767Y998153D01*
X195140Y1002082D01*
X194310Y1006254D01*
X194310Y1008380D01*
Y1253490D01*
Y1255491D01*
X195091Y1259417D01*
X196623Y1263115D01*
X198846Y1266443D01*
X201677Y1269273D01*
X205005Y1271497D01*
X208703Y1273029D01*
X212629Y1273810D01*
X214630D01*
X974090Y1273810D01*
D02*
G37*
%LPC*%
G36*
X445025Y1266220D02*
X443035D01*
X441198Y1265459D01*
X440347Y1264608D01*
X425379D01*
X424014Y1264336D01*
X422856Y1263563D01*
X393492Y1234199D01*
X383710D01*
X382344Y1233927D01*
X381187Y1233153D01*
X380043Y1232010D01*
X379095D01*
X377258Y1231249D01*
X375851Y1229842D01*
X375090Y1228005D01*
Y1226015D01*
X375851Y1224178D01*
X376521Y1223508D01*
Y1180228D01*
X368613Y1172320D01*
X367665D01*
X365828Y1171559D01*
X364421Y1170152D01*
X363660Y1168315D01*
Y1167367D01*
X342497Y1146204D01*
X342350Y1146175D01*
X341630Y1146318D01*
X339874Y1145969D01*
X338386Y1144974D01*
X277333Y1083922D01*
X276358Y1082462D01*
X275428Y1082213D01*
X273832Y1081291D01*
X272529Y1079988D01*
X271607Y1078392D01*
X271130Y1076612D01*
Y1074768D01*
X271607Y1072988D01*
X272529Y1071392D01*
X273832Y1070089D01*
X275428Y1069167D01*
X277208Y1068690D01*
X279052D01*
X280832Y1069167D01*
X282428Y1070089D01*
X283731Y1071392D01*
X284653Y1072988D01*
X285130Y1074768D01*
Y1076612D01*
X284680Y1078291D01*
X343531Y1137142D01*
X386503D01*
X391600Y1132045D01*
Y1130766D01*
X392361Y1128928D01*
X393768Y1127521D01*
X395605Y1126760D01*
X397595D01*
X399432Y1127521D01*
X400839Y1128928D01*
X401600Y1130766D01*
Y1132755D01*
X400839Y1134592D01*
X399559Y1135872D01*
X399643Y1136466D01*
X399949Y1137142D01*
X449580D01*
X451336Y1137491D01*
X452824Y1138486D01*
X488060Y1173721D01*
X492552D01*
X499351Y1166922D01*
Y1166061D01*
X498681Y1165390D01*
X497920Y1163553D01*
Y1161564D01*
X498681Y1159726D01*
X500088Y1158319D01*
X501925Y1157558D01*
X503915D01*
X505752Y1158319D01*
X507159Y1159726D01*
X507920Y1161564D01*
Y1163553D01*
X507159Y1165390D01*
X506489Y1166061D01*
Y1168400D01*
X506217Y1169766D01*
X505443Y1170923D01*
X496553Y1179813D01*
X495396Y1180587D01*
X494030Y1180859D01*
X488709D01*
Y1186597D01*
X489979Y1187445D01*
X490910Y1187060D01*
Y1192530D01*
Y1198000D01*
X490327Y1197759D01*
X489186Y1198481D01*
X489102Y1199581D01*
X489379Y1199858D01*
X490140Y1201695D01*
Y1203685D01*
X489379Y1205522D01*
X487972Y1206929D01*
X486135Y1207690D01*
X484145D01*
X482308Y1206929D01*
X480901Y1205522D01*
X480140Y1203685D01*
Y1201695D01*
X480901Y1199858D01*
X481571Y1199187D01*
Y1180210D01*
X447679Y1146318D01*
X354364D01*
X353878Y1147492D01*
X368707Y1162320D01*
X369655D01*
X371492Y1163081D01*
X372899Y1164488D01*
X373660Y1166326D01*
Y1167273D01*
X382613Y1176227D01*
X383387Y1177384D01*
X383659Y1178750D01*
Y1223508D01*
X384329Y1224178D01*
X385090Y1226015D01*
Y1226963D01*
X385188Y1227061D01*
X394970D01*
X396336Y1227333D01*
X397493Y1228107D01*
X426858Y1257471D01*
X440708D01*
X441198Y1256981D01*
X443035Y1256220D01*
X445025D01*
X446862Y1256981D01*
X448269Y1258388D01*
X449030Y1260225D01*
Y1262215D01*
X448269Y1264052D01*
X446862Y1265459D01*
X445025Y1266220D01*
D02*
G37*
G36*
X343672Y1258747D02*
Y1248579D01*
X350007D01*
Y1251309D01*
X349748Y1253278D01*
X348988Y1255112D01*
X347779Y1256687D01*
X346204Y1257895D01*
X344370Y1258655D01*
X343672Y1258747D01*
D02*
G37*
G36*
X257272D02*
Y1248579D01*
X263607D01*
Y1251309D01*
X263348Y1253278D01*
X262588Y1255112D01*
X261379Y1256687D01*
X259804Y1257895D01*
X257970Y1258655D01*
X257272Y1258747D01*
D02*
G37*
G36*
X341132D02*
X340434Y1258655D01*
X338599Y1257895D01*
X337024Y1256687D01*
X335816Y1255112D01*
X335056Y1253278D01*
X334797Y1251309D01*
Y1248579D01*
X341132D01*
Y1258747D01*
D02*
G37*
G36*
X254732D02*
X254034Y1258655D01*
X252199Y1257895D01*
X250624Y1256687D01*
X249416Y1255112D01*
X248656Y1253278D01*
X248397Y1251309D01*
Y1248579D01*
X254732D01*
Y1258747D01*
D02*
G37*
G36*
X350007Y1246039D02*
X343672D01*
Y1235871D01*
X344370Y1235963D01*
X346204Y1236723D01*
X347779Y1237932D01*
X348988Y1239507D01*
X349748Y1241341D01*
X350007Y1243309D01*
Y1246039D01*
D02*
G37*
G36*
X263607D02*
X257272D01*
Y1235871D01*
X257970Y1235963D01*
X259804Y1236723D01*
X261379Y1237932D01*
X262588Y1239507D01*
X263348Y1241341D01*
X263607Y1243309D01*
Y1246039D01*
D02*
G37*
G36*
X341132D02*
X334797D01*
Y1243309D01*
X335056Y1241341D01*
X335816Y1239507D01*
X337024Y1237932D01*
X338599Y1236723D01*
X340434Y1235963D01*
X341132Y1235871D01*
Y1246039D01*
D02*
G37*
G36*
X254732D02*
X248397D01*
Y1243309D01*
X248656Y1241341D01*
X249416Y1239507D01*
X250624Y1237932D01*
X252199Y1236723D01*
X254034Y1235963D01*
X254732Y1235871D01*
Y1246039D01*
D02*
G37*
G36*
X966097Y1265330D02*
X961763D01*
X957513Y1264484D01*
X953509Y1262826D01*
X949906Y1260418D01*
X946842Y1257354D01*
X944434Y1253751D01*
X942775Y1249747D01*
X941930Y1245497D01*
Y1241163D01*
X942775Y1236913D01*
X944434Y1232909D01*
X946842Y1229306D01*
X949906Y1226242D01*
X953509Y1223834D01*
X957513Y1222176D01*
X961763Y1221330D01*
X966097D01*
X970347Y1222176D01*
X974351Y1223834D01*
X977954Y1226242D01*
X981019Y1229306D01*
X983426Y1232909D01*
X985085Y1236913D01*
X985930Y1241163D01*
Y1245497D01*
X985085Y1249747D01*
X983426Y1253751D01*
X981019Y1257354D01*
X977954Y1260418D01*
X974351Y1262826D01*
X970347Y1264484D01*
X966097Y1265330D01*
D02*
G37*
G36*
X226957D02*
X222623D01*
X218373Y1264484D01*
X214369Y1262826D01*
X210766Y1260418D01*
X207701Y1257354D01*
X205294Y1253751D01*
X203636Y1249747D01*
X202790Y1245497D01*
Y1241163D01*
X203636Y1236913D01*
X205294Y1232909D01*
X207701Y1229306D01*
X210766Y1226242D01*
X214369Y1223834D01*
X218373Y1222176D01*
X222623Y1221330D01*
X226957D01*
X231207Y1222176D01*
X235211Y1223834D01*
X238814Y1226242D01*
X241879Y1229306D01*
X244286Y1232909D01*
X245944Y1236913D01*
X246790Y1241163D01*
Y1245497D01*
X245944Y1249747D01*
X244286Y1253751D01*
X241879Y1257354D01*
X238814Y1260418D01*
X235211Y1262826D01*
X231207Y1264484D01*
X226957Y1265330D01*
D02*
G37*
G36*
X343672Y1218447D02*
Y1206779D01*
X350007D01*
Y1211009D01*
X349748Y1212978D01*
X348988Y1214812D01*
X347779Y1216387D01*
X346204Y1217595D01*
X344370Y1218355D01*
X343672Y1218447D01*
D02*
G37*
G36*
X257272D02*
Y1206779D01*
X263607D01*
Y1211009D01*
X263348Y1212978D01*
X262588Y1214812D01*
X261379Y1216387D01*
X259804Y1217595D01*
X257970Y1218355D01*
X257272Y1218447D01*
D02*
G37*
G36*
X341132D02*
X340434Y1218355D01*
X338599Y1217595D01*
X337024Y1216387D01*
X335816Y1214812D01*
X335056Y1212978D01*
X334797Y1211009D01*
Y1206779D01*
X341132D01*
Y1218447D01*
D02*
G37*
G36*
X254732D02*
X254034Y1218355D01*
X252199Y1217595D01*
X250624Y1216387D01*
X249416Y1214812D01*
X248656Y1212978D01*
X248397Y1211009D01*
Y1206779D01*
X254732D01*
Y1218447D01*
D02*
G37*
G36*
X300132Y1225169D02*
X294067D01*
X292791Y1224915D01*
X291709Y1224192D01*
X287465Y1219948D01*
X286742Y1218866D01*
X286488Y1217590D01*
Y1215075D01*
X285537Y1214124D01*
X284851Y1212470D01*
Y1210680D01*
X285537Y1209026D01*
X286803Y1207760D01*
X288456Y1207075D01*
X290247D01*
X291901Y1207760D01*
X293166Y1209026D01*
X293852Y1210679D01*
X295121Y1211300D01*
X295785Y1211025D01*
X296465D01*
X300166Y1207323D01*
X301248Y1206601D01*
X302524Y1206347D01*
X309389D01*
X310871Y1205733D01*
X312661D01*
X314315Y1206418D01*
X315581Y1207684D01*
X316266Y1209338D01*
Y1211128D01*
X315581Y1212782D01*
X314315Y1214048D01*
X312661Y1214733D01*
X311649D01*
X310781Y1215002D01*
X310476Y1215906D01*
Y1216886D01*
X309791Y1218540D01*
X308525Y1219806D01*
X306871Y1220491D01*
X306191D01*
X302489Y1224192D01*
X301408Y1224915D01*
X300132Y1225169D01*
D02*
G37*
G36*
X329146Y1215759D02*
X327057D01*
X325128Y1214960D01*
X323651Y1213483D01*
X322852Y1211553D01*
Y1209465D01*
X323651Y1207535D01*
X325128Y1206058D01*
X327057Y1205259D01*
X329146D01*
X331076Y1206058D01*
X332552Y1207535D01*
X333352Y1209465D01*
Y1211553D01*
X332552Y1213483D01*
X331076Y1214960D01*
X329146Y1215759D01*
D02*
G37*
G36*
X271346D02*
X269258D01*
X267328Y1214960D01*
X265851Y1213483D01*
X265052Y1211553D01*
Y1209465D01*
X265851Y1207535D01*
X267328Y1206058D01*
X269258Y1205259D01*
X271346D01*
X273276Y1206058D01*
X274753Y1207535D01*
X275552Y1209465D01*
Y1211553D01*
X274753Y1213483D01*
X273276Y1214960D01*
X271346Y1215759D01*
D02*
G37*
G36*
X493450Y1198000D02*
Y1193800D01*
X497650D01*
X496877Y1195668D01*
X495318Y1197227D01*
X493450Y1198000D01*
D02*
G37*
G36*
X350007Y1204239D02*
X343672D01*
Y1192571D01*
X344370Y1192663D01*
X346204Y1193423D01*
X347779Y1194632D01*
X348988Y1196207D01*
X349748Y1198041D01*
X350007Y1200009D01*
Y1204239D01*
D02*
G37*
G36*
X263607D02*
X257272D01*
Y1192571D01*
X257970Y1192663D01*
X259804Y1193423D01*
X261379Y1194632D01*
X262588Y1196207D01*
X263348Y1198041D01*
X263607Y1200009D01*
Y1204239D01*
D02*
G37*
G36*
X341132D02*
X334797D01*
Y1200009D01*
X335056Y1198041D01*
X335816Y1196207D01*
X337024Y1194632D01*
X338599Y1193423D01*
X340434Y1192663D01*
X341132Y1192571D01*
Y1204239D01*
D02*
G37*
G36*
X254732D02*
X248397D01*
Y1200009D01*
X248656Y1198041D01*
X249416Y1196207D01*
X250624Y1194632D01*
X252199Y1193423D01*
X254034Y1192663D01*
X254732Y1192571D01*
Y1204239D01*
D02*
G37*
G36*
X497650Y1191260D02*
X493450D01*
Y1187060D01*
X495318Y1187833D01*
X496877Y1189392D01*
X497650Y1191260D01*
D02*
G37*
G36*
X932433Y1189860D02*
X931840D01*
Y1172210D01*
X949490D01*
Y1172803D01*
X948763Y1176459D01*
X947337Y1179902D01*
X945266Y1183001D01*
X942631Y1185636D01*
X939532Y1187707D01*
X936089Y1189133D01*
X932433Y1189860D01*
D02*
G37*
G36*
X801033D02*
X800440D01*
Y1172210D01*
X818090D01*
Y1172803D01*
X817363Y1176459D01*
X815937Y1179902D01*
X813866Y1183001D01*
X811231Y1185636D01*
X808132Y1187707D01*
X804689Y1189133D01*
X801033Y1189860D01*
D02*
G37*
G36*
X677023D02*
X676430D01*
Y1172210D01*
X694080D01*
Y1172803D01*
X693353Y1176459D01*
X691927Y1179902D01*
X689856Y1183001D01*
X687221Y1185636D01*
X684122Y1187707D01*
X680679Y1189133D01*
X677023Y1189860D01*
D02*
G37*
G36*
X545623D02*
X545030D01*
Y1172210D01*
X562680D01*
Y1172803D01*
X561953Y1176459D01*
X560527Y1179902D01*
X558456Y1183001D01*
X555821Y1185636D01*
X552722Y1187707D01*
X549279Y1189133D01*
X545623Y1189860D01*
D02*
G37*
G36*
X797900D02*
X797307D01*
X793651Y1189133D01*
X790208Y1187707D01*
X787109Y1185636D01*
X784474Y1183001D01*
X782403Y1179902D01*
X780977Y1176459D01*
X780250Y1172803D01*
Y1172210D01*
X797900D01*
Y1189860D01*
D02*
G37*
G36*
X673890D02*
X673297D01*
X669641Y1189133D01*
X666198Y1187707D01*
X663099Y1185636D01*
X660464Y1183001D01*
X658393Y1179902D01*
X656967Y1176459D01*
X656240Y1172803D01*
Y1172210D01*
X673890D01*
Y1189860D01*
D02*
G37*
G36*
X542490D02*
X541897D01*
X538241Y1189133D01*
X534798Y1187707D01*
X531699Y1185636D01*
X529064Y1183001D01*
X526993Y1179902D01*
X525567Y1176459D01*
X524840Y1172803D01*
Y1172210D01*
X542490D01*
Y1189860D01*
D02*
G37*
G36*
X929300D02*
X928707D01*
X925051Y1189133D01*
X921608Y1187707D01*
X918509Y1185636D01*
X915874Y1183001D01*
X913803Y1179902D01*
X912377Y1176459D01*
X911650Y1172803D01*
Y1172210D01*
X929300D01*
Y1189860D01*
D02*
G37*
G36*
X949490Y1169670D02*
X931840D01*
Y1152020D01*
X932433D01*
X936089Y1152747D01*
X939532Y1154173D01*
X942631Y1156244D01*
X945266Y1158879D01*
X947337Y1161978D01*
X948763Y1165421D01*
X949490Y1169077D01*
Y1169670D01*
D02*
G37*
G36*
X929300D02*
X911650D01*
Y1169077D01*
X912377Y1165421D01*
X913803Y1161978D01*
X915874Y1158879D01*
X918509Y1156244D01*
X921608Y1154173D01*
X925051Y1152747D01*
X928707Y1152020D01*
X929300D01*
Y1169670D01*
D02*
G37*
G36*
X818090D02*
X800440D01*
Y1152020D01*
X801033D01*
X804689Y1152747D01*
X808132Y1154173D01*
X811231Y1156244D01*
X813866Y1158879D01*
X815937Y1161978D01*
X817363Y1165421D01*
X818090Y1169077D01*
Y1169670D01*
D02*
G37*
G36*
X797900D02*
X780250D01*
Y1169077D01*
X780977Y1165421D01*
X782403Y1161978D01*
X784474Y1158879D01*
X787109Y1156244D01*
X790208Y1154173D01*
X793651Y1152747D01*
X797307Y1152020D01*
X797900D01*
Y1169670D01*
D02*
G37*
G36*
X694080D02*
X676430D01*
Y1152020D01*
X677023D01*
X680679Y1152747D01*
X684122Y1154173D01*
X687221Y1156244D01*
X689856Y1158879D01*
X691927Y1161978D01*
X693353Y1165421D01*
X694080Y1169077D01*
Y1169670D01*
D02*
G37*
G36*
X673890D02*
X656240D01*
Y1169077D01*
X656967Y1165421D01*
X658393Y1161978D01*
X660464Y1158879D01*
X663099Y1156244D01*
X666198Y1154173D01*
X669641Y1152747D01*
X673297Y1152020D01*
X673890D01*
Y1169670D01*
D02*
G37*
G36*
X562680D02*
X545030D01*
Y1152020D01*
X545623D01*
X549279Y1152747D01*
X552722Y1154173D01*
X555821Y1156244D01*
X558456Y1158879D01*
X560527Y1161978D01*
X561953Y1165421D01*
X562680Y1169077D01*
Y1169670D01*
D02*
G37*
G36*
X542490D02*
X524840D01*
Y1169077D01*
X525567Y1165421D01*
X526993Y1161978D01*
X529064Y1158879D01*
X531699Y1156244D01*
X534798Y1154173D01*
X538241Y1152747D01*
X541897Y1152020D01*
X542490D01*
Y1169670D01*
D02*
G37*
G36*
X831144Y1153520D02*
X831140D01*
Y1145110D01*
X839550D01*
Y1145114D01*
X838890Y1147576D01*
X837616Y1149784D01*
X835814Y1151586D01*
X833606Y1152860D01*
X831144Y1153520D01*
D02*
G37*
G36*
X575734D02*
X575730D01*
Y1145110D01*
X584140D01*
Y1145114D01*
X583480Y1147576D01*
X582206Y1149784D01*
X580404Y1151586D01*
X578196Y1152860D01*
X575734Y1153520D01*
D02*
G37*
G36*
X828600D02*
X828596D01*
X826134Y1152860D01*
X823926Y1151586D01*
X822124Y1149784D01*
X820850Y1147576D01*
X820190Y1145114D01*
Y1145110D01*
X828600D01*
Y1153520D01*
D02*
G37*
G36*
X573190D02*
X573186D01*
X570724Y1152860D01*
X568516Y1151586D01*
X566714Y1149784D01*
X565440Y1147576D01*
X564780Y1145114D01*
Y1145110D01*
X573190D01*
Y1153520D01*
D02*
G37*
G36*
X876073Y1152980D02*
X873667D01*
X871342Y1152357D01*
X869258Y1151154D01*
X867556Y1149452D01*
X866353Y1147368D01*
X865730Y1145043D01*
Y1142637D01*
X866353Y1140312D01*
X867556Y1138228D01*
X869258Y1136526D01*
X871342Y1135323D01*
X873667Y1134700D01*
X876073D01*
X878398Y1135323D01*
X880482Y1136526D01*
X882184Y1138228D01*
X883387Y1140312D01*
X884010Y1142637D01*
Y1145043D01*
X883387Y1147368D01*
X882184Y1149452D01*
X880482Y1151154D01*
X878398Y1152357D01*
X876073Y1152980D01*
D02*
G37*
G36*
X856073D02*
X853667D01*
X851342Y1152357D01*
X849258Y1151154D01*
X847556Y1149452D01*
X846353Y1147368D01*
X845730Y1145043D01*
Y1142637D01*
X846353Y1140312D01*
X847556Y1138228D01*
X849258Y1136526D01*
X851342Y1135323D01*
X853667Y1134700D01*
X856073D01*
X858398Y1135323D01*
X860482Y1136526D01*
X862184Y1138228D01*
X863387Y1140312D01*
X864010Y1142637D01*
Y1145043D01*
X863387Y1147368D01*
X862184Y1149452D01*
X860482Y1151154D01*
X858398Y1152357D01*
X856073Y1152980D01*
D02*
G37*
G36*
X620663D02*
X618257D01*
X615932Y1152357D01*
X613848Y1151154D01*
X612146Y1149452D01*
X610943Y1147368D01*
X610320Y1145043D01*
Y1142637D01*
X610943Y1140312D01*
X612146Y1138228D01*
X613848Y1136526D01*
X615932Y1135323D01*
X618257Y1134700D01*
X620663D01*
X622988Y1135323D01*
X625072Y1136526D01*
X626774Y1138228D01*
X627977Y1140312D01*
X628600Y1142637D01*
Y1145043D01*
X627977Y1147368D01*
X626774Y1149452D01*
X625072Y1151154D01*
X622988Y1152357D01*
X620663Y1152980D01*
D02*
G37*
G36*
X600663D02*
X598257D01*
X595932Y1152357D01*
X593848Y1151154D01*
X592146Y1149452D01*
X590943Y1147368D01*
X590320Y1145043D01*
Y1142637D01*
X590943Y1140312D01*
X592146Y1138228D01*
X593848Y1136526D01*
X595932Y1135323D01*
X598257Y1134700D01*
X600663D01*
X602988Y1135323D01*
X605072Y1136526D01*
X606774Y1138228D01*
X607977Y1140312D01*
X608600Y1142637D01*
Y1145043D01*
X607977Y1147368D01*
X606774Y1149452D01*
X605072Y1151154D01*
X602988Y1152357D01*
X600663Y1152980D01*
D02*
G37*
G36*
X839550Y1142570D02*
X831140D01*
Y1134160D01*
X831144D01*
X833606Y1134820D01*
X835814Y1136094D01*
X837616Y1137896D01*
X838890Y1140104D01*
X839550Y1142566D01*
Y1142570D01*
D02*
G37*
G36*
X828600D02*
X820190D01*
Y1142566D01*
X820850Y1140104D01*
X822124Y1137896D01*
X823926Y1136094D01*
X826134Y1134820D01*
X828596Y1134160D01*
X828600D01*
Y1142570D01*
D02*
G37*
G36*
X584140D02*
X575730D01*
Y1134160D01*
X575734D01*
X578196Y1134820D01*
X580404Y1136094D01*
X582206Y1137896D01*
X583480Y1140104D01*
X584140Y1142566D01*
Y1142570D01*
D02*
G37*
G36*
X573190D02*
X564780D01*
Y1142566D01*
X565440Y1140104D01*
X566714Y1137896D01*
X568516Y1136094D01*
X570724Y1134820D01*
X573186Y1134160D01*
X573190D01*
Y1142570D01*
D02*
G37*
G36*
X909010Y1152980D02*
X890730D01*
Y1134700D01*
X892735D01*
X893261Y1133430D01*
X857889Y1098058D01*
X607096D01*
X606610Y1099231D01*
X642079Y1134700D01*
X653600D01*
Y1152980D01*
X635320D01*
Y1140919D01*
X592459Y1098058D01*
X403138D01*
X376371Y1124825D01*
X376570Y1125568D01*
Y1127412D01*
X376093Y1129192D01*
X375171Y1130788D01*
X373868Y1132091D01*
X372272Y1133013D01*
X370492Y1133490D01*
X368648D01*
X366868Y1133013D01*
X365272Y1132091D01*
X363969Y1130788D01*
X363047Y1129192D01*
X362570Y1127412D01*
Y1125568D01*
X362769Y1124825D01*
X359346Y1121401D01*
X358351Y1119913D01*
X358002Y1118157D01*
Y1062760D01*
X353090D01*
Y1043760D01*
X372090D01*
Y1050835D01*
X373360Y1051002D01*
X373737Y1049593D01*
X374988Y1047427D01*
X376757Y1045658D01*
X378923Y1044408D01*
X381339Y1043760D01*
X383841D01*
X386257Y1044408D01*
X388423Y1045658D01*
X390192Y1047427D01*
X391442Y1049593D01*
X391933Y1051422D01*
X393247D01*
X393737Y1049593D01*
X394988Y1047427D01*
X396757Y1045658D01*
X398923Y1044408D01*
X401339Y1043760D01*
X403841D01*
X406257Y1044408D01*
X408423Y1045658D01*
X410192Y1047427D01*
X411443Y1049593D01*
X412090Y1052009D01*
Y1054511D01*
X411443Y1056927D01*
X410192Y1059093D01*
X408423Y1060862D01*
X406257Y1062113D01*
X403841Y1062760D01*
X401339D01*
X398923Y1062113D01*
X396757Y1060862D01*
X394988Y1059093D01*
X393737Y1056927D01*
X393247Y1055098D01*
X391933D01*
X391442Y1056927D01*
X390192Y1059093D01*
X388423Y1060862D01*
X386257Y1062113D01*
X383841Y1062760D01*
X381339D01*
X378923Y1062113D01*
X376757Y1060862D01*
X374988Y1059093D01*
X373737Y1056927D01*
X373360Y1055518D01*
X372090Y1055685D01*
Y1062760D01*
X367178D01*
Y1116256D01*
X369570Y1118648D01*
X397993Y1090226D01*
X399481Y1089231D01*
X401237Y1088882D01*
X859790D01*
X861546Y1089231D01*
X863034Y1090226D01*
X901693Y1128885D01*
X902688Y1130373D01*
X903037Y1132129D01*
Y1134700D01*
X909010D01*
Y1152980D01*
D02*
G37*
G36*
X966097Y1039270D02*
X961763D01*
X957513Y1038425D01*
X953509Y1036766D01*
X949906Y1034359D01*
X946842Y1031294D01*
X944434Y1027691D01*
X942775Y1023687D01*
X941930Y1019437D01*
Y1015103D01*
X942775Y1010853D01*
X944434Y1006849D01*
X946842Y1003246D01*
X949906Y1000182D01*
X953509Y997774D01*
X957513Y996115D01*
X961763Y995270D01*
X966097D01*
X970347Y996115D01*
X974351Y997774D01*
X977954Y1000182D01*
X981019Y1003246D01*
X983426Y1006849D01*
X985085Y1010853D01*
X985930Y1015103D01*
Y1019437D01*
X985085Y1023687D01*
X983426Y1027691D01*
X981019Y1031294D01*
X977954Y1034359D01*
X974351Y1036766D01*
X970347Y1038425D01*
X966097Y1039270D01*
D02*
G37*
G36*
X226957D02*
X222623D01*
X218373Y1038425D01*
X214369Y1036766D01*
X210766Y1034359D01*
X207701Y1031294D01*
X205294Y1027691D01*
X203636Y1023687D01*
X202790Y1019437D01*
Y1015103D01*
X203636Y1010853D01*
X205294Y1006849D01*
X207701Y1003246D01*
X210766Y1000182D01*
X214369Y997774D01*
X218373Y996115D01*
X222623Y995270D01*
X226957D01*
X231207Y996115D01*
X235211Y997774D01*
X238814Y1000182D01*
X241879Y1003246D01*
X244286Y1006849D01*
X245944Y1010853D01*
X246790Y1015103D01*
Y1019437D01*
X245944Y1023687D01*
X244286Y1027691D01*
X241879Y1031294D01*
X238814Y1034359D01*
X235211Y1036766D01*
X231207Y1038425D01*
X226957Y1039270D01*
D02*
G37*
%LPD*%
D13*
X387350Y1141010D02*
X396600Y1131760D01*
X387350Y1141010D02*
Y1141730D01*
X294067Y1221835D02*
X300132D01*
X305976Y1215991D01*
X289822Y1217590D02*
X294067Y1221835D01*
X289822Y1212045D02*
Y1217590D01*
X289352Y1211575D02*
X289822Y1212045D01*
X310549Y1209681D02*
X311101Y1210233D01*
X311766D01*
X302524Y1209681D02*
X310549D01*
X296680Y1215525D02*
X302524Y1209681D01*
D50*
X270302Y1210509D02*
D03*
X328102D02*
D03*
D51*
X256002Y1205509D02*
D03*
X342402D02*
D03*
D52*
X256002Y1247309D02*
D03*
X342402D02*
D03*
D57*
X387350Y1141730D02*
X449580D01*
X343070D02*
X387350D01*
X449580D02*
X485140Y1177290D01*
X594360Y1093470D02*
X859790D01*
X401237D02*
X594360D01*
X641397Y1140778D02*
X641667D01*
X639820Y1139200D02*
X641397Y1140778D01*
X639820Y1138930D02*
Y1139200D01*
X594360Y1093470D02*
X639820Y1138930D01*
X898449Y1142419D02*
X899870Y1143840D01*
X898449Y1132129D02*
Y1142419D01*
X859790Y1093470D02*
X898449Y1132129D01*
X280578Y1080677D02*
X341630Y1141730D01*
X369570Y1125137D02*
X401237Y1093470D01*
X362590Y1053260D02*
Y1118157D01*
X369570Y1125137D01*
Y1126490D01*
D58*
X343070Y1141730D02*
X368660Y1167320D01*
X341630Y1141730D02*
X343070D01*
X485140Y1177290D02*
X494030D01*
X502920Y1162558D02*
Y1168400D01*
X494030Y1177290D02*
X502920Y1168400D01*
X425379Y1261040D02*
X443849D01*
X383710Y1230630D02*
X394970D01*
X425379Y1261040D01*
X380090Y1227010D02*
X383710Y1230630D01*
X485140Y1177290D02*
Y1202690D01*
X278130Y1075690D02*
Y1077584D01*
X280578Y1080032D01*
Y1080677D01*
X443849Y1261040D02*
X444030Y1261220D01*
X368660Y1167320D02*
X380090Y1178750D01*
Y1227010D01*
D64*
X644460Y1143840D02*
D03*
X899870D02*
D03*
D65*
X619460D02*
D03*
X599460D02*
D03*
X574460D02*
D03*
X829870D02*
D03*
X854870D02*
D03*
X874870D02*
D03*
D66*
X675160Y1170940D02*
D03*
X543760D02*
D03*
X799170D02*
D03*
X930570D02*
D03*
D67*
X422590Y1053260D02*
D03*
X382590D02*
D03*
X402590D02*
D03*
D68*
X362590D02*
D03*
D69*
X963930Y1243330D02*
D03*
Y1017270D02*
D03*
X224790D02*
D03*
Y1243330D02*
D03*
D70*
X491490Y1163290D02*
D03*
X502920Y1162558D02*
D03*
X509270Y1135380D02*
D03*
X485140Y1123950D02*
D03*
X476250Y1115060D02*
D03*
X477520Y1102360D02*
D03*
X419100Y1107440D02*
D03*
X509270Y1150620D02*
D03*
X324143Y1156244D02*
D03*
X397517Y1122687D02*
D03*
X331336Y1185044D02*
D03*
X326390Y1177290D02*
D03*
X266730Y1188690D02*
D03*
X275390Y1174610D02*
D03*
X358140Y1192530D02*
D03*
X369570Y1206500D02*
D03*
X391160Y1252220D02*
D03*
X435719Y1247031D02*
D03*
X421695Y1247146D02*
D03*
X452120Y1247140D02*
D03*
X502920Y1238250D02*
D03*
X492760D02*
D03*
X482600D02*
D03*
X753110Y1120140D02*
D03*
X742950D02*
D03*
X732790D02*
D03*
X485140Y1202690D02*
D03*
X302260Y1088390D02*
D03*
X312420D02*
D03*
X322580D02*
D03*
X334010Y1169670D02*
D03*
X339090Y1177290D02*
D03*
X492180Y1192530D02*
D03*
X446160Y1174910D02*
D03*
X444030Y1261220D02*
D03*
X443752Y1226959D02*
D03*
X418160Y1202910D02*
D03*
Y1188954D02*
D03*
X368660Y1167320D02*
D03*
X313690Y1017270D02*
D03*
X323850D02*
D03*
X380090Y1227010D02*
D03*
X432160Y1188910D02*
D03*
Y1174910D02*
D03*
X446160Y1188910D02*
D03*
Y1202910D02*
D03*
X432160D02*
D03*
X867410Y1071880D02*
D03*
X593090Y1078230D02*
D03*
X857250Y1071880D02*
D03*
X603250Y1078230D02*
D03*
X877570Y1071880D02*
D03*
X613410Y1078230D02*
D03*
X396600Y1131760D02*
D03*
X418160Y1174910D02*
D03*
X303530Y1017270D02*
D03*
D71*
X278130Y1075690D02*
D03*
X369570Y1126490D02*
D03*
D72*
X305976Y1215991D02*
D03*
X289352Y1211575D02*
D03*
X311766Y1210233D02*
D03*
X296680Y1215525D02*
D03*
M02*
