M48
; DRILL file {KiCad 8.0.4} date 2025-08-06T14:36:11-0500
; FORMAT={-:-/ absolute / inch / decimal}
; #@! TF.CreationDate,2025-08-06T14:36:11-05:00
; #@! TF.GenerationSoftware,Kicad,Pcbnew,8.0.4
; #@! TF.FileFunction,NonPlated,1,4,NPTH
FMAT,2
INCH
; #@! TA.AperFunction,NonPlated,NPTH,ComponentDrill
T1C0.0669
; #@! TA.AperFunction,NonPlated,NPTH,ComponentDrill
T2C0.1181
; #@! TA.AperFunction,NonPlated,NPTH,ComponentDrill
T3C0.1201
; #@! TA.AperFunction,NonPlated,NPTH,ComponentDrill
T4C0.1575
%
G90
G05
T1
X1.3105Y-2.854
X1.3105Y-3.604
X1.3105Y-4.354
X1.3105Y-5.104
X1.3105Y-5.854
X1.7105Y-2.854
X1.7105Y-3.604
X1.7105Y-4.354
X1.7105Y-5.104
X1.7105Y-5.854
X2.248Y-1.9165
X2.248Y-2.854
X2.3417Y-5.854
X2.4355Y-3.604
X2.5292Y-4.354
X2.648Y-1.9165
X2.648Y-2.854
X2.7167Y-5.104
X2.7418Y-5.854
X2.8355Y-3.604
X2.9293Y-4.354
X2.998Y-2.854
X3.1168Y-5.104
X3.1855Y-1.9165
X3.2792Y-5.854
X3.373Y-3.604
X3.398Y-2.854
X3.5605Y-4.354
X3.5855Y-1.9165
X3.6793Y-5.854
X3.748Y-2.854
X3.773Y-3.604
X3.9355Y-1.9165
X3.9355Y-5.104
X3.9605Y-4.354
X4.123Y-3.604
X4.148Y-2.854
X4.2168Y-5.854
X4.3105Y-4.354
X4.3355Y-1.9165
X4.3355Y-5.104
X4.498Y-2.854
X4.523Y-3.604
X4.6167Y-5.854
X4.6855Y-1.9165
X4.6855Y-5.104
X4.7105Y-4.354
X4.873Y-3.604
X4.898Y-2.854
X5.0605Y-4.354
X5.0855Y-1.9165
X5.0855Y-5.104
X5.248Y-2.854
X5.273Y-3.604
X5.4355Y-1.9165
X5.4355Y-5.104
X5.4605Y-4.354
X5.623Y-3.604
X5.648Y-2.854
X5.7636Y-5.854
X5.8105Y-4.354
X5.8355Y-1.9165
X5.8355Y-5.104
X5.998Y-2.854
X6.023Y-3.604
X6.1636Y-5.854
X6.1855Y-5.104
X6.2105Y-4.354
X6.373Y-3.604
X6.398Y-2.854
X6.5605Y-4.354
X6.5855Y-5.104
X6.773Y-3.604
X6.9355Y-5.104
X6.9605Y-4.354
X7.0293Y-5.854
X7.3355Y-5.104
X7.6168Y-5.854
X8.4824Y-5.854
X8.8824Y-5.854
T2
X1.3605Y-4.254
X1.3605Y-5.004
X1.3605Y-5.754
X1.4105Y-3.054
X1.4105Y-3.804
X1.6105Y-4.154
X1.6105Y-4.904
X1.6105Y-5.654
X1.6605Y-2.954
X1.6605Y-3.704
X2.298Y-1.8165
X2.348Y-3.054
X2.3918Y-5.754
X2.5355Y-3.804
X2.548Y-1.7165
X2.5793Y-4.254
X2.598Y-2.954
X2.6418Y-5.654
X2.7668Y-5.004
X2.7855Y-3.704
X2.8293Y-4.154
X3.0168Y-4.904
X3.098Y-3.054
X3.2355Y-1.8165
X3.3293Y-5.754
X3.348Y-2.954
X3.423Y-3.504
X3.4855Y-1.7165
X3.5793Y-5.654
X3.6105Y-4.254
X3.673Y-3.404
X3.848Y-3.054
X3.8605Y-4.154
X3.9855Y-1.8165
X3.9855Y-5.004
X4.098Y-2.954
X4.173Y-3.504
X4.2355Y-1.7165
X4.2355Y-4.904
X4.2668Y-5.754
X4.3605Y-4.254
X4.423Y-3.404
X4.5168Y-5.654
X4.548Y-2.754
X4.6105Y-4.154
X4.7355Y-1.8165
X4.7355Y-5.004
X4.798Y-2.654
X4.923Y-3.504
X4.9855Y-1.7165
X4.9855Y-4.904
X5.1105Y-4.254
X5.173Y-3.404
X5.298Y-2.754
X5.3605Y-4.154
X5.4855Y-1.8165
X5.4855Y-5.004
X5.548Y-2.654
X5.673Y-3.504
X5.7355Y-1.7165
X5.7355Y-4.904
X5.8136Y-5.754
X5.8605Y-4.254
X5.923Y-3.404
X6.048Y-2.754
X6.0636Y-5.654
X6.1105Y-4.154
X6.2355Y-5.004
X6.298Y-2.654
X6.423Y-3.504
X6.4855Y-4.904
X6.6105Y-4.254
X6.673Y-3.404
X6.8605Y-4.154
X6.9855Y-5.004
X7.0793Y-5.754
X7.2355Y-4.904
X7.3168Y-6.054
X7.3293Y-5.654
X7.5668Y-5.954
X8.5824Y-6.054
X8.8324Y-5.954
T3
X2.4482Y-4.8294
X3.3853Y-4.8294
X5.2607Y-5.5784
X5.4951Y-5.5794
X6.4321Y-5.5794
X9.1978Y-5.5784
T4
X1.5105Y-2.854
X1.5105Y-3.604
X1.5105Y-4.354
X1.5105Y-5.104
X1.5105Y-5.854
X2.448Y-1.9165
X2.448Y-2.854
X2.4482Y-5.4294
X2.5417Y-5.854
X2.6355Y-3.604
X2.7292Y-4.354
X2.9167Y-5.104
X3.198Y-2.854
X3.3853Y-5.4294
X3.3855Y-1.9165
X3.4792Y-5.854
X3.573Y-3.604
X3.7605Y-4.354
X3.948Y-2.854
X4.1355Y-1.9165
X4.1355Y-5.104
X4.323Y-3.604
X4.4167Y-5.854
X4.5105Y-4.354
X4.698Y-2.854
X4.8855Y-1.9165
X4.8855Y-5.104
X5.073Y-3.604
X5.2605Y-4.354
X5.2607Y-6.1784
X5.448Y-2.854
X5.4951Y-6.1794
X5.6355Y-1.9165
X5.6355Y-5.104
X5.823Y-3.604
X5.9636Y-5.854
X6.0105Y-4.354
X6.198Y-2.854
X6.3855Y-5.104
X6.4321Y-6.1794
X6.573Y-3.604
X6.7605Y-4.354
X7.1355Y-5.104
X7.2292Y-5.854
X7.4168Y-5.854
X8.6824Y-5.854
X9.1978Y-6.1784
M30
