M48
; DRILL file {KiCad 8.0.4} date 2025-08-06T14:36:11-0500
; FORMAT={-:-/ absolute / inch / decimal}
; #@! TF.CreationDate,2025-08-06T14:36:11-05:00
; #@! TF.GenerationSoftware,Kicad,Pcbnew,8.0.4
; #@! TF.FileFunction,Plated,1,4,PTH
FMAT,2
INCH
; #@! TA.AperFunction,Plated,PTH,ViaDrill
T1C0.0118
; #@! TA.AperFunction,Plated,PTH,ViaDrill
T2C0.0197
; #@! TA.AperFunction,Plated,PTH,ComponentDrill
T3C0.0315
; #@! TA.AperFunction,Plated,PTH,ComponentDrill
T4C0.0394
; #@! TA.AperFunction,Plated,PTH,ComponentDrill
T5C0.0433
; #@! TA.AperFunction,Plated,PTH,ComponentDrill
T6C0.0787
; #@! TA.AperFunction,Plated,PTH,ComponentDrill
T7C0.0866
%
G90
G05
T1
X1.0866Y-4.8346
X1.0866Y-4.874
X1.0866Y-4.9134
X1.2323Y-2.8228
X1.2342Y-3.9055
X1.2382Y-4.8346
X1.2382Y-4.874
X1.2382Y-4.9134
X1.2677Y-2.9331
X1.2717Y-2.9882
X1.2735Y-3.9055
X1.2874Y-2.748
X1.2913Y-5.6814
X1.2972Y-4.9232
X1.311Y-2.5236
X1.3129Y-3.9055
X1.3386Y-4.6299
X1.3386Y-4.7283
X1.3661Y-2.5276
X1.378Y-4.6299
X1.378Y-4.7283
X1.3858Y-2.6102
X1.4016Y-1.8425
X1.4173Y-4.6299
X1.4173Y-4.7283
X1.437Y-2.3937
X1.4764Y-5.2441
X1.4764Y-6.0079
X1.5118Y-2.3937
X1.5157Y-5.2441
X1.5157Y-6.0079
X1.5315Y-2.0945
X1.5551Y-5.2441
X1.5551Y-6.0079
X1.5709Y-2.2559
X1.6024Y-2.5551
X1.6024Y-2.6732
X1.626Y-1.8425
X1.626Y-3.1732
X1.6336Y-2.6691
X1.6378Y-2.4016
X1.6378Y-2.5512
X1.6553Y-2.2972
X1.6654Y-3.1732
X1.6654Y-3.2441
X1.6772Y-2.5866
X1.6868Y-2.2959
X1.6929Y-2.4921
X1.7047Y-3.1732
X1.7077Y-4.055
X1.7079Y-5.0003
X1.7205Y-4.7283
X1.7244Y-2.4016
X1.7343Y-3.3406
X1.7343Y-3.5453
X1.747Y-4.055
X1.7473Y-5.0003
X1.7559Y-3.874
X1.7598Y-4.7283
X1.7756Y-2.6181
X1.7756Y-2.7677
X1.7864Y-4.055
X1.7866Y-5.0003
X1.7992Y-4.7283
X1.8031Y-3.0276
X1.8031Y-3.185
X1.8287Y-3.3886
X1.8346Y-3.1496
X1.8386Y-2.311
X1.8465Y-4.8425
X1.8465Y-5.2008
X1.8543Y-3.2402
X1.87Y-2.3089
X1.874Y-3.4386
X1.8898Y-5.2559
X1.8941Y-3.0918
X1.8976Y-4.1102
X1.9094Y-2.6791
X1.9147Y-2.9685
X1.9287Y-4.7752
X1.9291Y-5.1181
X1.9331Y-3.0945
X1.9449Y-2.8307
X1.9449Y-3.0118
X1.9537Y-2.4349
X1.9803Y-4.1063
X1.9803Y-4.7205
X1.9882Y-3.2598
X2.0118Y-4.6102
X2.0197Y-2.7461
X2.0197Y-2.8189
X2.0197Y-3.2047
X2.0245Y-2.4087
X2.0472Y-2.7933
X2.049Y-2.2146
X2.0591Y-3.5197
X2.063Y-3.0118
X2.063Y-3.2165
X2.0866Y-3.7874
X2.0945Y-2.8346
X2.0945Y-3.1339
X2.1063Y-2.5197
X2.1142Y-2.6772
X2.122Y-2.9724
X2.126Y-4.7638
X2.1614Y-2.3661
X2.1732Y-3.2848
X2.1827Y-2.5309
X2.2047Y-3.3386
X2.2126Y-2.9724
X2.2244Y-2.2598
X2.2343Y-3.3886
X2.2638Y-2.937
X2.2746Y-2.6762
X2.2836Y-2.7088
X2.311Y-3.3386
X2.315Y-2.4291
X2.315Y-2.4685
X2.315Y-2.5079
X2.315Y-3.4409
X2.315Y-3.5157
X2.3189Y-2.2362
X2.3228Y-2.9528
X2.3268Y-3.2874
X2.3465Y-6.0512
X2.3504Y-3.7165
X2.3543Y-2.4291
X2.3543Y-2.4685
X2.3543Y-2.5079
X2.3701Y-5.9902
X2.3819Y-3.6654
X2.3937Y-2.4291
X2.3937Y-2.4685
X2.3937Y-2.5079
X2.4331Y-2.1732
X2.4331Y-6.4173
X2.4409Y-2.7362
X2.4449Y-3.1496
X2.4449Y-4.0827
X2.4488Y-3.2953
X2.4488Y-3.3346
X2.4488Y-3.374
X2.4685Y-3.0197
X2.4724Y-6.4173
X2.4921Y-2.6457
X2.5118Y-6.4173
X2.5197Y-4.4488
X2.5236Y-2.6457
X2.5551Y-2.2165
X2.5565Y-2.1734
X2.5591Y-4.4488
X2.5984Y-4.4488
X2.6063Y-2.7126
X2.6083Y-2.0551
X2.6181Y-2.1929
X2.6317Y-2.4959
X2.6339Y-2.374
X2.6339Y-4.6496
X2.6646Y-2.1882
X2.6752Y-3.0709
X2.6752Y-3.1102
X2.6752Y-3.1496
X2.6789Y-2.502
X2.7008Y-4.9331
X2.7126Y-2.0098
X2.7165Y-3.315
X2.7461Y-2.0295
X2.75Y-2.5354
X2.7736Y-4.5945
X2.7835Y-2.2283
X2.7835Y-2.2677
X2.7835Y-2.3071
X2.8228Y-2.9803
X2.8228Y-3.0197
X2.8228Y-3.0591
X2.874Y-3.0748
X2.874Y-5.6299
X2.8878Y-4.0385
X2.8976Y-2.8898
X2.9134Y-5.6299
X2.9173Y-3.2795
X2.9213Y-3.3307
X2.9219Y-2.926
X2.9272Y-4.0385
X2.937Y-3.3976
X2.9488Y-3.7913
X2.9528Y-5.6299
X2.9613Y-2.926
X2.9646Y-3.4646
X2.9666Y-4.0385
X2.9803Y-1.748
X2.9961Y-2.7362
X3.0007Y-2.926
X3.0315Y-1.6457
X3.0315Y-1.685
X3.0315Y-1.7244
X3.1772Y-2.6535
X3.2126Y-2.0551
X3.2244Y-2.2441
X3.2362Y-2.5
X3.2697Y-5.3602
X3.311Y-3.4291
X3.3159Y-2.2116
X3.3246Y-2.325
X3.3268Y-1.3898
X3.3957Y-2.7539
X3.4016Y-2.5748
X3.4685Y-2.4331
X3.4685Y-2.7165
X3.4803Y-1.3425
X3.4803Y-1.6102
X3.4803Y-2.1772
X3.5197Y-1.2795
X3.5197Y-1.3425
X3.5197Y-1.6102
X3.5197Y-2.7165
X3.5197Y-2.7559
X3.5197Y-2.7953
X3.5591Y-1.3425
X3.5591Y-1.6102
X3.5669Y-4.6929
X3.5669Y-5.2362
X3.5748Y-5.4449
X3.5945Y-2.5157
X3.5945Y-2.5551
X3.6496Y-1.3504
X3.6732Y-2.278
X3.6732Y-3.189
X3.6929Y-2.228
X3.7008Y-1.4173
X3.7008Y-1.626
X3.7047Y-2.328
X3.7126Y-3.189
X3.7205Y-4.5276
X3.7323Y-1.3937
X3.7323Y-1.6299
X3.7402Y-2.126
X3.7402Y-3.5039
X3.752Y-2.4528
X3.752Y-3.189
X3.7598Y-4.5276
X3.7795Y-3.5039
X3.7992Y-4.5276
X3.815Y-1.4921
X3.8189Y-3.5039
X3.8189Y-5.4252
X3.8189Y-5.6299
X3.8307Y-1.8937
X3.8346Y-1.6575
X3.8406Y-1.4685
X3.8465Y-4.9252
X3.8583Y-5.6299
X3.8701Y-2.4528
X3.874Y-1.6575
X3.8976Y-5.6299
X3.9094Y-2.4528
X3.9134Y-1.6575
X3.9488Y-2.4528
X4.0169Y-2.3712
X4.0197Y-3.8976
X4.0354Y-1.2323
X4.0354Y-2.6339
X4.0945Y-4.1142
X4.0945Y-4.1535
X4.0945Y-4.1929
X4.1102Y-2.278
X4.1339Y-3.4213
X4.1457Y-2.378
X4.2165Y-4.1457
X4.2677Y-2.228
X4.2768Y-2.178
X4.3327Y-1.8327
X4.3465Y-2.228
X4.3721Y-1.8327
X4.4114Y-1.8327
X4.4646Y-2.329
X4.4685Y-2.277
X4.4685Y-4.5276
X4.4724Y-2.4764
X4.4803Y-2.6811
X4.4843Y-1.2323
X4.4843Y-2.3817
X4.5079Y-4.5276
X4.5236Y-3.5
X4.5394Y-1.1378
X4.5472Y-4.5276
X4.563Y-3.5
X4.5945Y-2.1299
X4.5984Y-1.8898
X4.6024Y-3.5
X4.6222Y-1.134
X4.6614Y-3.0197
X4.7008Y-3.0197
X4.7047Y-4.8976
X4.7402Y-3.0197
X4.7638Y-5.6299
X4.8031Y-5.6299
X4.811Y-2.3504
X4.815Y-2.2165
X4.8425Y-5.6299
X4.8592Y-3.4261
X4.9016Y-2.278
X4.9409Y-2.378
X5.0512Y-4.1732
X5.0717Y-2.178
X5.0827Y-1.811
X5.1063Y-2.2323
X5.1102Y-2.2717
X5.1102Y-2.311
X5.122Y-1.811
X5.1457Y-2.3031
X5.1614Y-1.811
X5.1683Y-2.5118
X5.1762Y-1.5453
X5.2077Y-2.5118
X5.2126Y-5.1181
X5.2126Y-5.374
X5.2244Y-4.5276
X5.2362Y-2.685
X5.2362Y-3.5039
X5.247Y-2.5118
X5.248Y-3.2208
X5.2638Y-4.5276
X5.2677Y-1.5551
X5.2756Y-3.5039
X5.2835Y-2.328
X5.2913Y-1.8937
X5.2913Y-2.228
X5.2913Y-2.378
X5.3031Y-4.5276
X5.315Y-3.5039
X5.378Y-6.248
X5.4213Y-4.9331
X5.4724Y-5.7087
X5.5079Y-2.277
X5.5118Y-5.7087
X5.5512Y-5.7087
X5.5551Y-2.4803
X5.5906Y-4.1142
X5.5906Y-4.1535
X5.5906Y-4.1929
X5.5945Y-2.4803
X5.6102Y-2.3031
X5.6339Y-2.4803
X5.6457Y-2.7402
X5.6496Y-4.1772
X5.685Y-2.7402
X5.6929Y-5.9213
X5.7244Y-2.7402
X5.7402Y-2.328
X5.7402Y-2.378
X5.7559Y-2.277
X5.8307Y-1.815
X5.8701Y-1.815
X5.8858Y-2.1772
X5.8858Y-2.2283
X5.9094Y-1.815
X5.9243Y-6.229
X5.9425Y-2.278
X5.9449Y-2.228
X5.9594Y-2.328
X5.9636Y-6.229
X5.9724Y-4.5276
X5.9724Y-5.4803
X6.003Y-6.229
X6.0118Y-4.5276
X6.0118Y-4.9213
X6.0118Y-5.4803
X6.0197Y-2.5197
X6.0236Y-3.5039
X6.0512Y-4.5276
X6.0512Y-5.4803
X6.063Y-3.5039
X6.1024Y-3.5039
X6.2776Y-3.435
X6.3386Y-5.7087
X6.3681Y-5.315
X6.378Y-5.7087
X6.3976Y-2.752
X6.4094Y-5.9882
X6.4173Y-5.7087
X6.437Y-2.752
X6.4685Y-4.1299
X6.4764Y-2.752
X6.5472Y-6.0236
X6.5551Y-6.2559
X6.6102Y-5.2362
X6.6102Y-6.1496
X6.7205Y-4.5276
X6.7598Y-4.5276
X6.7717Y-3.5039
X6.7756Y-4.9409
X6.7992Y-4.5276
X6.811Y-3.5039
X6.8504Y-3.5039
X6.8858Y-5.2756
X7.2638Y-5.4528
X7.6929Y-6.2598
X8.0354Y-6.311
X8.0748Y-6.311
X8.1142Y-6.311
X8.6102Y-6.378
X8.6496Y-6.378
X8.689Y-6.378
X8.9253Y-5.7684
X8.9647Y-5.7684
X9.004Y-5.7684
X9.0531Y-5.6555
X9.0531Y-5.6949
X9.0531Y-5.7343
T2
X3.0591Y-2.25
X3.9094Y-2.1171
X3.9094Y-2.2756
X4.7087Y-2.0985
X4.7087Y-2.277
X5.5079Y-2.0985
X5.9331Y-2.1063
X6.2795Y-2.3425
T3
X1.1645Y-3.0082
X1.1645Y-3.1067
X1.1645Y-3.2051
X1.1645Y-3.3035
X1.1645Y-4.5783
X1.1645Y-4.6767
X1.1645Y-4.7752
X1.1645Y-4.8736
X5.1772Y-1.374
X5.1772Y-1.4528
X5.2992Y-1.374
X5.2992Y-1.4528
X5.9815Y-1.2964
X5.9815Y-1.3948
X5.9815Y-1.4932
X5.9815Y-1.5916
X7.795Y-5.6955
X7.8934Y-5.6955
X7.9918Y-5.6955
X8.0903Y-5.6955
X8.6696Y-5.6955
X8.7681Y-5.6955
X8.8665Y-5.6955
X8.9649Y-5.6955
T4
X4.7065Y-1.1285
X4.7065Y-1.2285
X4.7065Y-1.3285
X4.7065Y-1.4285
T5
X1.4121Y-1.6212
X1.4121Y-2.1921
X1.5105Y-1.6212
X1.6089Y-1.6212
X1.6089Y-2.1921
T7
X1.1992Y-1.5634
X1.1992Y-6.3543
X2.073Y-5.479
X5.2605Y-4.729
X5.6102Y-1.4409
X5.823Y-3.229
X9.4155Y-6.3543
T6
G00X1.2861Y-1.9322
M15
G01X1.2861Y-1.9008
M16
G05
G00X1.7349Y-1.9322
M15
G01X1.7349Y-1.9008
M16
G05
M30
