G04*
G04 #@! TF.GenerationSoftware,Altium Limited,Altium Designer,23.5.1 (21)*
G04*
G04 Layer_Color=16711935*
%FSLAX44Y44*%
%MOMM*%
G71*
G04*
G04 #@! TF.SameCoordinates,2BC34154-30F2-4EB8-A0CA-646768C512BA*
G04*
G04*
G04 #@! TF.FilePolarity,Negative*
G04*
G01*
G75*
%ADD39R,1.6312X1.6312*%
%ADD40C,1.6312*%
%ADD41C,3.4792*%
%ADD42C,4.7032*%
G04:AMPARAMS|DCode=43|XSize=1mm|YSize=1.8mm|CornerRadius=0.5mm|HoleSize=0mm|Usage=FLASHONLY|Rotation=180.000|XOffset=0mm|YOffset=0mm|HoleType=Round|Shape=RoundedRectangle|*
%AMROUNDEDRECTD43*
21,1,1.0000,0.8000,0,0,180.0*
21,1,0.0000,1.8000,0,0,180.0*
1,1,1.0000,0.0000,0.4000*
1,1,1.0000,0.0000,0.4000*
1,1,1.0000,0.0000,-0.4000*
1,1,1.0000,0.0000,-0.4000*
%
%ADD43ROUNDEDRECTD43*%
G04:AMPARAMS|DCode=44|XSize=1mm|YSize=2.1mm|CornerRadius=0.5mm|HoleSize=0mm|Usage=FLASHONLY|Rotation=180.000|XOffset=0mm|YOffset=0mm|HoleType=Round|Shape=RoundedRectangle|*
%AMROUNDEDRECTD44*
21,1,1.0000,1.1000,0,0,180.0*
21,1,0.0000,2.1000,0,0,180.0*
1,1,1.0000,0.0000,0.5500*
1,1,1.0000,0.0000,0.5500*
1,1,1.0000,0.0000,-0.5500*
1,1,1.0000,0.0000,-0.5500*
%
%ADD44ROUNDEDRECTD44*%
%ADD45C,0.6500*%
%ADD46C,1.7032*%
%ADD47R,1.7032X1.7032*%
%ADD48C,0.8032*%
%ADD49C,1.2032*%
%ADD50C,0.7032*%
%ADD51C,1.4032*%
D39*
X644460Y1148900D02*
D03*
X899870D02*
D03*
D40*
X619460D02*
D03*
X599460D02*
D03*
X574460D02*
D03*
X829870D02*
D03*
X854870D02*
D03*
X874870D02*
D03*
D41*
X675160Y1176000D02*
D03*
X543760D02*
D03*
X799170D02*
D03*
X930570D02*
D03*
D42*
X224790Y1017270D02*
D03*
X963930Y1243330D02*
D03*
Y1017270D02*
D03*
X224790Y1243330D02*
D03*
D43*
X342400Y1252988D02*
D03*
X256000D02*
D03*
D44*
X342400Y1211189D02*
D03*
X256000D02*
D03*
D45*
X328100Y1216188D02*
D03*
X270300D02*
D03*
D46*
X402590Y1011770D02*
D03*
X382590D02*
D03*
X422590D02*
D03*
D47*
X362590D02*
D03*
D48*
X417830Y1139190D02*
D03*
X432800Y1164590D02*
D03*
X510730Y1117640D02*
D03*
X459740Y1156970D02*
D03*
X417465Y1164360D02*
D03*
X415290Y1192530D02*
D03*
X393700Y1148080D02*
D03*
X435610Y1192530D02*
D03*
X425450D02*
D03*
X405130D02*
D03*
X445770D02*
D03*
X455930D02*
D03*
X451700Y1164590D02*
D03*
X528320Y1122680D02*
D03*
X518160Y1070610D02*
D03*
X491490Y1062990D02*
D03*
X384810Y1137920D02*
D03*
X374650Y1136650D02*
D03*
X394970Y1065530D02*
D03*
X479770Y1169380D02*
D03*
X512622Y1142248D02*
D03*
X510590Y1183690D02*
D03*
X510730Y1092429D02*
D03*
X326390Y1155700D02*
D03*
X243840Y1160780D02*
D03*
X372474Y1111130D02*
D03*
X335730Y1070610D02*
D03*
X339468Y1054027D02*
D03*
X379601Y1094101D02*
D03*
X384810Y1075690D02*
D03*
X727710Y1010920D02*
D03*
X748030D02*
D03*
X737870D02*
D03*
X462280Y1050290D02*
D03*
X412750D02*
D03*
X450955Y1051560D02*
D03*
X431800Y1234440D02*
D03*
X441960D02*
D03*
X452120D02*
D03*
X261620Y1192530D02*
D03*
X422910Y1054100D02*
D03*
X510730Y1105260D02*
D03*
X619760Y1084580D02*
D03*
X629920D02*
D03*
X609600D02*
D03*
X727710D02*
D03*
X737870D02*
D03*
X449654Y1122710D02*
D03*
X435610D02*
D03*
X463610D02*
D03*
Y1108710D02*
D03*
X435610D02*
D03*
X449610D02*
D03*
X435610Y1094710D02*
D03*
X449610D02*
D03*
X463610D02*
D03*
X748030Y1084580D02*
D03*
X284480Y1010920D02*
D03*
X294640D02*
D03*
X274320D02*
D03*
X275189Y1172994D02*
D03*
X322580Y1177290D02*
D03*
X629920Y1010920D02*
D03*
X619760D02*
D03*
X609600D02*
D03*
X331336Y1185044D02*
D03*
D49*
X548640Y1082040D02*
D03*
Y1130300D02*
D03*
X297595Y1115848D02*
D03*
X301610Y1076612D02*
D03*
X240030Y1116330D02*
D03*
D50*
X302000Y1219200D02*
D03*
X287504Y1216043D02*
D03*
X309900Y1216320D02*
D03*
X293589Y1222820D02*
D03*
D51*
X256540Y1064260D02*
D03*
M02*
