G04*
G04 #@! TF.GenerationSoftware,Altium Limited,Altium Designer,23.5.1 (21)*
G04*
G04 Layer_Color=255*
%FSLAX44Y44*%
%MOMM*%
G71*
G04*
G04 #@! TF.SameCoordinates,2BC34154-30F2-4EB8-A0CA-646768C512BA*
G04*
G04*
G04 #@! TF.FilePolarity,Positive*
G04*
G01*
G75*
%ADD13R,0.4000X0.5000*%
%ADD14R,0.5000X0.4000*%
%ADD15R,0.5000X0.6000*%
%ADD16R,0.6000X0.5000*%
%ADD17R,0.5153X0.4725*%
%ADD18R,0.4725X0.5153*%
%ADD19R,3.7000X3.7000*%
%ADD20R,0.9000X0.2800*%
%ADD21R,0.2800X0.9000*%
%ADD22R,0.7500X0.8500*%
%ADD23R,1.0500X1.3000*%
%ADD24R,1.3000X1.8500*%
%ADD25R,0.6000X0.5000*%
%ADD26R,0.3000X1.1500*%
%ADD27R,0.6000X1.1500*%
%ADD28R,1.1000X0.6000*%
%ADD29R,2.1500X0.9500*%
%ADD30R,2.1500X3.2500*%
%ADD31R,1.5781X1.5562*%
G04:AMPARAMS|DCode=32|XSize=0.76mm|YSize=0.6604mm|CornerRadius=0.0825mm|HoleSize=0mm|Usage=FLASHONLY|Rotation=90.000|XOffset=0mm|YOffset=0mm|HoleType=Round|Shape=RoundedRectangle|*
%AMROUNDEDRECTD32*
21,1,0.7600,0.4953,0,0,90.0*
21,1,0.5949,0.6604,0,0,90.0*
1,1,0.1651,0.2477,0.2975*
1,1,0.1651,0.2477,-0.2975*
1,1,0.1651,-0.2477,-0.2975*
1,1,0.1651,-0.2477,0.2975*
%
%ADD32ROUNDEDRECTD32*%
G04:AMPARAMS|DCode=43|XSize=1mm|YSize=1.8mm|CornerRadius=0.5mm|HoleSize=0mm|Usage=FLASHONLY|Rotation=180.000|XOffset=0mm|YOffset=0mm|HoleType=Round|Shape=RoundedRectangle|*
%AMROUNDEDRECTD43*
21,1,1.0000,0.8000,0,0,180.0*
21,1,0.0000,1.8000,0,0,180.0*
1,1,1.0000,0.0000,0.4000*
1,1,1.0000,0.0000,0.4000*
1,1,1.0000,0.0000,-0.4000*
1,1,1.0000,0.0000,-0.4000*
%
%ADD43ROUNDEDRECTD43*%
G04:AMPARAMS|DCode=44|XSize=1mm|YSize=2.1mm|CornerRadius=0.5mm|HoleSize=0mm|Usage=FLASHONLY|Rotation=180.000|XOffset=0mm|YOffset=0mm|HoleType=Round|Shape=RoundedRectangle|*
%AMROUNDEDRECTD44*
21,1,1.0000,1.1000,0,0,180.0*
21,1,0.0000,2.1000,0,0,180.0*
1,1,1.0000,0.0000,0.5500*
1,1,1.0000,0.0000,0.5500*
1,1,1.0000,0.0000,-0.5500*
1,1,1.0000,0.0000,-0.5500*
%
%ADD44ROUNDEDRECTD44*%
%ADD45C,0.6500*%
%ADD61R,1.4280X1.4280*%
%ADD62C,1.4280*%
%ADD63C,3.2760*%
%ADD64C,4.5000*%
%ADD65C,1.5000*%
%ADD66R,1.5000X1.5000*%
D13*
X502950Y1117600D02*
D03*
X494950D02*
D03*
X394780Y1123950D02*
D03*
X402780D02*
D03*
Y1085850D02*
D03*
X394780D02*
D03*
X502950Y1105260D02*
D03*
X494950D02*
D03*
D14*
X417830Y1155890D02*
D03*
Y1147890D02*
D03*
X450850D02*
D03*
Y1155890D02*
D03*
X433070D02*
D03*
Y1147890D02*
D03*
X481330Y1070800D02*
D03*
Y1062800D02*
D03*
X450880Y1061890D02*
D03*
Y1069890D02*
D03*
X420370Y1069530D02*
D03*
Y1061530D02*
D03*
D15*
X362476Y1131508D02*
D03*
X352476D02*
D03*
X403780Y1137960D02*
D03*
X393700D02*
D03*
X362464Y1121410D02*
D03*
X352464D02*
D03*
X494030Y1082040D02*
D03*
X504110D02*
D03*
X493870Y1131930D02*
D03*
X503950D02*
D03*
D16*
X435610Y1173560D02*
D03*
Y1183640D02*
D03*
X455930Y1173560D02*
D03*
Y1183640D02*
D03*
X494030Y1161970D02*
D03*
Y1151890D02*
D03*
X445770Y1173560D02*
D03*
Y1183640D02*
D03*
X425450Y1183560D02*
D03*
Y1173480D02*
D03*
X405130Y1173560D02*
D03*
Y1183640D02*
D03*
X415290Y1173480D02*
D03*
Y1183560D02*
D03*
X308610Y1187370D02*
D03*
Y1177370D02*
D03*
X284480Y1187370D02*
D03*
Y1177370D02*
D03*
D17*
X502736Y1092429D02*
D03*
X495164D02*
D03*
X502736Y1142078D02*
D03*
X495164D02*
D03*
X402566Y1075690D02*
D03*
X394994D02*
D03*
D18*
X479770Y1160756D02*
D03*
Y1153184D02*
D03*
D19*
X449610Y1108710D02*
D03*
D20*
X422110Y1088710D02*
D03*
Y1093710D02*
D03*
Y1098710D02*
D03*
Y1103710D02*
D03*
Y1108710D02*
D03*
Y1113710D02*
D03*
Y1118710D02*
D03*
Y1123710D02*
D03*
Y1128710D02*
D03*
X477110D02*
D03*
Y1123710D02*
D03*
Y1118710D02*
D03*
Y1113710D02*
D03*
Y1108710D02*
D03*
Y1103710D02*
D03*
Y1098710D02*
D03*
Y1093710D02*
D03*
Y1088710D02*
D03*
D21*
X429610Y1136210D02*
D03*
X434610D02*
D03*
X439610D02*
D03*
X444610D02*
D03*
X449610D02*
D03*
X454610D02*
D03*
X459610D02*
D03*
X464610D02*
D03*
X469610D02*
D03*
Y1081210D02*
D03*
X464610D02*
D03*
X459610D02*
D03*
X454610D02*
D03*
X449610D02*
D03*
X444610D02*
D03*
X439610D02*
D03*
X434610D02*
D03*
X429610D02*
D03*
D22*
X363714Y1110818D02*
D03*
X351214Y1110818D02*
D03*
X351300Y1054460D02*
D03*
X363800Y1054460D02*
D03*
D23*
X366300Y1070900D02*
D03*
Y1093900D02*
D03*
X348800D02*
D03*
Y1070900D02*
D03*
D24*
X246410Y1179830D02*
D03*
X218410D02*
D03*
D25*
X398780Y1096090D02*
D03*
Y1106090D02*
D03*
D26*
X296700Y1203738D02*
D03*
X301700D02*
D03*
X281700D02*
D03*
X286700D02*
D03*
X291700D02*
D03*
X306700D02*
D03*
X316700D02*
D03*
X311700D02*
D03*
D27*
X267200D02*
D03*
X331200D02*
D03*
X323200D02*
D03*
X275200D02*
D03*
D28*
X286700Y1155700D02*
D03*
Y1165200D02*
D03*
X311700D02*
D03*
Y1155700D02*
D03*
Y1146200D02*
D03*
X286700D02*
D03*
D29*
X221190Y1139330D02*
D03*
Y1116330D02*
D03*
Y1093330D02*
D03*
D30*
X279190Y1116330D02*
D03*
D31*
X222499Y1064260D02*
D03*
X239781D02*
D03*
D32*
X233060Y1160780D02*
D03*
X219060D02*
D03*
D43*
X342400Y1252988D02*
D03*
X256000D02*
D03*
D44*
X342400Y1211189D02*
D03*
X256000D02*
D03*
D45*
X328100Y1216188D02*
D03*
X270300D02*
D03*
D61*
X644460Y1148900D02*
D03*
X899870D02*
D03*
D62*
X619460D02*
D03*
X599460D02*
D03*
X574460D02*
D03*
X829870D02*
D03*
X854870D02*
D03*
X874870D02*
D03*
D63*
X675160Y1176000D02*
D03*
X543760D02*
D03*
X799170D02*
D03*
X930570D02*
D03*
D64*
X224790Y1017270D02*
D03*
X963930Y1243330D02*
D03*
Y1017270D02*
D03*
X224790Y1243330D02*
D03*
D65*
X402590Y1011770D02*
D03*
X382590D02*
D03*
X422590D02*
D03*
D66*
X362590D02*
D03*
M02*
