G04*
G04 #@! TF.GenerationSoftware,Altium Limited,Altium Designer,23.5.1 (21)*
G04*
G04 Layer_Physical_Order=2*
G04 Layer_Color=16711680*
%FSLAX44Y44*%
%MOMM*%
G71*
G04*
G04 #@! TF.SameCoordinates,2BC34154-30F2-4EB8-A0CA-646768C512BA*
G04*
G04*
G04 #@! TF.FilePolarity,Positive*
G04*
G01*
G75*
%ADD12C,0.2540*%
G04:AMPARAMS|DCode=43|XSize=1mm|YSize=1.8mm|CornerRadius=0.5mm|HoleSize=0mm|Usage=FLASHONLY|Rotation=180.000|XOffset=0mm|YOffset=0mm|HoleType=Round|Shape=RoundedRectangle|*
%AMROUNDEDRECTD43*
21,1,1.0000,0.8000,0,0,180.0*
21,1,0.0000,1.8000,0,0,180.0*
1,1,1.0000,0.0000,0.4000*
1,1,1.0000,0.0000,0.4000*
1,1,1.0000,0.0000,-0.4000*
1,1,1.0000,0.0000,-0.4000*
%
%ADD43ROUNDEDRECTD43*%
G04:AMPARAMS|DCode=44|XSize=1mm|YSize=2.1mm|CornerRadius=0.5mm|HoleSize=0mm|Usage=FLASHONLY|Rotation=180.000|XOffset=0mm|YOffset=0mm|HoleType=Round|Shape=RoundedRectangle|*
%AMROUNDEDRECTD44*
21,1,1.0000,1.1000,0,0,180.0*
21,1,0.0000,2.1000,0,0,180.0*
1,1,1.0000,0.0000,0.5500*
1,1,1.0000,0.0000,0.5500*
1,1,1.0000,0.0000,-0.5500*
1,1,1.0000,0.0000,-0.5500*
%
%ADD44ROUNDEDRECTD44*%
%ADD45C,0.6500*%
%ADD53C,0.5000*%
%ADD55C,0.6000*%
%ADD61R,1.4280X1.4280*%
%ADD62C,1.4280*%
%ADD63C,3.2760*%
%ADD64C,4.5000*%
%ADD65C,1.5000*%
%ADD66R,1.5000X1.5000*%
%ADD67C,0.6000*%
%ADD68C,1.0000*%
%ADD69C,0.5000*%
%ADD70C,1.2000*%
G36*
X974090Y1273810D02*
X976179Y1273770D01*
X980261Y1272876D01*
X984091Y1271204D01*
X987520Y1268816D01*
X990418Y1265805D01*
X992673Y1262287D01*
X994198Y1258396D01*
X994934Y1254283D01*
X994894Y1252194D01*
X994894Y1252194D01*
X994894Y1252194D01*
X994410Y1008380D01*
X994410Y1006254D01*
X993580Y1002082D01*
X991953Y998153D01*
X989590Y994617D01*
X986583Y991610D01*
X983047Y989247D01*
X979118Y987619D01*
X974946Y986790D01*
X972820Y986790D01*
X215900D01*
X213773Y986790D01*
X209602Y987620D01*
X205673Y989247D01*
X202137Y991610D01*
X199130Y994617D01*
X196767Y998153D01*
X195140Y1002082D01*
X194310Y1006254D01*
X194310Y1008380D01*
Y1253490D01*
Y1255491D01*
X195091Y1259417D01*
X196623Y1263115D01*
X198846Y1266443D01*
X201677Y1269273D01*
X205005Y1271497D01*
X208703Y1273029D01*
X212629Y1273810D01*
X214630D01*
X974090Y1273810D01*
D02*
G37*
%LPC*%
G36*
X257270Y1264426D02*
Y1254258D01*
X263605D01*
Y1256988D01*
X263346Y1258957D01*
X262586Y1260791D01*
X261378Y1262366D01*
X259803Y1263575D01*
X257968Y1264334D01*
X257270Y1264426D01*
D02*
G37*
G36*
X343670D02*
Y1254258D01*
X350005D01*
Y1256988D01*
X349746Y1258957D01*
X348986Y1260791D01*
X347778Y1262366D01*
X346203Y1263575D01*
X344368Y1264334D01*
X343670Y1264426D01*
D02*
G37*
G36*
X254730D02*
X254032Y1264334D01*
X252197Y1263575D01*
X250622Y1262366D01*
X249414Y1260791D01*
X248654Y1258957D01*
X248395Y1256988D01*
Y1254258D01*
X254730D01*
Y1264426D01*
D02*
G37*
G36*
X341130D02*
X340432Y1264334D01*
X338597Y1263575D01*
X337022Y1262366D01*
X335814Y1260791D01*
X335054Y1258957D01*
X334795Y1256988D01*
Y1254258D01*
X341130D01*
Y1264426D01*
D02*
G37*
G36*
X350005Y1251718D02*
X343670D01*
Y1241551D01*
X344368Y1241643D01*
X346203Y1242402D01*
X347778Y1243611D01*
X348986Y1245186D01*
X349746Y1247020D01*
X350005Y1248988D01*
Y1251718D01*
D02*
G37*
G36*
X263605D02*
X257270D01*
Y1241551D01*
X257968Y1241643D01*
X259803Y1242402D01*
X261378Y1243611D01*
X262586Y1245186D01*
X263346Y1247020D01*
X263605Y1248988D01*
Y1251718D01*
D02*
G37*
G36*
X341130D02*
X334795D01*
Y1248988D01*
X335054Y1247020D01*
X335814Y1245186D01*
X337022Y1243611D01*
X338597Y1242402D01*
X340432Y1241643D01*
X341130Y1241551D01*
Y1251718D01*
D02*
G37*
G36*
X254730D02*
X248395D01*
Y1248988D01*
X248654Y1247020D01*
X249414Y1245186D01*
X250622Y1243611D01*
X252197Y1242402D01*
X254032Y1241643D01*
X254730Y1241551D01*
Y1251718D01*
D02*
G37*
G36*
X257270Y1224126D02*
Y1212458D01*
X263605D01*
Y1216689D01*
X263346Y1218657D01*
X262586Y1220491D01*
X261378Y1222066D01*
X259803Y1223275D01*
X257968Y1224034D01*
X257270Y1224126D01*
D02*
G37*
G36*
X343670D02*
Y1212458D01*
X350005D01*
Y1216689D01*
X349746Y1218657D01*
X348986Y1220491D01*
X347778Y1222066D01*
X346203Y1223275D01*
X344368Y1224034D01*
X343670Y1224126D01*
D02*
G37*
G36*
X254730D02*
X254032Y1224034D01*
X252197Y1223275D01*
X250622Y1222066D01*
X249414Y1220491D01*
X248654Y1218657D01*
X248395Y1216689D01*
Y1212458D01*
X254730D01*
Y1224126D01*
D02*
G37*
G36*
X341130D02*
X340432Y1224034D01*
X338597Y1223275D01*
X337022Y1222066D01*
X335814Y1220491D01*
X335054Y1218657D01*
X334795Y1216689D01*
Y1212458D01*
X341130D01*
Y1224126D01*
D02*
G37*
G36*
X306144Y1228935D02*
X296307D01*
X295031Y1228681D01*
X293950Y1227958D01*
X293366Y1227374D01*
X293301Y1227320D01*
X292694D01*
X291040Y1226635D01*
X289774Y1225369D01*
X289089Y1223715D01*
Y1221925D01*
X289236Y1221571D01*
X288706Y1220920D01*
X288287Y1220543D01*
X286608D01*
X284954Y1219858D01*
X283689Y1218592D01*
X283004Y1216938D01*
Y1215148D01*
X283689Y1213494D01*
X284954Y1212228D01*
X286608Y1211543D01*
X288399D01*
X290053Y1212228D01*
X290793Y1212969D01*
X290819Y1212973D01*
X290906Y1212981D01*
X299460D01*
X300736Y1213235D01*
X301817Y1213958D01*
X302559Y1214700D01*
X302895D01*
X304205Y1215243D01*
X304672Y1215314D01*
X305688Y1214728D01*
X306085Y1213771D01*
X307351Y1212505D01*
X309005Y1211820D01*
X310795D01*
X312449Y1212505D01*
X313715Y1213771D01*
X314400Y1215425D01*
Y1217215D01*
X313715Y1218869D01*
X313203Y1219381D01*
X313192Y1219430D01*
X313181Y1219501D01*
X313174Y1219579D01*
Y1221904D01*
X312920Y1223180D01*
X312197Y1224262D01*
X308501Y1227958D01*
X307420Y1228681D01*
X306144Y1228935D01*
D02*
G37*
G36*
X329144Y1221439D02*
X327056D01*
X325126Y1220639D01*
X323649Y1219162D01*
X322850Y1217233D01*
Y1215144D01*
X323649Y1213215D01*
X325126Y1211738D01*
X327056Y1210938D01*
X329144D01*
X331074Y1211738D01*
X332551Y1213215D01*
X333350Y1215144D01*
Y1217233D01*
X332551Y1219162D01*
X331074Y1220639D01*
X329144Y1221439D01*
D02*
G37*
G36*
X271344D02*
X269256D01*
X267326Y1220639D01*
X265849Y1219162D01*
X265050Y1217233D01*
Y1215144D01*
X265849Y1213215D01*
X267326Y1211738D01*
X269256Y1210938D01*
X271344D01*
X273274Y1211738D01*
X274751Y1213215D01*
X275550Y1215144D01*
Y1217233D01*
X274751Y1219162D01*
X273274Y1220639D01*
X271344Y1221439D01*
D02*
G37*
G36*
X350005Y1209918D02*
X343670D01*
Y1198251D01*
X344368Y1198343D01*
X346203Y1199102D01*
X347778Y1200311D01*
X348986Y1201886D01*
X349746Y1203720D01*
X350005Y1205688D01*
Y1209918D01*
D02*
G37*
G36*
X263605D02*
X257270D01*
Y1198251D01*
X257968Y1198343D01*
X259803Y1199102D01*
X261378Y1200311D01*
X262586Y1201886D01*
X263346Y1203720D01*
X263605Y1205688D01*
Y1209918D01*
D02*
G37*
G36*
X341130D02*
X334795D01*
Y1205688D01*
X335054Y1203720D01*
X335814Y1201886D01*
X337022Y1200311D01*
X338597Y1199102D01*
X340432Y1198343D01*
X341130Y1198251D01*
Y1209918D01*
D02*
G37*
G36*
X254730D02*
X248395D01*
Y1205688D01*
X248654Y1203720D01*
X249414Y1201886D01*
X250622Y1200311D01*
X252197Y1199102D01*
X254032Y1198343D01*
X254730Y1198251D01*
Y1209918D01*
D02*
G37*
G36*
X932433Y1194920D02*
X931840D01*
Y1177270D01*
X949490D01*
Y1177863D01*
X948763Y1181519D01*
X947337Y1184962D01*
X945266Y1188061D01*
X942631Y1190696D01*
X939532Y1192767D01*
X936089Y1194193D01*
X932433Y1194920D01*
D02*
G37*
G36*
X801033D02*
X800440D01*
Y1177270D01*
X818090D01*
Y1177863D01*
X817363Y1181519D01*
X815937Y1184962D01*
X813866Y1188061D01*
X811231Y1190696D01*
X808132Y1192767D01*
X804689Y1194193D01*
X801033Y1194920D01*
D02*
G37*
G36*
X677023D02*
X676430D01*
Y1177270D01*
X694080D01*
Y1177863D01*
X693353Y1181519D01*
X691927Y1184962D01*
X689856Y1188061D01*
X687221Y1190696D01*
X684122Y1192767D01*
X680679Y1194193D01*
X677023Y1194920D01*
D02*
G37*
G36*
X545623D02*
X545030D01*
Y1177270D01*
X562680D01*
Y1177863D01*
X561953Y1181519D01*
X560527Y1184962D01*
X558456Y1188061D01*
X555821Y1190696D01*
X552722Y1192767D01*
X549279Y1194193D01*
X545623Y1194920D01*
D02*
G37*
G36*
X797900D02*
X797307D01*
X793651Y1194193D01*
X790208Y1192767D01*
X787109Y1190696D01*
X784474Y1188061D01*
X782403Y1184962D01*
X780977Y1181519D01*
X780250Y1177863D01*
Y1177270D01*
X797900D01*
Y1194920D01*
D02*
G37*
G36*
X673890D02*
X673297D01*
X669641Y1194193D01*
X666198Y1192767D01*
X663099Y1190696D01*
X660464Y1188061D01*
X658393Y1184962D01*
X656967Y1181519D01*
X656240Y1177863D01*
Y1177270D01*
X673890D01*
Y1194920D01*
D02*
G37*
G36*
X542490D02*
X541897D01*
X538241Y1194193D01*
X534798Y1192767D01*
X531699Y1190696D01*
X529064Y1188061D01*
X526993Y1184962D01*
X525567Y1181519D01*
X524840Y1177863D01*
Y1177270D01*
X542490D01*
Y1194920D01*
D02*
G37*
G36*
X929300D02*
X928707D01*
X925051Y1194193D01*
X921608Y1192767D01*
X918509Y1190696D01*
X915874Y1188061D01*
X913803Y1184962D01*
X912377Y1181519D01*
X911650Y1177863D01*
Y1177270D01*
X929300D01*
Y1194920D01*
D02*
G37*
G36*
X949490Y1174730D02*
X931840D01*
Y1157080D01*
X932433D01*
X936089Y1157807D01*
X939532Y1159233D01*
X942631Y1161304D01*
X945266Y1163939D01*
X947337Y1167038D01*
X948763Y1170481D01*
X949490Y1174137D01*
Y1174730D01*
D02*
G37*
G36*
X929300D02*
X911650D01*
Y1174137D01*
X912377Y1170481D01*
X913803Y1167038D01*
X915874Y1163939D01*
X918509Y1161304D01*
X921608Y1159233D01*
X925051Y1157807D01*
X928707Y1157080D01*
X929300D01*
Y1174730D01*
D02*
G37*
G36*
X818090D02*
X800440D01*
Y1157080D01*
X801033D01*
X804689Y1157807D01*
X808132Y1159233D01*
X811231Y1161304D01*
X813866Y1163939D01*
X815937Y1167038D01*
X817363Y1170481D01*
X818090Y1174137D01*
Y1174730D01*
D02*
G37*
G36*
X797900D02*
X780250D01*
Y1174137D01*
X780977Y1170481D01*
X782403Y1167038D01*
X784474Y1163939D01*
X787109Y1161304D01*
X790208Y1159233D01*
X793651Y1157807D01*
X797307Y1157080D01*
X797900D01*
Y1174730D01*
D02*
G37*
G36*
X694080D02*
X676430D01*
Y1157080D01*
X677023D01*
X680679Y1157807D01*
X684122Y1159233D01*
X687221Y1161304D01*
X689856Y1163939D01*
X691927Y1167038D01*
X693353Y1170481D01*
X694080Y1174137D01*
Y1174730D01*
D02*
G37*
G36*
X673890D02*
X656240D01*
Y1174137D01*
X656967Y1170481D01*
X658393Y1167038D01*
X660464Y1163939D01*
X663099Y1161304D01*
X666198Y1159233D01*
X669641Y1157807D01*
X673297Y1157080D01*
X673890D01*
Y1174730D01*
D02*
G37*
G36*
X562680D02*
X545030D01*
Y1157080D01*
X545623D01*
X549279Y1157807D01*
X552722Y1159233D01*
X555821Y1161304D01*
X558456Y1163939D01*
X560527Y1167038D01*
X561953Y1170481D01*
X562680Y1174137D01*
Y1174730D01*
D02*
G37*
G36*
X542490D02*
X524840D01*
Y1174137D01*
X525567Y1170481D01*
X526993Y1167038D01*
X529064Y1163939D01*
X531699Y1161304D01*
X534798Y1159233D01*
X538241Y1157807D01*
X541897Y1157080D01*
X542490D01*
Y1174730D01*
D02*
G37*
G36*
X831144Y1158580D02*
X831140D01*
Y1150170D01*
X839550D01*
Y1150174D01*
X838890Y1152636D01*
X837616Y1154844D01*
X835814Y1156646D01*
X833606Y1157920D01*
X831144Y1158580D01*
D02*
G37*
G36*
X575734D02*
X575730D01*
Y1150170D01*
X584140D01*
Y1150174D01*
X583480Y1152636D01*
X582206Y1154844D01*
X580404Y1156646D01*
X578196Y1157920D01*
X575734Y1158580D01*
D02*
G37*
G36*
X828600D02*
X828596D01*
X826134Y1157920D01*
X823926Y1156646D01*
X822124Y1154844D01*
X820850Y1152636D01*
X820190Y1150174D01*
Y1150170D01*
X828600D01*
Y1158580D01*
D02*
G37*
G36*
X573190D02*
X573186D01*
X570724Y1157920D01*
X568516Y1156646D01*
X566714Y1154844D01*
X565440Y1152636D01*
X564780Y1150174D01*
Y1150170D01*
X573190D01*
Y1158580D01*
D02*
G37*
G36*
X876073Y1158040D02*
X873667D01*
X871342Y1157417D01*
X869258Y1156214D01*
X867556Y1154512D01*
X866353Y1152428D01*
X865730Y1150103D01*
Y1147697D01*
X866353Y1145372D01*
X867556Y1143288D01*
X869258Y1141586D01*
X871342Y1140383D01*
X873667Y1139760D01*
X876073D01*
X878398Y1140383D01*
X880482Y1141586D01*
X882184Y1143288D01*
X883387Y1145372D01*
X884010Y1147697D01*
Y1150103D01*
X883387Y1152428D01*
X882184Y1154512D01*
X880482Y1156214D01*
X878398Y1157417D01*
X876073Y1158040D01*
D02*
G37*
G36*
X856073D02*
X853667D01*
X851342Y1157417D01*
X849258Y1156214D01*
X847556Y1154512D01*
X846353Y1152428D01*
X845730Y1150103D01*
Y1147697D01*
X846353Y1145372D01*
X847556Y1143288D01*
X849258Y1141586D01*
X851342Y1140383D01*
X853667Y1139760D01*
X856073D01*
X858398Y1140383D01*
X860482Y1141586D01*
X862184Y1143288D01*
X863387Y1145372D01*
X864010Y1147697D01*
Y1150103D01*
X863387Y1152428D01*
X862184Y1154512D01*
X860482Y1156214D01*
X858398Y1157417D01*
X856073Y1158040D01*
D02*
G37*
G36*
X620663D02*
X618257D01*
X615932Y1157417D01*
X613848Y1156214D01*
X612146Y1154512D01*
X610943Y1152428D01*
X610320Y1150103D01*
Y1147697D01*
X610943Y1145372D01*
X612146Y1143288D01*
X613848Y1141586D01*
X615932Y1140383D01*
X618257Y1139760D01*
X620663D01*
X622988Y1140383D01*
X625072Y1141586D01*
X626774Y1143288D01*
X627977Y1145372D01*
X628600Y1147697D01*
Y1150103D01*
X627977Y1152428D01*
X626774Y1154512D01*
X625072Y1156214D01*
X622988Y1157417D01*
X620663Y1158040D01*
D02*
G37*
G36*
X600663D02*
X598257D01*
X595932Y1157417D01*
X593848Y1156214D01*
X592146Y1154512D01*
X590943Y1152428D01*
X590320Y1150103D01*
Y1147697D01*
X590943Y1145372D01*
X592146Y1143288D01*
X593848Y1141586D01*
X595932Y1140383D01*
X598257Y1139760D01*
X600663D01*
X602988Y1140383D01*
X605072Y1141586D01*
X606774Y1143288D01*
X607977Y1145372D01*
X608600Y1147697D01*
Y1150103D01*
X607977Y1152428D01*
X606774Y1154512D01*
X605072Y1156214D01*
X602988Y1157417D01*
X600663Y1158040D01*
D02*
G37*
G36*
X839550Y1147630D02*
X831140D01*
Y1139220D01*
X831144D01*
X833606Y1139880D01*
X835814Y1141154D01*
X837616Y1142956D01*
X838890Y1145164D01*
X839550Y1147626D01*
Y1147630D01*
D02*
G37*
G36*
X828600D02*
X820190D01*
Y1147626D01*
X820850Y1145164D01*
X822124Y1142956D01*
X823926Y1141154D01*
X826134Y1139880D01*
X828596Y1139220D01*
X828600D01*
Y1147630D01*
D02*
G37*
G36*
X584140D02*
X575730D01*
Y1139220D01*
X575734D01*
X578196Y1139880D01*
X580404Y1141154D01*
X582206Y1142956D01*
X583480Y1145164D01*
X584140Y1147626D01*
Y1147630D01*
D02*
G37*
G36*
X573190D02*
X564780D01*
Y1147626D01*
X565440Y1145164D01*
X566714Y1142956D01*
X568516Y1141154D01*
X570724Y1139880D01*
X573186Y1139220D01*
X573190D01*
Y1147630D01*
D02*
G37*
G36*
X449685Y1057030D02*
X447817Y1056257D01*
X446258Y1054698D01*
X445485Y1052830D01*
X449685D01*
Y1057030D01*
D02*
G37*
G36*
X477620Y1221248D02*
X426720D01*
X424964Y1220899D01*
X423476Y1219904D01*
X412046Y1208474D01*
X411051Y1206986D01*
X410702Y1205230D01*
Y1194519D01*
X410290Y1193525D01*
Y1191535D01*
X411051Y1189698D01*
X412458Y1188291D01*
X413687Y1187782D01*
X414058Y1186357D01*
X381566Y1153864D01*
X380571Y1152376D01*
X380222Y1150620D01*
Y1139909D01*
X379810Y1138915D01*
Y1136925D01*
X380571Y1135088D01*
X381978Y1133681D01*
X383815Y1132920D01*
X385805D01*
X387642Y1133681D01*
X389049Y1135088D01*
X389810Y1136925D01*
Y1138915D01*
X389398Y1139909D01*
Y1148719D01*
X428503Y1187824D01*
X429498Y1189313D01*
X429546Y1189555D01*
X429689Y1189698D01*
X430450Y1191535D01*
Y1193525D01*
X430229Y1194057D01*
Y1198381D01*
X435030Y1203182D01*
X456570D01*
X471419Y1188333D01*
X471729Y1187890D01*
X471936Y1187475D01*
X472041Y1187124D01*
X472072Y1186815D01*
X472041Y1186506D01*
X471936Y1186155D01*
X471729Y1185740D01*
X471419Y1185297D01*
X456496Y1170374D01*
X455501Y1168886D01*
X455152Y1167130D01*
Y1158959D01*
X454740Y1157965D01*
Y1155975D01*
X455501Y1154138D01*
X456908Y1152731D01*
X458745Y1151970D01*
X460735D01*
X462572Y1152731D01*
X463979Y1154138D01*
X464740Y1155975D01*
Y1157965D01*
X464328Y1158959D01*
Y1165229D01*
X477907Y1178809D01*
X478350Y1179119D01*
X478765Y1179326D01*
X479116Y1179431D01*
X479425Y1179462D01*
X479734Y1179431D01*
X480085Y1179326D01*
X480500Y1179119D01*
X480943Y1178809D01*
X516112Y1143640D01*
Y1130300D01*
X516461Y1128544D01*
X517456Y1127056D01*
X523669Y1120842D01*
X524081Y1119848D01*
X525488Y1118441D01*
X526482Y1118029D01*
X527542Y1116970D01*
Y1086480D01*
X516322Y1075261D01*
X515328Y1074849D01*
X513921Y1073442D01*
X513509Y1072448D01*
X495939Y1054878D01*
X464269D01*
X463275Y1055290D01*
X461285D01*
X459448Y1054529D01*
X458041Y1053122D01*
X457765Y1052456D01*
X456579Y1052648D01*
X456485Y1052685D01*
X455652Y1054698D01*
X454093Y1056257D01*
X452225Y1057030D01*
Y1051560D01*
X450955D01*
Y1050290D01*
X445485D01*
X446258Y1048422D01*
X447817Y1046863D01*
X449853Y1046020D01*
X449862D01*
X450348Y1044847D01*
X443870Y1038368D01*
X408976D01*
X408490Y1039541D01*
X414588Y1045639D01*
X415582Y1046051D01*
X416989Y1047458D01*
X417750Y1049295D01*
Y1051285D01*
X416989Y1053122D01*
X415582Y1054529D01*
X413745Y1055290D01*
X411755D01*
X409918Y1054529D01*
X408511Y1053122D01*
X408099Y1052128D01*
X396560Y1040588D01*
X396055Y1040185D01*
X395409Y1039745D01*
X394743Y1039368D01*
X394057Y1039050D01*
X393347Y1038789D01*
X392610Y1038586D01*
X391842Y1038439D01*
X391200Y1038368D01*
X346342D01*
X309320Y1075390D01*
X309182Y1075561D01*
X308998Y1075817D01*
X308857Y1076041D01*
X308758Y1076229D01*
X308696Y1076375D01*
X308665Y1076475D01*
X308655Y1076528D01*
X308645Y1076683D01*
X308610Y1076818D01*
Y1077533D01*
X308133Y1079314D01*
X307211Y1080910D01*
X305908Y1082213D01*
X304312Y1083135D01*
X302532Y1083612D01*
X300688D01*
X298908Y1083135D01*
X297312Y1082213D01*
X296009Y1080910D01*
X295087Y1079314D01*
X294610Y1077533D01*
Y1075690D01*
X295087Y1073910D01*
X296009Y1072314D01*
X297312Y1071010D01*
X298908Y1070089D01*
X300688Y1069612D01*
X301404D01*
X301539Y1069576D01*
X301693Y1069567D01*
X301747Y1069557D01*
X301847Y1069526D01*
X301993Y1069464D01*
X302181Y1069364D01*
X302405Y1069223D01*
X302640Y1069054D01*
X302895Y1068838D01*
X341197Y1030536D01*
X342686Y1029541D01*
X344442Y1029192D01*
X445770D01*
X447526Y1029541D01*
X449014Y1030536D01*
X464118Y1045639D01*
X464269Y1045702D01*
X497840D01*
X499596Y1046051D01*
X501084Y1047046D01*
X519998Y1065959D01*
X520992Y1066371D01*
X522399Y1067778D01*
X522811Y1068772D01*
X535374Y1081336D01*
X536369Y1082824D01*
X536718Y1084580D01*
Y1118870D01*
X536369Y1120626D01*
X535374Y1122114D01*
X532971Y1124518D01*
X532559Y1125512D01*
X531152Y1126919D01*
X530158Y1127331D01*
X525288Y1132200D01*
Y1145540D01*
X524939Y1147296D01*
X524456Y1148018D01*
X525443Y1148828D01*
X541658Y1132613D01*
X541684Y1132583D01*
X541707Y1132552D01*
X541830Y1131932D01*
X541640Y1131222D01*
Y1129378D01*
X542117Y1127598D01*
X543039Y1126002D01*
X543447Y1125593D01*
X543462Y1125532D01*
X543488Y1125384D01*
X543542Y1124584D01*
Y1087466D01*
X543494Y1086991D01*
X543462Y1086808D01*
X543447Y1086747D01*
X543039Y1086338D01*
X542117Y1084742D01*
X541640Y1082962D01*
Y1081118D01*
X542117Y1079338D01*
X543039Y1077742D01*
X543447Y1077333D01*
X543462Y1077272D01*
X543488Y1077123D01*
X543542Y1076324D01*
Y1064852D01*
X484526Y1005836D01*
X483891Y1005327D01*
X483088Y1004782D01*
X482261Y1004312D01*
X481407Y1003916D01*
X480523Y1003592D01*
X479607Y1003339D01*
X478653Y1003158D01*
X477845Y1003068D01*
X408833D01*
X408593Y1004338D01*
X410192Y1005937D01*
X411443Y1008103D01*
X412090Y1010519D01*
Y1013021D01*
X411443Y1015437D01*
X410192Y1017603D01*
X408423Y1019372D01*
X406257Y1020623D01*
X403841Y1021270D01*
X401339D01*
X398923Y1020623D01*
X396757Y1019372D01*
X394988Y1017603D01*
X393737Y1015437D01*
X393247Y1013608D01*
X391933D01*
X391442Y1015437D01*
X390192Y1017603D01*
X388423Y1019372D01*
X386257Y1020623D01*
X383841Y1021270D01*
X381339D01*
X378923Y1020623D01*
X376757Y1019372D01*
X374988Y1017603D01*
X373737Y1015437D01*
X373360Y1014028D01*
X372090Y1014195D01*
Y1021270D01*
X353090D01*
Y1002270D01*
X361530D01*
X361574Y1002261D01*
X361618Y1002270D01*
X364199D01*
X364557Y1002066D01*
X365379Y1001494D01*
X367183Y999967D01*
X372785Y994365D01*
X374439Y993260D01*
X376390Y992872D01*
X865535D01*
X867486Y993260D01*
X869139Y994365D01*
X903475Y1028700D01*
X904580Y1030354D01*
X904968Y1032305D01*
Y1137167D01*
X905014Y1137693D01*
X905135Y1138417D01*
X905286Y1138977D01*
X905445Y1139367D01*
X905583Y1139593D01*
X905671Y1139687D01*
X905709Y1139712D01*
X905752Y1139728D01*
X906060Y1139760D01*
X909010D01*
Y1158040D01*
X890730D01*
Y1139760D01*
X893680D01*
X893988Y1139728D01*
X894031Y1139712D01*
X894069Y1139687D01*
X894157Y1139593D01*
X894295Y1139367D01*
X894454Y1138977D01*
X894605Y1138417D01*
X894726Y1137693D01*
X894772Y1137167D01*
Y1034417D01*
X863423Y1003068D01*
X573787D01*
X573301Y1004241D01*
X648065Y1079005D01*
X649170Y1080659D01*
X649558Y1082610D01*
Y1137167D01*
X649604Y1137693D01*
X649725Y1138417D01*
X649876Y1138977D01*
X650035Y1139367D01*
X650173Y1139593D01*
X650261Y1139687D01*
X650299Y1139712D01*
X650342Y1139728D01*
X650650Y1139760D01*
X653600D01*
Y1158040D01*
X635320D01*
Y1139760D01*
X638270D01*
X638578Y1139728D01*
X638621Y1139712D01*
X638659Y1139687D01*
X638747Y1139593D01*
X638885Y1139367D01*
X639044Y1138977D01*
X639195Y1138417D01*
X639316Y1137693D01*
X639362Y1137167D01*
Y1084722D01*
X560476Y1005836D01*
X559841Y1005327D01*
X559038Y1004782D01*
X558211Y1004312D01*
X557357Y1003916D01*
X556473Y1003592D01*
X555557Y1003339D01*
X554603Y1003158D01*
X553795Y1003068D01*
X497837D01*
X497351Y1004241D01*
X552245Y1059135D01*
X553350Y1060789D01*
X553738Y1062740D01*
Y1076324D01*
X553792Y1077123D01*
X553818Y1077272D01*
X553833Y1077333D01*
X554241Y1077742D01*
X555163Y1079338D01*
X555640Y1081118D01*
Y1082962D01*
X555163Y1084742D01*
X554241Y1086338D01*
X553833Y1086747D01*
X553818Y1086808D01*
X553792Y1086956D01*
X553738Y1087756D01*
Y1124874D01*
X553786Y1125349D01*
X553818Y1125532D01*
X553833Y1125593D01*
X554241Y1126002D01*
X555163Y1127598D01*
X555640Y1129378D01*
Y1131222D01*
X555163Y1133002D01*
X554241Y1134598D01*
X552938Y1135901D01*
X551615Y1136665D01*
X550945Y1137398D01*
X550245Y1138445D01*
X515688Y1173001D01*
Y1183690D01*
X515590Y1184183D01*
Y1184685D01*
X515398Y1185149D01*
X515300Y1185641D01*
X515021Y1186059D01*
X514829Y1186522D01*
X514474Y1186878D01*
X514195Y1187295D01*
X513778Y1187574D01*
X513422Y1187929D01*
X512958Y1188121D01*
X512541Y1188400D01*
X512326Y1188443D01*
X480865Y1219904D01*
X479376Y1220899D01*
X477620Y1221248D01*
D02*
G37*
%LPD*%
G36*
X297057Y1224555D02*
X296863Y1224355D01*
X296408Y1223824D01*
X296299Y1223669D01*
X296212Y1223526D01*
X296146Y1223394D01*
X296102Y1223273D01*
X296079Y1223164D01*
X296077Y1223065D01*
X293746Y1225315D01*
X293842Y1225320D01*
X293950Y1225346D01*
X294069Y1225393D01*
X294199Y1225461D01*
X294341Y1225551D01*
X294495Y1225661D01*
X294837Y1225945D01*
X295224Y1226314D01*
X297057Y1224555D01*
D02*
G37*
G36*
X311115Y1219738D02*
X311155Y1219253D01*
X311189Y1219039D01*
X311234Y1218844D01*
X311289Y1218667D01*
X311353Y1218509D01*
X311428Y1218370D01*
X311512Y1218249D01*
X311607Y1218147D01*
X308108Y1218063D01*
X308195Y1218167D01*
X308274Y1218290D01*
X308344Y1218431D01*
X308403Y1218591D01*
X308454Y1218769D01*
X308496Y1218966D01*
X308528Y1219181D01*
X308565Y1219666D01*
X308570Y1219937D01*
X311110Y1220008D01*
X311115Y1219738D01*
D02*
G37*
G36*
X301981Y1216700D02*
X301906Y1216690D01*
X301818Y1216659D01*
X301715Y1216608D01*
X301598Y1216535D01*
X301467Y1216442D01*
X301164Y1216193D01*
X300804Y1215860D01*
X300602Y1215662D01*
X298602Y1217253D01*
X298797Y1217454D01*
X299250Y1217980D01*
X299356Y1218131D01*
X299440Y1218269D01*
X299501Y1218395D01*
X299540Y1218508D01*
X299557Y1218608D01*
X299551Y1218697D01*
X301981Y1216700D01*
D02*
G37*
G36*
X289193Y1217903D02*
X289316Y1217836D01*
X289458Y1217777D01*
X289618Y1217727D01*
X289798Y1217683D01*
X289995Y1217648D01*
X290446Y1217601D01*
X290699Y1217589D01*
X290971Y1217586D01*
X291296Y1215045D01*
X291026Y1215040D01*
X290545Y1214996D01*
X290333Y1214958D01*
X290141Y1214909D01*
X289968Y1214848D01*
X289814Y1214777D01*
X289680Y1214695D01*
X289565Y1214602D01*
X289469Y1214498D01*
X289088Y1217977D01*
X289193Y1217903D01*
D02*
G37*
G36*
X479425Y1186815D02*
X482961Y1179744D01*
X482253Y1180380D01*
X481546Y1180875D01*
X480839Y1181229D01*
X480132Y1181441D01*
X479425Y1181512D01*
X478718Y1181441D01*
X478011Y1181229D01*
X477304Y1180875D01*
X476597Y1180380D01*
X475890Y1179744D01*
X472354Y1183279D01*
X472990Y1183987D01*
X473485Y1184694D01*
X473839Y1185401D01*
X474051Y1186108D01*
X474122Y1186815D01*
X474051Y1187522D01*
X473839Y1188229D01*
X473485Y1188936D01*
X472990Y1189643D01*
X472354Y1190350D01*
X479425Y1186815D01*
D02*
G37*
G36*
X505492Y1182299D02*
Y1170890D01*
X505880Y1168939D01*
X506473Y1168051D01*
X505487Y1167242D01*
X482669Y1190059D01*
X461927Y1210802D01*
X462122Y1211628D01*
X462418Y1212072D01*
X475720D01*
X505492Y1182299D01*
D02*
G37*
G36*
X905300Y1141730D02*
X904790Y1141551D01*
X904340Y1141251D01*
X903950Y1140831D01*
X903620Y1140291D01*
X903350Y1139631D01*
X903140Y1138850D01*
X902990Y1137951D01*
X902900Y1136930D01*
X902870Y1135790D01*
X896870D01*
X896840Y1136930D01*
X896750Y1137951D01*
X896600Y1138850D01*
X896390Y1139631D01*
X896120Y1140291D01*
X895790Y1140831D01*
X895400Y1141251D01*
X894950Y1141551D01*
X894440Y1141730D01*
X893870Y1141790D01*
X905870D01*
X905300Y1141730D01*
D02*
G37*
G36*
X649890D02*
X649380Y1141551D01*
X648930Y1141251D01*
X648540Y1140831D01*
X648210Y1140291D01*
X647940Y1139631D01*
X647730Y1138850D01*
X647580Y1137951D01*
X647490Y1136930D01*
X647460Y1135790D01*
X641460D01*
X641430Y1136930D01*
X641340Y1137951D01*
X641190Y1138850D01*
X640980Y1139631D01*
X640710Y1140291D01*
X640380Y1140831D01*
X639990Y1141251D01*
X639540Y1141551D01*
X639030Y1141730D01*
X638460Y1141790D01*
X650460D01*
X649890Y1141730D01*
D02*
G37*
G36*
X550389Y1134984D02*
X543992Y1132143D01*
X544031Y1132313D01*
X544022Y1132510D01*
X543965Y1132732D01*
X543861Y1132979D01*
X543709Y1133252D01*
X543510Y1133551D01*
X543263Y1133875D01*
X542626Y1134601D01*
X542236Y1135002D01*
X546610Y1139112D01*
X550389Y1134984D01*
D02*
G37*
G36*
X552045Y1126607D02*
X551960Y1126435D01*
X551885Y1126215D01*
X551820Y1125945D01*
X551765Y1125627D01*
X551685Y1124843D01*
X551645Y1123863D01*
X551640Y1123300D01*
X545640D01*
X545635Y1123863D01*
X545515Y1125627D01*
X545460Y1125945D01*
X545395Y1126215D01*
X545320Y1126435D01*
X545235Y1126607D01*
X545140Y1126729D01*
X552140D01*
X552045Y1126607D01*
D02*
G37*
G36*
X551645Y1088477D02*
X551765Y1086713D01*
X551820Y1086395D01*
X551885Y1086125D01*
X551960Y1085905D01*
X552045Y1085733D01*
X552140Y1085611D01*
X545140D01*
X545235Y1085733D01*
X545320Y1085905D01*
X545395Y1086125D01*
X545460Y1086395D01*
X545515Y1086713D01*
X545595Y1087497D01*
X545635Y1088477D01*
X545640Y1089040D01*
X551640D01*
X551645Y1088477D01*
D02*
G37*
G36*
X552045Y1079617D02*
X551960Y1079445D01*
X551885Y1079225D01*
X551820Y1078955D01*
X551765Y1078637D01*
X551754Y1078469D01*
X552140D01*
X552045Y1078347D01*
X551960Y1078175D01*
X551885Y1077955D01*
X551820Y1077685D01*
X551765Y1077367D01*
X551645Y1075603D01*
X551640Y1075040D01*
X545640D01*
X545635Y1075603D01*
X545515Y1077367D01*
X545460Y1077685D01*
X545395Y1077955D01*
X545320Y1078175D01*
X545235Y1078347D01*
X545140Y1078469D01*
X545532D01*
X545515Y1078637D01*
X545460Y1078955D01*
X545395Y1079225D01*
X545320Y1079445D01*
X545235Y1079617D01*
X545140Y1079739D01*
X552140D01*
X552045Y1079617D01*
D02*
G37*
G36*
X306627Y1076276D02*
X306683Y1075979D01*
X306779Y1075671D01*
X306915Y1075351D01*
X307091Y1075020D01*
X307306Y1074678D01*
X307560Y1074324D01*
X307854Y1073960D01*
X308561Y1073196D01*
X305026Y1069661D01*
X304638Y1070034D01*
X303897Y1070662D01*
X303544Y1070916D01*
X303202Y1071131D01*
X302871Y1071306D01*
X302551Y1071442D01*
X302243Y1071538D01*
X301946Y1071595D01*
X301660Y1071612D01*
X306610Y1076562D01*
X306627Y1076276D01*
D02*
G37*
G36*
X405189Y1039144D02*
X404738Y1038543D01*
X404458Y1038012D01*
X404348Y1037553D01*
X404409Y1037164D01*
X404641Y1036846D01*
X405044Y1036598D01*
X405617Y1036421D01*
X406361Y1036315D01*
X407276Y1036280D01*
X396240Y1031280D01*
X390205Y1036280D01*
X391190Y1036315D01*
X392146Y1036421D01*
X393073Y1036598D01*
X393970Y1036846D01*
X394838Y1037164D01*
X395677Y1037553D01*
X396487Y1038012D01*
X397267Y1038543D01*
X398018Y1039144D01*
X398740Y1039816D01*
X405811D01*
X405189Y1039144D01*
D02*
G37*
G36*
X369720Y1012319D02*
X369550Y1011768D01*
Y1011131D01*
X369720Y1010410D01*
X370060Y1009604D01*
X370569Y1008713D01*
X371247Y1007737D01*
X372096Y1006676D01*
X374302Y1004301D01*
X370060Y1000058D01*
X368829Y1001246D01*
X366623Y1003113D01*
X365647Y1003791D01*
X364756Y1004301D01*
X363950Y1004640D01*
X363229Y1004810D01*
X362592D01*
X362041Y1004640D01*
X361574Y1004301D01*
X370060Y1012786D01*
X369720Y1012319D01*
D02*
G37*
G36*
X570559Y1004407D02*
X570018Y1003685D01*
X569682Y1003049D01*
X569550Y1002497D01*
X569623Y1002031D01*
X569902Y1001649D01*
X570384Y1001352D01*
X571072Y1001140D01*
X571965Y1001012D01*
X573063Y1000970D01*
X559820Y994970D01*
X552577Y1000970D01*
X553760Y1001012D01*
X554907Y1001140D01*
X556019Y1001352D01*
X557096Y1001649D01*
X558138Y1002031D01*
X559145Y1002497D01*
X560116Y1003049D01*
X561053Y1003685D01*
X561954Y1004407D01*
X562820Y1005213D01*
X571305D01*
X570559Y1004407D01*
D02*
G37*
G36*
X494609D02*
X494068Y1003685D01*
X493731Y1003049D01*
X493600Y1002497D01*
X493673Y1002031D01*
X493951Y1001649D01*
X494435Y1001352D01*
X495122Y1001140D01*
X496015Y1001012D01*
X497113Y1000970D01*
X483870Y994970D01*
X476627Y1000970D01*
X477810Y1001012D01*
X478957Y1001140D01*
X480069Y1001352D01*
X481146Y1001649D01*
X482188Y1002031D01*
X483195Y1002497D01*
X484166Y1003049D01*
X485103Y1003685D01*
X486004Y1004407D01*
X486870Y1005213D01*
X495355D01*
X494609Y1004407D01*
D02*
G37*
D12*
X299460Y1216316D02*
X302344Y1219200D01*
X287776Y1216316D02*
X299460D01*
X287504Y1216043D02*
X287776Y1216316D01*
X309840Y1216380D02*
X309900Y1216320D01*
X309840Y1216380D02*
Y1221904D01*
X296307Y1225601D02*
X306144D01*
X309840Y1221904D01*
X293589Y1222883D02*
X296307Y1225601D01*
X293589Y1222820D02*
Y1222883D01*
D43*
X342400Y1252988D02*
D03*
X256000D02*
D03*
D44*
X342400Y1211189D02*
D03*
X256000D02*
D03*
D45*
X328100Y1216188D02*
D03*
X270300D02*
D03*
D53*
X459740Y1167130D02*
X479425Y1186815D01*
X459740Y1156970D02*
Y1167130D01*
X425259Y1192068D02*
X425450Y1192259D01*
X425259Y1191069D02*
Y1192068D01*
X384810Y1150620D02*
X425259Y1191069D01*
X415290Y1192530D02*
Y1205230D01*
X426720Y1216660D01*
X384810Y1137920D02*
Y1150620D01*
X425450Y1192530D02*
X425641Y1192721D01*
Y1200282D01*
X433130Y1207770D01*
X528320Y1122680D02*
X532130Y1118870D01*
X520700Y1130300D02*
X528320Y1122680D01*
X532130Y1084580D02*
Y1118870D01*
X518160Y1070610D02*
X532130Y1084580D01*
X497840Y1050290D02*
X518160Y1070610D01*
X520700Y1130300D02*
Y1145540D01*
X426720Y1216660D02*
X477620D01*
X510590Y1183690D01*
X433130Y1207770D02*
X458470D01*
X479425Y1186815D01*
X520700Y1145540D01*
X344442Y1033780D02*
X396240D01*
X301610Y1076612D02*
X344442Y1033780D01*
X445770D02*
X462280Y1050290D01*
X396240Y1033780D02*
X412750Y1050290D01*
X396240Y1033780D02*
X445770D01*
X462280Y1050290D02*
X497840D01*
D55*
X548640Y1130300D02*
Y1131382D01*
Y1082040D02*
Y1130300D01*
Y1062740D02*
Y1082040D01*
X510590Y1170890D02*
Y1183690D01*
X546640Y1133382D02*
X548640Y1131382D01*
X546640Y1133382D02*
Y1134840D01*
X510590Y1170890D02*
X546640Y1134840D01*
X483870Y997970D02*
X548640Y1062740D01*
X483870Y997970D02*
X559820D01*
X376390D02*
X483870D01*
X865535D02*
X899870Y1032305D01*
Y1148900D01*
X559820Y997970D02*
X865535D01*
X644460Y1082610D02*
Y1148900D01*
X559820Y997970D02*
X644460Y1082610D01*
X362590Y1011770D02*
X376390Y997970D01*
D61*
X644460Y1148900D02*
D03*
X899870D02*
D03*
D62*
X619460D02*
D03*
X599460D02*
D03*
X574460D02*
D03*
X829870D02*
D03*
X854870D02*
D03*
X874870D02*
D03*
D63*
X675160Y1176000D02*
D03*
X543760D02*
D03*
X799170D02*
D03*
X930570D02*
D03*
D64*
X224790Y1017270D02*
D03*
X963930Y1243330D02*
D03*
Y1017270D02*
D03*
X224790Y1243330D02*
D03*
D65*
X402590Y1011770D02*
D03*
X382590D02*
D03*
X422590D02*
D03*
D66*
X362590D02*
D03*
D67*
X417830Y1139190D02*
D03*
X432800Y1164590D02*
D03*
X510730Y1117640D02*
D03*
X459740Y1156970D02*
D03*
X417465Y1164360D02*
D03*
X415290Y1192530D02*
D03*
X393700Y1148080D02*
D03*
X435610Y1192530D02*
D03*
X425450D02*
D03*
X405130D02*
D03*
X445770D02*
D03*
X455930D02*
D03*
X451700Y1164590D02*
D03*
X528320Y1122680D02*
D03*
X518160Y1070610D02*
D03*
X491490Y1062990D02*
D03*
X384810Y1137920D02*
D03*
X374650Y1136650D02*
D03*
X394970Y1065530D02*
D03*
X479770Y1169380D02*
D03*
X512622Y1142248D02*
D03*
X510590Y1183690D02*
D03*
X510730Y1092429D02*
D03*
X326390Y1155700D02*
D03*
X243840Y1160780D02*
D03*
X372474Y1111130D02*
D03*
X335730Y1070610D02*
D03*
X339468Y1054027D02*
D03*
X379601Y1094101D02*
D03*
X384810Y1075690D02*
D03*
X727710Y1010920D02*
D03*
X748030D02*
D03*
X737870D02*
D03*
X462280Y1050290D02*
D03*
X412750D02*
D03*
X450955Y1051560D02*
D03*
X431800Y1234440D02*
D03*
X441960D02*
D03*
X452120D02*
D03*
X261620Y1192530D02*
D03*
X422910Y1054100D02*
D03*
X510730Y1105260D02*
D03*
X619760Y1084580D02*
D03*
X629920D02*
D03*
X609600D02*
D03*
X727710D02*
D03*
X737870D02*
D03*
X449654Y1122710D02*
D03*
X435610D02*
D03*
X463610D02*
D03*
Y1108710D02*
D03*
X435610D02*
D03*
X449610D02*
D03*
X435610Y1094710D02*
D03*
X449610D02*
D03*
X463610D02*
D03*
X748030Y1084580D02*
D03*
X284480Y1010920D02*
D03*
X294640D02*
D03*
X274320D02*
D03*
X275189Y1172994D02*
D03*
X322580Y1177290D02*
D03*
X629920Y1010920D02*
D03*
X619760D02*
D03*
X609600D02*
D03*
X331336Y1185044D02*
D03*
D68*
X548640Y1082040D02*
D03*
Y1130300D02*
D03*
X297595Y1115848D02*
D03*
X301610Y1076612D02*
D03*
X240030Y1116330D02*
D03*
D69*
X302000Y1219200D02*
D03*
X287504Y1216043D02*
D03*
X309900Y1216320D02*
D03*
X293589Y1222820D02*
D03*
D70*
X256540Y1064260D02*
D03*
M02*
