G04*
G04 #@! TF.GenerationSoftware,Altium Limited,Altium Designer,23.5.1 (21)*
G04*
G04 Layer_Color=2752767*
%FSLAX44Y44*%
%MOMM*%
G71*
G04*
G04 #@! TF.SameCoordinates,2BC34154-30F2-4EB8-A0CA-646768C512BA*
G04*
G04*
G04 #@! TF.FilePolarity,Positive*
G04*
G01*
G75*
%ADD71C,0.1270*%
%ADD72C,0.1693*%
%ADD73C,0.1016*%
D71*
X644460Y1143820D02*
X647000Y1146360D01*
X649540D01*
X647000Y1148900D01*
X649540Y1151440D01*
X647000D01*
X644460Y1153980D01*
X641920Y1151440D01*
X639380D01*
X641920Y1148900D01*
X639380Y1146360D01*
X641920D01*
X644460Y1143820D01*
X619460D02*
X622000Y1146360D01*
X624540D01*
X622000Y1148900D01*
X624540Y1151440D01*
X622000D01*
X619460Y1153980D01*
X616920Y1151440D01*
X614380D01*
X616920Y1148900D01*
X614380Y1146360D01*
X616920D01*
X619460Y1143820D01*
X599460D02*
X602000Y1146360D01*
X604540D01*
X602000Y1148900D01*
X604540Y1151440D01*
X602000D01*
X599460Y1153980D01*
X596920Y1151440D01*
X594380D01*
X596920Y1148900D01*
X594380Y1146360D01*
X596920D01*
X599460Y1143820D01*
X574460D02*
X577000Y1146360D01*
X579540D01*
X577000Y1148900D01*
X579540Y1151440D01*
X577000D01*
X574460Y1153980D01*
X571920Y1151440D01*
X569380D01*
X571920Y1148900D01*
X569380Y1146360D01*
X571920D01*
X574460Y1143820D01*
X670080Y1170920D02*
X672620Y1176000D01*
X670080Y1181080D01*
X675160Y1178540D01*
X680240Y1181080D01*
X677700Y1176000D01*
X680240Y1170920D01*
X675160Y1173460D01*
X670080Y1170920D01*
X538680D02*
X541220Y1176000D01*
X538680Y1181080D01*
X543760Y1178540D01*
X548840Y1181080D01*
X546300Y1176000D01*
X548840Y1170920D01*
X543760Y1173460D01*
X538680Y1170920D01*
X794090D02*
X796630Y1176000D01*
X794090Y1181080D01*
X799170Y1178540D01*
X804250Y1181080D01*
X801710Y1176000D01*
X804250Y1170920D01*
X799170Y1173460D01*
X794090Y1170920D01*
X925490D02*
X928030Y1176000D01*
X925490Y1181080D01*
X930570Y1178540D01*
X935650Y1181080D01*
X933110Y1176000D01*
X935650Y1170920D01*
X930570Y1173460D01*
X925490Y1170920D01*
X829870Y1143820D02*
X832410Y1146360D01*
X834950D01*
X832410Y1148900D01*
X834950Y1151440D01*
X832410D01*
X829870Y1153980D01*
X827330Y1151440D01*
X824790D01*
X827330Y1148900D01*
X824790Y1146360D01*
X827330D01*
X829870Y1143820D01*
X854870D02*
X857410Y1146360D01*
X859950D01*
X857410Y1148900D01*
X859950Y1151440D01*
X857410D01*
X854870Y1153980D01*
X852330Y1151440D01*
X849790D01*
X852330Y1148900D01*
X849790Y1146360D01*
X852330D01*
X854870Y1143820D01*
X874870D02*
X877410Y1146360D01*
X879950D01*
X877410Y1148900D01*
X879950Y1151440D01*
X877410D01*
X874870Y1153980D01*
X872330Y1151440D01*
X869790D01*
X872330Y1148900D01*
X869790Y1146360D01*
X872330D01*
X874870Y1143820D01*
X899870D02*
X902410Y1146360D01*
X904950D01*
X902410Y1148900D01*
X904950Y1151440D01*
X902410D01*
X899870Y1153980D01*
X897330Y1151440D01*
X894790D01*
X897330Y1148900D01*
X894790Y1146360D01*
X897330D01*
X899870Y1143820D01*
X342400Y1247908D02*
X337320Y1258068D01*
X347480D01*
X342400Y1247908D01*
X256000D02*
X250920Y1258068D01*
X261080D01*
X256000Y1247908D01*
X323020Y1211108D02*
Y1221268D01*
X333180D01*
Y1211108D01*
X323020D01*
X265220D02*
Y1221268D01*
X275380D01*
Y1211108D01*
X265220D01*
X400050Y1009230D02*
Y1006690D01*
X405130D01*
Y1009230D01*
X407670D01*
Y1014310D01*
X405130D01*
Y1016850D01*
X400050D01*
Y1014310D01*
X397510D01*
Y1009230D01*
X400050D01*
X380050D02*
Y1006690D01*
X385130D01*
Y1009230D01*
X387670D01*
Y1014310D01*
X385130D01*
Y1016850D01*
X380050D01*
Y1014310D01*
X377510D01*
Y1009230D01*
X380050D01*
X360050D02*
Y1006690D01*
X365130D01*
Y1009230D01*
X367670D01*
Y1014310D01*
X365130D01*
Y1016850D01*
X360050D01*
Y1014310D01*
X357510D01*
Y1009230D01*
X360050D01*
X420050D02*
Y1006690D01*
X425130D01*
Y1009230D01*
X427670D01*
Y1014310D01*
X425130D01*
Y1016850D01*
X420050D01*
Y1014310D01*
X417510D01*
Y1009230D01*
X420050D01*
X412750Y1134110D02*
Y1144270D01*
X422910D01*
Y1134110D01*
X412750D01*
X414782Y1136142D02*
Y1142238D01*
X420878D01*
Y1136142D01*
X414782D01*
X427720Y1159510D02*
Y1169670D01*
X437880D01*
Y1159510D01*
X427720D01*
X429752Y1161542D02*
Y1167638D01*
X435848D01*
Y1161542D01*
X429752D01*
X505650Y1112560D02*
Y1122720D01*
X515810D01*
Y1112560D01*
X505650D01*
X507682Y1114592D02*
Y1120688D01*
X513778D01*
Y1114592D01*
X507682D01*
X454660Y1151890D02*
Y1162050D01*
X464820D01*
Y1151890D01*
X454660D01*
X456692Y1153922D02*
Y1160018D01*
X462788D01*
Y1153922D01*
X456692D01*
X412385Y1159280D02*
Y1169440D01*
X422545D01*
Y1159280D01*
X412385D01*
X414417Y1161312D02*
Y1167408D01*
X420513D01*
Y1161312D01*
X414417D01*
X410210Y1187450D02*
Y1197610D01*
X420370D01*
Y1187450D01*
X410210D01*
X412242Y1189482D02*
Y1195578D01*
X418338D01*
Y1189482D01*
X412242D01*
X388620Y1143000D02*
Y1153160D01*
X398780D01*
Y1143000D01*
X388620D01*
X390652Y1145032D02*
Y1151128D01*
X396748D01*
Y1145032D01*
X390652D01*
X430530Y1187450D02*
Y1197610D01*
X440690D01*
Y1187450D01*
X430530D01*
X432562Y1189482D02*
Y1195578D01*
X438658D01*
Y1189482D01*
X432562D01*
X420370Y1187450D02*
Y1197610D01*
X430530D01*
Y1187450D01*
X420370D01*
X422402Y1189482D02*
Y1195578D01*
X428498D01*
Y1189482D01*
X422402D01*
X400050Y1187450D02*
Y1197610D01*
X410210D01*
Y1187450D01*
X400050D01*
X402082Y1189482D02*
Y1195578D01*
X408178D01*
Y1189482D01*
X402082D01*
X440690Y1187450D02*
Y1197610D01*
X450850D01*
Y1187450D01*
X440690D01*
X442722Y1189482D02*
Y1195578D01*
X448818D01*
Y1189482D01*
X442722D01*
X450850Y1187450D02*
Y1197610D01*
X461010D01*
Y1187450D01*
X450850D01*
X452882Y1189482D02*
Y1195578D01*
X458978D01*
Y1189482D01*
X452882D01*
X446620Y1159510D02*
Y1169670D01*
X456780D01*
Y1159510D01*
X446620D01*
X448652Y1161542D02*
Y1167638D01*
X454748D01*
Y1161542D01*
X448652D01*
X523240Y1117600D02*
Y1127760D01*
X533400D01*
Y1117600D01*
X523240D01*
X525272Y1119632D02*
Y1125728D01*
X531368D01*
Y1119632D01*
X525272D01*
X513080Y1065530D02*
Y1075690D01*
X523240D01*
Y1065530D01*
X513080D01*
X515112Y1067562D02*
Y1073658D01*
X521208D01*
Y1067562D01*
X515112D01*
X486410Y1057910D02*
Y1068070D01*
X496570D01*
Y1057910D01*
X486410D01*
X488442Y1059942D02*
Y1066038D01*
X494538D01*
Y1059942D01*
X488442D01*
X543560Y1076960D02*
X546100D01*
X548640Y1079500D01*
X551180Y1076960D01*
X553720D01*
Y1079500D01*
X551180Y1082040D01*
X553720Y1084580D01*
Y1087120D01*
X551180D01*
X548640Y1084580D01*
X546100Y1087120D01*
X543560D01*
Y1084580D01*
X546100Y1082040D01*
X543560Y1079500D01*
Y1076960D01*
X379730Y1132840D02*
Y1143000D01*
X389890D01*
Y1132840D01*
X379730D01*
X381762Y1134872D02*
Y1140968D01*
X387858D01*
Y1134872D01*
X381762D01*
X369570Y1131570D02*
Y1141730D01*
X379730D01*
Y1131570D01*
X369570D01*
X371602Y1133602D02*
Y1139698D01*
X377698D01*
Y1133602D01*
X371602D01*
X389890Y1060450D02*
Y1070610D01*
X400050D01*
Y1060450D01*
X389890D01*
X391922Y1062482D02*
Y1068578D01*
X398018D01*
Y1062482D01*
X391922D01*
X474690Y1164300D02*
Y1174460D01*
X484850D01*
Y1164300D01*
X474690D01*
X476722Y1166332D02*
Y1172428D01*
X482818D01*
Y1166332D01*
X476722D01*
X507542Y1137168D02*
Y1147328D01*
X517702D01*
Y1137168D01*
X507542D01*
X509574Y1139200D02*
Y1145296D01*
X515670D01*
Y1139200D01*
X509574D01*
X505510Y1178610D02*
Y1188770D01*
X515670D01*
Y1178610D01*
X505510D01*
X507542Y1180642D02*
Y1186738D01*
X513638D01*
Y1180642D01*
X507542D01*
X505650Y1087349D02*
Y1097509D01*
X515810D01*
Y1087349D01*
X505650D01*
X507682Y1089381D02*
Y1095477D01*
X513778D01*
Y1089381D01*
X507682D01*
X321310Y1150620D02*
Y1160780D01*
X331470D01*
Y1150620D01*
X321310D01*
X323342Y1152652D02*
Y1158748D01*
X329438D01*
Y1152652D01*
X323342D01*
X238760Y1155700D02*
Y1165860D01*
X248920D01*
Y1155700D01*
X238760D01*
X240792Y1157732D02*
Y1163828D01*
X246888D01*
Y1157732D01*
X240792D01*
X296920Y1214120D02*
Y1224280D01*
X307080D01*
Y1214120D01*
X296920D01*
X298952Y1216152D02*
Y1222248D01*
X305048D01*
Y1216152D01*
X298952D01*
X282423Y1210963D02*
Y1221123D01*
X292584D01*
Y1210963D01*
X282423D01*
X284456Y1212995D02*
Y1219091D01*
X290551D01*
Y1212995D01*
X284456D01*
X304820Y1211240D02*
Y1221400D01*
X314980D01*
Y1211240D01*
X304820D01*
X306852Y1213272D02*
Y1219368D01*
X312948D01*
Y1213272D01*
X306852D01*
X288509Y1217740D02*
Y1227900D01*
X298669D01*
Y1217740D01*
X288509D01*
X290541Y1219772D02*
Y1225868D01*
X296637D01*
Y1219772D01*
X290541D01*
X367394Y1106050D02*
Y1116210D01*
X377554D01*
Y1106050D01*
X367394D01*
X369426Y1108082D02*
Y1114178D01*
X375522D01*
Y1108082D01*
X369426D01*
X330650Y1065530D02*
Y1075690D01*
X340810D01*
Y1065530D01*
X330650D01*
X332682Y1067562D02*
Y1073658D01*
X338778D01*
Y1067562D01*
X332682D01*
X334388Y1048948D02*
Y1059108D01*
X344548D01*
Y1048948D01*
X334388D01*
X336419Y1050980D02*
Y1057076D01*
X342515D01*
Y1050980D01*
X336419D01*
X374521Y1089021D02*
Y1099181D01*
X384681D01*
Y1089021D01*
X374521D01*
X376553Y1091053D02*
Y1097149D01*
X382649D01*
Y1091053D01*
X376553D01*
X379730Y1070610D02*
Y1080770D01*
X389890D01*
Y1070610D01*
X379730D01*
X381762Y1072642D02*
Y1078738D01*
X387858D01*
Y1072642D01*
X381762D01*
X722630Y1005840D02*
Y1016000D01*
X732790D01*
Y1005840D01*
X722630D01*
X724662Y1007872D02*
Y1013968D01*
X730758D01*
Y1007872D01*
X724662D01*
X742950Y1005840D02*
Y1016000D01*
X753110D01*
Y1005840D01*
X742950D01*
X744982Y1007872D02*
Y1013968D01*
X751078D01*
Y1007872D01*
X744982D01*
X732790Y1005840D02*
Y1016000D01*
X742950D01*
Y1005840D01*
X732790D01*
X734822Y1007872D02*
Y1013968D01*
X740918D01*
Y1007872D01*
X734822D01*
X457200Y1045210D02*
Y1055370D01*
X467360D01*
Y1045210D01*
X457200D01*
X459232Y1047242D02*
Y1053338D01*
X465328D01*
Y1047242D01*
X459232D01*
X407670Y1045210D02*
Y1055370D01*
X417830D01*
Y1045210D01*
X407670D01*
X409702Y1047242D02*
Y1053338D01*
X415798D01*
Y1047242D01*
X409702D01*
X445875Y1046480D02*
Y1056640D01*
X456035D01*
Y1046480D01*
X445875D01*
X447907Y1048512D02*
Y1054608D01*
X454003D01*
Y1048512D01*
X447907D01*
X426720Y1229360D02*
Y1239520D01*
X436880D01*
Y1229360D01*
X426720D01*
X428752Y1231392D02*
Y1237488D01*
X434848D01*
Y1231392D01*
X428752D01*
X436880Y1229360D02*
Y1239520D01*
X447040D01*
Y1229360D01*
X436880D01*
X438912Y1231392D02*
Y1237488D01*
X445008D01*
Y1231392D01*
X438912D01*
X447040Y1229360D02*
Y1239520D01*
X457200D01*
Y1229360D01*
X447040D01*
X449072Y1231392D02*
Y1237488D01*
X455168D01*
Y1231392D01*
X449072D01*
X256540Y1187450D02*
Y1197610D01*
X266700D01*
Y1187450D01*
X256540D01*
X258572Y1189482D02*
Y1195578D01*
X264668D01*
Y1189482D01*
X258572D01*
X543560Y1125220D02*
X546100D01*
X548640Y1127760D01*
X551180Y1125220D01*
X553720D01*
Y1127760D01*
X551180Y1130300D01*
X553720Y1132840D01*
Y1135380D01*
X551180D01*
X548640Y1132840D01*
X546100Y1135380D01*
X543560D01*
Y1132840D01*
X546100Y1130300D01*
X543560Y1127760D01*
Y1125220D01*
X292515Y1110768D02*
X295055D01*
X297595Y1113308D01*
X300135Y1110768D01*
X302675D01*
Y1113308D01*
X300135Y1115848D01*
X302675Y1118388D01*
Y1120928D01*
X300135D01*
X297595Y1118388D01*
X295055Y1120928D01*
X292515D01*
Y1118388D01*
X295055Y1115848D01*
X292515Y1113308D01*
Y1110768D01*
X296530Y1071532D02*
X299070D01*
X301610Y1074072D01*
X304150Y1071532D01*
X306690D01*
Y1074072D01*
X304150Y1076612D01*
X306690Y1079152D01*
Y1081692D01*
X304150D01*
X301610Y1079152D01*
X299070Y1081692D01*
X296530D01*
Y1079152D01*
X299070Y1076612D01*
X296530Y1074072D01*
Y1071532D01*
X417830Y1049020D02*
Y1059180D01*
X427990D01*
Y1049020D01*
X417830D01*
X419862Y1051052D02*
Y1057148D01*
X425958D01*
Y1051052D01*
X419862D01*
X505650Y1100180D02*
Y1110340D01*
X515810D01*
Y1100180D01*
X505650D01*
X507682Y1102212D02*
Y1108308D01*
X513778D01*
Y1102212D01*
X507682D01*
X614680Y1079500D02*
Y1089660D01*
X624840D01*
Y1079500D01*
X614680D01*
X616712Y1081532D02*
Y1087628D01*
X622808D01*
Y1081532D01*
X616712D01*
X624840Y1079500D02*
Y1089660D01*
X635000D01*
Y1079500D01*
X624840D01*
X626872Y1081532D02*
Y1087628D01*
X632968D01*
Y1081532D01*
X626872D01*
X604520Y1079500D02*
Y1089660D01*
X614680D01*
Y1079500D01*
X604520D01*
X606552Y1081532D02*
Y1087628D01*
X612648D01*
Y1081532D01*
X606552D01*
X722630Y1079500D02*
Y1089660D01*
X732790D01*
Y1079500D01*
X722630D01*
X724662Y1081532D02*
Y1087628D01*
X730758D01*
Y1081532D01*
X724662D01*
X732790Y1079500D02*
Y1089660D01*
X742950D01*
Y1079500D01*
X732790D01*
X734822Y1081532D02*
Y1087628D01*
X740918D01*
Y1081532D01*
X734822D01*
X444574Y1117630D02*
Y1127790D01*
X454734D01*
Y1117630D01*
X444574D01*
X446606Y1119662D02*
Y1125758D01*
X452702D01*
Y1119662D01*
X446606D01*
X430530Y1117630D02*
Y1127790D01*
X440690D01*
Y1117630D01*
X430530D01*
X432562Y1119662D02*
Y1125758D01*
X438658D01*
Y1119662D01*
X432562D01*
X458530Y1117630D02*
Y1127790D01*
X468690D01*
Y1117630D01*
X458530D01*
X460562Y1119662D02*
Y1125758D01*
X466658D01*
Y1119662D01*
X460562D01*
X458530Y1103630D02*
Y1113790D01*
X468690D01*
Y1103630D01*
X458530D01*
X460562Y1105662D02*
Y1111758D01*
X466658D01*
Y1105662D01*
X460562D01*
X430530Y1103630D02*
Y1113790D01*
X440690D01*
Y1103630D01*
X430530D01*
X432562Y1105662D02*
Y1111758D01*
X438658D01*
Y1105662D01*
X432562D01*
X444530Y1103630D02*
Y1113790D01*
X454690D01*
Y1103630D01*
X444530D01*
X446562Y1105662D02*
Y1111758D01*
X452658D01*
Y1105662D01*
X446562D01*
X430530Y1089630D02*
Y1099790D01*
X440690D01*
Y1089630D01*
X430530D01*
X432562Y1091662D02*
Y1097758D01*
X438658D01*
Y1091662D01*
X432562D01*
X444530Y1089630D02*
Y1099790D01*
X454690D01*
Y1089630D01*
X444530D01*
X446562Y1091662D02*
Y1097758D01*
X452658D01*
Y1091662D01*
X446562D01*
X458530Y1089630D02*
Y1099790D01*
X468690D01*
Y1089630D01*
X458530D01*
X460562Y1091662D02*
Y1097758D01*
X466658D01*
Y1091662D01*
X460562D01*
X742950Y1079500D02*
Y1089660D01*
X753110D01*
Y1079500D01*
X742950D01*
X744982Y1081532D02*
Y1087628D01*
X751078D01*
Y1081532D01*
X744982D01*
X279400Y1005840D02*
Y1016000D01*
X289560D01*
Y1005840D01*
X279400D01*
X281432Y1007872D02*
Y1013968D01*
X287528D01*
Y1007872D01*
X281432D01*
X289560Y1005840D02*
Y1016000D01*
X299720D01*
Y1005840D01*
X289560D01*
X291592Y1007872D02*
Y1013968D01*
X297688D01*
Y1007872D01*
X291592D01*
X269240Y1005840D02*
Y1016000D01*
X279400D01*
Y1005840D01*
X269240D01*
X271272Y1007872D02*
Y1013968D01*
X277368D01*
Y1007872D01*
X271272D01*
X270109Y1167914D02*
Y1178074D01*
X280269D01*
Y1167914D01*
X270109D01*
X272141Y1169946D02*
Y1176042D01*
X278237D01*
Y1169946D01*
X272141D01*
X234950Y1111250D02*
X237490D01*
X240030Y1113790D01*
X242570Y1111250D01*
X245110D01*
Y1113790D01*
X242570Y1116330D01*
X245110Y1118870D01*
Y1121410D01*
X242570D01*
X240030Y1118870D01*
X237490Y1121410D01*
X234950D01*
Y1118870D01*
X237490Y1116330D01*
X234950Y1113790D01*
Y1111250D01*
X251460Y1064260D02*
X256540Y1069340D01*
X261620Y1064260D01*
X256540Y1059180D01*
X251460Y1064260D01*
X317500Y1172210D02*
Y1182370D01*
X327660D01*
Y1172210D01*
X317500D01*
X319532Y1174242D02*
Y1180338D01*
X325628D01*
Y1174242D01*
X319532D01*
X624840Y1005840D02*
Y1016000D01*
X635000D01*
Y1005840D01*
X624840D01*
X626872Y1007872D02*
Y1013968D01*
X632968D01*
Y1007872D01*
X626872D01*
X614680Y1005840D02*
Y1016000D01*
X624840D01*
Y1005840D01*
X614680D01*
X616712Y1007872D02*
Y1013968D01*
X622808D01*
Y1007872D01*
X616712D01*
X604520Y1005840D02*
Y1016000D01*
X614680D01*
Y1005840D01*
X604520D01*
X606552Y1007872D02*
Y1013968D01*
X612648D01*
Y1007872D01*
X606552D01*
X326256Y1179964D02*
Y1190124D01*
X336416D01*
Y1179964D01*
X326256D01*
X328288Y1181996D02*
Y1188092D01*
X334384D01*
Y1181996D01*
X328288D01*
D72*
X229870Y1017270D02*
G03*
X229870Y1017270I-5080J0D01*
G01*
X347480Y1211189D02*
G03*
X347480Y1211189I-5080J0D01*
G01*
X261080D02*
G03*
X261080Y1211189I-5080J0D01*
G01*
X969010Y1243330D02*
G03*
X969010Y1243330I-5080J0D01*
G01*
Y1017270D02*
G03*
X969010Y1017270I-5080J0D01*
G01*
X229870Y1243330D02*
G03*
X229870Y1243330I-5080J0D01*
G01*
D73*
X227838Y1017270D02*
G03*
X227838Y1017270I-3048J0D01*
G01*
X966978Y1243330D02*
G03*
X966978Y1243330I-3048J0D01*
G01*
Y1017270D02*
G03*
X966978Y1017270I-3048J0D01*
G01*
X227838Y1243330D02*
G03*
X227838Y1243330I-3048J0D01*
G01*
M02*
