%TF.GenerationSoftware,KiCad,Pcbnew,8.0.4*%
%TF.CreationDate,2025-09-04T18:09:28-05:00*%
%TF.ProjectId,numlocked_left_plate,6e756d6c-6f63-46b6-9564-5f6c6566745f,rev?*%
%TF.SameCoordinates,Original*%
%TF.FileFunction,Copper,L1,Top*%
%TF.FilePolarity,Positive*%
%FSLAX46Y46*%
G04 Gerber Fmt 4.6, Leading zero omitted, Abs format (unit mm)*
G04 Created by KiCad (PCBNEW 8.0.4) date 2025-09-04 18:09:28*
%MOMM*%
%LPD*%
G01*
G04 APERTURE LIST*
%TA.AperFunction,ComponentPad*%
%ADD10C,3.800000*%
%TD*%
G04 APERTURE END LIST*
D10*
%TO.P,H2,1,1*%
%TO.N,GND*%
X34407000Y-150512500D03*
%TD*%
%TO.P,H4,1,1*%
%TO.N,GND*%
X151851000Y-71129500D03*
%TD*%
%TO.P,H6,1,1*%
%TO.N,GND*%
X104200000Y-109169500D03*
%TD*%
%TO.P,H5,1,1*%
%TO.N,GND*%
X56601000Y-128279500D03*
%TD*%
%TO.P,H3,1,1*%
%TO.N,GND*%
X146447000Y-25713000D03*
%TD*%
%TO.P,H7,1,1*%
%TO.N,GND*%
X243101500Y-150512500D03*
%TD*%
%TO.P,H1,1,1*%
%TO.N,GND*%
X34407000Y-28823000D03*
%TD*%
%TA.AperFunction,Conductor*%
%TO.N,GND*%
G36*
X160593539Y-20932185D02*
G01*
X160639294Y-20984989D01*
X160650500Y-21036500D01*
X160650500Y-47482391D01*
X160684608Y-47609687D01*
X160717554Y-47666750D01*
X160750500Y-47723814D01*
X160843686Y-47817000D01*
X160957814Y-47882892D01*
X161085108Y-47917000D01*
X170076000Y-47917000D01*
X170143039Y-47936685D01*
X170188794Y-47989489D01*
X170200000Y-48041000D01*
X170200000Y-71295391D01*
X170234108Y-71422687D01*
X170267054Y-71479750D01*
X170300000Y-71536814D01*
X170393186Y-71630000D01*
X170507314Y-71695892D01*
X170634608Y-71730000D01*
X179601000Y-71730000D01*
X179668039Y-71749685D01*
X179713794Y-71802489D01*
X179725000Y-71854000D01*
X179725000Y-90345391D01*
X179759108Y-90472687D01*
X179792054Y-90529750D01*
X179825000Y-90586814D01*
X179918186Y-90680000D01*
X180032314Y-90745892D01*
X180159608Y-90780000D01*
X184363500Y-90780000D01*
X184430539Y-90799685D01*
X184476294Y-90852489D01*
X184487500Y-90904000D01*
X184487500Y-109395391D01*
X184521608Y-109522687D01*
X184554554Y-109579750D01*
X184587500Y-109636814D01*
X184680686Y-109730000D01*
X184794814Y-109795892D01*
X184922108Y-109830000D01*
X193888750Y-109830000D01*
X193955789Y-109849685D01*
X194001544Y-109902489D01*
X194012750Y-109954000D01*
X194012750Y-128469391D01*
X194046858Y-128596687D01*
X194079804Y-128653750D01*
X194112750Y-128710814D01*
X194205936Y-128804000D01*
X194320064Y-128869892D01*
X194447358Y-128904000D01*
X246376000Y-128904000D01*
X246443039Y-128923685D01*
X246488794Y-128976489D01*
X246500000Y-129028000D01*
X246500000Y-153888000D01*
X246480315Y-153955039D01*
X246427511Y-154000794D01*
X246376000Y-154012000D01*
X226459858Y-154012000D01*
X226332562Y-154046108D01*
X226218436Y-154112000D01*
X226218433Y-154112002D01*
X226125252Y-154205183D01*
X226125250Y-154205186D01*
X226059358Y-154319312D01*
X226025250Y-154446608D01*
X226025250Y-156538000D01*
X226005565Y-156605039D01*
X225952761Y-156650794D01*
X225901250Y-156662000D01*
X172624250Y-156662000D01*
X172557211Y-156642315D01*
X172511456Y-156589511D01*
X172500250Y-156538000D01*
X172500250Y-154446610D01*
X172500250Y-154446608D01*
X172466142Y-154319314D01*
X172400250Y-154205186D01*
X172307064Y-154112000D01*
X172212536Y-154057424D01*
X172192937Y-154046108D01*
X172129289Y-154029054D01*
X172065642Y-154012000D01*
X130865642Y-154012000D01*
X130733858Y-154012000D01*
X130606562Y-154046108D01*
X130492436Y-154112000D01*
X130492433Y-154112002D01*
X130399252Y-154205183D01*
X130399250Y-154205186D01*
X130333358Y-154319312D01*
X130299250Y-154446608D01*
X130299250Y-156538000D01*
X130279565Y-156605039D01*
X130226761Y-156650794D01*
X130175250Y-156662000D01*
X51656250Y-156662000D01*
X51589211Y-156642315D01*
X51543456Y-156589511D01*
X51532250Y-156538000D01*
X51532250Y-154446610D01*
X51532250Y-154446608D01*
X51498142Y-154319314D01*
X51432250Y-154205186D01*
X51339064Y-154112000D01*
X51244536Y-154057424D01*
X51224937Y-154046108D01*
X51161289Y-154029054D01*
X51097642Y-154012000D01*
X51097641Y-154012000D01*
X32411427Y-154012000D01*
X32402581Y-154011684D01*
X32380621Y-154010113D01*
X32202441Y-153997369D01*
X32184930Y-153994851D01*
X31993212Y-153953146D01*
X31976236Y-153948162D01*
X31792390Y-153879590D01*
X31776298Y-153872240D01*
X31604095Y-153778211D01*
X31589210Y-153768646D01*
X31432132Y-153651058D01*
X31418762Y-153639472D01*
X31280027Y-153500737D01*
X31268441Y-153487367D01*
X31150849Y-153330284D01*
X31141288Y-153315404D01*
X31047259Y-153143201D01*
X31039909Y-153127109D01*
X30971334Y-152943255D01*
X30966355Y-152926296D01*
X30924647Y-152734563D01*
X30922130Y-152717057D01*
X30909673Y-152542890D01*
X30907816Y-152516919D01*
X30907500Y-152508073D01*
X30907500Y-150512494D01*
X32002255Y-150512494D01*
X32002255Y-150512505D01*
X32021215Y-150813883D01*
X32021216Y-150813890D01*
X32077805Y-151110540D01*
X32171125Y-151397747D01*
X32171127Y-151397752D01*
X32299704Y-151670991D01*
X32299707Y-151670997D01*
X32461516Y-151925969D01*
X32542311Y-152023633D01*
X33470708Y-151095236D01*
X33567967Y-151229102D01*
X33690398Y-151351533D01*
X33824262Y-151448790D01*
X32893564Y-152379487D01*
X32893565Y-152379489D01*
X33118461Y-152542885D01*
X33118479Y-152542897D01*
X33383109Y-152688378D01*
X33383117Y-152688382D01*
X33663889Y-152799547D01*
X33663892Y-152799548D01*
X33956399Y-152874650D01*
X34255995Y-152912499D01*
X34256007Y-152912500D01*
X34557993Y-152912500D01*
X34558004Y-152912499D01*
X34857600Y-152874650D01*
X35150107Y-152799548D01*
X35150110Y-152799547D01*
X35430882Y-152688382D01*
X35430890Y-152688378D01*
X35695520Y-152542897D01*
X35695530Y-152542890D01*
X35920433Y-152379487D01*
X35920434Y-152379487D01*
X34989737Y-151448790D01*
X35123602Y-151351533D01*
X35246033Y-151229102D01*
X35343290Y-151095237D01*
X36271687Y-152023634D01*
X36352486Y-151925964D01*
X36514292Y-151670997D01*
X36514295Y-151670991D01*
X36642872Y-151397752D01*
X36642874Y-151397747D01*
X36736194Y-151110540D01*
X36792783Y-150813890D01*
X36792784Y-150813883D01*
X36811745Y-150512505D01*
X36811745Y-150512494D01*
X240696755Y-150512494D01*
X240696755Y-150512505D01*
X240715715Y-150813883D01*
X240715716Y-150813890D01*
X240772305Y-151110540D01*
X240865625Y-151397747D01*
X240865627Y-151397752D01*
X240994204Y-151670991D01*
X240994207Y-151670997D01*
X241156016Y-151925969D01*
X241236811Y-152023633D01*
X242165208Y-151095236D01*
X242262467Y-151229102D01*
X242384898Y-151351533D01*
X242518762Y-151448790D01*
X241588064Y-152379487D01*
X241588065Y-152379489D01*
X241812961Y-152542885D01*
X241812979Y-152542897D01*
X242077609Y-152688378D01*
X242077617Y-152688382D01*
X242358389Y-152799547D01*
X242358392Y-152799548D01*
X242650899Y-152874650D01*
X242950495Y-152912499D01*
X242950507Y-152912500D01*
X243252493Y-152912500D01*
X243252504Y-152912499D01*
X243552100Y-152874650D01*
X243844607Y-152799548D01*
X243844610Y-152799547D01*
X244125382Y-152688382D01*
X244125390Y-152688378D01*
X244390020Y-152542897D01*
X244390030Y-152542890D01*
X244614933Y-152379487D01*
X244614934Y-152379487D01*
X243684237Y-151448790D01*
X243818102Y-151351533D01*
X243940533Y-151229102D01*
X244037790Y-151095237D01*
X244966187Y-152023634D01*
X245046986Y-151925964D01*
X245208792Y-151670997D01*
X245208795Y-151670991D01*
X245337372Y-151397752D01*
X245337374Y-151397747D01*
X245430694Y-151110540D01*
X245487283Y-150813890D01*
X245487284Y-150813883D01*
X245506245Y-150512505D01*
X245506245Y-150512494D01*
X245487284Y-150211116D01*
X245487283Y-150211109D01*
X245430694Y-149914459D01*
X245337374Y-149627252D01*
X245337372Y-149627247D01*
X245208795Y-149354008D01*
X245208792Y-149354002D01*
X245046983Y-149099030D01*
X244966186Y-149001364D01*
X244037789Y-149929761D01*
X243940533Y-149795898D01*
X243818102Y-149673467D01*
X243684236Y-149576209D01*
X244614934Y-148645511D01*
X244614933Y-148645509D01*
X244390038Y-148482114D01*
X244390020Y-148482102D01*
X244125390Y-148336621D01*
X244125382Y-148336617D01*
X243844610Y-148225452D01*
X243844607Y-148225451D01*
X243552100Y-148150349D01*
X243252504Y-148112500D01*
X242950495Y-148112500D01*
X242650899Y-148150349D01*
X242358392Y-148225451D01*
X242358389Y-148225452D01*
X242077617Y-148336617D01*
X242077609Y-148336621D01*
X241812976Y-148482104D01*
X241812971Y-148482107D01*
X241588065Y-148645510D01*
X241588064Y-148645511D01*
X242518762Y-149576209D01*
X242384898Y-149673467D01*
X242262467Y-149795898D01*
X242165209Y-149929762D01*
X241236811Y-149001364D01*
X241156020Y-149099025D01*
X241156018Y-149099028D01*
X240994207Y-149354002D01*
X240994204Y-149354008D01*
X240865627Y-149627247D01*
X240865625Y-149627252D01*
X240772305Y-149914459D01*
X240715716Y-150211109D01*
X240715715Y-150211116D01*
X240696755Y-150512494D01*
X36811745Y-150512494D01*
X36792784Y-150211116D01*
X36792783Y-150211109D01*
X36736194Y-149914459D01*
X36642874Y-149627252D01*
X36642872Y-149627247D01*
X36514295Y-149354008D01*
X36514292Y-149354002D01*
X36352483Y-149099030D01*
X36271686Y-149001364D01*
X35343289Y-149929761D01*
X35246033Y-149795898D01*
X35123602Y-149673467D01*
X34989736Y-149576209D01*
X35920434Y-148645511D01*
X35920433Y-148645509D01*
X35695538Y-148482114D01*
X35695520Y-148482102D01*
X35430890Y-148336621D01*
X35430882Y-148336617D01*
X35150110Y-148225452D01*
X35150107Y-148225451D01*
X34857600Y-148150349D01*
X34558004Y-148112500D01*
X34255995Y-148112500D01*
X33956399Y-148150349D01*
X33663892Y-148225451D01*
X33663889Y-148225452D01*
X33383117Y-148336617D01*
X33383109Y-148336621D01*
X33118476Y-148482104D01*
X33118471Y-148482107D01*
X32893565Y-148645510D01*
X32893564Y-148645511D01*
X33824262Y-149576209D01*
X33690398Y-149673467D01*
X33567967Y-149795898D01*
X33470709Y-149929762D01*
X32542311Y-149001364D01*
X32461520Y-149099025D01*
X32461518Y-149099028D01*
X32299707Y-149354002D01*
X32299704Y-149354008D01*
X32171127Y-149627247D01*
X32171125Y-149627252D01*
X32077805Y-149914459D01*
X32021216Y-150211109D01*
X32021215Y-150211116D01*
X32002255Y-150512494D01*
X30907500Y-150512494D01*
X30907500Y-131216965D01*
X34712500Y-131216965D01*
X34712500Y-144392034D01*
X34742898Y-144564437D01*
X34802775Y-144728946D01*
X34890309Y-144880557D01*
X35002836Y-145014663D01*
X35136942Y-145127190D01*
X35136943Y-145127191D01*
X35136945Y-145127192D01*
X35288555Y-145214725D01*
X35453062Y-145274601D01*
X35625468Y-145305000D01*
X35625472Y-145305000D01*
X48800528Y-145305000D01*
X48800532Y-145305000D01*
X48972938Y-145274601D01*
X49137445Y-145214725D01*
X49289055Y-145127192D01*
X49423163Y-145014663D01*
X49535692Y-144880555D01*
X49623225Y-144728945D01*
X49683101Y-144564438D01*
X49713500Y-144392032D01*
X49713500Y-144304500D01*
X49713500Y-144252614D01*
X60905365Y-144252614D01*
X60906238Y-144314135D01*
X60906250Y-144315894D01*
X60906250Y-144377407D01*
X60907279Y-144391656D01*
X60907461Y-144405243D01*
X60907462Y-144405248D01*
X60939737Y-144575710D01*
X60939738Y-144575714D01*
X60939739Y-144575717D01*
X60939750Y-144575746D01*
X61000865Y-144738081D01*
X61000867Y-144738085D01*
X61000869Y-144738090D01*
X61089027Y-144887523D01*
X61201583Y-145019558D01*
X61335179Y-145130255D01*
X61448565Y-145195025D01*
X61483076Y-145214739D01*
X61485832Y-145216313D01*
X61649045Y-145275164D01*
X61819950Y-145305053D01*
X61906700Y-145305000D01*
X61972592Y-145305013D01*
X61972593Y-145305012D01*
X61980508Y-145305014D01*
X61980739Y-145305000D01*
X74832692Y-145305000D01*
X74832814Y-145305007D01*
X74840905Y-145305006D01*
X74840908Y-145305007D01*
X74855381Y-145305005D01*
X74855550Y-145305054D01*
X74906800Y-145305049D01*
X74906800Y-145305050D01*
X74994331Y-145305042D01*
X75166731Y-145274627D01*
X75331232Y-145214740D01*
X75482834Y-145127198D01*
X75610690Y-145019903D01*
X75616925Y-145014671D01*
X75616927Y-145014668D01*
X75616934Y-145014663D01*
X75729456Y-144880552D01*
X75729457Y-144880549D01*
X75729460Y-144880546D01*
X75816979Y-144728946D01*
X75816978Y-144728946D01*
X75816982Y-144728941D01*
X75876853Y-144564434D01*
X75907251Y-144392031D01*
X75907250Y-144304500D01*
X75907250Y-144252614D01*
X84717865Y-144252614D01*
X84718738Y-144314135D01*
X84718750Y-144315894D01*
X84718750Y-144377410D01*
X84719780Y-144391665D01*
X84719962Y-144405252D01*
X84752247Y-144575742D01*
X84752248Y-144575746D01*
X84752249Y-144575749D01*
X84813370Y-144738081D01*
X84813395Y-144738145D01*
X84901569Y-144887583D01*
X84901577Y-144887594D01*
X85014152Y-145019626D01*
X85014155Y-145019629D01*
X85147774Y-145130321D01*
X85147778Y-145130323D01*
X85147780Y-145130325D01*
X85158898Y-145136674D01*
X85298462Y-145216374D01*
X85400114Y-145253009D01*
X85461707Y-145275207D01*
X85632639Y-145305069D01*
X85719332Y-145305000D01*
X85719401Y-145305000D01*
X85785292Y-145305000D01*
X98645192Y-145305000D01*
X98645314Y-145305007D01*
X98653405Y-145305006D01*
X98653408Y-145305007D01*
X98667881Y-145305005D01*
X98668050Y-145305054D01*
X98719300Y-145305049D01*
X98719300Y-145305050D01*
X98806831Y-145305042D01*
X98979231Y-145274627D01*
X99143732Y-145214740D01*
X99295334Y-145127198D01*
X99423190Y-145019903D01*
X99429425Y-145014671D01*
X99429427Y-145014668D01*
X99429434Y-145014663D01*
X99541956Y-144880552D01*
X99541957Y-144880549D01*
X99541960Y-144880546D01*
X99629479Y-144728946D01*
X99629478Y-144728946D01*
X99629482Y-144728941D01*
X99689353Y-144564434D01*
X99719751Y-144392031D01*
X99719750Y-144304500D01*
X99719750Y-144252614D01*
X108530365Y-144252614D01*
X108531238Y-144314135D01*
X108531250Y-144315894D01*
X108531250Y-144377410D01*
X108532280Y-144391665D01*
X108532462Y-144405252D01*
X108564747Y-144575742D01*
X108564748Y-144575746D01*
X108564749Y-144575749D01*
X108625870Y-144738081D01*
X108625895Y-144738145D01*
X108714069Y-144887583D01*
X108714077Y-144887594D01*
X108826652Y-145019626D01*
X108826655Y-145019629D01*
X108960274Y-145130321D01*
X108960278Y-145130323D01*
X108960280Y-145130325D01*
X108971398Y-145136674D01*
X109110962Y-145216374D01*
X109212614Y-145253009D01*
X109274207Y-145275207D01*
X109445139Y-145305069D01*
X109531832Y-145305000D01*
X109531901Y-145305000D01*
X109597792Y-145305000D01*
X122457692Y-145305000D01*
X122457814Y-145305007D01*
X122465905Y-145305006D01*
X122465908Y-145305007D01*
X122480381Y-145305005D01*
X122480550Y-145305054D01*
X122531800Y-145305049D01*
X122531800Y-145305050D01*
X122619331Y-145305042D01*
X122791731Y-145274627D01*
X122956232Y-145214740D01*
X123107834Y-145127198D01*
X123235690Y-145019903D01*
X123241925Y-145014671D01*
X123241927Y-145014668D01*
X123241934Y-145014663D01*
X123354456Y-144880552D01*
X123354457Y-144880549D01*
X123354460Y-144880546D01*
X123427944Y-144753258D01*
X133593700Y-144753258D01*
X133593700Y-144911817D01*
X133624244Y-145124264D01*
X133624247Y-145124274D01*
X133684717Y-145330215D01*
X133773872Y-145525438D01*
X133773879Y-145525451D01*
X133848453Y-145641491D01*
X133886742Y-145701070D01*
X133889920Y-145706014D01*
X134030475Y-145868224D01*
X134154477Y-145975672D01*
X134192687Y-146008781D01*
X134321731Y-146091711D01*
X134373248Y-146124820D01*
X134373261Y-146124827D01*
X134568484Y-146213982D01*
X134568488Y-146213983D01*
X134568490Y-146213984D01*
X134774431Y-146274454D01*
X134774432Y-146274454D01*
X134774435Y-146274455D01*
X134837784Y-146283562D01*
X134986882Y-146305000D01*
X134986883Y-146305000D01*
X139917998Y-146305000D01*
X139918365Y-146304976D01*
X139933256Y-146304976D01*
X139933263Y-146304976D01*
X140110139Y-146283908D01*
X140283282Y-146242069D01*
X140359766Y-146213658D01*
X140429462Y-146208768D01*
X140446123Y-146213660D01*
X140522638Y-146242086D01*
X140695772Y-146283930D01*
X140872641Y-146304999D01*
X140885806Y-146304999D01*
X140885818Y-146305000D01*
X140895808Y-146305000D01*
X140961700Y-146305000D01*
X141027592Y-146305000D01*
X145647991Y-146305000D01*
X145658783Y-146305653D01*
X145660712Y-146305633D01*
X145660714Y-146305634D01*
X145723503Y-146305005D01*
X145724743Y-146305000D01*
X145789674Y-146305000D01*
X145799995Y-146304274D01*
X145833245Y-146303957D01*
X145981618Y-146281246D01*
X146044070Y-146271687D01*
X146044072Y-146271686D01*
X146044082Y-146271685D01*
X146248237Y-146209921D01*
X146441606Y-146119908D01*
X146620303Y-146003453D01*
X146780735Y-145862899D01*
X146919678Y-145701070D01*
X147034340Y-145521218D01*
X147122416Y-145326959D01*
X147182135Y-145122196D01*
X147212298Y-144911047D01*
X147212250Y-144804400D01*
X147212250Y-144738508D01*
X147212250Y-144252614D01*
X147773365Y-144252614D01*
X147774238Y-144314135D01*
X147774250Y-144315894D01*
X147774250Y-144377410D01*
X147775280Y-144391665D01*
X147775462Y-144405252D01*
X147807747Y-144575742D01*
X147807748Y-144575746D01*
X147807749Y-144575749D01*
X147868870Y-144738081D01*
X147868895Y-144738145D01*
X147957069Y-144887583D01*
X147957077Y-144887594D01*
X148069652Y-145019626D01*
X148069655Y-145019629D01*
X148203274Y-145130321D01*
X148203278Y-145130323D01*
X148203280Y-145130325D01*
X148214398Y-145136674D01*
X148353962Y-145216374D01*
X148455614Y-145253009D01*
X148517207Y-145275207D01*
X148688139Y-145305069D01*
X148774832Y-145305000D01*
X148774901Y-145305000D01*
X148840792Y-145305000D01*
X161700692Y-145305000D01*
X161700814Y-145305007D01*
X161708905Y-145305006D01*
X161708908Y-145305007D01*
X161723381Y-145305005D01*
X161723550Y-145305054D01*
X161774800Y-145305049D01*
X161774800Y-145305050D01*
X161862331Y-145305042D01*
X162034731Y-145274627D01*
X162199232Y-145214740D01*
X162350834Y-145127198D01*
X162478690Y-145019903D01*
X162484925Y-145014671D01*
X162484927Y-145014668D01*
X162484934Y-145014663D01*
X162597456Y-144880552D01*
X162597457Y-144880549D01*
X162597460Y-144880546D01*
X162670944Y-144753258D01*
X163337200Y-144753258D01*
X163337200Y-144911817D01*
X163367744Y-145124264D01*
X163367747Y-145124274D01*
X163428217Y-145330215D01*
X163517372Y-145525438D01*
X163517379Y-145525451D01*
X163591953Y-145641491D01*
X163630242Y-145701070D01*
X163633420Y-145706014D01*
X163773975Y-145868224D01*
X163897977Y-145975672D01*
X163936187Y-146008781D01*
X164065231Y-146091711D01*
X164116748Y-146124820D01*
X164116761Y-146124827D01*
X164311984Y-146213982D01*
X164311988Y-146213983D01*
X164311990Y-146213984D01*
X164517931Y-146274454D01*
X164517932Y-146274454D01*
X164517935Y-146274455D01*
X164581284Y-146283562D01*
X164730382Y-146305000D01*
X164771808Y-146305000D01*
X169523991Y-146305000D01*
X169534783Y-146305653D01*
X169536712Y-146305633D01*
X169536714Y-146305634D01*
X169599503Y-146305005D01*
X169600743Y-146305000D01*
X169665674Y-146305000D01*
X169675995Y-146304274D01*
X169709245Y-146303957D01*
X169857618Y-146281246D01*
X169920070Y-146271687D01*
X169920072Y-146271686D01*
X169920082Y-146271685D01*
X170124237Y-146209921D01*
X170317606Y-146119908D01*
X170496303Y-146003453D01*
X170656735Y-145862899D01*
X170795678Y-145701070D01*
X170910340Y-145521218D01*
X170998416Y-145326959D01*
X171058135Y-145122196D01*
X171088298Y-144911047D01*
X171088250Y-144804400D01*
X171088250Y-144738508D01*
X171088250Y-144252614D01*
X179967865Y-144252614D01*
X179968738Y-144314135D01*
X179968750Y-144315894D01*
X179968750Y-144377407D01*
X179969779Y-144391656D01*
X179969961Y-144405243D01*
X179969962Y-144405248D01*
X180002237Y-144575710D01*
X180002238Y-144575714D01*
X180002239Y-144575717D01*
X180002250Y-144575746D01*
X180063365Y-144738081D01*
X180063367Y-144738085D01*
X180063369Y-144738090D01*
X180151527Y-144887523D01*
X180264083Y-145019558D01*
X180397679Y-145130255D01*
X180511065Y-145195025D01*
X180545576Y-145214739D01*
X180548332Y-145216313D01*
X180711545Y-145275164D01*
X180882450Y-145305053D01*
X180969200Y-145305000D01*
X181035092Y-145305013D01*
X181035093Y-145305012D01*
X181043008Y-145305014D01*
X181043239Y-145305000D01*
X198914528Y-145305000D01*
X198914532Y-145305000D01*
X199086938Y-145274601D01*
X199251445Y-145214725D01*
X199403055Y-145127192D01*
X199537163Y-145014663D01*
X199649692Y-144880555D01*
X199723188Y-144753258D01*
X208612700Y-144753258D01*
X208612700Y-144911817D01*
X208643244Y-145124264D01*
X208643247Y-145124274D01*
X208703717Y-145330215D01*
X208792872Y-145525438D01*
X208792879Y-145525451D01*
X208867453Y-145641491D01*
X208905742Y-145701070D01*
X208908920Y-145706014D01*
X209049475Y-145868224D01*
X209173477Y-145975672D01*
X209211687Y-146008781D01*
X209340731Y-146091711D01*
X209392248Y-146124820D01*
X209392261Y-146124827D01*
X209587484Y-146213982D01*
X209587488Y-146213983D01*
X209587490Y-146213984D01*
X209793431Y-146274454D01*
X209793432Y-146274454D01*
X209793435Y-146274455D01*
X209856784Y-146283562D01*
X210005882Y-146305000D01*
X210047308Y-146305000D01*
X214799491Y-146305000D01*
X214810283Y-146305653D01*
X214812212Y-146305633D01*
X214812214Y-146305634D01*
X214875003Y-146305005D01*
X214876243Y-146305000D01*
X214941174Y-146305000D01*
X214951495Y-146304274D01*
X214984745Y-146303957D01*
X215133118Y-146281246D01*
X215195570Y-146271687D01*
X215195572Y-146271686D01*
X215195582Y-146271685D01*
X215399737Y-146209921D01*
X215593106Y-146119908D01*
X215771803Y-146003453D01*
X215932235Y-145862899D01*
X216071178Y-145701070D01*
X216185840Y-145521218D01*
X216273916Y-145326959D01*
X216333635Y-145122196D01*
X216363798Y-144911047D01*
X216363750Y-144804400D01*
X216363750Y-144738508D01*
X216363750Y-144252614D01*
X216924865Y-144252614D01*
X216925738Y-144314135D01*
X216925750Y-144315894D01*
X216925750Y-144377410D01*
X216926780Y-144391665D01*
X216926962Y-144405252D01*
X216959247Y-144575742D01*
X216959248Y-144575746D01*
X216959249Y-144575749D01*
X217020370Y-144738081D01*
X217020395Y-144738145D01*
X217108569Y-144887583D01*
X217108577Y-144887594D01*
X217221152Y-145019626D01*
X217221155Y-145019629D01*
X217354774Y-145130321D01*
X217354778Y-145130323D01*
X217354780Y-145130325D01*
X217365898Y-145136674D01*
X217505462Y-145216374D01*
X217607114Y-145253009D01*
X217668707Y-145275207D01*
X217839639Y-145305069D01*
X217926332Y-145305000D01*
X217926401Y-145305000D01*
X217992292Y-145305000D01*
X230852192Y-145305000D01*
X230852314Y-145305007D01*
X230860405Y-145305006D01*
X230860408Y-145305007D01*
X230874881Y-145305005D01*
X230875050Y-145305054D01*
X230926300Y-145305049D01*
X230926300Y-145305050D01*
X231013831Y-145305042D01*
X231186231Y-145274627D01*
X231350732Y-145214740D01*
X231502334Y-145127198D01*
X231630190Y-145019903D01*
X231636425Y-145014671D01*
X231636427Y-145014668D01*
X231636434Y-145014663D01*
X231748956Y-144880552D01*
X231748957Y-144880549D01*
X231748960Y-144880546D01*
X231822444Y-144753258D01*
X232488700Y-144753258D01*
X232488700Y-144911817D01*
X232519244Y-145124264D01*
X232519247Y-145124274D01*
X232579717Y-145330215D01*
X232668872Y-145525438D01*
X232668879Y-145525451D01*
X232743453Y-145641491D01*
X232781742Y-145701070D01*
X232784920Y-145706014D01*
X232925475Y-145868224D01*
X233049477Y-145975672D01*
X233087687Y-146008781D01*
X233216731Y-146091711D01*
X233268248Y-146124820D01*
X233268261Y-146124827D01*
X233463484Y-146213982D01*
X233463488Y-146213983D01*
X233463490Y-146213984D01*
X233669431Y-146274454D01*
X233669432Y-146274454D01*
X233669435Y-146274455D01*
X233732784Y-146283562D01*
X233881882Y-146305000D01*
X233923308Y-146305000D01*
X235028358Y-146305000D01*
X238673358Y-146305000D01*
X239780491Y-146305000D01*
X239791283Y-146305653D01*
X239793212Y-146305633D01*
X239793214Y-146305634D01*
X239856003Y-146305005D01*
X239857243Y-146305000D01*
X239922174Y-146305000D01*
X239932495Y-146304274D01*
X239965745Y-146303957D01*
X240114118Y-146281246D01*
X240176570Y-146271687D01*
X240176572Y-146271686D01*
X240176582Y-146271685D01*
X240380737Y-146209921D01*
X240574106Y-146119908D01*
X240752803Y-146003453D01*
X240913235Y-145862899D01*
X241052178Y-145701070D01*
X241166840Y-145521218D01*
X241254916Y-145326959D01*
X241314635Y-145122196D01*
X241344798Y-144911047D01*
X241344750Y-144804400D01*
X241344750Y-144738508D01*
X241344750Y-132855912D01*
X241344800Y-132855741D01*
X241344800Y-132697183D01*
X241344800Y-132697182D01*
X241314555Y-132486823D01*
X241314255Y-132484735D01*
X241314252Y-132484725D01*
X241309904Y-132469915D01*
X241253784Y-132278790D01*
X241253783Y-132278788D01*
X241253782Y-132278784D01*
X241164627Y-132083561D01*
X241164620Y-132083548D01*
X241131511Y-132032031D01*
X241048581Y-131902987D01*
X241015472Y-131864777D01*
X240908024Y-131740775D01*
X240745814Y-131600220D01*
X240745813Y-131600219D01*
X240681291Y-131558753D01*
X240565251Y-131484179D01*
X240565238Y-131484172D01*
X240370015Y-131395017D01*
X240164074Y-131334547D01*
X240164064Y-131334544D01*
X239973054Y-131307082D01*
X239951618Y-131304000D01*
X239951617Y-131304000D01*
X234052905Y-131304000D01*
X234042013Y-131303341D01*
X233977412Y-131303994D01*
X233976159Y-131304000D01*
X233911297Y-131304000D01*
X233900858Y-131304734D01*
X233867616Y-131305054D01*
X233656791Y-131337343D01*
X233656785Y-131337345D01*
X233452657Y-131399119D01*
X233452650Y-131399122D01*
X233259306Y-131489141D01*
X233080627Y-131605599D01*
X232920210Y-131746156D01*
X232781285Y-131907979D01*
X232781282Y-131907982D01*
X232666639Y-132087820D01*
X232666636Y-132087826D01*
X232578571Y-132282075D01*
X232518860Y-132486823D01*
X232518859Y-132486825D01*
X232488701Y-132697959D01*
X232488701Y-132697963D01*
X232488750Y-132804450D01*
X232488750Y-144753088D01*
X232488700Y-144753258D01*
X231822444Y-144753258D01*
X231836479Y-144728946D01*
X231836478Y-144728946D01*
X231836482Y-144728941D01*
X231896353Y-144564434D01*
X231926751Y-144392031D01*
X231926750Y-144304500D01*
X231926750Y-144238608D01*
X231926750Y-131371103D01*
X231927592Y-131356679D01*
X231927643Y-131356239D01*
X231926763Y-131294820D01*
X231926750Y-131293043D01*
X231926750Y-131231584D01*
X231925706Y-131217183D01*
X231925524Y-131203620D01*
X231893228Y-131033169D01*
X231832087Y-130870817D01*
X231743923Y-130721406D01*
X231743870Y-130721344D01*
X231661106Y-130624272D01*
X231631367Y-130589392D01*
X231603793Y-130566547D01*
X231497778Y-130478715D01*
X231497769Y-130478709D01*
X231347135Y-130392671D01*
X231347126Y-130392667D01*
X231183932Y-130333830D01*
X231013052Y-130303947D01*
X231013044Y-130303946D01*
X231013042Y-130303946D01*
X231013039Y-130303946D01*
X230926322Y-130303999D01*
X230926223Y-130303999D01*
X230852491Y-130303985D01*
X230852261Y-130304000D01*
X218000308Y-130304000D01*
X218000185Y-130303992D01*
X217977614Y-130303994D01*
X217977447Y-130303945D01*
X217838672Y-130303957D01*
X217838665Y-130303958D01*
X217666275Y-130334371D01*
X217666269Y-130334372D01*
X217501767Y-130394260D01*
X217350165Y-130481801D01*
X217216074Y-130594328D01*
X217216061Y-130594341D01*
X217103545Y-130728445D01*
X217103539Y-130728453D01*
X217016020Y-130880053D01*
X216956146Y-131044568D01*
X216925749Y-131216965D01*
X216925749Y-131216972D01*
X216925750Y-131270853D01*
X216925750Y-144237826D01*
X216924906Y-144252267D01*
X216924865Y-144252614D01*
X216363750Y-144252614D01*
X216363750Y-132855912D01*
X216363800Y-132855741D01*
X216363800Y-132697183D01*
X216363800Y-132697182D01*
X216333555Y-132486823D01*
X216333255Y-132484735D01*
X216333252Y-132484725D01*
X216328904Y-132469915D01*
X216272784Y-132278790D01*
X216272783Y-132278788D01*
X216272782Y-132278784D01*
X216183627Y-132083561D01*
X216183620Y-132083548D01*
X216150511Y-132032031D01*
X216067581Y-131902987D01*
X216034472Y-131864777D01*
X215927024Y-131740775D01*
X215764814Y-131600220D01*
X215764813Y-131600219D01*
X215700291Y-131558753D01*
X215584251Y-131484179D01*
X215584238Y-131484172D01*
X215389015Y-131395017D01*
X215183074Y-131334547D01*
X215183064Y-131334544D01*
X214992054Y-131307082D01*
X214970618Y-131304000D01*
X214970617Y-131304000D01*
X210176905Y-131304000D01*
X210166013Y-131303341D01*
X210101412Y-131303994D01*
X210100159Y-131304000D01*
X210035297Y-131304000D01*
X210024858Y-131304734D01*
X209991616Y-131305054D01*
X209780791Y-131337343D01*
X209780785Y-131337345D01*
X209576657Y-131399119D01*
X209576650Y-131399122D01*
X209383306Y-131489141D01*
X209204627Y-131605599D01*
X209044210Y-131746156D01*
X208905285Y-131907979D01*
X208905282Y-131907982D01*
X208790639Y-132087820D01*
X208790636Y-132087826D01*
X208702571Y-132282075D01*
X208642860Y-132486823D01*
X208642859Y-132486825D01*
X208612701Y-132697959D01*
X208612701Y-132697963D01*
X208612750Y-132804450D01*
X208612750Y-144753088D01*
X208612700Y-144753258D01*
X199723188Y-144753258D01*
X199737225Y-144728945D01*
X199797101Y-144564438D01*
X199827500Y-144392032D01*
X199827500Y-144304500D01*
X199827500Y-144238608D01*
X199827500Y-131238608D01*
X199827500Y-131216968D01*
X199797101Y-131044562D01*
X199737225Y-130880055D01*
X199731891Y-130870817D01*
X199705181Y-130824554D01*
X199649692Y-130728445D01*
X199649691Y-130728443D01*
X199649690Y-130728442D01*
X199537163Y-130594336D01*
X199403057Y-130481809D01*
X199251446Y-130394275D01*
X199086937Y-130334398D01*
X198914534Y-130304000D01*
X198914532Y-130304000D01*
X198892892Y-130304000D01*
X194035142Y-130304000D01*
X185892892Y-130304000D01*
X181043308Y-130304000D01*
X181043185Y-130303992D01*
X181020614Y-130303994D01*
X181020447Y-130303945D01*
X180881672Y-130303957D01*
X180881665Y-130303958D01*
X180709275Y-130334371D01*
X180709269Y-130334372D01*
X180544767Y-130394260D01*
X180393165Y-130481801D01*
X180259074Y-130594328D01*
X180259061Y-130594341D01*
X180146545Y-130728445D01*
X180146539Y-130728453D01*
X180059020Y-130880053D01*
X179999146Y-131044568D01*
X179968749Y-131216965D01*
X179968749Y-131216972D01*
X179968750Y-131270853D01*
X179968750Y-144237826D01*
X179967906Y-144252267D01*
X179967865Y-144252614D01*
X171088250Y-144252614D01*
X171088250Y-132855912D01*
X171088300Y-132855741D01*
X171088300Y-132697183D01*
X171088300Y-132697182D01*
X171058055Y-132486823D01*
X171057755Y-132484735D01*
X171057752Y-132484725D01*
X171053404Y-132469915D01*
X170997284Y-132278790D01*
X170997283Y-132278788D01*
X170997282Y-132278784D01*
X170908127Y-132083561D01*
X170908120Y-132083548D01*
X170875011Y-132032031D01*
X170792081Y-131902987D01*
X170758972Y-131864777D01*
X170651524Y-131740775D01*
X170489314Y-131600220D01*
X170489313Y-131600219D01*
X170424791Y-131558753D01*
X170308751Y-131484179D01*
X170308738Y-131484172D01*
X170113515Y-131395017D01*
X169907574Y-131334547D01*
X169907564Y-131334544D01*
X169716554Y-131307082D01*
X169695118Y-131304000D01*
X169695117Y-131304000D01*
X164901405Y-131304000D01*
X164890513Y-131303341D01*
X164825912Y-131303994D01*
X164824659Y-131304000D01*
X164759792Y-131304000D01*
X164749364Y-131304733D01*
X164716125Y-131305053D01*
X164716121Y-131305053D01*
X164505312Y-131337339D01*
X164301190Y-131399106D01*
X164301187Y-131399107D01*
X164107847Y-131489117D01*
X164015542Y-131549275D01*
X163929175Y-131605564D01*
X163827377Y-131694750D01*
X163768761Y-131746105D01*
X163629840Y-131907906D01*
X163629838Y-131907908D01*
X163629838Y-131907909D01*
X163629792Y-131907982D01*
X163515185Y-132087736D01*
X163427114Y-132281958D01*
X163427107Y-132281977D01*
X163367387Y-132486698D01*
X163367386Y-132486701D01*
X163337211Y-132697813D01*
X163337210Y-132697820D01*
X163337250Y-132804449D01*
X163337250Y-132804508D01*
X163337242Y-132878436D01*
X163337250Y-132878557D01*
X163337250Y-144753088D01*
X163337200Y-144753258D01*
X162670944Y-144753258D01*
X162684979Y-144728946D01*
X162684978Y-144728946D01*
X162684982Y-144728941D01*
X162744853Y-144564434D01*
X162775251Y-144392031D01*
X162775250Y-144304500D01*
X162775250Y-144238608D01*
X162775250Y-131371103D01*
X162776092Y-131356679D01*
X162776143Y-131356239D01*
X162775263Y-131294820D01*
X162775250Y-131293043D01*
X162775250Y-131231588D01*
X162774206Y-131217175D01*
X162774206Y-131217170D01*
X162774023Y-131203609D01*
X162741719Y-131033137D01*
X162680563Y-130870767D01*
X162592378Y-130721342D01*
X162479795Y-130589322D01*
X162452299Y-130566547D01*
X162346176Y-130478644D01*
X162305429Y-130455378D01*
X162195501Y-130392610D01*
X162032270Y-130333787D01*
X162032265Y-130333786D01*
X161861364Y-130303931D01*
X161861354Y-130303930D01*
X161861353Y-130303930D01*
X161861351Y-130303930D01*
X161774600Y-130304000D01*
X148848808Y-130304000D01*
X148848685Y-130303992D01*
X148826114Y-130303994D01*
X148825947Y-130303945D01*
X148687172Y-130303957D01*
X148687165Y-130303958D01*
X148514775Y-130334371D01*
X148514769Y-130334372D01*
X148350267Y-130394260D01*
X148198665Y-130481801D01*
X148064574Y-130594328D01*
X148064561Y-130594341D01*
X147952045Y-130728445D01*
X147952039Y-130728453D01*
X147864520Y-130880053D01*
X147804646Y-131044568D01*
X147774249Y-131216965D01*
X147774249Y-131216972D01*
X147774250Y-131270853D01*
X147774250Y-144237826D01*
X147773406Y-144252267D01*
X147773365Y-144252614D01*
X147212250Y-144252614D01*
X147212250Y-132855912D01*
X147212300Y-132855741D01*
X147212300Y-132697183D01*
X147212300Y-132697182D01*
X147182055Y-132486823D01*
X147181755Y-132484735D01*
X147181752Y-132484725D01*
X147177404Y-132469915D01*
X147121284Y-132278790D01*
X147121283Y-132278788D01*
X147121282Y-132278784D01*
X147032127Y-132083561D01*
X147032120Y-132083548D01*
X146999011Y-132032031D01*
X146916081Y-131902987D01*
X146882972Y-131864777D01*
X146775524Y-131740775D01*
X146613314Y-131600220D01*
X146613313Y-131600219D01*
X146548791Y-131558753D01*
X146432751Y-131484179D01*
X146432738Y-131484172D01*
X146237515Y-131395017D01*
X146031574Y-131334547D01*
X146031564Y-131334544D01*
X145840554Y-131307082D01*
X145819118Y-131304000D01*
X145777692Y-131304000D01*
X141027692Y-131304000D01*
X140895908Y-131304000D01*
X140888002Y-131304000D01*
X140887635Y-131304024D01*
X140872737Y-131304024D01*
X140787667Y-131314156D01*
X140695864Y-131325091D01*
X140522720Y-131366930D01*
X140511486Y-131371103D01*
X140446231Y-131395341D01*
X140376534Y-131400230D01*
X140359876Y-131395338D01*
X140283373Y-131366917D01*
X140283365Y-131366915D01*
X140283362Y-131366914D01*
X140215961Y-131350624D01*
X140110227Y-131325069D01*
X140004703Y-131312499D01*
X139933359Y-131304001D01*
X139933353Y-131304000D01*
X139933350Y-131304000D01*
X139910194Y-131304000D01*
X139910192Y-131304000D01*
X135157905Y-131304000D01*
X135147013Y-131303341D01*
X135082412Y-131303994D01*
X135081159Y-131304000D01*
X135016297Y-131304000D01*
X135005858Y-131304734D01*
X134972616Y-131305054D01*
X134761791Y-131337343D01*
X134761785Y-131337345D01*
X134557657Y-131399119D01*
X134557650Y-131399122D01*
X134364306Y-131489141D01*
X134185627Y-131605599D01*
X134025210Y-131746156D01*
X133886285Y-131907979D01*
X133886282Y-131907982D01*
X133771639Y-132087820D01*
X133771636Y-132087826D01*
X133683571Y-132282075D01*
X133623860Y-132486823D01*
X133623859Y-132486825D01*
X133593701Y-132697959D01*
X133593701Y-132697963D01*
X133593750Y-132804450D01*
X133593750Y-144753088D01*
X133593700Y-144753258D01*
X123427944Y-144753258D01*
X123441979Y-144728946D01*
X123441978Y-144728946D01*
X123441982Y-144728941D01*
X123501853Y-144564434D01*
X123532251Y-144392031D01*
X123532250Y-144304500D01*
X123532250Y-144238608D01*
X123532250Y-131371103D01*
X123533092Y-131356679D01*
X123533143Y-131356239D01*
X123532263Y-131294820D01*
X123532250Y-131293043D01*
X123532250Y-131231588D01*
X123531206Y-131217175D01*
X123531206Y-131217170D01*
X123531023Y-131203609D01*
X123498719Y-131033137D01*
X123437563Y-130870767D01*
X123349378Y-130721342D01*
X123236795Y-130589322D01*
X123209299Y-130566547D01*
X123103176Y-130478644D01*
X123062429Y-130455378D01*
X122952501Y-130392610D01*
X122789270Y-130333787D01*
X122789265Y-130333786D01*
X122618364Y-130303931D01*
X122618354Y-130303930D01*
X122618353Y-130303930D01*
X122618351Y-130303930D01*
X122531600Y-130304000D01*
X109605808Y-130304000D01*
X109605685Y-130303992D01*
X109583114Y-130303994D01*
X109582947Y-130303945D01*
X109444172Y-130303957D01*
X109444165Y-130303958D01*
X109271775Y-130334371D01*
X109271769Y-130334372D01*
X109107267Y-130394260D01*
X108955665Y-130481801D01*
X108821574Y-130594328D01*
X108821561Y-130594341D01*
X108709045Y-130728445D01*
X108709039Y-130728453D01*
X108621520Y-130880053D01*
X108561646Y-131044568D01*
X108531249Y-131216965D01*
X108531249Y-131216972D01*
X108531250Y-131270853D01*
X108531250Y-144237826D01*
X108530406Y-144252267D01*
X108530365Y-144252614D01*
X99719750Y-144252614D01*
X99719750Y-144238608D01*
X99719750Y-131371103D01*
X99720592Y-131356679D01*
X99720643Y-131356239D01*
X99719763Y-131294820D01*
X99719750Y-131293043D01*
X99719750Y-131231588D01*
X99718706Y-131217175D01*
X99718706Y-131217170D01*
X99718523Y-131203609D01*
X99686219Y-131033137D01*
X99625063Y-130870767D01*
X99536878Y-130721342D01*
X99424295Y-130589322D01*
X99396799Y-130566547D01*
X99290676Y-130478644D01*
X99249929Y-130455378D01*
X99140001Y-130392610D01*
X98976770Y-130333787D01*
X98976765Y-130333786D01*
X98805864Y-130303931D01*
X98805854Y-130303930D01*
X98805853Y-130303930D01*
X98805851Y-130303930D01*
X98719100Y-130304000D01*
X85793308Y-130304000D01*
X85793185Y-130303992D01*
X85770614Y-130303994D01*
X85770447Y-130303945D01*
X85631672Y-130303957D01*
X85631665Y-130303958D01*
X85459275Y-130334371D01*
X85459269Y-130334372D01*
X85294767Y-130394260D01*
X85143165Y-130481801D01*
X85009074Y-130594328D01*
X85009061Y-130594341D01*
X84896545Y-130728445D01*
X84896539Y-130728453D01*
X84809020Y-130880053D01*
X84749146Y-131044568D01*
X84718749Y-131216965D01*
X84718749Y-131216972D01*
X84718750Y-131270853D01*
X84718750Y-144237826D01*
X84717906Y-144252267D01*
X84717865Y-144252614D01*
X75907250Y-144252614D01*
X75907250Y-144238608D01*
X75907250Y-131371103D01*
X75908092Y-131356679D01*
X75908143Y-131356239D01*
X75907263Y-131294820D01*
X75907250Y-131293043D01*
X75907250Y-131231588D01*
X75906206Y-131217175D01*
X75906206Y-131217170D01*
X75906023Y-131203609D01*
X75873719Y-131033137D01*
X75812563Y-130870767D01*
X75724378Y-130721342D01*
X75611795Y-130589322D01*
X75584299Y-130566547D01*
X75478176Y-130478644D01*
X75437429Y-130455378D01*
X75327501Y-130392610D01*
X75164270Y-130333787D01*
X75164265Y-130333786D01*
X74993364Y-130303931D01*
X74993354Y-130303930D01*
X74993353Y-130303930D01*
X74993351Y-130303930D01*
X74906600Y-130304000D01*
X61980808Y-130304000D01*
X61980685Y-130303992D01*
X61958114Y-130303994D01*
X61957947Y-130303945D01*
X61819172Y-130303957D01*
X61819165Y-130303958D01*
X61646775Y-130334371D01*
X61646769Y-130334372D01*
X61482267Y-130394260D01*
X61330665Y-130481801D01*
X61196574Y-130594328D01*
X61196561Y-130594341D01*
X61084045Y-130728445D01*
X61084039Y-130728453D01*
X60996520Y-130880053D01*
X60936646Y-131044568D01*
X60906249Y-131216965D01*
X60906249Y-131216972D01*
X60906250Y-131270853D01*
X60906250Y-144237826D01*
X60905406Y-144252267D01*
X60905365Y-144252614D01*
X49713500Y-144252614D01*
X49713500Y-144238608D01*
X49713500Y-131238608D01*
X49713500Y-131216968D01*
X49683101Y-131044562D01*
X49623225Y-130880055D01*
X49617891Y-130870817D01*
X49591181Y-130824554D01*
X49535692Y-130728445D01*
X49535691Y-130728443D01*
X49535690Y-130728442D01*
X49423163Y-130594336D01*
X49289057Y-130481809D01*
X49137446Y-130394275D01*
X48972937Y-130334398D01*
X48800534Y-130304000D01*
X48800532Y-130304000D01*
X48778892Y-130304000D01*
X35778892Y-130304000D01*
X35713000Y-130304000D01*
X35625468Y-130304000D01*
X35625465Y-130304000D01*
X35453062Y-130334398D01*
X35288553Y-130394275D01*
X35136942Y-130481809D01*
X35002836Y-130594336D01*
X34890309Y-130728442D01*
X34802775Y-130880053D01*
X34742898Y-131044562D01*
X34712500Y-131216965D01*
X30907500Y-131216965D01*
X30907500Y-128279494D01*
X54196255Y-128279494D01*
X54196255Y-128279505D01*
X54215215Y-128580883D01*
X54215216Y-128580890D01*
X54271805Y-128877540D01*
X54365125Y-129164747D01*
X54365127Y-129164752D01*
X54493704Y-129437991D01*
X54493707Y-129437997D01*
X54655516Y-129692969D01*
X54736311Y-129790633D01*
X55664708Y-128862236D01*
X55761967Y-128996102D01*
X55884398Y-129118533D01*
X56018262Y-129215790D01*
X55087564Y-130146487D01*
X55087565Y-130146489D01*
X55312461Y-130309885D01*
X55312479Y-130309897D01*
X55577109Y-130455378D01*
X55577117Y-130455382D01*
X55857889Y-130566547D01*
X55857892Y-130566548D01*
X56150399Y-130641650D01*
X56449995Y-130679499D01*
X56450007Y-130679500D01*
X56751993Y-130679500D01*
X56752004Y-130679499D01*
X57051600Y-130641650D01*
X57344107Y-130566548D01*
X57344110Y-130566547D01*
X57624882Y-130455382D01*
X57624890Y-130455378D01*
X57889520Y-130309897D01*
X57889530Y-130309890D01*
X58114433Y-130146487D01*
X58114434Y-130146487D01*
X57183737Y-129215790D01*
X57317602Y-129118533D01*
X57440033Y-128996102D01*
X57537290Y-128862237D01*
X58465687Y-129790634D01*
X58546486Y-129692964D01*
X58708292Y-129437997D01*
X58708295Y-129437991D01*
X58836872Y-129164752D01*
X58836874Y-129164747D01*
X58930194Y-128877540D01*
X58986783Y-128580890D01*
X58986784Y-128580883D01*
X59005745Y-128279505D01*
X59005745Y-128279494D01*
X58986784Y-127978116D01*
X58986783Y-127978109D01*
X58930194Y-127681459D01*
X58836874Y-127394252D01*
X58836872Y-127394247D01*
X58708295Y-127121008D01*
X58708292Y-127121002D01*
X58546483Y-126866030D01*
X58465686Y-126768364D01*
X57537289Y-127696761D01*
X57440033Y-127562898D01*
X57317602Y-127440467D01*
X57183736Y-127343209D01*
X58114434Y-126412511D01*
X58114433Y-126412509D01*
X57889538Y-126249114D01*
X57889520Y-126249102D01*
X57624890Y-126103621D01*
X57624882Y-126103617D01*
X57344110Y-125992452D01*
X57344107Y-125992451D01*
X57051600Y-125917349D01*
X56752004Y-125879500D01*
X56449995Y-125879500D01*
X56150399Y-125917349D01*
X55857892Y-125992451D01*
X55857889Y-125992452D01*
X55577117Y-126103617D01*
X55577109Y-126103621D01*
X55312476Y-126249104D01*
X55312471Y-126249107D01*
X55087565Y-126412510D01*
X55087564Y-126412511D01*
X56018262Y-127343209D01*
X55884398Y-127440467D01*
X55761967Y-127562898D01*
X55664709Y-127696762D01*
X54736311Y-126768364D01*
X54655520Y-126866025D01*
X54655518Y-126866028D01*
X54493707Y-127121002D01*
X54493704Y-127121008D01*
X54365127Y-127394247D01*
X54365125Y-127394252D01*
X54271805Y-127681459D01*
X54215216Y-127978109D01*
X54215215Y-127978116D01*
X54196255Y-128279494D01*
X30907500Y-128279494D01*
X30907500Y-112166965D01*
X34712500Y-112166965D01*
X34712500Y-125342034D01*
X34742898Y-125514437D01*
X34802775Y-125678946D01*
X34890309Y-125830557D01*
X35002836Y-125964663D01*
X35136942Y-126077190D01*
X35136943Y-126077191D01*
X35136945Y-126077192D01*
X35142375Y-126080327D01*
X35251392Y-126143269D01*
X35288555Y-126164725D01*
X35453062Y-126224601D01*
X35625468Y-126255000D01*
X35625472Y-126255000D01*
X48800528Y-126255000D01*
X48800532Y-126255000D01*
X48972938Y-126224601D01*
X49137445Y-126164725D01*
X49289055Y-126077192D01*
X49423163Y-125964663D01*
X49535692Y-125830555D01*
X49609188Y-125703258D01*
X62118200Y-125703258D01*
X62118200Y-125861817D01*
X62148744Y-126074264D01*
X62148747Y-126074274D01*
X62209217Y-126280215D01*
X62298372Y-126475438D01*
X62298379Y-126475451D01*
X62372953Y-126591491D01*
X62411287Y-126651140D01*
X62414420Y-126656014D01*
X62554975Y-126818224D01*
X62678977Y-126925672D01*
X62717187Y-126958781D01*
X62846231Y-127041711D01*
X62897748Y-127074820D01*
X62897761Y-127074827D01*
X63092984Y-127163982D01*
X63092988Y-127163983D01*
X63092990Y-127163984D01*
X63298931Y-127224454D01*
X63298932Y-127224454D01*
X63298935Y-127224455D01*
X63362284Y-127233562D01*
X63511382Y-127255000D01*
X63552808Y-127255000D01*
X68304991Y-127255000D01*
X68315783Y-127255653D01*
X68317712Y-127255633D01*
X68317714Y-127255634D01*
X68380503Y-127255005D01*
X68381743Y-127255000D01*
X68446674Y-127255000D01*
X68456995Y-127254274D01*
X68490245Y-127253957D01*
X68638618Y-127231246D01*
X68701070Y-127221687D01*
X68701072Y-127221686D01*
X68701082Y-127221685D01*
X68905237Y-127159921D01*
X69098606Y-127069908D01*
X69277303Y-126953453D01*
X69437735Y-126812899D01*
X69576678Y-126651070D01*
X69691340Y-126471218D01*
X69779416Y-126276959D01*
X69839135Y-126072196D01*
X69869298Y-125861047D01*
X69869250Y-125754400D01*
X69869250Y-125688508D01*
X69869250Y-125202614D01*
X70430365Y-125202614D01*
X70431238Y-125264135D01*
X70431250Y-125265894D01*
X70431250Y-125327410D01*
X70432280Y-125341665D01*
X70432462Y-125355252D01*
X70464747Y-125525742D01*
X70464748Y-125525746D01*
X70464749Y-125525749D01*
X70523150Y-125680856D01*
X70525895Y-125688145D01*
X70614069Y-125837583D01*
X70614077Y-125837594D01*
X70726652Y-125969626D01*
X70726655Y-125969629D01*
X70860274Y-126080321D01*
X70860278Y-126080323D01*
X70860280Y-126080325D01*
X70860284Y-126080327D01*
X71010962Y-126166374D01*
X71112614Y-126203009D01*
X71174207Y-126225207D01*
X71345139Y-126255069D01*
X71431832Y-126255000D01*
X71431901Y-126255000D01*
X71497792Y-126255000D01*
X84357692Y-126255000D01*
X84357814Y-126255007D01*
X84365905Y-126255006D01*
X84365908Y-126255007D01*
X84380381Y-126255005D01*
X84380550Y-126255054D01*
X84431800Y-126255049D01*
X84431800Y-126255050D01*
X84519331Y-126255042D01*
X84691731Y-126224627D01*
X84856232Y-126164740D01*
X85007834Y-126077198D01*
X85135690Y-125969903D01*
X85141925Y-125964671D01*
X85141927Y-125964668D01*
X85141934Y-125964663D01*
X85254456Y-125830552D01*
X85254457Y-125830549D01*
X85254460Y-125830546D01*
X85327944Y-125703258D01*
X85994200Y-125703258D01*
X85994200Y-125861817D01*
X86024744Y-126074264D01*
X86024747Y-126074274D01*
X86085217Y-126280215D01*
X86174372Y-126475438D01*
X86174379Y-126475451D01*
X86248953Y-126591491D01*
X86287287Y-126651140D01*
X86290420Y-126656014D01*
X86430975Y-126818224D01*
X86554977Y-126925672D01*
X86593187Y-126958781D01*
X86722231Y-127041711D01*
X86773748Y-127074820D01*
X86773761Y-127074827D01*
X86968984Y-127163982D01*
X86968988Y-127163983D01*
X86968990Y-127163984D01*
X87174931Y-127224454D01*
X87174932Y-127224454D01*
X87174935Y-127224455D01*
X87238284Y-127233562D01*
X87387382Y-127255000D01*
X87428808Y-127255000D01*
X92180991Y-127255000D01*
X92191783Y-127255653D01*
X92193712Y-127255633D01*
X92193714Y-127255634D01*
X92256503Y-127255005D01*
X92257743Y-127255000D01*
X92322694Y-127255000D01*
X92332999Y-127254274D01*
X92366238Y-127253958D01*
X92366245Y-127253957D01*
X92577052Y-127221691D01*
X92577057Y-127221690D01*
X92577058Y-127221689D01*
X92577062Y-127221689D01*
X92781205Y-127159933D01*
X92974564Y-127069931D01*
X93134879Y-126965462D01*
X93153247Y-126953494D01*
X93153247Y-126953493D01*
X93153253Y-126953490D01*
X93313682Y-126812952D01*
X93452625Y-126651141D01*
X93567291Y-126471308D01*
X93655376Y-126277068D01*
X93715108Y-126072323D01*
X93745288Y-125861190D01*
X93745250Y-125754550D01*
X93745257Y-125688658D01*
X93745256Y-125688655D01*
X93745257Y-125680856D01*
X93745250Y-125680730D01*
X93745250Y-113805912D01*
X93745300Y-113805741D01*
X93745300Y-113647183D01*
X93745300Y-113647182D01*
X93715055Y-113436823D01*
X93714755Y-113434735D01*
X93714752Y-113434725D01*
X93676505Y-113304466D01*
X93654284Y-113228790D01*
X93654283Y-113228788D01*
X93654282Y-113228784D01*
X93565127Y-113033561D01*
X93565120Y-113033548D01*
X93532011Y-112982031D01*
X93449081Y-112852987D01*
X93415972Y-112814777D01*
X93308524Y-112690775D01*
X93146314Y-112550220D01*
X93146313Y-112550219D01*
X93081791Y-112508753D01*
X92965751Y-112434179D01*
X92965738Y-112434172D01*
X92770515Y-112345017D01*
X92564574Y-112284547D01*
X92564564Y-112284544D01*
X92373554Y-112257082D01*
X92352118Y-112254000D01*
X92352117Y-112254000D01*
X87558405Y-112254000D01*
X87547513Y-112253341D01*
X87482912Y-112253994D01*
X87481659Y-112254000D01*
X87416792Y-112254000D01*
X87406364Y-112254733D01*
X87373125Y-112255053D01*
X87373121Y-112255053D01*
X87162312Y-112287339D01*
X86958190Y-112349106D01*
X86958187Y-112349107D01*
X86764847Y-112439117D01*
X86672542Y-112499275D01*
X86586175Y-112555564D01*
X86484377Y-112644750D01*
X86425761Y-112696105D01*
X86286840Y-112857906D01*
X86286838Y-112857908D01*
X86286838Y-112857909D01*
X86286792Y-112857982D01*
X86172185Y-113037736D01*
X86084114Y-113231958D01*
X86084107Y-113231977D01*
X86024387Y-113436698D01*
X86024386Y-113436701D01*
X85994211Y-113647813D01*
X85994210Y-113647820D01*
X85994250Y-113754449D01*
X85994250Y-113754508D01*
X85994242Y-113828436D01*
X85994250Y-113828557D01*
X85994250Y-125703088D01*
X85994200Y-125703258D01*
X85327944Y-125703258D01*
X85341979Y-125678946D01*
X85341978Y-125678946D01*
X85341982Y-125678941D01*
X85401853Y-125514434D01*
X85432251Y-125342031D01*
X85432250Y-125254500D01*
X85432250Y-125188608D01*
X85432250Y-112321103D01*
X85433092Y-112306679D01*
X85433143Y-112306239D01*
X85432263Y-112244820D01*
X85432250Y-112243043D01*
X85432250Y-112181584D01*
X85431206Y-112167183D01*
X85431024Y-112153620D01*
X85398728Y-111983169D01*
X85337587Y-111820817D01*
X85249423Y-111671406D01*
X85136867Y-111539392D01*
X85136866Y-111539391D01*
X85003278Y-111428715D01*
X85003269Y-111428709D01*
X84852635Y-111342671D01*
X84852626Y-111342667D01*
X84689432Y-111283830D01*
X84518552Y-111253947D01*
X84518544Y-111253946D01*
X84518542Y-111253946D01*
X84518539Y-111253946D01*
X84431822Y-111253999D01*
X84431723Y-111253999D01*
X84357991Y-111253985D01*
X84357761Y-111254000D01*
X71505808Y-111254000D01*
X71505685Y-111253992D01*
X71483114Y-111253994D01*
X71482947Y-111253945D01*
X71344172Y-111253957D01*
X71344165Y-111253958D01*
X71171775Y-111284371D01*
X71171769Y-111284372D01*
X71007267Y-111344260D01*
X70855665Y-111431801D01*
X70721574Y-111544328D01*
X70721561Y-111544341D01*
X70609045Y-111678445D01*
X70609039Y-111678453D01*
X70521520Y-111830053D01*
X70461646Y-111994568D01*
X70431249Y-112166965D01*
X70431249Y-112166972D01*
X70431250Y-112220853D01*
X70431250Y-125187826D01*
X70430406Y-125202267D01*
X70430365Y-125202614D01*
X69869250Y-125202614D01*
X69869250Y-113805912D01*
X69869300Y-113805741D01*
X69869300Y-113647183D01*
X69869300Y-113647182D01*
X69839055Y-113436823D01*
X69838755Y-113434735D01*
X69838752Y-113434725D01*
X69800505Y-113304466D01*
X69778284Y-113228790D01*
X69778283Y-113228788D01*
X69778282Y-113228784D01*
X69689127Y-113033561D01*
X69689120Y-113033548D01*
X69656011Y-112982031D01*
X69573081Y-112852987D01*
X69539972Y-112814777D01*
X69432524Y-112690775D01*
X69270314Y-112550220D01*
X69270313Y-112550219D01*
X69205791Y-112508753D01*
X69089751Y-112434179D01*
X69089738Y-112434172D01*
X68894515Y-112345017D01*
X68688574Y-112284547D01*
X68688564Y-112284544D01*
X68497554Y-112257082D01*
X68476118Y-112254000D01*
X68476117Y-112254000D01*
X63682405Y-112254000D01*
X63671513Y-112253341D01*
X63606912Y-112253994D01*
X63605659Y-112254000D01*
X63540797Y-112254000D01*
X63530358Y-112254734D01*
X63497116Y-112255054D01*
X63286291Y-112287343D01*
X63286285Y-112287345D01*
X63082157Y-112349119D01*
X63082150Y-112349122D01*
X62888806Y-112439141D01*
X62710127Y-112555599D01*
X62549710Y-112696156D01*
X62410785Y-112857979D01*
X62410782Y-112857982D01*
X62296139Y-113037820D01*
X62296136Y-113037826D01*
X62208071Y-113232075D01*
X62148360Y-113436823D01*
X62148359Y-113436825D01*
X62118201Y-113647959D01*
X62118201Y-113647963D01*
X62118250Y-113754450D01*
X62118250Y-125703088D01*
X62118200Y-125703258D01*
X49609188Y-125703258D01*
X49623225Y-125678945D01*
X49683101Y-125514438D01*
X49713500Y-125342032D01*
X49713500Y-125254500D01*
X49713500Y-125188608D01*
X49713500Y-112188608D01*
X49713500Y-112166968D01*
X49683101Y-111994562D01*
X49623225Y-111830055D01*
X49617891Y-111820817D01*
X49591181Y-111774554D01*
X49535692Y-111678445D01*
X49535691Y-111678443D01*
X49535690Y-111678442D01*
X49423163Y-111544336D01*
X49289057Y-111431809D01*
X49137446Y-111344275D01*
X48972937Y-111284398D01*
X48800534Y-111254000D01*
X48800532Y-111254000D01*
X48778892Y-111254000D01*
X35778892Y-111254000D01*
X35713000Y-111254000D01*
X35625468Y-111254000D01*
X35625465Y-111254000D01*
X35453062Y-111284398D01*
X35288553Y-111344275D01*
X35136942Y-111431809D01*
X35002836Y-111544336D01*
X34890309Y-111678442D01*
X34802775Y-111830053D01*
X34742898Y-111994562D01*
X34712500Y-112166965D01*
X30907500Y-112166965D01*
X30907500Y-93116965D01*
X34712500Y-93116965D01*
X34712500Y-106292034D01*
X34742898Y-106464437D01*
X34802775Y-106628946D01*
X34890309Y-106780557D01*
X35002836Y-106914663D01*
X35136942Y-107027190D01*
X35136943Y-107027191D01*
X35136945Y-107027192D01*
X35288555Y-107114725D01*
X35453062Y-107174601D01*
X35625468Y-107205000D01*
X35625472Y-107205000D01*
X48800528Y-107205000D01*
X48800532Y-107205000D01*
X48972938Y-107174601D01*
X49137445Y-107114725D01*
X49289055Y-107027192D01*
X49423163Y-106914663D01*
X49535692Y-106780555D01*
X49623225Y-106628945D01*
X49683101Y-106464438D01*
X49713500Y-106292032D01*
X49713500Y-106204500D01*
X49713500Y-106152614D01*
X65667865Y-106152614D01*
X65668738Y-106214135D01*
X65668750Y-106215894D01*
X65668750Y-106277410D01*
X65669780Y-106291665D01*
X65669962Y-106305252D01*
X65702247Y-106475742D01*
X65702248Y-106475746D01*
X65763395Y-106638145D01*
X65851569Y-106787583D01*
X65851577Y-106787594D01*
X65964152Y-106919626D01*
X65964155Y-106919629D01*
X66097774Y-107030321D01*
X66097778Y-107030323D01*
X66097780Y-107030325D01*
X66097784Y-107030327D01*
X66248462Y-107116374D01*
X66353818Y-107154344D01*
X66411707Y-107175207D01*
X66582639Y-107205069D01*
X66669332Y-107205000D01*
X66669401Y-107205000D01*
X66735292Y-107205000D01*
X79595192Y-107205000D01*
X79595314Y-107205007D01*
X79603405Y-107205006D01*
X79603408Y-107205007D01*
X79617881Y-107205005D01*
X79618050Y-107205054D01*
X79669300Y-107205049D01*
X79669300Y-107205050D01*
X79756831Y-107205042D01*
X79929231Y-107174627D01*
X80093732Y-107114740D01*
X80245334Y-107027198D01*
X80245344Y-107027190D01*
X80379425Y-106914671D01*
X80379427Y-106914668D01*
X80379434Y-106914663D01*
X80491956Y-106780552D01*
X80491957Y-106780549D01*
X80491960Y-106780546D01*
X80579479Y-106628946D01*
X80579478Y-106628946D01*
X80579482Y-106628941D01*
X80639353Y-106464434D01*
X80669751Y-106292031D01*
X80669750Y-106204500D01*
X80669750Y-106138608D01*
X80669750Y-93271103D01*
X80670592Y-93256679D01*
X80670643Y-93256239D01*
X80669763Y-93194820D01*
X80669750Y-93193043D01*
X80669750Y-93131588D01*
X80668706Y-93117175D01*
X80668703Y-93116965D01*
X91862500Y-93116965D01*
X91862500Y-106292034D01*
X91892898Y-106464437D01*
X91952775Y-106628946D01*
X92040309Y-106780557D01*
X92152836Y-106914663D01*
X92286942Y-107027190D01*
X92286943Y-107027191D01*
X92286945Y-107027192D01*
X92438555Y-107114725D01*
X92603062Y-107174601D01*
X92775468Y-107205000D01*
X92775472Y-107205000D01*
X102560097Y-107205000D01*
X102627136Y-107224685D01*
X102672891Y-107277489D01*
X102675327Y-107291273D01*
X103617263Y-108233209D01*
X103483398Y-108330467D01*
X103360967Y-108452898D01*
X103263709Y-108586762D01*
X102335311Y-107658364D01*
X102254520Y-107756025D01*
X102254518Y-107756028D01*
X102092707Y-108011002D01*
X102092704Y-108011008D01*
X101964127Y-108284247D01*
X101964125Y-108284252D01*
X101870805Y-108571459D01*
X101814216Y-108868109D01*
X101814215Y-108868116D01*
X101795255Y-109169494D01*
X101795255Y-109169505D01*
X101814215Y-109470883D01*
X101814216Y-109470890D01*
X101870805Y-109767540D01*
X101964125Y-110054747D01*
X101964127Y-110054752D01*
X102092704Y-110327991D01*
X102092707Y-110327997D01*
X102254516Y-110582969D01*
X102335311Y-110680633D01*
X103263708Y-109752236D01*
X103360967Y-109886102D01*
X103483398Y-110008533D01*
X103617262Y-110105790D01*
X102686564Y-111036487D01*
X102687033Y-111042439D01*
X102719862Y-111085012D01*
X102725841Y-111154625D01*
X102693236Y-111216420D01*
X102632397Y-111250777D01*
X102604311Y-111254000D01*
X102300465Y-111254000D01*
X102128062Y-111284398D01*
X101963553Y-111344275D01*
X101811942Y-111431809D01*
X101677836Y-111544336D01*
X101565309Y-111678442D01*
X101477775Y-111830053D01*
X101417898Y-111994562D01*
X101387500Y-112166965D01*
X101387500Y-125342034D01*
X101417898Y-125514437D01*
X101477775Y-125678946D01*
X101565309Y-125830557D01*
X101677836Y-125964663D01*
X101811942Y-126077190D01*
X101811943Y-126077191D01*
X101811945Y-126077192D01*
X101817375Y-126080327D01*
X101926392Y-126143269D01*
X101963555Y-126164725D01*
X102128062Y-126224601D01*
X102300468Y-126255000D01*
X102300472Y-126255000D01*
X115475528Y-126255000D01*
X115475532Y-126255000D01*
X115647938Y-126224601D01*
X115812445Y-126164725D01*
X115964055Y-126077192D01*
X116098163Y-125964663D01*
X116210692Y-125830555D01*
X116298225Y-125678945D01*
X116358101Y-125514438D01*
X116388500Y-125342032D01*
X116388500Y-125254500D01*
X116388500Y-125188608D01*
X116388500Y-112188608D01*
X116388500Y-112166968D01*
X116388499Y-112166965D01*
X120437500Y-112166965D01*
X120437500Y-125342034D01*
X120467898Y-125514437D01*
X120527775Y-125678946D01*
X120615309Y-125830557D01*
X120727836Y-125964663D01*
X120861942Y-126077190D01*
X120861943Y-126077191D01*
X120861945Y-126077192D01*
X120867375Y-126080327D01*
X120976392Y-126143269D01*
X121013555Y-126164725D01*
X121178062Y-126224601D01*
X121350468Y-126255000D01*
X121350472Y-126255000D01*
X134525528Y-126255000D01*
X134525532Y-126255000D01*
X134697938Y-126224601D01*
X134862445Y-126164725D01*
X135014055Y-126077192D01*
X135148163Y-125964663D01*
X135260692Y-125830555D01*
X135348225Y-125678945D01*
X135408101Y-125514438D01*
X135438500Y-125342032D01*
X135438500Y-125254500D01*
X135438500Y-125188608D01*
X135438500Y-112188608D01*
X135438500Y-112166968D01*
X135438499Y-112166965D01*
X139487500Y-112166965D01*
X139487500Y-125342034D01*
X139517898Y-125514437D01*
X139577775Y-125678946D01*
X139665309Y-125830557D01*
X139777836Y-125964663D01*
X139911942Y-126077190D01*
X139911943Y-126077191D01*
X139911945Y-126077192D01*
X139917375Y-126080327D01*
X140026392Y-126143269D01*
X140063555Y-126164725D01*
X140228062Y-126224601D01*
X140400468Y-126255000D01*
X140400472Y-126255000D01*
X153575528Y-126255000D01*
X153575532Y-126255000D01*
X153747938Y-126224601D01*
X153912445Y-126164725D01*
X154064055Y-126077192D01*
X154198163Y-125964663D01*
X154310692Y-125830555D01*
X154398225Y-125678945D01*
X154458101Y-125514438D01*
X154488500Y-125342032D01*
X154488500Y-125254500D01*
X154488500Y-125188608D01*
X154488500Y-112188608D01*
X154488500Y-112166968D01*
X154488499Y-112166965D01*
X158537500Y-112166965D01*
X158537500Y-125342034D01*
X158567898Y-125514437D01*
X158627775Y-125678946D01*
X158715309Y-125830557D01*
X158827836Y-125964663D01*
X158961942Y-126077190D01*
X158961943Y-126077191D01*
X158961945Y-126077192D01*
X158967375Y-126080327D01*
X159076392Y-126143269D01*
X159113555Y-126164725D01*
X159278062Y-126224601D01*
X159450468Y-126255000D01*
X159450472Y-126255000D01*
X172625528Y-126255000D01*
X172625532Y-126255000D01*
X172797938Y-126224601D01*
X172962445Y-126164725D01*
X173114055Y-126077192D01*
X173248163Y-125964663D01*
X173360692Y-125830555D01*
X173448225Y-125678945D01*
X173508101Y-125514438D01*
X173538500Y-125342032D01*
X173538500Y-125254500D01*
X173538500Y-125188608D01*
X173538500Y-112188608D01*
X173538500Y-112166968D01*
X173538499Y-112166965D01*
X177587500Y-112166965D01*
X177587500Y-125342034D01*
X177617898Y-125514437D01*
X177677775Y-125678946D01*
X177765309Y-125830557D01*
X177877836Y-125964663D01*
X178011942Y-126077190D01*
X178011943Y-126077191D01*
X178011945Y-126077192D01*
X178017375Y-126080327D01*
X178126392Y-126143269D01*
X178163555Y-126164725D01*
X178328062Y-126224601D01*
X178500468Y-126255000D01*
X178500472Y-126255000D01*
X191675528Y-126255000D01*
X191675532Y-126255000D01*
X191847938Y-126224601D01*
X192012445Y-126164725D01*
X192164055Y-126077192D01*
X192298163Y-125964663D01*
X192410692Y-125830555D01*
X192498225Y-125678945D01*
X192558101Y-125514438D01*
X192588500Y-125342032D01*
X192588500Y-125254500D01*
X192588500Y-125188608D01*
X192588500Y-112188608D01*
X192588500Y-112166968D01*
X192558101Y-111994562D01*
X192498225Y-111830055D01*
X192492891Y-111820817D01*
X192466181Y-111774554D01*
X192410692Y-111678445D01*
X192410691Y-111678443D01*
X192410690Y-111678442D01*
X192298163Y-111544336D01*
X192164057Y-111431809D01*
X192012446Y-111344275D01*
X191847937Y-111284398D01*
X191675534Y-111254000D01*
X191675532Y-111254000D01*
X191653892Y-111254000D01*
X178653892Y-111254000D01*
X178588000Y-111254000D01*
X178500468Y-111254000D01*
X178500465Y-111254000D01*
X178328062Y-111284398D01*
X178163553Y-111344275D01*
X178011942Y-111431809D01*
X177877836Y-111544336D01*
X177765309Y-111678442D01*
X177677775Y-111830053D01*
X177617898Y-111994562D01*
X177587500Y-112166965D01*
X173538499Y-112166965D01*
X173508101Y-111994562D01*
X173448225Y-111830055D01*
X173442891Y-111820817D01*
X173416181Y-111774554D01*
X173360692Y-111678445D01*
X173360691Y-111678443D01*
X173360690Y-111678442D01*
X173248163Y-111544336D01*
X173114057Y-111431809D01*
X172962446Y-111344275D01*
X172797937Y-111284398D01*
X172625534Y-111254000D01*
X172625532Y-111254000D01*
X172603892Y-111254000D01*
X159603892Y-111254000D01*
X159538000Y-111254000D01*
X159450468Y-111254000D01*
X159450465Y-111254000D01*
X159278062Y-111284398D01*
X159113553Y-111344275D01*
X158961942Y-111431809D01*
X158827836Y-111544336D01*
X158715309Y-111678442D01*
X158627775Y-111830053D01*
X158567898Y-111994562D01*
X158537500Y-112166965D01*
X154488499Y-112166965D01*
X154458101Y-111994562D01*
X154398225Y-111830055D01*
X154392891Y-111820817D01*
X154366181Y-111774554D01*
X154310692Y-111678445D01*
X154310691Y-111678443D01*
X154310690Y-111678442D01*
X154198163Y-111544336D01*
X154064057Y-111431809D01*
X153912446Y-111344275D01*
X153747937Y-111284398D01*
X153575534Y-111254000D01*
X153575532Y-111254000D01*
X153553892Y-111254000D01*
X140553892Y-111254000D01*
X140488000Y-111254000D01*
X140400468Y-111254000D01*
X140400465Y-111254000D01*
X140228062Y-111284398D01*
X140063553Y-111344275D01*
X139911942Y-111431809D01*
X139777836Y-111544336D01*
X139665309Y-111678442D01*
X139577775Y-111830053D01*
X139517898Y-111994562D01*
X139487500Y-112166965D01*
X135438499Y-112166965D01*
X135408101Y-111994562D01*
X135348225Y-111830055D01*
X135342891Y-111820817D01*
X135316181Y-111774554D01*
X135260692Y-111678445D01*
X135260691Y-111678443D01*
X135260690Y-111678442D01*
X135148163Y-111544336D01*
X135014057Y-111431809D01*
X134862446Y-111344275D01*
X134697937Y-111284398D01*
X134525534Y-111254000D01*
X134525532Y-111254000D01*
X134503892Y-111254000D01*
X121503892Y-111254000D01*
X121438000Y-111254000D01*
X121350468Y-111254000D01*
X121350465Y-111254000D01*
X121178062Y-111284398D01*
X121013553Y-111344275D01*
X120861942Y-111431809D01*
X120727836Y-111544336D01*
X120615309Y-111678442D01*
X120527775Y-111830053D01*
X120467898Y-111994562D01*
X120437500Y-112166965D01*
X116388499Y-112166965D01*
X116358101Y-111994562D01*
X116298225Y-111830055D01*
X116292891Y-111820817D01*
X116266181Y-111774554D01*
X116210692Y-111678445D01*
X116210691Y-111678443D01*
X116210690Y-111678442D01*
X116098163Y-111544336D01*
X115964057Y-111431809D01*
X115812446Y-111344275D01*
X115647937Y-111284398D01*
X115475534Y-111254000D01*
X115475532Y-111254000D01*
X115453892Y-111254000D01*
X105795687Y-111254000D01*
X105728648Y-111234315D01*
X105682893Y-111181511D01*
X105672949Y-111112353D01*
X105701974Y-111048797D01*
X105713282Y-111038418D01*
X105713434Y-111036487D01*
X104782737Y-110105790D01*
X104916602Y-110008533D01*
X105039033Y-109886102D01*
X105136290Y-109752237D01*
X106064687Y-110680634D01*
X106145486Y-110582964D01*
X106307292Y-110327997D01*
X106307295Y-110327991D01*
X106435872Y-110054752D01*
X106435874Y-110054747D01*
X106529194Y-109767540D01*
X106585783Y-109470890D01*
X106585784Y-109470883D01*
X106604745Y-109169505D01*
X106604745Y-109169494D01*
X106585784Y-108868116D01*
X106585783Y-108868109D01*
X106529194Y-108571459D01*
X106435874Y-108284252D01*
X106435872Y-108284247D01*
X106307295Y-108011008D01*
X106307292Y-108011002D01*
X106145483Y-107756030D01*
X106064686Y-107658364D01*
X105136289Y-108586761D01*
X105039033Y-108452898D01*
X104916602Y-108330467D01*
X104782736Y-108233209D01*
X105726672Y-107289273D01*
X105730647Y-107270353D01*
X105779698Y-107220596D01*
X105839902Y-107205000D01*
X105950528Y-107205000D01*
X105950532Y-107205000D01*
X106122938Y-107174601D01*
X106287445Y-107114725D01*
X106439055Y-107027192D01*
X106573163Y-106914663D01*
X106685692Y-106780555D01*
X106773225Y-106628945D01*
X106833101Y-106464438D01*
X106863500Y-106292032D01*
X106863500Y-106204500D01*
X106863500Y-106138608D01*
X106863500Y-93138608D01*
X106863500Y-93116968D01*
X106863499Y-93116965D01*
X110912500Y-93116965D01*
X110912500Y-106292034D01*
X110942898Y-106464437D01*
X111002775Y-106628946D01*
X111090309Y-106780557D01*
X111202836Y-106914663D01*
X111336942Y-107027190D01*
X111336943Y-107027191D01*
X111336945Y-107027192D01*
X111488555Y-107114725D01*
X111653062Y-107174601D01*
X111825468Y-107205000D01*
X111825472Y-107205000D01*
X125000528Y-107205000D01*
X125000532Y-107205000D01*
X125172938Y-107174601D01*
X125337445Y-107114725D01*
X125489055Y-107027192D01*
X125623163Y-106914663D01*
X125735692Y-106780555D01*
X125823225Y-106628945D01*
X125883101Y-106464438D01*
X125913500Y-106292032D01*
X125913500Y-106204500D01*
X125913500Y-106138608D01*
X125913500Y-93138608D01*
X125913500Y-93116968D01*
X125913499Y-93116965D01*
X129962500Y-93116965D01*
X129962500Y-106292034D01*
X129992898Y-106464437D01*
X130052775Y-106628946D01*
X130140309Y-106780557D01*
X130252836Y-106914663D01*
X130386942Y-107027190D01*
X130386943Y-107027191D01*
X130386945Y-107027192D01*
X130538555Y-107114725D01*
X130703062Y-107174601D01*
X130875468Y-107205000D01*
X130875472Y-107205000D01*
X144050528Y-107205000D01*
X144050532Y-107205000D01*
X144222938Y-107174601D01*
X144387445Y-107114725D01*
X144539055Y-107027192D01*
X144673163Y-106914663D01*
X144785692Y-106780555D01*
X144873225Y-106628945D01*
X144933101Y-106464438D01*
X144963500Y-106292032D01*
X144963500Y-106204500D01*
X144963500Y-106138608D01*
X144963500Y-93138608D01*
X144963500Y-93116968D01*
X144963499Y-93116965D01*
X149012500Y-93116965D01*
X149012500Y-106292034D01*
X149042898Y-106464437D01*
X149102775Y-106628946D01*
X149190309Y-106780557D01*
X149302836Y-106914663D01*
X149436942Y-107027190D01*
X149436943Y-107027191D01*
X149436945Y-107027192D01*
X149588555Y-107114725D01*
X149753062Y-107174601D01*
X149925468Y-107205000D01*
X149925472Y-107205000D01*
X163100528Y-107205000D01*
X163100532Y-107205000D01*
X163272938Y-107174601D01*
X163437445Y-107114725D01*
X163589055Y-107027192D01*
X163723163Y-106914663D01*
X163835692Y-106780555D01*
X163923225Y-106628945D01*
X163983101Y-106464438D01*
X164013500Y-106292032D01*
X164013500Y-106204500D01*
X164013500Y-106138608D01*
X164013500Y-93138608D01*
X164013500Y-93116968D01*
X164013499Y-93116965D01*
X168062500Y-93116965D01*
X168062500Y-106292034D01*
X168092898Y-106464437D01*
X168152775Y-106628946D01*
X168240309Y-106780557D01*
X168352836Y-106914663D01*
X168486942Y-107027190D01*
X168486943Y-107027191D01*
X168486945Y-107027192D01*
X168638555Y-107114725D01*
X168803062Y-107174601D01*
X168975468Y-107205000D01*
X168975472Y-107205000D01*
X182150528Y-107205000D01*
X182150532Y-107205000D01*
X182322938Y-107174601D01*
X182487445Y-107114725D01*
X182639055Y-107027192D01*
X182773163Y-106914663D01*
X182885692Y-106780555D01*
X182973225Y-106628945D01*
X183033101Y-106464438D01*
X183063500Y-106292032D01*
X183063500Y-106204500D01*
X183063500Y-106138608D01*
X183063500Y-93138608D01*
X183063500Y-93116968D01*
X183033101Y-92944562D01*
X182973225Y-92780055D01*
X182885692Y-92628445D01*
X182885691Y-92628443D01*
X182885690Y-92628442D01*
X182773163Y-92494336D01*
X182639057Y-92381809D01*
X182487446Y-92294275D01*
X182322937Y-92234398D01*
X182150534Y-92204000D01*
X182150532Y-92204000D01*
X182128892Y-92204000D01*
X169128892Y-92204000D01*
X169063000Y-92204000D01*
X168975468Y-92204000D01*
X168975465Y-92204000D01*
X168803062Y-92234398D01*
X168638553Y-92294275D01*
X168486942Y-92381809D01*
X168352836Y-92494336D01*
X168240309Y-92628442D01*
X168152775Y-92780053D01*
X168092898Y-92944562D01*
X168062500Y-93116965D01*
X164013499Y-93116965D01*
X163983101Y-92944562D01*
X163923225Y-92780055D01*
X163835692Y-92628445D01*
X163835691Y-92628443D01*
X163835690Y-92628442D01*
X163723163Y-92494336D01*
X163589057Y-92381809D01*
X163437446Y-92294275D01*
X163272937Y-92234398D01*
X163100534Y-92204000D01*
X163100532Y-92204000D01*
X163078892Y-92204000D01*
X150078892Y-92204000D01*
X150013000Y-92204000D01*
X149925468Y-92204000D01*
X149925465Y-92204000D01*
X149753062Y-92234398D01*
X149588553Y-92294275D01*
X149436942Y-92381809D01*
X149302836Y-92494336D01*
X149190309Y-92628442D01*
X149102775Y-92780053D01*
X149042898Y-92944562D01*
X149012500Y-93116965D01*
X144963499Y-93116965D01*
X144933101Y-92944562D01*
X144873225Y-92780055D01*
X144785692Y-92628445D01*
X144785691Y-92628443D01*
X144785690Y-92628442D01*
X144673163Y-92494336D01*
X144539057Y-92381809D01*
X144387446Y-92294275D01*
X144222937Y-92234398D01*
X144050534Y-92204000D01*
X144050532Y-92204000D01*
X144028892Y-92204000D01*
X131028892Y-92204000D01*
X130963000Y-92204000D01*
X130875468Y-92204000D01*
X130875465Y-92204000D01*
X130703062Y-92234398D01*
X130538553Y-92294275D01*
X130386942Y-92381809D01*
X130252836Y-92494336D01*
X130140309Y-92628442D01*
X130052775Y-92780053D01*
X129992898Y-92944562D01*
X129962500Y-93116965D01*
X125913499Y-93116965D01*
X125883101Y-92944562D01*
X125823225Y-92780055D01*
X125735692Y-92628445D01*
X125735691Y-92628443D01*
X125735690Y-92628442D01*
X125623163Y-92494336D01*
X125489057Y-92381809D01*
X125337446Y-92294275D01*
X125172937Y-92234398D01*
X125000534Y-92204000D01*
X125000532Y-92204000D01*
X124978892Y-92204000D01*
X111978892Y-92204000D01*
X111913000Y-92204000D01*
X111825468Y-92204000D01*
X111825465Y-92204000D01*
X111653062Y-92234398D01*
X111488553Y-92294275D01*
X111336942Y-92381809D01*
X111202836Y-92494336D01*
X111090309Y-92628442D01*
X111002775Y-92780053D01*
X110942898Y-92944562D01*
X110912500Y-93116965D01*
X106863499Y-93116965D01*
X106833101Y-92944562D01*
X106773225Y-92780055D01*
X106685692Y-92628445D01*
X106685691Y-92628443D01*
X106685690Y-92628442D01*
X106573163Y-92494336D01*
X106439057Y-92381809D01*
X106287446Y-92294275D01*
X106122937Y-92234398D01*
X105950534Y-92204000D01*
X105950532Y-92204000D01*
X105928892Y-92204000D01*
X92928892Y-92204000D01*
X92863000Y-92204000D01*
X92775468Y-92204000D01*
X92775465Y-92204000D01*
X92603062Y-92234398D01*
X92438553Y-92294275D01*
X92286942Y-92381809D01*
X92152836Y-92494336D01*
X92040309Y-92628442D01*
X91952775Y-92780053D01*
X91892898Y-92944562D01*
X91862500Y-93116965D01*
X80668703Y-93116965D01*
X80668523Y-93103609D01*
X80636219Y-92933137D01*
X80575063Y-92770767D01*
X80486878Y-92621342D01*
X80374295Y-92489322D01*
X80240676Y-92378644D01*
X80210670Y-92361511D01*
X80090001Y-92292610D01*
X79926770Y-92233787D01*
X79926765Y-92233786D01*
X79755864Y-92203931D01*
X79755854Y-92203930D01*
X79755853Y-92203930D01*
X79755851Y-92203930D01*
X79669100Y-92204000D01*
X66743308Y-92204000D01*
X66743185Y-92203992D01*
X66720614Y-92203994D01*
X66720447Y-92203945D01*
X66581672Y-92203957D01*
X66581665Y-92203958D01*
X66409275Y-92234371D01*
X66409269Y-92234372D01*
X66244767Y-92294260D01*
X66093165Y-92381801D01*
X65959074Y-92494328D01*
X65959061Y-92494341D01*
X65846545Y-92628445D01*
X65846539Y-92628453D01*
X65759020Y-92780053D01*
X65699146Y-92944568D01*
X65668749Y-93116965D01*
X65668749Y-93116972D01*
X65668750Y-93170873D01*
X65668750Y-106137826D01*
X65667906Y-106152267D01*
X65667865Y-106152614D01*
X49713500Y-106152614D01*
X49713500Y-106138608D01*
X49713500Y-93138608D01*
X49713500Y-93116968D01*
X49683101Y-92944562D01*
X49623225Y-92780055D01*
X49535692Y-92628445D01*
X49535691Y-92628443D01*
X49535690Y-92628442D01*
X49423163Y-92494336D01*
X49289057Y-92381809D01*
X49137446Y-92294275D01*
X48972937Y-92234398D01*
X48800534Y-92204000D01*
X48800532Y-92204000D01*
X48778892Y-92204000D01*
X35778892Y-92204000D01*
X35713000Y-92204000D01*
X35625468Y-92204000D01*
X35625465Y-92204000D01*
X35453062Y-92234398D01*
X35288553Y-92294275D01*
X35136942Y-92381809D01*
X35002836Y-92494336D01*
X34890309Y-92628442D01*
X34802775Y-92780053D01*
X34742898Y-92944562D01*
X34712500Y-93116965D01*
X30907500Y-93116965D01*
X30907500Y-74066965D01*
X34712500Y-74066965D01*
X34712500Y-87242034D01*
X34742898Y-87414437D01*
X34802775Y-87578946D01*
X34890309Y-87730557D01*
X35002836Y-87864663D01*
X35136942Y-87977190D01*
X35136943Y-87977191D01*
X35136945Y-87977192D01*
X35288555Y-88064725D01*
X35453062Y-88124601D01*
X35625468Y-88155000D01*
X35625472Y-88155000D01*
X48800528Y-88155000D01*
X48800532Y-88155000D01*
X48972938Y-88124601D01*
X49137445Y-88064725D01*
X49289055Y-87977192D01*
X49423163Y-87864663D01*
X49535692Y-87730555D01*
X49623225Y-87578945D01*
X49683101Y-87414438D01*
X49713500Y-87242032D01*
X49713500Y-87154500D01*
X49713500Y-87088608D01*
X49713500Y-74088608D01*
X49713500Y-74066968D01*
X49713499Y-74066965D01*
X63287500Y-74066965D01*
X63287500Y-87242034D01*
X63317898Y-87414437D01*
X63377775Y-87578946D01*
X63465309Y-87730557D01*
X63577836Y-87864663D01*
X63711942Y-87977190D01*
X63711943Y-87977191D01*
X63711945Y-87977192D01*
X63863555Y-88064725D01*
X64028062Y-88124601D01*
X64200468Y-88155000D01*
X64200472Y-88155000D01*
X77375528Y-88155000D01*
X77375532Y-88155000D01*
X77547938Y-88124601D01*
X77712445Y-88064725D01*
X77864055Y-87977192D01*
X77998163Y-87864663D01*
X78110692Y-87730555D01*
X78198225Y-87578945D01*
X78258101Y-87414438D01*
X78288500Y-87242032D01*
X78288500Y-87154500D01*
X78288500Y-87088608D01*
X78288500Y-74088608D01*
X78288500Y-74066968D01*
X78288499Y-74066965D01*
X87100000Y-74066965D01*
X87100000Y-87242034D01*
X87130398Y-87414437D01*
X87190275Y-87578946D01*
X87277809Y-87730557D01*
X87390336Y-87864663D01*
X87524442Y-87977190D01*
X87524443Y-87977191D01*
X87524445Y-87977192D01*
X87676055Y-88064725D01*
X87840562Y-88124601D01*
X88012968Y-88155000D01*
X88012972Y-88155000D01*
X101188028Y-88155000D01*
X101188032Y-88155000D01*
X101360438Y-88124601D01*
X101524945Y-88064725D01*
X101676555Y-87977192D01*
X101810663Y-87864663D01*
X101923192Y-87730555D01*
X102010725Y-87578945D01*
X102070601Y-87414438D01*
X102101000Y-87242032D01*
X102101000Y-87154500D01*
X102101000Y-87088608D01*
X102101000Y-74088608D01*
X102101000Y-74066968D01*
X102100999Y-74066965D01*
X106150000Y-74066965D01*
X106150000Y-87242034D01*
X106180398Y-87414437D01*
X106240275Y-87578946D01*
X106327809Y-87730557D01*
X106440336Y-87864663D01*
X106574442Y-87977190D01*
X106574443Y-87977191D01*
X106574445Y-87977192D01*
X106726055Y-88064725D01*
X106890562Y-88124601D01*
X107062968Y-88155000D01*
X107062972Y-88155000D01*
X120238028Y-88155000D01*
X120238032Y-88155000D01*
X120410438Y-88124601D01*
X120574945Y-88064725D01*
X120726555Y-87977192D01*
X120860663Y-87864663D01*
X120973192Y-87730555D01*
X121060725Y-87578945D01*
X121120601Y-87414438D01*
X121151000Y-87242032D01*
X121151000Y-87154500D01*
X121151000Y-87088608D01*
X121151000Y-74088608D01*
X121151000Y-74066968D01*
X121150999Y-74066965D01*
X125200000Y-74066965D01*
X125200000Y-87242034D01*
X125230398Y-87414437D01*
X125290275Y-87578946D01*
X125377809Y-87730557D01*
X125490336Y-87864663D01*
X125624442Y-87977190D01*
X125624443Y-87977191D01*
X125624445Y-87977192D01*
X125776055Y-88064725D01*
X125940562Y-88124601D01*
X126112968Y-88155000D01*
X126112972Y-88155000D01*
X139288028Y-88155000D01*
X139288032Y-88155000D01*
X139460438Y-88124601D01*
X139624945Y-88064725D01*
X139776555Y-87977192D01*
X139910663Y-87864663D01*
X140023192Y-87730555D01*
X140110725Y-87578945D01*
X140170601Y-87414438D01*
X140201000Y-87242032D01*
X140201000Y-87154500D01*
X140201000Y-87088608D01*
X140201000Y-74088608D01*
X140201000Y-74066968D01*
X140200999Y-74066965D01*
X144250000Y-74066965D01*
X144250000Y-87242034D01*
X144280398Y-87414437D01*
X144340275Y-87578946D01*
X144427809Y-87730557D01*
X144540336Y-87864663D01*
X144674442Y-87977190D01*
X144674443Y-87977191D01*
X144674445Y-87977192D01*
X144826055Y-88064725D01*
X144990562Y-88124601D01*
X145162968Y-88155000D01*
X145162972Y-88155000D01*
X158338028Y-88155000D01*
X158338032Y-88155000D01*
X158510438Y-88124601D01*
X158674945Y-88064725D01*
X158826555Y-87977192D01*
X158960663Y-87864663D01*
X159073192Y-87730555D01*
X159160725Y-87578945D01*
X159220601Y-87414438D01*
X159251000Y-87242032D01*
X159251000Y-87154500D01*
X159251000Y-87088608D01*
X159251000Y-74088608D01*
X159251000Y-74066968D01*
X159250999Y-74066965D01*
X163300000Y-74066965D01*
X163300000Y-87242034D01*
X163330398Y-87414437D01*
X163390275Y-87578946D01*
X163477809Y-87730557D01*
X163590336Y-87864663D01*
X163724442Y-87977190D01*
X163724443Y-87977191D01*
X163724445Y-87977192D01*
X163876055Y-88064725D01*
X164040562Y-88124601D01*
X164212968Y-88155000D01*
X164212972Y-88155000D01*
X177388028Y-88155000D01*
X177388032Y-88155000D01*
X177560438Y-88124601D01*
X177724945Y-88064725D01*
X177876555Y-87977192D01*
X178010663Y-87864663D01*
X178123192Y-87730555D01*
X178210725Y-87578945D01*
X178270601Y-87414438D01*
X178301000Y-87242032D01*
X178301000Y-87154500D01*
X178301000Y-87088608D01*
X178301000Y-74088608D01*
X178301000Y-74066968D01*
X178270601Y-73894562D01*
X178210725Y-73730055D01*
X178123192Y-73578445D01*
X178123191Y-73578443D01*
X178123190Y-73578442D01*
X178010663Y-73444336D01*
X177876557Y-73331809D01*
X177724946Y-73244275D01*
X177560437Y-73184398D01*
X177388034Y-73154000D01*
X177388032Y-73154000D01*
X177366392Y-73154000D01*
X164366392Y-73154000D01*
X164300500Y-73154000D01*
X164212968Y-73154000D01*
X164212965Y-73154000D01*
X164040562Y-73184398D01*
X163876053Y-73244275D01*
X163724442Y-73331809D01*
X163590336Y-73444336D01*
X163477809Y-73578442D01*
X163390275Y-73730053D01*
X163330398Y-73894562D01*
X163300000Y-74066965D01*
X159250999Y-74066965D01*
X159220601Y-73894562D01*
X159160725Y-73730055D01*
X159073192Y-73578445D01*
X159073191Y-73578443D01*
X159073190Y-73578442D01*
X158960663Y-73444336D01*
X158826557Y-73331809D01*
X158674946Y-73244275D01*
X158510437Y-73184398D01*
X158338034Y-73154000D01*
X158338032Y-73154000D01*
X158316392Y-73154000D01*
X153486180Y-73154000D01*
X153419141Y-73134315D01*
X153373386Y-73081511D01*
X153362562Y-73020271D01*
X153364433Y-72996486D01*
X152433737Y-72065790D01*
X152567602Y-71968533D01*
X152690033Y-71846102D01*
X152787290Y-71712237D01*
X153715687Y-72640634D01*
X153796486Y-72542964D01*
X153958292Y-72287997D01*
X153958295Y-72287991D01*
X154086872Y-72014752D01*
X154086874Y-72014747D01*
X154180194Y-71727540D01*
X154236783Y-71430890D01*
X154236784Y-71430883D01*
X154255745Y-71129505D01*
X154255745Y-71129494D01*
X154236784Y-70828116D01*
X154236783Y-70828109D01*
X154180194Y-70531459D01*
X154086874Y-70244252D01*
X154086872Y-70244247D01*
X153958295Y-69971008D01*
X153958292Y-69971002D01*
X153796483Y-69716030D01*
X153715686Y-69618364D01*
X152787289Y-70546761D01*
X152690033Y-70412898D01*
X152567602Y-70290467D01*
X152433736Y-70193209D01*
X153364434Y-69262511D01*
X153364433Y-69262509D01*
X153139538Y-69099114D01*
X153139520Y-69099102D01*
X152874890Y-68953621D01*
X152874882Y-68953617D01*
X152594110Y-68842452D01*
X152594107Y-68842451D01*
X152301600Y-68767349D01*
X152002004Y-68729500D01*
X151699995Y-68729500D01*
X151400399Y-68767349D01*
X151107892Y-68842451D01*
X151107889Y-68842452D01*
X150827117Y-68953617D01*
X150827109Y-68953621D01*
X150562476Y-69099104D01*
X150562471Y-69099107D01*
X150337565Y-69262510D01*
X150337564Y-69262511D01*
X151268262Y-70193209D01*
X151134398Y-70290467D01*
X151011967Y-70412898D01*
X150914709Y-70546762D01*
X149986311Y-69618364D01*
X149905520Y-69716025D01*
X149905518Y-69716028D01*
X149743707Y-69971002D01*
X149743704Y-69971008D01*
X149615127Y-70244247D01*
X149615125Y-70244252D01*
X149521805Y-70531459D01*
X149465216Y-70828109D01*
X149465215Y-70828116D01*
X149446255Y-71129494D01*
X149446255Y-71129505D01*
X149465215Y-71430883D01*
X149465216Y-71430890D01*
X149521805Y-71727540D01*
X149615125Y-72014747D01*
X149615127Y-72014752D01*
X149743704Y-72287991D01*
X149743707Y-72287997D01*
X149905516Y-72542969D01*
X149986311Y-72640633D01*
X150914708Y-71712236D01*
X151011967Y-71846102D01*
X151134398Y-71968533D01*
X151268262Y-72065790D01*
X150337565Y-72996486D01*
X150339437Y-73020271D01*
X150325073Y-73088648D01*
X150276022Y-73138405D01*
X150215819Y-73154000D01*
X145162965Y-73154000D01*
X144990562Y-73184398D01*
X144826053Y-73244275D01*
X144674442Y-73331809D01*
X144540336Y-73444336D01*
X144427809Y-73578442D01*
X144340275Y-73730053D01*
X144280398Y-73894562D01*
X144250000Y-74066965D01*
X140200999Y-74066965D01*
X140170601Y-73894562D01*
X140110725Y-73730055D01*
X140023192Y-73578445D01*
X140023191Y-73578443D01*
X140023190Y-73578442D01*
X139910663Y-73444336D01*
X139776557Y-73331809D01*
X139624946Y-73244275D01*
X139460437Y-73184398D01*
X139288034Y-73154000D01*
X139288032Y-73154000D01*
X139266392Y-73154000D01*
X126266392Y-73154000D01*
X126200500Y-73154000D01*
X126112968Y-73154000D01*
X126112965Y-73154000D01*
X125940562Y-73184398D01*
X125776053Y-73244275D01*
X125624442Y-73331809D01*
X125490336Y-73444336D01*
X125377809Y-73578442D01*
X125290275Y-73730053D01*
X125230398Y-73894562D01*
X125200000Y-74066965D01*
X121150999Y-74066965D01*
X121120601Y-73894562D01*
X121060725Y-73730055D01*
X120973192Y-73578445D01*
X120973191Y-73578443D01*
X120973190Y-73578442D01*
X120860663Y-73444336D01*
X120726557Y-73331809D01*
X120574946Y-73244275D01*
X120410437Y-73184398D01*
X120238034Y-73154000D01*
X120238032Y-73154000D01*
X120216392Y-73154000D01*
X107216392Y-73154000D01*
X107150500Y-73154000D01*
X107062968Y-73154000D01*
X107062965Y-73154000D01*
X106890562Y-73184398D01*
X106726053Y-73244275D01*
X106574442Y-73331809D01*
X106440336Y-73444336D01*
X106327809Y-73578442D01*
X106240275Y-73730053D01*
X106180398Y-73894562D01*
X106150000Y-74066965D01*
X102100999Y-74066965D01*
X102070601Y-73894562D01*
X102010725Y-73730055D01*
X101923192Y-73578445D01*
X101923191Y-73578443D01*
X101923190Y-73578442D01*
X101810663Y-73444336D01*
X101676557Y-73331809D01*
X101524946Y-73244275D01*
X101360437Y-73184398D01*
X101188034Y-73154000D01*
X101188032Y-73154000D01*
X101166392Y-73154000D01*
X88166392Y-73154000D01*
X88100500Y-73154000D01*
X88012968Y-73154000D01*
X88012965Y-73154000D01*
X87840562Y-73184398D01*
X87676053Y-73244275D01*
X87524442Y-73331809D01*
X87390336Y-73444336D01*
X87277809Y-73578442D01*
X87190275Y-73730053D01*
X87130398Y-73894562D01*
X87100000Y-74066965D01*
X78288499Y-74066965D01*
X78258101Y-73894562D01*
X78198225Y-73730055D01*
X78110692Y-73578445D01*
X78110691Y-73578443D01*
X78110690Y-73578442D01*
X77998163Y-73444336D01*
X77864057Y-73331809D01*
X77712446Y-73244275D01*
X77547937Y-73184398D01*
X77375534Y-73154000D01*
X77375532Y-73154000D01*
X77353892Y-73154000D01*
X64353892Y-73154000D01*
X64288000Y-73154000D01*
X64200468Y-73154000D01*
X64200465Y-73154000D01*
X64028062Y-73184398D01*
X63863553Y-73244275D01*
X63711942Y-73331809D01*
X63577836Y-73444336D01*
X63465309Y-73578442D01*
X63377775Y-73730053D01*
X63317898Y-73894562D01*
X63287500Y-74066965D01*
X49713499Y-74066965D01*
X49683101Y-73894562D01*
X49623225Y-73730055D01*
X49535692Y-73578445D01*
X49535691Y-73578443D01*
X49535690Y-73578442D01*
X49423163Y-73444336D01*
X49289057Y-73331809D01*
X49137446Y-73244275D01*
X48972937Y-73184398D01*
X48800534Y-73154000D01*
X48800532Y-73154000D01*
X48778892Y-73154000D01*
X35778892Y-73154000D01*
X35713000Y-73154000D01*
X35625468Y-73154000D01*
X35625465Y-73154000D01*
X35453062Y-73184398D01*
X35288553Y-73244275D01*
X35136942Y-73331809D01*
X35002836Y-73444336D01*
X34890309Y-73578442D01*
X34802775Y-73730053D01*
X34742898Y-73894562D01*
X34712500Y-74066965D01*
X30907500Y-74066965D01*
X30907500Y-55016965D01*
X34712500Y-55016965D01*
X34712500Y-68192034D01*
X34742898Y-68364437D01*
X34802775Y-68528946D01*
X34890309Y-68680557D01*
X35002836Y-68814663D01*
X35136942Y-68927190D01*
X35136943Y-68927191D01*
X35136945Y-68927192D01*
X35288555Y-69014725D01*
X35453062Y-69074601D01*
X35625468Y-69105000D01*
X35625472Y-69105000D01*
X48800528Y-69105000D01*
X48800532Y-69105000D01*
X48972938Y-69074601D01*
X49137445Y-69014725D01*
X49289055Y-68927192D01*
X49423163Y-68814663D01*
X49535692Y-68680555D01*
X49623225Y-68528945D01*
X49683101Y-68364438D01*
X49713500Y-68192032D01*
X49713500Y-68104500D01*
X49713500Y-68038608D01*
X49713500Y-55038608D01*
X49713500Y-55016968D01*
X49713499Y-55016965D01*
X58525000Y-55016965D01*
X58525000Y-68192034D01*
X58555398Y-68364437D01*
X58615275Y-68528946D01*
X58702809Y-68680557D01*
X58815336Y-68814663D01*
X58949442Y-68927190D01*
X58949443Y-68927191D01*
X58949445Y-68927192D01*
X59101055Y-69014725D01*
X59265562Y-69074601D01*
X59437968Y-69105000D01*
X59437972Y-69105000D01*
X72613028Y-69105000D01*
X72613032Y-69105000D01*
X72785438Y-69074601D01*
X72949945Y-69014725D01*
X73101555Y-68927192D01*
X73235663Y-68814663D01*
X73348192Y-68680555D01*
X73435725Y-68528945D01*
X73495601Y-68364438D01*
X73526000Y-68192032D01*
X73526000Y-68104500D01*
X73526000Y-68038608D01*
X73526000Y-55038608D01*
X73526000Y-55016968D01*
X73525999Y-55016965D01*
X77575000Y-55016965D01*
X77575000Y-68192034D01*
X77605398Y-68364437D01*
X77665275Y-68528946D01*
X77752809Y-68680557D01*
X77865336Y-68814663D01*
X77999442Y-68927190D01*
X77999443Y-68927191D01*
X77999445Y-68927192D01*
X78151055Y-69014725D01*
X78315562Y-69074601D01*
X78487968Y-69105000D01*
X78487972Y-69105000D01*
X91663028Y-69105000D01*
X91663032Y-69105000D01*
X91835438Y-69074601D01*
X91999945Y-69014725D01*
X92151555Y-68927192D01*
X92285663Y-68814663D01*
X92398192Y-68680555D01*
X92485725Y-68528945D01*
X92545601Y-68364438D01*
X92576000Y-68192032D01*
X92576000Y-68104500D01*
X92576000Y-68038608D01*
X92576000Y-55038608D01*
X92576000Y-55016968D01*
X92575999Y-55016965D01*
X96625000Y-55016965D01*
X96625000Y-68192034D01*
X96655398Y-68364437D01*
X96715275Y-68528946D01*
X96802809Y-68680557D01*
X96915336Y-68814663D01*
X97049442Y-68927190D01*
X97049443Y-68927191D01*
X97049445Y-68927192D01*
X97201055Y-69014725D01*
X97365562Y-69074601D01*
X97537968Y-69105000D01*
X97537972Y-69105000D01*
X110713028Y-69105000D01*
X110713032Y-69105000D01*
X110885438Y-69074601D01*
X111049945Y-69014725D01*
X111201555Y-68927192D01*
X111335663Y-68814663D01*
X111448192Y-68680555D01*
X111535725Y-68528945D01*
X111595601Y-68364438D01*
X111626000Y-68192032D01*
X111626000Y-68104500D01*
X111626000Y-68038608D01*
X111626000Y-55038608D01*
X111626000Y-55016968D01*
X111625999Y-55016965D01*
X115675000Y-55016965D01*
X115675000Y-68192034D01*
X115705398Y-68364437D01*
X115765275Y-68528946D01*
X115852809Y-68680557D01*
X115965336Y-68814663D01*
X116099442Y-68927190D01*
X116099443Y-68927191D01*
X116099445Y-68927192D01*
X116251055Y-69014725D01*
X116415562Y-69074601D01*
X116587968Y-69105000D01*
X116587972Y-69105000D01*
X129763028Y-69105000D01*
X129763032Y-69105000D01*
X129935438Y-69074601D01*
X130099945Y-69014725D01*
X130251555Y-68927192D01*
X130385663Y-68814663D01*
X130498192Y-68680555D01*
X130585725Y-68528945D01*
X130645601Y-68364438D01*
X130676000Y-68192032D01*
X130676000Y-68104500D01*
X130676000Y-68038608D01*
X130676000Y-55038608D01*
X130676000Y-55016968D01*
X130675999Y-55016965D01*
X134725000Y-55016965D01*
X134725000Y-68192034D01*
X134755398Y-68364437D01*
X134815275Y-68528946D01*
X134902809Y-68680557D01*
X135015336Y-68814663D01*
X135149442Y-68927190D01*
X135149443Y-68927191D01*
X135149445Y-68927192D01*
X135301055Y-69014725D01*
X135465562Y-69074601D01*
X135637968Y-69105000D01*
X135637972Y-69105000D01*
X148813028Y-69105000D01*
X148813032Y-69105000D01*
X148985438Y-69074601D01*
X149149945Y-69014725D01*
X149301555Y-68927192D01*
X149435663Y-68814663D01*
X149548192Y-68680555D01*
X149635725Y-68528945D01*
X149695601Y-68364438D01*
X149726000Y-68192032D01*
X149726000Y-68104500D01*
X149726000Y-68038608D01*
X149726000Y-55038608D01*
X149726000Y-55016968D01*
X149725999Y-55016965D01*
X153775000Y-55016965D01*
X153775000Y-68192034D01*
X153805398Y-68364437D01*
X153865275Y-68528946D01*
X153952809Y-68680557D01*
X154065336Y-68814663D01*
X154199442Y-68927190D01*
X154199443Y-68927191D01*
X154199445Y-68927192D01*
X154351055Y-69014725D01*
X154515562Y-69074601D01*
X154687968Y-69105000D01*
X154687972Y-69105000D01*
X167863028Y-69105000D01*
X167863032Y-69105000D01*
X168035438Y-69074601D01*
X168199945Y-69014725D01*
X168351555Y-68927192D01*
X168485663Y-68814663D01*
X168598192Y-68680555D01*
X168685725Y-68528945D01*
X168745601Y-68364438D01*
X168776000Y-68192032D01*
X168776000Y-68104500D01*
X168776000Y-68038608D01*
X168776000Y-55038608D01*
X168776000Y-55016968D01*
X168745601Y-54844562D01*
X168685725Y-54680055D01*
X168598192Y-54528445D01*
X168598191Y-54528443D01*
X168598190Y-54528442D01*
X168485663Y-54394336D01*
X168351557Y-54281809D01*
X168199946Y-54194275D01*
X168035437Y-54134398D01*
X167863034Y-54104000D01*
X167863032Y-54104000D01*
X167841392Y-54104000D01*
X154841392Y-54104000D01*
X154775500Y-54104000D01*
X154687968Y-54104000D01*
X154687965Y-54104000D01*
X154515562Y-54134398D01*
X154351053Y-54194275D01*
X154199442Y-54281809D01*
X154065336Y-54394336D01*
X153952809Y-54528442D01*
X153865275Y-54680053D01*
X153805398Y-54844562D01*
X153775000Y-55016965D01*
X149725999Y-55016965D01*
X149695601Y-54844562D01*
X149635725Y-54680055D01*
X149548192Y-54528445D01*
X149548191Y-54528443D01*
X149548190Y-54528442D01*
X149435663Y-54394336D01*
X149301557Y-54281809D01*
X149149946Y-54194275D01*
X148985437Y-54134398D01*
X148813034Y-54104000D01*
X148813032Y-54104000D01*
X148791392Y-54104000D01*
X135791392Y-54104000D01*
X135725500Y-54104000D01*
X135637968Y-54104000D01*
X135637965Y-54104000D01*
X135465562Y-54134398D01*
X135301053Y-54194275D01*
X135149442Y-54281809D01*
X135015336Y-54394336D01*
X134902809Y-54528442D01*
X134815275Y-54680053D01*
X134755398Y-54844562D01*
X134725000Y-55016965D01*
X130675999Y-55016965D01*
X130645601Y-54844562D01*
X130585725Y-54680055D01*
X130498192Y-54528445D01*
X130498191Y-54528443D01*
X130498190Y-54528442D01*
X130385663Y-54394336D01*
X130251557Y-54281809D01*
X130099946Y-54194275D01*
X129935437Y-54134398D01*
X129763034Y-54104000D01*
X129763032Y-54104000D01*
X129741392Y-54104000D01*
X116741392Y-54104000D01*
X116675500Y-54104000D01*
X116587968Y-54104000D01*
X116587965Y-54104000D01*
X116415562Y-54134398D01*
X116251053Y-54194275D01*
X116099442Y-54281809D01*
X115965336Y-54394336D01*
X115852809Y-54528442D01*
X115765275Y-54680053D01*
X115705398Y-54844562D01*
X115675000Y-55016965D01*
X111625999Y-55016965D01*
X111595601Y-54844562D01*
X111535725Y-54680055D01*
X111448192Y-54528445D01*
X111448191Y-54528443D01*
X111448190Y-54528442D01*
X111335663Y-54394336D01*
X111201557Y-54281809D01*
X111049946Y-54194275D01*
X110885437Y-54134398D01*
X110713034Y-54104000D01*
X110713032Y-54104000D01*
X110691392Y-54104000D01*
X97691392Y-54104000D01*
X97625500Y-54104000D01*
X97537968Y-54104000D01*
X97537965Y-54104000D01*
X97365562Y-54134398D01*
X97201053Y-54194275D01*
X97049442Y-54281809D01*
X96915336Y-54394336D01*
X96802809Y-54528442D01*
X96715275Y-54680053D01*
X96655398Y-54844562D01*
X96625000Y-55016965D01*
X92575999Y-55016965D01*
X92545601Y-54844562D01*
X92485725Y-54680055D01*
X92398192Y-54528445D01*
X92398191Y-54528443D01*
X92398190Y-54528442D01*
X92285663Y-54394336D01*
X92151557Y-54281809D01*
X91999946Y-54194275D01*
X91835437Y-54134398D01*
X91663034Y-54104000D01*
X91663032Y-54104000D01*
X91641392Y-54104000D01*
X78641392Y-54104000D01*
X78575500Y-54104000D01*
X78487968Y-54104000D01*
X78487965Y-54104000D01*
X78315562Y-54134398D01*
X78151053Y-54194275D01*
X77999442Y-54281809D01*
X77865336Y-54394336D01*
X77752809Y-54528442D01*
X77665275Y-54680053D01*
X77605398Y-54844562D01*
X77575000Y-55016965D01*
X73525999Y-55016965D01*
X73495601Y-54844562D01*
X73435725Y-54680055D01*
X73348192Y-54528445D01*
X73348191Y-54528443D01*
X73348190Y-54528442D01*
X73235663Y-54394336D01*
X73101557Y-54281809D01*
X72949946Y-54194275D01*
X72785437Y-54134398D01*
X72613034Y-54104000D01*
X72613032Y-54104000D01*
X72591392Y-54104000D01*
X59591392Y-54104000D01*
X59525500Y-54104000D01*
X59437968Y-54104000D01*
X59437965Y-54104000D01*
X59265562Y-54134398D01*
X59101053Y-54194275D01*
X58949442Y-54281809D01*
X58815336Y-54394336D01*
X58702809Y-54528442D01*
X58615275Y-54680053D01*
X58555398Y-54844562D01*
X58525000Y-55016965D01*
X49713499Y-55016965D01*
X49683101Y-54844562D01*
X49623225Y-54680055D01*
X49535692Y-54528445D01*
X49535691Y-54528443D01*
X49535690Y-54528442D01*
X49423163Y-54394336D01*
X49289057Y-54281809D01*
X49137446Y-54194275D01*
X48972937Y-54134398D01*
X48800534Y-54104000D01*
X48800532Y-54104000D01*
X48778892Y-54104000D01*
X35778892Y-54104000D01*
X35713000Y-54104000D01*
X35625468Y-54104000D01*
X35625465Y-54104000D01*
X35453062Y-54134398D01*
X35288553Y-54194275D01*
X35136942Y-54281809D01*
X35002836Y-54394336D01*
X34890309Y-54528442D01*
X34802775Y-54680053D01*
X34742898Y-54844562D01*
X34712500Y-55016965D01*
X30907500Y-55016965D01*
X30907500Y-28822994D01*
X32002255Y-28822994D01*
X32002255Y-28823005D01*
X32021215Y-29124383D01*
X32021216Y-29124390D01*
X32077805Y-29421040D01*
X32171125Y-29708247D01*
X32171127Y-29708252D01*
X32299704Y-29981491D01*
X32299707Y-29981497D01*
X32461516Y-30236469D01*
X32542311Y-30334133D01*
X33470708Y-29405736D01*
X33567967Y-29539602D01*
X33690398Y-29662033D01*
X33824262Y-29759290D01*
X32893564Y-30689987D01*
X32893565Y-30689989D01*
X33118461Y-30853385D01*
X33118479Y-30853397D01*
X33383109Y-30998878D01*
X33383117Y-30998882D01*
X33663889Y-31110047D01*
X33663892Y-31110048D01*
X33956399Y-31185150D01*
X34255995Y-31222999D01*
X34256007Y-31223000D01*
X34557995Y-31223000D01*
X34557999Y-31222999D01*
X34572956Y-31221110D01*
X34641935Y-31232236D01*
X34693948Y-31278888D01*
X34712500Y-31344132D01*
X34712500Y-44379534D01*
X34742898Y-44551937D01*
X34802775Y-44716446D01*
X34890309Y-44868057D01*
X35002836Y-45002163D01*
X35136942Y-45114690D01*
X35136943Y-45114691D01*
X35136945Y-45114692D01*
X35288555Y-45202225D01*
X35453062Y-45262101D01*
X35625468Y-45292500D01*
X35625472Y-45292500D01*
X48800528Y-45292500D01*
X48800532Y-45292500D01*
X48972938Y-45262101D01*
X49137445Y-45202225D01*
X49289055Y-45114692D01*
X49423163Y-45002163D01*
X49535692Y-44868055D01*
X49623225Y-44716445D01*
X49683101Y-44551938D01*
X49713500Y-44379532D01*
X49713500Y-44292000D01*
X49713500Y-44226108D01*
X49713500Y-31226108D01*
X49713500Y-31204468D01*
X49713499Y-31204465D01*
X58525000Y-31204465D01*
X58525000Y-44379534D01*
X58555398Y-44551937D01*
X58615275Y-44716446D01*
X58702809Y-44868057D01*
X58815336Y-45002163D01*
X58949442Y-45114690D01*
X58949443Y-45114691D01*
X58949445Y-45114692D01*
X59101055Y-45202225D01*
X59265562Y-45262101D01*
X59437968Y-45292500D01*
X59437972Y-45292500D01*
X72613028Y-45292500D01*
X72613032Y-45292500D01*
X72785438Y-45262101D01*
X72949945Y-45202225D01*
X73101555Y-45114692D01*
X73235663Y-45002163D01*
X73348192Y-44868055D01*
X73435725Y-44716445D01*
X73495601Y-44551938D01*
X73526000Y-44379532D01*
X73526000Y-44292000D01*
X73526000Y-44226108D01*
X73526000Y-31226108D01*
X73526000Y-31204468D01*
X73525999Y-31204465D01*
X82337500Y-31204465D01*
X82337500Y-44379534D01*
X82367898Y-44551937D01*
X82427775Y-44716446D01*
X82515309Y-44868057D01*
X82627836Y-45002163D01*
X82761942Y-45114690D01*
X82761943Y-45114691D01*
X82761945Y-45114692D01*
X82913555Y-45202225D01*
X83078062Y-45262101D01*
X83250468Y-45292500D01*
X83250472Y-45292500D01*
X96425528Y-45292500D01*
X96425532Y-45292500D01*
X96597938Y-45262101D01*
X96762445Y-45202225D01*
X96914055Y-45114692D01*
X97048163Y-45002163D01*
X97160692Y-44868055D01*
X97248225Y-44716445D01*
X97308101Y-44551938D01*
X97338500Y-44379532D01*
X97338500Y-44292000D01*
X97338500Y-44226108D01*
X97338500Y-31226108D01*
X97338500Y-31204468D01*
X97338499Y-31204465D01*
X101387500Y-31204465D01*
X101387500Y-44379534D01*
X101417898Y-44551937D01*
X101477775Y-44716446D01*
X101565309Y-44868057D01*
X101677836Y-45002163D01*
X101811942Y-45114690D01*
X101811943Y-45114691D01*
X101811945Y-45114692D01*
X101963555Y-45202225D01*
X102128062Y-45262101D01*
X102300468Y-45292500D01*
X102300472Y-45292500D01*
X115475528Y-45292500D01*
X115475532Y-45292500D01*
X115647938Y-45262101D01*
X115812445Y-45202225D01*
X115964055Y-45114692D01*
X116098163Y-45002163D01*
X116210692Y-44868055D01*
X116298225Y-44716445D01*
X116358101Y-44551938D01*
X116388500Y-44379532D01*
X116388500Y-44292000D01*
X116388500Y-44226108D01*
X116388500Y-31226108D01*
X116388500Y-31204468D01*
X116388499Y-31204465D01*
X120437500Y-31204465D01*
X120437500Y-44379534D01*
X120467898Y-44551937D01*
X120527775Y-44716446D01*
X120615309Y-44868057D01*
X120727836Y-45002163D01*
X120861942Y-45114690D01*
X120861943Y-45114691D01*
X120861945Y-45114692D01*
X121013555Y-45202225D01*
X121178062Y-45262101D01*
X121350468Y-45292500D01*
X121350472Y-45292500D01*
X134525528Y-45292500D01*
X134525532Y-45292500D01*
X134697938Y-45262101D01*
X134862445Y-45202225D01*
X135014055Y-45114692D01*
X135148163Y-45002163D01*
X135260692Y-44868055D01*
X135348225Y-44716445D01*
X135408101Y-44551938D01*
X135438500Y-44379532D01*
X135438500Y-44292000D01*
X135438500Y-44226108D01*
X135438500Y-31226108D01*
X135438500Y-31204468D01*
X135438499Y-31204465D01*
X139487500Y-31204465D01*
X139487500Y-44379534D01*
X139517898Y-44551937D01*
X139577775Y-44716446D01*
X139665309Y-44868057D01*
X139777836Y-45002163D01*
X139911942Y-45114690D01*
X139911943Y-45114691D01*
X139911945Y-45114692D01*
X140063555Y-45202225D01*
X140228062Y-45262101D01*
X140400468Y-45292500D01*
X140400472Y-45292500D01*
X153575528Y-45292500D01*
X153575532Y-45292500D01*
X153747938Y-45262101D01*
X153912445Y-45202225D01*
X154064055Y-45114692D01*
X154198163Y-45002163D01*
X154310692Y-44868055D01*
X154398225Y-44716445D01*
X154458101Y-44551938D01*
X154488500Y-44379532D01*
X154488500Y-44292000D01*
X154488500Y-44226108D01*
X154488500Y-31226108D01*
X154488500Y-31204468D01*
X154458101Y-31032062D01*
X154398225Y-30867555D01*
X154310692Y-30715945D01*
X154310691Y-30715943D01*
X154310690Y-30715942D01*
X154198163Y-30581836D01*
X154064057Y-30469309D01*
X153912446Y-30381775D01*
X153747937Y-30321898D01*
X153575534Y-30291500D01*
X153575532Y-30291500D01*
X153553892Y-30291500D01*
X140553892Y-30291500D01*
X140488000Y-30291500D01*
X140400468Y-30291500D01*
X140400465Y-30291500D01*
X140228062Y-30321898D01*
X140063553Y-30381775D01*
X139911942Y-30469309D01*
X139777836Y-30581836D01*
X139665309Y-30715942D01*
X139577775Y-30867553D01*
X139517898Y-31032062D01*
X139487500Y-31204465D01*
X135438499Y-31204465D01*
X135408101Y-31032062D01*
X135348225Y-30867555D01*
X135260692Y-30715945D01*
X135260691Y-30715943D01*
X135260690Y-30715942D01*
X135148163Y-30581836D01*
X135014057Y-30469309D01*
X134862446Y-30381775D01*
X134697937Y-30321898D01*
X134525534Y-30291500D01*
X134525532Y-30291500D01*
X134503892Y-30291500D01*
X121503892Y-30291500D01*
X121438000Y-30291500D01*
X121350468Y-30291500D01*
X121350465Y-30291500D01*
X121178062Y-30321898D01*
X121013553Y-30381775D01*
X120861942Y-30469309D01*
X120727836Y-30581836D01*
X120615309Y-30715942D01*
X120527775Y-30867553D01*
X120467898Y-31032062D01*
X120437500Y-31204465D01*
X116388499Y-31204465D01*
X116358101Y-31032062D01*
X116298225Y-30867555D01*
X116210692Y-30715945D01*
X116210691Y-30715943D01*
X116210690Y-30715942D01*
X116098163Y-30581836D01*
X115964057Y-30469309D01*
X115812446Y-30381775D01*
X115647937Y-30321898D01*
X115475534Y-30291500D01*
X115475532Y-30291500D01*
X115453892Y-30291500D01*
X102453892Y-30291500D01*
X102388000Y-30291500D01*
X102300468Y-30291500D01*
X102300465Y-30291500D01*
X102128062Y-30321898D01*
X101963553Y-30381775D01*
X101811942Y-30469309D01*
X101677836Y-30581836D01*
X101565309Y-30715942D01*
X101477775Y-30867553D01*
X101417898Y-31032062D01*
X101387500Y-31204465D01*
X97338499Y-31204465D01*
X97308101Y-31032062D01*
X97248225Y-30867555D01*
X97160692Y-30715945D01*
X97160691Y-30715943D01*
X97160690Y-30715942D01*
X97048163Y-30581836D01*
X96914057Y-30469309D01*
X96762446Y-30381775D01*
X96597937Y-30321898D01*
X96425534Y-30291500D01*
X96425532Y-30291500D01*
X96403892Y-30291500D01*
X83403892Y-30291500D01*
X83338000Y-30291500D01*
X83250468Y-30291500D01*
X83250465Y-30291500D01*
X83078062Y-30321898D01*
X82913553Y-30381775D01*
X82761942Y-30469309D01*
X82627836Y-30581836D01*
X82515309Y-30715942D01*
X82427775Y-30867553D01*
X82367898Y-31032062D01*
X82337500Y-31204465D01*
X73525999Y-31204465D01*
X73495601Y-31032062D01*
X73435725Y-30867555D01*
X73348192Y-30715945D01*
X73348191Y-30715943D01*
X73348190Y-30715942D01*
X73235663Y-30581836D01*
X73101557Y-30469309D01*
X72949946Y-30381775D01*
X72785437Y-30321898D01*
X72613034Y-30291500D01*
X72613032Y-30291500D01*
X72591392Y-30291500D01*
X59591392Y-30291500D01*
X59525500Y-30291500D01*
X59437968Y-30291500D01*
X59437965Y-30291500D01*
X59265562Y-30321898D01*
X59101053Y-30381775D01*
X58949442Y-30469309D01*
X58815336Y-30581836D01*
X58702809Y-30715942D01*
X58615275Y-30867553D01*
X58555398Y-31032062D01*
X58525000Y-31204465D01*
X49713499Y-31204465D01*
X49683101Y-31032062D01*
X49623225Y-30867555D01*
X49535692Y-30715945D01*
X49535691Y-30715943D01*
X49535690Y-30715942D01*
X49423163Y-30581836D01*
X49289057Y-30469309D01*
X49137446Y-30381775D01*
X48972937Y-30321898D01*
X48800534Y-30291500D01*
X48800532Y-30291500D01*
X48778892Y-30291500D01*
X36543115Y-30291500D01*
X36476076Y-30271815D01*
X36430321Y-30219011D01*
X36420377Y-30149853D01*
X36438418Y-30101058D01*
X36514292Y-29981497D01*
X36514295Y-29981491D01*
X36642872Y-29708252D01*
X36642874Y-29708247D01*
X36736194Y-29421040D01*
X36792783Y-29124390D01*
X36792784Y-29124383D01*
X36811745Y-28823005D01*
X36811745Y-28822994D01*
X36792784Y-28521616D01*
X36792783Y-28521609D01*
X36736194Y-28224959D01*
X36642874Y-27937752D01*
X36642872Y-27937747D01*
X36514295Y-27664508D01*
X36514292Y-27664502D01*
X36352483Y-27409530D01*
X36271686Y-27311864D01*
X35343289Y-28240261D01*
X35246033Y-28106398D01*
X35123602Y-27983967D01*
X34989736Y-27886709D01*
X35920434Y-26956011D01*
X35920433Y-26956009D01*
X35695538Y-26792614D01*
X35695520Y-26792602D01*
X35430890Y-26647121D01*
X35430882Y-26647117D01*
X35150110Y-26535952D01*
X35150107Y-26535951D01*
X34857600Y-26460849D01*
X34558004Y-26423000D01*
X34255995Y-26423000D01*
X33956399Y-26460849D01*
X33663892Y-26535951D01*
X33663889Y-26535952D01*
X33383117Y-26647117D01*
X33383109Y-26647121D01*
X33118476Y-26792604D01*
X33118471Y-26792607D01*
X32893565Y-26956010D01*
X32893564Y-26956011D01*
X33824262Y-27886709D01*
X33690398Y-27983967D01*
X33567967Y-28106398D01*
X33470709Y-28240262D01*
X32542311Y-27311864D01*
X32461520Y-27409525D01*
X32461518Y-27409528D01*
X32299707Y-27664502D01*
X32299704Y-27664508D01*
X32171127Y-27937747D01*
X32171125Y-27937752D01*
X32077805Y-28224959D01*
X32021216Y-28521609D01*
X32021215Y-28521616D01*
X32002255Y-28822994D01*
X30907500Y-28822994D01*
X30907500Y-26804426D01*
X30907816Y-26795580D01*
X30918434Y-26647121D01*
X30922130Y-26595435D01*
X30924646Y-26577938D01*
X30966356Y-26386199D01*
X30971333Y-26369248D01*
X31039911Y-26185385D01*
X31047259Y-26169298D01*
X31065849Y-26135253D01*
X31141291Y-25997089D01*
X31150845Y-25982221D01*
X31268448Y-25825123D01*
X31280020Y-25811769D01*
X31418769Y-25673020D01*
X31432123Y-25661448D01*
X31589221Y-25543845D01*
X31604089Y-25534291D01*
X31776298Y-25440258D01*
X31792385Y-25432911D01*
X31976248Y-25364333D01*
X31993199Y-25359356D01*
X32184938Y-25317646D01*
X32202435Y-25315130D01*
X32402581Y-25300816D01*
X32411427Y-25300500D01*
X39365890Y-25300500D01*
X39365892Y-25300500D01*
X39493186Y-25266392D01*
X39607314Y-25200500D01*
X39700500Y-25107314D01*
X39766392Y-24993186D01*
X39800500Y-24865892D01*
X39800500Y-22904427D01*
X39800816Y-22895581D01*
X39815130Y-22695443D01*
X39815131Y-22695442D01*
X39815130Y-22695436D01*
X39817646Y-22677938D01*
X39859356Y-22486199D01*
X39864333Y-22469248D01*
X39932911Y-22285385D01*
X39940259Y-22269298D01*
X40002815Y-22154734D01*
X40034291Y-22097089D01*
X40043845Y-22082221D01*
X40161448Y-21925123D01*
X40173020Y-21911769D01*
X40311769Y-21773020D01*
X40325123Y-21761448D01*
X40482221Y-21643845D01*
X40497089Y-21634291D01*
X40669298Y-21540258D01*
X40685385Y-21532911D01*
X40869248Y-21464333D01*
X40886199Y-21459356D01*
X41077938Y-21417646D01*
X41095436Y-21415130D01*
X41295582Y-21400816D01*
X41304428Y-21400500D01*
X41365892Y-21400500D01*
X57034108Y-21400500D01*
X57095572Y-21400500D01*
X57104418Y-21400816D01*
X57304561Y-21415130D01*
X57322063Y-21417647D01*
X57513797Y-21459355D01*
X57530755Y-21464334D01*
X57714609Y-21532909D01*
X57730701Y-21540259D01*
X57902904Y-21634288D01*
X57917784Y-21643849D01*
X58074867Y-21761441D01*
X58088237Y-21773027D01*
X58226972Y-21911762D01*
X58238558Y-21925132D01*
X58356146Y-22082210D01*
X58365711Y-22097095D01*
X58459740Y-22269298D01*
X58467090Y-22285390D01*
X58535662Y-22469236D01*
X58540646Y-22486212D01*
X58582351Y-22677931D01*
X58584869Y-22695442D01*
X58599184Y-22895580D01*
X58599500Y-22904427D01*
X58599500Y-24865891D01*
X58633608Y-24993187D01*
X58635462Y-24996398D01*
X58699500Y-25107314D01*
X58792686Y-25200500D01*
X58906814Y-25266392D01*
X59034108Y-25300500D01*
X84645500Y-25300500D01*
X84712539Y-25320185D01*
X84758294Y-25372989D01*
X84769500Y-25424500D01*
X84769500Y-28032891D01*
X84803608Y-28160187D01*
X84836554Y-28217250D01*
X84869500Y-28274314D01*
X84962686Y-28367500D01*
X85076814Y-28433392D01*
X85204108Y-28467500D01*
X85204110Y-28467500D01*
X126216890Y-28467500D01*
X126216892Y-28467500D01*
X126344186Y-28433392D01*
X126458314Y-28367500D01*
X126551500Y-28274314D01*
X126617392Y-28160186D01*
X126651500Y-28032892D01*
X126651500Y-26998995D01*
X133708499Y-26998995D01*
X133735418Y-27134322D01*
X133735421Y-27134332D01*
X133788221Y-27261804D01*
X133788228Y-27261817D01*
X133864885Y-27376541D01*
X133864888Y-27376545D01*
X133962454Y-27474111D01*
X133962458Y-27474114D01*
X134077182Y-27550771D01*
X134077195Y-27550778D01*
X134204667Y-27603578D01*
X134204672Y-27603580D01*
X134204676Y-27603580D01*
X134204677Y-27603581D01*
X134340004Y-27630500D01*
X134340007Y-27630500D01*
X139515995Y-27630500D01*
X139607041Y-27612389D01*
X139651328Y-27603580D01*
X139778811Y-27550775D01*
X139893542Y-27474114D01*
X139991114Y-27376542D01*
X140067775Y-27261811D01*
X140120580Y-27134328D01*
X140147500Y-26998993D01*
X140147500Y-26930000D01*
X140147500Y-26864108D01*
X140147500Y-25712994D01*
X144042255Y-25712994D01*
X144042255Y-25713005D01*
X144061215Y-26014383D01*
X144061216Y-26014390D01*
X144117805Y-26311040D01*
X144211125Y-26598247D01*
X144211127Y-26598252D01*
X144339704Y-26871491D01*
X144339707Y-26871497D01*
X144501516Y-27126469D01*
X144582311Y-27224133D01*
X145510708Y-26295736D01*
X145607967Y-26429602D01*
X145730398Y-26552033D01*
X145864262Y-26649290D01*
X144933564Y-27579987D01*
X144933565Y-27579989D01*
X145158461Y-27743385D01*
X145158479Y-27743397D01*
X145423109Y-27888878D01*
X145423117Y-27888882D01*
X145703889Y-28000047D01*
X145703892Y-28000048D01*
X145996399Y-28075150D01*
X146295995Y-28112999D01*
X146296007Y-28113000D01*
X146597993Y-28113000D01*
X146598004Y-28112999D01*
X146897600Y-28075150D01*
X147190107Y-28000048D01*
X147190110Y-28000047D01*
X147470882Y-27888882D01*
X147470890Y-27888878D01*
X147735520Y-27743397D01*
X147735530Y-27743390D01*
X147960433Y-27579987D01*
X147960434Y-27579987D01*
X147029737Y-26649290D01*
X147163602Y-26552033D01*
X147286033Y-26429602D01*
X147383290Y-26295737D01*
X148311687Y-27224134D01*
X148392486Y-27126464D01*
X148554292Y-26871497D01*
X148554295Y-26871491D01*
X148682872Y-26598252D01*
X148682874Y-26598247D01*
X148776194Y-26311040D01*
X148832783Y-26014390D01*
X148832784Y-26014383D01*
X148851745Y-25713005D01*
X148851745Y-25712994D01*
X148832784Y-25411616D01*
X148832783Y-25411609D01*
X148776194Y-25114959D01*
X148682874Y-24827752D01*
X148682872Y-24827747D01*
X148554295Y-24554508D01*
X148554292Y-24554502D01*
X148392483Y-24299530D01*
X148311686Y-24201864D01*
X147383289Y-25130261D01*
X147286033Y-24996398D01*
X147163602Y-24873967D01*
X147029736Y-24776709D01*
X147960434Y-23846011D01*
X147960433Y-23846009D01*
X147735538Y-23682614D01*
X147735520Y-23682602D01*
X147470890Y-23537121D01*
X147470882Y-23537117D01*
X147190110Y-23425952D01*
X147190107Y-23425951D01*
X146897600Y-23350849D01*
X146598004Y-23313000D01*
X146295995Y-23313000D01*
X145996399Y-23350849D01*
X145703892Y-23425951D01*
X145703889Y-23425952D01*
X145423117Y-23537117D01*
X145423109Y-23537121D01*
X145158476Y-23682604D01*
X145158471Y-23682607D01*
X144933565Y-23846010D01*
X144933564Y-23846011D01*
X145864262Y-24776709D01*
X145730398Y-24873967D01*
X145607967Y-24996398D01*
X145510709Y-25130262D01*
X144582311Y-24201864D01*
X144501520Y-24299525D01*
X144501518Y-24299528D01*
X144339707Y-24554502D01*
X144339704Y-24554508D01*
X144211127Y-24827747D01*
X144211125Y-24827752D01*
X144117805Y-25114959D01*
X144061216Y-25411609D01*
X144061215Y-25411616D01*
X144042255Y-25712994D01*
X140147500Y-25712994D01*
X140147500Y-23064108D01*
X140147500Y-23061007D01*
X140147500Y-23061004D01*
X140120581Y-22925677D01*
X140120580Y-22925676D01*
X140120580Y-22925672D01*
X140111780Y-22904427D01*
X140067778Y-22798195D01*
X140067771Y-22798182D01*
X139991114Y-22683458D01*
X139991111Y-22683454D01*
X139893545Y-22585888D01*
X139893541Y-22585885D01*
X139778817Y-22509228D01*
X139778804Y-22509221D01*
X139651332Y-22456421D01*
X139651322Y-22456418D01*
X139515995Y-22429500D01*
X139515993Y-22429500D01*
X139512892Y-22429500D01*
X134474892Y-22429500D01*
X134409000Y-22429500D01*
X134340007Y-22429500D01*
X134340005Y-22429500D01*
X134204677Y-22456418D01*
X134204667Y-22456421D01*
X134077195Y-22509221D01*
X134077182Y-22509228D01*
X133962458Y-22585885D01*
X133962454Y-22585888D01*
X133864888Y-22683454D01*
X133864885Y-22683458D01*
X133788228Y-22798182D01*
X133788221Y-22798195D01*
X133735421Y-22925667D01*
X133735418Y-22925677D01*
X133708500Y-23061004D01*
X133708500Y-23061007D01*
X133708500Y-23064108D01*
X133708500Y-26864108D01*
X133708500Y-26930000D01*
X133708500Y-26998993D01*
X133708500Y-26998995D01*
X133708499Y-26998995D01*
X126651500Y-26998995D01*
X126651500Y-21036500D01*
X126671185Y-20969461D01*
X126723989Y-20923706D01*
X126775500Y-20912500D01*
X160526500Y-20912500D01*
X160593539Y-20932185D01*
G37*
%TD.AperFunction*%
%TD*%
M02*
