%TF.GenerationSoftware,KiCad,Pcbnew,8.0.4*%
%TF.CreationDate,2025-09-04T18:09:28-05:00*%
%TF.ProjectId,numlocked_left_plate,6e756d6c-6f63-46b6-9564-5f6c6566745f,rev?*%
%TF.SameCoordinates,Original*%
%TF.FileFunction,Profile,NP*%
%FSLAX46Y46*%
G04 Gerber Fmt 4.6, Leading zero omitted, Abs format (unit mm)*
G04 Created by KiCad (PCBNEW 8.0.4) date 2025-09-04 18:09:28*
%MOMM*%
%LPD*%
G01*
G04 APERTURE LIST*
%TA.AperFunction,Profile*%
%ADD10C,0.200000*%
%TD*%
G04 APERTURE END LIST*
D10*
X140961800Y-131804524D02*
X140961800Y-131804500D01*
X139844200Y-145804476D02*
X139844200Y-145804500D01*
X232989250Y-132804600D02*
X232989250Y-144804500D01*
X235094250Y-131804500D02*
X233979300Y-131804500D01*
X233989200Y-145804500D02*
X235094250Y-145804500D01*
X232989250Y-132804600D02*
G75*
G02*
X233979300Y-131804501I1000150J0D01*
G01*
X233989200Y-145804500D02*
G75*
G02*
X232989300Y-144804500I0J999900D01*
G01*
X209113250Y-132804600D02*
X209113250Y-144804500D01*
X215863250Y-144804400D02*
X215863250Y-132804500D01*
X214863300Y-131804500D02*
X210103300Y-131804500D01*
X210113200Y-145804500D02*
X214873099Y-145804500D01*
X209113250Y-132804600D02*
G75*
G02*
X210103300Y-131804501I1000150J0D01*
G01*
X214863300Y-131804500D02*
G75*
G02*
X215863200Y-132804500I0J-999900D01*
G01*
X215863250Y-144804400D02*
G75*
G02*
X214873099Y-145804500I-1000150J0D01*
G01*
X210113200Y-145804500D02*
G75*
G02*
X209113300Y-144804500I0J999900D01*
G01*
X217426250Y-131304500D02*
X217426250Y-144311400D01*
X231426250Y-144304500D02*
X231426250Y-131297529D01*
X230926200Y-130804500D02*
X217926250Y-130804500D01*
X217926400Y-144804500D02*
X230926250Y-144804500D01*
X217426250Y-131304500D02*
G75*
G02*
X217926250Y-130804550I499950J0D01*
G01*
X230926200Y-130804500D02*
G75*
G02*
X231426249Y-131297529I-100J-500200D01*
G01*
X231426250Y-144304500D02*
G75*
G02*
X230926250Y-144804450I-499950J0D01*
G01*
X217926400Y-144804500D02*
G75*
G02*
X217426250Y-144311400I0J500200D01*
G01*
X199327000Y-144304500D02*
X199327000Y-131304500D01*
X198827000Y-130804500D02*
X193969250Y-130804500D01*
X193969250Y-144804500D02*
X198827000Y-144804500D01*
X198827000Y-130804500D02*
G75*
G02*
X199327000Y-131304500I0J-500000D01*
G01*
X199327000Y-144304500D02*
G75*
G02*
X198827000Y-144804500I-500000J0D01*
G01*
X163837750Y-132804500D02*
X163837750Y-144804500D01*
X170587750Y-144804400D02*
X170587750Y-132804500D01*
X169587800Y-131804500D02*
X164827800Y-131804500D01*
X164837700Y-145804500D02*
X169597599Y-145804500D01*
X163837750Y-132804500D02*
G75*
G02*
X164827800Y-131804501I1000150J-100D01*
G01*
X169587800Y-131804500D02*
G75*
G02*
X170587700Y-132804500I0J-999900D01*
G01*
X170587750Y-144804400D02*
G75*
G02*
X169597599Y-145804500I-1000150J0D01*
G01*
X164837700Y-145804500D02*
G75*
G02*
X163837800Y-144804500I0J999900D01*
G01*
X146711750Y-144804400D02*
X146711750Y-132804500D01*
X145711800Y-131804500D02*
X140961800Y-131804500D01*
X140961700Y-145804500D02*
X145721599Y-145804500D01*
X140403000Y-131975164D02*
G75*
G02*
X140961800Y-131804545I558700J-829436D01*
G01*
X145711800Y-131804500D02*
G75*
G02*
X146711700Y-132804500I0J-999900D01*
G01*
X146711750Y-144804400D02*
G75*
G02*
X145721599Y-145804500I-1000150J0D01*
G01*
X140961700Y-145804500D02*
G75*
G02*
X140403013Y-145633817I0J999700D01*
G01*
X148274750Y-131304500D02*
X148274750Y-144311400D01*
X162274750Y-144304500D02*
X162274750Y-131297529D01*
X161774600Y-130804500D02*
X148774750Y-130804500D01*
X148774900Y-144804500D02*
X161774750Y-144804500D01*
X148274750Y-131304500D02*
G75*
G02*
X148774750Y-130804550I499950J0D01*
G01*
X161774600Y-130804500D02*
G75*
G02*
X162274749Y-131297529I0J-500200D01*
G01*
X162274750Y-144304500D02*
G75*
G02*
X161774750Y-144804450I-499950J0D01*
G01*
X148774900Y-144804500D02*
G75*
G02*
X148274750Y-144311400I0J500200D01*
G01*
X240844250Y-144804400D02*
X240844250Y-132804500D01*
X238739250Y-131804500D02*
X235094250Y-131804500D01*
X239844300Y-131804500D02*
X238739250Y-131804500D01*
X238739250Y-145804500D02*
X239854099Y-145804500D01*
X235094250Y-145804500D02*
X238739250Y-145804500D01*
X239844300Y-131804500D02*
G75*
G02*
X240844200Y-132804500I0J-999900D01*
G01*
X240844250Y-144804400D02*
G75*
G02*
X239854099Y-145804500I-1000150J0D01*
G01*
X134094250Y-132804600D02*
X134094250Y-144804500D01*
X139844300Y-131804500D02*
X135084300Y-131804500D01*
X135094200Y-145804500D02*
X139844200Y-145804500D01*
X134094250Y-132804600D02*
G75*
G02*
X135084300Y-131804501I1000150J0D01*
G01*
X139844300Y-131804500D02*
G75*
G02*
X140402987Y-131975183I0J-999700D01*
G01*
X140403000Y-145633836D02*
G75*
G02*
X139844200Y-145804455I-558700J829436D01*
G01*
X135094200Y-145804500D02*
G75*
G02*
X134094300Y-144804500I0J999900D01*
G01*
X180469250Y-131304500D02*
X180469250Y-144311400D01*
X185827000Y-130804500D02*
X180969250Y-130804500D01*
X193969250Y-130804500D02*
X185827000Y-130804500D01*
X185827000Y-144804500D02*
X193969250Y-144804500D01*
X180969300Y-144804500D02*
X185827000Y-144804500D01*
X180469250Y-131304500D02*
G75*
G02*
X180969250Y-130804550I499950J0D01*
G01*
X180969300Y-144804500D02*
G75*
G02*
X180469250Y-144311400I100J500200D01*
G01*
X109031750Y-131304500D02*
X109031750Y-144311400D01*
X123031750Y-144304500D02*
X123031750Y-131297529D01*
X122531600Y-130804500D02*
X109531750Y-130804500D01*
X109531900Y-144804500D02*
X122531750Y-144804500D01*
X109031750Y-131304500D02*
G75*
G02*
X109531750Y-130804550I499950J0D01*
G01*
X122531600Y-130804500D02*
G75*
G02*
X123031749Y-131297529I0J-500200D01*
G01*
X123031750Y-144304500D02*
G75*
G02*
X122531750Y-144804450I-499950J0D01*
G01*
X109531900Y-144804500D02*
G75*
G02*
X109031750Y-144311400I0J500200D01*
G01*
X85219250Y-131304500D02*
X85219250Y-144311400D01*
X99219250Y-144304500D02*
X99219250Y-131297529D01*
X98719100Y-130804500D02*
X85719250Y-130804500D01*
X85719400Y-144804500D02*
X98719250Y-144804500D01*
X85219250Y-131304500D02*
G75*
G02*
X85719250Y-130804550I499950J0D01*
G01*
X98719100Y-130804500D02*
G75*
G02*
X99219249Y-131297529I0J-500200D01*
G01*
X99219250Y-144304500D02*
G75*
G02*
X98719250Y-144804450I-499950J0D01*
G01*
X85719400Y-144804500D02*
G75*
G02*
X85219250Y-144311400I0J500200D01*
G01*
X61406750Y-131304500D02*
X61406750Y-144311400D01*
X75406750Y-144304500D02*
X75406750Y-131297529D01*
X74906600Y-130804500D02*
X61906750Y-130804500D01*
X61906800Y-144804500D02*
X74906750Y-144804500D01*
X61406750Y-131304500D02*
G75*
G02*
X61906750Y-130804550I499950J0D01*
G01*
X74906600Y-130804500D02*
G75*
G02*
X75406749Y-131297529I0J-500200D01*
G01*
X75406750Y-144304500D02*
G75*
G02*
X74906750Y-144804450I-499950J0D01*
G01*
X61906800Y-144804500D02*
G75*
G02*
X61406750Y-144311400I100J500200D01*
G01*
X35213000Y-131304500D02*
X35213000Y-144304500D01*
X49213000Y-144304500D02*
X49213000Y-131304500D01*
X48713000Y-130804500D02*
X35713000Y-130804500D01*
X35713000Y-144804500D02*
X48713000Y-144804500D01*
X35213000Y-131304500D02*
G75*
G02*
X35713000Y-130804500I500000J0D01*
G01*
X48713000Y-130804500D02*
G75*
G02*
X49213000Y-131304500I0J-500000D01*
G01*
X49213000Y-144304500D02*
G75*
G02*
X48713000Y-144804500I-500000J0D01*
G01*
X35713000Y-144804500D02*
G75*
G02*
X35213000Y-144304500I0J500000D01*
G01*
X178088000Y-112254500D02*
X178088000Y-125254500D01*
X192088000Y-125254500D02*
X192088000Y-112254500D01*
X191588000Y-111754500D02*
X178588000Y-111754500D01*
X178588000Y-125754500D02*
X191588000Y-125754500D01*
X178088000Y-112254500D02*
G75*
G02*
X178588000Y-111754500I500000J0D01*
G01*
X191588000Y-111754500D02*
G75*
G02*
X192088000Y-112254500I0J-500000D01*
G01*
X192088000Y-125254500D02*
G75*
G02*
X191588000Y-125754500I-500000J0D01*
G01*
X178588000Y-125754500D02*
G75*
G02*
X178088000Y-125254500I0J500000D01*
G01*
X159038000Y-112254500D02*
X159038000Y-125254500D01*
X173038000Y-125254500D02*
X173038000Y-112254500D01*
X172538000Y-111754500D02*
X159538000Y-111754500D01*
X159538000Y-125754500D02*
X172538000Y-125754500D01*
X159038000Y-112254500D02*
G75*
G02*
X159538000Y-111754500I500000J0D01*
G01*
X172538000Y-111754500D02*
G75*
G02*
X173038000Y-112254500I0J-500000D01*
G01*
X173038000Y-125254500D02*
G75*
G02*
X172538000Y-125754500I-500000J0D01*
G01*
X159538000Y-125754500D02*
G75*
G02*
X159038000Y-125254500I0J500000D01*
G01*
X139988000Y-112254500D02*
X139988000Y-125254500D01*
X153988000Y-125254500D02*
X153988000Y-112254500D01*
X153488000Y-111754500D02*
X140488000Y-111754500D01*
X140488000Y-125754500D02*
X153488000Y-125754500D01*
X139988000Y-112254500D02*
G75*
G02*
X140488000Y-111754500I500000J0D01*
G01*
X153488000Y-111754500D02*
G75*
G02*
X153988000Y-112254500I0J-500000D01*
G01*
X153988000Y-125254500D02*
G75*
G02*
X153488000Y-125754500I-500000J0D01*
G01*
X140488000Y-125754500D02*
G75*
G02*
X139988000Y-125254500I0J500000D01*
G01*
X120938000Y-112254500D02*
X120938000Y-125254500D01*
X134938000Y-125254500D02*
X134938000Y-112254500D01*
X134438000Y-111754500D02*
X121438000Y-111754500D01*
X121438000Y-125754500D02*
X134438000Y-125754500D01*
X120938000Y-112254500D02*
G75*
G02*
X121438000Y-111754500I500000J0D01*
G01*
X134438000Y-111754500D02*
G75*
G02*
X134938000Y-112254500I0J-500000D01*
G01*
X134938000Y-125254500D02*
G75*
G02*
X134438000Y-125754500I-500000J0D01*
G01*
X121438000Y-125754500D02*
G75*
G02*
X120938000Y-125254500I0J500000D01*
G01*
X101888000Y-112254500D02*
X101888000Y-125254500D01*
X115888000Y-125254500D02*
X115888000Y-112254500D01*
X115388000Y-111754500D02*
X102388000Y-111754500D01*
X102388000Y-125754500D02*
X115388000Y-125754500D01*
X101888000Y-112254500D02*
G75*
G02*
X102388000Y-111754500I500000J0D01*
G01*
X115388000Y-111754500D02*
G75*
G02*
X115888000Y-112254500I0J-500000D01*
G01*
X115888000Y-125254500D02*
G75*
G02*
X115388000Y-125754500I-500000J0D01*
G01*
X102388000Y-125754500D02*
G75*
G02*
X101888000Y-125254500I0J500000D01*
G01*
X86494750Y-113754500D02*
X86494750Y-125754500D01*
X93244750Y-125754500D02*
X93244750Y-113754500D01*
X92244800Y-112754500D02*
X87484800Y-112754500D01*
X87494700Y-126754500D02*
X92254599Y-126754500D01*
X86494750Y-113754500D02*
G75*
G02*
X87484800Y-112754501I1000150J-100D01*
G01*
X92244800Y-112754500D02*
G75*
G02*
X93244700Y-113754500I0J-999900D01*
G01*
X93244750Y-125754500D02*
G75*
G02*
X92254599Y-126754500I-1000150J100D01*
G01*
X87494700Y-126754500D02*
G75*
G02*
X86494800Y-125754500I0J999900D01*
G01*
X62618750Y-113754600D02*
X62618750Y-125754500D01*
X69368750Y-125754400D02*
X69368750Y-113754500D01*
X68368800Y-112754500D02*
X63608800Y-112754500D01*
X63618700Y-126754500D02*
X68378599Y-126754500D01*
X62618750Y-113754600D02*
G75*
G02*
X63608800Y-112754501I1000150J0D01*
G01*
X68368800Y-112754500D02*
G75*
G02*
X69368700Y-113754500I0J-999900D01*
G01*
X69368750Y-125754400D02*
G75*
G02*
X68378599Y-126754500I-1000150J0D01*
G01*
X63618700Y-126754500D02*
G75*
G02*
X62618800Y-125754500I0J999900D01*
G01*
X70931750Y-112254500D02*
X70931750Y-125261400D01*
X84931750Y-125254500D02*
X84931750Y-112247529D01*
X84431700Y-111754500D02*
X71431750Y-111754500D01*
X71431900Y-125754500D02*
X84431750Y-125754500D01*
X70931750Y-112254500D02*
G75*
G02*
X71431750Y-111754550I499950J0D01*
G01*
X84431700Y-111754500D02*
G75*
G02*
X84931749Y-112247529I-100J-500200D01*
G01*
X84931750Y-125254500D02*
G75*
G02*
X84431750Y-125754450I-499950J0D01*
G01*
X71431900Y-125754500D02*
G75*
G02*
X70931750Y-125261400I0J500200D01*
G01*
X35213000Y-112254500D02*
X35213000Y-125254500D01*
X49213000Y-125254500D02*
X49213000Y-112254500D01*
X48713000Y-111754500D02*
X35713000Y-111754500D01*
X35713000Y-125754500D02*
X48713000Y-125754500D01*
X35213000Y-112254500D02*
G75*
G02*
X35713000Y-111754500I500000J0D01*
G01*
X48713000Y-111754500D02*
G75*
G02*
X49213000Y-112254500I0J-500000D01*
G01*
X49213000Y-125254500D02*
G75*
G02*
X48713000Y-125754500I-500000J0D01*
G01*
X35713000Y-125754500D02*
G75*
G02*
X35213000Y-125254500I0J500000D01*
G01*
X168563000Y-93204500D02*
X168563000Y-106204500D01*
X182563000Y-106204500D02*
X182563000Y-93204500D01*
X182063000Y-92704500D02*
X169063000Y-92704500D01*
X169063000Y-106704500D02*
X182063000Y-106704500D01*
X168563000Y-93204500D02*
G75*
G02*
X169063000Y-92704500I500000J0D01*
G01*
X182063000Y-92704500D02*
G75*
G02*
X182563000Y-93204500I0J-500000D01*
G01*
X182563000Y-106204500D02*
G75*
G02*
X182063000Y-106704500I-500000J0D01*
G01*
X169063000Y-106704500D02*
G75*
G02*
X168563000Y-106204500I0J500000D01*
G01*
X149513000Y-93204500D02*
X149513000Y-106204500D01*
X163513000Y-106204500D02*
X163513000Y-93204500D01*
X163013000Y-92704500D02*
X150013000Y-92704500D01*
X150013000Y-106704500D02*
X163013000Y-106704500D01*
X149513000Y-93204500D02*
G75*
G02*
X150013000Y-92704500I500000J0D01*
G01*
X163013000Y-92704500D02*
G75*
G02*
X163513000Y-93204500I0J-500000D01*
G01*
X163513000Y-106204500D02*
G75*
G02*
X163013000Y-106704500I-500000J0D01*
G01*
X150013000Y-106704500D02*
G75*
G02*
X149513000Y-106204500I0J500000D01*
G01*
X130463000Y-93204500D02*
X130463000Y-106204500D01*
X144463000Y-106204500D02*
X144463000Y-93204500D01*
X143963000Y-92704500D02*
X130963000Y-92704500D01*
X130963000Y-106704500D02*
X143963000Y-106704500D01*
X130463000Y-93204500D02*
G75*
G02*
X130963000Y-92704500I500000J0D01*
G01*
X143963000Y-92704500D02*
G75*
G02*
X144463000Y-93204500I0J-500000D01*
G01*
X144463000Y-106204500D02*
G75*
G02*
X143963000Y-106704500I-500000J0D01*
G01*
X130963000Y-106704500D02*
G75*
G02*
X130463000Y-106204500I0J500000D01*
G01*
X111413000Y-93204500D02*
X111413000Y-106204500D01*
X125413000Y-106204500D02*
X125413000Y-93204500D01*
X124913000Y-92704500D02*
X111913000Y-92704500D01*
X111913000Y-106704500D02*
X124913000Y-106704500D01*
X111413000Y-93204500D02*
G75*
G02*
X111913000Y-92704500I500000J0D01*
G01*
X124913000Y-92704500D02*
G75*
G02*
X125413000Y-93204500I0J-500000D01*
G01*
X125413000Y-106204500D02*
G75*
G02*
X124913000Y-106704500I-500000J0D01*
G01*
X111913000Y-106704500D02*
G75*
G02*
X111413000Y-106204500I0J500000D01*
G01*
X92363000Y-93204500D02*
X92363000Y-106204500D01*
X106363000Y-106204500D02*
X106363000Y-93204500D01*
X105863000Y-92704500D02*
X92863000Y-92704500D01*
X92863000Y-106704500D02*
X105863000Y-106704500D01*
X92363000Y-93204500D02*
G75*
G02*
X92863000Y-92704500I500000J0D01*
G01*
X105863000Y-92704500D02*
G75*
G02*
X106363000Y-93204500I0J-500000D01*
G01*
X106363000Y-106204500D02*
G75*
G02*
X105863000Y-106704500I-500000J0D01*
G01*
X92863000Y-106704500D02*
G75*
G02*
X92363000Y-106204500I0J500000D01*
G01*
X66169250Y-93204500D02*
X66169250Y-106211400D01*
X80169250Y-106204500D02*
X80169250Y-93197529D01*
X79669100Y-92704500D02*
X66669250Y-92704500D01*
X66669400Y-106704500D02*
X79669250Y-106704500D01*
X66169250Y-93204500D02*
G75*
G02*
X66669250Y-92704550I499950J0D01*
G01*
X79669100Y-92704500D02*
G75*
G02*
X80169249Y-93197529I0J-500200D01*
G01*
X80169250Y-106204500D02*
G75*
G02*
X79669250Y-106704450I-499950J0D01*
G01*
X66669400Y-106704500D02*
G75*
G02*
X66169250Y-106211400I0J500200D01*
G01*
X35213000Y-93204500D02*
X35213000Y-106204500D01*
X49213000Y-106204500D02*
X49213000Y-93204500D01*
X48713000Y-92704500D02*
X35713000Y-92704500D01*
X35713000Y-106704500D02*
X48713000Y-106704500D01*
X35213000Y-93204500D02*
G75*
G02*
X35713000Y-92704500I500000J0D01*
G01*
X48713000Y-92704500D02*
G75*
G02*
X49213000Y-93204500I0J-500000D01*
G01*
X49213000Y-106204500D02*
G75*
G02*
X48713000Y-106704500I-500000J0D01*
G01*
X35713000Y-106704500D02*
G75*
G02*
X35213000Y-106204500I0J500000D01*
G01*
X163800500Y-74154500D02*
X163800500Y-87154500D01*
X177800500Y-87154500D02*
X177800500Y-74154500D01*
X177300500Y-73654500D02*
X164300500Y-73654500D01*
X164300500Y-87654500D02*
X177300500Y-87654500D01*
X163800500Y-74154500D02*
G75*
G02*
X164300500Y-73654500I500000J0D01*
G01*
X177300500Y-73654500D02*
G75*
G02*
X177800500Y-74154500I0J-500000D01*
G01*
X177800500Y-87154500D02*
G75*
G02*
X177300500Y-87654500I-500000J0D01*
G01*
X164300500Y-87654500D02*
G75*
G02*
X163800500Y-87154500I0J500000D01*
G01*
X144750500Y-74154500D02*
X144750500Y-87154500D01*
X158750500Y-87154500D02*
X158750500Y-74154500D01*
X158250500Y-73654500D02*
X145250500Y-73654500D01*
X145250500Y-87654500D02*
X158250500Y-87654500D01*
X144750500Y-74154500D02*
G75*
G02*
X145250500Y-73654500I500000J0D01*
G01*
X158250500Y-73654500D02*
G75*
G02*
X158750500Y-74154500I0J-500000D01*
G01*
X158750500Y-87154500D02*
G75*
G02*
X158250500Y-87654500I-500000J0D01*
G01*
X145250500Y-87654500D02*
G75*
G02*
X144750500Y-87154500I0J500000D01*
G01*
X125700500Y-74154500D02*
X125700500Y-87154500D01*
X139700500Y-87154500D02*
X139700500Y-74154500D01*
X139200500Y-73654500D02*
X126200500Y-73654500D01*
X126200500Y-87654500D02*
X139200500Y-87654500D01*
X125700500Y-74154500D02*
G75*
G02*
X126200500Y-73654500I500000J0D01*
G01*
X139200500Y-73654500D02*
G75*
G02*
X139700500Y-74154500I0J-500000D01*
G01*
X139700500Y-87154500D02*
G75*
G02*
X139200500Y-87654500I-500000J0D01*
G01*
X126200500Y-87654500D02*
G75*
G02*
X125700500Y-87154500I0J500000D01*
G01*
X106650500Y-74154500D02*
X106650500Y-87154500D01*
X120650500Y-87154500D02*
X120650500Y-74154500D01*
X120150500Y-73654500D02*
X107150500Y-73654500D01*
X107150500Y-87654500D02*
X120150500Y-87654500D01*
X106650500Y-74154500D02*
G75*
G02*
X107150500Y-73654500I500000J0D01*
G01*
X120150500Y-73654500D02*
G75*
G02*
X120650500Y-74154500I0J-500000D01*
G01*
X120650500Y-87154500D02*
G75*
G02*
X120150500Y-87654500I-500000J0D01*
G01*
X107150500Y-87654500D02*
G75*
G02*
X106650500Y-87154500I0J500000D01*
G01*
X87600500Y-74154500D02*
X87600500Y-87154500D01*
X101600500Y-87154500D02*
X101600500Y-74154500D01*
X101100500Y-73654500D02*
X88100500Y-73654500D01*
X88100500Y-87654500D02*
X101100500Y-87654500D01*
X87600500Y-74154500D02*
G75*
G02*
X88100500Y-73654500I500000J0D01*
G01*
X101100500Y-73654500D02*
G75*
G02*
X101600500Y-74154500I0J-500000D01*
G01*
X101600500Y-87154500D02*
G75*
G02*
X101100500Y-87654500I-500000J0D01*
G01*
X88100500Y-87654500D02*
G75*
G02*
X87600500Y-87154500I0J500000D01*
G01*
X63788000Y-74154500D02*
X63788000Y-87154500D01*
X77788000Y-87154500D02*
X77788000Y-74154500D01*
X77288000Y-73654500D02*
X64288000Y-73654500D01*
X64288000Y-87654500D02*
X77288000Y-87654500D01*
X63788000Y-74154500D02*
G75*
G02*
X64288000Y-73654500I500000J0D01*
G01*
X77288000Y-73654500D02*
G75*
G02*
X77788000Y-74154500I0J-500000D01*
G01*
X77788000Y-87154500D02*
G75*
G02*
X77288000Y-87654500I-500000J0D01*
G01*
X64288000Y-87654500D02*
G75*
G02*
X63788000Y-87154500I0J500000D01*
G01*
X35213000Y-74154500D02*
X35213000Y-87154500D01*
X49213000Y-87154500D02*
X49213000Y-74154500D01*
X48713000Y-73654500D02*
X35713000Y-73654500D01*
X35713000Y-87654500D02*
X48713000Y-87654500D01*
X35213000Y-74154500D02*
G75*
G02*
X35713000Y-73654500I500000J0D01*
G01*
X48713000Y-73654500D02*
G75*
G02*
X49213000Y-74154500I0J-500000D01*
G01*
X49213000Y-87154500D02*
G75*
G02*
X48713000Y-87654500I-500000J0D01*
G01*
X35713000Y-87654500D02*
G75*
G02*
X35213000Y-87154500I0J500000D01*
G01*
X154275500Y-55104500D02*
X154275500Y-68104500D01*
X168275500Y-68104500D02*
X168275500Y-55104500D01*
X167775500Y-54604500D02*
X154775500Y-54604500D01*
X154775500Y-68604500D02*
X167775500Y-68604500D01*
X154275500Y-55104500D02*
G75*
G02*
X154775500Y-54604500I500000J0D01*
G01*
X167775500Y-54604500D02*
G75*
G02*
X168275500Y-55104500I0J-500000D01*
G01*
X168275500Y-68104500D02*
G75*
G02*
X167775500Y-68604500I-500000J0D01*
G01*
X154775500Y-68604500D02*
G75*
G02*
X154275500Y-68104500I0J500000D01*
G01*
X135225500Y-55104500D02*
X135225500Y-68104500D01*
X149225500Y-68104500D02*
X149225500Y-55104500D01*
X148725500Y-54604500D02*
X135725500Y-54604500D01*
X135725500Y-68604500D02*
X148725500Y-68604500D01*
X135225500Y-55104500D02*
G75*
G02*
X135725500Y-54604500I500000J0D01*
G01*
X148725500Y-54604500D02*
G75*
G02*
X149225500Y-55104500I0J-500000D01*
G01*
X149225500Y-68104500D02*
G75*
G02*
X148725500Y-68604500I-500000J0D01*
G01*
X135725500Y-68604500D02*
G75*
G02*
X135225500Y-68104500I0J500000D01*
G01*
X116175500Y-55104500D02*
X116175500Y-68104500D01*
X130175500Y-68104500D02*
X130175500Y-55104500D01*
X129675500Y-54604500D02*
X116675500Y-54604500D01*
X116675500Y-68604500D02*
X129675500Y-68604500D01*
X116175500Y-55104500D02*
G75*
G02*
X116675500Y-54604500I500000J0D01*
G01*
X129675500Y-54604500D02*
G75*
G02*
X130175500Y-55104500I0J-500000D01*
G01*
X130175500Y-68104500D02*
G75*
G02*
X129675500Y-68604500I-500000J0D01*
G01*
X116675500Y-68604500D02*
G75*
G02*
X116175500Y-68104500I0J500000D01*
G01*
X97125500Y-55104500D02*
X97125500Y-68104500D01*
X111125500Y-68104500D02*
X111125500Y-55104500D01*
X110625500Y-54604500D02*
X97625500Y-54604500D01*
X97625500Y-68604500D02*
X110625500Y-68604500D01*
X97125500Y-55104500D02*
G75*
G02*
X97625500Y-54604500I500000J0D01*
G01*
X110625500Y-54604500D02*
G75*
G02*
X111125500Y-55104500I0J-500000D01*
G01*
X111125500Y-68104500D02*
G75*
G02*
X110625500Y-68604500I-500000J0D01*
G01*
X97625500Y-68604500D02*
G75*
G02*
X97125500Y-68104500I0J500000D01*
G01*
X78075500Y-55104500D02*
X78075500Y-68104500D01*
X92075500Y-68104500D02*
X92075500Y-55104500D01*
X91575500Y-54604500D02*
X78575500Y-54604500D01*
X78575500Y-68604500D02*
X91575500Y-68604500D01*
X78075500Y-55104500D02*
G75*
G02*
X78575500Y-54604500I500000J0D01*
G01*
X91575500Y-54604500D02*
G75*
G02*
X92075500Y-55104500I0J-500000D01*
G01*
X92075500Y-68104500D02*
G75*
G02*
X91575500Y-68604500I-500000J0D01*
G01*
X78575500Y-68604500D02*
G75*
G02*
X78075500Y-68104500I0J500000D01*
G01*
X59025500Y-55104500D02*
X59025500Y-68104500D01*
X73025500Y-68104500D02*
X73025500Y-55104500D01*
X72525500Y-54604500D02*
X59525500Y-54604500D01*
X59525500Y-68604500D02*
X72525500Y-68604500D01*
X59025500Y-55104500D02*
G75*
G02*
X59525500Y-54604500I500000J0D01*
G01*
X72525500Y-54604500D02*
G75*
G02*
X73025500Y-55104500I0J-500000D01*
G01*
X73025500Y-68104500D02*
G75*
G02*
X72525500Y-68604500I-500000J0D01*
G01*
X59525500Y-68604500D02*
G75*
G02*
X59025500Y-68104500I0J500000D01*
G01*
X35213000Y-55104500D02*
X35213000Y-68104500D01*
X49213000Y-68104500D02*
X49213000Y-55104500D01*
X48713000Y-54604500D02*
X35713000Y-54604500D01*
X35713000Y-68604500D02*
X48713000Y-68604500D01*
X35213000Y-55104500D02*
G75*
G02*
X35713000Y-54604500I500000J0D01*
G01*
X48713000Y-54604500D02*
G75*
G02*
X49213000Y-55104500I0J-500000D01*
G01*
X49213000Y-68104500D02*
G75*
G02*
X48713000Y-68604500I-500000J0D01*
G01*
X35713000Y-68604500D02*
G75*
G02*
X35213000Y-68104500I0J500000D01*
G01*
X139988000Y-31292000D02*
X139988000Y-44292000D01*
X153988000Y-44292000D02*
X153988000Y-31292000D01*
X153488000Y-30792000D02*
X140488000Y-30792000D01*
X140488000Y-44792000D02*
X153488000Y-44792000D01*
X139988000Y-31292000D02*
G75*
G02*
X140488000Y-30792000I500000J0D01*
G01*
X153488000Y-30792000D02*
G75*
G02*
X153988000Y-31292000I0J-500000D01*
G01*
X153988000Y-44292000D02*
G75*
G02*
X153488000Y-44792000I-500000J0D01*
G01*
X140488000Y-44792000D02*
G75*
G02*
X139988000Y-44292000I0J500000D01*
G01*
X120938000Y-31292000D02*
X120938000Y-44292000D01*
X134938000Y-44292000D02*
X134938000Y-31292000D01*
X134438000Y-30792000D02*
X121438000Y-30792000D01*
X121438000Y-44792000D02*
X134438000Y-44792000D01*
X120938000Y-31292000D02*
G75*
G02*
X121438000Y-30792000I500000J0D01*
G01*
X134438000Y-30792000D02*
G75*
G02*
X134938000Y-31292000I0J-500000D01*
G01*
X134938000Y-44292000D02*
G75*
G02*
X134438000Y-44792000I-500000J0D01*
G01*
X121438000Y-44792000D02*
G75*
G02*
X120938000Y-44292000I0J500000D01*
G01*
X101888000Y-31292000D02*
X101888000Y-44292000D01*
X115888000Y-44292000D02*
X115888000Y-31292000D01*
X115388000Y-30792000D02*
X102388000Y-30792000D01*
X102388000Y-44792000D02*
X115388000Y-44792000D01*
X101888000Y-31292000D02*
G75*
G02*
X102388000Y-30792000I500000J0D01*
G01*
X115388000Y-30792000D02*
G75*
G02*
X115888000Y-31292000I0J-500000D01*
G01*
X115888000Y-44292000D02*
G75*
G02*
X115388000Y-44792000I-500000J0D01*
G01*
X102388000Y-44792000D02*
G75*
G02*
X101888000Y-44292000I0J500000D01*
G01*
X82838000Y-31292000D02*
X82838000Y-44292000D01*
X96838000Y-44292000D02*
X96838000Y-31292000D01*
X96338000Y-30792000D02*
X83338000Y-30792000D01*
X83338000Y-44792000D02*
X96338000Y-44792000D01*
X82838000Y-31292000D02*
G75*
G02*
X83338000Y-30792000I500000J0D01*
G01*
X96338000Y-30792000D02*
G75*
G02*
X96838000Y-31292000I0J-500000D01*
G01*
X96838000Y-44292000D02*
G75*
G02*
X96338000Y-44792000I-500000J0D01*
G01*
X83338000Y-44792000D02*
G75*
G02*
X82838000Y-44292000I0J500000D01*
G01*
X59025500Y-31292000D02*
X59025500Y-44292000D01*
X73025500Y-44292000D02*
X73025500Y-31292000D01*
X72525500Y-30792000D02*
X59525500Y-30792000D01*
X59525500Y-44792000D02*
X72525500Y-44792000D01*
X59025500Y-31292000D02*
G75*
G02*
X59525500Y-30792000I500000J0D01*
G01*
X72525500Y-30792000D02*
G75*
G02*
X73025500Y-31292000I0J-500000D01*
G01*
X73025500Y-44292000D02*
G75*
G02*
X72525500Y-44792000I-500000J0D01*
G01*
X59525500Y-44792000D02*
G75*
G02*
X59025500Y-44292000I0J500000D01*
G01*
X35213000Y-31292000D02*
X35213000Y-44292000D01*
X49213000Y-44292000D02*
X49213000Y-31292000D01*
X48713000Y-30792000D02*
X35713000Y-30792000D01*
X35713000Y-44792000D02*
X48713000Y-44792000D01*
X35213000Y-31292000D02*
G75*
G02*
X35713000Y-30792000I500000J0D01*
G01*
X48713000Y-30792000D02*
G75*
G02*
X49213000Y-31292000I0J-500000D01*
G01*
X49213000Y-44292000D02*
G75*
G02*
X48713000Y-44792000I-500000J0D01*
G01*
X35713000Y-44792000D02*
G75*
G02*
X35213000Y-44292000I0J500000D01*
G01*
X139447000Y-22930000D02*
G75*
G02*
X139647000Y-23130000I0J-200000D01*
G01*
X139647000Y-26930000D02*
G75*
G02*
X139447000Y-27130000I-200000J0D01*
G01*
X134409000Y-27130000D02*
G75*
G02*
X134209000Y-26930000I0J200000D01*
G01*
X134209000Y-23130000D02*
G75*
G02*
X134409000Y-22930000I200000J0D01*
G01*
X139447000Y-22930000D02*
X134409000Y-22930000D01*
X139647000Y-26930000D02*
X139647000Y-23130000D01*
X134409000Y-27130000D02*
X139447000Y-27130000D01*
X134209000Y-23130000D02*
X134209000Y-26930000D01*
X32406999Y-154512500D02*
G75*
G02*
X30407000Y-152512501I1J2000000D01*
G01*
X57100000Y-20900000D02*
G75*
G02*
X59100000Y-22900000I0J-2000000D01*
G01*
X30407000Y-26799999D02*
G75*
G02*
X32406999Y-24800000I2000000J-1D01*
G01*
X39300000Y-22900000D02*
G75*
G02*
X41300000Y-20900000I2000000J0D01*
G01*
X59100000Y-24800000D02*
X59100000Y-22900000D01*
X41300000Y-20900000D02*
X57100000Y-20900000D01*
X39300000Y-24800000D02*
X39300000Y-22900000D01*
X32406999Y-24800000D02*
X39300000Y-24800000D01*
X30407000Y-152512501D02*
X30407000Y-26799999D01*
X85270000Y-24800000D02*
X59100000Y-24800000D01*
X85270000Y-24800000D02*
X85270000Y-27967000D01*
X126151000Y-27967000D02*
X85270000Y-27967000D01*
X126151000Y-20412000D02*
X126151000Y-27967000D01*
X161151000Y-20412000D02*
X126151000Y-20412000D01*
X161151000Y-47416500D02*
X161151000Y-20412000D01*
X170700500Y-47416500D02*
X161151000Y-47416500D01*
X170700500Y-71229500D02*
X170700500Y-47416500D01*
X180225500Y-71229500D02*
X170700500Y-71229500D01*
X180225500Y-90279500D02*
X180225500Y-71229500D01*
X184988000Y-90279500D02*
X180225500Y-90279500D01*
X184988000Y-109329500D02*
X184988000Y-90279500D01*
X194513250Y-109329500D02*
X184988000Y-109329500D01*
X194513250Y-128403500D02*
X194513250Y-109329500D01*
X247000500Y-128403500D02*
X194513250Y-128403500D01*
X247000500Y-154512500D02*
X247000500Y-128403500D01*
X226525750Y-154512500D02*
X247000500Y-154512500D01*
X226525750Y-157162500D02*
X226525750Y-154512500D01*
X51031750Y-154512500D02*
X32406999Y-154512500D01*
X51031750Y-157162500D02*
X51031750Y-154512500D01*
X130799750Y-157162500D02*
X51031750Y-157162500D01*
X130799750Y-154512500D02*
X130799750Y-157162500D01*
X171999750Y-154512500D02*
X130799750Y-154512500D01*
X171999750Y-154512500D02*
X171999750Y-157162500D01*
X226525750Y-157162500D02*
X171999750Y-157162500D01*
M02*
