%TF.GenerationSoftware,KiCad,Pcbnew,8.0.4*%
%TF.CreationDate,2025-08-03T11:03:42-05:00*%
%TF.ProjectId,Numlocked_shift_stencil,4e756d6c-6f63-46b6-9564-5f7368696674,rev?*%
%TF.SameCoordinates,Original*%
%TF.FileFunction,Copper,L2,Bot*%
%TF.FilePolarity,Positive*%
%FSLAX46Y46*%
G04 Gerber Fmt 4.6, Leading zero omitted, Abs format (unit mm)*
G04 Created by KiCad (PCBNEW 8.0.4) date 2025-08-03 11:03:42*
%MOMM*%
%LPD*%
G01*
G04 APERTURE LIST*
G04 Aperture macros list*
%AMRoundRect*
0 Rectangle with rounded corners*
0 $1 Rounding radius*
0 $2 $3 $4 $5 $6 $7 $8 $9 X,Y pos of 4 corners*
0 Add a 4 corners polygon primitive as box body*
4,1,4,$2,$3,$4,$5,$6,$7,$8,$9,$2,$3,0*
0 Add four circle primitives for the rounded corners*
1,1,$1+$1,$2,$3*
1,1,$1+$1,$4,$5*
1,1,$1+$1,$6,$7*
1,1,$1+$1,$8,$9*
0 Add four rect primitives between the rounded corners*
20,1,$1+$1,$2,$3,$4,$5,0*
20,1,$1+$1,$4,$5,$6,$7,0*
20,1,$1+$1,$6,$7,$8,$9,0*
20,1,$1+$1,$8,$9,$2,$3,0*%
G04 Aperture macros list end*
%TA.AperFunction,ComponentPad*%
%ADD10R,1.350000X1.350000*%
%TD*%
%TA.AperFunction,ComponentPad*%
%ADD11O,1.350000X1.350000*%
%TD*%
%TA.AperFunction,SMDPad,CuDef*%
%ADD12R,2.550000X2.500000*%
%TD*%
%TA.AperFunction,SMDPad,CuDef*%
%ADD13RoundRect,0.200000X0.200000X0.275000X-0.200000X0.275000X-0.200000X-0.275000X0.200000X-0.275000X0*%
%TD*%
%TA.AperFunction,SMDPad,CuDef*%
%ADD14RoundRect,0.225000X0.250000X-0.225000X0.250000X0.225000X-0.250000X0.225000X-0.250000X-0.225000X0*%
%TD*%
%TA.AperFunction,SMDPad,CuDef*%
%ADD15RoundRect,0.225000X-0.250000X0.225000X-0.250000X-0.225000X0.250000X-0.225000X0.250000X0.225000X0*%
%TD*%
%TA.AperFunction,SMDPad,CuDef*%
%ADD16RoundRect,0.075000X0.910000X0.225000X-0.910000X0.225000X-0.910000X-0.225000X0.910000X-0.225000X0*%
%TD*%
%TA.AperFunction,SMDPad,CuDef*%
%ADD17R,0.900000X0.900000*%
%TD*%
%TA.AperFunction,SMDPad,CuDef*%
%ADD18RoundRect,0.225000X0.225000X0.250000X-0.225000X0.250000X-0.225000X-0.250000X0.225000X-0.250000X0*%
%TD*%
%TA.AperFunction,SMDPad,CuDef*%
%ADD19RoundRect,0.150000X0.850000X0.150000X-0.850000X0.150000X-0.850000X-0.150000X0.850000X-0.150000X0*%
%TD*%
%TA.AperFunction,SMDPad,CuDef*%
%ADD20RoundRect,0.150000X0.150000X-0.650000X0.150000X0.650000X-0.150000X0.650000X-0.150000X-0.650000X0*%
%TD*%
%TA.AperFunction,SMDPad,CuDef*%
%ADD21RoundRect,0.200000X-0.275000X0.200000X-0.275000X-0.200000X0.275000X-0.200000X0.275000X0.200000X0*%
%TD*%
%TA.AperFunction,SMDPad,CuDef*%
%ADD22RoundRect,0.225000X-0.225000X-0.250000X0.225000X-0.250000X0.225000X0.250000X-0.225000X0.250000X0*%
%TD*%
%TA.AperFunction,SMDPad,CuDef*%
%ADD23RoundRect,0.200000X-0.200000X-0.275000X0.200000X-0.275000X0.200000X0.275000X-0.200000X0.275000X0*%
%TD*%
%TA.AperFunction,SMDPad,CuDef*%
%ADD24RoundRect,0.200000X0.275000X-0.200000X0.275000X0.200000X-0.275000X0.200000X-0.275000X-0.200000X0*%
%TD*%
%TA.AperFunction,SMDPad,CuDef*%
%ADD25R,1.400000X1.200000*%
%TD*%
%TA.AperFunction,SMDPad,CuDef*%
%ADD26RoundRect,0.375000X-0.375000X0.625000X-0.375000X-0.625000X0.375000X-0.625000X0.375000X0.625000X0*%
%TD*%
%TA.AperFunction,SMDPad,CuDef*%
%ADD27RoundRect,0.500000X-1.400000X0.500000X-1.400000X-0.500000X1.400000X-0.500000X1.400000X0.500000X0*%
%TD*%
%TA.AperFunction,SMDPad,CuDef*%
%ADD28RoundRect,0.050000X0.050000X-0.387500X0.050000X0.387500X-0.050000X0.387500X-0.050000X-0.387500X0*%
%TD*%
%TA.AperFunction,SMDPad,CuDef*%
%ADD29RoundRect,0.050000X0.387500X-0.050000X0.387500X0.050000X-0.387500X0.050000X-0.387500X-0.050000X0*%
%TD*%
%TA.AperFunction,HeatsinkPad*%
%ADD30R,3.200000X3.200000*%
%TD*%
%TA.AperFunction,SMDPad,CuDef*%
%ADD31R,0.660400X1.549400*%
%TD*%
%TA.AperFunction,SMDPad,CuDef*%
%ADD32R,1.295400X1.905000*%
%TD*%
%TA.AperFunction,SMDPad,CuDef*%
%ADD33RoundRect,0.150000X-0.512500X-0.150000X0.512500X-0.150000X0.512500X0.150000X-0.512500X0.150000X0*%
%TD*%
%TA.AperFunction,SMDPad,CuDef*%
%ADD34RoundRect,0.150000X-0.650000X-0.150000X0.650000X-0.150000X0.650000X0.150000X-0.650000X0.150000X0*%
%TD*%
%TA.AperFunction,SMDPad,CuDef*%
%ADD35RoundRect,0.072500X0.217500X-0.732500X0.217500X0.732500X-0.217500X0.732500X-0.217500X-0.732500X0*%
%TD*%
%TA.AperFunction,SMDPad,CuDef*%
%ADD36RoundRect,0.250000X-0.650000X0.325000X-0.650000X-0.325000X0.650000X-0.325000X0.650000X0.325000X0*%
%TD*%
%TA.AperFunction,SMDPad,CuDef*%
%ADD37RoundRect,0.150000X0.150000X-0.512500X0.150000X0.512500X-0.150000X0.512500X-0.150000X-0.512500X0*%
%TD*%
%TA.AperFunction,ComponentPad*%
%ADD38R,1.650000X1.650000*%
%TD*%
%TA.AperFunction,ComponentPad*%
%ADD39C,1.650000*%
%TD*%
%TA.AperFunction,ComponentPad*%
%ADD40O,3.000000X6.000000*%
%TD*%
%TA.AperFunction,ComponentPad*%
%ADD41R,1.700000X1.700000*%
%TD*%
%TA.AperFunction,ComponentPad*%
%ADD42O,1.700000X1.700000*%
%TD*%
%TA.AperFunction,ComponentPad*%
%ADD43C,4.400000*%
%TD*%
%TA.AperFunction,ComponentPad*%
%ADD44C,1.800000*%
%TD*%
%TA.AperFunction,ViaPad*%
%ADD45C,0.600000*%
%TD*%
%TA.AperFunction,ViaPad*%
%ADD46C,1.000000*%
%TD*%
%TA.AperFunction,Conductor*%
%ADD47C,0.200000*%
%TD*%
%TA.AperFunction,Conductor*%
%ADD48C,0.177800*%
%TD*%
%TA.AperFunction,Conductor*%
%ADD49C,0.300000*%
%TD*%
%TA.AperFunction,Conductor*%
%ADD50C,0.500000*%
%TD*%
%TA.AperFunction,Conductor*%
%ADD51C,0.284000*%
%TD*%
%TA.AperFunction,Conductor*%
%ADD52C,1.000000*%
%TD*%
G04 APERTURE END LIST*
D10*
%TO.P,J1,1,Pin_1*%
%TO.N,N/C*%
X143809372Y-36912493D03*
D11*
%TO.P,J1,2,Pin_2*%
X143809372Y-34912493D03*
%TD*%
D12*
%TO.P,S4,1,1*%
%TO.N,N/C*%
X90891072Y-46151593D03*
%TO.P,S4,2,2*%
X104316072Y-43611593D03*
%TD*%
%TO.P,S20,1,1*%
%TO.N,N/C*%
X128991072Y-46151593D03*
%TO.P,S20,2,2*%
X142416072Y-43611593D03*
%TD*%
D13*
%TO.P,R9,1*%
%TO.N,N/C*%
X46634372Y-67212493D03*
%TO.P,R9,2*%
X44984372Y-67212493D03*
%TD*%
D14*
%TO.P,C14,1*%
%TO.N,N/C*%
X60409372Y-67135593D03*
%TO.P,C14,2*%
X60409372Y-65585593D03*
%TD*%
D15*
%TO.P,C15,1*%
%TO.N,N/C*%
X95409372Y-61937493D03*
%TO.P,C15,2*%
X95409372Y-63487493D03*
%TD*%
D14*
%TO.P,C8,1*%
%TO.N,N/C*%
X74929572Y-56935593D03*
%TO.P,C8,2*%
X74929572Y-55385593D03*
%TD*%
D16*
%TO.P,U6,1,SH/~LD*%
%TO.N,N/C*%
X144584372Y-54063693D03*
%TO.P,U6,2,CLK*%
X144584372Y-55333693D03*
%TO.P,U6,3,E*%
X144584372Y-56603693D03*
%TO.P,U6,4,F*%
X144584372Y-57873693D03*
%TO.P,U6,5,G*%
X144584372Y-59143693D03*
%TO.P,U6,6,H*%
X144584372Y-60413693D03*
%TO.P,U6,7,~{QH}*%
X144584372Y-61683693D03*
%TO.P,U6,8,GND*%
X144584372Y-62953693D03*
%TO.P,U6,9,QH*%
X139634372Y-62953693D03*
%TO.P,U6,10,SER*%
X139634372Y-61683693D03*
%TO.P,U6,11,A*%
X139634372Y-60413693D03*
%TO.P,U6,12,B*%
X139634372Y-59143693D03*
%TO.P,U6,13,C*%
X139634372Y-57873693D03*
%TO.P,U6,14,D*%
X139634372Y-56603693D03*
%TO.P,U6,15,CLK_INH*%
X139634372Y-55333693D03*
%TO.P,U6,16,VCC*%
X139634372Y-54063693D03*
%TD*%
D15*
%TO.P,C30,1*%
%TO.N,N/C*%
X161559372Y-32987493D03*
%TO.P,C30,2*%
X161559372Y-34537493D03*
%TD*%
%TO.P,C6,1*%
%TO.N,N/C*%
X71109372Y-67737493D03*
%TO.P,C6,2*%
X71109372Y-69287493D03*
%TD*%
D17*
%TO.P,RN10,1,R1.1*%
%TO.N,N/C*%
X57589372Y-83447493D03*
%TO.P,RN10,2,R2.1*%
X57589372Y-84787493D03*
%TO.P,RN10,3,R3.1*%
X57589372Y-86107493D03*
%TO.P,RN10,4,R4.1*%
X57589372Y-87447493D03*
%TO.P,RN10,5,R4.2*%
X54589372Y-87447493D03*
%TO.P,RN10,6,R3.2*%
X54589372Y-86107493D03*
%TO.P,RN10,7,R2.2*%
X54589372Y-84787493D03*
%TO.P,RN10,8,R1.2*%
X54589372Y-83447493D03*
%TD*%
D14*
%TO.P,C18,1*%
%TO.N,N/C*%
X127609372Y-31287493D03*
%TO.P,C18,2*%
X127609372Y-29737493D03*
%TD*%
D18*
%TO.P,C7,1*%
%TO.N,N/C*%
X64295972Y-61916593D03*
%TO.P,C7,2*%
X62745972Y-61916593D03*
%TD*%
D19*
%TO.P,U13,1,SH/~LD*%
%TO.N,N/C*%
X66209372Y-81002493D03*
%TO.P,U13,2,CLK*%
X66209372Y-82272493D03*
%TO.P,U13,3,E*%
X66209372Y-83542493D03*
%TO.P,U13,4,F*%
X66209372Y-84812493D03*
%TO.P,U13,5,G*%
X66209372Y-86082493D03*
%TO.P,U13,6,H*%
X66209372Y-87352493D03*
%TO.P,U13,7,~{QH}*%
X66209372Y-88622493D03*
%TO.P,U13,8,GND*%
X66209372Y-89892493D03*
%TO.P,U13,9,QH*%
X61209372Y-89892493D03*
%TO.P,U13,10,SER*%
X61209372Y-88622493D03*
%TO.P,U13,11,A*%
X61209372Y-87352493D03*
%TO.P,U13,12,B*%
X61209372Y-86082493D03*
%TO.P,U13,13,C*%
X61209372Y-84812493D03*
%TO.P,U13,14,D*%
X61209372Y-83542493D03*
%TO.P,U13,15,CLK_INH*%
X61209372Y-82272493D03*
%TO.P,U13,16,VCC*%
X61209372Y-81002493D03*
%TD*%
D13*
%TO.P,R13,1*%
%TO.N,N/C*%
X49534372Y-44212493D03*
%TO.P,R13,2*%
X47884372Y-44212493D03*
%TD*%
D20*
%TO.P,U8,1,I1*%
%TO.N,N/C*%
X54859372Y-61912493D03*
%TO.P,U8,2,GND*%
X53909372Y-61912493D03*
%TO.P,U8,3,I0*%
X52959372Y-61912493D03*
%TO.P,U8,4,Y*%
X52959372Y-59612493D03*
%TO.P,U8,5,VCC*%
X53909372Y-59612493D03*
%TO.P,U8,6,S*%
X54859372Y-59612493D03*
%TD*%
D21*
%TO.P,R5,1*%
%TO.N,N/C*%
X95409372Y-67487493D03*
%TO.P,R5,2*%
X95409372Y-69137493D03*
%TD*%
D18*
%TO.P,C37,1*%
%TO.N,N/C*%
X57384372Y-65712493D03*
%TO.P,C37,2*%
X55834372Y-65712493D03*
%TD*%
D17*
%TO.P,RN5,1,R1.1*%
%TO.N,N/C*%
X135989372Y-56508693D03*
%TO.P,RN5,2,R2.1*%
X135989372Y-57848693D03*
%TO.P,RN5,3,R3.1*%
X135989372Y-59168693D03*
%TO.P,RN5,4,R4.1*%
X135989372Y-60508693D03*
%TO.P,RN5,5,R4.2*%
X132989372Y-60508693D03*
%TO.P,RN5,6,R3.2*%
X132989372Y-59168693D03*
%TO.P,RN5,7,R2.2*%
X132989372Y-57848693D03*
%TO.P,RN5,8,R1.2*%
X132989372Y-56508693D03*
%TD*%
D16*
%TO.P,U5,1,SH/~LD*%
%TO.N,N/C*%
X124264372Y-54063693D03*
%TO.P,U5,2,CLK*%
X124264372Y-55333693D03*
%TO.P,U5,3,E*%
X124264372Y-56603693D03*
%TO.P,U5,4,F*%
X124264372Y-57873693D03*
%TO.P,U5,5,G*%
X124264372Y-59143693D03*
%TO.P,U5,6,H*%
X124264372Y-60413693D03*
%TO.P,U5,7,~{QH}*%
X124264372Y-61683693D03*
%TO.P,U5,8,GND*%
X124264372Y-62953693D03*
%TO.P,U5,9,QH*%
X119314372Y-62953693D03*
%TO.P,U5,10,SER*%
X119314372Y-61683693D03*
%TO.P,U5,11,A*%
X119314372Y-60413693D03*
%TO.P,U5,12,B*%
X119314372Y-59143693D03*
%TO.P,U5,13,C*%
X119314372Y-57873693D03*
%TO.P,U5,14,D*%
X119314372Y-56603693D03*
%TO.P,U5,15,CLK_INH*%
X119314372Y-55333693D03*
%TO.P,U5,16,VCC*%
X119314372Y-54063693D03*
%TD*%
D14*
%TO.P,C24,1*%
%TO.N,N/C*%
X137399972Y-53787493D03*
%TO.P,C24,2*%
X137399972Y-52237493D03*
%TD*%
D18*
%TO.P,C21,1*%
%TO.N,N/C*%
X49484372Y-45787493D03*
%TO.P,C21,2*%
X47934372Y-45787493D03*
%TD*%
D22*
%TO.P,C39,1*%
%TO.N,N/C*%
X60334372Y-79312493D03*
%TO.P,C39,2*%
X61884372Y-79312493D03*
%TD*%
D23*
%TO.P,R8,1*%
%TO.N,N/C*%
X62684372Y-63512493D03*
%TO.P,R8,2*%
X64334372Y-63512493D03*
%TD*%
D14*
%TO.P,C23,1*%
%TO.N,N/C*%
X116199972Y-53787493D03*
%TO.P,C23,2*%
X116199972Y-52237493D03*
%TD*%
D24*
%TO.P,R12,1*%
%TO.N,N/C*%
X55209372Y-44037493D03*
%TO.P,R12,2*%
X55209372Y-42387493D03*
%TD*%
D25*
%TO.P,X1,1,1*%
%TO.N,N/C*%
X64429572Y-67160593D03*
%TO.P,X1,2,2*%
X62229572Y-67160593D03*
%TO.P,X1,3,3*%
X62229572Y-65560593D03*
%TO.P,X1,4,4*%
X64429572Y-65560593D03*
%TD*%
D26*
%TO.P,U3,1,IN*%
%TO.N,N/C*%
X99409372Y-30962493D03*
%TO.P,U3,2,GND*%
X101709372Y-30962493D03*
%TO.P,U3,3,OUT*%
X104009372Y-30962493D03*
D27*
%TO.P,U3,4,GND*%
X101709372Y-37262493D03*
%TD*%
D18*
%TO.P,C38,1*%
%TO.N,N/C*%
X71084372Y-57512493D03*
%TO.P,C38,2*%
X69534372Y-57512493D03*
%TD*%
D14*
%TO.P,C3,1*%
%TO.N,N/C*%
X66162572Y-61650193D03*
%TO.P,C3,2*%
X66162572Y-60100193D03*
%TD*%
D28*
%TO.P,U1,1,IOVDD*%
%TO.N,N/C*%
X74709372Y-66149993D03*
%TO.P,U1,2,GPIO0*%
X74309372Y-66149993D03*
%TO.P,U1,3,GPIO1*%
X73909372Y-66149993D03*
%TO.P,U1,4,GPIO2*%
X73509372Y-66149993D03*
%TO.P,U1,5,GPIO3*%
X73109372Y-66149993D03*
%TO.P,U1,6,GPIO4*%
X72709372Y-66149993D03*
%TO.P,U1,7,GPIO5*%
X72309372Y-66149993D03*
%TO.P,U1,8,GPIO6*%
X71909372Y-66149993D03*
%TO.P,U1,9,GPIO7*%
X71509372Y-66149993D03*
%TO.P,U1,10,IOVDD*%
X71109372Y-66149993D03*
%TO.P,U1,11,GPIO8*%
X70709372Y-66149993D03*
%TO.P,U1,12,GPIO9*%
X70309372Y-66149993D03*
%TO.P,U1,13,GPIO10*%
X69909372Y-66149993D03*
%TO.P,U1,14,GPIO11*%
X69509372Y-66149993D03*
D29*
%TO.P,U1,15,GPIO12*%
X68671872Y-65312493D03*
%TO.P,U1,16,GPIO13*%
X68671872Y-64912493D03*
%TO.P,U1,17,GPIO14*%
X68671872Y-64512493D03*
%TO.P,U1,18,GPIO15*%
X68671872Y-64112493D03*
%TO.P,U1,19,TESTEN*%
X68671872Y-63712493D03*
%TO.P,U1,20,XIN*%
X68671872Y-63312493D03*
%TO.P,U1,21,XOUT*%
X68671872Y-62912493D03*
%TO.P,U1,22,IOVDD*%
X68671872Y-62512493D03*
%TO.P,U1,23,DVDD*%
X68671872Y-62112493D03*
%TO.P,U1,24,SWCLK*%
X68671872Y-61712493D03*
%TO.P,U1,25,SWD*%
X68671872Y-61312493D03*
%TO.P,U1,26,RUN*%
X68671872Y-60912493D03*
%TO.P,U1,27,GPIO16*%
X68671872Y-60512493D03*
%TO.P,U1,28,GPIO17*%
X68671872Y-60112493D03*
D28*
%TO.P,U1,29,GPIO18*%
X69509372Y-59274993D03*
%TO.P,U1,30,GPIO19*%
X69909372Y-59274993D03*
%TO.P,U1,31,GPIO20*%
X70309372Y-59274993D03*
%TO.P,U1,32,GPIO21*%
X70709372Y-59274993D03*
%TO.P,U1,33,IOVDD*%
X71109372Y-59274993D03*
%TO.P,U1,34,GPIO22*%
X71509372Y-59274993D03*
%TO.P,U1,35,GPIO23*%
X71909372Y-59274993D03*
%TO.P,U1,36,GPIO24*%
X72309372Y-59274993D03*
%TO.P,U1,37,GPIO25*%
X72709372Y-59274993D03*
%TO.P,U1,38,GPIO26_ADC0*%
X73109372Y-59274993D03*
%TO.P,U1,39,GPIO27_ADC1*%
X73509372Y-59274993D03*
%TO.P,U1,40,GPIO28_ADC2*%
X73909372Y-59274993D03*
%TO.P,U1,41,GPIO29_ADC3*%
X74309372Y-59274993D03*
%TO.P,U1,42,IOVDD*%
X74709372Y-59274993D03*
D29*
%TO.P,U1,43,ADC_AVDD*%
X75546872Y-60112493D03*
%TO.P,U1,44,VREG_IN*%
X75546872Y-60512493D03*
%TO.P,U1,45,VREG_VOUT*%
X75546872Y-60912493D03*
%TO.P,U1,46,USB_DM*%
X75546872Y-61312493D03*
%TO.P,U1,47,USB_DP*%
X75546872Y-61712493D03*
%TO.P,U1,48,USB_VDD*%
X75546872Y-62112493D03*
%TO.P,U1,49,IOVDD*%
X75546872Y-62512493D03*
%TO.P,U1,50,DVDD*%
X75546872Y-62912493D03*
%TO.P,U1,51,QSPI_SD3*%
X75546872Y-63312493D03*
%TO.P,U1,52,QSPI_SCLK*%
X75546872Y-63712493D03*
%TO.P,U1,53,QSPI_SD0*%
X75546872Y-64112493D03*
%TO.P,U1,54,QSPI_SD2*%
X75546872Y-64512493D03*
%TO.P,U1,55,QSPI_SD1*%
X75546872Y-64912493D03*
%TO.P,U1,56,QSPI_SS*%
X75546872Y-65312493D03*
D30*
%TO.P,U1,57,GND*%
X72109372Y-62712493D03*
%TD*%
D22*
%TO.P,C10,1*%
%TO.N,N/C*%
X75129572Y-68160593D03*
%TO.P,C10,2*%
X76679572Y-68160593D03*
%TD*%
D31*
%TO.P,J8,1,1*%
%TO.N,N/C*%
X85009372Y-42810993D03*
%TO.P,J8,2,2*%
X86009373Y-42810993D03*
%TO.P,J8,3,3*%
X87009371Y-42810993D03*
%TO.P,J8,4,4*%
X88009372Y-42810993D03*
D32*
%TO.P,J8,5*%
X89309371Y-38935992D03*
%TO.P,J8,6*%
X83709373Y-38935992D03*
%TD*%
D14*
%TO.P,C9,1*%
%TO.N,N/C*%
X76529572Y-56935593D03*
%TO.P,C9,2*%
X76529572Y-55385593D03*
%TD*%
D22*
%TO.P,C27,1*%
%TO.N,N/C*%
X52759372Y-64212493D03*
%TO.P,C27,2*%
X54309372Y-64212493D03*
%TD*%
D13*
%TO.P,R6,1*%
%TO.N,N/C*%
X46634372Y-65312493D03*
%TO.P,R6,2*%
X44984372Y-65312493D03*
%TD*%
D14*
%TO.P,C1,1*%
%TO.N,N/C*%
X81229572Y-59135593D03*
%TO.P,C1,2*%
X81229572Y-57585593D03*
%TD*%
D17*
%TO.P,RN2,1,R1.1*%
%TO.N,N/C*%
X107589372Y-60508693D03*
%TO.P,RN2,2,R2.1*%
X107589372Y-59168693D03*
%TO.P,RN2,3,R3.1*%
X107589372Y-57848693D03*
%TO.P,RN2,4,R4.1*%
X107589372Y-56508693D03*
%TO.P,RN2,5,R4.2*%
X110589372Y-56508693D03*
%TO.P,RN2,6,R3.2*%
X110589372Y-57848693D03*
%TO.P,RN2,7,R2.2*%
X110589372Y-59168693D03*
%TO.P,RN2,8,R1.2*%
X110589372Y-60508693D03*
%TD*%
%TO.P,RN4,1,R1.1*%
%TO.N,N/C*%
X127909372Y-60508693D03*
%TO.P,RN4,2,R2.1*%
X127909372Y-59168693D03*
%TO.P,RN4,3,R3.1*%
X127909372Y-57848693D03*
%TO.P,RN4,4,R4.1*%
X127909372Y-56508693D03*
%TO.P,RN4,5,R4.2*%
X130909372Y-56508693D03*
%TO.P,RN4,6,R3.2*%
X130909372Y-57848693D03*
%TO.P,RN4,7,R2.2*%
X130909372Y-59168693D03*
%TO.P,RN4,8,R1.2*%
X130909372Y-60508693D03*
%TD*%
D18*
%TO.P,C34,1*%
%TO.N,N/C*%
X46584372Y-68912493D03*
%TO.P,C34,2*%
X45034372Y-68912493D03*
%TD*%
D17*
%TO.P,RN3,1,R1.1*%
%TO.N,N/C*%
X115669372Y-56508693D03*
%TO.P,RN3,2,R2.1*%
X115669372Y-57848693D03*
%TO.P,RN3,3,R3.1*%
X115669372Y-59168693D03*
%TO.P,RN3,4,R4.1*%
X115669372Y-60508693D03*
%TO.P,RN3,5,R4.2*%
X112669372Y-60508693D03*
%TO.P,RN3,6,R3.2*%
X112669372Y-59168693D03*
%TO.P,RN3,7,R2.2*%
X112669372Y-57848693D03*
%TO.P,RN3,8,R1.2*%
X112669372Y-56508693D03*
%TD*%
%TO.P,RN11,1,R1.1*%
%TO.N,N/C*%
X69829372Y-87447493D03*
%TO.P,RN11,2,R2.1*%
X69829372Y-86107493D03*
%TO.P,RN11,3,R3.1*%
X69829372Y-84787493D03*
%TO.P,RN11,4,R4.1*%
X69829372Y-83447493D03*
%TO.P,RN11,5,R4.2*%
X72829372Y-83447493D03*
%TO.P,RN11,6,R3.2*%
X72829372Y-84787493D03*
%TO.P,RN11,7,R2.2*%
X72829372Y-86107493D03*
%TO.P,RN11,8,R1.2*%
X72829372Y-87447493D03*
%TD*%
D16*
%TO.P,U7,1,SH/~LD*%
%TO.N,N/C*%
X165213772Y-54063693D03*
%TO.P,U7,2,CLK*%
X165213772Y-55333693D03*
%TO.P,U7,3,E*%
X165213772Y-56603693D03*
%TO.P,U7,4,F*%
X165213772Y-57873693D03*
%TO.P,U7,5,G*%
X165213772Y-59143693D03*
%TO.P,U7,6,H*%
X165213772Y-60413693D03*
%TO.P,U7,7,~{QH}*%
X165213772Y-61683693D03*
%TO.P,U7,8,GND*%
X165213772Y-62953693D03*
%TO.P,U7,9,QH*%
X160263772Y-62953693D03*
%TO.P,U7,10,SER*%
X160263772Y-61683693D03*
%TO.P,U7,11,A*%
X160263772Y-60413693D03*
%TO.P,U7,12,B*%
X160263772Y-59143693D03*
%TO.P,U7,13,C*%
X160263772Y-57873693D03*
%TO.P,U7,14,D*%
X160263772Y-56603693D03*
%TO.P,U7,15,CLK_INH*%
X160263772Y-55333693D03*
%TO.P,U7,16,VCC*%
X160263772Y-54063693D03*
%TD*%
D22*
%TO.P,C5,1*%
%TO.N,N/C*%
X78154572Y-56412493D03*
%TO.P,C5,2*%
X79704572Y-56412493D03*
%TD*%
%TO.P,C26,1*%
%TO.N,N/C*%
X58584372Y-57812493D03*
%TO.P,C26,2*%
X60134372Y-57812493D03*
%TD*%
D17*
%TO.P,RN6,1,R1.1*%
%TO.N,N/C*%
X148229372Y-60508693D03*
%TO.P,RN6,2,R2.1*%
X148229372Y-59168693D03*
%TO.P,RN6,3,R3.1*%
X148229372Y-57848693D03*
%TO.P,RN6,4,R4.1*%
X148229372Y-56508693D03*
%TO.P,RN6,5,R4.2*%
X151229372Y-56508693D03*
%TO.P,RN6,6,R3.2*%
X151229372Y-57848693D03*
%TO.P,RN6,7,R2.2*%
X151229372Y-59168693D03*
%TO.P,RN6,8,R1.2*%
X151229372Y-60508693D03*
%TD*%
D21*
%TO.P,R14,1*%
%TO.N,N/C*%
X51209372Y-55587493D03*
%TO.P,R14,2*%
X51209372Y-57237493D03*
%TD*%
D33*
%TO.P,U11,1,NC*%
%TO.N,N/C*%
X48571872Y-68762493D03*
%TO.P,U11,2*%
X48571872Y-67812493D03*
%TO.P,U11,3,GND*%
X48571872Y-66862493D03*
%TO.P,U11,4*%
X50846872Y-66862493D03*
%TO.P,U11,5,VCC*%
X50846872Y-68762493D03*
%TD*%
D13*
%TO.P,R4,1*%
%TO.N,N/C*%
X64354572Y-60360593D03*
%TO.P,R4,2*%
X62704572Y-60360593D03*
%TD*%
D24*
%TO.P,R7,1*%
%TO.N,N/C*%
X46409372Y-44237493D03*
%TO.P,R7,2*%
X46409372Y-42587493D03*
%TD*%
D13*
%TO.P,R3,1*%
%TO.N,N/C*%
X83683317Y-60740993D03*
%TO.P,R3,2*%
X82033317Y-60740993D03*
%TD*%
D34*
%TO.P,U9,1,I1*%
%TO.N,N/C*%
X48559372Y-65262493D03*
%TO.P,U9,2,GND*%
X48559372Y-64312493D03*
%TO.P,U9,3,I0*%
X48559372Y-63362493D03*
%TO.P,U9,4,Y*%
X50859372Y-63362493D03*
%TO.P,U9,5,VCC*%
X50859372Y-64312493D03*
%TO.P,U9,6,S*%
X50859372Y-65262493D03*
%TD*%
D22*
%TO.P,C4,1*%
%TO.N,N/C*%
X78934372Y-62812493D03*
%TO.P,C4,2*%
X80484372Y-62812493D03*
%TD*%
D13*
%TO.P,R10,1*%
%TO.N,N/C*%
X57434372Y-64162493D03*
%TO.P,R10,2*%
X55784372Y-64162493D03*
%TD*%
D15*
%TO.P,C20,1*%
%TO.N,N/C*%
X53609372Y-44137493D03*
%TO.P,C20,2*%
X53609372Y-45687493D03*
%TD*%
D22*
%TO.P,C35,1*%
%TO.N,N/C*%
X53909372Y-57712493D03*
%TO.P,C35,2*%
X55459372Y-57712493D03*
%TD*%
D17*
%TO.P,RN1,1,R1.1*%
%TO.N,N/C*%
X95409372Y-55812493D03*
%TO.P,RN1,2,R2.1*%
X95409372Y-57152493D03*
%TO.P,RN1,3,R3.1*%
X95409372Y-58472493D03*
%TO.P,RN1,4,R4.1*%
X95409372Y-59812493D03*
%TO.P,RN1,5,R4.2*%
X92409372Y-59812493D03*
%TO.P,RN1,6,R3.2*%
X92409372Y-58472493D03*
%TO.P,RN1,7,R2.2*%
X92409372Y-57152493D03*
%TO.P,RN1,8,R1.2*%
X92409372Y-55812493D03*
%TD*%
%TO.P,RN8,1,R1.1*%
%TO.N,N/C*%
X170259372Y-63512493D03*
%TO.P,RN8,2,R2.1*%
X170259372Y-62172493D03*
%TO.P,RN8,3,R3.1*%
X170259372Y-60852493D03*
%TO.P,RN8,4,R4.1*%
X170259372Y-59512493D03*
%TO.P,RN8,5,R4.2*%
X173259372Y-59512493D03*
%TO.P,RN8,6,R3.2*%
X173259372Y-60852493D03*
%TO.P,RN8,7,R2.2*%
X173259372Y-62172493D03*
%TO.P,RN8,8,R1.2*%
X173259372Y-63512493D03*
%TD*%
D22*
%TO.P,C2,1*%
%TO.N,N/C*%
X79696872Y-64412493D03*
%TO.P,C2,2*%
X81246872Y-64412493D03*
%TD*%
%TO.P,C12,1*%
%TO.N,N/C*%
X78154572Y-59660593D03*
%TO.P,C12,2*%
X79704572Y-59660593D03*
%TD*%
%TO.P,C36,1*%
%TO.N,N/C*%
X52634372Y-68712493D03*
%TO.P,C36,2*%
X54184372Y-68712493D03*
%TD*%
D14*
%TO.P,C13,1*%
%TO.N,N/C*%
X66229572Y-67135593D03*
%TO.P,C13,2*%
X66229572Y-65585593D03*
%TD*%
D13*
%TO.P,R2,1*%
%TO.N,N/C*%
X83683317Y-62290393D03*
%TO.P,R2,2*%
X82033317Y-62290393D03*
%TD*%
D35*
%TO.P,U2,1,/CS*%
%TO.N,N/C*%
X93314372Y-69117493D03*
%TO.P,U2,2,DO(IO1)*%
X92044372Y-69117493D03*
%TO.P,U2,3,/WP(IO2)*%
X90774372Y-69117493D03*
%TO.P,U2,4,GND*%
X89504372Y-69117493D03*
%TO.P,U2,5,DI(IO0)*%
X89504372Y-61907493D03*
%TO.P,U2,6,CLK*%
X90774372Y-61907493D03*
%TO.P,U2,7,/HOLD/RESET(IO3)*%
X92044372Y-61907493D03*
%TO.P,U2,8,VCC*%
X93314372Y-61907493D03*
%TD*%
D17*
%TO.P,RN7,1,R1.1*%
%TO.N,N/C*%
X156309372Y-56508693D03*
%TO.P,RN7,2,R2.1*%
X156309372Y-57848693D03*
%TO.P,RN7,3,R3.1*%
X156309372Y-59168693D03*
%TO.P,RN7,4,R4.1*%
X156309372Y-60508693D03*
%TO.P,RN7,5,R4.2*%
X153309372Y-60508693D03*
%TO.P,RN7,6,R3.2*%
X153309372Y-59168693D03*
%TO.P,RN7,7,R2.2*%
X153309372Y-57848693D03*
%TO.P,RN7,8,R1.2*%
X153309372Y-56508693D03*
%TD*%
D14*
%TO.P,C19,1*%
%TO.N,N/C*%
X129712072Y-31283893D03*
%TO.P,C19,2*%
X129712072Y-29733893D03*
%TD*%
%TO.P,C25,1*%
%TO.N,N/C*%
X157299972Y-53822693D03*
%TO.P,C25,2*%
X157299972Y-52272693D03*
%TD*%
D16*
%TO.P,U4,1,SH/~LD*%
%TO.N,N/C*%
X103944372Y-54063693D03*
%TO.P,U4,2,CLK*%
X103944372Y-55333693D03*
%TO.P,U4,3,E*%
X103944372Y-56603693D03*
%TO.P,U4,4,F*%
X103944372Y-57873693D03*
%TO.P,U4,5,G*%
X103944372Y-59143693D03*
%TO.P,U4,6,H*%
X103944372Y-60413693D03*
%TO.P,U4,7,~{QH}*%
X103944372Y-61683693D03*
%TO.P,U4,8,GND*%
X103944372Y-62953693D03*
%TO.P,U4,9,QH*%
X98994372Y-62953693D03*
%TO.P,U4,10,SER*%
X98994372Y-61683693D03*
%TO.P,U4,11,A*%
X98994372Y-60413693D03*
%TO.P,U4,12,B*%
X98994372Y-59143693D03*
%TO.P,U4,13,C*%
X98994372Y-57873693D03*
%TO.P,U4,14,D*%
X98994372Y-56603693D03*
%TO.P,U4,15,CLK_INH*%
X98994372Y-55333693D03*
%TO.P,U4,16,VCC*%
X98994372Y-54063693D03*
%TD*%
D22*
%TO.P,C11,1*%
%TO.N,N/C*%
X78154572Y-57960593D03*
%TO.P,C11,2*%
X79704572Y-57960593D03*
%TD*%
D15*
%TO.P,C31,1*%
%TO.N,N/C*%
X159809372Y-32987493D03*
%TO.P,C31,2*%
X159809372Y-34537493D03*
%TD*%
D22*
%TO.P,C29,1*%
%TO.N,N/C*%
X42034372Y-74512493D03*
%TO.P,C29,2*%
X43584372Y-74512493D03*
%TD*%
D14*
%TO.P,C22,1*%
%TO.N,N/C*%
X96809372Y-54087493D03*
%TO.P,C22,2*%
X96809372Y-52537493D03*
%TD*%
D36*
%TO.P,C16,1*%
%TO.N,N/C*%
X96809372Y-31237493D03*
%TO.P,C16,2*%
X96809372Y-34187493D03*
%TD*%
D24*
%TO.P,R1,1*%
%TO.N,N/C*%
X55209372Y-41012493D03*
%TO.P,R1,2*%
X55209372Y-39362493D03*
%TD*%
D22*
%TO.P,C28,1*%
%TO.N,N/C*%
X42034372Y-72712493D03*
%TO.P,C28,2*%
X43584372Y-72712493D03*
%TD*%
D36*
%TO.P,C17,1*%
%TO.N,N/C*%
X106609372Y-31337493D03*
%TO.P,C17,2*%
X106609372Y-34287493D03*
%TD*%
D37*
%TO.P,U12,1,NC*%
%TO.N,N/C*%
X58459372Y-61849993D03*
%TO.P,U12,2*%
X57509372Y-61849993D03*
%TO.P,U12,3,GND*%
X56559372Y-61849993D03*
%TO.P,U12,4*%
X56559372Y-59574993D03*
%TO.P,U12,5,VCC*%
X58459372Y-59574993D03*
%TD*%
D10*
%TO.P,J2,1,Pin_1*%
%TO.N,N/C*%
X146909372Y-36912493D03*
D11*
%TO.P,J2,2,Pin_2*%
X146909372Y-34912493D03*
%TD*%
D12*
%TO.P,S3,1,1*%
%TO.N,N/C*%
X67078572Y-46151593D03*
%TO.P,S3,2,2*%
X80503572Y-43611593D03*
%TD*%
D38*
%TO.P,MT1,1*%
%TO.N,N/C*%
X53176072Y-55691593D03*
D39*
%TO.P,MT1,2*%
X48176072Y-55691593D03*
%TO.P,MT1,A,A*%
X53176072Y-41191593D03*
%TO.P,MT1,B,B*%
X48176072Y-41191593D03*
%TO.P,MT1,COM,COM*%
X50676072Y-41191593D03*
D40*
%TO.P,MT1,S1,SHIELD*%
X56376072Y-48691593D03*
%TO.P,MT1,S2,SHIELD__1*%
X44976072Y-48691593D03*
%TD*%
D41*
%TO.P,Brd1,1,GND*%
%TO.N,N/C*%
X131854572Y-28677093D03*
D42*
%TO.P,Brd1,2,VCC*%
X131854572Y-31217093D03*
%TO.P,Brd1,3,SCL*%
X131854572Y-33757093D03*
%TO.P,Brd1,4,SDA*%
X131854572Y-36297093D03*
%TD*%
D12*
%TO.P,S5,1,1*%
%TO.N,N/C*%
X109941072Y-46151593D03*
%TO.P,S5,2,2*%
X123366072Y-43611593D03*
%TD*%
D43*
%TO.P,H2,1,1*%
%TO.N,N/C*%
X154809372Y-36612493D03*
%TD*%
D44*
%TO.P,J5,1,Pin_1*%
%TO.N,N/C*%
X164238572Y-32940093D03*
%TO.P,J5,2,Pin_2*%
X164238572Y-35440093D03*
%TO.P,J5,3,Pin_3*%
X164238572Y-37940093D03*
%TO.P,J5,4,Pin_4*%
X164238572Y-40440093D03*
%TD*%
D12*
%TO.P,S21,1,1*%
%TO.N,N/C*%
X148041072Y-46151593D03*
%TO.P,S21,2,2*%
X161466072Y-43611593D03*
%TD*%
D45*
%TO.N,*%
X102709372Y-34112493D03*
X88309372Y-69712493D03*
X161409372Y-46112493D03*
X101709372Y-40912493D03*
X55609372Y-80612493D03*
X44509372Y-74512493D03*
X53609372Y-80612493D03*
X129712072Y-28815193D03*
X56359372Y-90062493D03*
X71309372Y-75012493D03*
X74509372Y-83712493D03*
X67209372Y-60112493D03*
X100709372Y-34112493D03*
X55153999Y-58328526D03*
X155309372Y-64012493D03*
X71109372Y-87412493D03*
X69059372Y-86082493D03*
X125909372Y-62912493D03*
X124359531Y-46563744D03*
X58909372Y-80012493D03*
X175809372Y-69912493D03*
X68309372Y-84812493D03*
X162409372Y-46112493D03*
X58109372Y-80912493D03*
X96809372Y-35312493D03*
X58759372Y-86082493D03*
X144583839Y-64351702D03*
X58109372Y-76912493D03*
X59909372Y-87352493D03*
X110609372Y-62312493D03*
X80352180Y-63563632D03*
X56359372Y-84862493D03*
X67509372Y-83447493D03*
X127609372Y-28912493D03*
X60809372Y-68062493D03*
X141409372Y-46012493D03*
X53909372Y-61012493D03*
X54909372Y-65712493D03*
X70313968Y-68817089D03*
X67750592Y-64296639D03*
X154309372Y-64012493D03*
X82159372Y-64412493D03*
X105009372Y-34312493D03*
X65609372Y-64412493D03*
X83009372Y-57612493D03*
X68509372Y-75512493D03*
X143583839Y-64351702D03*
X53909372Y-64812493D03*
X88009372Y-44412493D03*
X160409372Y-46112493D03*
X77244207Y-55216997D03*
X174809372Y-69912493D03*
X89309372Y-42812493D03*
X68809372Y-57412493D03*
X61933005Y-61859575D03*
X47909372Y-46812493D03*
X79209372Y-60312493D03*
X64609372Y-89412493D03*
X100709372Y-55312493D03*
X56109372Y-61012493D03*
X94509372Y-63512493D03*
X47009372Y-64212493D03*
X54609372Y-80612493D03*
X83009372Y-56612493D03*
X83009372Y-58612493D03*
X47509372Y-66312493D03*
X120939372Y-55333693D03*
X142109372Y-58712493D03*
X122359531Y-46563744D03*
X110709372Y-42112493D03*
X102709372Y-40912493D03*
X129009372Y-54112493D03*
X123359531Y-46563744D03*
X156309372Y-64012493D03*
X142009372Y-56712493D03*
X165209372Y-64012493D03*
X59409372Y-82312493D03*
X111609372Y-62312493D03*
X112609372Y-62312493D03*
X176809372Y-69912493D03*
X141130572Y-55333693D03*
X100709372Y-40912493D03*
X45009372Y-69812493D03*
X71009372Y-84812493D03*
X145583839Y-64351702D03*
X103609372Y-63912493D03*
X89309372Y-41812493D03*
X61409372Y-78612493D03*
X74509372Y-85712493D03*
X59807603Y-58659278D03*
X66009372Y-68012493D03*
X142409372Y-46012493D03*
X109709372Y-42112493D03*
X76409375Y-67212493D03*
X89309372Y-43812493D03*
X53802357Y-67806761D03*
X143409372Y-46012493D03*
X101709372Y-32512493D03*
X44609372Y-75912493D03*
X79989703Y-55592824D03*
X74109372Y-55212493D03*
X161809372Y-55312493D03*
X101709372Y-34112493D03*
X53609372Y-46812493D03*
X107309372Y-54012493D03*
X74509372Y-84712493D03*
X126209372Y-60508693D03*
X158109372Y-59143693D03*
X142109372Y-57712493D03*
X134609372Y-56312493D03*
X158109372Y-60413693D03*
X161809372Y-56612493D03*
X100409372Y-69012493D03*
X163678172Y-59143693D03*
X134509372Y-59712493D03*
X43609372Y-71712493D03*
X137809372Y-60413693D03*
X74309372Y-69512493D03*
X136809372Y-57873693D03*
X125709372Y-59168693D03*
X125809372Y-57848693D03*
X163309372Y-56603693D03*
X163248172Y-57873693D03*
X158509372Y-57848693D03*
X129109372Y-48012493D03*
X126109372Y-68112493D03*
X111709372Y-42112493D03*
X106409372Y-59143693D03*
X116709372Y-57873693D03*
X96534372Y-56187493D03*
X105609372Y-57873693D03*
X107609372Y-62312493D03*
X93909372Y-52212493D03*
X109609372Y-48112493D03*
X106109372Y-56603693D03*
X122709372Y-56603693D03*
X117609372Y-60413693D03*
X120709372Y-56603693D03*
X57409372Y-70312493D03*
X78559372Y-52212493D03*
X57409372Y-66512493D03*
X62863534Y-81123131D03*
X98559372Y-69962493D03*
X94209372Y-57012493D03*
X96754372Y-59067493D03*
X63609372Y-81412493D03*
X63509372Y-69762493D03*
X61709372Y-76512493D03*
X63509372Y-71412493D03*
X109199752Y-38622113D03*
X72009372Y-94412493D03*
X50709372Y-60812493D03*
X72809372Y-93112493D03*
X74409372Y-80012493D03*
X64709372Y-81712493D03*
X69809372Y-74612493D03*
X65309372Y-96212493D03*
X64709372Y-76512493D03*
X64354572Y-56262493D03*
X107109372Y-35697523D03*
X55309372Y-63312493D03*
X81209372Y-51062493D03*
X48809372Y-60812493D03*
X107109372Y-41412493D03*
X54354631Y-58360381D03*
X66209372Y-75512493D03*
X60942672Y-75412493D03*
X93909372Y-67412493D03*
X78509372Y-68912493D03*
X106309372Y-36712493D03*
X98709372Y-65412493D03*
X82059372Y-51562493D03*
X70083637Y-67986758D03*
X106309372Y-41312493D03*
X54609372Y-82412493D03*
X109309372Y-37812493D03*
X71409372Y-83512493D03*
X71209372Y-56812493D03*
X45609372Y-64112493D03*
X63730738Y-61194274D03*
X75609372Y-67212493D03*
X78809372Y-55712493D03*
X79153960Y-63407247D03*
X53009369Y-67912490D03*
D46*
X111609372Y-53787493D03*
X152209372Y-53313693D03*
D45*
X52209372Y-57312493D03*
D46*
X131909372Y-57848693D03*
D45*
X126209372Y-31312493D03*
X90009372Y-57162493D03*
X114809372Y-31312493D03*
D46*
X131909372Y-53313693D03*
D45*
X77209372Y-56312493D03*
X60420255Y-78544013D03*
D46*
X111609372Y-57812493D03*
D45*
X146709372Y-48112493D03*
X53009369Y-64912493D03*
X146709372Y-56603693D03*
X152209372Y-57848693D03*
X59009372Y-58712493D03*
%TD*%
D47*
%TO.N,*%
X62754572Y-65035593D02*
X62229572Y-65560593D01*
D48*
X57267370Y-44037493D02*
X55209372Y-44037493D01*
X69565034Y-58412493D02*
X68809372Y-58412493D01*
X68809372Y-58412493D02*
X63409372Y-53012493D01*
D47*
X55209372Y-41012493D02*
X55209372Y-42387493D01*
X46409372Y-44237493D02*
X47859372Y-44237493D01*
D49*
X46634372Y-65312493D02*
X48509372Y-65312493D01*
X62204572Y-65585593D02*
X62229572Y-65560593D01*
D47*
X55209372Y-42387493D02*
X54371972Y-42387493D01*
D48*
X54955172Y-53912493D02*
X53176072Y-55691593D01*
X70309372Y-57079495D02*
X57267370Y-44037493D01*
D49*
X66209372Y-86082493D02*
X69804372Y-86082493D01*
D48*
X69509372Y-59274993D02*
X68571872Y-59274993D01*
D47*
X54371972Y-42387493D02*
X53176072Y-41191593D01*
X62229572Y-65560593D02*
X62229572Y-63967293D01*
X62229572Y-63967293D02*
X62684372Y-63512493D01*
D50*
X51209372Y-55587493D02*
X53071972Y-55587493D01*
D48*
X68571872Y-59274993D02*
X63209372Y-53912493D01*
X69909372Y-58756831D02*
X69565034Y-58412493D01*
X63409372Y-53012493D02*
X56509372Y-53012493D01*
X56509372Y-53012493D02*
X49484372Y-45987493D01*
D47*
X49534372Y-44212493D02*
X49534372Y-45737493D01*
D48*
X70309372Y-59274993D02*
X70309372Y-57079495D01*
X63209372Y-53912493D02*
X54955172Y-53912493D01*
D47*
X47884372Y-44212493D02*
X47884372Y-41483293D01*
X55209372Y-44037493D02*
X53709372Y-44037493D01*
D48*
X69909372Y-59274993D02*
X69909372Y-58756831D01*
D49*
X60409372Y-65585593D02*
X62204572Y-65585593D01*
D50*
X43584372Y-74512493D02*
X44509372Y-74512493D01*
D49*
X71109372Y-87412493D02*
X69864372Y-87412493D01*
D50*
X106609372Y-34287493D02*
X105034372Y-34287493D01*
X80352180Y-63563632D02*
X80352180Y-62774372D01*
D49*
X61209372Y-87352493D02*
X59909372Y-87352493D01*
X61209372Y-84812493D02*
X57614372Y-84812493D01*
X57684372Y-87352493D02*
X59909372Y-87352493D01*
X66209372Y-84812493D02*
X68309372Y-84812493D01*
D50*
X59449372Y-82272493D02*
X59409372Y-82312493D01*
D49*
X58086072Y-76889193D02*
X58109372Y-76912493D01*
D50*
X79209372Y-60312493D02*
X79209372Y-60155793D01*
D49*
X66209372Y-87352493D02*
X69734372Y-87352493D01*
X68309372Y-84812493D02*
X69804372Y-84812493D01*
D50*
X47934372Y-46787493D02*
X47909372Y-46812493D01*
X101709372Y-30962493D02*
X101709372Y-32512493D01*
D49*
X88307872Y-42810993D02*
X89309372Y-43812493D01*
X56359372Y-90062493D02*
X58086072Y-91789193D01*
X58109372Y-82595893D02*
X58086072Y-82619193D01*
D50*
X98994372Y-55333693D02*
X100688172Y-55333693D01*
D49*
X58086072Y-91789193D02*
X58086072Y-94094093D01*
X69829372Y-83447493D02*
X66304372Y-83447493D01*
X56359372Y-84862493D02*
X57514372Y-84862493D01*
D50*
X60809372Y-68062493D02*
X60409372Y-67662493D01*
D49*
X58109372Y-80912493D02*
X58109372Y-82595893D01*
D47*
X67750592Y-64099913D02*
X67750592Y-64296639D01*
D49*
X59009372Y-83542493D02*
X57684372Y-83542493D01*
X61209372Y-83542493D02*
X59009372Y-83542493D01*
D50*
X124264372Y-62953693D02*
X125868172Y-62953693D01*
D49*
X61209372Y-86082493D02*
X57614372Y-86082493D01*
D50*
X60134372Y-58332509D02*
X60134372Y-57812493D01*
D49*
X59009372Y-83542493D02*
X58086072Y-82619193D01*
X58086072Y-75044093D02*
X58086072Y-76889193D01*
X88009372Y-42810993D02*
X88307872Y-42810993D01*
D50*
X68473572Y-77584093D02*
X68473572Y-75548293D01*
X95409372Y-63487493D02*
X94534372Y-63487493D01*
X59807603Y-58659278D02*
X60134372Y-58332509D01*
X60409372Y-67135593D02*
X62204572Y-67135593D01*
D49*
X88309372Y-69712493D02*
X88909372Y-69712493D01*
D50*
X54184372Y-68712493D02*
X54184372Y-68188776D01*
X48059372Y-66862493D02*
X48571872Y-66862493D01*
X79704572Y-55877955D02*
X79704572Y-56412493D01*
X161788172Y-55333693D02*
X160263772Y-55333693D01*
X45034372Y-69787493D02*
X45009372Y-69812493D01*
X141130572Y-55333693D02*
X139634372Y-55333693D01*
X56559372Y-61462493D02*
X56109372Y-61012493D01*
X55834372Y-65712493D02*
X54909372Y-65712493D01*
X165213772Y-64008093D02*
X165209372Y-64012493D01*
X76679572Y-67482690D02*
X76679572Y-68160593D01*
X54184372Y-68188776D02*
X53802357Y-67806761D01*
X44661072Y-75964193D02*
X44609372Y-75912493D01*
X66229572Y-67135593D02*
X66229572Y-67792293D01*
D47*
X68138012Y-63712493D02*
X67750592Y-64099913D01*
D50*
X47509372Y-66312493D02*
X48059372Y-66862493D01*
X94534372Y-63487493D02*
X94509372Y-63512493D01*
X53909372Y-64812493D02*
X54309372Y-64412493D01*
X76409375Y-67212493D02*
X76679572Y-67482690D01*
D49*
X89309372Y-41812493D02*
X89007872Y-41812493D01*
X89007872Y-41812493D02*
X88009372Y-42810993D01*
D50*
X65089372Y-89892493D02*
X64609372Y-89412493D01*
D49*
X89309372Y-42812493D02*
X88010872Y-42812493D01*
D50*
X103944372Y-63577493D02*
X103609372Y-63912493D01*
X161809372Y-55312493D02*
X161788172Y-55333693D01*
X66162572Y-60100193D02*
X67197072Y-60100193D01*
X127609372Y-29737493D02*
X127609372Y-28912493D01*
X53609372Y-45687493D02*
X53609372Y-46812493D01*
X64461272Y-65560593D02*
X65609372Y-64412493D01*
X62204572Y-67135593D02*
X62229572Y-67160593D01*
X48559372Y-64312493D02*
X47109372Y-64312493D01*
X67197072Y-60100193D02*
X67209372Y-60112493D01*
X70784372Y-69287493D02*
X70313968Y-68817089D01*
X96809372Y-34187493D02*
X96809372Y-35312493D01*
X55459372Y-58023153D02*
X55459372Y-57712493D01*
X47934372Y-45787493D02*
X47934372Y-46787493D01*
X79704572Y-57960593D02*
X79704572Y-56412493D01*
D47*
X79343686Y-65912493D02*
X86109372Y-65912493D01*
X75546872Y-64512493D02*
X76812314Y-64512493D01*
X76812314Y-64512493D02*
X79012314Y-66712493D01*
D50*
X47109372Y-64312493D02*
X47009372Y-64212493D01*
D49*
X88009372Y-42810993D02*
X88009372Y-44412493D01*
D50*
X103944372Y-62953693D02*
X103944372Y-63577493D01*
X144583839Y-64351702D02*
X144583839Y-62954226D01*
X77244207Y-55216997D02*
X77075611Y-55385593D01*
D47*
X72009372Y-91312493D02*
X62629372Y-91312493D01*
D49*
X62209371Y-88622493D02*
X64129371Y-90542493D01*
D50*
X43584372Y-71737493D02*
X43609372Y-71712493D01*
X100688172Y-55333693D02*
X100709372Y-55312493D01*
X105034372Y-34287493D02*
X105009372Y-34312493D01*
X61209372Y-82272493D02*
X59449372Y-82272493D01*
D47*
X62629372Y-91312493D02*
X61209372Y-89892493D01*
D50*
X66229572Y-67792293D02*
X66009372Y-68012493D01*
X53909372Y-61912493D02*
X53909372Y-61012493D01*
D47*
X79012314Y-66712493D02*
X89174371Y-66712493D01*
D50*
X74282472Y-55385593D02*
X74929572Y-55385593D01*
X120939372Y-55333693D02*
X119314372Y-55333693D01*
D49*
X98994372Y-62953693D02*
X100409372Y-64368693D01*
D50*
X125868172Y-62953693D02*
X125909372Y-62912493D01*
X45034372Y-68912493D02*
X45034372Y-69787493D01*
X55153999Y-58328526D02*
X55459372Y-58023153D01*
D49*
X50846872Y-66862493D02*
X50846872Y-65274993D01*
X61209372Y-88622493D02*
X62209371Y-88622493D01*
D47*
X90774372Y-69117493D02*
X90774372Y-68312494D01*
X88009372Y-64012493D02*
X88009372Y-60912493D01*
D49*
X88909372Y-69712493D02*
X89504372Y-69117493D01*
D50*
X66209372Y-89892493D02*
X65089372Y-89892493D01*
X43584372Y-72712493D02*
X43584372Y-71737493D01*
X79209372Y-60155793D02*
X79704572Y-59660593D01*
X74109372Y-55212493D02*
X74282472Y-55385593D01*
X68809372Y-57412493D02*
X69334372Y-57412493D01*
D47*
X74309372Y-69512493D02*
X73909372Y-69112493D01*
X73909372Y-69112493D02*
X73909372Y-66149993D01*
D50*
X79989703Y-55592824D02*
X79704572Y-55877955D01*
D49*
X100409372Y-64368693D02*
X100409372Y-69012493D01*
D50*
X82159372Y-64412493D02*
X81246872Y-64412493D01*
X68473572Y-75548293D02*
X68509372Y-75512493D01*
D49*
X61884372Y-79087493D02*
X61409372Y-78612493D01*
D47*
X68671872Y-63712493D02*
X68138012Y-63712493D01*
D50*
X62711822Y-61859575D02*
X61933005Y-61859575D01*
X56559372Y-59574993D02*
X54896872Y-59574993D01*
X60409372Y-67662493D02*
X60409372Y-67135593D01*
D47*
X75546872Y-63712493D02*
X77143686Y-63712493D01*
D49*
X64129371Y-90542493D02*
X69398611Y-90542493D01*
D50*
X129712072Y-28815193D02*
X129712072Y-29733893D01*
X71109372Y-69287493D02*
X70784372Y-69287493D01*
X77075611Y-55385593D02*
X76529572Y-55385593D01*
D47*
X90774372Y-68312494D02*
X89174371Y-66712493D01*
D50*
X165213772Y-62953693D02*
X165213772Y-64008093D01*
D49*
X69398611Y-90542493D02*
X71028611Y-88912493D01*
X71028611Y-88912493D02*
X73209372Y-88912493D01*
D47*
X76978000Y-64112493D02*
X79178000Y-66312493D01*
X75546872Y-64912493D02*
X76646628Y-64912493D01*
X76646628Y-64912493D02*
X82546628Y-70812493D01*
D49*
X166950572Y-59143693D02*
X169979372Y-62172493D01*
X163248172Y-57873693D02*
X165213772Y-57873693D01*
X165213772Y-60413693D02*
X166900572Y-60413693D01*
X163309372Y-56603693D02*
X165213772Y-56603693D01*
X160263772Y-60413693D02*
X156404372Y-60413693D01*
X165213772Y-59143693D02*
X166950572Y-59143693D01*
X167020572Y-57873693D02*
X169999372Y-60852493D01*
D47*
X90774372Y-60777493D02*
X90774372Y-61907493D01*
X88009372Y-60912493D02*
X88509372Y-60412493D01*
D49*
X166900572Y-60413693D02*
X169999372Y-63512493D01*
D47*
X77143686Y-63712493D02*
X79343686Y-65912493D01*
X82546628Y-70812493D02*
X90909372Y-70812493D01*
X86109372Y-65912493D02*
X88009372Y-64012493D01*
X88509372Y-60412493D02*
X90409372Y-60412493D01*
X87509372Y-63512493D02*
X87509372Y-60512493D01*
X79509372Y-65512493D02*
X85509372Y-65512493D01*
X75546872Y-64112493D02*
X76978000Y-64112493D01*
X87509372Y-60512493D02*
X88109372Y-59912493D01*
X75546872Y-63312493D02*
X77309372Y-63312493D01*
X88109372Y-59912493D02*
X91009372Y-59912493D01*
X90909372Y-70812493D02*
X92044372Y-69677493D01*
D49*
X169715233Y-59512493D02*
X170259372Y-59512493D01*
D47*
X77309372Y-63312493D02*
X79509372Y-65512493D01*
D49*
X168780172Y-63512493D02*
X170259372Y-63512493D01*
X166806433Y-56603693D02*
X169715233Y-59512493D01*
X165213772Y-57873693D02*
X167020572Y-57873693D01*
D47*
X90409372Y-60412493D02*
X90774372Y-60777493D01*
X88209372Y-66312493D02*
X89504372Y-65017493D01*
X85509372Y-65512493D02*
X87509372Y-63512493D01*
X91009372Y-59912493D02*
X92044372Y-60947493D01*
D49*
X165213772Y-56603693D02*
X166806433Y-56603693D01*
D47*
X92044372Y-60947493D02*
X92044372Y-61907493D01*
D49*
X163678172Y-59143693D02*
X165213772Y-59143693D01*
X162328572Y-69964093D02*
X168780172Y-63512493D01*
D47*
X89504372Y-65017493D02*
X89504372Y-61907493D01*
X79178000Y-66312493D02*
X88209372Y-66312493D01*
D49*
X134805572Y-56508693D02*
X134609372Y-56312493D01*
X127909372Y-60508693D02*
X124359372Y-60508693D01*
X127909372Y-59168693D02*
X124289372Y-59168693D01*
X139634372Y-56603693D02*
X136084372Y-56603693D01*
X135989372Y-56508693D02*
X134805572Y-56508693D01*
X127909372Y-57848693D02*
X124289372Y-57848693D01*
X139634372Y-60413693D02*
X136084372Y-60413693D01*
X124264372Y-56603693D02*
X122709372Y-56603693D01*
X107589372Y-60508693D02*
X107589372Y-62292493D01*
X114809372Y-66912493D02*
X119998572Y-72101693D01*
X120709372Y-56603693D02*
X119314372Y-56603693D01*
X127909372Y-56508693D02*
X124359372Y-56508693D01*
X103944372Y-60413693D02*
X107494372Y-60413693D01*
X119314372Y-57873693D02*
X115694372Y-57873693D01*
X115669372Y-56508693D02*
X119219372Y-56508693D01*
X116709372Y-57873693D02*
X119314372Y-57873693D01*
X117609372Y-60413693D02*
X119314372Y-60413693D01*
X114809372Y-59768693D02*
X114809372Y-66912493D01*
X107589372Y-62292493D02*
X107609372Y-62312493D01*
X119998572Y-72101693D02*
X119998572Y-75044093D01*
X119314372Y-60413693D02*
X115764372Y-60413693D01*
X119314372Y-59143693D02*
X115694372Y-59143693D01*
X115409372Y-59168693D02*
X114809372Y-59768693D01*
X156309372Y-57848693D02*
X160238772Y-57848693D01*
X161800572Y-56603693D02*
X161809372Y-56612493D01*
X160263772Y-56603693D02*
X161800572Y-56603693D01*
X156309372Y-56508693D02*
X160168772Y-56508693D01*
X144584372Y-59143693D02*
X143599373Y-59143693D01*
X126080172Y-68112493D02*
X124228572Y-69964093D01*
X126109372Y-68112493D02*
X126080172Y-68112493D01*
X146709372Y-66533293D02*
X143278572Y-69964093D01*
X144584372Y-57873693D02*
X148204372Y-57873693D01*
X139634372Y-57873693D02*
X136014372Y-57873693D01*
X129109372Y-48012493D02*
X129109372Y-46269893D01*
X146709372Y-60413693D02*
X148134372Y-60413693D01*
X144584372Y-59143693D02*
X148204372Y-59143693D01*
X135989372Y-59168693D02*
X135053172Y-59168693D01*
X143599373Y-59143693D02*
X141653572Y-61089494D01*
X146709372Y-60413693D02*
X146709372Y-66533293D01*
X139634372Y-59143693D02*
X136014372Y-59143693D01*
X135053172Y-59168693D02*
X134509372Y-59712493D01*
X144116252Y-57873693D02*
X141009372Y-60980573D01*
X160263772Y-59143693D02*
X156334372Y-59143693D01*
X144584372Y-60413693D02*
X146709372Y-60413693D01*
X96880572Y-57873693D02*
X98994372Y-57873693D01*
D51*
X82033317Y-60740993D02*
X81320816Y-60740993D01*
D47*
X61909372Y-70362493D02*
X57459372Y-70362493D01*
D51*
X84855932Y-61273693D02*
X86267372Y-59862253D01*
D47*
X68671872Y-62912493D02*
X64934372Y-62912493D01*
X93314372Y-69117493D02*
X95389372Y-69117493D01*
X75546872Y-65312493D02*
X76409372Y-65312493D01*
D51*
X86751372Y-44231043D02*
X87009371Y-43973044D01*
X86009373Y-43973044D02*
X86009373Y-42810993D01*
D47*
X77120572Y-61312493D02*
X77159372Y-61273693D01*
X77117372Y-61715693D02*
X77159372Y-61757693D01*
X68671872Y-67049993D02*
X68671872Y-65312493D01*
D51*
X86751372Y-60062733D02*
X86751372Y-44231043D01*
D47*
X91286574Y-71354093D02*
X93314372Y-69326295D01*
D51*
X83758317Y-60740993D02*
X84291017Y-61273693D01*
D47*
X65359372Y-70362493D02*
X68671872Y-67049993D01*
X57409372Y-66512493D02*
X57409372Y-65737493D01*
X82450972Y-71354093D02*
X91286574Y-71354093D01*
X76409372Y-65312493D02*
X82450972Y-71354093D01*
D51*
X81320816Y-60740993D02*
X80788116Y-61273693D01*
X86267372Y-44231043D02*
X86009373Y-43973044D01*
X84291017Y-61273693D02*
X84855932Y-61273693D01*
X82033317Y-62290393D02*
X81320816Y-62290393D01*
D47*
X61909372Y-70362493D02*
X65359372Y-70362493D01*
X75546872Y-61312493D02*
X77120572Y-61312493D01*
D51*
X80788116Y-61273693D02*
X77159372Y-61273693D01*
D47*
X75546872Y-61712493D02*
X76973090Y-61712493D01*
D51*
X86267372Y-59862253D02*
X86267372Y-44231043D01*
X85056412Y-61757693D02*
X86751372Y-60062733D01*
D47*
X76973090Y-61712493D02*
X76976290Y-61715693D01*
X64934372Y-62912493D02*
X64334372Y-63512493D01*
D51*
X81320816Y-62290393D02*
X80788116Y-61757693D01*
X83758317Y-62290393D02*
X84291017Y-61757693D01*
X87009371Y-43973044D02*
X87009371Y-42810993D01*
X84291017Y-61757693D02*
X85056412Y-61757693D01*
X80788116Y-61757693D02*
X77159372Y-61757693D01*
D47*
X76976290Y-61715693D02*
X77117372Y-61715693D01*
D49*
X62959372Y-81027293D02*
X62863534Y-81123131D01*
D47*
X57384372Y-65712493D02*
X57384372Y-64212493D01*
D49*
X61909372Y-73312493D02*
X62959372Y-74362493D01*
X62959372Y-74362493D02*
X62959372Y-81027293D01*
D47*
X71809372Y-71412493D02*
X73109372Y-70112493D01*
X71809372Y-73362493D02*
X71809372Y-71412493D01*
X57459372Y-70362493D02*
X57409372Y-70312493D01*
D49*
X61909372Y-70362493D02*
X61909372Y-73312493D01*
D47*
X75009372Y-76562493D02*
X71809372Y-73362493D01*
D49*
X50709372Y-60812493D02*
X51859372Y-60812493D01*
D47*
X75009372Y-76712493D02*
X75009372Y-76562493D01*
X73109372Y-70112493D02*
X73109372Y-66149993D01*
X73509372Y-69612493D02*
X74009372Y-70112493D01*
X74009372Y-70112493D02*
X80509372Y-70112493D01*
D49*
X163466172Y-41212493D02*
X164238572Y-40440093D01*
X109199752Y-38622113D02*
X111790132Y-41212493D01*
D47*
X73509372Y-66149993D02*
X73509372Y-69612493D01*
X80509372Y-70112493D02*
X85309372Y-74912493D01*
D49*
X98559372Y-69962493D02*
X100948572Y-72351693D01*
X96830572Y-59143693D02*
X98994372Y-59143693D01*
X103944372Y-56603693D02*
X107494372Y-56603693D01*
X78559372Y-52212493D02*
X69709372Y-52212493D01*
X69709372Y-52212493D02*
X67078572Y-49581693D01*
X109609372Y-48112493D02*
X109609372Y-46483293D01*
X101109372Y-61543694D02*
X101109372Y-65912493D01*
X99979371Y-60413693D02*
X101109372Y-61543694D01*
X96830572Y-59143693D02*
X96754372Y-59067493D01*
X98994372Y-60413693D02*
X96410572Y-60413693D01*
X94209372Y-57012493D02*
X95269372Y-57012493D01*
X101109372Y-65912493D02*
X103009372Y-67812493D01*
X103944372Y-59143693D02*
X107564372Y-59143693D01*
X103944372Y-57873693D02*
X107564372Y-57873693D01*
X100948572Y-72351693D02*
X100948572Y-75044093D01*
X93909372Y-52212493D02*
X90891072Y-49194193D01*
X96159372Y-55812493D02*
X96950572Y-56603693D01*
X96159372Y-58472493D02*
X96830572Y-59143693D01*
X96950572Y-56603693D02*
X98994372Y-56603693D01*
X96410572Y-60413693D02*
X95809372Y-59812493D01*
X90891072Y-49194193D02*
X90891072Y-46151593D01*
X95409372Y-57152493D02*
X96159372Y-57152493D01*
X67078572Y-49581693D02*
X67078572Y-46151593D01*
X95409372Y-58472493D02*
X96159372Y-58472493D01*
X96159372Y-57152493D02*
X96880572Y-57873693D01*
X95809372Y-59812493D02*
X95409372Y-59812493D01*
X98994372Y-60413693D02*
X99979371Y-60413693D01*
X95409372Y-55812493D02*
X96159372Y-55812493D01*
D47*
X63509372Y-69762493D02*
X63459372Y-69812493D01*
X118316962Y-56003693D02*
X123594372Y-56003693D01*
X58003640Y-67206761D02*
X51805656Y-67206761D01*
D49*
X47234372Y-67812493D02*
X46634372Y-67212493D01*
D47*
X67709372Y-67312493D02*
X67709372Y-65341133D01*
X64709372Y-76512493D02*
X64709372Y-81712493D01*
X123594372Y-56003693D02*
X124264372Y-55333693D01*
D49*
X104809372Y-67212493D02*
X102409372Y-64812493D01*
D47*
X159196362Y-55933693D02*
X164613772Y-55933693D01*
X69509372Y-66912493D02*
X64709372Y-71712493D01*
D49*
X102409372Y-55812493D02*
X102888172Y-55333693D01*
D47*
X64709372Y-71712493D02*
X64709372Y-76512493D01*
X143914372Y-56003693D02*
X144584372Y-55333693D01*
X164613772Y-55933693D02*
X165213772Y-55333693D01*
D49*
X102888172Y-55333693D02*
X103944372Y-55333693D01*
D47*
X117646962Y-55333693D02*
X118316962Y-56003693D01*
D49*
X61709372Y-76512493D02*
X61309372Y-76512493D01*
D47*
X63459372Y-69812493D02*
X60609372Y-69812493D01*
D49*
X48571872Y-67812493D02*
X47234372Y-67812493D01*
D47*
X64709372Y-81712493D02*
X65269372Y-82272493D01*
D49*
X102409372Y-64812493D02*
X102409372Y-55812493D01*
D47*
X67709372Y-65341133D02*
X68138012Y-64912493D01*
X65209372Y-69812493D02*
X67709372Y-67312493D01*
X69509372Y-66149993D02*
X69509372Y-66912493D01*
X137600572Y-56003693D02*
X143914372Y-56003693D01*
X136930572Y-55333693D02*
X137600572Y-56003693D01*
D49*
X102959373Y-54063693D02*
X103944372Y-54063693D01*
D47*
X164613772Y-54663693D02*
X165213772Y-54063693D01*
X69909372Y-67112493D02*
X66209372Y-70812493D01*
X143935572Y-54712493D02*
X144584372Y-54063693D01*
X93909372Y-67412493D02*
X93984372Y-67487493D01*
D49*
X109309372Y-37812493D02*
X110009372Y-37812493D01*
D47*
X123664372Y-54663693D02*
X124264372Y-54063693D01*
X124264372Y-54063693D02*
X124913172Y-54712493D01*
X74757776Y-69012493D02*
X74309372Y-68564089D01*
D49*
X101709372Y-65212493D02*
X101709372Y-55313694D01*
D47*
X78409372Y-69012493D02*
X74757776Y-69012493D01*
X103944372Y-54063693D02*
X104544372Y-54663693D01*
D49*
X61309372Y-76512493D02*
X56400272Y-81421593D01*
D47*
X66209372Y-70812493D02*
X66209372Y-75512493D01*
X69909372Y-66149993D02*
X69909372Y-67112493D01*
D49*
X60942672Y-75412493D02*
X60909372Y-75412493D01*
D47*
X124264372Y-55333693D02*
X136930572Y-55333693D01*
D49*
X112709372Y-40512493D02*
X161666172Y-40512493D01*
X103909372Y-67412493D02*
X101709372Y-65212493D01*
D47*
X145184372Y-54663693D02*
X164613772Y-54663693D01*
D49*
X95409372Y-67487493D02*
X96634372Y-67487493D01*
D47*
X103944372Y-55333693D02*
X117646962Y-55333693D01*
D49*
X48809372Y-60812493D02*
X48809372Y-63112493D01*
D47*
X93984372Y-67487493D02*
X95409372Y-67487493D01*
X104544372Y-54663693D02*
X123664372Y-54663693D01*
D49*
X161666172Y-40512493D02*
X164238572Y-37940093D01*
D47*
X158596362Y-55333693D02*
X159196362Y-55933693D01*
D49*
X48809372Y-63112493D02*
X48559372Y-63362493D01*
X101709372Y-55313694D02*
X102959373Y-54063693D01*
D47*
X66209372Y-75512493D02*
X66209372Y-81002493D01*
X124913172Y-54712493D02*
X143935572Y-54712493D01*
X144584372Y-55333693D02*
X158596362Y-55333693D01*
D49*
X110009372Y-37812493D02*
X112709372Y-40512493D01*
X165213772Y-54063693D02*
X165909372Y-53368093D01*
X165909372Y-53368093D02*
X165909372Y-37110893D01*
X60909372Y-75412493D02*
X56500272Y-79821593D01*
X66209372Y-81002493D02*
X67049372Y-81002493D01*
X67049372Y-81002493D02*
X67559372Y-81512493D01*
D47*
X78509372Y-68912493D02*
X78409372Y-69012493D01*
D49*
X165909372Y-37110893D02*
X164238572Y-35440093D01*
D47*
X144584372Y-54063693D02*
X145184372Y-54663693D01*
D49*
X46584372Y-68462493D02*
X47234372Y-67812493D01*
X72809372Y-93112493D02*
X66009372Y-93112493D01*
D47*
X74409372Y-76612493D02*
X74409372Y-80012493D01*
X71309372Y-71178179D02*
X71309372Y-73512493D01*
X72309372Y-69612493D02*
X72309372Y-66149993D01*
X71309372Y-73512493D02*
X74409372Y-76612493D01*
X60609372Y-69812493D02*
X58003640Y-67206761D01*
X70909372Y-71012493D02*
X72309372Y-69612493D01*
X72709372Y-66149993D02*
X72709372Y-69778179D01*
X71309372Y-71178179D02*
X72709372Y-69778179D01*
D49*
X66009372Y-93112493D02*
X64609372Y-94512493D01*
D47*
X69809372Y-74612493D02*
X70909372Y-73512493D01*
X70909372Y-73512493D02*
X70909372Y-71012493D01*
D49*
X67109372Y-94412493D02*
X72009372Y-94412493D01*
X65309372Y-96212493D02*
X67109372Y-94412493D01*
X63609372Y-71512493D02*
X63509372Y-71412493D01*
D47*
X51199924Y-67812493D02*
X48571872Y-67812493D01*
X63559372Y-69812493D02*
X65209372Y-69812493D01*
X63509372Y-69762493D02*
X63559372Y-69812493D01*
D49*
X46584372Y-68912493D02*
X46584372Y-68462493D01*
D47*
X68138012Y-64912493D02*
X68671872Y-64912493D01*
D49*
X51859372Y-60812493D02*
X52959372Y-61912493D01*
X111790132Y-41212493D02*
X163466172Y-41212493D01*
D47*
X51805656Y-67206761D02*
X51199924Y-67812493D01*
D49*
X63609372Y-81412493D02*
X63609372Y-71512493D01*
D47*
X64354572Y-60360593D02*
X64844172Y-60850193D01*
X68075712Y-60850193D02*
X68138012Y-60912493D01*
X64844172Y-60850193D02*
X68075712Y-60850193D01*
X68138012Y-60912493D02*
X68671872Y-60912493D01*
D49*
X96634372Y-67487493D02*
X98709372Y-65412493D01*
X64354572Y-56262493D02*
X64354572Y-60360593D01*
D47*
X74309372Y-68564089D02*
X74309372Y-66149993D01*
D52*
X84209372Y-40712493D02*
X80509372Y-40712493D01*
X85602973Y-40712493D02*
X84209372Y-40712493D01*
X42034372Y-72712493D02*
X42034372Y-45187493D01*
X99409372Y-29962493D02*
X99409372Y-30962493D01*
X96809372Y-31237493D02*
X99134372Y-31237493D01*
X46409372Y-40801617D02*
X46409372Y-42587493D01*
X99409372Y-34712493D02*
X93409372Y-40712493D01*
X159809372Y-32987493D02*
X138234372Y-32987493D01*
X138234372Y-32987493D02*
X132909372Y-38312493D01*
D47*
X66229572Y-64992293D02*
X66229572Y-65585593D01*
D52*
X101859372Y-27512493D02*
X99409372Y-29962493D01*
D47*
X66162572Y-61650193D02*
X66624872Y-62112493D01*
X64654572Y-67160593D02*
X66229572Y-65585593D01*
X75546872Y-62912493D02*
X77810676Y-62912493D01*
X77810676Y-62912493D02*
X79310676Y-64412493D01*
X80309372Y-53312493D02*
X74409372Y-53312493D01*
D52*
X159809372Y-32987493D02*
X161559372Y-32987493D01*
D47*
X68671872Y-63312493D02*
X67886209Y-63312493D01*
X75546872Y-60912493D02*
X76902672Y-60912493D01*
X76902672Y-60912493D02*
X78154572Y-59660593D01*
X79359372Y-52912493D02*
X74243687Y-52912493D01*
D52*
X42034372Y-72712493D02*
X42034372Y-74512493D01*
X99134372Y-31237493D02*
X99409372Y-30962493D01*
X84209372Y-40712493D02*
X84279173Y-40712493D01*
D47*
X67886209Y-63312493D02*
X67150592Y-64048110D01*
X66624872Y-62112493D02*
X68671872Y-62112493D01*
D52*
X47848496Y-39362493D02*
X46409372Y-40801617D01*
X55209372Y-39362493D02*
X47848496Y-39362493D01*
X84279173Y-40712493D02*
X84979173Y-41412493D01*
X84979173Y-41412493D02*
X84979173Y-42810993D01*
X80509372Y-40712493D02*
X79159372Y-39362493D01*
D47*
X106309372Y-36712493D02*
X106309372Y-41312493D01*
D52*
X84979173Y-41336293D02*
X85602973Y-40712493D01*
D47*
X78929572Y-58885593D02*
X78154572Y-59660593D01*
D52*
X42034372Y-74512493D02*
X42034372Y-76275793D01*
X113809372Y-27512493D02*
X101859372Y-27512493D01*
X46409372Y-40812493D02*
X46409372Y-40801617D01*
D47*
X80979572Y-58885593D02*
X78929572Y-58885593D01*
X71509372Y-58311189D02*
X71509372Y-59274993D01*
X79310676Y-64412493D02*
X79696872Y-64412493D01*
X74243687Y-52912493D02*
X72109372Y-55046808D01*
X72109372Y-57711189D02*
X71509372Y-58311189D01*
D52*
X124609372Y-38312493D02*
X113809372Y-27512493D01*
X132909372Y-38312493D02*
X124609372Y-38312493D01*
X79159372Y-39362493D02*
X55209372Y-39362493D01*
D47*
X72109372Y-55046808D02*
X72109372Y-57711189D01*
X81209372Y-51062493D02*
X79359372Y-52912493D01*
D52*
X161559372Y-32987493D02*
X164191172Y-32987493D01*
X93409372Y-40712493D02*
X85602973Y-40712493D01*
D47*
X67150592Y-64048110D02*
X67150592Y-64071273D01*
X67150592Y-64071273D02*
X66229572Y-64992293D01*
D52*
X99409372Y-30962493D02*
X99409372Y-34712493D01*
X84979173Y-41412493D02*
X84979173Y-41336293D01*
D50*
X53009369Y-64912493D02*
X52759372Y-64662496D01*
X70860107Y-67986758D02*
X71109372Y-67737493D01*
X54354631Y-58360381D02*
X53909372Y-58805640D01*
X104009372Y-30962493D02*
X106234372Y-30962493D01*
D49*
X151229372Y-60508693D02*
X151229372Y-56508693D01*
D47*
X75546872Y-60512493D02*
X75546872Y-60112493D01*
D50*
X92409372Y-57152493D02*
X90019372Y-57152493D01*
X108209372Y-52812493D02*
X109184372Y-53787493D01*
X52634372Y-68712493D02*
X50896872Y-68712493D01*
X98970572Y-54087493D02*
X94134372Y-54087493D01*
D47*
X75546872Y-62112493D02*
X76509372Y-62112493D01*
D50*
X108209372Y-52812493D02*
X100245572Y-52812493D01*
X78809372Y-55712493D02*
X78154572Y-56367293D01*
X44984372Y-67212493D02*
X44984372Y-65312493D01*
X70984372Y-57037493D02*
X70984372Y-57512493D01*
X63730738Y-61194274D02*
X63730738Y-61351359D01*
X54609372Y-82412493D02*
X54609372Y-83427493D01*
X60334372Y-79312493D02*
X60334372Y-78629896D01*
X60334372Y-80337493D02*
X60999372Y-81002493D01*
X153309372Y-57848693D02*
X151229372Y-57848693D01*
D47*
X74409372Y-53312493D02*
X72509372Y-55212493D01*
X71109372Y-67737493D02*
X71109372Y-66149993D01*
X74709372Y-67740393D02*
X75129572Y-68160593D01*
D50*
X72829372Y-83447493D02*
X72829372Y-87447493D01*
X152209372Y-53313693D02*
X140384372Y-53313693D01*
X77209372Y-56312493D02*
X77152672Y-56312493D01*
X52209372Y-57312493D02*
X51284372Y-57312493D01*
X60334372Y-78629896D02*
X60420255Y-78544013D01*
X59009372Y-58237493D02*
X58584372Y-57812493D01*
D49*
X157299972Y-53822693D02*
X160022772Y-53822693D01*
D50*
X55309372Y-63312493D02*
X55309372Y-63687493D01*
X71209372Y-56812493D02*
X70984372Y-57037493D01*
D47*
X74709372Y-59274993D02*
X74709372Y-57155793D01*
D50*
X119314372Y-54063693D02*
X116476172Y-54063693D01*
X109184372Y-53787493D02*
X116199972Y-53787493D01*
D47*
X72509372Y-55212493D02*
X72509372Y-58141133D01*
D50*
X53009369Y-67912490D02*
X53009369Y-68337496D01*
X111609372Y-57812493D02*
X112633172Y-57812493D01*
D47*
X71909372Y-58741133D02*
X71909372Y-59274993D01*
D50*
X71409372Y-83512493D02*
X71474372Y-83447493D01*
X93314372Y-60717493D02*
X92409372Y-59812493D01*
X129712072Y-31283893D02*
X127612972Y-31283893D01*
X94134372Y-54087493D02*
X94109372Y-54112493D01*
D47*
X82059372Y-51562493D02*
X80309372Y-53312493D01*
D50*
X111573172Y-57848693D02*
X111609372Y-57812493D01*
X63730738Y-61194274D02*
X63538253Y-61194274D01*
X75609372Y-67212493D02*
X75609372Y-67680793D01*
D47*
X76509372Y-62112493D02*
X76909372Y-62512493D01*
D49*
X131909372Y-57848693D02*
X132989372Y-57848693D01*
D50*
X71474372Y-83447493D02*
X72829372Y-83447493D01*
X75609372Y-67680793D02*
X75129572Y-68160593D01*
X77152672Y-56312493D02*
X76529572Y-56935593D01*
D47*
X107109372Y-35697523D02*
X107109372Y-41412493D01*
D50*
X108216072Y-52805793D02*
X108209372Y-52812493D01*
X108216072Y-32944193D02*
X108216072Y-52805793D01*
X78154572Y-56412493D02*
X78154572Y-57960593D01*
X52759372Y-64662496D02*
X52759372Y-64212493D01*
X79153960Y-63032081D02*
X78934372Y-62812493D01*
X112669372Y-56508693D02*
X112669372Y-60508693D01*
X126209372Y-31312493D02*
X127584372Y-31312493D01*
X52759372Y-64212493D02*
X50959372Y-64212493D01*
D47*
X64400622Y-62021243D02*
X64891872Y-62512493D01*
X71109372Y-59274993D02*
X71109372Y-57637493D01*
X76002672Y-60112493D02*
X78154572Y-57960593D01*
X74709372Y-66149993D02*
X74709372Y-67740393D01*
D49*
X130909372Y-57848693D02*
X131909372Y-57848693D01*
D47*
X75546872Y-62512493D02*
X76909372Y-62512493D01*
D49*
X160022772Y-53822693D02*
X160263772Y-54063693D01*
D50*
X120064372Y-53313693D02*
X136926172Y-53313693D01*
D47*
X72509372Y-58141133D02*
X71909372Y-58741133D01*
D50*
X53909372Y-58805640D02*
X53909372Y-59612493D01*
X136926172Y-53313693D02*
X137399972Y-53787493D01*
X44984372Y-64737493D02*
X44984372Y-65312493D01*
X139358172Y-53787493D02*
X139634372Y-54063693D01*
X106234372Y-30962493D02*
X106609372Y-31337493D01*
X130909372Y-56508693D02*
X130909372Y-60508693D01*
X76529572Y-56935593D02*
X74929572Y-56935593D01*
X110589372Y-56508693D02*
X110589372Y-60508693D01*
X119314372Y-54063693D02*
X120064372Y-53313693D01*
X95409372Y-61937493D02*
X93344372Y-61937493D01*
X59009372Y-58712493D02*
X59009372Y-58237493D01*
X132989372Y-56508693D02*
X132989372Y-60508693D01*
X45609372Y-64112493D02*
X44984372Y-64737493D01*
X93314372Y-61907493D02*
X93314372Y-60717493D01*
X55309372Y-63687493D02*
X55784372Y-64162493D01*
X116476172Y-54063693D02*
X116199972Y-53787493D01*
X110589372Y-57848693D02*
X111573172Y-57848693D01*
X137399972Y-53787493D02*
X139358172Y-53787493D01*
X156790972Y-53313693D02*
X157299972Y-53822693D01*
X140384372Y-53313693D02*
X139634372Y-54063693D01*
X114784372Y-31337493D02*
X114809372Y-31312493D01*
X94059372Y-54162493D02*
X92409372Y-55812493D01*
X79153960Y-63407247D02*
X79153960Y-63032081D01*
X106609372Y-31337493D02*
X108216072Y-32944193D01*
X152209372Y-53313693D02*
X156790972Y-53313693D01*
X63730738Y-61351359D02*
X64295972Y-61916593D01*
X50959372Y-64212493D02*
X50859372Y-64312493D01*
D49*
X153309372Y-60508693D02*
X153309372Y-56508693D01*
D50*
X90019372Y-57152493D02*
X90009372Y-57162493D01*
X60334372Y-79312493D02*
X60334372Y-80337493D01*
X106609372Y-31337493D02*
X114784372Y-31337493D01*
X58459372Y-59262493D02*
X59009372Y-58712493D01*
X54589372Y-83447493D02*
X54589372Y-87447493D01*
X92409372Y-59812493D02*
X92409372Y-55812493D01*
X129712072Y-31283893D02*
X131787772Y-31283893D01*
X94109372Y-54112493D02*
X94059372Y-54162493D01*
X70083637Y-67986758D02*
X70860107Y-67986758D01*
X100245572Y-52812493D02*
X98994372Y-54063693D01*
D47*
X64891872Y-62512493D02*
X68671872Y-62512493D01*
D50*
X53009369Y-68337496D02*
X52634372Y-68712493D01*
X53909372Y-57915122D02*
X54354631Y-58360381D01*
D47*
X76909372Y-62512493D02*
X78634372Y-62512493D01*
D50*
X63538253Y-61194274D02*
X62704572Y-60360593D01*
D47*
X75546872Y-60112493D02*
X76002672Y-60112493D01*
D49*
X146709372Y-47483293D02*
X148041072Y-46151593D01*
X146709372Y-48112493D02*
X146709372Y-47483293D01*
X144584372Y-56603693D02*
X148134372Y-56603693D01*
D52*
X42034372Y-45187493D02*
X46409372Y-40812493D01*
%TD*%
M02*
