M48
; DRILL file {KiCad 8.0.4} date 2025-08-03T11:03:42-0500
; FORMAT={-:-/ absolute / inch / decimal}
; #@! TF.CreationDate,2025-08-03T11:03:42-05:00
; #@! TF.GenerationSoftware,Kicad,Pcbnew,8.0.4
; #@! TF.FileFunction,Plated,1,2,PTH
FMAT,2
INCH
; #@! TA.AperFunction,Plated,PTH,ViaDrill
T1C0.0118
; #@! TA.AperFunction,Plated,PTH,ViaDrill
T2C0.0197
; #@! TA.AperFunction,Plated,PTH,ComponentDrill
T3C0.0315
; #@! TA.AperFunction,Plated,PTH,ComponentDrill
T4C0.0394
; #@! TA.AperFunction,Plated,PTH,ComponentDrill
T5C0.0433
; #@! TA.AperFunction,Plated,PTH,ComponentDrill
T6C0.0787
; #@! TA.AperFunction,Plated,PTH,ComponentDrill
T7C0.0866
%
G90
G05
T1
X1.7169Y-2.8233
X1.7523Y-2.9336
X1.7563Y-2.9887
X1.772Y-2.7485
X1.7956Y-2.5241
X1.8508Y-2.5281
X1.8704Y-2.6107
X1.8862Y-1.843
X1.9216Y-2.3942
X1.9964Y-2.3942
X2.0555Y-2.2564
X2.087Y-2.5556
X2.087Y-2.6737
X2.1106Y-1.843
X2.1106Y-3.1737
X2.1182Y-2.6696
X2.1224Y-2.4021
X2.1224Y-2.5517
X2.1399Y-2.2977
X2.15Y-3.1737
X2.15Y-3.2446
X2.1618Y-2.5871
X2.1714Y-2.2964
X2.1775Y-2.4926
X2.1893Y-3.1737
X2.209Y-2.4021
X2.2189Y-3.341
X2.2189Y-3.5458
X2.2602Y-2.6186
X2.2602Y-2.7682
X2.2878Y-3.0281
X2.2878Y-3.1855
X2.3134Y-3.3891
X2.3193Y-3.1501
X2.3232Y-2.3115
X2.339Y-3.2406
X2.3546Y-2.3094
X2.3586Y-3.4391
X2.3788Y-3.0923
X2.3941Y-2.6796
X2.3993Y-2.969
X2.4177Y-3.095
X2.4295Y-3.0123
X2.4383Y-2.4354
X2.4749Y-3.1938
X2.5004Y-2.7466
X2.5004Y-2.8115
X2.5043Y-3.2052
X2.5091Y-2.4092
X2.5336Y-2.2151
X2.5437Y-3.5202
X2.5476Y-3.0123
X2.5476Y-3.217
X2.5712Y-3.7879
X2.583Y-2.5359
X2.5988Y-2.6777
X2.6067Y-2.9729
X2.646Y-2.3666
X2.6578Y-3.2853
X2.6673Y-2.5314
X2.6893Y-3.3391
X2.6972Y-2.9729
X2.709Y-2.2603
X2.7189Y-3.3891
X2.7484Y-2.9375
X2.7592Y-2.6766
X2.7683Y-2.7093
X2.7956Y-3.3391
X2.7996Y-3.4414
X2.8035Y-2.2367
X2.8075Y-2.9532
X2.8114Y-3.2879
X2.835Y-3.717
X2.8665Y-3.6658
X2.9177Y-2.1737
X2.9256Y-2.7367
X2.9295Y-3.1501
X2.9334Y-3.2958
X2.9334Y-3.3351
X2.9334Y-3.3745
X2.9767Y-2.6462
X3.0082Y-2.6462
X3.0397Y-2.217
X3.0411Y-2.1739
X3.0909Y-2.7131
X3.0929Y-2.0556
X3.1027Y-2.1934
X3.1163Y-2.4963
X3.1185Y-2.3745
X3.1492Y-2.1887
X3.1635Y-2.5025
X3.1972Y-2.0103
X3.2307Y-2.03
X3.2346Y-2.5359
X3.2681Y-2.2288
X3.2681Y-2.2682
X3.2681Y-2.3076
X3.4649Y-1.7485
X3.4767Y-2.7446
X3.5161Y-1.6462
X3.5161Y-1.6855
X3.5161Y-1.7249
X3.5437Y-2.2505
X3.6972Y-2.0556
X3.6972Y-2.654
X3.709Y-2.2446
X3.7208Y-2.5005
X3.8006Y-2.2121
X3.8092Y-2.3255
X3.8114Y-1.3903
X3.8803Y-2.7544
X3.8862Y-2.5753
X3.9531Y-2.717
X3.9649Y-1.343
X3.9649Y-1.6107
X3.9649Y-2.1777
X4.0043Y-1.28
X4.0043Y-1.343
X4.0043Y-1.6107
X4.0437Y-1.343
X4.0437Y-1.6107
X4.0791Y-2.5162
X4.1342Y-1.3509
X4.1578Y-2.2785
X4.1775Y-2.2285
X4.1854Y-1.4454
X4.1854Y-1.6265
X4.1893Y-2.3285
X4.2169Y-1.4054
X4.2169Y-1.6304
X4.2248Y-2.1265
X4.2366Y-2.4532
X4.2992Y-1.5206
X4.3035Y-1.4887
X4.3153Y-1.8942
X4.3193Y-1.658
X4.3547Y-2.4532
X4.3586Y-1.658
X4.3941Y-2.4532
X4.398Y-1.658
X4.4334Y-2.4532
X4.5201Y-1.2328
X4.5949Y-2.2785
X4.6303Y-2.3785
X4.7523Y-2.2285
X4.7614Y-2.1785
X4.8173Y-1.8332
X4.8311Y-2.2285
X4.8567Y-1.8332
X4.896Y-1.8332
X4.9492Y-2.3295
X4.9531Y-2.2775
X4.9571Y-2.4769
X4.9649Y-2.6816
X4.9689Y-1.2328
X4.9689Y-2.3822
X5.024Y-1.1383
X5.0791Y-2.1304
X5.083Y-1.8903
X5.1068Y-1.1345
X5.2956Y-2.3509
X5.2996Y-2.217
X5.3862Y-2.2785
X5.4256Y-2.3785
X5.5563Y-2.1785
X5.5673Y-1.8115
X5.5909Y-2.2328
X5.5949Y-2.2721
X5.5949Y-2.3115
X5.6067Y-1.8115
X5.646Y-1.8115
X5.6529Y-2.5335
X5.6923Y-2.5335
X5.7316Y-2.5335
X5.776Y-1.8942
X5.776Y-2.2285
X5.9925Y-2.2775
X6.0752Y-2.5202
X6.1145Y-2.5202
X6.1539Y-2.5202
X6.2248Y-2.3285
X6.2248Y-2.3785
X6.2405Y-2.2775
X6.3153Y-1.8155
X6.3547Y-1.8155
X6.3704Y-2.1777
X6.3704Y-2.2288
X6.3941Y-1.8155
X6.4271Y-2.2785
X6.4295Y-2.2285
X6.444Y-2.3285
X6.5043Y-2.5202
X6.8823Y-2.7525
X6.9216Y-2.7525
X6.961Y-2.7525
T2
X4.3941Y-2.1176
X4.3941Y-2.2761
X5.1933Y-2.099
X5.1933Y-2.2775
X5.9925Y-2.099
T3
X5.6618Y-1.3745
X5.6618Y-1.4532
X5.7838Y-1.3745
X5.7838Y-1.4532
X6.4661Y-1.2969
X6.4661Y-1.3953
X6.4661Y-1.4937
X6.4661Y-1.5921
T4
X5.1911Y-1.129
X5.1911Y-1.229
X5.1911Y-1.329
X5.1911Y-1.429
T5
X1.8967Y-1.6217
X1.8967Y-2.1926
X1.9951Y-1.6217
X2.0935Y-1.6217
X2.0935Y-2.1926
T7
X6.0949Y-1.4414
T6
G00X1.7707Y-1.9327
M15
G01X1.7707Y-1.9012
M16
G05
G00X2.2195Y-1.9327
M15
G01X2.2195Y-1.9012
M16
G05
M30
