M48
; DRILL file {KiCad 8.0.4} date 2025-06-27T14:04:57-0500
; FORMAT={-:-/ absolute / inch / decimal}
; #@! TF.CreationDate,2025-06-27T14:04:57-05:00
; #@! TF.GenerationSoftware,Kicad,Pcbnew,8.0.4
; #@! TF.FileFunction,Plated,1,4,PTH
FMAT,2
INCH
; #@! TA.AperFunction,Plated,PTH,ViaDrill
T1C0.0118
; #@! TA.AperFunction,Plated,PTH,ViaDrill
T2C0.0120
; #@! TA.AperFunction,Plated,PTH,ViaDrill
T3C0.0150
; #@! TA.AperFunction,Plated,PTH,ViaDrill
T4C0.0197
; #@! TA.AperFunction,Plated,PTH,ComponentDrill
T5C0.0315
; #@! TA.AperFunction,Plated,PTH,ComponentDrill
T6C0.0394
; #@! TA.AperFunction,Plated,PTH,ComponentDrill
T7C0.0433
; #@! TA.AperFunction,Plated,PTH,ComponentDrill
T8C0.0787
; #@! TA.AperFunction,Plated,PTH,ComponentDrill
T9C0.0866
%
G90
G05
T1
X1.1339Y-2.874
X1.1339Y-2.9331
X1.1693Y-2.3346
X1.2913Y-2.3346
X1.3348Y-2.9933
X1.5354Y-1.7402
X1.7126Y-2.563
X1.7473Y-4.2291
X1.7473Y-4.985
X1.748Y-3.4843
X1.752Y-2.3189
X1.8307Y-5.6535
X1.8701Y-1.815
X1.874Y-2.9173
X1.8937Y-2.2224
X1.9134Y-2.0768
X1.9252Y-2.2913
X1.9488Y-3.1102
X1.9488Y-4.7087
X1.9537Y-2.4291
X1.9921Y-3.1102
X2.0236Y-1.937
X2.0236Y-4.8169
X2.0315Y-3.2362
X2.0315Y-3.8898
X2.0394Y-3.563
X2.0512Y-4.3307
X2.0551Y-1.9094
X2.0669Y-2.2165
X2.073Y-4.8998
X2.1102Y-2.1142
X2.2106Y-2.9724
X2.2244Y-2.1378
X2.2283Y-5.2441
X2.2283Y-5.3031
X2.2283Y-5.3622
X2.2402Y-1.5748
X2.2697Y-4.6083
X2.2992Y-1.5748
X2.3228Y-2.3031
X2.3287Y-4.6083
X2.3543Y-2.9094
X2.3583Y-1.5748
X2.3642Y-2.125
X2.3878Y-4.6083
X2.4291Y-2.228
X2.4587Y-2.278
X2.5631Y-2.3592
X2.5748Y-3.7638
X2.6161Y-2.3465
X2.6339Y-3.7638
X2.6496Y-2.3327
X2.6618Y-2.476
X2.6654Y-2.0079
X2.6654Y-4.6969
X2.685Y-1.6417
X2.6929Y-3.7638
X2.7244Y-4.6969
X2.7397Y-2.6575
X2.7608Y-4.6102
X2.7717Y-2.1772
X2.7795Y-5.7323
X2.7835Y-4.6969
X2.7992Y-2.1535
X2.8425Y-1.9449
X2.874Y-1.9685
X2.874Y-2.1211
X2.878Y-2.437
X2.8937Y-3.0748
X2.9173Y-3.1024
X2.9193Y-3.1516
X2.9528Y-1.8346
X2.9528Y-5.6535
X2.9567Y-6.1181
X2.9646Y-1.878
X2.9646Y-4.2323
X2.9685Y-2.1772
X2.9685Y-2.437
X2.9803Y-1.5622
X2.9921Y-2.1534
X3.0107Y-2.6496
X3.0118Y-1.9291
X3.0118Y-5.6535
X3.0157Y-2.6063
X3.0157Y-6.1181
X3.0197Y-1.5197
X3.0235Y-2.277
X3.0236Y-2.1211
X3.0344Y-5.2372
X3.0354Y-3.0866
X3.0354Y-3.5453
X3.0354Y-4.7677
X3.0472Y-2.9724
X3.0472Y-3.0512
X3.0709Y-5.6535
X3.0748Y-2.6063
X3.0748Y-6.1181
X3.0787Y-3.5925
X3.0945Y-2.0709
X3.0945Y-3.0866
X3.0945Y-4.7677
X3.1102Y-5.1969
X3.1132Y-5.2726
X3.122Y-3.6417
X3.1339Y-2.6063
X3.1535Y-3.0866
X3.1535Y-4.7677
X3.1535Y-4.9764
X3.1654Y-3.6949
X3.2087Y-3.7441
X3.2283Y-2.2249
X3.2441Y-2.378
X3.248Y-2.06
X3.3031Y-1.3819
X3.3307Y-4.9606
X3.378Y-3.4094
X3.3898Y-4.9606
X3.3925Y-2.3437
X3.4134Y-2.0472
X3.4331Y-2.7323
X3.4488Y-4.9606
X3.4503Y-2.278
X3.4508Y-2.478
X3.4724Y-2.0472
X3.4961Y-1.2677
X3.4961Y-1.3976
X3.5157Y-3.7756
X3.5315Y-2.0472
X3.5748Y-3.7756
X3.5827Y-4.1378
X3.5906Y-2.329
X3.596Y-2.378
X3.622Y-1.7913
X3.629Y-2.502
X3.6339Y-1.3228
X3.6339Y-3.7756
X3.6417Y-3.248
X3.6575Y-5.7677
X3.668Y-2.5023
X3.6811Y-1.2622
X3.7161Y-2.0985
X3.7165Y-5.7677
X3.7327Y-1.2508
X3.7402Y-3.248
X3.7756Y-5.7677
X3.7874Y-1.7165
X3.811Y-3.4843
X3.8228Y-2.1063
X3.8228Y-2.2756
X3.8386Y-3.248
X3.8465Y-1.7165
X3.8976Y-1.4567
X3.9055Y-1.7165
X3.9409Y-4.9016
X3.9567Y-1.4567
X3.9961Y-4.2323
X4.0157Y-1.4567
X4.0433Y-2.0561
X4.0787Y-5.2992
X4.1142Y-2.7244
X4.1378Y-5.2992
X4.1811Y-3.3543
X4.195Y-2.2577
X4.1969Y-5.2992
X4.2188Y-4.1417
X4.2323Y-2.2362
X4.2559Y-2.3465
X4.2598Y-3.7756
X4.3189Y-1.8201
X4.3189Y-3.7756
X4.3465Y-5.4803
X4.3723Y-4.9786
X4.378Y-1.8201
X4.378Y-3.7756
X4.3976Y-2.378
X4.4016Y-2.277
X4.4055Y-5.4803
X4.437Y-1.8201
X4.4567Y-4.5197
X4.4646Y-5.4803
X4.4803Y-1.3386
X4.5Y-2.6575
X4.5157Y-4.5197
X4.5276Y-6.1378
X4.5315Y-1.7165
X4.5354Y-6.2815
X4.5394Y-1.1299
X4.5394Y-1.3386
X4.5591Y-3.4843
X4.5748Y-4.5197
X4.5866Y-6.1378
X4.5906Y-1.7165
X4.5984Y-1.3386
X4.6063Y-3.0118
X4.6235Y-1.1236
X4.624Y-2.1161
X4.624Y-2.277
X4.6417Y-3.0906
X4.6457Y-6.1378
X4.6496Y-1.7165
X4.6535Y-5.7323
X4.6913Y-2.0831
X4.7008Y-3.0906
X4.7239Y-2.3105
X4.7283Y-2.2244
X4.7402Y-2.3504
X4.7402Y-6.1457
X4.748Y-4.2402
X4.7598Y-3.0906
X4.811Y-1.3819
X4.8307Y-5.2953
X4.878Y-2.0561
X4.878Y-3.3268
X4.8898Y-5.2953
X4.9348Y-2.748
X4.9488Y-5.2953
X4.9736Y-2.0075
X4.998Y-3.1201
X4.9981Y-2.378
X5.0118Y-3.7756
X5.0148Y-3.2705
X5.0276Y-5.5551
X5.0327Y-2.0075
X5.0394Y-6.1811
X5.063Y-2.3268
X5.0709Y-3.7756
X5.0866Y-5.5551
X5.0917Y-2.0075
X5.1196Y-3.284
X5.122Y-1.7913
X5.1299Y-3.7756
X5.1457Y-5.5551
X5.1544Y-3.1271
X5.159Y-3.284
X5.1722Y-5.344
X5.1986Y-3.284
X5.2559Y-5.3819
X5.3071Y-3.4843
X5.4252Y-2.0945
X5.4252Y-2.2776
X5.4488Y-5.4921
X5.4685Y-4.2441
X5.4724Y-1.7047
X5.5118Y-6.1811
X5.5315Y-1.7047
X5.5472Y-5.4528
X5.5512Y-3.9173
X5.5787Y-5.2953
X5.5827Y-2.0575
X5.5906Y-1.7047
X5.6102Y-2.7559
X5.6181Y-2.5866
X5.6378Y-5.2953
X5.6969Y-5.2953
X5.7008Y-4.0591
X5.7402Y-2.0039
X5.748Y-1.4843
X5.7598Y-4.0591
X5.7638Y-3.7874
X5.7638Y-5.4449
X5.7953Y-5.681
X5.7992Y-2.0039
X5.8071Y-1.4016
X5.8071Y-1.4843
X5.8071Y-2.2756
X5.811Y-1.8307
X5.8189Y-4.0591
X5.8228Y-3.7874
X5.8228Y-5.4449
X5.8346Y-6.0787
X5.8368Y-4.136
X5.8465Y-2.2795
X5.8583Y-2.0039
X5.8593Y-2.3376
X5.8661Y-1.4843
X5.8701Y-1.8307
X5.8701Y-4.9803
X5.876Y-1.4016
X5.8819Y-3.7874
X5.8819Y-5.4449
X5.8937Y-6.0787
X5.9213Y-2.5118
X5.9291Y-1.8307
X5.9331Y-2.0787
X5.9449Y-4.5512
X5.9488Y-1.7165
X5.9528Y-6.0787
X5.968Y-5.4336
X5.9724Y-6.0315
X5.9744Y-5.4843
X5.9921Y-2.3827
X5.9921Y-2.6693
X6.0009Y-5.4046
X6.0039Y-4.5512
X6.0163Y-2.1282
X6.0315Y-5.2835
X6.0354Y-5.934
X6.0357Y-5.8269
X6.0394Y-3.4921
X6.0433Y-5.5531
X6.0547Y-5.4099
X6.063Y-4.5512
X6.0672Y-5.8267
X6.0843Y-6.0465
X6.0865Y-6.1219
X6.0866Y-4.796
X6.0938Y-4.8858
X6.1024Y-5.5531
X6.1063Y-2.1575
X6.118Y-6.1219
X6.126Y-1.3622
X6.126Y-1.4213
X6.126Y-1.4803
X6.1339Y-4.2638
X6.1417Y-3.0984
X6.1507Y-5.379
X6.1614Y-5.5531
X6.1693Y-6.1181
X6.1732Y-6.0709
X6.1929Y-4.2638
X6.2008Y-3.0984
X6.2064Y-5.6456
X6.2283Y-6.0709
X6.2283Y-6.1142
X6.2362Y-2.9724
X6.2362Y-3.0512
X6.2379Y-5.6458
X6.248Y-4.0748
X6.252Y-4.2638
X6.2598Y-3.0984
X6.2813Y-3.3898
X6.3189Y-6.2283
X6.3268Y-5.2835
X6.3309Y-5.7887
X6.3309Y-5.8287
X6.332Y-5.8687
X6.3661Y-6.2598
X6.3709Y-5.7887
X6.3709Y-5.8687
X6.376Y-3.0679
X6.3858Y-5.2835
X6.4109Y-5.8287
X6.4109Y-5.8687
X6.4124Y-6.2304
X6.4368Y-5.6516
X6.4429Y-5.501
X6.4447Y-6.0706
X6.4449Y-5.2835
X6.445Y-6.1021
X6.4469Y-6.2598
X6.4685Y-4.1732
X6.5118Y-3.8031
X6.5709Y-3.8031
X6.6024Y-5.6142
X6.622Y-4.9843
X6.6299Y-3.8031
X6.6299Y-5.7598
X6.6302Y-5.9567
X6.6394Y-5.7836
X6.6654Y-5.3622
X6.7008Y-4.5394
X6.7055Y-5.891
X6.7244Y-5.6181
X6.7598Y-4.5394
X6.7598Y-4.9252
X6.7756Y-5.9213
X6.7795Y-5.874
X6.7894Y-6.0453
X6.7913Y-5.3622
X6.8091Y-3.5039
X6.815Y-5.5906
X6.8189Y-4.5394
X6.8452Y-5.5992
X6.8755Y-5.6304
X6.878Y-6.0039
X6.9016Y-4.7402
X6.9213Y-5.9606
X6.9961Y-4.2362
X7.0876Y-6.0039
X7.0925Y-5.6693
X7.2323Y-5.622
X7.2992Y-5.437
X7.372Y-4.9961
X7.3888Y-6.1496
X7.4173Y-5.4449
X7.4488Y-6.0866
X7.4685Y-5.7244
X7.5354Y-5.6535
X7.5472Y-6.1024
X7.5472Y-6.1339
X7.622Y-5.6102
X7.6811Y-5.6102
X7.9528Y-5.9882
X8.019Y-5.9213
X8.185Y-5.8858
X8.185Y-6.1457
X8.2441Y-5.8858
X8.2441Y-6.1457
X8.3031Y-5.8858
X8.3031Y-6.1457
X8.3209Y-5.6122
X8.3799Y-5.6122
X8.439Y-5.6122
X8.575Y-6.2283
X8.626Y-6.2283
X8.6695Y-6.2283
X8.872Y-6.1043
X8.8724Y-5.9402
X8.9055Y-5.5827
X8.9055Y-5.7992
X8.9646Y-5.5827
X8.9646Y-5.7992
X9.0236Y-5.5827
X9.0236Y-5.7992
X9.0748Y-5.6339
X9.0748Y-5.6929
X9.0748Y-5.752
T2
X1.782Y-2.3425
X1.8543Y-2.2244
X1.8661Y-2.0748
X2.0236Y-2.1496
X2.0276Y-2.2916
X2.0551Y-2.3917
X2.0551Y-2.4646
X2.185Y-2.2835
X2.2559Y-2.1181
X2.4727Y-2.1734
X3.2362Y-2.278
X3.24Y-1.704
X3.29Y-1.704
X3.34Y-1.704
X3.3858Y-2.1772
X3.4252Y-2.2323
X3.606Y-2.0512
X3.606Y-2.228
X3.639Y-2.439
X3.718Y-2.5519
X3.725Y-2.396
X4.032Y-2.328
X4.047Y-2.558
X4.097Y-2.558
X4.147Y-2.558
X4.185Y-2.1779
X4.3854Y-2.478
X4.4331Y-2.4764
X4.4831Y-2.4764
X4.499Y-2.569
X4.549Y-2.569
X4.599Y-2.569
X4.7205Y-2.2717
X4.8143Y-2.441
X4.9843Y-2.1779
X5.0177Y-2.2264
X5.0315Y-2.3031
X5.122Y-2.5061
X5.1535Y-2.5906
X5.195Y-2.4685
X5.207Y-2.0472
X5.207Y-2.228
X5.21Y-4.531
X5.26Y-4.531
X5.31Y-4.531
X5.437Y-2.447
X5.487Y-2.447
X5.649Y-2.328
X5.65Y-2.378
X5.652Y-2.228
X5.654Y-2.278
X5.7835Y-2.178
X6.3348Y-2.7559
X6.3732Y-2.3655
X6.3848Y-2.7559
X6.4109Y-5.7887
X6.4232Y-2.3655
X6.4348Y-2.7559
X6.4685Y-5.6516
X6.4732Y-2.3655
X6.553Y-5.729
X7.795Y-6.143
X8.715Y-5.59
T3
X5.9803Y-5.786
T4
X7.7677Y-5.8583
T5
X1.1645Y-3.0082
X1.1645Y-3.1067
X1.1645Y-3.2051
X1.1645Y-3.3035
X1.1645Y-4.5783
X1.1645Y-4.6767
X1.1645Y-4.7752
X1.1645Y-4.8736
X5.1732Y-1.374
X5.1732Y-1.4528
X5.2992Y-1.374
X5.2992Y-1.4528
X5.9815Y-1.2964
X5.9815Y-1.3948
X5.9815Y-1.4932
X5.9815Y-1.5916
X7.795Y-5.6955
X7.8934Y-5.6955
X7.9918Y-5.6955
X8.0903Y-5.6955
X8.6696Y-5.6955
X8.7681Y-5.6955
X8.8665Y-5.6955
X8.9649Y-5.6955
T6
X4.7065Y-1.1285
X4.7065Y-1.2285
X4.7065Y-1.3285
X4.7065Y-1.4285
T7
X1.4121Y-1.6409
X1.4121Y-2.2118
X1.5105Y-2.2118
X1.6089Y-1.6409
X1.6089Y-2.2118
T9
X1.1992Y-1.5634
X1.1992Y-6.3543
X2.073Y-5.479
X5.2605Y-4.729
X5.6102Y-1.4409
X5.823Y-3.229
X9.4155Y-6.3543
T8
G00X1.2861Y-1.9008
M15
G01X1.2861Y-1.9322
M16
G05
G00X1.7349Y-1.9008
M15
G01X1.7349Y-1.9322
M16
G05
M30
