%TF.GenerationSoftware,KiCad,Pcbnew,8.0.4*%
%TF.CreationDate,2025-08-03T15:51:16-05:00*%
%TF.ProjectId,numlocked_shift,6e756d6c-6f63-46b6-9564-5f7368696674,rev?*%
%TF.SameCoordinates,Original*%
%TF.FileFunction,Soldermask,Bot*%
%TF.FilePolarity,Negative*%
%FSLAX46Y46*%
G04 Gerber Fmt 4.6, Leading zero omitted, Abs format (unit mm)*
G04 Created by KiCad (PCBNEW 8.0.4) date 2025-08-03 15:51:16*
%MOMM*%
%LPD*%
G01*
G04 APERTURE LIST*
G04 Aperture macros list*
%AMRoundRect*
0 Rectangle with rounded corners*
0 $1 Rounding radius*
0 $2 $3 $4 $5 $6 $7 $8 $9 X,Y pos of 4 corners*
0 Add a 4 corners polygon primitive as box body*
4,1,4,$2,$3,$4,$5,$6,$7,$8,$9,$2,$3,0*
0 Add four circle primitives for the rounded corners*
1,1,$1+$1,$2,$3*
1,1,$1+$1,$4,$5*
1,1,$1+$1,$6,$7*
1,1,$1+$1,$8,$9*
0 Add four rect primitives between the rounded corners*
20,1,$1+$1,$2,$3,$4,$5,0*
20,1,$1+$1,$4,$5,$6,$7,0*
20,1,$1+$1,$6,$7,$8,$9,0*
20,1,$1+$1,$8,$9,$2,$3,0*%
G04 Aperture macros list end*
%ADD10C,1.700000*%
%ADD11C,3.000000*%
%ADD12C,4.000000*%
%ADD13R,2.550000X2.500000*%
%ADD14R,1.350000X1.350000*%
%ADD15O,1.350000X1.350000*%
%ADD16C,4.400000*%
%ADD17C,3.050000*%
%ADD18C,1.800000*%
%ADD19R,1.700000X1.700000*%
%ADD20O,1.700000X1.700000*%
%ADD21RoundRect,0.102000X0.825000X0.825000X-0.825000X0.825000X-0.825000X-0.825000X0.825000X-0.825000X0*%
%ADD22C,1.854000*%
%ADD23O,3.204000X6.204000*%
%ADD24RoundRect,0.150000X0.150000X-0.512500X0.150000X0.512500X-0.150000X0.512500X-0.150000X-0.512500X0*%
%ADD25RoundRect,0.250000X-0.650000X0.325000X-0.650000X-0.325000X0.650000X-0.325000X0.650000X0.325000X0*%
%ADD26RoundRect,0.225000X-0.225000X-0.250000X0.225000X-0.250000X0.225000X0.250000X-0.225000X0.250000X0*%
%ADD27RoundRect,0.225000X0.250000X-0.225000X0.250000X0.225000X-0.250000X0.225000X-0.250000X-0.225000X0*%
%ADD28RoundRect,0.225000X-0.250000X0.225000X-0.250000X-0.225000X0.250000X-0.225000X0.250000X0.225000X0*%
%ADD29RoundRect,0.100500X0.986500X0.301500X-0.986500X0.301500X-0.986500X-0.301500X0.986500X-0.301500X0*%
%ADD30R,0.900000X0.900000*%
%ADD31RoundRect,0.098000X0.294000X-0.809000X0.294000X0.809000X-0.294000X0.809000X-0.294000X-0.809000X0*%
%ADD32RoundRect,0.200000X0.200000X0.275000X-0.200000X0.275000X-0.200000X-0.275000X0.200000X-0.275000X0*%
%ADD33RoundRect,0.200000X0.275000X-0.200000X0.275000X0.200000X-0.275000X0.200000X-0.275000X-0.200000X0*%
%ADD34RoundRect,0.150000X-0.650000X-0.150000X0.650000X-0.150000X0.650000X0.150000X-0.650000X0.150000X0*%
%ADD35RoundRect,0.150000X-0.512500X-0.150000X0.512500X-0.150000X0.512500X0.150000X-0.512500X0.150000X0*%
%ADD36RoundRect,0.200000X-0.275000X0.200000X-0.275000X-0.200000X0.275000X-0.200000X0.275000X0.200000X0*%
%ADD37R,0.660400X1.549400*%
%ADD38R,1.295400X1.905000*%
%ADD39RoundRect,0.050000X0.050000X-0.387500X0.050000X0.387500X-0.050000X0.387500X-0.050000X-0.387500X0*%
%ADD40RoundRect,0.050000X0.387500X-0.050000X0.387500X0.050000X-0.387500X0.050000X-0.387500X-0.050000X0*%
%ADD41R,3.200000X3.200000*%
%ADD42RoundRect,0.225000X0.225000X0.250000X-0.225000X0.250000X-0.225000X-0.250000X0.225000X-0.250000X0*%
%ADD43RoundRect,0.375000X-0.375000X0.625000X-0.375000X-0.625000X0.375000X-0.625000X0.375000X0.625000X0*%
%ADD44RoundRect,0.500000X-1.400000X0.500000X-1.400000X-0.500000X1.400000X-0.500000X1.400000X0.500000X0*%
%ADD45R,1.400000X1.200000*%
%ADD46RoundRect,0.150000X0.150000X-0.650000X0.150000X0.650000X-0.150000X0.650000X-0.150000X-0.650000X0*%
%ADD47RoundRect,0.150000X0.850000X0.150000X-0.850000X0.150000X-0.850000X-0.150000X0.850000X-0.150000X0*%
%ADD48RoundRect,0.200000X-0.200000X-0.275000X0.200000X-0.275000X0.200000X0.275000X-0.200000X0.275000X0*%
%ADD49RoundRect,0.237500X-0.250000X-0.237500X0.250000X-0.237500X0.250000X0.237500X-0.250000X0.237500X0*%
G04 APERTURE END LIST*
D10*
%TO.C,S32*%
X152349200Y-72491600D03*
D11*
X153619200Y-69951600D03*
D12*
X157429200Y-72491600D03*
D11*
X159969200Y-67411600D03*
D10*
X162509200Y-72491600D03*
D13*
X150019200Y-69951600D03*
X163444200Y-67411600D03*
%TD*%
D14*
%TO.C,J2*%
X134600000Y-36900000D03*
D15*
X134600000Y-34900000D03*
%TD*%
D10*
%TO.C,S38*%
X33286700Y-148691600D03*
D11*
X34556700Y-146151600D03*
D12*
X38366700Y-148691600D03*
D11*
X40906700Y-143611600D03*
D10*
X43446700Y-148691600D03*
D13*
X30956700Y-146151600D03*
X44381700Y-143611600D03*
%TD*%
D10*
%TO.C,S36*%
X43446700Y-91541600D03*
D11*
X42176700Y-94081600D03*
D12*
X38366700Y-91541600D03*
D11*
X35826700Y-96621600D03*
D10*
X33286700Y-91541600D03*
D13*
X45776700Y-94081600D03*
X32351700Y-96621600D03*
%TD*%
D10*
%TO.C,S4*%
X80911700Y-48679100D03*
D11*
X82181700Y-46139100D03*
D12*
X85991700Y-48679100D03*
D11*
X88531700Y-43599100D03*
D10*
X91071700Y-48679100D03*
D13*
X78581700Y-46139100D03*
X92006700Y-43599100D03*
%TD*%
D10*
%TO.C,S31*%
X161874200Y-91541600D03*
D11*
X163144200Y-89001600D03*
D12*
X166954200Y-91541600D03*
D11*
X169494200Y-86461600D03*
D10*
X172034200Y-91541600D03*
D13*
X159544200Y-89001600D03*
X172969200Y-86461600D03*
%TD*%
D10*
%TO.C,S20*%
X119011700Y-48679100D03*
D11*
X120281700Y-46139100D03*
D12*
X124091700Y-48679100D03*
D11*
X126631700Y-43599100D03*
D10*
X129171700Y-48679100D03*
D13*
X116681700Y-46139100D03*
X130106700Y-43599100D03*
%TD*%
D10*
%TO.C,S2*%
X86309200Y-72491600D03*
D11*
X85039200Y-75031600D03*
D12*
X81229200Y-72491600D03*
D11*
X78689200Y-77571600D03*
D10*
X76149200Y-72491600D03*
D13*
X88639200Y-75031600D03*
X75214200Y-77571600D03*
%TD*%
D10*
%TO.C,S35*%
X33286700Y-110591600D03*
D11*
X34556700Y-108051600D03*
D12*
X38366700Y-110591600D03*
D11*
X40906700Y-105511600D03*
D10*
X43446700Y-110591600D03*
D13*
X30956700Y-108051600D03*
X44381700Y-105511600D03*
%TD*%
D10*
%TO.C,S39*%
X225612325Y-148691600D03*
D11*
X224342325Y-151231600D03*
D12*
X220532325Y-148691600D03*
D11*
X217992325Y-153771600D03*
D10*
X215452325Y-148691600D03*
D13*
X227942325Y-151231600D03*
X214517325Y-153771600D03*
%TD*%
D16*
%TO.C,H1*%
X30460450Y-39710000D03*
%TD*%
%TO.C,H4*%
X239154200Y-161400000D03*
%TD*%
D17*
%TO.C,S8*%
X62185450Y-122666600D03*
D12*
X62185450Y-137906600D03*
D10*
X69005450Y-129641600D03*
D11*
X70275450Y-127101600D03*
D12*
X74085450Y-129641600D03*
D11*
X76625450Y-124561600D03*
D10*
X79165450Y-129641600D03*
D17*
X85985450Y-122666600D03*
D12*
X85985450Y-137906600D03*
D13*
X66675450Y-127101600D03*
X80100450Y-124561600D03*
%TD*%
D16*
%TO.C,H5*%
X52654200Y-139166600D03*
%TD*%
D10*
%TO.C,S30*%
X166636700Y-110591600D03*
D11*
X167906700Y-108051600D03*
D12*
X171716700Y-110591600D03*
D11*
X174256700Y-105511600D03*
D10*
X176796700Y-110591600D03*
D13*
X164306700Y-108051600D03*
X177731700Y-105511600D03*
%TD*%
D10*
%TO.C,S37*%
X43446700Y-72491600D03*
D11*
X42176700Y-75031600D03*
D12*
X38366700Y-72491600D03*
D11*
X35826700Y-77571600D03*
D10*
X33286700Y-72491600D03*
D13*
X45776700Y-75031600D03*
X32351700Y-77571600D03*
%TD*%
D17*
%TO.C,S33*%
X133622950Y-141691600D03*
D12*
X133622950Y-156931600D03*
D10*
X178542950Y-148691600D03*
D11*
X179812950Y-146151600D03*
D12*
X183622950Y-148691600D03*
D11*
X185845950Y-153771600D03*
X186162950Y-143611600D03*
D12*
X188385950Y-148691600D03*
D11*
X192195950Y-151231600D03*
D10*
X193465950Y-148691600D03*
D17*
X233622950Y-141691600D03*
D12*
X233622950Y-156931600D03*
D13*
X182370950Y-153771600D03*
X189637950Y-143611600D03*
X176212950Y-146151600D03*
X195795950Y-151231600D03*
%TD*%
D10*
%TO.C,S10*%
X105359200Y-72491600D03*
D11*
X104089200Y-75031600D03*
D12*
X100279200Y-72491600D03*
D11*
X97739200Y-77571600D03*
D10*
X95199200Y-72491600D03*
D13*
X107689200Y-75031600D03*
X94264200Y-77571600D03*
%TD*%
D10*
%TO.C,S25*%
X128536700Y-110591600D03*
D11*
X129806700Y-108051600D03*
D12*
X133616700Y-110591600D03*
D11*
X136156700Y-105511600D03*
D10*
X138696700Y-110591600D03*
D13*
X126206700Y-108051600D03*
X139631700Y-105511600D03*
%TD*%
D14*
%TO.C,J1*%
X131500000Y-36900000D03*
D15*
X131500000Y-34900000D03*
%TD*%
D10*
%TO.C,S24*%
X133299200Y-72491600D03*
D11*
X134569200Y-69951600D03*
D12*
X138379200Y-72491600D03*
D11*
X140919200Y-67411600D03*
D10*
X143459200Y-72491600D03*
D13*
X130969200Y-69951600D03*
X144394200Y-67411600D03*
%TD*%
D18*
%TO.C,J7*%
X220208600Y-144666600D03*
X222708600Y-144666600D03*
X225208600Y-144666600D03*
X227708600Y-144666600D03*
%TD*%
D10*
%TO.C,S21*%
X138061700Y-48679100D03*
D11*
X139331700Y-46139100D03*
D12*
X143141700Y-48679100D03*
D11*
X145681700Y-43599100D03*
D10*
X148221700Y-48679100D03*
D13*
X135731700Y-46139100D03*
X149156700Y-43599100D03*
%TD*%
D10*
%TO.C,S14*%
X99961700Y-129641600D03*
D11*
X101231700Y-127101600D03*
D12*
X105041700Y-129641600D03*
D11*
X107581700Y-124561600D03*
D10*
X110121700Y-129641600D03*
D13*
X97631700Y-127101600D03*
X111056700Y-124561600D03*
%TD*%
D10*
%TO.C,S29*%
X176161700Y-129641600D03*
D11*
X177431700Y-127101600D03*
D12*
X181241700Y-129641600D03*
D11*
X183781700Y-124561600D03*
D10*
X186321700Y-129641600D03*
D13*
X173831700Y-127101600D03*
X187256700Y-124561600D03*
%TD*%
D10*
%TO.C,S19*%
X104724200Y-91541600D03*
D11*
X105994200Y-89001600D03*
D12*
X109804200Y-91541600D03*
D11*
X112344200Y-86461600D03*
D10*
X114884200Y-91541600D03*
D13*
X102394200Y-89001600D03*
X115819200Y-86461600D03*
%TD*%
D18*
%TO.C,J6*%
X197992800Y-144666600D03*
X200492800Y-144666600D03*
X202992800Y-144666600D03*
X205492800Y-144666600D03*
%TD*%
D16*
%TO.C,H3*%
X30460450Y-161400000D03*
%TD*%
D10*
%TO.C,S1*%
X67259200Y-72491600D03*
D11*
X65989200Y-75031600D03*
D12*
X62179200Y-72491600D03*
D11*
X59639200Y-77571600D03*
D10*
X57099200Y-72491600D03*
D13*
X69589200Y-75031600D03*
X56164200Y-77571600D03*
%TD*%
D10*
%TO.C,S34*%
X33286700Y-129641600D03*
D11*
X34556700Y-127101600D03*
D12*
X38366700Y-129641600D03*
D11*
X40906700Y-124561600D03*
D10*
X43446700Y-129641600D03*
D13*
X30956700Y-127101600D03*
X44381700Y-124561600D03*
%TD*%
D10*
%TO.C,S26*%
X147586700Y-110591600D03*
D11*
X148856700Y-108051600D03*
D12*
X152666700Y-110591600D03*
D11*
X155206700Y-105511600D03*
D10*
X157746700Y-110591600D03*
D13*
X145256700Y-108051600D03*
X158681700Y-105511600D03*
%TD*%
D10*
%TO.C,S11*%
X59480450Y-148691600D03*
D11*
X60750450Y-146151600D03*
D12*
X64560450Y-148691600D03*
D11*
X67100450Y-143611600D03*
D10*
X69640450Y-148691600D03*
D13*
X57150450Y-146151600D03*
X70575450Y-143611600D03*
%TD*%
D10*
%TO.C,S15*%
X90436700Y-110591600D03*
D11*
X91706700Y-108051600D03*
D12*
X95516700Y-110591600D03*
D11*
X98056700Y-105511600D03*
D10*
X100596700Y-110591600D03*
D13*
X88106700Y-108051600D03*
X101531700Y-105511600D03*
%TD*%
D10*
%TO.C,S9*%
X83292950Y-148691600D03*
D11*
X84562950Y-146151600D03*
D12*
X88372950Y-148691600D03*
D11*
X90912950Y-143611600D03*
D10*
X93452950Y-148691600D03*
D13*
X80962950Y-146151600D03*
X94387950Y-143611600D03*
%TD*%
D10*
%TO.C,S6*%
X72021700Y-91541600D03*
D11*
X70751700Y-94081600D03*
D12*
X66941700Y-91541600D03*
D11*
X64401700Y-96621600D03*
D10*
X61861700Y-91541600D03*
D13*
X74351700Y-94081600D03*
X60926700Y-96621600D03*
%TD*%
D10*
%TO.C,S17*%
X119011700Y-129641600D03*
D11*
X120281700Y-127101600D03*
D12*
X124091700Y-129641600D03*
D11*
X126631700Y-124561600D03*
D10*
X129171700Y-129641600D03*
D13*
X116681700Y-127101600D03*
X130106700Y-124561600D03*
%TD*%
D10*
%TO.C,S28*%
X157111700Y-129641600D03*
D11*
X158381700Y-127101600D03*
D12*
X162191700Y-129641600D03*
D11*
X164731700Y-124561600D03*
D10*
X167271700Y-129641600D03*
D13*
X154781700Y-127101600D03*
X168206700Y-124561600D03*
%TD*%
D10*
%TO.C,S7*%
X64242950Y-110591600D03*
D11*
X65512950Y-108051600D03*
D12*
X69322950Y-110591600D03*
D11*
X71862950Y-105511600D03*
D10*
X74402950Y-110591600D03*
D13*
X61912950Y-108051600D03*
X75337950Y-105511600D03*
%TD*%
D10*
%TO.C,S3*%
X57099200Y-48679100D03*
D11*
X58369200Y-46139100D03*
D12*
X62179200Y-48679100D03*
D11*
X64719200Y-43599100D03*
D10*
X67259200Y-48679100D03*
D13*
X54769200Y-46139100D03*
X68194200Y-43599100D03*
%TD*%
D10*
%TO.C,S16*%
X109486700Y-110591600D03*
D11*
X110756700Y-108051600D03*
D12*
X114566700Y-110591600D03*
D11*
X117106700Y-105511600D03*
D10*
X119646700Y-110591600D03*
D13*
X107156700Y-108051600D03*
X120581700Y-105511600D03*
%TD*%
D16*
%TO.C,H7*%
X133616700Y-120116600D03*
%TD*%
D10*
%TO.C,S18*%
X114249200Y-72491600D03*
D11*
X115519200Y-69951600D03*
D12*
X119329200Y-72491600D03*
D11*
X121869200Y-67411600D03*
D10*
X124409200Y-72491600D03*
D13*
X111919200Y-69951600D03*
X125344200Y-67411600D03*
%TD*%
D10*
%TO.C,S5*%
X99961700Y-48679100D03*
D11*
X101231700Y-46139100D03*
D12*
X105041700Y-48679100D03*
D11*
X107581700Y-43599100D03*
D10*
X110121700Y-48679100D03*
D13*
X97631700Y-46139100D03*
X111056700Y-43599100D03*
%TD*%
D19*
%TO.C,Brd1*%
X119545200Y-28664600D03*
D20*
X119545200Y-31204600D03*
X119545200Y-33744600D03*
X119545200Y-36284600D03*
%TD*%
D10*
%TO.C,S27*%
X138061700Y-129641600D03*
D11*
X139331700Y-127101600D03*
D12*
X143141700Y-129641600D03*
D11*
X145681700Y-124561600D03*
D10*
X148221700Y-129641600D03*
D13*
X135731700Y-127101600D03*
X149156700Y-124561600D03*
%TD*%
D21*
%TO.C,MT1*%
X40866700Y-55679100D03*
D22*
X35866700Y-55679100D03*
X40866700Y-41179100D03*
X35866700Y-41179100D03*
X38366700Y-41179100D03*
D23*
X44066700Y-48679100D03*
X32666700Y-48679100D03*
%TD*%
D16*
%TO.C,H6*%
X147904200Y-82016600D03*
%TD*%
D10*
%TO.C,S12*%
X107105450Y-148691600D03*
D11*
X108375450Y-146151600D03*
D12*
X112185450Y-148691600D03*
D11*
X114725450Y-143611600D03*
D10*
X117265450Y-148691600D03*
D13*
X104775450Y-146151600D03*
X118200450Y-143611600D03*
%TD*%
D16*
%TO.C,H2*%
X142500000Y-36600000D03*
%TD*%
D17*
%TO.C,S40*%
X139576075Y-141716600D03*
D12*
X139576075Y-156956600D03*
D10*
X146396075Y-148691600D03*
D11*
X147666075Y-146151600D03*
D12*
X151476075Y-148691600D03*
D11*
X154016075Y-143611600D03*
D10*
X156556075Y-148691600D03*
D17*
X163376075Y-141716600D03*
D12*
X163376075Y-156956600D03*
D13*
X144066075Y-146151600D03*
X157491075Y-143611600D03*
%TD*%
D18*
%TO.C,J5*%
X151929200Y-32927600D03*
X151929200Y-35427600D03*
X151929200Y-37927600D03*
X151929200Y-40427600D03*
%TD*%
D10*
%TO.C,S13*%
X85674200Y-91541600D03*
D11*
X86944200Y-89001600D03*
D12*
X90754200Y-91541600D03*
D11*
X93294200Y-86461600D03*
D10*
X95834200Y-91541600D03*
D13*
X83344200Y-89001600D03*
X96769200Y-86461600D03*
%TD*%
D10*
%TO.C,S23*%
X142824200Y-91541600D03*
D11*
X144094200Y-89001600D03*
D12*
X147904200Y-91541600D03*
D11*
X150444200Y-86461600D03*
D10*
X152984200Y-91541600D03*
D13*
X140494200Y-89001600D03*
X153919200Y-86461600D03*
%TD*%
D10*
%TO.C,S22*%
X123774200Y-91541600D03*
D11*
X125044200Y-89001600D03*
D12*
X128854200Y-91541600D03*
D11*
X131394200Y-86461600D03*
D10*
X133934200Y-91541600D03*
D13*
X121444200Y-89001600D03*
X134869200Y-86461600D03*
%TD*%
D24*
%TO.C,U12*%
X46150000Y-61837500D03*
X45200000Y-61837500D03*
X44250000Y-61837500D03*
X44250000Y-59562500D03*
X46150000Y-59562500D03*
%TD*%
D25*
%TO.C,C16*%
X84500000Y-31225000D03*
X84500000Y-34175000D03*
%TD*%
D26*
%TO.C,C29*%
X29725000Y-74500000D03*
X31275000Y-74500000D03*
%TD*%
D27*
%TO.C,C19*%
X117402700Y-31271400D03*
X117402700Y-29721400D03*
%TD*%
%TO.C,C25*%
X144990600Y-53810200D03*
X144990600Y-52260200D03*
%TD*%
%TO.C,C13*%
X53920200Y-67123100D03*
X53920200Y-65573100D03*
%TD*%
%TO.C,C22*%
X84500000Y-54075000D03*
X84500000Y-52525000D03*
%TD*%
D28*
%TO.C,C31*%
X147500000Y-32975000D03*
X147500000Y-34525000D03*
%TD*%
D25*
%TO.C,C17*%
X94300000Y-31325000D03*
X94300000Y-34275000D03*
%TD*%
D29*
%TO.C,U4*%
X91635000Y-54051200D03*
X91635000Y-55321200D03*
X91635000Y-56591200D03*
X91635000Y-57861200D03*
X91635000Y-59131200D03*
X91635000Y-60401200D03*
X91635000Y-61671200D03*
X91635000Y-62941200D03*
X86685000Y-62941200D03*
X86685000Y-61671200D03*
X86685000Y-60401200D03*
X86685000Y-59131200D03*
X86685000Y-57861200D03*
X86685000Y-56591200D03*
X86685000Y-55321200D03*
X86685000Y-54051200D03*
%TD*%
D26*
%TO.C,C11*%
X65845200Y-57948100D03*
X67395200Y-57948100D03*
%TD*%
D30*
%TO.C,RN7*%
X144000000Y-56496200D03*
X144000000Y-57836200D03*
X144000000Y-59156200D03*
X144000000Y-60496200D03*
X141000000Y-60496200D03*
X141000000Y-59156200D03*
X141000000Y-57836200D03*
X141000000Y-56496200D03*
%TD*%
D31*
%TO.C,U2*%
X81005000Y-69105000D03*
X79735000Y-69105000D03*
X78465000Y-69105000D03*
X77195000Y-69105000D03*
X77195000Y-61895000D03*
X78465000Y-61895000D03*
X79735000Y-61895000D03*
X81005000Y-61895000D03*
%TD*%
D26*
%TO.C,C28*%
X29725000Y-72700000D03*
X31275000Y-72700000D03*
%TD*%
D32*
%TO.C,R2*%
X71373945Y-62277900D03*
X69723945Y-62277900D03*
%TD*%
D33*
%TO.C,R1*%
X42900000Y-41000000D03*
X42900000Y-39350000D03*
%TD*%
D18*
%TO.C,J3*%
X29579200Y-76409100D03*
X29579200Y-78909100D03*
X29579200Y-81409100D03*
X29579200Y-83909100D03*
%TD*%
D30*
%TO.C,RN6*%
X135920000Y-60496200D03*
X135920000Y-59156200D03*
X135920000Y-57836200D03*
X135920000Y-56496200D03*
X138920000Y-56496200D03*
X138920000Y-57836200D03*
X138920000Y-59156200D03*
X138920000Y-60496200D03*
%TD*%
%TO.C,RN8*%
X157950000Y-63500000D03*
X157950000Y-62160000D03*
X157950000Y-60840000D03*
X157950000Y-59500000D03*
X160950000Y-59500000D03*
X160950000Y-60840000D03*
X160950000Y-62160000D03*
X160950000Y-63500000D03*
%TD*%
D34*
%TO.C,U9*%
X36250000Y-65250000D03*
X36250000Y-64300000D03*
X36250000Y-63350000D03*
X38550000Y-63350000D03*
X38550000Y-64300000D03*
X38550000Y-65250000D03*
%TD*%
D30*
%TO.C,RN1*%
X83100000Y-55800000D03*
X83100000Y-57140000D03*
X83100000Y-58460000D03*
X83100000Y-59800000D03*
X80100000Y-59800000D03*
X80100000Y-58460000D03*
X80100000Y-57140000D03*
X80100000Y-55800000D03*
%TD*%
D26*
%TO.C,C26*%
X46275000Y-57800000D03*
X47825000Y-57800000D03*
%TD*%
%TO.C,C36*%
X40325000Y-68700000D03*
X41875000Y-68700000D03*
%TD*%
%TO.C,C35*%
X41600000Y-57700000D03*
X43150000Y-57700000D03*
%TD*%
%TO.C,C5*%
X65845200Y-56400000D03*
X67395200Y-56400000D03*
%TD*%
D33*
%TO.C,R7*%
X34100000Y-44225000D03*
X34100000Y-42575000D03*
%TD*%
D32*
%TO.C,R3*%
X71373945Y-60728500D03*
X69723945Y-60728500D03*
%TD*%
D35*
%TO.C,U11*%
X36262500Y-68750000D03*
X36262500Y-67800000D03*
X36262500Y-66850000D03*
X38537500Y-66850000D03*
X38537500Y-68750000D03*
%TD*%
D32*
%TO.C,R4*%
X52045200Y-60348100D03*
X50395200Y-60348100D03*
%TD*%
D26*
%TO.C,C12*%
X65845200Y-59648100D03*
X67395200Y-59648100D03*
%TD*%
D36*
%TO.C,R14*%
X38900000Y-55575000D03*
X38900000Y-57225000D03*
%TD*%
D26*
%TO.C,C2*%
X67387500Y-64400000D03*
X68937500Y-64400000D03*
%TD*%
D28*
%TO.C,C20*%
X41300000Y-44125000D03*
X41300000Y-45675000D03*
%TD*%
D32*
%TO.C,R10*%
X45125000Y-64150000D03*
X43475000Y-64150000D03*
%TD*%
D26*
%TO.C,C4*%
X66625000Y-62800000D03*
X68175000Y-62800000D03*
%TD*%
D30*
%TO.C,RN2*%
X95280000Y-60496200D03*
X95280000Y-59156200D03*
X95280000Y-57836200D03*
X95280000Y-56496200D03*
X98280000Y-56496200D03*
X98280000Y-57836200D03*
X98280000Y-59156200D03*
X98280000Y-60496200D03*
%TD*%
D27*
%TO.C,C1*%
X68920200Y-59123100D03*
X68920200Y-57573100D03*
%TD*%
D29*
%TO.C,U7*%
X152904400Y-54051200D03*
X152904400Y-55321200D03*
X152904400Y-56591200D03*
X152904400Y-57861200D03*
X152904400Y-59131200D03*
X152904400Y-60401200D03*
X152904400Y-61671200D03*
X152904400Y-62941200D03*
X147954400Y-62941200D03*
X147954400Y-61671200D03*
X147954400Y-60401200D03*
X147954400Y-59131200D03*
X147954400Y-57861200D03*
X147954400Y-56591200D03*
X147954400Y-55321200D03*
X147954400Y-54051200D03*
%TD*%
D37*
%TO.C,J8*%
X72700000Y-42798500D03*
X73700001Y-42798500D03*
X74699999Y-42798500D03*
X75700000Y-42798500D03*
D38*
X76999999Y-38923499D03*
X71400001Y-38923499D03*
%TD*%
D39*
%TO.C,U1*%
X62400000Y-66137500D03*
X62000000Y-66137500D03*
X61600000Y-66137500D03*
X61200000Y-66137500D03*
X60800000Y-66137500D03*
X60400000Y-66137500D03*
X60000000Y-66137500D03*
X59600000Y-66137500D03*
X59200000Y-66137500D03*
X58800000Y-66137500D03*
X58400000Y-66137500D03*
X58000000Y-66137500D03*
X57600000Y-66137500D03*
X57200000Y-66137500D03*
D40*
X56362500Y-65300000D03*
X56362500Y-64900000D03*
X56362500Y-64500000D03*
X56362500Y-64100000D03*
X56362500Y-63700000D03*
X56362500Y-63300000D03*
X56362500Y-62900000D03*
X56362500Y-62500000D03*
X56362500Y-62100000D03*
X56362500Y-61700000D03*
X56362500Y-61300000D03*
X56362500Y-60900000D03*
X56362500Y-60500000D03*
X56362500Y-60100000D03*
D39*
X57200000Y-59262500D03*
X57600000Y-59262500D03*
X58000000Y-59262500D03*
X58400000Y-59262500D03*
X58800000Y-59262500D03*
X59200000Y-59262500D03*
X59600000Y-59262500D03*
X60000000Y-59262500D03*
X60400000Y-59262500D03*
X60800000Y-59262500D03*
X61200000Y-59262500D03*
X61600000Y-59262500D03*
X62000000Y-59262500D03*
X62400000Y-59262500D03*
D40*
X63237500Y-60100000D03*
X63237500Y-60500000D03*
X63237500Y-60900000D03*
X63237500Y-61300000D03*
X63237500Y-61700000D03*
X63237500Y-62100000D03*
X63237500Y-62500000D03*
X63237500Y-62900000D03*
X63237500Y-63300000D03*
X63237500Y-63700000D03*
X63237500Y-64100000D03*
X63237500Y-64500000D03*
X63237500Y-64900000D03*
X63237500Y-65300000D03*
D41*
X59800000Y-62700000D03*
%TD*%
D32*
%TO.C,R6*%
X34325000Y-65300000D03*
X32675000Y-65300000D03*
%TD*%
D27*
%TO.C,C3*%
X53853200Y-61637700D03*
X53853200Y-60087700D03*
%TD*%
D42*
%TO.C,C34*%
X34275000Y-68900000D03*
X32725000Y-68900000D03*
%TD*%
D30*
%TO.C,RN11*%
X57520000Y-87435000D03*
X57520000Y-86095000D03*
X57520000Y-84775000D03*
X57520000Y-83435000D03*
X60520000Y-83435000D03*
X60520000Y-84775000D03*
X60520000Y-86095000D03*
X60520000Y-87435000D03*
%TD*%
D27*
%TO.C,C9*%
X64220200Y-56923100D03*
X64220200Y-55373100D03*
%TD*%
D30*
%TO.C,RN4*%
X115600000Y-60496200D03*
X115600000Y-59156200D03*
X115600000Y-57836200D03*
X115600000Y-56496200D03*
X118600000Y-56496200D03*
X118600000Y-57836200D03*
X118600000Y-59156200D03*
X118600000Y-60496200D03*
%TD*%
D26*
%TO.C,C27*%
X40450000Y-64200000D03*
X42000000Y-64200000D03*
%TD*%
D30*
%TO.C,RN3*%
X103360000Y-56496200D03*
X103360000Y-57836200D03*
X103360000Y-59156200D03*
X103360000Y-60496200D03*
X100360000Y-60496200D03*
X100360000Y-59156200D03*
X100360000Y-57836200D03*
X100360000Y-56496200D03*
%TD*%
D26*
%TO.C,C10*%
X62820200Y-68148100D03*
X64370200Y-68148100D03*
%TD*%
D42*
%TO.C,C38*%
X58775000Y-57500000D03*
X57225000Y-57500000D03*
%TD*%
D43*
%TO.C,U3*%
X87100000Y-30950000D03*
X89400000Y-30950000D03*
X91700000Y-30950000D03*
D44*
X89400000Y-37250000D03*
%TD*%
D45*
%TO.C,X1*%
X52120200Y-67148100D03*
X49920200Y-67148100D03*
X49920200Y-65548100D03*
X52120200Y-65548100D03*
%TD*%
D33*
%TO.C,R12*%
X42900000Y-44025000D03*
X42900000Y-42375000D03*
%TD*%
D26*
%TO.C,C39*%
X48025000Y-79300000D03*
X49575000Y-79300000D03*
%TD*%
D46*
%TO.C,U8*%
X42550000Y-61900000D03*
X41600000Y-61900000D03*
X40650000Y-61900000D03*
X40650000Y-59600000D03*
X41600000Y-59600000D03*
X42550000Y-59600000D03*
%TD*%
D29*
%TO.C,U5*%
X111955000Y-54051200D03*
X111955000Y-55321200D03*
X111955000Y-56591200D03*
X111955000Y-57861200D03*
X111955000Y-59131200D03*
X111955000Y-60401200D03*
X111955000Y-61671200D03*
X111955000Y-62941200D03*
X107005000Y-62941200D03*
X107005000Y-61671200D03*
X107005000Y-60401200D03*
X107005000Y-59131200D03*
X107005000Y-57861200D03*
X107005000Y-56591200D03*
X107005000Y-55321200D03*
X107005000Y-54051200D03*
%TD*%
D27*
%TO.C,C23*%
X103890600Y-53775000D03*
X103890600Y-52225000D03*
%TD*%
D36*
%TO.C,R5*%
X83100000Y-67475000D03*
X83100000Y-69125000D03*
%TD*%
D42*
%TO.C,C37*%
X45075000Y-65700000D03*
X43525000Y-65700000D03*
%TD*%
D32*
%TO.C,R13*%
X37225000Y-44200000D03*
X35575000Y-44200000D03*
%TD*%
D47*
%TO.C,U13*%
X53900000Y-80990000D03*
X53900000Y-82260000D03*
X53900000Y-83530000D03*
X53900000Y-84800000D03*
X53900000Y-86070000D03*
X53900000Y-87340000D03*
X53900000Y-88610000D03*
X53900000Y-89880000D03*
X48900000Y-89880000D03*
X48900000Y-88610000D03*
X48900000Y-87340000D03*
X48900000Y-86070000D03*
X48900000Y-84800000D03*
X48900000Y-83530000D03*
X48900000Y-82260000D03*
X48900000Y-80990000D03*
%TD*%
D28*
%TO.C,C30*%
X149250000Y-32975000D03*
X149250000Y-34525000D03*
%TD*%
D48*
%TO.C,R8*%
X50375000Y-63500000D03*
X52025000Y-63500000D03*
%TD*%
D42*
%TO.C,C7*%
X51986600Y-61904100D03*
X50436600Y-61904100D03*
%TD*%
%TO.C,C21*%
X37175000Y-45775000D03*
X35625000Y-45775000D03*
%TD*%
D27*
%TO.C,C18*%
X115300000Y-31275000D03*
X115300000Y-29725000D03*
%TD*%
D30*
%TO.C,RN10*%
X45280000Y-83435000D03*
X45280000Y-84775000D03*
X45280000Y-86095000D03*
X45280000Y-87435000D03*
X42280000Y-87435000D03*
X42280000Y-86095000D03*
X42280000Y-84775000D03*
X42280000Y-83435000D03*
%TD*%
D27*
%TO.C,C24*%
X125090600Y-53775000D03*
X125090600Y-52225000D03*
%TD*%
D30*
%TO.C,RN5*%
X123680000Y-56496200D03*
X123680000Y-57836200D03*
X123680000Y-59156200D03*
X123680000Y-60496200D03*
X120680000Y-60496200D03*
X120680000Y-59156200D03*
X120680000Y-57836200D03*
X120680000Y-56496200D03*
%TD*%
D28*
%TO.C,C6*%
X58800000Y-67725000D03*
X58800000Y-69275000D03*
%TD*%
D18*
%TO.C,J4*%
X29579200Y-116289100D03*
X29579200Y-118789100D03*
X29579200Y-121289100D03*
X29579200Y-123789100D03*
%TD*%
D27*
%TO.C,C14*%
X48100000Y-67123100D03*
X48100000Y-65573100D03*
%TD*%
D28*
%TO.C,C15*%
X83100000Y-61925000D03*
X83100000Y-63475000D03*
%TD*%
D29*
%TO.C,U6*%
X132275000Y-54051200D03*
X132275000Y-55321200D03*
X132275000Y-56591200D03*
X132275000Y-57861200D03*
X132275000Y-59131200D03*
X132275000Y-60401200D03*
X132275000Y-61671200D03*
X132275000Y-62941200D03*
X127325000Y-62941200D03*
X127325000Y-61671200D03*
X127325000Y-60401200D03*
X127325000Y-59131200D03*
X127325000Y-57861200D03*
X127325000Y-56591200D03*
X127325000Y-55321200D03*
X127325000Y-54051200D03*
%TD*%
D27*
%TO.C,C8*%
X62620200Y-56923100D03*
X62620200Y-55373100D03*
%TD*%
D32*
%TO.C,R9*%
X34325000Y-67200000D03*
X32675000Y-67200000D03*
%TD*%
D49*
%TO.C,R11*%
X68387500Y-118100000D03*
X70212500Y-118100000D03*
%TD*%
M02*
