%TF.GenerationSoftware,KiCad,Pcbnew,8.0.4*%
%TF.CreationDate,2025-08-03T15:51:16-05:00*%
%TF.ProjectId,numlocked_shift,6e756d6c-6f63-46b6-9564-5f7368696674,rev?*%
%TF.SameCoordinates,Original*%
%TF.FileFunction,Paste,Bot*%
%TF.FilePolarity,Positive*%
%FSLAX46Y46*%
G04 Gerber Fmt 4.6, Leading zero omitted, Abs format (unit mm)*
G04 Created by KiCad (PCBNEW 8.0.4) date 2025-08-03 15:51:16*
%MOMM*%
%LPD*%
G01*
G04 APERTURE LIST*
G04 Aperture macros list*
%AMRoundRect*
0 Rectangle with rounded corners*
0 $1 Rounding radius*
0 $2 $3 $4 $5 $6 $7 $8 $9 X,Y pos of 4 corners*
0 Add a 4 corners polygon primitive as box body*
4,1,4,$2,$3,$4,$5,$6,$7,$8,$9,$2,$3,0*
0 Add four circle primitives for the rounded corners*
1,1,$1+$1,$2,$3*
1,1,$1+$1,$4,$5*
1,1,$1+$1,$6,$7*
1,1,$1+$1,$8,$9*
0 Add four rect primitives between the rounded corners*
20,1,$1+$1,$2,$3,$4,$5,0*
20,1,$1+$1,$4,$5,$6,$7,0*
20,1,$1+$1,$6,$7,$8,$9,0*
20,1,$1+$1,$8,$9,$2,$3,0*%
G04 Aperture macros list end*
%ADD10R,2.550000X2.500000*%
%ADD11RoundRect,0.150000X0.150000X-0.512500X0.150000X0.512500X-0.150000X0.512500X-0.150000X-0.512500X0*%
%ADD12RoundRect,0.250000X-0.650000X0.325000X-0.650000X-0.325000X0.650000X-0.325000X0.650000X0.325000X0*%
%ADD13RoundRect,0.225000X-0.225000X-0.250000X0.225000X-0.250000X0.225000X0.250000X-0.225000X0.250000X0*%
%ADD14RoundRect,0.225000X0.250000X-0.225000X0.250000X0.225000X-0.250000X0.225000X-0.250000X-0.225000X0*%
%ADD15RoundRect,0.225000X-0.250000X0.225000X-0.250000X-0.225000X0.250000X-0.225000X0.250000X0.225000X0*%
%ADD16RoundRect,0.075000X0.910000X0.225000X-0.910000X0.225000X-0.910000X-0.225000X0.910000X-0.225000X0*%
%ADD17R,0.900000X0.900000*%
%ADD18RoundRect,0.072500X0.217500X-0.732500X0.217500X0.732500X-0.217500X0.732500X-0.217500X-0.732500X0*%
%ADD19RoundRect,0.200000X0.200000X0.275000X-0.200000X0.275000X-0.200000X-0.275000X0.200000X-0.275000X0*%
%ADD20RoundRect,0.200000X0.275000X-0.200000X0.275000X0.200000X-0.275000X0.200000X-0.275000X-0.200000X0*%
%ADD21RoundRect,0.150000X-0.650000X-0.150000X0.650000X-0.150000X0.650000X0.150000X-0.650000X0.150000X0*%
%ADD22RoundRect,0.150000X-0.512500X-0.150000X0.512500X-0.150000X0.512500X0.150000X-0.512500X0.150000X0*%
%ADD23RoundRect,0.200000X-0.275000X0.200000X-0.275000X-0.200000X0.275000X-0.200000X0.275000X0.200000X0*%
%ADD24R,0.660400X1.549400*%
%ADD25R,1.295400X1.905000*%
%ADD26RoundRect,0.249999X0.395001X-0.395001X0.395001X0.395001X-0.395001X0.395001X-0.395001X-0.395001X0*%
%ADD27RoundRect,0.050000X0.050000X-0.387500X0.050000X0.387500X-0.050000X0.387500X-0.050000X-0.387500X0*%
%ADD28RoundRect,0.050000X0.387500X-0.050000X0.387500X0.050000X-0.387500X0.050000X-0.387500X-0.050000X0*%
%ADD29RoundRect,0.225000X0.225000X0.250000X-0.225000X0.250000X-0.225000X-0.250000X0.225000X-0.250000X0*%
%ADD30RoundRect,0.375000X-0.375000X0.625000X-0.375000X-0.625000X0.375000X-0.625000X0.375000X0.625000X0*%
%ADD31RoundRect,0.500000X-1.400000X0.500000X-1.400000X-0.500000X1.400000X-0.500000X1.400000X0.500000X0*%
%ADD32R,1.400000X1.200000*%
%ADD33RoundRect,0.150000X0.150000X-0.650000X0.150000X0.650000X-0.150000X0.650000X-0.150000X-0.650000X0*%
%ADD34RoundRect,0.150000X0.850000X0.150000X-0.850000X0.150000X-0.850000X-0.150000X0.850000X-0.150000X0*%
%ADD35RoundRect,0.200000X-0.200000X-0.275000X0.200000X-0.275000X0.200000X0.275000X-0.200000X0.275000X0*%
%ADD36RoundRect,0.237500X-0.250000X-0.237500X0.250000X-0.237500X0.250000X0.237500X-0.250000X0.237500X0*%
G04 APERTURE END LIST*
D10*
%TO.C,S32*%
X150019200Y-69951600D03*
X163444200Y-67411600D03*
%TD*%
%TO.C,S38*%
X30956700Y-146151600D03*
X44381700Y-143611600D03*
%TD*%
%TO.C,S36*%
X45776700Y-94081600D03*
X32351700Y-96621600D03*
%TD*%
%TO.C,S4*%
X78581700Y-46139100D03*
X92006700Y-43599100D03*
%TD*%
%TO.C,S31*%
X159544200Y-89001600D03*
X172969200Y-86461600D03*
%TD*%
%TO.C,S20*%
X116681700Y-46139100D03*
X130106700Y-43599100D03*
%TD*%
%TO.C,S2*%
X88639200Y-75031600D03*
X75214200Y-77571600D03*
%TD*%
%TO.C,S35*%
X30956700Y-108051600D03*
X44381700Y-105511600D03*
%TD*%
%TO.C,S39*%
X227942325Y-151231600D03*
X214517325Y-153771600D03*
%TD*%
%TO.C,S8*%
X66675450Y-127101600D03*
X80100450Y-124561600D03*
%TD*%
%TO.C,S30*%
X164306700Y-108051600D03*
X177731700Y-105511600D03*
%TD*%
%TO.C,S37*%
X45776700Y-75031600D03*
X32351700Y-77571600D03*
%TD*%
%TO.C,S33*%
X182370950Y-153771600D03*
X189637950Y-143611600D03*
X176212950Y-146151600D03*
X195795950Y-151231600D03*
%TD*%
%TO.C,S10*%
X107689200Y-75031600D03*
X94264200Y-77571600D03*
%TD*%
%TO.C,S25*%
X126206700Y-108051600D03*
X139631700Y-105511600D03*
%TD*%
%TO.C,S24*%
X130969200Y-69951600D03*
X144394200Y-67411600D03*
%TD*%
%TO.C,S21*%
X135731700Y-46139100D03*
X149156700Y-43599100D03*
%TD*%
%TO.C,S14*%
X97631700Y-127101600D03*
X111056700Y-124561600D03*
%TD*%
%TO.C,S29*%
X173831700Y-127101600D03*
X187256700Y-124561600D03*
%TD*%
%TO.C,S19*%
X102394200Y-89001600D03*
X115819200Y-86461600D03*
%TD*%
%TO.C,S1*%
X69589200Y-75031600D03*
X56164200Y-77571600D03*
%TD*%
%TO.C,S34*%
X30956700Y-127101600D03*
X44381700Y-124561600D03*
%TD*%
%TO.C,S26*%
X145256700Y-108051600D03*
X158681700Y-105511600D03*
%TD*%
%TO.C,S11*%
X57150450Y-146151600D03*
X70575450Y-143611600D03*
%TD*%
%TO.C,S15*%
X88106700Y-108051600D03*
X101531700Y-105511600D03*
%TD*%
%TO.C,S9*%
X80962950Y-146151600D03*
X94387950Y-143611600D03*
%TD*%
%TO.C,S6*%
X74351700Y-94081600D03*
X60926700Y-96621600D03*
%TD*%
%TO.C,S17*%
X116681700Y-127101600D03*
X130106700Y-124561600D03*
%TD*%
%TO.C,S28*%
X154781700Y-127101600D03*
X168206700Y-124561600D03*
%TD*%
%TO.C,S7*%
X61912950Y-108051600D03*
X75337950Y-105511600D03*
%TD*%
%TO.C,S3*%
X54769200Y-46139100D03*
X68194200Y-43599100D03*
%TD*%
%TO.C,S16*%
X107156700Y-108051600D03*
X120581700Y-105511600D03*
%TD*%
%TO.C,S18*%
X111919200Y-69951600D03*
X125344200Y-67411600D03*
%TD*%
%TO.C,S5*%
X97631700Y-46139100D03*
X111056700Y-43599100D03*
%TD*%
%TO.C,S27*%
X135731700Y-127101600D03*
X149156700Y-124561600D03*
%TD*%
%TO.C,S12*%
X104775450Y-146151600D03*
X118200450Y-143611600D03*
%TD*%
%TO.C,S40*%
X144066075Y-146151600D03*
X157491075Y-143611600D03*
%TD*%
%TO.C,S13*%
X83344200Y-89001600D03*
X96769200Y-86461600D03*
%TD*%
%TO.C,S23*%
X140494200Y-89001600D03*
X153919200Y-86461600D03*
%TD*%
%TO.C,S22*%
X121444200Y-89001600D03*
X134869200Y-86461600D03*
%TD*%
D11*
%TO.C,U12*%
X46150000Y-61837500D03*
X45200000Y-61837500D03*
X44250000Y-61837500D03*
X44250000Y-59562500D03*
X46150000Y-59562500D03*
%TD*%
D12*
%TO.C,C16*%
X84500000Y-31225000D03*
X84500000Y-34175000D03*
%TD*%
D13*
%TO.C,C29*%
X29725000Y-74500000D03*
X31275000Y-74500000D03*
%TD*%
D14*
%TO.C,C19*%
X117402700Y-31271400D03*
X117402700Y-29721400D03*
%TD*%
%TO.C,C25*%
X144990600Y-53810200D03*
X144990600Y-52260200D03*
%TD*%
%TO.C,C13*%
X53920200Y-67123100D03*
X53920200Y-65573100D03*
%TD*%
%TO.C,C22*%
X84500000Y-54075000D03*
X84500000Y-52525000D03*
%TD*%
D15*
%TO.C,C31*%
X147500000Y-32975000D03*
X147500000Y-34525000D03*
%TD*%
D12*
%TO.C,C17*%
X94300000Y-31325000D03*
X94300000Y-34275000D03*
%TD*%
D16*
%TO.C,U4*%
X91635000Y-54051200D03*
X91635000Y-55321200D03*
X91635000Y-56591200D03*
X91635000Y-57861200D03*
X91635000Y-59131200D03*
X91635000Y-60401200D03*
X91635000Y-61671200D03*
X91635000Y-62941200D03*
X86685000Y-62941200D03*
X86685000Y-61671200D03*
X86685000Y-60401200D03*
X86685000Y-59131200D03*
X86685000Y-57861200D03*
X86685000Y-56591200D03*
X86685000Y-55321200D03*
X86685000Y-54051200D03*
%TD*%
D13*
%TO.C,C11*%
X65845200Y-57948100D03*
X67395200Y-57948100D03*
%TD*%
D17*
%TO.C,RN7*%
X144000000Y-56496200D03*
X144000000Y-57836200D03*
X144000000Y-59156200D03*
X144000000Y-60496200D03*
X141000000Y-60496200D03*
X141000000Y-59156200D03*
X141000000Y-57836200D03*
X141000000Y-56496200D03*
%TD*%
D18*
%TO.C,U2*%
X81005000Y-69105000D03*
X79735000Y-69105000D03*
X78465000Y-69105000D03*
X77195000Y-69105000D03*
X77195000Y-61895000D03*
X78465000Y-61895000D03*
X79735000Y-61895000D03*
X81005000Y-61895000D03*
%TD*%
D13*
%TO.C,C28*%
X29725000Y-72700000D03*
X31275000Y-72700000D03*
%TD*%
D19*
%TO.C,R2*%
X71373945Y-62277900D03*
X69723945Y-62277900D03*
%TD*%
D20*
%TO.C,R1*%
X42900000Y-41000000D03*
X42900000Y-39350000D03*
%TD*%
D17*
%TO.C,RN6*%
X135920000Y-60496200D03*
X135920000Y-59156200D03*
X135920000Y-57836200D03*
X135920000Y-56496200D03*
X138920000Y-56496200D03*
X138920000Y-57836200D03*
X138920000Y-59156200D03*
X138920000Y-60496200D03*
%TD*%
%TO.C,RN8*%
X157950000Y-63500000D03*
X157950000Y-62160000D03*
X157950000Y-60840000D03*
X157950000Y-59500000D03*
X160950000Y-59500000D03*
X160950000Y-60840000D03*
X160950000Y-62160000D03*
X160950000Y-63500000D03*
%TD*%
D21*
%TO.C,U9*%
X36250000Y-65250000D03*
X36250000Y-64300000D03*
X36250000Y-63350000D03*
X38550000Y-63350000D03*
X38550000Y-64300000D03*
X38550000Y-65250000D03*
%TD*%
D17*
%TO.C,RN1*%
X83100000Y-55800000D03*
X83100000Y-57140000D03*
X83100000Y-58460000D03*
X83100000Y-59800000D03*
X80100000Y-59800000D03*
X80100000Y-58460000D03*
X80100000Y-57140000D03*
X80100000Y-55800000D03*
%TD*%
D13*
%TO.C,C26*%
X46275000Y-57800000D03*
X47825000Y-57800000D03*
%TD*%
%TO.C,C36*%
X40325000Y-68700000D03*
X41875000Y-68700000D03*
%TD*%
%TO.C,C35*%
X41600000Y-57700000D03*
X43150000Y-57700000D03*
%TD*%
%TO.C,C5*%
X65845200Y-56400000D03*
X67395200Y-56400000D03*
%TD*%
D20*
%TO.C,R7*%
X34100000Y-44225000D03*
X34100000Y-42575000D03*
%TD*%
D19*
%TO.C,R3*%
X71373945Y-60728500D03*
X69723945Y-60728500D03*
%TD*%
D22*
%TO.C,U11*%
X36262500Y-68750000D03*
X36262500Y-67800000D03*
X36262500Y-66850000D03*
X38537500Y-66850000D03*
X38537500Y-68750000D03*
%TD*%
D19*
%TO.C,R4*%
X52045200Y-60348100D03*
X50395200Y-60348100D03*
%TD*%
D13*
%TO.C,C12*%
X65845200Y-59648100D03*
X67395200Y-59648100D03*
%TD*%
D23*
%TO.C,R14*%
X38900000Y-55575000D03*
X38900000Y-57225000D03*
%TD*%
D13*
%TO.C,C2*%
X67387500Y-64400000D03*
X68937500Y-64400000D03*
%TD*%
D15*
%TO.C,C20*%
X41300000Y-44125000D03*
X41300000Y-45675000D03*
%TD*%
D19*
%TO.C,R10*%
X45125000Y-64150000D03*
X43475000Y-64150000D03*
%TD*%
D13*
%TO.C,C4*%
X66625000Y-62800000D03*
X68175000Y-62800000D03*
%TD*%
D17*
%TO.C,RN2*%
X95280000Y-60496200D03*
X95280000Y-59156200D03*
X95280000Y-57836200D03*
X95280000Y-56496200D03*
X98280000Y-56496200D03*
X98280000Y-57836200D03*
X98280000Y-59156200D03*
X98280000Y-60496200D03*
%TD*%
D14*
%TO.C,C1*%
X68920200Y-59123100D03*
X68920200Y-57573100D03*
%TD*%
D16*
%TO.C,U7*%
X152904400Y-54051200D03*
X152904400Y-55321200D03*
X152904400Y-56591200D03*
X152904400Y-57861200D03*
X152904400Y-59131200D03*
X152904400Y-60401200D03*
X152904400Y-61671200D03*
X152904400Y-62941200D03*
X147954400Y-62941200D03*
X147954400Y-61671200D03*
X147954400Y-60401200D03*
X147954400Y-59131200D03*
X147954400Y-57861200D03*
X147954400Y-56591200D03*
X147954400Y-55321200D03*
X147954400Y-54051200D03*
%TD*%
D24*
%TO.C,J8*%
X72700000Y-42798500D03*
X73700001Y-42798500D03*
X74699999Y-42798500D03*
X75700000Y-42798500D03*
D25*
X76999999Y-38923499D03*
X71400001Y-38923499D03*
%TD*%
D26*
%TO.C,U1*%
X59000000Y-63500000D03*
X60600000Y-63500000D03*
X59000000Y-61900000D03*
X60600000Y-61900000D03*
D27*
X62400000Y-66137500D03*
X62000000Y-66137500D03*
X61600000Y-66137500D03*
X61200000Y-66137500D03*
X60800000Y-66137500D03*
X60400000Y-66137500D03*
X60000000Y-66137500D03*
X59600000Y-66137500D03*
X59200000Y-66137500D03*
X58800000Y-66137500D03*
X58400000Y-66137500D03*
X58000000Y-66137500D03*
X57600000Y-66137500D03*
X57200000Y-66137500D03*
D28*
X56362500Y-65300000D03*
X56362500Y-64900000D03*
X56362500Y-64500000D03*
X56362500Y-64100000D03*
X56362500Y-63700000D03*
X56362500Y-63300000D03*
X56362500Y-62900000D03*
X56362500Y-62500000D03*
X56362500Y-62100000D03*
X56362500Y-61700000D03*
X56362500Y-61300000D03*
X56362500Y-60900000D03*
X56362500Y-60500000D03*
X56362500Y-60100000D03*
D27*
X57200000Y-59262500D03*
X57600000Y-59262500D03*
X58000000Y-59262500D03*
X58400000Y-59262500D03*
X58800000Y-59262500D03*
X59200000Y-59262500D03*
X59600000Y-59262500D03*
X60000000Y-59262500D03*
X60400000Y-59262500D03*
X60800000Y-59262500D03*
X61200000Y-59262500D03*
X61600000Y-59262500D03*
X62000000Y-59262500D03*
X62400000Y-59262500D03*
D28*
X63237500Y-60100000D03*
X63237500Y-60500000D03*
X63237500Y-60900000D03*
X63237500Y-61300000D03*
X63237500Y-61700000D03*
X63237500Y-62100000D03*
X63237500Y-62500000D03*
X63237500Y-62900000D03*
X63237500Y-63300000D03*
X63237500Y-63700000D03*
X63237500Y-64100000D03*
X63237500Y-64500000D03*
X63237500Y-64900000D03*
X63237500Y-65300000D03*
%TD*%
D19*
%TO.C,R6*%
X34325000Y-65300000D03*
X32675000Y-65300000D03*
%TD*%
D14*
%TO.C,C3*%
X53853200Y-61637700D03*
X53853200Y-60087700D03*
%TD*%
D29*
%TO.C,C34*%
X34275000Y-68900000D03*
X32725000Y-68900000D03*
%TD*%
D17*
%TO.C,RN11*%
X57520000Y-87435000D03*
X57520000Y-86095000D03*
X57520000Y-84775000D03*
X57520000Y-83435000D03*
X60520000Y-83435000D03*
X60520000Y-84775000D03*
X60520000Y-86095000D03*
X60520000Y-87435000D03*
%TD*%
D14*
%TO.C,C9*%
X64220200Y-56923100D03*
X64220200Y-55373100D03*
%TD*%
D17*
%TO.C,RN4*%
X115600000Y-60496200D03*
X115600000Y-59156200D03*
X115600000Y-57836200D03*
X115600000Y-56496200D03*
X118600000Y-56496200D03*
X118600000Y-57836200D03*
X118600000Y-59156200D03*
X118600000Y-60496200D03*
%TD*%
D13*
%TO.C,C27*%
X40450000Y-64200000D03*
X42000000Y-64200000D03*
%TD*%
D17*
%TO.C,RN3*%
X103360000Y-56496200D03*
X103360000Y-57836200D03*
X103360000Y-59156200D03*
X103360000Y-60496200D03*
X100360000Y-60496200D03*
X100360000Y-59156200D03*
X100360000Y-57836200D03*
X100360000Y-56496200D03*
%TD*%
D13*
%TO.C,C10*%
X62820200Y-68148100D03*
X64370200Y-68148100D03*
%TD*%
D29*
%TO.C,C38*%
X58775000Y-57500000D03*
X57225000Y-57500000D03*
%TD*%
D30*
%TO.C,U3*%
X87100000Y-30950000D03*
X89400000Y-30950000D03*
X91700000Y-30950000D03*
D31*
X89400000Y-37250000D03*
%TD*%
D32*
%TO.C,X1*%
X52120200Y-67148100D03*
X49920200Y-67148100D03*
X49920200Y-65548100D03*
X52120200Y-65548100D03*
%TD*%
D20*
%TO.C,R12*%
X42900000Y-44025000D03*
X42900000Y-42375000D03*
%TD*%
D13*
%TO.C,C39*%
X48025000Y-79300000D03*
X49575000Y-79300000D03*
%TD*%
D33*
%TO.C,U8*%
X42550000Y-61900000D03*
X41600000Y-61900000D03*
X40650000Y-61900000D03*
X40650000Y-59600000D03*
X41600000Y-59600000D03*
X42550000Y-59600000D03*
%TD*%
D16*
%TO.C,U5*%
X111955000Y-54051200D03*
X111955000Y-55321200D03*
X111955000Y-56591200D03*
X111955000Y-57861200D03*
X111955000Y-59131200D03*
X111955000Y-60401200D03*
X111955000Y-61671200D03*
X111955000Y-62941200D03*
X107005000Y-62941200D03*
X107005000Y-61671200D03*
X107005000Y-60401200D03*
X107005000Y-59131200D03*
X107005000Y-57861200D03*
X107005000Y-56591200D03*
X107005000Y-55321200D03*
X107005000Y-54051200D03*
%TD*%
D14*
%TO.C,C23*%
X103890600Y-53775000D03*
X103890600Y-52225000D03*
%TD*%
D23*
%TO.C,R5*%
X83100000Y-67475000D03*
X83100000Y-69125000D03*
%TD*%
D29*
%TO.C,C37*%
X45075000Y-65700000D03*
X43525000Y-65700000D03*
%TD*%
D19*
%TO.C,R13*%
X37225000Y-44200000D03*
X35575000Y-44200000D03*
%TD*%
D34*
%TO.C,U13*%
X53900000Y-80990000D03*
X53900000Y-82260000D03*
X53900000Y-83530000D03*
X53900000Y-84800000D03*
X53900000Y-86070000D03*
X53900000Y-87340000D03*
X53900000Y-88610000D03*
X53900000Y-89880000D03*
X48900000Y-89880000D03*
X48900000Y-88610000D03*
X48900000Y-87340000D03*
X48900000Y-86070000D03*
X48900000Y-84800000D03*
X48900000Y-83530000D03*
X48900000Y-82260000D03*
X48900000Y-80990000D03*
%TD*%
D15*
%TO.C,C30*%
X149250000Y-32975000D03*
X149250000Y-34525000D03*
%TD*%
D35*
%TO.C,R8*%
X50375000Y-63500000D03*
X52025000Y-63500000D03*
%TD*%
D29*
%TO.C,C7*%
X51986600Y-61904100D03*
X50436600Y-61904100D03*
%TD*%
%TO.C,C21*%
X37175000Y-45775000D03*
X35625000Y-45775000D03*
%TD*%
D14*
%TO.C,C18*%
X115300000Y-31275000D03*
X115300000Y-29725000D03*
%TD*%
D17*
%TO.C,RN10*%
X45280000Y-83435000D03*
X45280000Y-84775000D03*
X45280000Y-86095000D03*
X45280000Y-87435000D03*
X42280000Y-87435000D03*
X42280000Y-86095000D03*
X42280000Y-84775000D03*
X42280000Y-83435000D03*
%TD*%
D14*
%TO.C,C24*%
X125090600Y-53775000D03*
X125090600Y-52225000D03*
%TD*%
D17*
%TO.C,RN5*%
X123680000Y-56496200D03*
X123680000Y-57836200D03*
X123680000Y-59156200D03*
X123680000Y-60496200D03*
X120680000Y-60496200D03*
X120680000Y-59156200D03*
X120680000Y-57836200D03*
X120680000Y-56496200D03*
%TD*%
D15*
%TO.C,C6*%
X58800000Y-67725000D03*
X58800000Y-69275000D03*
%TD*%
D14*
%TO.C,C14*%
X48100000Y-67123100D03*
X48100000Y-65573100D03*
%TD*%
D15*
%TO.C,C15*%
X83100000Y-61925000D03*
X83100000Y-63475000D03*
%TD*%
D16*
%TO.C,U6*%
X132275000Y-54051200D03*
X132275000Y-55321200D03*
X132275000Y-56591200D03*
X132275000Y-57861200D03*
X132275000Y-59131200D03*
X132275000Y-60401200D03*
X132275000Y-61671200D03*
X132275000Y-62941200D03*
X127325000Y-62941200D03*
X127325000Y-61671200D03*
X127325000Y-60401200D03*
X127325000Y-59131200D03*
X127325000Y-57861200D03*
X127325000Y-56591200D03*
X127325000Y-55321200D03*
X127325000Y-54051200D03*
%TD*%
D14*
%TO.C,C8*%
X62620200Y-56923100D03*
X62620200Y-55373100D03*
%TD*%
D19*
%TO.C,R9*%
X34325000Y-67200000D03*
X32675000Y-67200000D03*
%TD*%
D36*
%TO.C,R11*%
X68387500Y-118100000D03*
X70212500Y-118100000D03*
%TD*%
M02*
