%TF.GenerationSoftware,KiCad,Pcbnew,8.0.4*%
%TF.CreationDate,2024-10-18T15:07:03-05:00*%
%TF.ProjectId,numlocked_shift,6e756d6c-6f63-46b6-9564-5f7368696674,rev?*%
%TF.SameCoordinates,Original*%
%TF.FileFunction,Legend,Bot*%
%TF.FilePolarity,Positive*%
%FSLAX46Y46*%
G04 Gerber Fmt 4.6, Leading zero omitted, Abs format (unit mm)*
G04 Created by KiCad (PCBNEW 8.0.4) date 2024-10-18 15:07:03*
%MOMM*%
%LPD*%
G01*
G04 APERTURE LIST*
G04 Aperture macros list*
%AMRoundRect*
0 Rectangle with rounded corners*
0 $1 Rounding radius*
0 $2 $3 $4 $5 $6 $7 $8 $9 X,Y pos of 4 corners*
0 Add a 4 corners polygon primitive as box body*
4,1,4,$2,$3,$4,$5,$6,$7,$8,$9,$2,$3,0*
0 Add four circle primitives for the rounded corners*
1,1,$1+$1,$2,$3*
1,1,$1+$1,$4,$5*
1,1,$1+$1,$6,$7*
1,1,$1+$1,$8,$9*
0 Add four rect primitives between the rounded corners*
20,1,$1+$1,$2,$3,$4,$5,0*
20,1,$1+$1,$4,$5,$6,$7,0*
20,1,$1+$1,$6,$7,$8,$9,0*
20,1,$1+$1,$8,$9,$2,$3,0*%
G04 Aperture macros list end*
%ADD10C,0.300000*%
%ADD11C,0.100000*%
%ADD12C,0.150000*%
%ADD13C,0.120000*%
%ADD14C,0.127000*%
%ADD15C,0.200000*%
%ADD16C,1.700000*%
%ADD17C,3.000000*%
%ADD18C,4.000000*%
%ADD19R,2.550000X2.500000*%
%ADD20R,1.350000X1.350000*%
%ADD21O,1.350000X1.350000*%
%ADD22C,4.400000*%
%ADD23C,3.050000*%
%ADD24C,1.800000*%
%ADD25R,1.700000X1.700000*%
%ADD26O,1.700000X1.700000*%
%ADD27RoundRect,0.150000X-0.512500X-0.150000X0.512500X-0.150000X0.512500X0.150000X-0.512500X0.150000X0*%
%ADD28RoundRect,0.250000X-0.650000X0.325000X-0.650000X-0.325000X0.650000X-0.325000X0.650000X0.325000X0*%
%ADD29RoundRect,0.225000X0.225000X0.250000X-0.225000X0.250000X-0.225000X-0.250000X0.225000X-0.250000X0*%
%ADD30R,0.900000X0.900000*%
%ADD31C,1.200000*%
%ADD32R,4.350000X2.300000*%
%ADD33R,4.040000X2.300000*%
%ADD34RoundRect,0.225000X0.250000X-0.225000X0.250000X0.225000X-0.250000X0.225000X-0.250000X-0.225000X0*%
%ADD35RoundRect,0.225000X-0.250000X0.225000X-0.250000X-0.225000X0.250000X-0.225000X0.250000X0.225000X0*%
%ADD36RoundRect,0.100500X0.986500X0.301500X-0.986500X0.301500X-0.986500X-0.301500X0.986500X-0.301500X0*%
%ADD37RoundRect,0.098000X0.809000X0.294000X-0.809000X0.294000X-0.809000X-0.294000X0.809000X-0.294000X0*%
%ADD38RoundRect,0.200000X-0.200000X-0.275000X0.200000X-0.275000X0.200000X0.275000X-0.200000X0.275000X0*%
%ADD39RoundRect,0.150000X0.650000X0.150000X-0.650000X0.150000X-0.650000X-0.150000X0.650000X-0.150000X0*%
%ADD40RoundRect,0.225000X-0.225000X-0.250000X0.225000X-0.250000X0.225000X0.250000X-0.225000X0.250000X0*%
%ADD41RoundRect,0.200000X0.200000X0.275000X-0.200000X0.275000X-0.200000X-0.275000X0.200000X-0.275000X0*%
%ADD42RoundRect,0.075000X0.075000X0.325000X-0.075000X0.325000X-0.075000X-0.325000X0.075000X-0.325000X0*%
%ADD43RoundRect,0.100000X0.100000X0.300000X-0.100000X0.300000X-0.100000X-0.300000X0.100000X-0.300000X0*%
%ADD44RoundRect,0.050000X-0.050000X0.387500X-0.050000X-0.387500X0.050000X-0.387500X0.050000X0.387500X0*%
%ADD45RoundRect,0.050000X-0.387500X0.050000X-0.387500X-0.050000X0.387500X-0.050000X0.387500X0.050000X0*%
%ADD46R,3.200000X3.200000*%
%ADD47RoundRect,0.200000X-0.275000X0.200000X-0.275000X-0.200000X0.275000X-0.200000X0.275000X0.200000X0*%
%ADD48RoundRect,0.375000X-0.375000X0.625000X-0.375000X-0.625000X0.375000X-0.625000X0.375000X0.625000X0*%
%ADD49RoundRect,0.500000X-1.400000X0.500000X-1.400000X-0.500000X1.400000X-0.500000X1.400000X0.500000X0*%
%ADD50R,1.400000X1.200000*%
%ADD51RoundRect,0.150000X-0.825000X-0.150000X0.825000X-0.150000X0.825000X0.150000X-0.825000X0.150000X0*%
%ADD52RoundRect,0.150000X0.850000X0.150000X-0.850000X0.150000X-0.850000X-0.150000X0.850000X-0.150000X0*%
G04 APERTURE END LIST*
D10*
X96226441Y-163239638D02*
X96226441Y-161239638D01*
X96226441Y-161239638D02*
X95750251Y-161239638D01*
X95750251Y-161239638D02*
X95464536Y-161334876D01*
X95464536Y-161334876D02*
X95274060Y-161525352D01*
X95274060Y-161525352D02*
X95178822Y-161715828D01*
X95178822Y-161715828D02*
X95083584Y-162096780D01*
X95083584Y-162096780D02*
X95083584Y-162382495D01*
X95083584Y-162382495D02*
X95178822Y-162763447D01*
X95178822Y-162763447D02*
X95274060Y-162953923D01*
X95274060Y-162953923D02*
X95464536Y-163144400D01*
X95464536Y-163144400D02*
X95750251Y-163239638D01*
X95750251Y-163239638D02*
X96226441Y-163239638D01*
X93464536Y-163144400D02*
X93655012Y-163239638D01*
X93655012Y-163239638D02*
X94035965Y-163239638D01*
X94035965Y-163239638D02*
X94226441Y-163144400D01*
X94226441Y-163144400D02*
X94321679Y-162953923D01*
X94321679Y-162953923D02*
X94321679Y-162192019D01*
X94321679Y-162192019D02*
X94226441Y-162001542D01*
X94226441Y-162001542D02*
X94035965Y-161906304D01*
X94035965Y-161906304D02*
X93655012Y-161906304D01*
X93655012Y-161906304D02*
X93464536Y-162001542D01*
X93464536Y-162001542D02*
X93369298Y-162192019D01*
X93369298Y-162192019D02*
X93369298Y-162382495D01*
X93369298Y-162382495D02*
X94321679Y-162572971D01*
X92607393Y-163144400D02*
X92416917Y-163239638D01*
X92416917Y-163239638D02*
X92035965Y-163239638D01*
X92035965Y-163239638D02*
X91845488Y-163144400D01*
X91845488Y-163144400D02*
X91750250Y-162953923D01*
X91750250Y-162953923D02*
X91750250Y-162858685D01*
X91750250Y-162858685D02*
X91845488Y-162668209D01*
X91845488Y-162668209D02*
X92035965Y-162572971D01*
X92035965Y-162572971D02*
X92321679Y-162572971D01*
X92321679Y-162572971D02*
X92512155Y-162477733D01*
X92512155Y-162477733D02*
X92607393Y-162287257D01*
X92607393Y-162287257D02*
X92607393Y-162192019D01*
X92607393Y-162192019D02*
X92512155Y-162001542D01*
X92512155Y-162001542D02*
X92321679Y-161906304D01*
X92321679Y-161906304D02*
X92035965Y-161906304D01*
X92035965Y-161906304D02*
X91845488Y-162001542D01*
X90893107Y-163239638D02*
X90893107Y-161906304D01*
X90893107Y-161239638D02*
X90988345Y-161334876D01*
X90988345Y-161334876D02*
X90893107Y-161430114D01*
X90893107Y-161430114D02*
X90797869Y-161334876D01*
X90797869Y-161334876D02*
X90893107Y-161239638D01*
X90893107Y-161239638D02*
X90893107Y-161430114D01*
X89083583Y-161906304D02*
X89083583Y-163525352D01*
X89083583Y-163525352D02*
X89178821Y-163715828D01*
X89178821Y-163715828D02*
X89274059Y-163811066D01*
X89274059Y-163811066D02*
X89464536Y-163906304D01*
X89464536Y-163906304D02*
X89750250Y-163906304D01*
X89750250Y-163906304D02*
X89940726Y-163811066D01*
X89083583Y-163144400D02*
X89274059Y-163239638D01*
X89274059Y-163239638D02*
X89655012Y-163239638D01*
X89655012Y-163239638D02*
X89845488Y-163144400D01*
X89845488Y-163144400D02*
X89940726Y-163049161D01*
X89940726Y-163049161D02*
X90035964Y-162858685D01*
X90035964Y-162858685D02*
X90035964Y-162287257D01*
X90035964Y-162287257D02*
X89940726Y-162096780D01*
X89940726Y-162096780D02*
X89845488Y-162001542D01*
X89845488Y-162001542D02*
X89655012Y-161906304D01*
X89655012Y-161906304D02*
X89274059Y-161906304D01*
X89274059Y-161906304D02*
X89083583Y-162001542D01*
X88131202Y-161906304D02*
X88131202Y-163239638D01*
X88131202Y-162096780D02*
X88035964Y-162001542D01*
X88035964Y-162001542D02*
X87845488Y-161906304D01*
X87845488Y-161906304D02*
X87559773Y-161906304D01*
X87559773Y-161906304D02*
X87369297Y-162001542D01*
X87369297Y-162001542D02*
X87274059Y-162192019D01*
X87274059Y-162192019D02*
X87274059Y-163239638D01*
X85559773Y-163144400D02*
X85750249Y-163239638D01*
X85750249Y-163239638D02*
X86131202Y-163239638D01*
X86131202Y-163239638D02*
X86321678Y-163144400D01*
X86321678Y-163144400D02*
X86416916Y-162953923D01*
X86416916Y-162953923D02*
X86416916Y-162192019D01*
X86416916Y-162192019D02*
X86321678Y-162001542D01*
X86321678Y-162001542D02*
X86131202Y-161906304D01*
X86131202Y-161906304D02*
X85750249Y-161906304D01*
X85750249Y-161906304D02*
X85559773Y-162001542D01*
X85559773Y-162001542D02*
X85464535Y-162192019D01*
X85464535Y-162192019D02*
X85464535Y-162382495D01*
X85464535Y-162382495D02*
X86416916Y-162572971D01*
X83750249Y-163239638D02*
X83750249Y-161239638D01*
X83750249Y-163144400D02*
X83940725Y-163239638D01*
X83940725Y-163239638D02*
X84321678Y-163239638D01*
X84321678Y-163239638D02*
X84512154Y-163144400D01*
X84512154Y-163144400D02*
X84607392Y-163049161D01*
X84607392Y-163049161D02*
X84702630Y-162858685D01*
X84702630Y-162858685D02*
X84702630Y-162287257D01*
X84702630Y-162287257D02*
X84607392Y-162096780D01*
X84607392Y-162096780D02*
X84512154Y-162001542D01*
X84512154Y-162001542D02*
X84321678Y-161906304D01*
X84321678Y-161906304D02*
X83940725Y-161906304D01*
X83940725Y-161906304D02*
X83750249Y-162001542D01*
X81274058Y-163239638D02*
X81274058Y-161239638D01*
X81274058Y-162001542D02*
X81083582Y-161906304D01*
X81083582Y-161906304D02*
X80702629Y-161906304D01*
X80702629Y-161906304D02*
X80512153Y-162001542D01*
X80512153Y-162001542D02*
X80416915Y-162096780D01*
X80416915Y-162096780D02*
X80321677Y-162287257D01*
X80321677Y-162287257D02*
X80321677Y-162858685D01*
X80321677Y-162858685D02*
X80416915Y-163049161D01*
X80416915Y-163049161D02*
X80512153Y-163144400D01*
X80512153Y-163144400D02*
X80702629Y-163239638D01*
X80702629Y-163239638D02*
X81083582Y-163239638D01*
X81083582Y-163239638D02*
X81274058Y-163144400D01*
X79655010Y-161906304D02*
X79178820Y-163239638D01*
X78702629Y-161906304D02*
X79178820Y-163239638D01*
X79178820Y-163239638D02*
X79369296Y-163715828D01*
X79369296Y-163715828D02*
X79464534Y-163811066D01*
X79464534Y-163811066D02*
X79655010Y-163906304D01*
X76035962Y-162287257D02*
X76035962Y-163239638D01*
X76702628Y-161239638D02*
X76035962Y-162287257D01*
X76035962Y-162287257D02*
X75369295Y-161239638D01*
X73845485Y-161906304D02*
X73845485Y-163239638D01*
X74702628Y-161906304D02*
X74702628Y-162953923D01*
X74702628Y-162953923D02*
X74607390Y-163144400D01*
X74607390Y-163144400D02*
X74416914Y-163239638D01*
X74416914Y-163239638D02*
X74131199Y-163239638D01*
X74131199Y-163239638D02*
X73940723Y-163144400D01*
X73940723Y-163144400D02*
X73845485Y-163049161D01*
X72893104Y-163239638D02*
X72893104Y-161239638D01*
X72035961Y-163239638D02*
X72035961Y-162192019D01*
X72035961Y-162192019D02*
X72131199Y-162001542D01*
X72131199Y-162001542D02*
X72321675Y-161906304D01*
X72321675Y-161906304D02*
X72607390Y-161906304D01*
X72607390Y-161906304D02*
X72797866Y-162001542D01*
X72797866Y-162001542D02*
X72893104Y-162096780D01*
X71083580Y-163239638D02*
X71083580Y-161239638D01*
X69940723Y-163239638D02*
X70797866Y-162096780D01*
X69940723Y-161239638D02*
X71083580Y-162382495D01*
X68226437Y-161906304D02*
X68226437Y-163239638D01*
X69083580Y-161906304D02*
X69083580Y-162953923D01*
X69083580Y-162953923D02*
X68988342Y-163144400D01*
X68988342Y-163144400D02*
X68797866Y-163239638D01*
X68797866Y-163239638D02*
X68512151Y-163239638D01*
X68512151Y-163239638D02*
X68321675Y-163144400D01*
X68321675Y-163144400D02*
X68226437Y-163049161D01*
X67274056Y-163239638D02*
X67274056Y-161906304D01*
X67274056Y-162287257D02*
X67178818Y-162096780D01*
X67178818Y-162096780D02*
X67083580Y-162001542D01*
X67083580Y-162001542D02*
X66893104Y-161906304D01*
X66893104Y-161906304D02*
X66702627Y-161906304D01*
X65750247Y-163239638D02*
X65940723Y-163144400D01*
X65940723Y-163144400D02*
X66035961Y-163049161D01*
X66035961Y-163049161D02*
X66131199Y-162858685D01*
X66131199Y-162858685D02*
X66131199Y-162287257D01*
X66131199Y-162287257D02*
X66035961Y-162096780D01*
X66035961Y-162096780D02*
X65940723Y-162001542D01*
X65940723Y-162001542D02*
X65750247Y-161906304D01*
X65750247Y-161906304D02*
X65464532Y-161906304D01*
X65464532Y-161906304D02*
X65274056Y-162001542D01*
X65274056Y-162001542D02*
X65178818Y-162096780D01*
X65178818Y-162096780D02*
X65083580Y-162287257D01*
X65083580Y-162287257D02*
X65083580Y-162858685D01*
X65083580Y-162858685D02*
X65178818Y-163049161D01*
X65178818Y-163049161D02*
X65274056Y-163144400D01*
X65274056Y-163144400D02*
X65464532Y-163239638D01*
X65464532Y-163239638D02*
X65750247Y-163239638D01*
X50893100Y-163239638D02*
X51559767Y-162287257D01*
X52035957Y-163239638D02*
X52035957Y-161239638D01*
X52035957Y-161239638D02*
X51274052Y-161239638D01*
X51274052Y-161239638D02*
X51083576Y-161334876D01*
X51083576Y-161334876D02*
X50988338Y-161430114D01*
X50988338Y-161430114D02*
X50893100Y-161620590D01*
X50893100Y-161620590D02*
X50893100Y-161906304D01*
X50893100Y-161906304D02*
X50988338Y-162096780D01*
X50988338Y-162096780D02*
X51083576Y-162192019D01*
X51083576Y-162192019D02*
X51274052Y-162287257D01*
X51274052Y-162287257D02*
X52035957Y-162287257D01*
X49274052Y-163144400D02*
X49464528Y-163239638D01*
X49464528Y-163239638D02*
X49845481Y-163239638D01*
X49845481Y-163239638D02*
X50035957Y-163144400D01*
X50035957Y-163144400D02*
X50131195Y-162953923D01*
X50131195Y-162953923D02*
X50131195Y-162192019D01*
X50131195Y-162192019D02*
X50035957Y-162001542D01*
X50035957Y-162001542D02*
X49845481Y-161906304D01*
X49845481Y-161906304D02*
X49464528Y-161906304D01*
X49464528Y-161906304D02*
X49274052Y-162001542D01*
X49274052Y-162001542D02*
X49178814Y-162192019D01*
X49178814Y-162192019D02*
X49178814Y-162382495D01*
X49178814Y-162382495D02*
X50131195Y-162572971D01*
X48512147Y-161906304D02*
X48035957Y-163239638D01*
X48035957Y-163239638D02*
X47559766Y-161906304D01*
X46797861Y-163239638D02*
X46797861Y-161906304D01*
X46797861Y-161239638D02*
X46893099Y-161334876D01*
X46893099Y-161334876D02*
X46797861Y-161430114D01*
X46797861Y-161430114D02*
X46702623Y-161334876D01*
X46702623Y-161334876D02*
X46797861Y-161239638D01*
X46797861Y-161239638D02*
X46797861Y-161430114D01*
X45940718Y-163144400D02*
X45750242Y-163239638D01*
X45750242Y-163239638D02*
X45369290Y-163239638D01*
X45369290Y-163239638D02*
X45178813Y-163144400D01*
X45178813Y-163144400D02*
X45083575Y-162953923D01*
X45083575Y-162953923D02*
X45083575Y-162858685D01*
X45083575Y-162858685D02*
X45178813Y-162668209D01*
X45178813Y-162668209D02*
X45369290Y-162572971D01*
X45369290Y-162572971D02*
X45655004Y-162572971D01*
X45655004Y-162572971D02*
X45845480Y-162477733D01*
X45845480Y-162477733D02*
X45940718Y-162287257D01*
X45940718Y-162287257D02*
X45940718Y-162192019D01*
X45940718Y-162192019D02*
X45845480Y-162001542D01*
X45845480Y-162001542D02*
X45655004Y-161906304D01*
X45655004Y-161906304D02*
X45369290Y-161906304D01*
X45369290Y-161906304D02*
X45178813Y-162001542D01*
X44226432Y-163239638D02*
X44226432Y-161906304D01*
X44226432Y-161239638D02*
X44321670Y-161334876D01*
X44321670Y-161334876D02*
X44226432Y-161430114D01*
X44226432Y-161430114D02*
X44131194Y-161334876D01*
X44131194Y-161334876D02*
X44226432Y-161239638D01*
X44226432Y-161239638D02*
X44226432Y-161430114D01*
X42988337Y-163239638D02*
X43178813Y-163144400D01*
X43178813Y-163144400D02*
X43274051Y-163049161D01*
X43274051Y-163049161D02*
X43369289Y-162858685D01*
X43369289Y-162858685D02*
X43369289Y-162287257D01*
X43369289Y-162287257D02*
X43274051Y-162096780D01*
X43274051Y-162096780D02*
X43178813Y-162001542D01*
X43178813Y-162001542D02*
X42988337Y-161906304D01*
X42988337Y-161906304D02*
X42702622Y-161906304D01*
X42702622Y-161906304D02*
X42512146Y-162001542D01*
X42512146Y-162001542D02*
X42416908Y-162096780D01*
X42416908Y-162096780D02*
X42321670Y-162287257D01*
X42321670Y-162287257D02*
X42321670Y-162858685D01*
X42321670Y-162858685D02*
X42416908Y-163049161D01*
X42416908Y-163049161D02*
X42512146Y-163144400D01*
X42512146Y-163144400D02*
X42702622Y-163239638D01*
X42702622Y-163239638D02*
X42988337Y-163239638D01*
X41464527Y-161906304D02*
X41464527Y-163239638D01*
X41464527Y-162096780D02*
X41369289Y-162001542D01*
X41369289Y-162001542D02*
X41178813Y-161906304D01*
X41178813Y-161906304D02*
X40893098Y-161906304D01*
X40893098Y-161906304D02*
X40702622Y-162001542D01*
X40702622Y-162001542D02*
X40607384Y-162192019D01*
X40607384Y-162192019D02*
X40607384Y-163239638D01*
X36702621Y-162668209D02*
X35750240Y-162668209D01*
X36893097Y-163239638D02*
X36226431Y-161239638D01*
X36226431Y-161239638D02*
X35559764Y-163239638D01*
D11*
X223396115Y-150391466D02*
X222634211Y-150391466D01*
X214396115Y-154891466D02*
X213634211Y-154891466D01*
X214015163Y-155272419D02*
X214015163Y-154510514D01*
D12*
X51935104Y-51654819D02*
X51935104Y-52464342D01*
X51935104Y-52464342D02*
X51887485Y-52559580D01*
X51887485Y-52559580D02*
X51839866Y-52607200D01*
X51839866Y-52607200D02*
X51744628Y-52654819D01*
X51744628Y-52654819D02*
X51554152Y-52654819D01*
X51554152Y-52654819D02*
X51458914Y-52607200D01*
X51458914Y-52607200D02*
X51411295Y-52559580D01*
X51411295Y-52559580D02*
X51363676Y-52464342D01*
X51363676Y-52464342D02*
X51363676Y-51654819D01*
X50839866Y-52654819D02*
X50649390Y-52654819D01*
X50649390Y-52654819D02*
X50554152Y-52607200D01*
X50554152Y-52607200D02*
X50506533Y-52559580D01*
X50506533Y-52559580D02*
X50411295Y-52416723D01*
X50411295Y-52416723D02*
X50363676Y-52226247D01*
X50363676Y-52226247D02*
X50363676Y-51845295D01*
X50363676Y-51845295D02*
X50411295Y-51750057D01*
X50411295Y-51750057D02*
X50458914Y-51702438D01*
X50458914Y-51702438D02*
X50554152Y-51654819D01*
X50554152Y-51654819D02*
X50744628Y-51654819D01*
X50744628Y-51654819D02*
X50839866Y-51702438D01*
X50839866Y-51702438D02*
X50887485Y-51750057D01*
X50887485Y-51750057D02*
X50935104Y-51845295D01*
X50935104Y-51845295D02*
X50935104Y-52083390D01*
X50935104Y-52083390D02*
X50887485Y-52178628D01*
X50887485Y-52178628D02*
X50839866Y-52226247D01*
X50839866Y-52226247D02*
X50744628Y-52273866D01*
X50744628Y-52273866D02*
X50554152Y-52273866D01*
X50554152Y-52273866D02*
X50458914Y-52226247D01*
X50458914Y-52226247D02*
X50411295Y-52178628D01*
X50411295Y-52178628D02*
X50363676Y-52083390D01*
D11*
X74298133Y-47257419D02*
X74298133Y-47971704D01*
X74298133Y-47971704D02*
X74345752Y-48114561D01*
X74345752Y-48114561D02*
X74440990Y-48209800D01*
X74440990Y-48209800D02*
X74583847Y-48257419D01*
X74583847Y-48257419D02*
X74679085Y-48257419D01*
X73679085Y-47685990D02*
X73774323Y-47638371D01*
X73774323Y-47638371D02*
X73821942Y-47590752D01*
X73821942Y-47590752D02*
X73869561Y-47495514D01*
X73869561Y-47495514D02*
X73869561Y-47447895D01*
X73869561Y-47447895D02*
X73821942Y-47352657D01*
X73821942Y-47352657D02*
X73774323Y-47305038D01*
X73774323Y-47305038D02*
X73679085Y-47257419D01*
X73679085Y-47257419D02*
X73488609Y-47257419D01*
X73488609Y-47257419D02*
X73393371Y-47305038D01*
X73393371Y-47305038D02*
X73345752Y-47352657D01*
X73345752Y-47352657D02*
X73298133Y-47447895D01*
X73298133Y-47447895D02*
X73298133Y-47495514D01*
X73298133Y-47495514D02*
X73345752Y-47590752D01*
X73345752Y-47590752D02*
X73393371Y-47638371D01*
X73393371Y-47638371D02*
X73488609Y-47685990D01*
X73488609Y-47685990D02*
X73679085Y-47685990D01*
X73679085Y-47685990D02*
X73774323Y-47733609D01*
X73774323Y-47733609D02*
X73821942Y-47781228D01*
X73821942Y-47781228D02*
X73869561Y-47876466D01*
X73869561Y-47876466D02*
X73869561Y-48066942D01*
X73869561Y-48066942D02*
X73821942Y-48162180D01*
X73821942Y-48162180D02*
X73774323Y-48209800D01*
X73774323Y-48209800D02*
X73679085Y-48257419D01*
X73679085Y-48257419D02*
X73488609Y-48257419D01*
X73488609Y-48257419D02*
X73393371Y-48209800D01*
X73393371Y-48209800D02*
X73345752Y-48162180D01*
X73345752Y-48162180D02*
X73298133Y-48066942D01*
X73298133Y-48066942D02*
X73298133Y-47876466D01*
X73298133Y-47876466D02*
X73345752Y-47781228D01*
X73345752Y-47781228D02*
X73393371Y-47733609D01*
X73393371Y-47733609D02*
X73488609Y-47685990D01*
D13*
%TO.C,U12*%
X45600000Y-60040000D02*
X46400000Y-60040000D01*
X45600000Y-63160000D02*
X46400000Y-63160000D01*
X47200000Y-60040000D02*
X46400000Y-60040000D01*
X47200000Y-63160000D02*
X46400000Y-63160000D01*
X45340000Y-63440000D02*
X44860000Y-63440000D01*
X45100000Y-63110000D01*
X45340000Y-63440000D01*
G36*
X45340000Y-63440000D02*
G01*
X44860000Y-63440000D01*
X45100000Y-63110000D01*
X45340000Y-63440000D01*
G37*
%TO.C,C16*%
X82990000Y-33111252D02*
X82990000Y-31688748D01*
X84810000Y-33111252D02*
X84810000Y-31688748D01*
%TO.C,C29*%
X30509420Y-73990000D02*
X30790580Y-73990000D01*
X30509420Y-75010000D02*
X30790580Y-75010000D01*
%TO.C,RN9*%
X195330000Y-147950000D02*
X195330000Y-150050000D01*
X200670000Y-147950000D02*
X200670000Y-150050000D01*
%TO.C,C19*%
X116892700Y-30355820D02*
X116892700Y-30636980D01*
X117912700Y-30355820D02*
X117912700Y-30636980D01*
%TO.C,C25*%
X142290000Y-52894620D02*
X142290000Y-53175780D01*
X143310000Y-52894620D02*
X143310000Y-53175780D01*
%TO.C,C13*%
X167190000Y-144540580D02*
X167190000Y-144259420D01*
X168210000Y-144540580D02*
X168210000Y-144259420D01*
%TO.C,C22*%
X80990000Y-52959420D02*
X80990000Y-53240580D01*
X82010000Y-52959420D02*
X82010000Y-53240580D01*
%TO.C,C33*%
X203172600Y-152005420D02*
X203172600Y-152286580D01*
X204192600Y-152005420D02*
X204192600Y-152286580D01*
%TO.C,C31*%
X146990000Y-33890580D02*
X146990000Y-33609420D01*
X148010000Y-33890580D02*
X148010000Y-33609420D01*
%TO.C,C17*%
X92830000Y-32821252D02*
X92830000Y-31398748D01*
X94650000Y-32821252D02*
X94650000Y-31398748D01*
D14*
%TO.C,U4*%
X85019400Y-53431200D02*
X88919400Y-53431200D01*
X85019400Y-63561200D02*
X88919400Y-63561200D01*
D15*
X91214400Y-53551200D02*
G75*
G02*
X91014400Y-53551200I-100000J0D01*
G01*
X91014400Y-53551200D02*
G75*
G02*
X91214400Y-53551200I100000J0D01*
G01*
D13*
%TO.C,C11*%
X154859420Y-152290000D02*
X155140580Y-152290000D01*
X154859420Y-153310000D02*
X155140580Y-153310000D01*
%TO.C,RN7*%
X141359400Y-55826200D02*
X139259400Y-55826200D01*
X141359400Y-61166200D02*
X139259400Y-61166200D01*
D14*
%TO.C,U2*%
X139396800Y-139752400D02*
X144676800Y-139752400D01*
X139396800Y-145032400D02*
X144676800Y-145032400D01*
D15*
X147351800Y-140487400D02*
G75*
G02*
X147151800Y-140487400I-100000J0D01*
G01*
X147151800Y-140487400D02*
G75*
G02*
X147351800Y-140487400I100000J0D01*
G01*
D13*
%TO.C,C28*%
X30509420Y-72490000D02*
X30790580Y-72490000D01*
X30509420Y-73510000D02*
X30790580Y-73510000D01*
%TO.C,R2*%
X149944858Y-148600900D02*
X149470342Y-148600900D01*
X149944858Y-149645900D02*
X149470342Y-149645900D01*
%TO.C,RN6*%
X134179400Y-55826200D02*
X136279400Y-55826200D01*
X134179400Y-61166200D02*
X136279400Y-61166200D01*
%TO.C,RN8*%
X153712200Y-55851600D02*
X155812200Y-55851600D01*
X153712200Y-61191600D02*
X155812200Y-61191600D01*
%TO.C,U9*%
X50398200Y-53040000D02*
X51173200Y-53040000D01*
X50398200Y-56160000D02*
X51173200Y-56160000D01*
X51948200Y-53040000D02*
X51173200Y-53040000D01*
X51948200Y-56160000D02*
X51173200Y-56160000D01*
X52535700Y-53090000D02*
X52295700Y-52760000D01*
X52775700Y-52760000D01*
X52535700Y-53090000D01*
G36*
X52535700Y-53090000D02*
G01*
X52295700Y-52760000D01*
X52775700Y-52760000D01*
X52535700Y-53090000D01*
G37*
%TO.C,RN1*%
X80399400Y-55826200D02*
X78299400Y-55826200D01*
X80399400Y-61166200D02*
X78299400Y-61166200D01*
%TO.C,C26*%
X50540580Y-62090000D02*
X50259420Y-62090000D01*
X50540580Y-63110000D02*
X50259420Y-63110000D01*
%TO.C,C36*%
X47159420Y-53590000D02*
X47440580Y-53590000D01*
X47159420Y-54610000D02*
X47440580Y-54610000D01*
%TO.C,C35*%
X50540580Y-60240000D02*
X50259420Y-60240000D01*
X50540580Y-61260000D02*
X50259420Y-61260000D01*
%TO.C,C5*%
X154859420Y-153890000D02*
X155140580Y-153890000D01*
X154859420Y-154910000D02*
X155140580Y-154910000D01*
%TO.C,R3*%
X149944858Y-150150300D02*
X149470342Y-150150300D01*
X149944858Y-151195300D02*
X149470342Y-151195300D01*
%TO.C,U11*%
X45900000Y-49940000D02*
X46700000Y-49940000D01*
X45900000Y-53060000D02*
X46700000Y-53060000D01*
X47500000Y-49940000D02*
X46700000Y-49940000D01*
X47500000Y-53060000D02*
X46700000Y-53060000D01*
X45640000Y-53340000D02*
X45160000Y-53340000D01*
X45400000Y-53010000D01*
X45640000Y-53340000D01*
G36*
X45640000Y-53340000D02*
G01*
X45160000Y-53340000D01*
X45400000Y-53010000D01*
X45640000Y-53340000D01*
G37*
%TO.C,R4*%
X170637258Y-149877500D02*
X170162742Y-149877500D01*
X170637258Y-150922500D02*
X170162742Y-150922500D01*
%TO.C,C12*%
X154859420Y-150590000D02*
X155140580Y-150590000D01*
X154859420Y-151610000D02*
X155140580Y-151610000D01*
%TO.C,C2*%
X153529420Y-146454400D02*
X153810580Y-146454400D01*
X153529420Y-147474400D02*
X153810580Y-147474400D01*
%TO.C,C32*%
X192040000Y-155440580D02*
X192040000Y-155159420D01*
X193060000Y-155440580D02*
X193060000Y-155159420D01*
%TO.C,R10*%
X42512742Y-60227500D02*
X42987258Y-60227500D01*
X42512742Y-61272500D02*
X42987258Y-61272500D01*
%TO.C,C4*%
X153529420Y-148105400D02*
X153810580Y-148105400D01*
X153529420Y-149125400D02*
X153810580Y-149125400D01*
%TO.C,RN2*%
X93539400Y-55826200D02*
X95639400Y-55826200D01*
X93539400Y-61166200D02*
X95639400Y-61166200D01*
%TO.C,C1*%
X152190000Y-152540580D02*
X152190000Y-152259420D01*
X153210000Y-152540580D02*
X153210000Y-152259420D01*
D14*
%TO.C,U7*%
X145979400Y-53431200D02*
X149879400Y-53431200D01*
X145979400Y-63561200D02*
X149879400Y-63561200D01*
D15*
X152174400Y-53551200D02*
G75*
G02*
X151974400Y-53551200I-100000J0D01*
G01*
X151974400Y-53551200D02*
G75*
G02*
X152174400Y-53551200I100000J0D01*
G01*
D13*
%TO.C,U1*%
X158210200Y-144738100D02*
X158210200Y-145088100D01*
X158210200Y-151658100D02*
X158210200Y-151008100D01*
X158450200Y-144438100D02*
X158860200Y-144438100D01*
X158860200Y-151658100D02*
X158210200Y-151658100D01*
X164780200Y-144438100D02*
X165430200Y-144438100D01*
X164780200Y-151658100D02*
X165430200Y-151658100D01*
X165430200Y-144438100D02*
X165430200Y-145088100D01*
X165430200Y-151658100D02*
X165430200Y-151008100D01*
X158210200Y-144438100D02*
X157880200Y-144678100D01*
X157880200Y-144198100D01*
X158210200Y-144438100D01*
G36*
X158210200Y-144438100D02*
G01*
X157880200Y-144678100D01*
X157880200Y-144198100D01*
X158210200Y-144438100D01*
G37*
%TO.C,R6*%
X55377500Y-55937258D02*
X55377500Y-55462742D01*
X56422500Y-55937258D02*
X56422500Y-55462742D01*
%TO.C,C3*%
X167257000Y-150025980D02*
X167257000Y-149744820D01*
X168277000Y-150025980D02*
X168277000Y-149744820D01*
%TO.C,C34*%
X42609420Y-52890000D02*
X42890580Y-52890000D01*
X42609420Y-53910000D02*
X42890580Y-53910000D01*
%TO.C,RN11*%
X73219400Y-55826200D02*
X75319400Y-55826200D01*
X73219400Y-61166200D02*
X75319400Y-61166200D01*
%TO.C,C9*%
X156954200Y-154340580D02*
X156954200Y-154059420D01*
X157974200Y-154340580D02*
X157974200Y-154059420D01*
%TO.C,RN4*%
X113859400Y-55826200D02*
X115959400Y-55826200D01*
X113859400Y-61166200D02*
X115959400Y-61166200D01*
%TO.C,C27*%
X47159420Y-55190000D02*
X47440580Y-55190000D01*
X47159420Y-56210000D02*
X47440580Y-56210000D01*
%TO.C,RN3*%
X100719400Y-55826200D02*
X98619400Y-55826200D01*
X100719400Y-61166200D02*
X98619400Y-61166200D01*
%TO.C,C10*%
X157884420Y-142090000D02*
X158165580Y-142090000D01*
X157884420Y-143110000D02*
X158165580Y-143110000D01*
%TO.C,C38*%
X162290000Y-154540580D02*
X162290000Y-154259420D01*
X163310000Y-154540580D02*
X163310000Y-154259420D01*
%TO.C,U3*%
X85390000Y-35710000D02*
X85390000Y-31950000D01*
X86650000Y-35710000D02*
X85390000Y-35710000D01*
X90950000Y-35710000D02*
X92210000Y-35710000D01*
X92210000Y-35710000D02*
X92210000Y-31950000D01*
X85490000Y-30670000D02*
X85160000Y-30910000D01*
X85160000Y-30430000D01*
X85490000Y-30670000D01*
G36*
X85490000Y-30670000D02*
G01*
X85160000Y-30910000D01*
X85160000Y-30430000D01*
X85490000Y-30670000D01*
G37*
%TO.C,X1*%
X168600000Y-142750000D02*
X168600000Y-146050000D01*
X172600000Y-142750000D02*
X168600000Y-142750000D01*
%TO.C,C39*%
X61540000Y-54890580D02*
X61540000Y-54609420D01*
X62560000Y-54890580D02*
X62560000Y-54609420D01*
%TO.C,U10*%
X196043000Y-151440000D02*
X197993000Y-151440000D01*
X196043000Y-156560000D02*
X197993000Y-156560000D01*
X199943000Y-151440000D02*
X197993000Y-151440000D01*
X199943000Y-156560000D02*
X197993000Y-156560000D01*
X195533000Y-156795000D02*
X195053000Y-156795000D01*
X195293000Y-156465000D01*
X195533000Y-156795000D01*
G36*
X195533000Y-156795000D02*
G01*
X195053000Y-156795000D01*
X195293000Y-156465000D01*
X195533000Y-156795000D01*
G37*
%TO.C,U8*%
X50398200Y-56646000D02*
X51173200Y-56646000D01*
X50398200Y-59766000D02*
X51173200Y-59766000D01*
X51948200Y-56646000D02*
X51173200Y-56646000D01*
X51948200Y-59766000D02*
X51173200Y-59766000D01*
X52535700Y-56696000D02*
X52295700Y-56366000D01*
X52775700Y-56366000D01*
X52535700Y-56696000D01*
G36*
X52535700Y-56696000D02*
G01*
X52295700Y-56366000D01*
X52775700Y-56366000D01*
X52535700Y-56696000D01*
G37*
D14*
%TO.C,U5*%
X105339400Y-53431200D02*
X109239400Y-53431200D01*
X105339400Y-63561200D02*
X109239400Y-63561200D01*
D15*
X111534400Y-53551200D02*
G75*
G02*
X111334400Y-53551200I-100000J0D01*
G01*
X111334400Y-53551200D02*
G75*
G02*
X111534400Y-53551200I100000J0D01*
G01*
D13*
%TO.C,C23*%
X101190000Y-52859420D02*
X101190000Y-53140580D01*
X102210000Y-52859420D02*
X102210000Y-53140580D01*
%TO.C,R5*%
X150591700Y-142227358D02*
X150591700Y-141752842D01*
X151636700Y-142227358D02*
X151636700Y-141752842D01*
%TO.C,C37*%
X42609420Y-58740000D02*
X42890580Y-58740000D01*
X42609420Y-59760000D02*
X42890580Y-59760000D01*
%TO.C,U13*%
X64699400Y-53436200D02*
X66649400Y-53436200D01*
X64699400Y-63556200D02*
X66649400Y-63556200D01*
X68599400Y-53436200D02*
X66649400Y-53436200D01*
X68599400Y-63556200D02*
X66649400Y-63556200D01*
X69374400Y-53491200D02*
X69134400Y-53161200D01*
X69614400Y-53161200D01*
X69374400Y-53491200D01*
G36*
X69374400Y-53491200D02*
G01*
X69134400Y-53161200D01*
X69614400Y-53161200D01*
X69374400Y-53491200D01*
G37*
%TO.C,C30*%
X148740000Y-33890580D02*
X148740000Y-33609420D01*
X149760000Y-33890580D02*
X149760000Y-33609420D01*
%TO.C,C7*%
X170549180Y-148334000D02*
X170268020Y-148334000D01*
X170549180Y-149354000D02*
X170268020Y-149354000D01*
%TO.C,C18*%
X114790000Y-30359420D02*
X114790000Y-30640580D01*
X115810000Y-30359420D02*
X115810000Y-30640580D01*
%TO.C,RN10*%
X60079400Y-55826200D02*
X57979400Y-55826200D01*
X60079400Y-61166200D02*
X57979400Y-61166200D01*
%TO.C,C24*%
X122390000Y-52859420D02*
X122390000Y-53140580D01*
X123410000Y-52859420D02*
X123410000Y-53140580D01*
%TO.C,RN5*%
X121039400Y-55826200D02*
X118939400Y-55826200D01*
X121039400Y-61166200D02*
X118939400Y-61166200D01*
%TO.C,C6*%
X164090580Y-142190000D02*
X163809420Y-142190000D01*
X164090580Y-143210000D02*
X163809420Y-143210000D01*
%TO.C,C14*%
X170540580Y-146390000D02*
X170259420Y-146390000D01*
X170540580Y-147410000D02*
X170259420Y-147410000D01*
%TO.C,C15*%
X139340580Y-137990000D02*
X139059420Y-137990000D01*
X139340580Y-139010000D02*
X139059420Y-139010000D01*
D14*
%TO.C,U6*%
X125659400Y-53431200D02*
X129559400Y-53431200D01*
X125659400Y-63561200D02*
X129559400Y-63561200D01*
D15*
X131854400Y-53551200D02*
G75*
G02*
X131654400Y-53551200I-100000J0D01*
G01*
X131654400Y-53551200D02*
G75*
G02*
X131854400Y-53551200I100000J0D01*
G01*
D13*
%TO.C,C8*%
X158590000Y-154340580D02*
X158590000Y-154059420D01*
X159610000Y-154340580D02*
X159610000Y-154059420D01*
%TO.C,R8*%
X175277500Y-149537258D02*
X175277500Y-149062742D01*
X176322500Y-149537258D02*
X176322500Y-149062742D01*
%TO.C,R9*%
X42512742Y-54477500D02*
X42987258Y-54477500D01*
X42512742Y-55522500D02*
X42987258Y-55522500D01*
%TO.C,R11*%
X69537258Y-116677500D02*
X69062742Y-116677500D01*
X69537258Y-117722500D02*
X69062742Y-117722500D01*
%TD*%
%LPC*%
D16*
%TO.C,S32*%
X152349200Y-72491600D03*
D17*
X153619200Y-69951600D03*
D18*
X157429200Y-72491600D03*
D17*
X159969200Y-67411600D03*
D16*
X162509200Y-72491600D03*
D19*
X150019200Y-69951600D03*
X163444200Y-67411600D03*
%TD*%
D20*
%TO.C,J2*%
X131362200Y-36915600D03*
D21*
X131362200Y-34915600D03*
%TD*%
D16*
%TO.C,S38*%
X33286700Y-148691600D03*
D17*
X34556700Y-146151600D03*
D18*
X38366700Y-148691600D03*
D17*
X40906700Y-143611600D03*
D16*
X43446700Y-148691600D03*
D19*
X30956700Y-146151600D03*
X44381700Y-143611600D03*
%TD*%
D16*
%TO.C,S36*%
X33286700Y-91541600D03*
D17*
X34556700Y-89001600D03*
D18*
X38366700Y-91541600D03*
D17*
X40906700Y-86461600D03*
D16*
X43446700Y-91541600D03*
D19*
X30956700Y-89001600D03*
X44381700Y-86461600D03*
%TD*%
D16*
%TO.C,S4*%
X80911700Y-48679100D03*
D17*
X82181700Y-46139100D03*
D18*
X85991700Y-48679100D03*
D17*
X88531700Y-43599100D03*
D16*
X91071700Y-48679100D03*
D19*
X78581700Y-46139100D03*
X92006700Y-43599100D03*
%TD*%
D16*
%TO.C,S31*%
X161874200Y-91541600D03*
D17*
X163144200Y-89001600D03*
D18*
X166954200Y-91541600D03*
D17*
X169494200Y-86461600D03*
D16*
X172034200Y-91541600D03*
D19*
X159544200Y-89001600D03*
X172969200Y-86461600D03*
%TD*%
D16*
%TO.C,S20*%
X119011700Y-48679100D03*
D17*
X120281700Y-46139100D03*
D18*
X124091700Y-48679100D03*
D17*
X126631700Y-43599100D03*
D16*
X129171700Y-48679100D03*
D19*
X116681700Y-46139100D03*
X130106700Y-43599100D03*
%TD*%
D16*
%TO.C,S2*%
X76149200Y-72491600D03*
D17*
X77419200Y-69951600D03*
D18*
X81229200Y-72491600D03*
D17*
X83769200Y-67411600D03*
D16*
X86309200Y-72491600D03*
D19*
X73819200Y-69951600D03*
X87244200Y-67411600D03*
%TD*%
D16*
%TO.C,S35*%
X33286700Y-129641600D03*
D17*
X34556700Y-127101600D03*
D18*
X38366700Y-129641600D03*
D17*
X40906700Y-124561600D03*
D16*
X43446700Y-129641600D03*
D19*
X30956700Y-127101600D03*
X44381700Y-124561600D03*
%TD*%
D22*
%TO.C,H1*%
X30460450Y-39710000D03*
%TD*%
%TO.C,H4*%
X239154200Y-161400000D03*
%TD*%
D23*
%TO.C,S8*%
X62185450Y-122666600D03*
D18*
X62185450Y-137906600D03*
D16*
X69005450Y-129641600D03*
D17*
X70275450Y-127101600D03*
D18*
X74085450Y-129641600D03*
D17*
X76625450Y-124561600D03*
D16*
X79165450Y-129641600D03*
D23*
X85985450Y-122666600D03*
D18*
X85985450Y-137906600D03*
D19*
X66675450Y-127101600D03*
X80100450Y-124561600D03*
%TD*%
D22*
%TO.C,H5*%
X52654200Y-139166600D03*
%TD*%
D16*
%TO.C,S30*%
X166636700Y-110591600D03*
D17*
X167906700Y-108051600D03*
D18*
X171716700Y-110591600D03*
D17*
X174256700Y-105511600D03*
D16*
X176796700Y-110591600D03*
D19*
X164306700Y-108051600D03*
X177731700Y-105511600D03*
%TD*%
D16*
%TO.C,S37*%
X43446700Y-72491600D03*
D17*
X42176700Y-75031600D03*
D18*
X38366700Y-72491600D03*
D17*
X35826700Y-77571600D03*
D16*
X33286700Y-72491600D03*
D19*
X45776700Y-75031600D03*
X32351700Y-77571600D03*
%TD*%
D23*
%TO.C,S33*%
X133622950Y-141691600D03*
D18*
X133622950Y-156931600D03*
D16*
X178542950Y-148691600D03*
D17*
X179812950Y-146151600D03*
D18*
X183622950Y-148691600D03*
D17*
X186162950Y-143611600D03*
D16*
X188702950Y-148691600D03*
D23*
X233622950Y-141691600D03*
D18*
X233622950Y-156931600D03*
D19*
X176212950Y-146151600D03*
X189637950Y-143611600D03*
%TD*%
D16*
%TO.C,S10*%
X95199200Y-72491600D03*
D17*
X96469200Y-69951600D03*
D18*
X100279200Y-72491600D03*
D17*
X102819200Y-67411600D03*
D16*
X105359200Y-72491600D03*
D19*
X92869200Y-69951600D03*
X106294200Y-67411600D03*
%TD*%
D16*
%TO.C,S25*%
X128536700Y-110591600D03*
D17*
X129806700Y-108051600D03*
D18*
X133616700Y-110591600D03*
D17*
X136156700Y-105511600D03*
D16*
X138696700Y-110591600D03*
D19*
X126206700Y-108051600D03*
X139631700Y-105511600D03*
%TD*%
D20*
%TO.C,J1*%
X134600000Y-36900000D03*
D21*
X134600000Y-34900000D03*
%TD*%
D16*
%TO.C,S24*%
X133299200Y-72491600D03*
D17*
X134569200Y-69951600D03*
D18*
X138379200Y-72491600D03*
D17*
X140919200Y-67411600D03*
D16*
X143459200Y-72491600D03*
D19*
X130969200Y-69951600D03*
X144394200Y-67411600D03*
%TD*%
D24*
%TO.C,J7*%
X220208600Y-144666600D03*
X222708600Y-144666600D03*
X225208600Y-144666600D03*
X227708600Y-144666600D03*
%TD*%
D16*
%TO.C,S21*%
X138061700Y-48679100D03*
D17*
X139331700Y-46139100D03*
D18*
X143141700Y-48679100D03*
D17*
X145681700Y-43599100D03*
D16*
X148221700Y-48679100D03*
D19*
X135731700Y-46139100D03*
X149156700Y-43599100D03*
%TD*%
D16*
%TO.C,S14*%
X99961700Y-129641600D03*
D17*
X101231700Y-127101600D03*
D18*
X105041700Y-129641600D03*
D17*
X107581700Y-124561600D03*
D16*
X110121700Y-129641600D03*
D19*
X97631700Y-127101600D03*
X111056700Y-124561600D03*
%TD*%
D16*
%TO.C,S29*%
X176161700Y-129641600D03*
D17*
X177431700Y-127101600D03*
D18*
X181241700Y-129641600D03*
D17*
X183781700Y-124561600D03*
D16*
X186321700Y-129641600D03*
D19*
X173831700Y-127101600D03*
X187256700Y-124561600D03*
%TD*%
D16*
%TO.C,S19*%
X104724200Y-91541600D03*
D17*
X105994200Y-89001600D03*
D18*
X109804200Y-91541600D03*
D17*
X112344200Y-86461600D03*
D16*
X114884200Y-91541600D03*
D19*
X102394200Y-89001600D03*
X115819200Y-86461600D03*
%TD*%
D24*
%TO.C,J6*%
X197992800Y-144666600D03*
X200492800Y-144666600D03*
X202992800Y-144666600D03*
X205492800Y-144666600D03*
%TD*%
D22*
%TO.C,H3*%
X30460450Y-161400000D03*
%TD*%
D16*
%TO.C,S1*%
X67259200Y-72491600D03*
D17*
X65989200Y-75031600D03*
D18*
X62179200Y-72491600D03*
D17*
X59639200Y-77571600D03*
D16*
X57099200Y-72491600D03*
D19*
X69589200Y-75031600D03*
X56164200Y-77571600D03*
%TD*%
D16*
%TO.C,S34*%
X33286700Y-110591600D03*
D17*
X34556700Y-108051600D03*
D18*
X38366700Y-110591600D03*
D17*
X40906700Y-105511600D03*
D16*
X43446700Y-110591600D03*
D19*
X30956700Y-108051600D03*
X44381700Y-105511600D03*
%TD*%
D16*
%TO.C,S26*%
X147586700Y-110591600D03*
D17*
X148856700Y-108051600D03*
D18*
X152666700Y-110591600D03*
D17*
X155206700Y-105511600D03*
D16*
X157746700Y-110591600D03*
D19*
X145256700Y-108051600D03*
X158681700Y-105511600D03*
%TD*%
D16*
%TO.C,S11*%
X59480450Y-148691600D03*
D17*
X60750450Y-146151600D03*
D18*
X64560450Y-148691600D03*
D17*
X67100450Y-143611600D03*
D16*
X69640450Y-148691600D03*
D19*
X57150450Y-146151600D03*
X70575450Y-143611600D03*
%TD*%
D16*
%TO.C,S15*%
X90436700Y-110591600D03*
D17*
X91706700Y-108051600D03*
D18*
X95516700Y-110591600D03*
D17*
X98056700Y-105511600D03*
D16*
X100596700Y-110591600D03*
D19*
X88106700Y-108051600D03*
X101531700Y-105511600D03*
%TD*%
D16*
%TO.C,S9*%
X83292950Y-148691600D03*
D17*
X84562950Y-146151600D03*
D18*
X88372950Y-148691600D03*
D17*
X90912950Y-143611600D03*
D16*
X93452950Y-148691600D03*
D19*
X80962950Y-146151600D03*
X94387950Y-143611600D03*
%TD*%
D16*
%TO.C,S6*%
X61861700Y-91541600D03*
D17*
X63131700Y-89001600D03*
D18*
X66941700Y-91541600D03*
D17*
X69481700Y-86461600D03*
D16*
X72021700Y-91541600D03*
D19*
X59531700Y-89001600D03*
X72956700Y-86461600D03*
%TD*%
D16*
%TO.C,S17*%
X119011700Y-129641600D03*
D17*
X120281700Y-127101600D03*
D18*
X124091700Y-129641600D03*
D17*
X126631700Y-124561600D03*
D16*
X129171700Y-129641600D03*
D19*
X116681700Y-127101600D03*
X130106700Y-124561600D03*
%TD*%
D16*
%TO.C,S28*%
X157111700Y-129641600D03*
D17*
X158381700Y-127101600D03*
D18*
X162191700Y-129641600D03*
D17*
X164731700Y-124561600D03*
D16*
X167271700Y-129641600D03*
D19*
X154781700Y-127101600D03*
X168206700Y-124561600D03*
%TD*%
D16*
%TO.C,S7*%
X64242950Y-110591600D03*
D17*
X65512950Y-108051600D03*
D18*
X69322950Y-110591600D03*
D17*
X71862950Y-105511600D03*
D16*
X74402950Y-110591600D03*
D19*
X61912950Y-108051600D03*
X75337950Y-105511600D03*
%TD*%
D16*
%TO.C,S3*%
X57099200Y-48679100D03*
D17*
X58369200Y-46139100D03*
D18*
X62179200Y-48679100D03*
D17*
X64719200Y-43599100D03*
D16*
X67259200Y-48679100D03*
D19*
X54769200Y-46139100D03*
X68194200Y-43599100D03*
%TD*%
D16*
%TO.C,S16*%
X109486700Y-110591600D03*
D17*
X110756700Y-108051600D03*
D18*
X114566700Y-110591600D03*
D17*
X117106700Y-105511600D03*
D16*
X119646700Y-110591600D03*
D19*
X107156700Y-108051600D03*
X120581700Y-105511600D03*
%TD*%
D22*
%TO.C,H7*%
X133616700Y-120116600D03*
%TD*%
D16*
%TO.C,S18*%
X114249200Y-72491600D03*
D17*
X115519200Y-69951600D03*
D18*
X119329200Y-72491600D03*
D17*
X121869200Y-67411600D03*
D16*
X124409200Y-72491600D03*
D19*
X111919200Y-69951600D03*
X125344200Y-67411600D03*
%TD*%
D16*
%TO.C,S5*%
X99961700Y-48679100D03*
D17*
X101231700Y-46139100D03*
D18*
X105041700Y-48679100D03*
D17*
X107581700Y-43599100D03*
D16*
X110121700Y-48679100D03*
D19*
X97631700Y-46139100D03*
X111056700Y-43599100D03*
%TD*%
D25*
%TO.C,Brd1*%
X119545200Y-28664600D03*
D26*
X119545200Y-31204600D03*
X119545200Y-33744600D03*
X119545200Y-36284600D03*
%TD*%
D16*
%TO.C,S27*%
X138061700Y-129641600D03*
D17*
X139331700Y-127101600D03*
D18*
X143141700Y-129641600D03*
D17*
X145681700Y-124561600D03*
D16*
X148221700Y-129641600D03*
D19*
X135731700Y-127101600D03*
X149156700Y-124561600D03*
%TD*%
D22*
%TO.C,H6*%
X147904200Y-82016600D03*
%TD*%
D16*
%TO.C,S12*%
X107105450Y-148691600D03*
D17*
X108375450Y-146151600D03*
D18*
X112185450Y-148691600D03*
D17*
X114725450Y-143611600D03*
D16*
X117265450Y-148691600D03*
D19*
X104775450Y-146151600D03*
X118200450Y-143611600D03*
%TD*%
D22*
%TO.C,H2*%
X142500000Y-36600000D03*
%TD*%
D24*
%TO.C,J5*%
X151929200Y-32927600D03*
X151929200Y-35427600D03*
X151929200Y-37927600D03*
X151929200Y-40427600D03*
%TD*%
D16*
%TO.C,S13*%
X85674200Y-91541600D03*
D17*
X86944200Y-89001600D03*
D18*
X90754200Y-91541600D03*
D17*
X93294200Y-86461600D03*
D16*
X95834200Y-91541600D03*
D19*
X83344200Y-89001600D03*
X96769200Y-86461600D03*
%TD*%
D16*
%TO.C,S23*%
X142824200Y-91541600D03*
D17*
X144094200Y-89001600D03*
D18*
X147904200Y-91541600D03*
D17*
X150444200Y-86461600D03*
D16*
X152984200Y-91541600D03*
D19*
X140494200Y-89001600D03*
X153919200Y-86461600D03*
%TD*%
D16*
%TO.C,S22*%
X123774200Y-91541600D03*
D17*
X125044200Y-89001600D03*
D18*
X128854200Y-91541600D03*
D17*
X131394200Y-86461600D03*
D16*
X133934200Y-91541600D03*
D19*
X121444200Y-89001600D03*
X134869200Y-86461600D03*
%TD*%
D27*
%TO.C,U12*%
X45262500Y-62550000D03*
X45262500Y-61600000D03*
X45262500Y-60650000D03*
X47537500Y-60650000D03*
X47537500Y-62550000D03*
%TD*%
D28*
%TO.C,C16*%
X83900000Y-30925000D03*
X83900000Y-33875000D03*
%TD*%
D29*
%TO.C,C29*%
X31425000Y-74500000D03*
X29875000Y-74500000D03*
%TD*%
D30*
%TO.C,RN9*%
X196000000Y-147500000D03*
X197340000Y-147500000D03*
X198660000Y-147500000D03*
X200000000Y-147500000D03*
X200000000Y-150500000D03*
X198660000Y-150500000D03*
X197340000Y-150500000D03*
X196000000Y-150500000D03*
%TD*%
D31*
%TO.C,BT1*%
X220950000Y-152900000D03*
X213450000Y-152900000D03*
D32*
X209385000Y-152900000D03*
D33*
X225350000Y-152900000D03*
%TD*%
D34*
%TO.C,C19*%
X117402700Y-31271400D03*
X117402700Y-29721400D03*
%TD*%
%TO.C,C25*%
X142800000Y-53810200D03*
X142800000Y-52260200D03*
%TD*%
D35*
%TO.C,C13*%
X167700000Y-143625000D03*
X167700000Y-145175000D03*
%TD*%
D34*
%TO.C,C22*%
X81500000Y-53875000D03*
X81500000Y-52325000D03*
%TD*%
%TO.C,C33*%
X203682600Y-152921000D03*
X203682600Y-151371000D03*
%TD*%
D35*
%TO.C,C31*%
X147500000Y-32975000D03*
X147500000Y-34525000D03*
%TD*%
D28*
%TO.C,C17*%
X93740000Y-30635000D03*
X93740000Y-33585000D03*
%TD*%
D36*
%TO.C,U4*%
X89444400Y-54051200D03*
X89444400Y-55321200D03*
X89444400Y-56591200D03*
X89444400Y-57861200D03*
X89444400Y-59131200D03*
X89444400Y-60401200D03*
X89444400Y-61671200D03*
X89444400Y-62941200D03*
X84494400Y-62941200D03*
X84494400Y-61671200D03*
X84494400Y-60401200D03*
X84494400Y-59131200D03*
X84494400Y-57861200D03*
X84494400Y-56591200D03*
X84494400Y-55321200D03*
X84494400Y-54051200D03*
%TD*%
D29*
%TO.C,C11*%
X155775000Y-152800000D03*
X154225000Y-152800000D03*
%TD*%
D30*
%TO.C,RN7*%
X141809400Y-56496200D03*
X141809400Y-57836200D03*
X141809400Y-59156200D03*
X141809400Y-60496200D03*
X138809400Y-60496200D03*
X138809400Y-59156200D03*
X138809400Y-57836200D03*
X138809400Y-56496200D03*
%TD*%
D37*
%TO.C,U2*%
X145641800Y-140487400D03*
X145641800Y-141757400D03*
X145641800Y-143027400D03*
X145641800Y-144297400D03*
X138431800Y-144297400D03*
X138431800Y-143027400D03*
X138431800Y-141757400D03*
X138431800Y-140487400D03*
%TD*%
D29*
%TO.C,C28*%
X31425000Y-73000000D03*
X29875000Y-73000000D03*
%TD*%
D38*
%TO.C,R2*%
X148882600Y-149123400D03*
X150532600Y-149123400D03*
%TD*%
D24*
%TO.C,J3*%
X29579200Y-76409100D03*
X29579200Y-78909100D03*
X29579200Y-81409100D03*
X29579200Y-83909100D03*
%TD*%
D30*
%TO.C,RN6*%
X133729400Y-60496200D03*
X133729400Y-59156200D03*
X133729400Y-57836200D03*
X133729400Y-56496200D03*
X136729400Y-56496200D03*
X136729400Y-57836200D03*
X136729400Y-59156200D03*
X136729400Y-60496200D03*
%TD*%
%TO.C,RN8*%
X153262200Y-60521600D03*
X153262200Y-59181600D03*
X153262200Y-57861600D03*
X153262200Y-56521600D03*
X156262200Y-56521600D03*
X156262200Y-57861600D03*
X156262200Y-59181600D03*
X156262200Y-60521600D03*
%TD*%
D39*
%TO.C,U9*%
X52323200Y-53650000D03*
X52323200Y-54600000D03*
X52323200Y-55550000D03*
X50023200Y-55550000D03*
X50023200Y-54600000D03*
X50023200Y-53650000D03*
%TD*%
D30*
%TO.C,RN1*%
X80849400Y-56496200D03*
X80849400Y-57836200D03*
X80849400Y-59156200D03*
X80849400Y-60496200D03*
X77849400Y-60496200D03*
X77849400Y-59156200D03*
X77849400Y-57836200D03*
X77849400Y-56496200D03*
%TD*%
D40*
%TO.C,C26*%
X49625000Y-62600000D03*
X51175000Y-62600000D03*
%TD*%
D29*
%TO.C,C36*%
X48075000Y-54100000D03*
X46525000Y-54100000D03*
%TD*%
D40*
%TO.C,C35*%
X49625000Y-60750000D03*
X51175000Y-60750000D03*
%TD*%
D29*
%TO.C,C5*%
X155775000Y-154400000D03*
X154225000Y-154400000D03*
%TD*%
D38*
%TO.C,R3*%
X148882600Y-150672800D03*
X150532600Y-150672800D03*
%TD*%
D27*
%TO.C,U11*%
X45562500Y-52450000D03*
X45562500Y-51500000D03*
X45562500Y-50550000D03*
X47837500Y-50550000D03*
X47837500Y-52450000D03*
%TD*%
D38*
%TO.C,R4*%
X169575000Y-150400000D03*
X171225000Y-150400000D03*
%TD*%
D29*
%TO.C,C12*%
X155775000Y-151100000D03*
X154225000Y-151100000D03*
%TD*%
%TO.C,C2*%
X154445000Y-146964400D03*
X152895000Y-146964400D03*
%TD*%
D35*
%TO.C,C32*%
X192550000Y-154525000D03*
X192550000Y-156075000D03*
%TD*%
D41*
%TO.C,R10*%
X43575000Y-60750000D03*
X41925000Y-60750000D03*
%TD*%
D29*
%TO.C,C4*%
X154445000Y-148615400D03*
X152895000Y-148615400D03*
%TD*%
D30*
%TO.C,RN2*%
X93089400Y-60496200D03*
X93089400Y-59156200D03*
X93089400Y-57836200D03*
X93089400Y-56496200D03*
X96089400Y-56496200D03*
X96089400Y-57836200D03*
X96089400Y-59156200D03*
X96089400Y-60496200D03*
%TD*%
D35*
%TO.C,C1*%
X152700000Y-151625000D03*
X152700000Y-153175000D03*
%TD*%
D36*
%TO.C,U7*%
X150404400Y-54051200D03*
X150404400Y-55321200D03*
X150404400Y-56591200D03*
X150404400Y-57861200D03*
X150404400Y-59131200D03*
X150404400Y-60401200D03*
X150404400Y-61671200D03*
X150404400Y-62941200D03*
X145454400Y-62941200D03*
X145454400Y-61671200D03*
X145454400Y-60401200D03*
X145454400Y-59131200D03*
X145454400Y-57861200D03*
X145454400Y-56591200D03*
X145454400Y-55321200D03*
X145454400Y-54051200D03*
%TD*%
D42*
%TO.C,J8*%
X74714800Y-39800000D03*
X74214800Y-39800000D03*
X73714800Y-39800000D03*
X73214800Y-39800000D03*
D43*
X75714800Y-42300000D03*
X72214800Y-42300000D03*
%TD*%
D44*
%TO.C,U1*%
X159220200Y-144610600D03*
X159620200Y-144610600D03*
X160020200Y-144610600D03*
X160420200Y-144610600D03*
X160820200Y-144610600D03*
X161220200Y-144610600D03*
X161620200Y-144610600D03*
X162020200Y-144610600D03*
X162420200Y-144610600D03*
X162820200Y-144610600D03*
X163220200Y-144610600D03*
X163620200Y-144610600D03*
X164020200Y-144610600D03*
X164420200Y-144610600D03*
D45*
X165257700Y-145448100D03*
X165257700Y-145848100D03*
X165257700Y-146248100D03*
X165257700Y-146648100D03*
X165257700Y-147048100D03*
X165257700Y-147448100D03*
X165257700Y-147848100D03*
X165257700Y-148248100D03*
X165257700Y-148648100D03*
X165257700Y-149048100D03*
X165257700Y-149448100D03*
X165257700Y-149848100D03*
X165257700Y-150248100D03*
X165257700Y-150648100D03*
D44*
X164420200Y-151485600D03*
X164020200Y-151485600D03*
X163620200Y-151485600D03*
X163220200Y-151485600D03*
X162820200Y-151485600D03*
X162420200Y-151485600D03*
X162020200Y-151485600D03*
X161620200Y-151485600D03*
X161220200Y-151485600D03*
X160820200Y-151485600D03*
X160420200Y-151485600D03*
X160020200Y-151485600D03*
X159620200Y-151485600D03*
X159220200Y-151485600D03*
D45*
X158382700Y-150648100D03*
X158382700Y-150248100D03*
X158382700Y-149848100D03*
X158382700Y-149448100D03*
X158382700Y-149048100D03*
X158382700Y-148648100D03*
X158382700Y-148248100D03*
X158382700Y-147848100D03*
X158382700Y-147448100D03*
X158382700Y-147048100D03*
X158382700Y-146648100D03*
X158382700Y-146248100D03*
X158382700Y-145848100D03*
X158382700Y-145448100D03*
D46*
X161820200Y-148048100D03*
%TD*%
D47*
%TO.C,R6*%
X55900000Y-54875000D03*
X55900000Y-56525000D03*
%TD*%
D35*
%TO.C,C3*%
X167767000Y-149110400D03*
X167767000Y-150660400D03*
%TD*%
D29*
%TO.C,C34*%
X43525000Y-53400000D03*
X41975000Y-53400000D03*
%TD*%
D30*
%TO.C,RN11*%
X72769400Y-60496200D03*
X72769400Y-59156200D03*
X72769400Y-57836200D03*
X72769400Y-56496200D03*
X75769400Y-56496200D03*
X75769400Y-57836200D03*
X75769400Y-59156200D03*
X75769400Y-60496200D03*
%TD*%
D35*
%TO.C,C9*%
X157464200Y-153425000D03*
X157464200Y-154975000D03*
%TD*%
D30*
%TO.C,RN4*%
X113409400Y-60496200D03*
X113409400Y-59156200D03*
X113409400Y-57836200D03*
X113409400Y-56496200D03*
X116409400Y-56496200D03*
X116409400Y-57836200D03*
X116409400Y-59156200D03*
X116409400Y-60496200D03*
%TD*%
D29*
%TO.C,C27*%
X48075000Y-55700000D03*
X46525000Y-55700000D03*
%TD*%
D30*
%TO.C,RN3*%
X101169400Y-56496200D03*
X101169400Y-57836200D03*
X101169400Y-59156200D03*
X101169400Y-60496200D03*
X98169400Y-60496200D03*
X98169400Y-59156200D03*
X98169400Y-57836200D03*
X98169400Y-56496200D03*
%TD*%
D29*
%TO.C,C10*%
X158800000Y-142600000D03*
X157250000Y-142600000D03*
%TD*%
D35*
%TO.C,C38*%
X162800000Y-153625000D03*
X162800000Y-155175000D03*
%TD*%
D48*
%TO.C,U3*%
X86500000Y-30650000D03*
X88800000Y-30650000D03*
X91100000Y-30650000D03*
D49*
X88800000Y-36950000D03*
%TD*%
D50*
%TO.C,X1*%
X169500000Y-143600000D03*
X171700000Y-143600000D03*
X171700000Y-145200000D03*
X169500000Y-145200000D03*
%TD*%
D35*
%TO.C,C39*%
X62050000Y-53975000D03*
X62050000Y-55525000D03*
%TD*%
D51*
%TO.C,U10*%
X195518000Y-155905000D03*
X195518000Y-154635000D03*
X195518000Y-153365000D03*
X195518000Y-152095000D03*
X200468000Y-152095000D03*
X200468000Y-153365000D03*
X200468000Y-154635000D03*
X200468000Y-155905000D03*
%TD*%
D39*
%TO.C,U8*%
X52323200Y-57256000D03*
X52323200Y-58206000D03*
X52323200Y-59156000D03*
X50023200Y-59156000D03*
X50023200Y-58206000D03*
X50023200Y-57256000D03*
%TD*%
D36*
%TO.C,U5*%
X109764400Y-54051200D03*
X109764400Y-55321200D03*
X109764400Y-56591200D03*
X109764400Y-57861200D03*
X109764400Y-59131200D03*
X109764400Y-60401200D03*
X109764400Y-61671200D03*
X109764400Y-62941200D03*
X104814400Y-62941200D03*
X104814400Y-61671200D03*
X104814400Y-60401200D03*
X104814400Y-59131200D03*
X104814400Y-57861200D03*
X104814400Y-56591200D03*
X104814400Y-55321200D03*
X104814400Y-54051200D03*
%TD*%
D34*
%TO.C,C23*%
X101700000Y-53775000D03*
X101700000Y-52225000D03*
%TD*%
D47*
%TO.C,R5*%
X151114200Y-141165100D03*
X151114200Y-142815100D03*
%TD*%
D29*
%TO.C,C37*%
X43525000Y-59250000D03*
X41975000Y-59250000D03*
%TD*%
D52*
%TO.C,U13*%
X69149400Y-54051200D03*
X69149400Y-55321200D03*
X69149400Y-56591200D03*
X69149400Y-57861200D03*
X69149400Y-59131200D03*
X69149400Y-60401200D03*
X69149400Y-61671200D03*
X69149400Y-62941200D03*
X64149400Y-62941200D03*
X64149400Y-61671200D03*
X64149400Y-60401200D03*
X64149400Y-59131200D03*
X64149400Y-57861200D03*
X64149400Y-56591200D03*
X64149400Y-55321200D03*
X64149400Y-54051200D03*
%TD*%
D35*
%TO.C,C30*%
X149250000Y-32975000D03*
X149250000Y-34525000D03*
%TD*%
D40*
%TO.C,C7*%
X169633600Y-148844000D03*
X171183600Y-148844000D03*
%TD*%
D34*
%TO.C,C18*%
X115300000Y-31275000D03*
X115300000Y-29725000D03*
%TD*%
D30*
%TO.C,RN10*%
X60529400Y-56496200D03*
X60529400Y-57836200D03*
X60529400Y-59156200D03*
X60529400Y-60496200D03*
X57529400Y-60496200D03*
X57529400Y-59156200D03*
X57529400Y-57836200D03*
X57529400Y-56496200D03*
%TD*%
D34*
%TO.C,C24*%
X122900000Y-53775000D03*
X122900000Y-52225000D03*
%TD*%
D30*
%TO.C,RN5*%
X121489400Y-56496200D03*
X121489400Y-57836200D03*
X121489400Y-59156200D03*
X121489400Y-60496200D03*
X118489400Y-60496200D03*
X118489400Y-59156200D03*
X118489400Y-57836200D03*
X118489400Y-56496200D03*
%TD*%
D40*
%TO.C,C6*%
X163175000Y-142700000D03*
X164725000Y-142700000D03*
%TD*%
D24*
%TO.C,J4*%
X29579200Y-116289100D03*
X29579200Y-118789100D03*
X29579200Y-121289100D03*
X29579200Y-123789100D03*
%TD*%
D40*
%TO.C,C14*%
X169625000Y-146900000D03*
X171175000Y-146900000D03*
%TD*%
%TO.C,C15*%
X138425000Y-138500000D03*
X139975000Y-138500000D03*
%TD*%
D36*
%TO.C,U6*%
X130084400Y-54051200D03*
X130084400Y-55321200D03*
X130084400Y-56591200D03*
X130084400Y-57861200D03*
X130084400Y-59131200D03*
X130084400Y-60401200D03*
X130084400Y-61671200D03*
X130084400Y-62941200D03*
X125134400Y-62941200D03*
X125134400Y-61671200D03*
X125134400Y-60401200D03*
X125134400Y-59131200D03*
X125134400Y-57861200D03*
X125134400Y-56591200D03*
X125134400Y-55321200D03*
X125134400Y-54051200D03*
%TD*%
D35*
%TO.C,C8*%
X159100000Y-153425000D03*
X159100000Y-154975000D03*
%TD*%
D47*
%TO.C,R8*%
X175800000Y-148475000D03*
X175800000Y-150125000D03*
%TD*%
D41*
%TO.C,R9*%
X43575000Y-55000000D03*
X41925000Y-55000000D03*
%TD*%
D38*
%TO.C,R11*%
X68475000Y-117200000D03*
X70125000Y-117200000D03*
%TD*%
%LPD*%
M02*
