%TF.GenerationSoftware,KiCad,Pcbnew,8.0.4*%
%TF.CreationDate,2025-08-03T11:03:42-05:00*%
%TF.ProjectId,Numlocked_shift_stencil,4e756d6c-6f63-46b6-9564-5f7368696674,rev?*%
%TF.SameCoordinates,Original*%
%TF.FileFunction,Legend,Top*%
%TF.FilePolarity,Positive*%
%FSLAX46Y46*%
G04 Gerber Fmt 4.6, Leading zero omitted, Abs format (unit mm)*
G04 Created by KiCad (PCBNEW 8.0.4) date 2025-08-03 11:03:42*
%MOMM*%
%LPD*%
G01*
G04 APERTURE LIST*
G04 Aperture macros list*
%AMRoundRect*
0 Rectangle with rounded corners*
0 $1 Rounding radius*
0 $2 $3 $4 $5 $6 $7 $8 $9 X,Y pos of 4 corners*
0 Add a 4 corners polygon primitive as box body*
4,1,4,$2,$3,$4,$5,$6,$7,$8,$9,$2,$3,0*
0 Add four circle primitives for the rounded corners*
1,1,$1+$1,$2,$3*
1,1,$1+$1,$4,$5*
1,1,$1+$1,$6,$7*
1,1,$1+$1,$8,$9*
0 Add four rect primitives between the rounded corners*
20,1,$1+$1,$2,$3,$4,$5,0*
20,1,$1+$1,$4,$5,$6,$7,0*
20,1,$1+$1,$6,$7,$8,$9,0*
20,1,$1+$1,$8,$9,$2,$3,0*%
G04 Aperture macros list end*
%ADD10C,0.150000*%
%ADD11C,0.120000*%
%ADD12C,0.508000*%
%ADD13C,0.127000*%
%ADD14C,0.200000*%
%ADD15C,0.040000*%
%ADD16R,1.350000X1.350000*%
%ADD17O,1.350000X1.350000*%
%ADD18C,1.700000*%
%ADD19C,3.000000*%
%ADD20C,4.000000*%
%ADD21RoundRect,0.102000X0.825000X0.825000X-0.825000X0.825000X-0.825000X-0.825000X0.825000X-0.825000X0*%
%ADD22C,1.854000*%
%ADD23O,3.204000X6.204000*%
%ADD24R,1.700000X1.700000*%
%ADD25O,1.700000X1.700000*%
%ADD26C,4.400000*%
%ADD27C,1.800000*%
G04 APERTURE END LIST*
D10*
X53660596Y-57981412D02*
X53660596Y-56981412D01*
X53660596Y-56981412D02*
X53993929Y-57695697D01*
X53993929Y-57695697D02*
X54327262Y-56981412D01*
X54327262Y-56981412D02*
X54327262Y-57981412D01*
X54660596Y-56981412D02*
X55232024Y-56981412D01*
X54946310Y-57981412D02*
X54946310Y-56981412D01*
X56089167Y-57981412D02*
X55517739Y-57981412D01*
X55803453Y-57981412D02*
X55803453Y-56981412D01*
X55803453Y-56981412D02*
X55708215Y-57124269D01*
X55708215Y-57124269D02*
X55612977Y-57219507D01*
X55612977Y-57219507D02*
X55517739Y-57267126D01*
X97185581Y-33563759D02*
X97233200Y-33420902D01*
X97233200Y-33420902D02*
X97280819Y-33373283D01*
X97280819Y-33373283D02*
X97376057Y-33325664D01*
X97376057Y-33325664D02*
X97518914Y-33325664D01*
X97518914Y-33325664D02*
X97614152Y-33373283D01*
X97614152Y-33373283D02*
X97661772Y-33420902D01*
X97661772Y-33420902D02*
X97709391Y-33516140D01*
X97709391Y-33516140D02*
X97709391Y-33897092D01*
X97709391Y-33897092D02*
X96709391Y-33897092D01*
X96709391Y-33897092D02*
X96709391Y-33563759D01*
X96709391Y-33563759D02*
X96757010Y-33468521D01*
X96757010Y-33468521D02*
X96804629Y-33420902D01*
X96804629Y-33420902D02*
X96899867Y-33373283D01*
X96899867Y-33373283D02*
X96995105Y-33373283D01*
X96995105Y-33373283D02*
X97090343Y-33420902D01*
X97090343Y-33420902D02*
X97137962Y-33468521D01*
X97137962Y-33468521D02*
X97185581Y-33563759D01*
X97185581Y-33563759D02*
X97185581Y-33897092D01*
X97709391Y-32897092D02*
X97042724Y-32897092D01*
X97233200Y-32897092D02*
X97137962Y-32849473D01*
X97137962Y-32849473D02*
X97090343Y-32801854D01*
X97090343Y-32801854D02*
X97042724Y-32706616D01*
X97042724Y-32706616D02*
X97042724Y-32611378D01*
X97709391Y-31849473D02*
X96709391Y-31849473D01*
X97661772Y-31849473D02*
X97709391Y-31944711D01*
X97709391Y-31944711D02*
X97709391Y-32135187D01*
X97709391Y-32135187D02*
X97661772Y-32230425D01*
X97661772Y-32230425D02*
X97614152Y-32278044D01*
X97614152Y-32278044D02*
X97518914Y-32325663D01*
X97518914Y-32325663D02*
X97233200Y-32325663D01*
X97233200Y-32325663D02*
X97137962Y-32278044D01*
X97137962Y-32278044D02*
X97090343Y-32230425D01*
X97090343Y-32230425D02*
X97042724Y-32135187D01*
X97042724Y-32135187D02*
X97042724Y-31944711D01*
X97042724Y-31944711D02*
X97090343Y-31849473D01*
X97709391Y-30849473D02*
X97709391Y-31420901D01*
X97709391Y-31135187D02*
X96709391Y-31135187D01*
X96709391Y-31135187D02*
X96852248Y-31230425D01*
X96852248Y-31230425D02*
X96947486Y-31325663D01*
X96947486Y-31325663D02*
X96995105Y-31420901D01*
X110426000Y-31941912D02*
X110616476Y-31941912D01*
X110616476Y-31941912D02*
X110711714Y-31989531D01*
X110711714Y-31989531D02*
X110806952Y-32084769D01*
X110806952Y-32084769D02*
X110854571Y-32275245D01*
X110854571Y-32275245D02*
X110854571Y-32608578D01*
X110854571Y-32608578D02*
X110806952Y-32799054D01*
X110806952Y-32799054D02*
X110711714Y-32894293D01*
X110711714Y-32894293D02*
X110616476Y-32941912D01*
X110616476Y-32941912D02*
X110426000Y-32941912D01*
X110426000Y-32941912D02*
X110330762Y-32894293D01*
X110330762Y-32894293D02*
X110235524Y-32799054D01*
X110235524Y-32799054D02*
X110187905Y-32608578D01*
X110187905Y-32608578D02*
X110187905Y-32275245D01*
X110187905Y-32275245D02*
X110235524Y-32084769D01*
X110235524Y-32084769D02*
X110330762Y-31989531D01*
X110330762Y-31989531D02*
X110426000Y-31941912D01*
X111759333Y-32941912D02*
X111283143Y-32941912D01*
X111283143Y-32941912D02*
X111283143Y-31941912D01*
X112092667Y-32418102D02*
X112426000Y-32418102D01*
X112568857Y-32941912D02*
X112092667Y-32941912D01*
X112092667Y-32941912D02*
X112092667Y-31941912D01*
X112092667Y-31941912D02*
X112568857Y-31941912D01*
X112997429Y-32941912D02*
X112997429Y-31941912D01*
X112997429Y-31941912D02*
X113235524Y-31941912D01*
X113235524Y-31941912D02*
X113378381Y-31989531D01*
X113378381Y-31989531D02*
X113473619Y-32084769D01*
X113473619Y-32084769D02*
X113521238Y-32180007D01*
X113521238Y-32180007D02*
X113568857Y-32370483D01*
X113568857Y-32370483D02*
X113568857Y-32513340D01*
X113568857Y-32513340D02*
X113521238Y-32703816D01*
X113521238Y-32703816D02*
X113473619Y-32799054D01*
X113473619Y-32799054D02*
X113378381Y-32894293D01*
X113378381Y-32894293D02*
X113235524Y-32941912D01*
X113235524Y-32941912D02*
X112997429Y-32941912D01*
X114759334Y-32941912D02*
X114759334Y-31941912D01*
X114759334Y-31941912D02*
X115140286Y-31941912D01*
X115140286Y-31941912D02*
X115235524Y-31989531D01*
X115235524Y-31989531D02*
X115283143Y-32037150D01*
X115283143Y-32037150D02*
X115330762Y-32132388D01*
X115330762Y-32132388D02*
X115330762Y-32275245D01*
X115330762Y-32275245D02*
X115283143Y-32370483D01*
X115283143Y-32370483D02*
X115235524Y-32418102D01*
X115235524Y-32418102D02*
X115140286Y-32465721D01*
X115140286Y-32465721D02*
X114759334Y-32465721D01*
X116187905Y-32941912D02*
X116187905Y-32418102D01*
X116187905Y-32418102D02*
X116140286Y-32322864D01*
X116140286Y-32322864D02*
X116045048Y-32275245D01*
X116045048Y-32275245D02*
X115854572Y-32275245D01*
X115854572Y-32275245D02*
X115759334Y-32322864D01*
X116187905Y-32894293D02*
X116092667Y-32941912D01*
X116092667Y-32941912D02*
X115854572Y-32941912D01*
X115854572Y-32941912D02*
X115759334Y-32894293D01*
X115759334Y-32894293D02*
X115711715Y-32799054D01*
X115711715Y-32799054D02*
X115711715Y-32703816D01*
X115711715Y-32703816D02*
X115759334Y-32608578D01*
X115759334Y-32608578D02*
X115854572Y-32560959D01*
X115854572Y-32560959D02*
X116092667Y-32560959D01*
X116092667Y-32560959D02*
X116187905Y-32513340D01*
X116664096Y-32275245D02*
X116664096Y-32941912D01*
X116664096Y-32370483D02*
X116711715Y-32322864D01*
X116711715Y-32322864D02*
X116806953Y-32275245D01*
X116806953Y-32275245D02*
X116949810Y-32275245D01*
X116949810Y-32275245D02*
X117045048Y-32322864D01*
X117045048Y-32322864D02*
X117092667Y-32418102D01*
X117092667Y-32418102D02*
X117092667Y-32941912D01*
X117949810Y-32894293D02*
X117854572Y-32941912D01*
X117854572Y-32941912D02*
X117664096Y-32941912D01*
X117664096Y-32941912D02*
X117568858Y-32894293D01*
X117568858Y-32894293D02*
X117521239Y-32799054D01*
X117521239Y-32799054D02*
X117521239Y-32418102D01*
X117521239Y-32418102D02*
X117568858Y-32322864D01*
X117568858Y-32322864D02*
X117664096Y-32275245D01*
X117664096Y-32275245D02*
X117854572Y-32275245D01*
X117854572Y-32275245D02*
X117949810Y-32322864D01*
X117949810Y-32322864D02*
X117997429Y-32418102D01*
X117997429Y-32418102D02*
X117997429Y-32513340D01*
X117997429Y-32513340D02*
X117521239Y-32608578D01*
X118568858Y-32941912D02*
X118473620Y-32894293D01*
X118473620Y-32894293D02*
X118426001Y-32799054D01*
X118426001Y-32799054D02*
X118426001Y-31941912D01*
X154047467Y-33867312D02*
X154047467Y-32867312D01*
X154047467Y-33343502D02*
X154618895Y-33343502D01*
X154618895Y-33867312D02*
X154618895Y-32867312D01*
X155047467Y-32962550D02*
X155095086Y-32914931D01*
X155095086Y-32914931D02*
X155190324Y-32867312D01*
X155190324Y-32867312D02*
X155428419Y-32867312D01*
X155428419Y-32867312D02*
X155523657Y-32914931D01*
X155523657Y-32914931D02*
X155571276Y-32962550D01*
X155571276Y-32962550D02*
X155618895Y-33057788D01*
X155618895Y-33057788D02*
X155618895Y-33153026D01*
X155618895Y-33153026D02*
X155571276Y-33295883D01*
X155571276Y-33295883D02*
X154999848Y-33867312D01*
X154999848Y-33867312D02*
X155618895Y-33867312D01*
D11*
%TO.C,J1*%
X142749372Y-35912493D02*
X142749372Y-33852493D01*
X142749372Y-37972493D02*
X142749372Y-36912493D01*
X143809372Y-37972493D02*
X142749372Y-37972493D01*
X144869372Y-33852493D02*
X142749372Y-33852493D01*
X144869372Y-35912493D02*
X142749372Y-35912493D01*
X144869372Y-35912493D02*
X144869372Y-33852493D01*
D12*
%TO.C,J8*%
X83131172Y-42810993D02*
G75*
G02*
X82369172Y-42810993I-381000J0D01*
G01*
X82369172Y-42810993D02*
G75*
G02*
X83131172Y-42810993I381000J0D01*
G01*
D11*
%TO.C,J2*%
X145849372Y-35912493D02*
X145849372Y-33852493D01*
X145849372Y-37972493D02*
X145849372Y-36912493D01*
X146909372Y-37972493D02*
X145849372Y-37972493D01*
X147969372Y-33852493D02*
X145849372Y-33852493D01*
X147969372Y-35912493D02*
X145849372Y-35912493D01*
X147969372Y-35912493D02*
X147969372Y-33852493D01*
D13*
%TO.C,MT1*%
X44426072Y-41991593D02*
X44426072Y-45291593D01*
X44426072Y-55391593D02*
X44426072Y-52091593D01*
X46976072Y-41991593D02*
X44426072Y-41991593D01*
X46976072Y-55391593D02*
X44426072Y-55391593D01*
X56926072Y-41991593D02*
X54376072Y-41991593D01*
X56926072Y-45291593D02*
X56926072Y-41991593D01*
X56926072Y-52091593D02*
X56926072Y-55391593D01*
X56926072Y-55391593D02*
X54376072Y-55391593D01*
D14*
X54976072Y-56291593D02*
G75*
G02*
X54776072Y-56291593I-100000J0D01*
G01*
X54776072Y-56291593D02*
G75*
G02*
X54976072Y-56291593I100000J0D01*
G01*
D15*
%TO.C,Brd1*%
X95354572Y-26487093D02*
X95354572Y-38487093D01*
X95354572Y-38487093D02*
X133354572Y-38487093D01*
X98854572Y-26487093D02*
X98854572Y-38487093D01*
X128354572Y-26487093D02*
X128354572Y-38487093D01*
X133354572Y-26487093D02*
X95354572Y-26487093D01*
X133354572Y-38487093D02*
X133354572Y-26487093D01*
%TD*%
%LPC*%
D16*
%TO.C,J1*%
X143809372Y-36912493D03*
D17*
X143809372Y-34912493D03*
%TD*%
D18*
%TO.C,S4*%
X93221072Y-48691593D03*
D19*
X94491072Y-46151593D03*
D20*
X98301072Y-48691593D03*
D19*
X100841072Y-43611593D03*
D18*
X103381072Y-48691593D03*
%TD*%
%TO.C,S20*%
X131321072Y-48691593D03*
D19*
X132591072Y-46151593D03*
D20*
X136401072Y-48691593D03*
D19*
X138941072Y-43611593D03*
D18*
X141481072Y-48691593D03*
%TD*%
D16*
%TO.C,J2*%
X146909372Y-36912493D03*
D17*
X146909372Y-34912493D03*
%TD*%
D18*
%TO.C,S3*%
X69408572Y-48691593D03*
D19*
X70678572Y-46151593D03*
D20*
X74488572Y-48691593D03*
D19*
X77028572Y-43611593D03*
D18*
X79568572Y-48691593D03*
%TD*%
D21*
%TO.C,MT1*%
X53176072Y-55691593D03*
D22*
X48176072Y-55691593D03*
X53176072Y-41191593D03*
X48176072Y-41191593D03*
X50676072Y-41191593D03*
D23*
X56376072Y-48691593D03*
X44976072Y-48691593D03*
%TD*%
D24*
%TO.C,Brd1*%
X131854572Y-28677093D03*
D25*
X131854572Y-31217093D03*
X131854572Y-33757093D03*
X131854572Y-36297093D03*
%TD*%
D18*
%TO.C,S5*%
X112271072Y-48691593D03*
D19*
X113541072Y-46151593D03*
D20*
X117351072Y-48691593D03*
D19*
X119891072Y-43611593D03*
D18*
X122431072Y-48691593D03*
%TD*%
D26*
%TO.C,H2*%
X154809372Y-36612493D03*
%TD*%
D27*
%TO.C,J5*%
X164238572Y-32940093D03*
X164238572Y-35440093D03*
X164238572Y-37940093D03*
X164238572Y-40440093D03*
%TD*%
D18*
%TO.C,S21*%
X150371072Y-48691593D03*
D19*
X151641072Y-46151593D03*
D20*
X155451072Y-48691593D03*
D19*
X157991072Y-43611593D03*
D18*
X160531072Y-48691593D03*
%TD*%
%LPD*%
M02*
