%TF.GenerationSoftware,KiCad,Pcbnew,8.0.4*%
%TF.CreationDate,2025-08-03T11:03:42-05:00*%
%TF.ProjectId,Numlocked_shift_stencil,4e756d6c-6f63-46b6-9564-5f7368696674,rev?*%
%TF.SameCoordinates,Original*%
%TF.FileFunction,Paste,Bot*%
%TF.FilePolarity,Positive*%
%FSLAX46Y46*%
G04 Gerber Fmt 4.6, Leading zero omitted, Abs format (unit mm)*
G04 Created by KiCad (PCBNEW 8.0.4) date 2025-08-03 11:03:42*
%MOMM*%
%LPD*%
G01*
G04 APERTURE LIST*
G04 Aperture macros list*
%AMRoundRect*
0 Rectangle with rounded corners*
0 $1 Rounding radius*
0 $2 $3 $4 $5 $6 $7 $8 $9 X,Y pos of 4 corners*
0 Add a 4 corners polygon primitive as box body*
4,1,4,$2,$3,$4,$5,$6,$7,$8,$9,$2,$3,0*
0 Add four circle primitives for the rounded corners*
1,1,$1+$1,$2,$3*
1,1,$1+$1,$4,$5*
1,1,$1+$1,$6,$7*
1,1,$1+$1,$8,$9*
0 Add four rect primitives between the rounded corners*
20,1,$1+$1,$2,$3,$4,$5,0*
20,1,$1+$1,$4,$5,$6,$7,0*
20,1,$1+$1,$6,$7,$8,$9,0*
20,1,$1+$1,$8,$9,$2,$3,0*%
G04 Aperture macros list end*
%ADD10R,2.550000X2.500000*%
%ADD11RoundRect,0.200000X0.200000X0.275000X-0.200000X0.275000X-0.200000X-0.275000X0.200000X-0.275000X0*%
%ADD12RoundRect,0.225000X0.250000X-0.225000X0.250000X0.225000X-0.250000X0.225000X-0.250000X-0.225000X0*%
%ADD13RoundRect,0.225000X-0.250000X0.225000X-0.250000X-0.225000X0.250000X-0.225000X0.250000X0.225000X0*%
%ADD14RoundRect,0.075000X0.910000X0.225000X-0.910000X0.225000X-0.910000X-0.225000X0.910000X-0.225000X0*%
%ADD15R,0.900000X0.900000*%
%ADD16RoundRect,0.225000X0.225000X0.250000X-0.225000X0.250000X-0.225000X-0.250000X0.225000X-0.250000X0*%
%ADD17RoundRect,0.150000X0.850000X0.150000X-0.850000X0.150000X-0.850000X-0.150000X0.850000X-0.150000X0*%
%ADD18RoundRect,0.150000X0.150000X-0.650000X0.150000X0.650000X-0.150000X0.650000X-0.150000X-0.650000X0*%
%ADD19RoundRect,0.200000X-0.275000X0.200000X-0.275000X-0.200000X0.275000X-0.200000X0.275000X0.200000X0*%
%ADD20RoundRect,0.225000X-0.225000X-0.250000X0.225000X-0.250000X0.225000X0.250000X-0.225000X0.250000X0*%
%ADD21RoundRect,0.200000X-0.200000X-0.275000X0.200000X-0.275000X0.200000X0.275000X-0.200000X0.275000X0*%
%ADD22RoundRect,0.200000X0.275000X-0.200000X0.275000X0.200000X-0.275000X0.200000X-0.275000X-0.200000X0*%
%ADD23R,1.400000X1.200000*%
%ADD24RoundRect,0.375000X-0.375000X0.625000X-0.375000X-0.625000X0.375000X-0.625000X0.375000X0.625000X0*%
%ADD25RoundRect,0.500000X-1.400000X0.500000X-1.400000X-0.500000X1.400000X-0.500000X1.400000X0.500000X0*%
%ADD26RoundRect,0.249999X0.395001X-0.395001X0.395001X0.395001X-0.395001X0.395001X-0.395001X-0.395001X0*%
%ADD27RoundRect,0.050000X0.050000X-0.387500X0.050000X0.387500X-0.050000X0.387500X-0.050000X-0.387500X0*%
%ADD28RoundRect,0.050000X0.387500X-0.050000X0.387500X0.050000X-0.387500X0.050000X-0.387500X-0.050000X0*%
%ADD29R,0.660400X1.549400*%
%ADD30R,1.295400X1.905000*%
%ADD31RoundRect,0.150000X-0.512500X-0.150000X0.512500X-0.150000X0.512500X0.150000X-0.512500X0.150000X0*%
%ADD32RoundRect,0.150000X-0.650000X-0.150000X0.650000X-0.150000X0.650000X0.150000X-0.650000X0.150000X0*%
%ADD33RoundRect,0.072500X0.217500X-0.732500X0.217500X0.732500X-0.217500X0.732500X-0.217500X-0.732500X0*%
%ADD34RoundRect,0.250000X-0.650000X0.325000X-0.650000X-0.325000X0.650000X-0.325000X0.650000X0.325000X0*%
%ADD35RoundRect,0.150000X0.150000X-0.512500X0.150000X0.512500X-0.150000X0.512500X-0.150000X-0.512500X0*%
G04 APERTURE END LIST*
D10*
%TO.C,S4*%
X90891072Y-46151593D03*
X104316072Y-43611593D03*
%TD*%
%TO.C,S20*%
X128991072Y-46151593D03*
X142416072Y-43611593D03*
%TD*%
D11*
%TO.C,R9*%
X46634372Y-67212493D03*
X44984372Y-67212493D03*
%TD*%
D12*
%TO.C,C14*%
X60409372Y-67135593D03*
X60409372Y-65585593D03*
%TD*%
D13*
%TO.C,C15*%
X95409372Y-61937493D03*
X95409372Y-63487493D03*
%TD*%
D12*
%TO.C,C8*%
X74929572Y-56935593D03*
X74929572Y-55385593D03*
%TD*%
D14*
%TO.C,U6*%
X144584372Y-54063693D03*
X144584372Y-55333693D03*
X144584372Y-56603693D03*
X144584372Y-57873693D03*
X144584372Y-59143693D03*
X144584372Y-60413693D03*
X144584372Y-61683693D03*
X144584372Y-62953693D03*
X139634372Y-62953693D03*
X139634372Y-61683693D03*
X139634372Y-60413693D03*
X139634372Y-59143693D03*
X139634372Y-57873693D03*
X139634372Y-56603693D03*
X139634372Y-55333693D03*
X139634372Y-54063693D03*
%TD*%
D13*
%TO.C,C30*%
X161559372Y-32987493D03*
X161559372Y-34537493D03*
%TD*%
%TO.C,C6*%
X71109372Y-67737493D03*
X71109372Y-69287493D03*
%TD*%
D15*
%TO.C,RN10*%
X57589372Y-83447493D03*
X57589372Y-84787493D03*
X57589372Y-86107493D03*
X57589372Y-87447493D03*
X54589372Y-87447493D03*
X54589372Y-86107493D03*
X54589372Y-84787493D03*
X54589372Y-83447493D03*
%TD*%
D12*
%TO.C,C18*%
X127609372Y-31287493D03*
X127609372Y-29737493D03*
%TD*%
D16*
%TO.C,C7*%
X64295972Y-61916593D03*
X62745972Y-61916593D03*
%TD*%
D17*
%TO.C,U13*%
X66209372Y-81002493D03*
X66209372Y-82272493D03*
X66209372Y-83542493D03*
X66209372Y-84812493D03*
X66209372Y-86082493D03*
X66209372Y-87352493D03*
X66209372Y-88622493D03*
X66209372Y-89892493D03*
X61209372Y-89892493D03*
X61209372Y-88622493D03*
X61209372Y-87352493D03*
X61209372Y-86082493D03*
X61209372Y-84812493D03*
X61209372Y-83542493D03*
X61209372Y-82272493D03*
X61209372Y-81002493D03*
%TD*%
D11*
%TO.C,R13*%
X49534372Y-44212493D03*
X47884372Y-44212493D03*
%TD*%
D18*
%TO.C,U8*%
X54859372Y-61912493D03*
X53909372Y-61912493D03*
X52959372Y-61912493D03*
X52959372Y-59612493D03*
X53909372Y-59612493D03*
X54859372Y-59612493D03*
%TD*%
D19*
%TO.C,R5*%
X95409372Y-67487493D03*
X95409372Y-69137493D03*
%TD*%
D16*
%TO.C,C37*%
X57384372Y-65712493D03*
X55834372Y-65712493D03*
%TD*%
D15*
%TO.C,RN5*%
X135989372Y-56508693D03*
X135989372Y-57848693D03*
X135989372Y-59168693D03*
X135989372Y-60508693D03*
X132989372Y-60508693D03*
X132989372Y-59168693D03*
X132989372Y-57848693D03*
X132989372Y-56508693D03*
%TD*%
D14*
%TO.C,U5*%
X124264372Y-54063693D03*
X124264372Y-55333693D03*
X124264372Y-56603693D03*
X124264372Y-57873693D03*
X124264372Y-59143693D03*
X124264372Y-60413693D03*
X124264372Y-61683693D03*
X124264372Y-62953693D03*
X119314372Y-62953693D03*
X119314372Y-61683693D03*
X119314372Y-60413693D03*
X119314372Y-59143693D03*
X119314372Y-57873693D03*
X119314372Y-56603693D03*
X119314372Y-55333693D03*
X119314372Y-54063693D03*
%TD*%
D12*
%TO.C,C24*%
X137399972Y-53787493D03*
X137399972Y-52237493D03*
%TD*%
D16*
%TO.C,C21*%
X49484372Y-45787493D03*
X47934372Y-45787493D03*
%TD*%
D20*
%TO.C,C39*%
X60334372Y-79312493D03*
X61884372Y-79312493D03*
%TD*%
D21*
%TO.C,R8*%
X62684372Y-63512493D03*
X64334372Y-63512493D03*
%TD*%
D12*
%TO.C,C23*%
X116199972Y-53787493D03*
X116199972Y-52237493D03*
%TD*%
D22*
%TO.C,R12*%
X55209372Y-44037493D03*
X55209372Y-42387493D03*
%TD*%
D23*
%TO.C,X1*%
X64429572Y-67160593D03*
X62229572Y-67160593D03*
X62229572Y-65560593D03*
X64429572Y-65560593D03*
%TD*%
D24*
%TO.C,U3*%
X99409372Y-30962493D03*
X101709372Y-30962493D03*
X104009372Y-30962493D03*
D25*
X101709372Y-37262493D03*
%TD*%
D16*
%TO.C,C38*%
X71084372Y-57512493D03*
X69534372Y-57512493D03*
%TD*%
D12*
%TO.C,C3*%
X66162572Y-61650193D03*
X66162572Y-60100193D03*
%TD*%
D26*
%TO.C,U1*%
X71309372Y-63512493D03*
X72909372Y-63512493D03*
X71309372Y-61912493D03*
X72909372Y-61912493D03*
D27*
X74709372Y-66149993D03*
X74309372Y-66149993D03*
X73909372Y-66149993D03*
X73509372Y-66149993D03*
X73109372Y-66149993D03*
X72709372Y-66149993D03*
X72309372Y-66149993D03*
X71909372Y-66149993D03*
X71509372Y-66149993D03*
X71109372Y-66149993D03*
X70709372Y-66149993D03*
X70309372Y-66149993D03*
X69909372Y-66149993D03*
X69509372Y-66149993D03*
D28*
X68671872Y-65312493D03*
X68671872Y-64912493D03*
X68671872Y-64512493D03*
X68671872Y-64112493D03*
X68671872Y-63712493D03*
X68671872Y-63312493D03*
X68671872Y-62912493D03*
X68671872Y-62512493D03*
X68671872Y-62112493D03*
X68671872Y-61712493D03*
X68671872Y-61312493D03*
X68671872Y-60912493D03*
X68671872Y-60512493D03*
X68671872Y-60112493D03*
D27*
X69509372Y-59274993D03*
X69909372Y-59274993D03*
X70309372Y-59274993D03*
X70709372Y-59274993D03*
X71109372Y-59274993D03*
X71509372Y-59274993D03*
X71909372Y-59274993D03*
X72309372Y-59274993D03*
X72709372Y-59274993D03*
X73109372Y-59274993D03*
X73509372Y-59274993D03*
X73909372Y-59274993D03*
X74309372Y-59274993D03*
X74709372Y-59274993D03*
D28*
X75546872Y-60112493D03*
X75546872Y-60512493D03*
X75546872Y-60912493D03*
X75546872Y-61312493D03*
X75546872Y-61712493D03*
X75546872Y-62112493D03*
X75546872Y-62512493D03*
X75546872Y-62912493D03*
X75546872Y-63312493D03*
X75546872Y-63712493D03*
X75546872Y-64112493D03*
X75546872Y-64512493D03*
X75546872Y-64912493D03*
X75546872Y-65312493D03*
%TD*%
D20*
%TO.C,C10*%
X75129572Y-68160593D03*
X76679572Y-68160593D03*
%TD*%
D29*
%TO.C,J8*%
X85009372Y-42810993D03*
X86009373Y-42810993D03*
X87009371Y-42810993D03*
X88009372Y-42810993D03*
D30*
X89309371Y-38935992D03*
X83709373Y-38935992D03*
%TD*%
D12*
%TO.C,C9*%
X76529572Y-56935593D03*
X76529572Y-55385593D03*
%TD*%
D20*
%TO.C,C27*%
X52759372Y-64212493D03*
X54309372Y-64212493D03*
%TD*%
D11*
%TO.C,R6*%
X46634372Y-65312493D03*
X44984372Y-65312493D03*
%TD*%
D12*
%TO.C,C1*%
X81229572Y-59135593D03*
X81229572Y-57585593D03*
%TD*%
D15*
%TO.C,RN2*%
X107589372Y-60508693D03*
X107589372Y-59168693D03*
X107589372Y-57848693D03*
X107589372Y-56508693D03*
X110589372Y-56508693D03*
X110589372Y-57848693D03*
X110589372Y-59168693D03*
X110589372Y-60508693D03*
%TD*%
%TO.C,RN4*%
X127909372Y-60508693D03*
X127909372Y-59168693D03*
X127909372Y-57848693D03*
X127909372Y-56508693D03*
X130909372Y-56508693D03*
X130909372Y-57848693D03*
X130909372Y-59168693D03*
X130909372Y-60508693D03*
%TD*%
D16*
%TO.C,C34*%
X46584372Y-68912493D03*
X45034372Y-68912493D03*
%TD*%
D15*
%TO.C,RN3*%
X115669372Y-56508693D03*
X115669372Y-57848693D03*
X115669372Y-59168693D03*
X115669372Y-60508693D03*
X112669372Y-60508693D03*
X112669372Y-59168693D03*
X112669372Y-57848693D03*
X112669372Y-56508693D03*
%TD*%
%TO.C,RN11*%
X69829372Y-87447493D03*
X69829372Y-86107493D03*
X69829372Y-84787493D03*
X69829372Y-83447493D03*
X72829372Y-83447493D03*
X72829372Y-84787493D03*
X72829372Y-86107493D03*
X72829372Y-87447493D03*
%TD*%
D14*
%TO.C,U7*%
X165213772Y-54063693D03*
X165213772Y-55333693D03*
X165213772Y-56603693D03*
X165213772Y-57873693D03*
X165213772Y-59143693D03*
X165213772Y-60413693D03*
X165213772Y-61683693D03*
X165213772Y-62953693D03*
X160263772Y-62953693D03*
X160263772Y-61683693D03*
X160263772Y-60413693D03*
X160263772Y-59143693D03*
X160263772Y-57873693D03*
X160263772Y-56603693D03*
X160263772Y-55333693D03*
X160263772Y-54063693D03*
%TD*%
D20*
%TO.C,C5*%
X78154572Y-56412493D03*
X79704572Y-56412493D03*
%TD*%
%TO.C,C26*%
X58584372Y-57812493D03*
X60134372Y-57812493D03*
%TD*%
D15*
%TO.C,RN6*%
X148229372Y-60508693D03*
X148229372Y-59168693D03*
X148229372Y-57848693D03*
X148229372Y-56508693D03*
X151229372Y-56508693D03*
X151229372Y-57848693D03*
X151229372Y-59168693D03*
X151229372Y-60508693D03*
%TD*%
D19*
%TO.C,R14*%
X51209372Y-55587493D03*
X51209372Y-57237493D03*
%TD*%
D31*
%TO.C,U11*%
X48571872Y-68762493D03*
X48571872Y-67812493D03*
X48571872Y-66862493D03*
X50846872Y-66862493D03*
X50846872Y-68762493D03*
%TD*%
D11*
%TO.C,R4*%
X64354572Y-60360593D03*
X62704572Y-60360593D03*
%TD*%
D22*
%TO.C,R7*%
X46409372Y-44237493D03*
X46409372Y-42587493D03*
%TD*%
D11*
%TO.C,R3*%
X83683317Y-60740993D03*
X82033317Y-60740993D03*
%TD*%
D32*
%TO.C,U9*%
X48559372Y-65262493D03*
X48559372Y-64312493D03*
X48559372Y-63362493D03*
X50859372Y-63362493D03*
X50859372Y-64312493D03*
X50859372Y-65262493D03*
%TD*%
D20*
%TO.C,C4*%
X78934372Y-62812493D03*
X80484372Y-62812493D03*
%TD*%
D11*
%TO.C,R10*%
X57434372Y-64162493D03*
X55784372Y-64162493D03*
%TD*%
D13*
%TO.C,C20*%
X53609372Y-44137493D03*
X53609372Y-45687493D03*
%TD*%
D20*
%TO.C,C35*%
X53909372Y-57712493D03*
X55459372Y-57712493D03*
%TD*%
D15*
%TO.C,RN1*%
X95409372Y-55812493D03*
X95409372Y-57152493D03*
X95409372Y-58472493D03*
X95409372Y-59812493D03*
X92409372Y-59812493D03*
X92409372Y-58472493D03*
X92409372Y-57152493D03*
X92409372Y-55812493D03*
%TD*%
%TO.C,RN8*%
X170259372Y-63512493D03*
X170259372Y-62172493D03*
X170259372Y-60852493D03*
X170259372Y-59512493D03*
X173259372Y-59512493D03*
X173259372Y-60852493D03*
X173259372Y-62172493D03*
X173259372Y-63512493D03*
%TD*%
D20*
%TO.C,C2*%
X79696872Y-64412493D03*
X81246872Y-64412493D03*
%TD*%
%TO.C,C12*%
X78154572Y-59660593D03*
X79704572Y-59660593D03*
%TD*%
%TO.C,C36*%
X52634372Y-68712493D03*
X54184372Y-68712493D03*
%TD*%
D12*
%TO.C,C13*%
X66229572Y-67135593D03*
X66229572Y-65585593D03*
%TD*%
D11*
%TO.C,R2*%
X83683317Y-62290393D03*
X82033317Y-62290393D03*
%TD*%
D33*
%TO.C,U2*%
X93314372Y-69117493D03*
X92044372Y-69117493D03*
X90774372Y-69117493D03*
X89504372Y-69117493D03*
X89504372Y-61907493D03*
X90774372Y-61907493D03*
X92044372Y-61907493D03*
X93314372Y-61907493D03*
%TD*%
D15*
%TO.C,RN7*%
X156309372Y-56508693D03*
X156309372Y-57848693D03*
X156309372Y-59168693D03*
X156309372Y-60508693D03*
X153309372Y-60508693D03*
X153309372Y-59168693D03*
X153309372Y-57848693D03*
X153309372Y-56508693D03*
%TD*%
D12*
%TO.C,C19*%
X129712072Y-31283893D03*
X129712072Y-29733893D03*
%TD*%
%TO.C,C25*%
X157299972Y-53822693D03*
X157299972Y-52272693D03*
%TD*%
D14*
%TO.C,U4*%
X103944372Y-54063693D03*
X103944372Y-55333693D03*
X103944372Y-56603693D03*
X103944372Y-57873693D03*
X103944372Y-59143693D03*
X103944372Y-60413693D03*
X103944372Y-61683693D03*
X103944372Y-62953693D03*
X98994372Y-62953693D03*
X98994372Y-61683693D03*
X98994372Y-60413693D03*
X98994372Y-59143693D03*
X98994372Y-57873693D03*
X98994372Y-56603693D03*
X98994372Y-55333693D03*
X98994372Y-54063693D03*
%TD*%
D20*
%TO.C,C11*%
X78154572Y-57960593D03*
X79704572Y-57960593D03*
%TD*%
D13*
%TO.C,C31*%
X159809372Y-32987493D03*
X159809372Y-34537493D03*
%TD*%
D20*
%TO.C,C29*%
X42034372Y-74512493D03*
X43584372Y-74512493D03*
%TD*%
D12*
%TO.C,C22*%
X96809372Y-54087493D03*
X96809372Y-52537493D03*
%TD*%
D34*
%TO.C,C16*%
X96809372Y-31237493D03*
X96809372Y-34187493D03*
%TD*%
D22*
%TO.C,R1*%
X55209372Y-41012493D03*
X55209372Y-39362493D03*
%TD*%
D20*
%TO.C,C28*%
X42034372Y-72712493D03*
X43584372Y-72712493D03*
%TD*%
D34*
%TO.C,C17*%
X106609372Y-31337493D03*
X106609372Y-34287493D03*
%TD*%
D35*
%TO.C,U12*%
X58459372Y-61849993D03*
X57509372Y-61849993D03*
X56559372Y-61849993D03*
X56559372Y-59574993D03*
X58459372Y-59574993D03*
%TD*%
D10*
%TO.C,S3*%
X67078572Y-46151593D03*
X80503572Y-43611593D03*
%TD*%
%TO.C,S5*%
X109941072Y-46151593D03*
X123366072Y-43611593D03*
%TD*%
%TO.C,S21*%
X148041072Y-46151593D03*
X161466072Y-43611593D03*
%TD*%
M02*
