M48
; DRILL file {KiCad 8.0.4} date 2024-10-18T15:09:14-0500
; FORMAT={-:-/ absolute / inch / decimal}
; #@! TF.CreationDate,2024-10-18T15:09:14-05:00
; #@! TF.GenerationSoftware,Kicad,Pcbnew,8.0.4
; #@! TF.FileFunction,NonPlated,1,2,NPTH
FMAT,2
INCH
; #@! TA.AperFunction,NonPlated,NPTH,ComponentDrill
T1C0.0669
; #@! TA.AperFunction,NonPlated,NPTH,ComponentDrill
T2C0.1181
; #@! TA.AperFunction,NonPlated,NPTH,ComponentDrill
T3C0.1201
; #@! TA.AperFunction,NonPlated,NPTH,ComponentDrill
T4C0.1575
%
G90
G05
T1
X2.9309Y-1.7039
X3.3059Y-2.6414
X3.3309Y-1.7039
X3.6809Y-1.7039
X3.6809Y-3.3914
X3.7059Y-2.6414
X3.8684Y-4.1414
X4.0559Y-2.6414
X4.0809Y-1.7039
X4.0809Y-3.3914
X4.2434Y-4.8914
X4.2684Y-4.1414
X4.4309Y-1.7039
X4.4309Y-3.3914
X4.4559Y-2.6414
X4.6184Y-4.1414
X4.6434Y-4.8914
X4.8059Y-2.6414
X4.8309Y-1.7039
X4.8309Y-3.3914
X4.9934Y-4.8914
X5.0184Y-4.1414
X5.1809Y-1.7039
X5.1809Y-3.3914
X5.2059Y-2.6414
X5.3684Y-4.1414
X5.3934Y-4.8914
X5.5559Y-2.6414
X5.5809Y-1.7039
X5.5809Y-3.3914
X5.7434Y-4.8914
X5.7684Y-4.1414
X5.9309Y-3.3914
X5.9559Y-2.6414
X6.1184Y-1.7039
X6.1184Y-4.1414
X6.1434Y-4.8914
X6.3059Y-2.6414
X6.3059Y-5.6414
X6.3309Y-3.3914
X6.4934Y-4.8914
X6.5184Y-1.7039
X6.5184Y-4.1414
X6.6809Y-3.3914
X6.7059Y-2.6414
X6.7059Y-5.6414
X6.8684Y-1.7039
X6.8684Y-4.1414
X6.8934Y-4.8914
X7.0559Y-2.6414
X7.0559Y-5.6414
X7.0809Y-3.3914
X7.2434Y-4.8914
X7.2684Y-1.7039
X7.2684Y-4.1414
X7.4309Y-3.3914
X7.4559Y-2.6414
X7.4559Y-5.6414
X7.6184Y-1.7039
X7.6184Y-4.1414
X7.6434Y-4.8914
X7.8059Y-2.6414
X7.8059Y-5.6414
X7.8309Y-3.3914
X8.0184Y-1.7039
X8.0184Y-4.1414
X8.1809Y-3.3914
X8.2059Y-2.6414
X8.2059Y-5.6414
X8.2747Y-4.8914
X8.3684Y-1.7039
X8.5809Y-3.3914
X8.6747Y-4.8914
X8.7434Y-5.8289
X8.7684Y-1.7039
X8.8372Y-4.1414
X8.9309Y-2.6414
X9.1184Y-3.3914
X9.1434Y-5.8289
X9.2372Y-4.1414
X9.3059Y-1.7039
X9.3309Y-2.6414
X9.4934Y-5.0789
X9.4934Y-5.8289
X9.5184Y-3.3914
X9.7059Y-1.7039
X9.8934Y-5.0789
X9.8934Y-5.8289
X10.2434Y-1.7039
X10.2434Y-2.6414
X10.2434Y-3.3914
X10.2434Y-4.1414
X10.2434Y-5.8289
X10.6434Y-1.7039
X10.6434Y-2.6414
X10.6434Y-3.3914
X10.6434Y-4.1414
X10.6434Y-5.8289
T2
X2.9809Y-1.6039
X3.2309Y-1.5039
X3.3559Y-2.5414
X3.6059Y-2.4414
X3.7309Y-1.6039
X3.7309Y-3.2914
X3.9184Y-4.0414
X3.9809Y-1.5039
X3.9809Y-3.1914
X4.1059Y-2.5414
X4.1684Y-3.9414
X4.2934Y-4.7914
X4.3559Y-2.4414
X4.4809Y-1.6039
X4.4809Y-3.2914
X4.5434Y-4.6914
X4.6684Y-4.0414
X4.7309Y-1.5039
X4.7309Y-3.1914
X4.8559Y-2.5414
X4.9184Y-3.9414
X5.0434Y-4.7914
X5.1059Y-2.4414
X5.2309Y-1.6039
X5.2309Y-3.2914
X5.2934Y-4.6914
X5.4184Y-4.0414
X5.4809Y-1.5039
X5.4809Y-3.1914
X5.6059Y-2.5414
X5.6684Y-3.9414
X5.7934Y-4.7914
X5.8559Y-2.4414
X5.9809Y-3.2914
X6.0434Y-4.6914
X6.1684Y-1.6039
X6.1684Y-4.0414
X6.2309Y-3.1914
X6.3559Y-2.5414
X6.3559Y-5.5414
X6.4184Y-1.5039
X6.4184Y-3.9414
X6.5434Y-4.7914
X6.6059Y-2.4414
X6.6059Y-5.4414
X6.7309Y-3.2914
X6.7934Y-4.6914
X6.9184Y-1.6039
X6.9184Y-4.0414
X6.9809Y-3.1914
X7.1059Y-2.5414
X7.1059Y-5.5414
X7.1684Y-1.5039
X7.1684Y-3.9414
X7.2934Y-4.7914
X7.3559Y-2.4414
X7.3559Y-5.4414
X7.4809Y-3.2914
X7.5434Y-4.6914
X7.6684Y-1.6039
X7.6684Y-4.0414
X7.7309Y-3.1914
X7.8559Y-2.5414
X7.8559Y-5.5414
X7.9184Y-1.5039
X7.9184Y-3.9414
X8.1059Y-2.4414
X8.1059Y-5.4414
X8.2309Y-3.2914
X8.3247Y-4.7914
X8.4184Y-1.6039
X8.4809Y-3.1914
X8.5747Y-4.6914
X8.6684Y-1.5039
X8.7934Y-5.7289
X8.8872Y-4.0414
X8.9809Y-2.5414
X9.0434Y-5.6289
X9.1372Y-3.9414
X9.1684Y-3.2914
X9.2309Y-2.4414
X9.3559Y-1.6039
X9.4184Y-3.1914
X9.5434Y-4.9789
X9.5434Y-5.7289
X9.6059Y-1.5039
X9.7934Y-4.8789
X9.7934Y-5.6289
X10.2934Y-1.6039
X10.2934Y-2.5414
X10.2934Y-3.2914
X10.2934Y-4.0414
X10.2934Y-5.7289
X10.5434Y-1.5039
X10.5434Y-2.4414
X10.5434Y-3.1914
X10.5434Y-3.9414
X10.5434Y-5.6289
T3
X8.5687Y-3.8668
X8.6624Y-2.3658
X9.5057Y-3.8668
X9.5994Y-2.3658
T4
X3.1309Y-1.7039
X3.5059Y-2.6414
X3.8809Y-1.7039
X3.8809Y-3.3914
X4.0684Y-4.1414
X4.2559Y-2.6414
X4.4434Y-4.8914
X4.6309Y-1.7039
X4.6309Y-3.3914
X4.8184Y-4.1414
X5.0059Y-2.6414
X5.1934Y-4.8914
X5.3809Y-1.7039
X5.3809Y-3.3914
X5.5684Y-4.1414
X5.7559Y-2.6414
X5.9434Y-4.8914
X6.1309Y-3.3914
X6.3184Y-1.7039
X6.3184Y-4.1414
X6.5059Y-2.6414
X6.5059Y-5.6414
X6.6934Y-4.8914
X6.8809Y-3.3914
X7.0684Y-1.7039
X7.0684Y-4.1414
X7.2559Y-2.6414
X7.2559Y-5.6414
X7.4434Y-4.8914
X7.6309Y-3.3914
X7.8184Y-1.7039
X7.8184Y-4.1414
X8.0059Y-2.6414
X8.0059Y-5.6414
X8.3809Y-3.3914
X8.4747Y-4.8914
X8.5684Y-1.7039
X8.5687Y-4.4668
X8.6624Y-2.9658
X8.9434Y-5.8289
X9.0372Y-4.1414
X9.1309Y-2.6414
X9.3184Y-3.3914
X9.5057Y-4.4668
X9.5059Y-1.7039
X9.5994Y-2.9658
X9.6934Y-5.0789
X9.6934Y-5.8289
X10.4434Y-1.7039
X10.4434Y-2.6414
X10.4434Y-3.3914
X10.4434Y-4.1414
X10.4434Y-5.8289
M30
