%TF.GenerationSoftware,KiCad,Pcbnew,8.0.4*%
%TF.CreationDate,2024-10-18T15:09:13-05:00*%
%TF.ProjectId,numlocked_right,6e756d6c-6f63-46b6-9564-5f7269676874,rev?*%
%TF.SameCoordinates,Original*%
%TF.FileFunction,Legend,Top*%
%TF.FilePolarity,Positive*%
%FSLAX46Y46*%
G04 Gerber Fmt 4.6, Leading zero omitted, Abs format (unit mm)*
G04 Created by KiCad (PCBNEW 8.0.4) date 2024-10-18 15:09:13*
%MOMM*%
%LPD*%
G01*
G04 APERTURE LIST*
G04 Aperture macros list*
%AMRoundRect*
0 Rectangle with rounded corners*
0 $1 Rounding radius*
0 $2 $3 $4 $5 $6 $7 $8 $9 X,Y pos of 4 corners*
0 Add a 4 corners polygon primitive as box body*
4,1,4,$2,$3,$4,$5,$6,$7,$8,$9,$2,$3,0*
0 Add four circle primitives for the rounded corners*
1,1,$1+$1,$2,$3*
1,1,$1+$1,$4,$5*
1,1,$1+$1,$6,$7*
1,1,$1+$1,$8,$9*
0 Add four rect primitives between the rounded corners*
20,1,$1+$1,$2,$3,$4,$5,0*
20,1,$1+$1,$4,$5,$6,$7,0*
20,1,$1+$1,$6,$7,$8,$9,0*
20,1,$1+$1,$8,$9,$2,$3,0*%
G04 Aperture macros list end*
%ADD10C,0.300000*%
%ADD11C,0.000000*%
%ADD12C,0.120000*%
%ADD13C,1.700000*%
%ADD14C,3.000000*%
%ADD15C,4.000000*%
%ADD16C,3.050000*%
%ADD17C,1.800000*%
%ADD18C,4.400000*%
%ADD19RoundRect,0.243750X-0.456250X0.243750X-0.456250X-0.243750X0.456250X-0.243750X0.456250X0.243750X0*%
%ADD20RoundRect,0.243750X0.456250X-0.243750X0.456250X0.243750X-0.456250X0.243750X-0.456250X-0.243750X0*%
G04 APERTURE END LIST*
D10*
X264454510Y-130487257D02*
X264454510Y-131439638D01*
X263787844Y-129439638D02*
X264454510Y-130487257D01*
X264454510Y-130487257D02*
X265121177Y-129439638D01*
X266644987Y-130106304D02*
X266644987Y-131439638D01*
X265787844Y-130106304D02*
X265787844Y-131153923D01*
X265787844Y-131153923D02*
X265883082Y-131344400D01*
X265883082Y-131344400D02*
X266073558Y-131439638D01*
X266073558Y-131439638D02*
X266359273Y-131439638D01*
X266359273Y-131439638D02*
X266549749Y-131344400D01*
X266549749Y-131344400D02*
X266644987Y-131249161D01*
X267597368Y-131439638D02*
X267597368Y-129439638D01*
X268454511Y-131439638D02*
X268454511Y-130392019D01*
X268454511Y-130392019D02*
X268359273Y-130201542D01*
X268359273Y-130201542D02*
X268168797Y-130106304D01*
X268168797Y-130106304D02*
X267883082Y-130106304D01*
X267883082Y-130106304D02*
X267692606Y-130201542D01*
X267692606Y-130201542D02*
X267597368Y-130296780D01*
X269406892Y-131439638D02*
X269406892Y-129439638D01*
X270549749Y-131439638D02*
X269692606Y-130296780D01*
X270549749Y-129439638D02*
X269406892Y-130582495D01*
X272264035Y-130106304D02*
X272264035Y-131439638D01*
X271406892Y-130106304D02*
X271406892Y-131153923D01*
X271406892Y-131153923D02*
X271502130Y-131344400D01*
X271502130Y-131344400D02*
X271692606Y-131439638D01*
X271692606Y-131439638D02*
X271978321Y-131439638D01*
X271978321Y-131439638D02*
X272168797Y-131344400D01*
X272168797Y-131344400D02*
X272264035Y-131249161D01*
X273216416Y-131439638D02*
X273216416Y-130106304D01*
X273216416Y-130487257D02*
X273311654Y-130296780D01*
X273311654Y-130296780D02*
X273406892Y-130201542D01*
X273406892Y-130201542D02*
X273597368Y-130106304D01*
X273597368Y-130106304D02*
X273787845Y-130106304D01*
X274740225Y-131439638D02*
X274549749Y-131344400D01*
X274549749Y-131344400D02*
X274454511Y-131249161D01*
X274454511Y-131249161D02*
X274359273Y-131058685D01*
X274359273Y-131058685D02*
X274359273Y-130487257D01*
X274359273Y-130487257D02*
X274454511Y-130296780D01*
X274454511Y-130296780D02*
X274549749Y-130201542D01*
X274549749Y-130201542D02*
X274740225Y-130106304D01*
X274740225Y-130106304D02*
X275025940Y-130106304D01*
X275025940Y-130106304D02*
X275216416Y-130201542D01*
X275216416Y-130201542D02*
X275311654Y-130296780D01*
X275311654Y-130296780D02*
X275406892Y-130487257D01*
X275406892Y-130487257D02*
X275406892Y-131058685D01*
X275406892Y-131058685D02*
X275311654Y-131249161D01*
X275311654Y-131249161D02*
X275216416Y-131344400D01*
X275216416Y-131344400D02*
X275025940Y-131439638D01*
X275025940Y-131439638D02*
X274740225Y-131439638D01*
X258273558Y-127939638D02*
X258273558Y-125939638D01*
X258273558Y-125939638D02*
X258749748Y-125939638D01*
X258749748Y-125939638D02*
X259035463Y-126034876D01*
X259035463Y-126034876D02*
X259225939Y-126225352D01*
X259225939Y-126225352D02*
X259321177Y-126415828D01*
X259321177Y-126415828D02*
X259416415Y-126796780D01*
X259416415Y-126796780D02*
X259416415Y-127082495D01*
X259416415Y-127082495D02*
X259321177Y-127463447D01*
X259321177Y-127463447D02*
X259225939Y-127653923D01*
X259225939Y-127653923D02*
X259035463Y-127844400D01*
X259035463Y-127844400D02*
X258749748Y-127939638D01*
X258749748Y-127939638D02*
X258273558Y-127939638D01*
X261035463Y-127844400D02*
X260844987Y-127939638D01*
X260844987Y-127939638D02*
X260464034Y-127939638D01*
X260464034Y-127939638D02*
X260273558Y-127844400D01*
X260273558Y-127844400D02*
X260178320Y-127653923D01*
X260178320Y-127653923D02*
X260178320Y-126892019D01*
X260178320Y-126892019D02*
X260273558Y-126701542D01*
X260273558Y-126701542D02*
X260464034Y-126606304D01*
X260464034Y-126606304D02*
X260844987Y-126606304D01*
X260844987Y-126606304D02*
X261035463Y-126701542D01*
X261035463Y-126701542D02*
X261130701Y-126892019D01*
X261130701Y-126892019D02*
X261130701Y-127082495D01*
X261130701Y-127082495D02*
X260178320Y-127272971D01*
X261892606Y-127844400D02*
X262083082Y-127939638D01*
X262083082Y-127939638D02*
X262464034Y-127939638D01*
X262464034Y-127939638D02*
X262654511Y-127844400D01*
X262654511Y-127844400D02*
X262749749Y-127653923D01*
X262749749Y-127653923D02*
X262749749Y-127558685D01*
X262749749Y-127558685D02*
X262654511Y-127368209D01*
X262654511Y-127368209D02*
X262464034Y-127272971D01*
X262464034Y-127272971D02*
X262178320Y-127272971D01*
X262178320Y-127272971D02*
X261987844Y-127177733D01*
X261987844Y-127177733D02*
X261892606Y-126987257D01*
X261892606Y-126987257D02*
X261892606Y-126892019D01*
X261892606Y-126892019D02*
X261987844Y-126701542D01*
X261987844Y-126701542D02*
X262178320Y-126606304D01*
X262178320Y-126606304D02*
X262464034Y-126606304D01*
X262464034Y-126606304D02*
X262654511Y-126701542D01*
X263606892Y-127939638D02*
X263606892Y-126606304D01*
X263606892Y-125939638D02*
X263511654Y-126034876D01*
X263511654Y-126034876D02*
X263606892Y-126130114D01*
X263606892Y-126130114D02*
X263702130Y-126034876D01*
X263702130Y-126034876D02*
X263606892Y-125939638D01*
X263606892Y-125939638D02*
X263606892Y-126130114D01*
X265416416Y-126606304D02*
X265416416Y-128225352D01*
X265416416Y-128225352D02*
X265321178Y-128415828D01*
X265321178Y-128415828D02*
X265225940Y-128511066D01*
X265225940Y-128511066D02*
X265035463Y-128606304D01*
X265035463Y-128606304D02*
X264749749Y-128606304D01*
X264749749Y-128606304D02*
X264559273Y-128511066D01*
X265416416Y-127844400D02*
X265225940Y-127939638D01*
X265225940Y-127939638D02*
X264844987Y-127939638D01*
X264844987Y-127939638D02*
X264654511Y-127844400D01*
X264654511Y-127844400D02*
X264559273Y-127749161D01*
X264559273Y-127749161D02*
X264464035Y-127558685D01*
X264464035Y-127558685D02*
X264464035Y-126987257D01*
X264464035Y-126987257D02*
X264559273Y-126796780D01*
X264559273Y-126796780D02*
X264654511Y-126701542D01*
X264654511Y-126701542D02*
X264844987Y-126606304D01*
X264844987Y-126606304D02*
X265225940Y-126606304D01*
X265225940Y-126606304D02*
X265416416Y-126701542D01*
X266368797Y-126606304D02*
X266368797Y-127939638D01*
X266368797Y-126796780D02*
X266464035Y-126701542D01*
X266464035Y-126701542D02*
X266654511Y-126606304D01*
X266654511Y-126606304D02*
X266940226Y-126606304D01*
X266940226Y-126606304D02*
X267130702Y-126701542D01*
X267130702Y-126701542D02*
X267225940Y-126892019D01*
X267225940Y-126892019D02*
X267225940Y-127939638D01*
X268940226Y-127844400D02*
X268749750Y-127939638D01*
X268749750Y-127939638D02*
X268368797Y-127939638D01*
X268368797Y-127939638D02*
X268178321Y-127844400D01*
X268178321Y-127844400D02*
X268083083Y-127653923D01*
X268083083Y-127653923D02*
X268083083Y-126892019D01*
X268083083Y-126892019D02*
X268178321Y-126701542D01*
X268178321Y-126701542D02*
X268368797Y-126606304D01*
X268368797Y-126606304D02*
X268749750Y-126606304D01*
X268749750Y-126606304D02*
X268940226Y-126701542D01*
X268940226Y-126701542D02*
X269035464Y-126892019D01*
X269035464Y-126892019D02*
X269035464Y-127082495D01*
X269035464Y-127082495D02*
X268083083Y-127272971D01*
X270749750Y-127939638D02*
X270749750Y-125939638D01*
X270749750Y-127844400D02*
X270559274Y-127939638D01*
X270559274Y-127939638D02*
X270178321Y-127939638D01*
X270178321Y-127939638D02*
X269987845Y-127844400D01*
X269987845Y-127844400D02*
X269892607Y-127749161D01*
X269892607Y-127749161D02*
X269797369Y-127558685D01*
X269797369Y-127558685D02*
X269797369Y-126987257D01*
X269797369Y-126987257D02*
X269892607Y-126796780D01*
X269892607Y-126796780D02*
X269987845Y-126701542D01*
X269987845Y-126701542D02*
X270178321Y-126606304D01*
X270178321Y-126606304D02*
X270559274Y-126606304D01*
X270559274Y-126606304D02*
X270749750Y-126701542D01*
X273225941Y-127939638D02*
X273225941Y-125939638D01*
X273225941Y-126701542D02*
X273416417Y-126606304D01*
X273416417Y-126606304D02*
X273797370Y-126606304D01*
X273797370Y-126606304D02*
X273987846Y-126701542D01*
X273987846Y-126701542D02*
X274083084Y-126796780D01*
X274083084Y-126796780D02*
X274178322Y-126987257D01*
X274178322Y-126987257D02*
X274178322Y-127558685D01*
X274178322Y-127558685D02*
X274083084Y-127749161D01*
X274083084Y-127749161D02*
X273987846Y-127844400D01*
X273987846Y-127844400D02*
X273797370Y-127939638D01*
X273797370Y-127939638D02*
X273416417Y-127939638D01*
X273416417Y-127939638D02*
X273225941Y-127844400D01*
X274844989Y-126606304D02*
X275321179Y-127939638D01*
X275797370Y-126606304D02*
X275321179Y-127939638D01*
X275321179Y-127939638D02*
X275130703Y-128415828D01*
X275130703Y-128415828D02*
X275035465Y-128511066D01*
X275035465Y-128511066D02*
X274844989Y-128606304D01*
X245073558Y-35839638D02*
X245073558Y-33839638D01*
X245073558Y-33839638D02*
X246216415Y-35839638D01*
X246216415Y-35839638D02*
X246216415Y-33839638D01*
X248025939Y-34506304D02*
X248025939Y-35839638D01*
X247168796Y-34506304D02*
X247168796Y-35553923D01*
X247168796Y-35553923D02*
X247264034Y-35744400D01*
X247264034Y-35744400D02*
X247454510Y-35839638D01*
X247454510Y-35839638D02*
X247740225Y-35839638D01*
X247740225Y-35839638D02*
X247930701Y-35744400D01*
X247930701Y-35744400D02*
X248025939Y-35649161D01*
X248978320Y-35839638D02*
X248978320Y-34506304D01*
X248978320Y-34696780D02*
X249073558Y-34601542D01*
X249073558Y-34601542D02*
X249264034Y-34506304D01*
X249264034Y-34506304D02*
X249549749Y-34506304D01*
X249549749Y-34506304D02*
X249740225Y-34601542D01*
X249740225Y-34601542D02*
X249835463Y-34792019D01*
X249835463Y-34792019D02*
X249835463Y-35839638D01*
X249835463Y-34792019D02*
X249930701Y-34601542D01*
X249930701Y-34601542D02*
X250121177Y-34506304D01*
X250121177Y-34506304D02*
X250406891Y-34506304D01*
X250406891Y-34506304D02*
X250597368Y-34601542D01*
X250597368Y-34601542D02*
X250692606Y-34792019D01*
X250692606Y-34792019D02*
X250692606Y-35839638D01*
X251930701Y-35839638D02*
X251740225Y-35744400D01*
X251740225Y-35744400D02*
X251644987Y-35553923D01*
X251644987Y-35553923D02*
X251644987Y-33839638D01*
X252978320Y-35839638D02*
X252787844Y-35744400D01*
X252787844Y-35744400D02*
X252692606Y-35649161D01*
X252692606Y-35649161D02*
X252597368Y-35458685D01*
X252597368Y-35458685D02*
X252597368Y-34887257D01*
X252597368Y-34887257D02*
X252692606Y-34696780D01*
X252692606Y-34696780D02*
X252787844Y-34601542D01*
X252787844Y-34601542D02*
X252978320Y-34506304D01*
X252978320Y-34506304D02*
X253264035Y-34506304D01*
X253264035Y-34506304D02*
X253454511Y-34601542D01*
X253454511Y-34601542D02*
X253549749Y-34696780D01*
X253549749Y-34696780D02*
X253644987Y-34887257D01*
X253644987Y-34887257D02*
X253644987Y-35458685D01*
X253644987Y-35458685D02*
X253549749Y-35649161D01*
X253549749Y-35649161D02*
X253454511Y-35744400D01*
X253454511Y-35744400D02*
X253264035Y-35839638D01*
X253264035Y-35839638D02*
X252978320Y-35839638D01*
X255359273Y-35744400D02*
X255168797Y-35839638D01*
X255168797Y-35839638D02*
X254787844Y-35839638D01*
X254787844Y-35839638D02*
X254597368Y-35744400D01*
X254597368Y-35744400D02*
X254502130Y-35649161D01*
X254502130Y-35649161D02*
X254406892Y-35458685D01*
X254406892Y-35458685D02*
X254406892Y-34887257D01*
X254406892Y-34887257D02*
X254502130Y-34696780D01*
X254502130Y-34696780D02*
X254597368Y-34601542D01*
X254597368Y-34601542D02*
X254787844Y-34506304D01*
X254787844Y-34506304D02*
X255168797Y-34506304D01*
X255168797Y-34506304D02*
X255359273Y-34601542D01*
X256216416Y-35839638D02*
X256216416Y-33839638D01*
X256406892Y-35077733D02*
X256978321Y-35839638D01*
X256978321Y-34506304D02*
X256216416Y-35268209D01*
X258597369Y-35744400D02*
X258406893Y-35839638D01*
X258406893Y-35839638D02*
X258025940Y-35839638D01*
X258025940Y-35839638D02*
X257835464Y-35744400D01*
X257835464Y-35744400D02*
X257740226Y-35553923D01*
X257740226Y-35553923D02*
X257740226Y-34792019D01*
X257740226Y-34792019D02*
X257835464Y-34601542D01*
X257835464Y-34601542D02*
X258025940Y-34506304D01*
X258025940Y-34506304D02*
X258406893Y-34506304D01*
X258406893Y-34506304D02*
X258597369Y-34601542D01*
X258597369Y-34601542D02*
X258692607Y-34792019D01*
X258692607Y-34792019D02*
X258692607Y-34982495D01*
X258692607Y-34982495D02*
X257740226Y-35172971D01*
X260406893Y-35839638D02*
X260406893Y-33839638D01*
X260406893Y-35744400D02*
X260216417Y-35839638D01*
X260216417Y-35839638D02*
X259835464Y-35839638D01*
X259835464Y-35839638D02*
X259644988Y-35744400D01*
X259644988Y-35744400D02*
X259549750Y-35649161D01*
X259549750Y-35649161D02*
X259454512Y-35458685D01*
X259454512Y-35458685D02*
X259454512Y-34887257D01*
X259454512Y-34887257D02*
X259549750Y-34696780D01*
X259549750Y-34696780D02*
X259644988Y-34601542D01*
X259644988Y-34601542D02*
X259835464Y-34506304D01*
X259835464Y-34506304D02*
X260216417Y-34506304D01*
X260216417Y-34506304D02*
X260406893Y-34601542D01*
X261359274Y-35649161D02*
X261454512Y-35744400D01*
X261454512Y-35744400D02*
X261359274Y-35839638D01*
X261359274Y-35839638D02*
X261264036Y-35744400D01*
X261264036Y-35744400D02*
X261359274Y-35649161D01*
X261359274Y-35649161D02*
X261359274Y-35839638D01*
X261359274Y-34601542D02*
X261454512Y-34696780D01*
X261454512Y-34696780D02*
X261359274Y-34792019D01*
X261359274Y-34792019D02*
X261264036Y-34696780D01*
X261264036Y-34696780D02*
X261359274Y-34601542D01*
X261359274Y-34601542D02*
X261359274Y-34792019D01*
X263740227Y-35744400D02*
X264025941Y-35839638D01*
X264025941Y-35839638D02*
X264502132Y-35839638D01*
X264502132Y-35839638D02*
X264692608Y-35744400D01*
X264692608Y-35744400D02*
X264787846Y-35649161D01*
X264787846Y-35649161D02*
X264883084Y-35458685D01*
X264883084Y-35458685D02*
X264883084Y-35268209D01*
X264883084Y-35268209D02*
X264787846Y-35077733D01*
X264787846Y-35077733D02*
X264692608Y-34982495D01*
X264692608Y-34982495D02*
X264502132Y-34887257D01*
X264502132Y-34887257D02*
X264121179Y-34792019D01*
X264121179Y-34792019D02*
X263930703Y-34696780D01*
X263930703Y-34696780D02*
X263835465Y-34601542D01*
X263835465Y-34601542D02*
X263740227Y-34411066D01*
X263740227Y-34411066D02*
X263740227Y-34220590D01*
X263740227Y-34220590D02*
X263835465Y-34030114D01*
X263835465Y-34030114D02*
X263930703Y-33934876D01*
X263930703Y-33934876D02*
X264121179Y-33839638D01*
X264121179Y-33839638D02*
X264597370Y-33839638D01*
X264597370Y-33839638D02*
X264883084Y-33934876D01*
X265740227Y-35839638D02*
X265740227Y-33839638D01*
X266597370Y-35839638D02*
X266597370Y-34792019D01*
X266597370Y-34792019D02*
X266502132Y-34601542D01*
X266502132Y-34601542D02*
X266311656Y-34506304D01*
X266311656Y-34506304D02*
X266025941Y-34506304D01*
X266025941Y-34506304D02*
X265835465Y-34601542D01*
X265835465Y-34601542D02*
X265740227Y-34696780D01*
X267549751Y-35839638D02*
X267549751Y-34506304D01*
X267549751Y-33839638D02*
X267454513Y-33934876D01*
X267454513Y-33934876D02*
X267549751Y-34030114D01*
X267549751Y-34030114D02*
X267644989Y-33934876D01*
X267644989Y-33934876D02*
X267549751Y-33839638D01*
X267549751Y-33839638D02*
X267549751Y-34030114D01*
X268216418Y-34506304D02*
X268978322Y-34506304D01*
X268502132Y-35839638D02*
X268502132Y-34125352D01*
X268502132Y-34125352D02*
X268597370Y-33934876D01*
X268597370Y-33934876D02*
X268787846Y-33839638D01*
X268787846Y-33839638D02*
X268978322Y-33839638D01*
X269359275Y-34506304D02*
X270121179Y-34506304D01*
X269644989Y-33839638D02*
X269644989Y-35553923D01*
X269644989Y-35553923D02*
X269740227Y-35744400D01*
X269740227Y-35744400D02*
X269930703Y-35839638D01*
X269930703Y-35839638D02*
X270121179Y-35839638D01*
X181578572Y-146049757D02*
X181435715Y-145978328D01*
X181435715Y-145978328D02*
X181221429Y-145978328D01*
X181221429Y-145978328D02*
X181007143Y-146049757D01*
X181007143Y-146049757D02*
X180864286Y-146192614D01*
X180864286Y-146192614D02*
X180792857Y-146335471D01*
X180792857Y-146335471D02*
X180721429Y-146621185D01*
X180721429Y-146621185D02*
X180721429Y-146835471D01*
X180721429Y-146835471D02*
X180792857Y-147121185D01*
X180792857Y-147121185D02*
X180864286Y-147264042D01*
X180864286Y-147264042D02*
X181007143Y-147406900D01*
X181007143Y-147406900D02*
X181221429Y-147478328D01*
X181221429Y-147478328D02*
X181364286Y-147478328D01*
X181364286Y-147478328D02*
X181578572Y-147406900D01*
X181578572Y-147406900D02*
X181650000Y-147335471D01*
X181650000Y-147335471D02*
X181650000Y-146835471D01*
X181650000Y-146835471D02*
X181364286Y-146835471D01*
X182507143Y-145978328D02*
X182507143Y-146335471D01*
X182150000Y-146192614D02*
X182507143Y-146335471D01*
X182507143Y-146335471D02*
X182864286Y-146192614D01*
X182292857Y-146621185D02*
X182507143Y-146335471D01*
X182507143Y-146335471D02*
X182721429Y-146621185D01*
X183650000Y-145978328D02*
X183650000Y-146335471D01*
X183292857Y-146192614D02*
X183650000Y-146335471D01*
X183650000Y-146335471D02*
X184007143Y-146192614D01*
X183435714Y-146621185D02*
X183650000Y-146335471D01*
X183650000Y-146335471D02*
X183864286Y-146621185D01*
X184792857Y-145978328D02*
X184792857Y-146335471D01*
X184435714Y-146192614D02*
X184792857Y-146335471D01*
X184792857Y-146335471D02*
X185150000Y-146192614D01*
X184578571Y-146621185D02*
X184792857Y-146335471D01*
X184792857Y-146335471D02*
X185007143Y-146621185D01*
X242478572Y-146049757D02*
X242335715Y-145978328D01*
X242335715Y-145978328D02*
X242121429Y-145978328D01*
X242121429Y-145978328D02*
X241907143Y-146049757D01*
X241907143Y-146049757D02*
X241764286Y-146192614D01*
X241764286Y-146192614D02*
X241692857Y-146335471D01*
X241692857Y-146335471D02*
X241621429Y-146621185D01*
X241621429Y-146621185D02*
X241621429Y-146835471D01*
X241621429Y-146835471D02*
X241692857Y-147121185D01*
X241692857Y-147121185D02*
X241764286Y-147264042D01*
X241764286Y-147264042D02*
X241907143Y-147406900D01*
X241907143Y-147406900D02*
X242121429Y-147478328D01*
X242121429Y-147478328D02*
X242264286Y-147478328D01*
X242264286Y-147478328D02*
X242478572Y-147406900D01*
X242478572Y-147406900D02*
X242550000Y-147335471D01*
X242550000Y-147335471D02*
X242550000Y-146835471D01*
X242550000Y-146835471D02*
X242264286Y-146835471D01*
X243407143Y-145978328D02*
X243407143Y-146335471D01*
X243050000Y-146192614D02*
X243407143Y-146335471D01*
X243407143Y-146335471D02*
X243764286Y-146192614D01*
X243192857Y-146621185D02*
X243407143Y-146335471D01*
X243407143Y-146335471D02*
X243621429Y-146621185D01*
X244550000Y-145978328D02*
X244550000Y-146335471D01*
X244192857Y-146192614D02*
X244550000Y-146335471D01*
X244550000Y-146335471D02*
X244907143Y-146192614D01*
X244335714Y-146621185D02*
X244550000Y-146335471D01*
X244550000Y-146335471D02*
X244764286Y-146621185D01*
X245692857Y-145978328D02*
X245692857Y-146335471D01*
X245335714Y-146192614D02*
X245692857Y-146335471D01*
X245692857Y-146335471D02*
X246050000Y-146192614D01*
X245478571Y-146621185D02*
X245692857Y-146335471D01*
X245692857Y-146335471D02*
X245907143Y-146621185D01*
D11*
%TO.C,G\u002A\u002A\u002A*%
G36*
X259162856Y-28106921D02*
G01*
X259089415Y-28293028D01*
X259032527Y-28405238D01*
X258903994Y-28645767D01*
X258824919Y-28781293D01*
X258784157Y-28827971D01*
X258770565Y-28801954D01*
X258770107Y-28785648D01*
X258727838Y-28693105D01*
X258629011Y-28567949D01*
X258544437Y-28431617D01*
X258572861Y-28308935D01*
X258722126Y-28183519D01*
X258846477Y-28113654D01*
X259046085Y-28024598D01*
X259149979Y-28019899D01*
X259162856Y-28106921D01*
G37*
G36*
X257387005Y-30018420D02*
G01*
X257434655Y-30327238D01*
X257409232Y-30476566D01*
X257360161Y-30767894D01*
X257345967Y-31140840D01*
X257364608Y-31546681D01*
X257414043Y-31936698D01*
X257482829Y-32232791D01*
X257650530Y-32623368D01*
X257889680Y-32977279D01*
X258171925Y-33257860D01*
X258377694Y-33389891D01*
X258600773Y-33499836D01*
X258126640Y-33491230D01*
X257853131Y-33483307D01*
X257605619Y-33471091D01*
X257449307Y-33458378D01*
X257123335Y-33419534D01*
X256902312Y-33385522D01*
X256757203Y-33341190D01*
X256658971Y-33271387D01*
X256578580Y-33160963D01*
X256486996Y-32994765D01*
X256458093Y-32941148D01*
X256352821Y-32738416D01*
X256286157Y-32572238D01*
X256249332Y-32400386D01*
X256233575Y-32180634D01*
X256230115Y-31870757D01*
X256230107Y-31843454D01*
X256243925Y-31437632D01*
X256296198Y-31114859D01*
X256403155Y-30836165D01*
X256581024Y-30562581D01*
X256846034Y-30255137D01*
X256927554Y-30168681D01*
X257303253Y-29774800D01*
X257387005Y-30018420D01*
G37*
G36*
X258702373Y-30407898D02*
G01*
X258753871Y-30876247D01*
X258897377Y-31375180D01*
X259116413Y-31854155D01*
X259239965Y-32056809D01*
X259543575Y-32461370D01*
X259860492Y-32773233D01*
X260232511Y-33032140D01*
X260317055Y-33080979D01*
X260496351Y-33191518D01*
X260605427Y-33278222D01*
X260621855Y-33318979D01*
X260530093Y-33342085D01*
X260343058Y-33369809D01*
X260100538Y-33396290D01*
X260090907Y-33397180D01*
X259817934Y-33422803D01*
X259570743Y-33446982D01*
X259413573Y-33463329D01*
X259241299Y-33453105D01*
X259001589Y-33403506D01*
X258797115Y-33342043D01*
X258441833Y-33202259D01*
X258184929Y-33056749D01*
X257990591Y-32881224D01*
X257857145Y-32704442D01*
X257635931Y-32251851D01*
X257512997Y-31709909D01*
X257484832Y-31233854D01*
X257489387Y-30879586D01*
X257507219Y-30641038D01*
X257545018Y-30498622D01*
X257609475Y-30432754D01*
X257707281Y-30423844D01*
X257758701Y-30432133D01*
X258061089Y-30437336D01*
X258347135Y-30320283D01*
X258493953Y-30211853D01*
X258702373Y-30036478D01*
X258702373Y-30407898D01*
G37*
G36*
X259008481Y-26929114D02*
G01*
X259026392Y-26931116D01*
X259487408Y-27011493D01*
X259850838Y-27144047D01*
X260149452Y-27344083D01*
X260353561Y-27551073D01*
X260554840Y-27851312D01*
X260644729Y-28138979D01*
X260624078Y-28396134D01*
X260493735Y-28604836D01*
X260297777Y-28730552D01*
X260026715Y-28782934D01*
X259789069Y-28716501D01*
X259606807Y-28547423D01*
X259501899Y-28291866D01*
X259485245Y-28132577D01*
X259476566Y-27953648D01*
X259437721Y-27874529D01*
X259338237Y-27859563D01*
X259256554Y-27864970D01*
X259023851Y-27916227D01*
X258767492Y-28020110D01*
X258545482Y-28149737D01*
X258439814Y-28243497D01*
X258366482Y-28304484D01*
X258267481Y-28301234D01*
X258124787Y-28248448D01*
X257742589Y-28160320D01*
X257304766Y-28187674D01*
X256827970Y-28328511D01*
X256566308Y-28423352D01*
X256402124Y-28456668D01*
X256314406Y-28432593D01*
X256311804Y-28430111D01*
X256201229Y-28383300D01*
X256015699Y-28357162D01*
X255947885Y-28355187D01*
X255786926Y-28370804D01*
X255637175Y-28427125D01*
X255483685Y-28538358D01*
X255311512Y-28718711D01*
X255105709Y-28982392D01*
X254851332Y-29343607D01*
X254747945Y-29495871D01*
X254524717Y-29807885D01*
X254282105Y-30116480D01*
X254052646Y-30381720D01*
X253901279Y-30535070D01*
X253513043Y-30832261D01*
X253036818Y-31105724D01*
X252520073Y-31330151D01*
X252233840Y-31424076D01*
X252060200Y-31470403D01*
X251929676Y-31484060D01*
X251799552Y-31457425D01*
X251627113Y-31382878D01*
X251421040Y-31279047D01*
X251131415Y-31136178D01*
X250830795Y-30995966D01*
X250588200Y-30890426D01*
X250229493Y-30744055D01*
X250655933Y-30696414D01*
X251317556Y-30571315D01*
X251986055Y-30340514D01*
X252670778Y-29999118D01*
X253381071Y-29542234D01*
X254126280Y-28964969D01*
X254384676Y-28744411D01*
X255158570Y-28133761D01*
X255940118Y-27642851D01*
X256722601Y-27274307D01*
X257499302Y-27030754D01*
X258263501Y-26914814D01*
X259008481Y-26929114D01*
G37*
G36*
X258038034Y-28411885D02*
G01*
X258352003Y-28600413D01*
X258549743Y-28826066D01*
X258666988Y-29105892D01*
X258691024Y-29424562D01*
X258628490Y-29740125D01*
X258486027Y-30010629D01*
X258339806Y-30152464D01*
X258120597Y-30238650D01*
X257875313Y-30238165D01*
X257663455Y-30153997D01*
X257618640Y-30116254D01*
X257504097Y-29960994D01*
X257504166Y-29810322D01*
X257591682Y-29652811D01*
X257659170Y-29529374D01*
X257664520Y-29462223D01*
X257564551Y-29446793D01*
X257394480Y-29534085D01*
X257150936Y-29726348D01*
X256853472Y-30003359D01*
X256509001Y-30373567D01*
X256270500Y-30720944D01*
X256122044Y-31081764D01*
X256047713Y-31492304D01*
X256030926Y-31877320D01*
X256036548Y-32187254D01*
X256063189Y-32418512D01*
X256122538Y-32627563D01*
X256226283Y-32870878D01*
X256244715Y-32910254D01*
X256346020Y-33127984D01*
X256417834Y-33287451D01*
X256446993Y-33359298D01*
X256446682Y-33360653D01*
X256379054Y-33343644D01*
X256216436Y-33306187D01*
X256026907Y-33263711D01*
X255654001Y-33176703D01*
X255390384Y-33100224D01*
X255211943Y-33021241D01*
X255094565Y-32926721D01*
X255014137Y-32803632D01*
X254965617Y-32690121D01*
X254868644Y-32285988D01*
X254859531Y-31851033D01*
X254939415Y-31450122D01*
X254943673Y-31437967D01*
X254990847Y-31258592D01*
X254993749Y-31132909D01*
X254982758Y-31110878D01*
X254929159Y-31127228D01*
X254865429Y-31245011D01*
X254801533Y-31431690D01*
X254747436Y-31654730D01*
X254713104Y-31881597D01*
X254706107Y-32014088D01*
X254727787Y-32286419D01*
X254781757Y-32574675D01*
X254801078Y-32645489D01*
X254853929Y-32827520D01*
X254883316Y-32941538D01*
X254885570Y-32961054D01*
X254822154Y-32938500D01*
X254658439Y-32877405D01*
X254420657Y-32787615D01*
X254188240Y-32699268D01*
X253945494Y-32599976D01*
X253650958Y-32469199D01*
X253327671Y-32318413D01*
X252998670Y-32159095D01*
X252686996Y-32002719D01*
X252415686Y-31860763D01*
X252207778Y-31744703D01*
X252086312Y-31666015D01*
X252064507Y-31641369D01*
X252124755Y-31615082D01*
X252280445Y-31573544D01*
X252437892Y-31538477D01*
X252921189Y-31387647D01*
X253414130Y-31145695D01*
X253863480Y-30841485D01*
X254086370Y-30644705D01*
X254274786Y-30438547D01*
X254504388Y-30158372D01*
X254743339Y-29844263D01*
X254920556Y-29594427D01*
X255235497Y-29153978D01*
X255501494Y-28830831D01*
X255726291Y-28619256D01*
X255917632Y-28513520D01*
X256083261Y-28507892D01*
X256230922Y-28596639D01*
X256247040Y-28612574D01*
X256316698Y-28673633D01*
X256391629Y-28691858D01*
X256506725Y-28662515D01*
X256696877Y-28580870D01*
X256787114Y-28539295D01*
X257245092Y-28379618D01*
X257665565Y-28337717D01*
X258038034Y-28411885D01*
G37*
G36*
X263801197Y-28720818D02*
G01*
X263942308Y-28783263D01*
X263955481Y-28791698D01*
X264075496Y-28893272D01*
X264106914Y-29014538D01*
X264090556Y-29139910D01*
X264071592Y-29295810D01*
X264106168Y-29359977D01*
X264189068Y-29371187D01*
X264451025Y-29432614D01*
X264689222Y-29593690D01*
X264865529Y-29819608D01*
X264940513Y-30057178D01*
X264943786Y-30325775D01*
X264883874Y-30522456D01*
X264743031Y-30702925D01*
X264730860Y-30715214D01*
X264498975Y-30885249D01*
X264255010Y-30965332D01*
X264023711Y-30963216D01*
X263829826Y-30886654D01*
X263698103Y-30743399D01*
X263653289Y-30541203D01*
X263681046Y-30386328D01*
X263705763Y-30289677D01*
X263671109Y-30281885D01*
X263553247Y-30354346D01*
X263314004Y-30446039D01*
X263035396Y-30462174D01*
X262788907Y-30399088D01*
X262779164Y-30394032D01*
X262626370Y-30252705D01*
X262586717Y-30073880D01*
X262655306Y-29886527D01*
X262827236Y-29719613D01*
X262900484Y-29676688D01*
X263118435Y-29588790D01*
X263271802Y-29595535D01*
X263382416Y-29683750D01*
X263431142Y-29774241D01*
X263385969Y-29858802D01*
X263313381Y-29922511D01*
X263206236Y-30035661D01*
X263205034Y-30096903D01*
X263301769Y-30084366D01*
X263362204Y-30055890D01*
X263513055Y-29916482D01*
X263551371Y-29745961D01*
X263476299Y-29583798D01*
X263374072Y-29505636D01*
X263206555Y-29484555D01*
X262961174Y-29543409D01*
X262660052Y-29670734D01*
X262325312Y-29855068D01*
X261979078Y-30084946D01*
X261643474Y-30348907D01*
X261501873Y-30475700D01*
X261221813Y-30779757D01*
X260975595Y-31126536D01*
X260773778Y-31491508D01*
X260626918Y-31850145D01*
X260545574Y-32177920D01*
X260540302Y-32450303D01*
X260588790Y-32597070D01*
X260633836Y-32653725D01*
X260657023Y-32611285D01*
X260665698Y-32452859D01*
X260666188Y-32419187D01*
X260731375Y-31996956D01*
X260906779Y-31550639D01*
X261176658Y-31106009D01*
X261525270Y-30688840D01*
X261936876Y-30324904D01*
X261952329Y-30313373D01*
X262391352Y-29987805D01*
X262480669Y-30211740D01*
X262640461Y-30446939D01*
X262886012Y-30580922D01*
X263142418Y-30610416D01*
X263297706Y-30608619D01*
X263374054Y-30612850D01*
X263375690Y-30614025D01*
X263347656Y-30674587D01*
X263275658Y-30820013D01*
X263206357Y-30957466D01*
X263061343Y-31347058D01*
X263044487Y-31700078D01*
X263156933Y-32027060D01*
X263350885Y-32287951D01*
X263512444Y-32461514D01*
X263066410Y-32618978D01*
X262620375Y-32776441D01*
X262439374Y-32641534D01*
X262183717Y-32370950D01*
X262035255Y-32031866D01*
X262001128Y-31647108D01*
X262044604Y-31379625D01*
X262065884Y-31244178D01*
X262025589Y-31210829D01*
X262007328Y-31215336D01*
X261942444Y-31293892D01*
X261881116Y-31458606D01*
X261861218Y-31543699D01*
X261847963Y-31947538D01*
X261957259Y-32335676D01*
X262156650Y-32645765D01*
X262354026Y-32870564D01*
X261899800Y-33015595D01*
X261571813Y-33116735D01*
X261337040Y-33175475D01*
X261160995Y-33194622D01*
X261009191Y-33176984D01*
X260847142Y-33125367D01*
X260795847Y-33105450D01*
X260256961Y-32822326D01*
X259774058Y-32431168D01*
X259373258Y-31956075D01*
X259160567Y-31596619D01*
X259017705Y-31301247D01*
X258942870Y-31097355D01*
X258942182Y-30955929D01*
X259021763Y-30847955D01*
X259187732Y-30744421D01*
X259358315Y-30659184D01*
X259638923Y-30501951D01*
X259908273Y-30302335D01*
X260201809Y-30032442D01*
X260362649Y-29868758D01*
X260587321Y-29644507D01*
X260787709Y-29462351D01*
X260940714Y-29342179D01*
X261019208Y-29303454D01*
X261140479Y-29354842D01*
X261239269Y-29455043D01*
X261342662Y-29556848D01*
X261434333Y-29539710D01*
X262019074Y-29152227D01*
X262584796Y-28888199D01*
X263148243Y-28740421D01*
X263351892Y-28714464D01*
X263619686Y-28699842D01*
X263801197Y-28720818D01*
G37*
G36*
X188296337Y-135402564D02*
G01*
X188249817Y-135449084D01*
X188203296Y-135402564D01*
X188249817Y-135356043D01*
X188296337Y-135402564D01*
G37*
G36*
X156561099Y-145853271D02*
G01*
X156596555Y-145962637D01*
X156601773Y-146110997D01*
X156560886Y-146148717D01*
X156492345Y-146070715D01*
X156476557Y-145962637D01*
X156491565Y-145811184D01*
X156512225Y-145776556D01*
X156561099Y-145853271D01*
G37*
G36*
X178443422Y-147953708D02*
G01*
X178761763Y-148028015D01*
X179049083Y-148131495D01*
X179086325Y-148149589D01*
X179346889Y-148284332D01*
X178972572Y-148658649D01*
X178768288Y-148860475D01*
X178627281Y-148995123D01*
X178585940Y-149029891D01*
X178544638Y-148950663D01*
X178448188Y-148745907D01*
X178317465Y-148459935D01*
X178317355Y-148459692D01*
X178061085Y-147892569D01*
X178443422Y-147953708D01*
G37*
G36*
X179641606Y-159755319D02*
G01*
X179671418Y-159756494D01*
X179830368Y-159766265D01*
X179816661Y-159774768D01*
X179643718Y-159781493D01*
X179324961Y-159785930D01*
X178873813Y-159787570D01*
X178852747Y-159787570D01*
X178400637Y-159785954D01*
X178084369Y-159781571D01*
X177916320Y-159774928D01*
X177908868Y-159766533D01*
X178074392Y-159756892D01*
X178089733Y-159756299D01*
X178593552Y-159745066D01*
X179149049Y-159744744D01*
X179641606Y-159755319D01*
G37*
G36*
X162617216Y-139305648D02*
G01*
X162577009Y-139399975D01*
X162475049Y-139604260D01*
X162339331Y-139865454D01*
X162197846Y-140130506D01*
X162078589Y-140346367D01*
X162009552Y-140459986D01*
X162005730Y-140464477D01*
X161967432Y-140436465D01*
X161965934Y-140413270D01*
X161907800Y-140287250D01*
X161767513Y-140109308D01*
X161763145Y-140104599D01*
X161560356Y-139886930D01*
X161832925Y-139669458D01*
X162029477Y-139536086D01*
X162258505Y-139411620D01*
X162465766Y-139321224D01*
X162597014Y-139290060D01*
X162617216Y-139305648D01*
G37*
G36*
X197042124Y-139299559D02*
G01*
X197001944Y-139396017D01*
X196900032Y-139602281D01*
X196764337Y-139865114D01*
X196622803Y-140131275D01*
X196503377Y-140347526D01*
X196434005Y-140460627D01*
X196430638Y-140464477D01*
X196392340Y-140436465D01*
X196390842Y-140413270D01*
X196332747Y-140286662D01*
X196193054Y-140109966D01*
X196192913Y-140109815D01*
X196062687Y-139954792D01*
X196057056Y-139852675D01*
X196169653Y-139724198D01*
X196317212Y-139613518D01*
X196532554Y-139488512D01*
X196761152Y-139375717D01*
X196948480Y-139301672D01*
X197040011Y-139292915D01*
X197042124Y-139299559D01*
G37*
G36*
X179091244Y-150945941D02*
G01*
X179309196Y-151119857D01*
X179540688Y-151202619D01*
X179854656Y-151225940D01*
X180137544Y-151237247D01*
X180290438Y-151282199D01*
X180369418Y-151393285D01*
X180417119Y-151551785D01*
X180450835Y-151791204D01*
X180467374Y-152150955D01*
X180464402Y-152565886D01*
X180458527Y-152708058D01*
X180357544Y-153508746D01*
X180141251Y-154165911D01*
X179806149Y-154682374D01*
X179348737Y-155060956D01*
X178765516Y-155304481D01*
X178052986Y-155415769D01*
X177207646Y-155397642D01*
X177131502Y-155390418D01*
X176799255Y-155350922D01*
X176497355Y-155306903D01*
X176188850Y-155255937D01*
X176729956Y-154904919D01*
X177400126Y-154370638D01*
X177960485Y-153721834D01*
X178393049Y-152990155D01*
X178679833Y-152207247D01*
X178802851Y-151404757D01*
X178806227Y-151251462D01*
X178806227Y-150672878D01*
X179091244Y-150945941D01*
G37*
G36*
X181182393Y-150897366D02*
G01*
X181668627Y-151447572D01*
X181993724Y-151991437D01*
X182177170Y-152567356D01*
X182228397Y-152958475D01*
X182222444Y-153533812D01*
X182133853Y-154106358D01*
X181976162Y-154617964D01*
X181762907Y-155010480D01*
X181745466Y-155032977D01*
X181564484Y-155191382D01*
X181294816Y-155306511D01*
X180911393Y-155383764D01*
X180389146Y-155428535D01*
X179832228Y-155444896D01*
X179511738Y-155446996D01*
X179351325Y-155435524D01*
X179325008Y-155399829D01*
X179406808Y-155329257D01*
X179459449Y-155292051D01*
X179943787Y-154856382D01*
X180298104Y-154312901D01*
X180528654Y-153648185D01*
X180641692Y-152848809D01*
X180647748Y-152741316D01*
X180656908Y-152262651D01*
X180640487Y-151822375D01*
X180601436Y-151485162D01*
X180587460Y-151420433D01*
X180530186Y-151052209D01*
X180575114Y-150746261D01*
X180587223Y-150709732D01*
X180690990Y-150412067D01*
X181182393Y-150897366D01*
G37*
G36*
X160066069Y-142106637D02*
G01*
X160131523Y-142530839D01*
X160096601Y-142735960D01*
X160029195Y-143136136D01*
X160009698Y-143648424D01*
X160035304Y-144205898D01*
X160103209Y-144741635D01*
X160197694Y-145148357D01*
X160428053Y-145684864D01*
X160756556Y-146171005D01*
X161144256Y-146556418D01*
X161426905Y-146737780D01*
X161733333Y-146888803D01*
X161128571Y-146877712D01*
X160685152Y-146860670D01*
X160192361Y-146828736D01*
X159901690Y-146803081D01*
X159493227Y-146745499D01*
X159214396Y-146647917D01*
X159008757Y-146472299D01*
X158819873Y-146180608D01*
X158732303Y-146015001D01*
X158595130Y-145699541D01*
X158509902Y-145362552D01*
X158461306Y-144934936D01*
X158449491Y-144738872D01*
X158435112Y-144320869D01*
X158449516Y-144020909D01*
X158502737Y-143771900D01*
X158604809Y-143506753D01*
X158648237Y-143410143D01*
X158836090Y-143078887D01*
X159104901Y-142699790D01*
X159398810Y-142351136D01*
X159419497Y-142329246D01*
X159951024Y-141771995D01*
X160066069Y-142106637D01*
G37*
G36*
X194490029Y-142103878D02*
G01*
X194556642Y-142526519D01*
X194521509Y-142735960D01*
X194454104Y-143136136D01*
X194434606Y-143648424D01*
X194460212Y-144205898D01*
X194528117Y-144741635D01*
X194622603Y-145148357D01*
X194828491Y-145635044D01*
X195121792Y-146094576D01*
X195464302Y-146477707D01*
X195817814Y-146735193D01*
X195874690Y-146762246D01*
X196009772Y-146826009D01*
X196033293Y-146861838D01*
X195923301Y-146876389D01*
X195657844Y-146876319D01*
X195506959Y-146873758D01*
X195110735Y-146862792D01*
X194730774Y-146846247D01*
X194483516Y-146830272D01*
X194058912Y-146789638D01*
X193773337Y-146736588D01*
X193580241Y-146645053D01*
X193433073Y-146488962D01*
X193285283Y-146242245D01*
X193221499Y-146123475D01*
X193049689Y-145768442D01*
X192947967Y-145450542D01*
X192894008Y-145084490D01*
X192874932Y-144799633D01*
X192887754Y-144144250D01*
X193011331Y-143579802D01*
X193264480Y-143057386D01*
X193666013Y-142528096D01*
X193809772Y-142369675D01*
X194374035Y-141766476D01*
X194490029Y-142103878D01*
G37*
G36*
X161872893Y-142585368D02*
G01*
X161931629Y-143184354D01*
X162092829Y-143836385D01*
X162333982Y-144456639D01*
X162409313Y-144606587D01*
X162656744Y-144985601D01*
X162997617Y-145394762D01*
X163386377Y-145788526D01*
X163777468Y-146121345D01*
X164125338Y-146347677D01*
X164174123Y-146371045D01*
X164396194Y-146488458D01*
X164515185Y-146586979D01*
X164521385Y-146619026D01*
X164413688Y-146660426D01*
X164168660Y-146704950D01*
X163834694Y-146744237D01*
X163756339Y-146751161D01*
X163376259Y-146784209D01*
X163041969Y-146815763D01*
X162819368Y-146839569D01*
X162803296Y-146841607D01*
X162593920Y-146827455D01*
X162285136Y-146759865D01*
X162003033Y-146673226D01*
X161515338Y-146480511D01*
X161162779Y-146280650D01*
X160896264Y-146040298D01*
X160711865Y-145796229D01*
X160408000Y-145174538D01*
X160239135Y-144430113D01*
X160200446Y-143776190D01*
X160206704Y-143289558D01*
X160231198Y-142961882D01*
X160283120Y-142766257D01*
X160371659Y-142675777D01*
X160506008Y-142663539D01*
X160576640Y-142674925D01*
X160992009Y-142682072D01*
X161384928Y-142521285D01*
X161586602Y-142372342D01*
X161872893Y-142131443D01*
X161872893Y-142585368D01*
G37*
G36*
X196279822Y-142324665D02*
G01*
X196295143Y-142538061D01*
X196297802Y-142696426D01*
X196384735Y-143423822D01*
X196630755Y-144158149D01*
X197013691Y-144864250D01*
X197511370Y-145506963D01*
X198101623Y-146051129D01*
X198629352Y-146393907D01*
X198824621Y-146510804D01*
X198890726Y-146594545D01*
X198813715Y-146655387D01*
X198579638Y-146703591D01*
X198174545Y-146749418D01*
X198141630Y-146752591D01*
X197779407Y-146787904D01*
X197450687Y-146820997D01*
X197274725Y-146839516D01*
X197029542Y-146826603D01*
X196700751Y-146760487D01*
X196483883Y-146696440D01*
X196053940Y-146540217D01*
X195751877Y-146397050D01*
X195525165Y-146234403D01*
X195321275Y-146019740D01*
X195250477Y-145932483D01*
X194907776Y-145351936D01*
X194698275Y-144647418D01*
X194624436Y-143827377D01*
X194624347Y-143785008D01*
X194629747Y-143299444D01*
X194652384Y-142971775D01*
X194704814Y-142773873D01*
X194799595Y-142677611D01*
X194949285Y-142654861D01*
X195121565Y-142671298D01*
X195416603Y-142681944D01*
X195665619Y-142601417D01*
X195859992Y-142482063D01*
X196078830Y-142338391D01*
X196226428Y-142252144D01*
X196255414Y-142241025D01*
X196279822Y-142324665D01*
G37*
G36*
X162430308Y-137876582D02*
G01*
X162974757Y-137963283D01*
X163415088Y-138123020D01*
X163789366Y-138369209D01*
X164107131Y-138682499D01*
X164402960Y-139103047D01*
X164542963Y-139501078D01*
X164527693Y-139855583D01*
X164357701Y-140145555D01*
X164063583Y-140337923D01*
X163691294Y-140410179D01*
X163365994Y-140318841D01*
X163117105Y-140085564D01*
X162974046Y-139732003D01*
X162951448Y-139519322D01*
X162938088Y-139272251D01*
X162884620Y-139162444D01*
X162749312Y-139141090D01*
X162634482Y-139148602D01*
X162314612Y-139219007D01*
X161962332Y-139361712D01*
X161657309Y-139539808D01*
X161512235Y-139668557D01*
X161416040Y-139750452D01*
X161287178Y-139750120D01*
X161059462Y-139666980D01*
X161053561Y-139664517D01*
X160627715Y-139568996D01*
X160113690Y-139581393D01*
X159571063Y-139696514D01*
X159232876Y-139823231D01*
X158946892Y-139939141D01*
X158758280Y-139972263D01*
X158602205Y-139931000D01*
X158561107Y-139910278D01*
X158186123Y-139792524D01*
X157815457Y-139847710D01*
X157442221Y-140079293D01*
X157059524Y-140490733D01*
X156864428Y-140762070D01*
X156476557Y-141339704D01*
X156476557Y-140602386D01*
X156476557Y-139865067D01*
X157197619Y-139385315D01*
X158176957Y-138790043D01*
X159103182Y-138349680D01*
X160008010Y-138053510D01*
X160923152Y-137890821D01*
X161743673Y-137849498D01*
X162430308Y-137876582D01*
G37*
G36*
X208226635Y-150781056D02*
G01*
X208439718Y-150904880D01*
X208713315Y-151099309D01*
X209008580Y-151337348D01*
X209207018Y-151515149D01*
X209241775Y-151633405D01*
X209271436Y-151894956D01*
X209295533Y-152264940D01*
X209313595Y-152708495D01*
X209325153Y-153190759D01*
X209329738Y-153676870D01*
X209326879Y-154131966D01*
X209316107Y-154521184D01*
X209296953Y-154809662D01*
X209268946Y-154962539D01*
X209253663Y-154977858D01*
X209130268Y-154946877D01*
X208895005Y-154878997D01*
X208748070Y-154834621D01*
X208312257Y-154701071D01*
X208608509Y-154224469D01*
X208781059Y-153916895D01*
X208869058Y-153650453D01*
X208897664Y-153332282D01*
X208897964Y-153156037D01*
X208875018Y-152796662D01*
X208821125Y-152539900D01*
X208772190Y-152450052D01*
X208705977Y-152414831D01*
X208685445Y-152501512D01*
X208705994Y-152737858D01*
X208714049Y-152801098D01*
X208717596Y-153224547D01*
X208633361Y-153645918D01*
X208480291Y-154024875D01*
X208277331Y-154321081D01*
X208043427Y-154494198D01*
X207905608Y-154522344D01*
X207744228Y-154488605D01*
X207479690Y-154403935D01*
X207178800Y-154293153D01*
X206908363Y-154181079D01*
X206735186Y-154092533D01*
X206721009Y-154082241D01*
X206741983Y-154011167D01*
X206779081Y-153982303D01*
X206889625Y-153865848D01*
X207037961Y-153656683D01*
X207078420Y-153591941D01*
X207249853Y-153137309D01*
X207257357Y-152638119D01*
X207101880Y-152136083D01*
X207042835Y-152024019D01*
X206910012Y-151784931D01*
X206826286Y-151621245D01*
X206811355Y-151582078D01*
X206894095Y-151559062D01*
X207101203Y-151546102D01*
X207190673Y-151545054D01*
X207501134Y-151505656D01*
X207750100Y-151358342D01*
X207848083Y-151266963D01*
X208007692Y-151077114D01*
X208076667Y-150932241D01*
X208072009Y-150901231D01*
X208083173Y-150780859D01*
X208112915Y-150754833D01*
X208226635Y-150781056D01*
G37*
G36*
X206849568Y-148963483D02*
G01*
X207625165Y-149090963D01*
X208357964Y-149350489D01*
X208941496Y-149687856D01*
X209323443Y-149964537D01*
X209323443Y-150619619D01*
X209323443Y-151274702D01*
X208974542Y-150994568D01*
X208718159Y-150813171D01*
X208378036Y-150605205D01*
X207998512Y-150393906D01*
X207623926Y-150202512D01*
X207298618Y-150054258D01*
X207066928Y-149972382D01*
X207006849Y-149963369D01*
X206799097Y-150039492D01*
X206624091Y-150219902D01*
X206544596Y-150432665D01*
X206548163Y-150489092D01*
X206634957Y-150628856D01*
X206800040Y-150762403D01*
X206974434Y-150845206D01*
X207085970Y-150836251D01*
X207055617Y-150754035D01*
X206915335Y-150622915D01*
X206911743Y-150620194D01*
X206752313Y-150435869D01*
X206747392Y-150300916D01*
X206877939Y-150172137D01*
X207092455Y-150157095D01*
X207347299Y-150234096D01*
X207598827Y-150381448D01*
X207803397Y-150577458D01*
X207917365Y-150800434D01*
X207927839Y-150887656D01*
X207867584Y-151020800D01*
X207741758Y-151172893D01*
X207511523Y-151301118D01*
X207197489Y-151359008D01*
X206877641Y-151343408D01*
X206629965Y-151251163D01*
X206592046Y-151219413D01*
X206448355Y-151099117D01*
X206388202Y-151127628D01*
X206397258Y-151318331D01*
X206408347Y-151391014D01*
X206416584Y-151632884D01*
X206315418Y-151805761D01*
X206203870Y-151902735D01*
X205858352Y-152075568D01*
X205491191Y-152064989D01*
X205127129Y-151891171D01*
X204818570Y-151575225D01*
X204686321Y-151287884D01*
X204615802Y-151015936D01*
X204625477Y-150812352D01*
X204721829Y-150574636D01*
X204732841Y-150552350D01*
X204999486Y-150170186D01*
X205336858Y-149926660D01*
X205622974Y-149850434D01*
X205786880Y-149821597D01*
X205844903Y-149733355D01*
X205828367Y-149528450D01*
X205821843Y-149486928D01*
X205818114Y-149232039D01*
X205917440Y-149064405D01*
X206140684Y-148973400D01*
X206508707Y-148948398D01*
X206849568Y-148963483D01*
G37*
G36*
X160955032Y-139889836D02*
G01*
X161382763Y-140134011D01*
X161583112Y-140341279D01*
X161797479Y-140751869D01*
X161863405Y-141211915D01*
X161783649Y-141667982D01*
X161560968Y-142066630D01*
X161490039Y-142144365D01*
X161171161Y-142363520D01*
X160831819Y-142431288D01*
X160517364Y-142343704D01*
X160384249Y-142241025D01*
X160223188Y-142015864D01*
X160232739Y-141800084D01*
X160334770Y-141630786D01*
X160441865Y-141464755D01*
X160474330Y-141380402D01*
X160420388Y-141310503D01*
X160265109Y-141354106D01*
X160035335Y-141489822D01*
X159757908Y-141696259D01*
X159459669Y-141952027D01*
X159167459Y-142235735D01*
X158908120Y-142525992D01*
X158725846Y-142773830D01*
X158386527Y-143463728D01*
X158208802Y-144203000D01*
X158194999Y-144956477D01*
X158347441Y-145688989D01*
X158507281Y-146078937D01*
X158770837Y-146613919D01*
X158530840Y-146608321D01*
X158317498Y-146581379D01*
X157998437Y-146516641D01*
X157678529Y-146437440D01*
X157301065Y-146332207D01*
X157060411Y-146243415D01*
X156913782Y-146138816D01*
X156818391Y-145986159D01*
X156731452Y-145753196D01*
X156717866Y-145713354D01*
X156590304Y-145097450D01*
X156607592Y-144471735D01*
X156708159Y-144061463D01*
X156776400Y-143807563D01*
X156784254Y-143637278D01*
X156742353Y-143578985D01*
X156661332Y-143661063D01*
X156602548Y-143779590D01*
X156553212Y-143876603D01*
X156519544Y-143880488D01*
X156498452Y-143769876D01*
X156486847Y-143523400D01*
X156481637Y-143119691D01*
X156480753Y-142937585D01*
X156476557Y-141819860D01*
X156806813Y-141329457D01*
X157118746Y-140903027D01*
X157437790Y-140530560D01*
X157736385Y-140239467D01*
X157986972Y-140057160D01*
X158135333Y-140008058D01*
X158357340Y-140072691D01*
X158500183Y-140175530D01*
X158595123Y-140258729D01*
X158697582Y-140283943D01*
X158854770Y-140244516D01*
X159113897Y-140133788D01*
X159254168Y-140069199D01*
X159870740Y-139855094D01*
X160444360Y-139796085D01*
X160955032Y-139889836D01*
G37*
G36*
X196896024Y-137892584D02*
G01*
X197569618Y-138038807D01*
X198109352Y-138291266D01*
X198528541Y-138655995D01*
X198815371Y-139088400D01*
X198963943Y-139461353D01*
X198975984Y-139762928D01*
X198853413Y-140046072D01*
X198850271Y-140050890D01*
X198591928Y-140310127D01*
X198287937Y-140417079D01*
X197976563Y-140385546D01*
X197696071Y-140229329D01*
X197484727Y-139962229D01*
X197380796Y-139598044D01*
X197376357Y-139519322D01*
X197362996Y-139272251D01*
X197309529Y-139162444D01*
X197174221Y-139141090D01*
X197059390Y-139148602D01*
X196739520Y-139219007D01*
X196387241Y-139361712D01*
X196082218Y-139539808D01*
X195937143Y-139668557D01*
X195840737Y-139750691D01*
X195711775Y-139750208D01*
X195483658Y-139666684D01*
X195481159Y-139665641D01*
X195049369Y-139567268D01*
X194534827Y-139576625D01*
X194002401Y-139688152D01*
X193658328Y-139821859D01*
X193368935Y-139945939D01*
X193181372Y-139980630D01*
X193039938Y-139935586D01*
X193031568Y-139930475D01*
X192823225Y-139857914D01*
X192543313Y-139823851D01*
X192507672Y-139823464D01*
X192285719Y-139849745D01*
X192073739Y-139939549D01*
X191851144Y-140112290D01*
X191597341Y-140387384D01*
X191291739Y-140784246D01*
X190913747Y-141322292D01*
X190905860Y-141333819D01*
X190597015Y-141765073D01*
X190270743Y-142186977D01*
X189967210Y-142549384D01*
X189739241Y-142790301D01*
X189231060Y-143196065D01*
X188629622Y-143560852D01*
X188019237Y-143835713D01*
X187831135Y-143898068D01*
X187513086Y-143993602D01*
X187213813Y-144085199D01*
X186989205Y-144125930D01*
X186776916Y-144076038D01*
X186562531Y-143962800D01*
X186302204Y-143823227D01*
X185939958Y-143647310D01*
X185546173Y-143468990D01*
X185472997Y-143437382D01*
X184743064Y-143124908D01*
X185566038Y-142971173D01*
X186421824Y-142767669D01*
X187232576Y-142478356D01*
X188027577Y-142087353D01*
X188836108Y-141578778D01*
X189687454Y-140936747D01*
X190351904Y-140375453D01*
X191456666Y-139498412D01*
X192559402Y-138807433D01*
X193660128Y-138302510D01*
X194758858Y-137983636D01*
X195855609Y-137850805D01*
X196075250Y-137846561D01*
X196896024Y-137892584D01*
G37*
G36*
X179809969Y-146475098D02*
G01*
X180403848Y-146564287D01*
X180628890Y-146615145D01*
X181021850Y-146736811D01*
X181509389Y-146919448D01*
X182022244Y-147135818D01*
X182388278Y-147307022D01*
X182751039Y-147490642D01*
X183074016Y-147668031D01*
X183385397Y-147858843D01*
X183713372Y-148082732D01*
X184086132Y-148359352D01*
X184531864Y-148708355D01*
X185078759Y-149149395D01*
X185361323Y-149379815D01*
X186467444Y-150178804D01*
X187616603Y-150801284D01*
X188203296Y-151045593D01*
X188640909Y-151190871D01*
X189120902Y-151318283D01*
X189598997Y-151419576D01*
X190030916Y-151486496D01*
X190372382Y-151510791D01*
X190572030Y-151487116D01*
X190694117Y-151483673D01*
X190715384Y-151523009D01*
X190633810Y-151597639D01*
X190425791Y-151687011D01*
X190273443Y-151734013D01*
X189989076Y-151830778D01*
X189605834Y-151987000D01*
X189189393Y-152175249D01*
X189019258Y-152257826D01*
X188652395Y-152431430D01*
X188334236Y-152566091D01*
X188110122Y-152643387D01*
X188042335Y-152654740D01*
X187865790Y-152620839D01*
X187588120Y-152540980D01*
X187381312Y-152471646D01*
X186666162Y-152185538D01*
X186061180Y-151863196D01*
X185528971Y-151474579D01*
X185032143Y-150989643D01*
X184533302Y-150378346D01*
X184203989Y-149918912D01*
X183798442Y-149351943D01*
X183462639Y-148932390D01*
X183178886Y-148643413D01*
X182929489Y-148468172D01*
X182696753Y-148389826D01*
X182588904Y-148381685D01*
X182320533Y-148418985D01*
X182114877Y-148505557D01*
X181997062Y-148563655D01*
X181845982Y-148560705D01*
X181611666Y-148489342D01*
X181376032Y-148396647D01*
X180897988Y-148238678D01*
X180423320Y-148175101D01*
X180169582Y-148171292D01*
X179745170Y-148156994D01*
X179437133Y-148093976D01*
X179212930Y-147990128D01*
X178886575Y-147859354D01*
X178449956Y-147770436D01*
X178277029Y-147752068D01*
X177949835Y-147728859D01*
X177770295Y-147732639D01*
X177700712Y-147773925D01*
X177703392Y-147863231D01*
X177714725Y-147908926D01*
X177718861Y-148255671D01*
X177572826Y-148570623D01*
X177312189Y-148810684D01*
X176972517Y-148932751D01*
X176863925Y-148939926D01*
X176607344Y-148861099D01*
X176356105Y-148664494D01*
X176170134Y-148409926D01*
X176108058Y-148185477D01*
X176192313Y-147807024D01*
X176422677Y-147417175D01*
X176765552Y-147052809D01*
X177187336Y-146750807D01*
X177577604Y-146572449D01*
X178003862Y-146478451D01*
X178554795Y-146431408D01*
X179175224Y-146430548D01*
X179809969Y-146475098D01*
G37*
G36*
X180939480Y-148479586D02*
G01*
X181494111Y-148692078D01*
X181779722Y-148828973D01*
X181954374Y-148883653D01*
X182069488Y-148864781D01*
X182152719Y-148803043D01*
X182363674Y-148670594D01*
X182589387Y-148655531D01*
X182842579Y-148767066D01*
X183135969Y-149014415D01*
X183482277Y-149406792D01*
X183894222Y-149953410D01*
X184054993Y-150181050D01*
X184696185Y-151012244D01*
X185344062Y-151669434D01*
X186013876Y-152164495D01*
X186720882Y-152509307D01*
X187249023Y-152668321D01*
X187539035Y-152737945D01*
X187765849Y-152796333D01*
X187828388Y-152814327D01*
X187812927Y-152871109D01*
X187655725Y-152990945D01*
X187384122Y-153159187D01*
X187025456Y-153361185D01*
X186607066Y-153582289D01*
X186156293Y-153807850D01*
X185700474Y-154023218D01*
X185266948Y-154213745D01*
X185058939Y-154298320D01*
X184690938Y-154437511D01*
X184392177Y-154540531D01*
X184201385Y-154594597D01*
X184153387Y-154597221D01*
X184149486Y-154490091D01*
X184192618Y-154279448D01*
X184204155Y-154237675D01*
X184265929Y-153922085D01*
X184295231Y-153575250D01*
X184295604Y-153539662D01*
X184272203Y-153250880D01*
X184211528Y-152922391D01*
X184127869Y-152605282D01*
X184035516Y-152350640D01*
X183948760Y-152209552D01*
X183919839Y-152196337D01*
X183856801Y-152207428D01*
X183839340Y-152267302D01*
X183871840Y-152415856D01*
X183958685Y-152692989D01*
X183982405Y-152765653D01*
X184073751Y-153221845D01*
X184087197Y-153733779D01*
X184025361Y-154219576D01*
X183926019Y-154528841D01*
X183839481Y-154657765D01*
X183690022Y-154761065D01*
X183437653Y-154858740D01*
X183042412Y-154970782D01*
X182581148Y-155089303D01*
X182276376Y-155155199D01*
X182104991Y-155164538D01*
X182043888Y-155113384D01*
X182069960Y-154997804D01*
X182156903Y-154820001D01*
X182411384Y-154137755D01*
X182502676Y-153409150D01*
X182435640Y-152667732D01*
X182215139Y-151947049D01*
X181846032Y-151280647D01*
X181598800Y-150968746D01*
X181354019Y-150717440D01*
X181068513Y-150459001D01*
X180777743Y-150221053D01*
X180517169Y-150031220D01*
X180322250Y-149917128D01*
X180231003Y-149903184D01*
X180246218Y-149998600D01*
X180327717Y-150184686D01*
X180332365Y-150193704D01*
X180421777Y-150514776D01*
X180346238Y-150772941D01*
X180123752Y-150939257D01*
X179838980Y-150986813D01*
X179429422Y-150904513D01*
X179109472Y-150671422D01*
X178896542Y-150308254D01*
X178808044Y-149835722D01*
X178806575Y-149758649D01*
X178886409Y-149283374D01*
X179108841Y-148900104D01*
X179449617Y-148618466D01*
X179884485Y-148448083D01*
X180389190Y-148398581D01*
X180939480Y-148479586D01*
G37*
G36*
X195393187Y-139899467D02*
G01*
X195825854Y-140166837D01*
X196096432Y-140478290D01*
X196255840Y-140846429D01*
X196290374Y-141254788D01*
X196213784Y-141658551D01*
X196039819Y-142012901D01*
X195782228Y-142273021D01*
X195511201Y-142385929D01*
X195113841Y-142402056D01*
X194839019Y-142278517D01*
X194708315Y-142080945D01*
X194671813Y-141835295D01*
X194767599Y-141615632D01*
X194857830Y-141436969D01*
X194862971Y-141333423D01*
X194730593Y-141327075D01*
X194496921Y-141451522D01*
X194179608Y-141694458D01*
X193796307Y-142043577D01*
X193680579Y-142157663D01*
X193217784Y-142678339D01*
X192905052Y-143184298D01*
X192719618Y-143729793D01*
X192638717Y-144369076D01*
X192630550Y-144660073D01*
X192635922Y-145082783D01*
X192669911Y-145396663D01*
X192748251Y-145678519D01*
X192886676Y-146005155D01*
X192921220Y-146078937D01*
X193060730Y-146378476D01*
X193159621Y-146598579D01*
X193199752Y-146698682D01*
X193199324Y-146700822D01*
X193107231Y-146677316D01*
X192875324Y-146619323D01*
X192544424Y-146537030D01*
X192341262Y-146486649D01*
X191960963Y-146388428D01*
X191645429Y-146299534D01*
X191441383Y-146233471D01*
X191396308Y-146213557D01*
X191282977Y-146063994D01*
X191169850Y-145787306D01*
X191073937Y-145441685D01*
X191012248Y-145085327D01*
X190998589Y-144852839D01*
X191032820Y-144488857D01*
X191112376Y-144125351D01*
X191134751Y-144056565D01*
X191202867Y-143794465D01*
X191197765Y-143624239D01*
X191184227Y-143603055D01*
X191113740Y-143628100D01*
X191030137Y-143793848D01*
X190945647Y-144056654D01*
X190872498Y-144372874D01*
X190822917Y-144698865D01*
X190808425Y-144944383D01*
X190839701Y-145312473D01*
X190917355Y-145681949D01*
X190942578Y-145761230D01*
X191076731Y-146141461D01*
X190197808Y-145823304D01*
X189773336Y-145657053D01*
X189278872Y-145443686D01*
X188757544Y-145203942D01*
X188252481Y-144958560D01*
X187806811Y-144728276D01*
X187463663Y-144533830D01*
X187320443Y-144439730D01*
X187236308Y-144363847D01*
X187256090Y-144309354D01*
X187407236Y-144257512D01*
X187673666Y-144198589D01*
X188325934Y-143999756D01*
X188985635Y-143687765D01*
X189584150Y-143299706D01*
X189979959Y-142951986D01*
X190215065Y-142685914D01*
X190515804Y-142314828D01*
X190843519Y-141887824D01*
X191159552Y-141453998D01*
X191160294Y-141452947D01*
X191616028Y-140845842D01*
X192010446Y-140400935D01*
X192340402Y-140121307D01*
X192602749Y-140010037D01*
X192636469Y-140008058D01*
X192794010Y-140069887D01*
X192925091Y-140175530D01*
X193020849Y-140259470D01*
X193123823Y-140284486D01*
X193282013Y-140244092D01*
X193543418Y-140131800D01*
X193665760Y-140075430D01*
X194302670Y-139852028D01*
X194881969Y-139793952D01*
X195393187Y-139899467D01*
G37*
G36*
X197094463Y-153292241D02*
G01*
X197887305Y-153342841D01*
X198653410Y-153435822D01*
X199416381Y-153577826D01*
X200199820Y-153775495D01*
X201027330Y-154035471D01*
X201922513Y-154364395D01*
X202908972Y-154768909D01*
X204010311Y-155255654D01*
X205136630Y-155777715D01*
X206110537Y-156228113D01*
X207011156Y-156627621D01*
X207815148Y-156966366D01*
X208499179Y-157234478D01*
X208974542Y-157401303D01*
X209323443Y-157514064D01*
X209323443Y-158309321D01*
X209323443Y-159104578D01*
X209041892Y-159048268D01*
X208682836Y-158951551D01*
X208180881Y-158779724D01*
X207558866Y-158542275D01*
X206839632Y-158248694D01*
X206046016Y-157908470D01*
X205200858Y-157531090D01*
X204326998Y-157126045D01*
X203741025Y-156845944D01*
X203071521Y-156526449D01*
X202416582Y-156222363D01*
X201806023Y-155946899D01*
X201269661Y-155713268D01*
X200837311Y-155534681D01*
X200538792Y-155424350D01*
X200517320Y-155417540D01*
X199483201Y-155148214D01*
X198357170Y-154944403D01*
X197201101Y-154812968D01*
X196076863Y-154760772D01*
X195046329Y-154794674D01*
X194964687Y-154801778D01*
X194031416Y-154901647D01*
X193198114Y-155026048D01*
X192426290Y-155186598D01*
X191677453Y-155394910D01*
X190913114Y-155662600D01*
X190094781Y-156001282D01*
X189183965Y-156422571D01*
X188528937Y-156743800D01*
X187295420Y-157346811D01*
X186195690Y-157856942D01*
X185207137Y-158282142D01*
X184307152Y-158630357D01*
X183473123Y-158909533D01*
X182682441Y-159127618D01*
X181912496Y-159292559D01*
X181140677Y-159412302D01*
X180833520Y-159448550D01*
X180225565Y-159495752D01*
X179496652Y-159523230D01*
X178710861Y-159530943D01*
X177932270Y-159518847D01*
X177224961Y-159486902D01*
X176792086Y-159451195D01*
X175989865Y-159342173D01*
X175178813Y-159179745D01*
X174338233Y-158956558D01*
X173447426Y-158665261D01*
X172485697Y-158298501D01*
X171432348Y-157848926D01*
X170266682Y-157309185D01*
X168968002Y-156671924D01*
X168967855Y-156671850D01*
X168375725Y-156383145D01*
X167765683Y-156100402D01*
X167184157Y-155844121D01*
X166677576Y-155634799D01*
X166313353Y-155499887D01*
X164898895Y-155116575D01*
X163401389Y-154878094D01*
X161855144Y-154784868D01*
X160294470Y-154837322D01*
X158753677Y-155035882D01*
X157267076Y-155380970D01*
X157244139Y-155387621D01*
X156476557Y-155610905D01*
X156476557Y-154895654D01*
X156476557Y-154180403D01*
X157523260Y-153889630D01*
X158341630Y-153671676D01*
X159041247Y-153510584D01*
X159677831Y-153398519D01*
X160307101Y-153327646D01*
X160984776Y-153290131D01*
X161766576Y-153278140D01*
X161872893Y-153278045D01*
X162715544Y-153293574D01*
X163505154Y-153344098D01*
X164265779Y-153436369D01*
X165021474Y-153577140D01*
X165796293Y-153773163D01*
X166614290Y-154031190D01*
X167499520Y-154357974D01*
X168476038Y-154760266D01*
X169567899Y-155244818D01*
X170618681Y-155733036D01*
X171837469Y-156295792D01*
X172920328Y-156767059D01*
X173889466Y-157153425D01*
X174767091Y-157461475D01*
X175575411Y-157697797D01*
X176336633Y-157868977D01*
X177072967Y-157981601D01*
X177806620Y-158042255D01*
X178457573Y-158057875D01*
X179248735Y-158036458D01*
X180036223Y-157968537D01*
X180839936Y-157848610D01*
X181679775Y-157671174D01*
X182575638Y-157430726D01*
X183547425Y-157121763D01*
X184615037Y-156738782D01*
X185798372Y-156276281D01*
X187117330Y-155728756D01*
X187552014Y-155542981D01*
X188841005Y-155001605D01*
X189993060Y-154547262D01*
X191032242Y-154173687D01*
X191982615Y-153874612D01*
X192868243Y-153643769D01*
X193713189Y-153474893D01*
X194541516Y-153361715D01*
X195377289Y-153297969D01*
X196244571Y-153277389D01*
X196251282Y-153277381D01*
X197094463Y-153292241D01*
G37*
G36*
X196795467Y-151104717D02*
G01*
X197632057Y-151141809D01*
X198409680Y-151206939D01*
X199151537Y-151307155D01*
X199880826Y-151449507D01*
X200620747Y-151641042D01*
X201394499Y-151888809D01*
X202225282Y-152199856D01*
X203136295Y-152581233D01*
X204150739Y-153039987D01*
X205291811Y-153583167D01*
X205850171Y-153855735D01*
X206482859Y-154161761D01*
X207094533Y-154448916D01*
X207655327Y-154703840D01*
X208135373Y-154913172D01*
X208504805Y-155063553D01*
X208711160Y-155135512D01*
X209323443Y-155310862D01*
X209323443Y-156265687D01*
X209315316Y-156678903D01*
X209293064Y-156996549D01*
X209259882Y-157184328D01*
X209234536Y-157220512D01*
X209074776Y-157182881D01*
X208771010Y-157076858D01*
X208347850Y-156912756D01*
X207829910Y-156700882D01*
X207241802Y-156451549D01*
X206608139Y-156175064D01*
X205953533Y-155881739D01*
X205302598Y-155581884D01*
X205136630Y-155503952D01*
X203915379Y-154938893D01*
X202829687Y-154462518D01*
X201855368Y-154068079D01*
X200968237Y-153748826D01*
X200144109Y-153498008D01*
X199358798Y-153308875D01*
X198588120Y-153174677D01*
X197807888Y-153088664D01*
X196993919Y-153044087D01*
X196285861Y-153033717D01*
X195597294Y-153043426D01*
X194943867Y-153075912D01*
X194307513Y-153136250D01*
X193670165Y-153229509D01*
X193013756Y-153360763D01*
X192320219Y-153535084D01*
X191571487Y-153757543D01*
X190749492Y-154033212D01*
X189836169Y-154367164D01*
X188813450Y-154764470D01*
X187663267Y-155230203D01*
X186367554Y-155769434D01*
X186020938Y-155915405D01*
X184404388Y-156556968D01*
X182906198Y-157066119D01*
X181516218Y-157445020D01*
X180224299Y-157695839D01*
X179020292Y-157820740D01*
X177894047Y-157821888D01*
X177317582Y-157772164D01*
X176621593Y-157670642D01*
X175919790Y-157526837D01*
X175190599Y-157333167D01*
X174412449Y-157082049D01*
X173563766Y-156765899D01*
X172622980Y-156377137D01*
X171568518Y-155908178D01*
X170378807Y-155351440D01*
X170234180Y-155282324D01*
X169322603Y-154859703D01*
X168408875Y-154461758D01*
X167535163Y-154105736D01*
X166743634Y-153808890D01*
X166142538Y-153608467D01*
X165488734Y-153423554D01*
X164866654Y-153284669D01*
X164232471Y-153186401D01*
X163542360Y-153123336D01*
X162752495Y-153090061D01*
X161872893Y-153081111D01*
X160896676Y-153095086D01*
X160054602Y-153140603D01*
X159296375Y-153224541D01*
X158571701Y-153353781D01*
X157830282Y-153535201D01*
X157197619Y-153720570D01*
X156476557Y-153943899D01*
X156476557Y-152897590D01*
X156476557Y-151851282D01*
X157151099Y-151651234D01*
X157743909Y-151485669D01*
X158291484Y-151358740D01*
X158837958Y-151264459D01*
X159427465Y-151196835D01*
X160104139Y-151149879D01*
X160912116Y-151117600D01*
X161128571Y-151111423D01*
X162079380Y-151097632D01*
X162949195Y-151114136D01*
X163761515Y-151167168D01*
X164539837Y-151262958D01*
X165307662Y-151407740D01*
X166088486Y-151607744D01*
X166905810Y-151869202D01*
X167783132Y-152198346D01*
X168743950Y-152601408D01*
X169811763Y-153084620D01*
X171010071Y-153654213D01*
X171363003Y-153825555D01*
X172385844Y-154313120D01*
X173282078Y-154712864D01*
X174084036Y-155033742D01*
X174824046Y-155284710D01*
X175534437Y-155474721D01*
X176247539Y-155612732D01*
X176995681Y-155707696D01*
X177811193Y-155768569D01*
X178480586Y-155797046D01*
X179256391Y-155811947D01*
X179910717Y-155799269D01*
X180506487Y-155756394D01*
X181039194Y-155690610D01*
X181755126Y-155577520D01*
X182399735Y-155451244D01*
X183005617Y-155300487D01*
X183605370Y-155113956D01*
X184231591Y-154880360D01*
X184916876Y-154588403D01*
X185693822Y-154226794D01*
X186595027Y-153784238D01*
X186714652Y-153724363D01*
X187997574Y-153097337D01*
X189154563Y-152570040D01*
X190212185Y-152135569D01*
X191197004Y-151787021D01*
X192135585Y-151517493D01*
X193054494Y-151320081D01*
X193980295Y-151187883D01*
X194939553Y-151113993D01*
X195958832Y-151091511D01*
X196795467Y-151104717D01*
G37*
G36*
X203300445Y-140323935D02*
G01*
X203494529Y-140409429D01*
X203515435Y-140422777D01*
X203683472Y-140567027D01*
X203728294Y-140742449D01*
X203711044Y-140901089D01*
X203691787Y-141116032D01*
X203744677Y-141203842D01*
X203844536Y-141217582D01*
X204204597Y-141305079D01*
X204527583Y-141545627D01*
X204769921Y-141906309D01*
X204776976Y-141921990D01*
X204882699Y-142177945D01*
X204911975Y-142353824D01*
X204865287Y-142538984D01*
X204781379Y-142736187D01*
X204561723Y-143086504D01*
X204274503Y-143294429D01*
X203921360Y-143424664D01*
X203642495Y-143423965D01*
X203377298Y-143289584D01*
X203326972Y-143251486D01*
X203155393Y-143082135D01*
X203112004Y-142898771D01*
X203133610Y-142734170D01*
X203193315Y-142415916D01*
X202962592Y-142567091D01*
X202640426Y-142698916D01*
X202287413Y-142723398D01*
X201963683Y-142647609D01*
X201729366Y-142478622D01*
X201688886Y-142417290D01*
X201633066Y-142146167D01*
X201761407Y-141889851D01*
X202012305Y-141687403D01*
X202319197Y-141532647D01*
X202540352Y-141514868D01*
X202713607Y-141631922D01*
X202726432Y-141646927D01*
X202793363Y-141771227D01*
X202731312Y-141887383D01*
X202631604Y-141974895D01*
X202484427Y-142130321D01*
X202482775Y-142214444D01*
X202615654Y-142197223D01*
X202698667Y-142158108D01*
X202909759Y-141975951D01*
X202967926Y-141770011D01*
X202896187Y-141577075D01*
X202717564Y-141433935D01*
X202455077Y-141377379D01*
X202230515Y-141409934D01*
X201893596Y-141547510D01*
X201470173Y-141779367D01*
X201009654Y-142072691D01*
X200561453Y-142394670D01*
X200174979Y-142712490D01*
X199973016Y-142909094D01*
X199582559Y-143392038D01*
X199259705Y-143912513D01*
X199018651Y-144435370D01*
X198873591Y-144925462D01*
X198838721Y-145347640D01*
X198890078Y-145590476D01*
X198947315Y-145712766D01*
X198976801Y-145696762D01*
X198989475Y-145522548D01*
X198992281Y-145404395D01*
X199088032Y-144807874D01*
X199339389Y-144183365D01*
X199725725Y-143562619D01*
X200226415Y-142977387D01*
X200820835Y-142459420D01*
X200979080Y-142345938D01*
X201400468Y-142056016D01*
X201460153Y-142327760D01*
X201613307Y-142621380D01*
X201901678Y-142823012D01*
X202286967Y-142907881D01*
X202358609Y-142908925D01*
X202586841Y-142912937D01*
X202710381Y-142929049D01*
X202717582Y-142935162D01*
X202675496Y-143026660D01*
X202568008Y-143225970D01*
X202486102Y-143371272D01*
X202285687Y-143879052D01*
X202253886Y-144382422D01*
X202387837Y-144850594D01*
X202658741Y-145227504D01*
X202900896Y-145469294D01*
X202243980Y-145692705D01*
X201587064Y-145916117D01*
X201274039Y-145574692D01*
X200961196Y-145114781D01*
X200823756Y-144617448D01*
X200855259Y-144150963D01*
X200906646Y-143872463D01*
X200892232Y-143746793D01*
X200807208Y-143750982D01*
X200775302Y-143769042D01*
X200686726Y-143914513D01*
X200629959Y-144183547D01*
X200610286Y-144515526D01*
X200632988Y-144849832D01*
X200666543Y-145016811D01*
X200801420Y-145346037D01*
X201001667Y-145665300D01*
X201048099Y-145721792D01*
X201324633Y-146036746D01*
X200695283Y-146226272D01*
X200244359Y-146359122D01*
X199923709Y-146438801D01*
X199685954Y-146467501D01*
X199483714Y-146447412D01*
X199269609Y-146380726D01*
X199072411Y-146301312D01*
X198327783Y-145893530D01*
X197675564Y-145336077D01*
X197140945Y-144652799D01*
X196923480Y-144267163D01*
X196730410Y-143867217D01*
X196631398Y-143591719D01*
X196635396Y-143399636D01*
X196751356Y-143249940D01*
X196988228Y-143101598D01*
X197201839Y-142991248D01*
X197630895Y-142736544D01*
X198061584Y-142397607D01*
X198539467Y-141938255D01*
X198578400Y-141898024D01*
X198887332Y-141590890D01*
X199162802Y-141341505D01*
X199372978Y-141177167D01*
X199480267Y-141124542D01*
X199646848Y-141195130D01*
X199782549Y-141332768D01*
X199924571Y-141472610D01*
X200050493Y-141449069D01*
X200853709Y-140916812D01*
X201630800Y-140554137D01*
X202404766Y-140351144D01*
X202684503Y-140315489D01*
X203051574Y-140295351D01*
X203300445Y-140323935D01*
G37*
G36*
X162956519Y-133924559D02*
G01*
X164136488Y-134030854D01*
X165175824Y-134202512D01*
X166050918Y-134424867D01*
X167042875Y-134750387D01*
X168158225Y-135181681D01*
X169403500Y-135721360D01*
X170785229Y-136372033D01*
X171549084Y-136749727D01*
X172701241Y-137302008D01*
X173748578Y-137744186D01*
X174728726Y-138085882D01*
X175679315Y-138336717D01*
X176637976Y-138506311D01*
X177642338Y-138604287D01*
X178730034Y-138640265D01*
X178945787Y-138640891D01*
X180041409Y-138613332D01*
X181050314Y-138527216D01*
X182008665Y-138373108D01*
X182952623Y-138141573D01*
X183918350Y-137823176D01*
X184942007Y-137408483D01*
X186059755Y-136888059D01*
X186496248Y-136670935D01*
X187814031Y-136023419D01*
X189001250Y-135478240D01*
X190077563Y-135027915D01*
X191062625Y-134664965D01*
X191976094Y-134381906D01*
X192837627Y-134171259D01*
X193292835Y-134084181D01*
X193871282Y-134010045D01*
X194586425Y-133958041D01*
X195391285Y-133928095D01*
X196238877Y-133920137D01*
X197082221Y-133934097D01*
X197874334Y-133969901D01*
X198568235Y-134027479D01*
X199042491Y-134092912D01*
X199903543Y-134277639D01*
X200825598Y-134540097D01*
X201825284Y-134886636D01*
X202919228Y-135323608D01*
X204124058Y-135857364D01*
X205456403Y-136494254D01*
X205878475Y-136703888D01*
X206466621Y-136991776D01*
X207061525Y-137271466D01*
X207620625Y-137523769D01*
X208101362Y-137729495D01*
X208461174Y-137869455D01*
X208472291Y-137873359D01*
X209323443Y-138170579D01*
X209323443Y-139002548D01*
X209321567Y-139396701D01*
X209309927Y-139637952D01*
X209279502Y-139759475D01*
X209221272Y-139794446D01*
X209126215Y-139776043D01*
X209114102Y-139772475D01*
X208734798Y-139643053D01*
X208207713Y-139437393D01*
X207551100Y-139163263D01*
X206783216Y-138828436D01*
X205922316Y-138440683D01*
X205173401Y-138095034D01*
X204367228Y-137720469D01*
X203701707Y-137414732D01*
X203149653Y-137166294D01*
X202683881Y-136963629D01*
X202277208Y-136795208D01*
X201902449Y-136649504D01*
X201532418Y-136514989D01*
X201139933Y-136380134D01*
X201089377Y-136363161D01*
X199482741Y-135920902D01*
X197851420Y-135662703D01*
X196194334Y-135588505D01*
X194510405Y-135698250D01*
X193092628Y-135928778D01*
X192581272Y-136041605D01*
X192069641Y-136171799D01*
X191537136Y-136326750D01*
X190963161Y-136513854D01*
X190327119Y-136740501D01*
X189608413Y-137014086D01*
X188786446Y-137342000D01*
X187840620Y-137731638D01*
X186750340Y-138190391D01*
X186524240Y-138286367D01*
X185262115Y-138807591D01*
X184132466Y-139240890D01*
X183109045Y-139595460D01*
X182165602Y-139880496D01*
X181442637Y-140066571D01*
X181006693Y-140162170D01*
X180599991Y-140231407D01*
X180173068Y-140279361D01*
X179676461Y-140311112D01*
X179060706Y-140331739D01*
X178806227Y-140337303D01*
X178232347Y-140342950D01*
X177684593Y-140337972D01*
X177206253Y-140323520D01*
X176840616Y-140300743D01*
X176676221Y-140280696D01*
X176231616Y-140185069D01*
X175670439Y-140039548D01*
X175049795Y-139861041D01*
X174426788Y-139666455D01*
X173858524Y-139472699D01*
X173530919Y-139349415D01*
X173251621Y-139232372D01*
X172837337Y-139050701D01*
X172321281Y-138819365D01*
X171736666Y-138553329D01*
X171116707Y-138267556D01*
X170733152Y-138088901D01*
X169527602Y-137534092D01*
X168460370Y-137065036D01*
X167508212Y-136675162D01*
X166647883Y-136357899D01*
X165856138Y-136106678D01*
X165109732Y-135914927D01*
X164385422Y-135776078D01*
X163659963Y-135683558D01*
X162910109Y-135630798D01*
X162112617Y-135611227D01*
X161965934Y-135610724D01*
X160473440Y-135666078D01*
X159104972Y-135836477D01*
X157835836Y-136125124D01*
X157703666Y-136163510D01*
X157208741Y-136313184D01*
X156867183Y-136408845D01*
X156650896Y-136437670D01*
X156531784Y-136386840D01*
X156481749Y-136243532D01*
X156472698Y-135994926D01*
X156476531Y-135628199D01*
X156476557Y-135603538D01*
X156476557Y-134712857D01*
X157228171Y-134475422D01*
X158203404Y-134226005D01*
X159308126Y-134044690D01*
X160498066Y-133932998D01*
X161728954Y-133892447D01*
X162956519Y-133924559D01*
G37*
G36*
X179355111Y-142496558D02*
G01*
X180284003Y-142538008D01*
X181155143Y-142612478D01*
X181914175Y-142717198D01*
X182128113Y-142757378D01*
X182991928Y-142972256D01*
X183982074Y-143288043D01*
X185074982Y-143695394D01*
X186247082Y-144184965D01*
X187474804Y-144747411D01*
X188734580Y-145373387D01*
X188761538Y-145387316D01*
X189810670Y-145902521D01*
X190774132Y-146311458D01*
X191705758Y-146631004D01*
X192659382Y-146878035D01*
X193688841Y-147069426D01*
X194474842Y-147178276D01*
X195514182Y-147251009D01*
X196656722Y-147234356D01*
X197845804Y-147134179D01*
X199024773Y-146956340D01*
X200136972Y-146706699D01*
X200729534Y-146531184D01*
X201047745Y-146412411D01*
X201497084Y-146224527D01*
X202042955Y-145983048D01*
X202650762Y-145703489D01*
X203285910Y-145401367D01*
X203694505Y-145201485D01*
X204833908Y-144648250D01*
X205845789Y-144180970D01*
X206760281Y-143786749D01*
X207607516Y-143452692D01*
X208417625Y-143165903D01*
X208563364Y-143117804D01*
X208893261Y-143011460D01*
X209147234Y-142932122D01*
X209280105Y-142893831D01*
X209288799Y-142892307D01*
X209303426Y-142978738D01*
X209314999Y-143211605D01*
X209322024Y-143551272D01*
X209323443Y-143811047D01*
X209323443Y-144729786D01*
X208489949Y-145020841D01*
X208074810Y-145175921D01*
X207557193Y-145384227D01*
X207002508Y-145618733D01*
X206476162Y-145852416D01*
X206466322Y-145856919D01*
X205956004Y-146090547D01*
X205339147Y-146372834D01*
X204678454Y-146675092D01*
X204036629Y-146968634D01*
X203741025Y-147103794D01*
X202229486Y-147750789D01*
X200801514Y-148264772D01*
X199435064Y-148645772D01*
X198108092Y-148893817D01*
X196798551Y-149008937D01*
X195484398Y-148991160D01*
X194143586Y-148840514D01*
X192754072Y-148557030D01*
X191293808Y-148140735D01*
X189740751Y-147591660D01*
X188575458Y-147123655D01*
X187602961Y-146716854D01*
X186782633Y-146375023D01*
X186095322Y-146090499D01*
X185521877Y-145855617D01*
X185043147Y-145662716D01*
X184639980Y-145504131D01*
X184293225Y-145372198D01*
X183983732Y-145259255D01*
X183692348Y-145157638D01*
X183501975Y-145093494D01*
X182516183Y-144783846D01*
X181639238Y-144552877D01*
X180816671Y-144390079D01*
X179994016Y-144284941D01*
X179116803Y-144226954D01*
X178984933Y-144221944D01*
X178260691Y-144208791D01*
X177584580Y-144226193D01*
X176934978Y-144280168D01*
X176290265Y-144376739D01*
X175628822Y-144521924D01*
X174929029Y-144721745D01*
X174169264Y-144982221D01*
X173327909Y-145309374D01*
X172383343Y-145709223D01*
X171313945Y-146187789D01*
X170386080Y-146616402D01*
X169206045Y-147156419D01*
X168161322Y-147609370D01*
X167226897Y-147982647D01*
X166377760Y-148283643D01*
X165588897Y-148519750D01*
X164835297Y-148698358D01*
X164091947Y-148826861D01*
X163333835Y-148912651D01*
X162535948Y-148963118D01*
X162431135Y-148967351D01*
X161939517Y-148981976D01*
X161474267Y-148988534D01*
X161089589Y-148986692D01*
X160849450Y-148976973D01*
X159584887Y-148814706D01*
X158240507Y-148534356D01*
X158011721Y-148476616D01*
X157454150Y-148333638D01*
X157050268Y-148223589D01*
X156775464Y-148126161D01*
X156605122Y-148021049D01*
X156514630Y-147887949D01*
X156479375Y-147706553D01*
X156474743Y-147456556D01*
X156476557Y-147210132D01*
X156480144Y-146822693D01*
X156495671Y-146588089D01*
X156530283Y-146473136D01*
X156591129Y-146444650D01*
X156639377Y-146454112D01*
X157898941Y-146794034D01*
X159049676Y-147034937D01*
X160136117Y-147183188D01*
X161202797Y-147245155D01*
X162105494Y-147235603D01*
X163176005Y-147170386D01*
X164145139Y-147055721D01*
X165055676Y-146880163D01*
X165950399Y-146632262D01*
X166872089Y-146300573D01*
X167863527Y-145873647D01*
X168710759Y-145468173D01*
X169949899Y-144863347D01*
X171050347Y-144346571D01*
X172033336Y-143910764D01*
X172920100Y-143548848D01*
X173731872Y-143253742D01*
X174489886Y-143018366D01*
X175215376Y-142835641D01*
X175929575Y-142698486D01*
X176653717Y-142599823D01*
X177409035Y-142532571D01*
X177541503Y-142523788D01*
X178422825Y-142490895D01*
X179355111Y-142496558D01*
G37*
G36*
X179429178Y-144466890D02*
G01*
X180289690Y-144554347D01*
X181177328Y-144706601D01*
X182114258Y-144929524D01*
X183122648Y-145228988D01*
X184224665Y-145610862D01*
X185442474Y-146081018D01*
X186621611Y-146569924D01*
X187874651Y-147097569D01*
X188980584Y-147549762D01*
X189959683Y-147932352D01*
X190832222Y-148251186D01*
X191618475Y-148512115D01*
X192338714Y-148720988D01*
X193013213Y-148883652D01*
X193662245Y-149005958D01*
X194306084Y-149093753D01*
X194965003Y-149152888D01*
X195659274Y-149189211D01*
X195706413Y-149190932D01*
X196605472Y-149207469D01*
X197441603Y-149185934D01*
X198239284Y-149120062D01*
X199022993Y-149003589D01*
X199817210Y-148830250D01*
X200646413Y-148593780D01*
X201535081Y-148287915D01*
X202507692Y-147906390D01*
X203588725Y-147442940D01*
X204802658Y-146891300D01*
X204938242Y-146828280D01*
X205893459Y-146388329D01*
X206756251Y-146000719D01*
X207512583Y-145671409D01*
X208148421Y-145406355D01*
X208649731Y-145211516D01*
X209002480Y-145092848D01*
X209067582Y-145075341D01*
X209323443Y-145012061D01*
X209323443Y-145804922D01*
X209323443Y-146597782D01*
X208695421Y-146797157D01*
X208444613Y-146891044D01*
X208056092Y-147054611D01*
X207558822Y-147274807D01*
X206981767Y-147538579D01*
X206353894Y-147832877D01*
X205704165Y-148144649D01*
X205694872Y-148149164D01*
X204541626Y-148701154D01*
X203526079Y-149168005D01*
X202625223Y-149558389D01*
X201816052Y-149880978D01*
X201075561Y-150144443D01*
X200380743Y-150357456D01*
X199708591Y-150528687D01*
X199036101Y-150666808D01*
X198995970Y-150674100D01*
X198445423Y-150747595D01*
X197755706Y-150799985D01*
X196972528Y-150831267D01*
X196141599Y-150841439D01*
X195308630Y-150830499D01*
X194519330Y-150798445D01*
X193819409Y-150745274D01*
X193273992Y-150674361D01*
X192250843Y-150447543D01*
X191100869Y-150098056D01*
X189833790Y-149629649D01*
X188459326Y-149046072D01*
X186987195Y-148351074D01*
X186132264Y-147918997D01*
X185568060Y-147639501D01*
X184966655Y-147361831D01*
X184386128Y-147111534D01*
X183884562Y-146914155D01*
X183701598Y-146849905D01*
X182270045Y-146457655D01*
X180774232Y-146203287D01*
X179263042Y-146091750D01*
X177785355Y-146127992D01*
X177178022Y-146189535D01*
X176512436Y-146279577D01*
X175922440Y-146376209D01*
X175379158Y-146489084D01*
X174853719Y-146627857D01*
X174317247Y-146802181D01*
X173740871Y-147021712D01*
X173095716Y-147296103D01*
X172352910Y-147635007D01*
X171483578Y-148048081D01*
X171176923Y-148196069D01*
X169789603Y-148850839D01*
X168550351Y-149400735D01*
X167454738Y-149847519D01*
X166498335Y-150192951D01*
X165676715Y-150438794D01*
X165329857Y-150521738D01*
X164364019Y-150689123D01*
X163281260Y-150805471D01*
X162144637Y-150866993D01*
X161017210Y-150869900D01*
X160198168Y-150830045D01*
X159547136Y-150761001D01*
X158830927Y-150651301D01*
X158121574Y-150514126D01*
X157491112Y-150362658D01*
X157234258Y-150287672D01*
X156476557Y-150048314D01*
X156476557Y-149158525D01*
X156479448Y-148747486D01*
X156492237Y-148491139D01*
X156521099Y-148358136D01*
X156572208Y-148317125D01*
X156639377Y-148331803D01*
X156944339Y-148435302D01*
X157375744Y-148562964D01*
X157878088Y-148699948D01*
X158395866Y-148831410D01*
X158873575Y-148942510D01*
X159099264Y-148989585D01*
X159647900Y-149072309D01*
X160328024Y-149136486D01*
X161085804Y-149180348D01*
X161867403Y-149202129D01*
X162618990Y-149200061D01*
X163286729Y-149172377D01*
X163655901Y-149139151D01*
X164537125Y-148999675D01*
X165501026Y-148786476D01*
X166469469Y-148519454D01*
X167364316Y-148218508D01*
X167548351Y-148147829D01*
X167891595Y-148006077D01*
X168365541Y-147801353D01*
X168932711Y-147550322D01*
X169555631Y-147269651D01*
X170196824Y-146976006D01*
X170509506Y-146830951D01*
X171662177Y-146300287D01*
X172672581Y-145851487D01*
X173562271Y-145478157D01*
X174352797Y-145173902D01*
X175065712Y-144932328D01*
X175722568Y-144747041D01*
X176344915Y-144611646D01*
X176954307Y-144519749D01*
X177572294Y-144464957D01*
X178220428Y-144440873D01*
X178573626Y-144438360D01*
X179429178Y-144466890D01*
G37*
G36*
X172908993Y-149019306D02*
G01*
X173648906Y-149244630D01*
X174359376Y-149596674D01*
X174569974Y-149732177D01*
X174873000Y-149935786D01*
X175060596Y-150043940D01*
X175169303Y-150068567D01*
X175235662Y-150021595D01*
X175271816Y-149961276D01*
X175441268Y-149799706D01*
X175673541Y-149798321D01*
X175944959Y-149952550D01*
X176123759Y-150125718D01*
X176692339Y-150726080D01*
X177209622Y-151185442D01*
X177706343Y-151529828D01*
X177924917Y-151650926D01*
X178238359Y-151818794D01*
X178414835Y-151939695D01*
X178486153Y-152045028D01*
X178484120Y-152166194D01*
X178477412Y-152196337D01*
X178275166Y-152741057D01*
X177941585Y-153313586D01*
X177515221Y-153865815D01*
X177034628Y-154349632D01*
X176538358Y-154716927D01*
X176393952Y-154796314D01*
X176007416Y-154981593D01*
X175729842Y-155085416D01*
X175509052Y-155119385D01*
X175292868Y-155095104D01*
X175177655Y-155066773D01*
X174891121Y-154988161D01*
X174535127Y-154889130D01*
X174366675Y-154841835D01*
X173881335Y-154705041D01*
X174153445Y-154275968D01*
X174325272Y-153947677D01*
X174451560Y-153603063D01*
X174483631Y-153459618D01*
X174501326Y-153112794D01*
X174461318Y-152783528D01*
X174375583Y-152527621D01*
X174256475Y-152400998D01*
X174180021Y-152412959D01*
X174204806Y-152553925D01*
X174214229Y-152580750D01*
X174294664Y-153014968D01*
X174256858Y-153477960D01*
X174116089Y-153912338D01*
X173887635Y-154260712D01*
X173731495Y-154393983D01*
X173581006Y-154477682D01*
X173435461Y-154499035D01*
X173227985Y-154457913D01*
X173012369Y-154392608D01*
X172632018Y-154265488D01*
X172410777Y-154166292D01*
X172327919Y-154075155D01*
X172362714Y-153972212D01*
X172463173Y-153866291D01*
X172730078Y-153496839D01*
X172846276Y-153044164D01*
X172809345Y-152537465D01*
X172617480Y-152007163D01*
X172383312Y-151545054D01*
X172719425Y-151545054D01*
X173034602Y-151498581D01*
X173323610Y-151386694D01*
X173325754Y-151385434D01*
X173531725Y-151224191D01*
X173613125Y-151021707D01*
X173611283Y-150774504D01*
X173625529Y-150681576D01*
X173703930Y-150675922D01*
X173865841Y-150767779D01*
X174130617Y-150967388D01*
X174415668Y-151200042D01*
X174966199Y-151728398D01*
X175432352Y-152317270D01*
X175793228Y-152931196D01*
X176027924Y-153534714D01*
X176115404Y-154083893D01*
X176122677Y-154321567D01*
X176141226Y-154389558D01*
X176184586Y-154304245D01*
X176219539Y-154209937D01*
X176252965Y-153913901D01*
X176197131Y-153513864D01*
X176065836Y-153060762D01*
X175872876Y-152605530D01*
X175703521Y-152305058D01*
X175233728Y-151661687D01*
X174703378Y-151125648D01*
X174069764Y-150659825D01*
X173342763Y-150253263D01*
X172944837Y-150069086D01*
X172663828Y-149983841D01*
X172461555Y-149993648D01*
X172299838Y-150094626D01*
X172253151Y-150142528D01*
X172128855Y-150383279D01*
X172183475Y-150607278D01*
X172384155Y-150770498D01*
X172592320Y-150845102D01*
X172659156Y-150810469D01*
X172569698Y-150688501D01*
X172486834Y-150620194D01*
X172323970Y-150442814D01*
X172312948Y-150297427D01*
X172420347Y-150198607D01*
X172612747Y-150160924D01*
X172856727Y-150198950D01*
X173118866Y-150327259D01*
X173134164Y-150337948D01*
X173392610Y-150585063D01*
X173466448Y-150830233D01*
X173356985Y-151079391D01*
X173309413Y-151134289D01*
X173063741Y-151289693D01*
X172743719Y-151361531D01*
X172424349Y-151344212D01*
X172180631Y-151232149D01*
X172167137Y-151219413D01*
X172023446Y-151099117D01*
X171963294Y-151127628D01*
X171972350Y-151318331D01*
X171983439Y-151391014D01*
X171992605Y-151627686D01*
X171897141Y-151798058D01*
X171768278Y-151911139D01*
X171436318Y-152066602D01*
X171076970Y-152061959D01*
X170729458Y-151910855D01*
X170433005Y-151626933D01*
X170296231Y-151399077D01*
X170193592Y-151126229D01*
X170191139Y-150888089D01*
X170237483Y-150701163D01*
X170412392Y-150353443D01*
X170683709Y-150071741D01*
X171000084Y-149900927D01*
X171188277Y-149870329D01*
X171371929Y-149856119D01*
X171432355Y-149776040D01*
X171408856Y-149573917D01*
X171406070Y-149559003D01*
X171398789Y-149268290D01*
X171517463Y-149076940D01*
X171778833Y-148971852D01*
X172197211Y-148939926D01*
X172908993Y-149019306D01*
G37*
G36*
X168883371Y-140325749D02*
G01*
X169075767Y-140413122D01*
X169079838Y-140415774D01*
X169241888Y-140588812D01*
X169315604Y-140799357D01*
X169288777Y-140981907D01*
X169199817Y-141059436D01*
X169151029Y-141106762D01*
X169253950Y-141163640D01*
X169522883Y-141236754D01*
X169632667Y-141261660D01*
X169876256Y-141370120D01*
X170123002Y-141558868D01*
X170156377Y-141592845D01*
X170408209Y-141975148D01*
X170479944Y-142374401D01*
X170371809Y-142767313D01*
X170142063Y-143075490D01*
X169826335Y-143305165D01*
X169493109Y-143410654D01*
X169176849Y-143403124D01*
X168912019Y-143293743D01*
X168733083Y-143093679D01*
X168674506Y-142814099D01*
X168711730Y-142612006D01*
X168745497Y-142478717D01*
X168696277Y-142469369D01*
X168541194Y-142564791D01*
X168217342Y-142697980D01*
X167863504Y-142723481D01*
X167539390Y-142648191D01*
X167304708Y-142479005D01*
X167263977Y-142417290D01*
X167208158Y-142146167D01*
X167336499Y-141889851D01*
X167587397Y-141687403D01*
X167894289Y-141532647D01*
X168115443Y-141514868D01*
X168288699Y-141631922D01*
X168301524Y-141646927D01*
X168369767Y-141773679D01*
X168304670Y-141890381D01*
X168219876Y-141964222D01*
X168048385Y-142123376D01*
X168038766Y-142193553D01*
X168190820Y-142177197D01*
X168202580Y-142174173D01*
X168430067Y-142040949D01*
X168524697Y-141833723D01*
X168484035Y-141611217D01*
X168305645Y-141432153D01*
X168234705Y-141399310D01*
X167985097Y-141389085D01*
X167633193Y-141488781D01*
X167211359Y-141679896D01*
X166751961Y-141943930D01*
X166287364Y-142262379D01*
X165849934Y-142616742D01*
X165490784Y-142967868D01*
X165105527Y-143454002D01*
X164789411Y-143980317D01*
X164557218Y-144509658D01*
X164423733Y-145004874D01*
X164403738Y-145428811D01*
X164441639Y-145604547D01*
X164486878Y-145694876D01*
X164523271Y-145647435D01*
X164559162Y-145442813D01*
X164578228Y-145286847D01*
X164727681Y-144657512D01*
X165019041Y-144008844D01*
X165423843Y-143396344D01*
X165722178Y-143056180D01*
X165991144Y-142799376D01*
X166278905Y-142550931D01*
X166556026Y-142332461D01*
X166793070Y-142165582D01*
X166960604Y-142071908D01*
X167029190Y-142073055D01*
X167024327Y-142099975D01*
X167032953Y-142291927D01*
X167140803Y-142530389D01*
X167304790Y-142741978D01*
X167463851Y-142848497D01*
X167697093Y-142892762D01*
X167976593Y-142910915D01*
X168188055Y-142914525D01*
X168290486Y-142923365D01*
X168292284Y-142924871D01*
X168253777Y-143008006D01*
X168154882Y-143207727D01*
X168059684Y-143396537D01*
X167866633Y-143937016D01*
X167848314Y-144444156D01*
X168005033Y-144904083D01*
X168025609Y-144939194D01*
X168174986Y-145161697D01*
X168301284Y-145310678D01*
X168324948Y-145329556D01*
X168383892Y-145373232D01*
X168379213Y-145415740D01*
X168281694Y-145478678D01*
X168062120Y-145583644D01*
X167851782Y-145679344D01*
X167478523Y-145813622D01*
X167190036Y-145815059D01*
X166935481Y-145670191D01*
X166664018Y-145365554D01*
X166663312Y-145364629D01*
X166472350Y-144978748D01*
X166395462Y-144511234D01*
X166442259Y-144034443D01*
X166472526Y-143928003D01*
X166502319Y-143769450D01*
X166432565Y-143744625D01*
X166418371Y-143748852D01*
X166325730Y-143858036D01*
X166239422Y-144085218D01*
X166211966Y-144201801D01*
X166194032Y-144759638D01*
X166347183Y-145295390D01*
X166624096Y-145722823D01*
X166901534Y-146038807D01*
X166271280Y-146225508D01*
X165819386Y-146356036D01*
X165497076Y-146433413D01*
X165256251Y-146459757D01*
X165048811Y-146437184D01*
X164826657Y-146367811D01*
X164647503Y-146296965D01*
X163912827Y-145899857D01*
X163265440Y-145351634D01*
X162731381Y-144676888D01*
X162498572Y-144267163D01*
X162303432Y-143863240D01*
X162202094Y-143584659D01*
X162203181Y-143391321D01*
X162315316Y-143243127D01*
X162547122Y-143099977D01*
X162773912Y-142986809D01*
X163159362Y-142770829D01*
X163529349Y-142496631D01*
X163932558Y-142125900D01*
X164153491Y-141901058D01*
X164462108Y-141593021D01*
X164737366Y-141342807D01*
X164947537Y-141177735D01*
X165055358Y-141124542D01*
X165221939Y-141195130D01*
X165357640Y-141332768D01*
X165499663Y-141472610D01*
X165625585Y-141449069D01*
X166428800Y-140916812D01*
X167205891Y-140554137D01*
X167979857Y-140351144D01*
X168259595Y-140315489D01*
X168631618Y-140295687D01*
X168883371Y-140325749D01*
G37*
G36*
X212586521Y-147933441D02*
G01*
X212841828Y-147982961D01*
X213131384Y-148067493D01*
X213306928Y-148133738D01*
X213646201Y-148275496D01*
X213267466Y-148654231D01*
X213061834Y-148857571D01*
X212919311Y-148994160D01*
X212876417Y-149030774D01*
X212833913Y-148952944D01*
X212736502Y-148753640D01*
X212636432Y-148542312D01*
X212505539Y-148263217D01*
X212405712Y-148051224D01*
X212368085Y-147972063D01*
X212412822Y-147927091D01*
X212586521Y-147933441D01*
G37*
G36*
X213932082Y-159755319D02*
G01*
X213961894Y-159756494D01*
X214120844Y-159766265D01*
X214107137Y-159774768D01*
X213934194Y-159781493D01*
X213615438Y-159785930D01*
X213164289Y-159787570D01*
X213143223Y-159787570D01*
X212691113Y-159785954D01*
X212374845Y-159781571D01*
X212206796Y-159774928D01*
X212199344Y-159766533D01*
X212364868Y-159756892D01*
X212380209Y-159756299D01*
X212884028Y-159745066D01*
X213439525Y-159744744D01*
X213932082Y-159755319D01*
G37*
G36*
X231220809Y-139480952D02*
G01*
X231119929Y-139736594D01*
X231041786Y-139890729D01*
X230865230Y-140221126D01*
X230756610Y-140407288D01*
X230700619Y-140471406D01*
X230681949Y-140435668D01*
X230681319Y-140413270D01*
X230623257Y-140286150D01*
X230487505Y-140114233D01*
X230371332Y-139926964D01*
X230410376Y-139758445D01*
X230615411Y-139586169D01*
X230786222Y-139490202D01*
X231060410Y-139367872D01*
X231203121Y-139361417D01*
X231220809Y-139480952D01*
G37*
G36*
X248356991Y-159755319D02*
G01*
X248386803Y-159756494D01*
X248545753Y-159766265D01*
X248532046Y-159774768D01*
X248359103Y-159781493D01*
X248040346Y-159785930D01*
X247589198Y-159787570D01*
X247568132Y-159787570D01*
X247116022Y-159785954D01*
X246799753Y-159781571D01*
X246631704Y-159774928D01*
X246624253Y-159766533D01*
X246789777Y-159756892D01*
X246805118Y-159756299D01*
X247308937Y-159745066D01*
X247864434Y-159744744D01*
X248356991Y-159755319D01*
G37*
G36*
X247013058Y-147934536D02*
G01*
X247258755Y-147975099D01*
X247525102Y-148043054D01*
X247759725Y-148129199D01*
X247801709Y-148149589D01*
X248062274Y-148284332D01*
X247687957Y-148658649D01*
X247483649Y-148860639D01*
X247342641Y-148995652D01*
X247301325Y-149030774D01*
X247258821Y-148952944D01*
X247161410Y-148753640D01*
X247061341Y-148542312D01*
X246930474Y-148263290D01*
X246830696Y-148051440D01*
X246793103Y-147972393D01*
X246840383Y-147930567D01*
X247013058Y-147934536D01*
G37*
G36*
X265757509Y-139299559D02*
G01*
X265718294Y-139390288D01*
X265619003Y-139591799D01*
X265487166Y-139850708D01*
X265350315Y-140113630D01*
X265235979Y-140327181D01*
X265171690Y-140437977D01*
X265168186Y-140442314D01*
X265111959Y-140384472D01*
X264993048Y-140218562D01*
X264947706Y-140150499D01*
X264823554Y-139945437D01*
X264800870Y-139825820D01*
X264873525Y-139725275D01*
X264905688Y-139695502D01*
X265054255Y-139592516D01*
X265270157Y-139474953D01*
X265496930Y-139369060D01*
X265678112Y-139301082D01*
X265757239Y-139297263D01*
X265757509Y-139299559D01*
G37*
G36*
X247730952Y-150865928D02*
G01*
X248108522Y-151138197D01*
X248484843Y-151249620D01*
X248707106Y-151249246D01*
X248935003Y-151245281D01*
X249050537Y-151321332D01*
X249124971Y-151527277D01*
X249129740Y-151545054D01*
X249164746Y-151787848D01*
X249182236Y-152150396D01*
X249179712Y-152566981D01*
X249173912Y-152708058D01*
X249067918Y-153508872D01*
X248839343Y-154173702D01*
X248489624Y-154700302D01*
X248020202Y-155086430D01*
X247506036Y-155309193D01*
X246848933Y-155425718D01*
X246129600Y-155416248D01*
X245939927Y-155392313D01*
X245697379Y-155357742D01*
X245384863Y-155315613D01*
X245304443Y-155305123D01*
X244901560Y-155253027D01*
X245307641Y-154995497D01*
X246030158Y-154440971D01*
X246626408Y-153783874D01*
X247082277Y-153048152D01*
X247383648Y-152257748D01*
X247516407Y-151436608D01*
X247521612Y-151239915D01*
X247521612Y-150675255D01*
X247730952Y-150865928D01*
G37*
G36*
X249958916Y-150965122D02*
G01*
X250395453Y-151472387D01*
X250689420Y-151945055D01*
X250864711Y-152431690D01*
X250944298Y-152967739D01*
X250938659Y-153524764D01*
X250853943Y-154085061D01*
X250703813Y-154589537D01*
X250501928Y-154979102D01*
X250469285Y-155022398D01*
X250325603Y-155167665D01*
X250141689Y-155261851D01*
X249862019Y-155327064D01*
X249614146Y-155362906D01*
X249188606Y-155408052D01*
X248748780Y-155439662D01*
X248457199Y-155449703D01*
X247950661Y-155452747D01*
X248269295Y-155217666D01*
X248628209Y-154874504D01*
X248950594Y-154427779D01*
X249179430Y-153958878D01*
X249205302Y-153881604D01*
X249277292Y-153540299D01*
X249329153Y-153084586D01*
X249358457Y-152576807D01*
X249362778Y-152079299D01*
X249339691Y-151654403D01*
X249301312Y-151414345D01*
X249245614Y-151086629D01*
X249278691Y-150826929D01*
X249320119Y-150713786D01*
X249442212Y-150423412D01*
X249958916Y-150965122D01*
G37*
G36*
X263205414Y-142103878D02*
G01*
X263272027Y-142526519D01*
X263236894Y-142735960D01*
X263169488Y-143136136D01*
X263149991Y-143648424D01*
X263175597Y-144205898D01*
X263243502Y-144741635D01*
X263337988Y-145148357D01*
X263568346Y-145684864D01*
X263896849Y-146171005D01*
X264284549Y-146556418D01*
X264567198Y-146737780D01*
X264873626Y-146888803D01*
X264222344Y-146875281D01*
X263826125Y-146863518D01*
X263446168Y-146846422D01*
X263198901Y-146830272D01*
X262771138Y-146789913D01*
X262483376Y-146737733D01*
X262290145Y-146646888D01*
X262145973Y-146490536D01*
X262005387Y-146241834D01*
X261923734Y-146077518D01*
X261739063Y-145656611D01*
X261636705Y-145277540D01*
X261589806Y-144835211D01*
X261585815Y-144755133D01*
X261607165Y-144101237D01*
X261747020Y-143529110D01*
X262023502Y-142992733D01*
X262454730Y-142446091D01*
X262525157Y-142369675D01*
X263089420Y-141766476D01*
X263205414Y-142103878D01*
G37*
G36*
X213306044Y-150871357D02*
G01*
X213681043Y-151121480D01*
X214097538Y-151234610D01*
X214363017Y-151223625D01*
X214568017Y-151203995D01*
X214664492Y-151282365D01*
X214712886Y-151461684D01*
X214741776Y-151699826D01*
X214762692Y-152050928D01*
X214771387Y-152441905D01*
X214771428Y-152469022D01*
X214705241Y-153251323D01*
X214512774Y-153935787D01*
X214203170Y-154506879D01*
X213785570Y-154949067D01*
X213269117Y-155246818D01*
X213103076Y-155303661D01*
X212665552Y-155394482D01*
X212174370Y-155438599D01*
X211719324Y-155430489D01*
X211515018Y-155401347D01*
X211344565Y-155372124D01*
X211068868Y-155331501D01*
X210910256Y-155309858D01*
X210445055Y-155248183D01*
X210797050Y-155067534D01*
X211119653Y-154853207D01*
X211496873Y-154528908D01*
X211883079Y-154141433D01*
X212232639Y-153737578D01*
X212499919Y-153364138D01*
X212560284Y-153259335D01*
X212842582Y-152595348D01*
X213028984Y-151875233D01*
X213096701Y-151187176D01*
X213096703Y-151183648D01*
X213096703Y-150675255D01*
X213306044Y-150871357D01*
G37*
G36*
X215534007Y-150965122D02*
G01*
X215931431Y-151407403D01*
X216203625Y-151789721D01*
X216372864Y-152165548D01*
X216461423Y-152588360D01*
X216491579Y-153111630D01*
X216492602Y-153266300D01*
X216487427Y-153712915D01*
X216465153Y-154029790D01*
X216415534Y-154273139D01*
X216328326Y-154499175D01*
X216233355Y-154688755D01*
X216034225Y-155004305D01*
X215834175Y-155215754D01*
X215746972Y-155267191D01*
X215561528Y-155308101D01*
X215240393Y-155350283D01*
X214833827Y-155387944D01*
X214517575Y-155408942D01*
X214078829Y-155430042D01*
X213803636Y-155433955D01*
X213670126Y-155419078D01*
X213656426Y-155383809D01*
X213701465Y-155349154D01*
X213962477Y-155136574D01*
X214246037Y-154829232D01*
X214489543Y-154497826D01*
X214557210Y-154382783D01*
X214741751Y-153916170D01*
X214874811Y-153332382D01*
X214950003Y-152694779D01*
X214960941Y-152066721D01*
X214901237Y-151511566D01*
X214863090Y-151348440D01*
X214818704Y-151009546D01*
X214893507Y-150717838D01*
X215017303Y-150423412D01*
X215534007Y-150965122D01*
G37*
G36*
X228781454Y-142106637D02*
G01*
X228846907Y-142530839D01*
X228811985Y-142735960D01*
X228744580Y-143136136D01*
X228725083Y-143648424D01*
X228750689Y-144205898D01*
X228818594Y-144741635D01*
X228913079Y-145148357D01*
X229143438Y-145684864D01*
X229471941Y-146171005D01*
X229859641Y-146556418D01*
X230142289Y-146737780D01*
X230448718Y-146888803D01*
X229797436Y-146876981D01*
X229421736Y-146866098D01*
X229081747Y-146849318D01*
X228867033Y-146831855D01*
X228419270Y-146778498D01*
X228115667Y-146731778D01*
X227916340Y-146670882D01*
X227781406Y-146575000D01*
X227670980Y-146423318D01*
X227545177Y-146195024D01*
X227505475Y-146121374D01*
X227360871Y-145842897D01*
X227269300Y-145614629D01*
X227218716Y-145378569D01*
X227197071Y-145076713D01*
X227192319Y-144651057D01*
X227192308Y-144613553D01*
X227211288Y-144056105D01*
X227283092Y-143612735D01*
X227430011Y-143229914D01*
X227674336Y-142854112D01*
X228038361Y-142431799D01*
X228150340Y-142313040D01*
X228666409Y-141771995D01*
X228781454Y-142106637D01*
G37*
G36*
X230588278Y-142641635D02*
G01*
X230659016Y-143284971D01*
X230856140Y-143970319D01*
X231157014Y-144628252D01*
X231326728Y-144906623D01*
X231743774Y-145462338D01*
X232179101Y-145890722D01*
X232690115Y-146246363D01*
X232806247Y-146313450D01*
X233052533Y-146465290D01*
X233202362Y-146584388D01*
X233224928Y-146640373D01*
X233098882Y-146672112D01*
X232841966Y-146710194D01*
X232508834Y-146746570D01*
X232495604Y-146747792D01*
X232120642Y-146782989D01*
X231781093Y-146816201D01*
X231565201Y-146838656D01*
X231328560Y-146824612D01*
X230999289Y-146756481D01*
X230718418Y-146672055D01*
X230230394Y-146480043D01*
X229877503Y-146280167D01*
X229610556Y-146039061D01*
X229427250Y-145796229D01*
X229123385Y-145174538D01*
X228954520Y-144430113D01*
X228915831Y-143776190D01*
X228922089Y-143289558D01*
X228946583Y-142961882D01*
X228998505Y-142766257D01*
X229087044Y-142675777D01*
X229221392Y-142663539D01*
X229292025Y-142674925D01*
X229707394Y-142682072D01*
X230100313Y-142521285D01*
X230301987Y-142372342D01*
X230588278Y-142131443D01*
X230588278Y-142641635D01*
G37*
G36*
X264973703Y-142324600D02*
G01*
X265007334Y-142537849D01*
X265013187Y-142696426D01*
X265077755Y-143269885D01*
X265256626Y-143902642D01*
X265527551Y-144527586D01*
X265743501Y-144899384D01*
X266076757Y-145365949D01*
X266412077Y-145725828D01*
X266813566Y-146040387D01*
X267177141Y-146271783D01*
X267445363Y-146441633D01*
X267574941Y-146559242D01*
X267555295Y-146638286D01*
X267375844Y-146692440D01*
X267026008Y-146735380D01*
X266803043Y-146755295D01*
X266442985Y-146786966D01*
X266127328Y-146816579D01*
X265943590Y-146835622D01*
X265733722Y-146820292D01*
X265424222Y-146753081D01*
X265143326Y-146668515D01*
X264654328Y-146478641D01*
X264300448Y-146278732D01*
X264032201Y-146035356D01*
X263852158Y-145796229D01*
X263548294Y-145174538D01*
X263379428Y-144430113D01*
X263340739Y-143776190D01*
X263346482Y-143288163D01*
X263370396Y-142958908D01*
X263423119Y-142761271D01*
X263515289Y-142668095D01*
X263657544Y-142652226D01*
X263774451Y-142669092D01*
X264015882Y-142671443D01*
X264300943Y-142616614D01*
X264570370Y-142524261D01*
X264764900Y-142414042D01*
X264827106Y-142319935D01*
X264898313Y-142243234D01*
X264920146Y-142241025D01*
X264973703Y-142324600D01*
G37*
G36*
X277466502Y-151130602D02*
G01*
X277756061Y-151361069D01*
X277990589Y-151571167D01*
X278125007Y-151720109D01*
X278133453Y-151734096D01*
X278164190Y-151881616D01*
X278190526Y-152179910D01*
X278210577Y-152593689D01*
X278222458Y-153087665D01*
X278224908Y-153446264D01*
X278225521Y-154035322D01*
X278219284Y-154460501D01*
X278194087Y-154743929D01*
X278137819Y-154907734D01*
X278038370Y-154974044D01*
X277883628Y-154964985D01*
X277661484Y-154902687D01*
X277462061Y-154840070D01*
X277024854Y-154705555D01*
X277319409Y-154231715D01*
X277505630Y-153888038D01*
X277594663Y-153576813D01*
X277617056Y-153232967D01*
X277599932Y-152822351D01*
X277546699Y-152543407D01*
X277462865Y-152416282D01*
X277395904Y-152423771D01*
X277358734Y-152547266D01*
X277397382Y-152793139D01*
X277403453Y-152815709D01*
X277437107Y-153160995D01*
X277378837Y-153541847D01*
X277248666Y-153913312D01*
X277066621Y-154230437D01*
X276852723Y-154448270D01*
X276643232Y-154522344D01*
X276465797Y-154491460D01*
X276205882Y-154412932D01*
X275918383Y-154307941D01*
X275658195Y-154197669D01*
X275480214Y-154103300D01*
X275433700Y-154055622D01*
X275496938Y-153946553D01*
X275579395Y-153865970D01*
X275845253Y-153530196D01*
X275968941Y-153099576D01*
X275947608Y-152602621D01*
X275778400Y-152067841D01*
X275762712Y-152033516D01*
X275535300Y-151545054D01*
X275882479Y-151545054D01*
X276298616Y-151464368D01*
X276616942Y-151231167D01*
X276776626Y-150970027D01*
X276891007Y-150697995D01*
X277466502Y-151130602D01*
G37*
G36*
X210146438Y-149872997D02*
G01*
X210403008Y-150095792D01*
X210429317Y-150126190D01*
X211103098Y-150842581D01*
X211765769Y-151380532D01*
X212228123Y-151652570D01*
X212539680Y-151812202D01*
X212713857Y-151927383D01*
X212782958Y-152030033D01*
X212779289Y-152152070D01*
X212770906Y-152188864D01*
X212581838Y-152710312D01*
X212283262Y-153235204D01*
X211901313Y-153739608D01*
X211462124Y-154199594D01*
X210991828Y-154591230D01*
X210516559Y-154890585D01*
X210062449Y-155073727D01*
X209655633Y-155116727D01*
X209584432Y-155106817D01*
X209508382Y-155087373D01*
X209453420Y-155044117D01*
X209416121Y-154950412D01*
X209393063Y-154779621D01*
X209380821Y-154505106D01*
X209375972Y-154100229D01*
X209375093Y-153538353D01*
X209375092Y-153478009D01*
X209375854Y-152901746D01*
X209380025Y-152488271D01*
X209390433Y-152214294D01*
X209409905Y-152056525D01*
X209441268Y-151991672D01*
X209487350Y-151996445D01*
X209548963Y-152045727D01*
X209747718Y-152293731D01*
X209957878Y-152664876D01*
X210153049Y-153100102D01*
X210306837Y-153540350D01*
X210392846Y-153926559D01*
X210394114Y-153936790D01*
X210432490Y-154224577D01*
X210463577Y-154346873D01*
X210497515Y-154323446D01*
X210534350Y-154210194D01*
X210551217Y-153903116D01*
X210478350Y-153492921D01*
X210334292Y-153027825D01*
X210137584Y-152556047D01*
X209906769Y-152125802D01*
X209660391Y-151785308D01*
X209564121Y-151687284D01*
X209462424Y-151563603D01*
X209404473Y-151389599D01*
X209379223Y-151115352D01*
X209375092Y-150832832D01*
X209385356Y-150503137D01*
X209412468Y-150260715D01*
X209450902Y-150151503D01*
X209457280Y-150149450D01*
X209544148Y-150072020D01*
X209588130Y-149963369D01*
X209702940Y-149799806D01*
X209901062Y-149772009D01*
X210146438Y-149872997D01*
G37*
G36*
X275521062Y-148960463D02*
G01*
X276352467Y-149096230D01*
X277145507Y-149390177D01*
X277803491Y-149789791D01*
X278219155Y-150102930D01*
X278222031Y-150785379D01*
X278224908Y-151467829D01*
X277810713Y-151103239D01*
X277550210Y-150903660D01*
X277202944Y-150677485D01*
X276812214Y-150448323D01*
X276421316Y-150239779D01*
X276073551Y-150075461D01*
X275812216Y-149978974D01*
X275720004Y-149963369D01*
X275513583Y-150039687D01*
X275339288Y-150220353D01*
X275260007Y-150432936D01*
X275263548Y-150489092D01*
X275350342Y-150628856D01*
X275515425Y-150762403D01*
X275689819Y-150845206D01*
X275801355Y-150836251D01*
X275771002Y-150754035D01*
X275630720Y-150622915D01*
X275627127Y-150620194D01*
X275467698Y-150435869D01*
X275462777Y-150300916D01*
X275593324Y-150172137D01*
X275807840Y-150157095D01*
X276062684Y-150234096D01*
X276314212Y-150381448D01*
X276518781Y-150577458D01*
X276632749Y-150800434D01*
X276643223Y-150887656D01*
X276582969Y-151020800D01*
X276457143Y-151172893D01*
X276226908Y-151301118D01*
X275912874Y-151359008D01*
X275593026Y-151343408D01*
X275345350Y-151251163D01*
X275307431Y-151219413D01*
X275163740Y-151099117D01*
X275103587Y-151127628D01*
X275112643Y-151318331D01*
X275123732Y-151391014D01*
X275131969Y-151632884D01*
X275030803Y-151805761D01*
X274919254Y-151902735D01*
X274573737Y-152075568D01*
X274206576Y-152064989D01*
X273842514Y-151891171D01*
X273533954Y-151575225D01*
X273401706Y-151287884D01*
X273331187Y-151015936D01*
X273340862Y-150812352D01*
X273437214Y-150574636D01*
X273448226Y-150552350D01*
X273715851Y-150169118D01*
X274054792Y-149925757D01*
X274340879Y-149850225D01*
X274514507Y-149816973D01*
X274565246Y-149716290D01*
X274542550Y-149538677D01*
X274531581Y-149262960D01*
X274633257Y-149080316D01*
X274866041Y-148979836D01*
X275248395Y-148950609D01*
X275521062Y-148960463D01*
G37*
G36*
X265354477Y-137854607D02*
G01*
X265423227Y-137861969D01*
X266053902Y-137967984D01*
X266548508Y-138137645D01*
X266952036Y-138391665D01*
X267281301Y-138717425D01*
X267562400Y-139134096D01*
X267687750Y-139529477D01*
X267658429Y-139881018D01*
X267475514Y-140166168D01*
X267203876Y-140337923D01*
X266832497Y-140408862D01*
X266505387Y-140318968D01*
X266256593Y-140093204D01*
X266120163Y-139756537D01*
X266105385Y-139532455D01*
X266083670Y-139242140D01*
X265986066Y-139109830D01*
X265981861Y-139108136D01*
X265794122Y-139108851D01*
X265509868Y-139187278D01*
X265188935Y-139320227D01*
X264891155Y-139484508D01*
X264753652Y-139584159D01*
X264562463Y-139719035D01*
X264403415Y-139736664D01*
X264222344Y-139672298D01*
X263739527Y-139557524D01*
X263171142Y-139583820D01*
X262550405Y-139749020D01*
X262449335Y-139787843D01*
X262093316Y-139917969D01*
X261869147Y-139966127D01*
X261744824Y-139938543D01*
X261731946Y-139927403D01*
X261576893Y-139860343D01*
X261323118Y-139825098D01*
X261249707Y-139823464D01*
X261021285Y-139847166D01*
X260808329Y-139929517D01*
X260589552Y-140090259D01*
X260343668Y-140349134D01*
X260049390Y-140725887D01*
X259685431Y-141240260D01*
X259621245Y-141333819D01*
X259096050Y-142056225D01*
X258599953Y-142630942D01*
X258099439Y-143085512D01*
X257560991Y-143447475D01*
X256951095Y-143744374D01*
X256464266Y-143928045D01*
X256035032Y-144054363D01*
X255700309Y-144086843D01*
X255391489Y-144021186D01*
X255039960Y-143853094D01*
X255011355Y-143837027D01*
X254651294Y-143648638D01*
X254234568Y-143451966D01*
X253997870Y-143350065D01*
X253449587Y-143126160D01*
X254276991Y-142971799D01*
X255132793Y-142768731D01*
X255942929Y-142480400D01*
X256736791Y-142090876D01*
X257543769Y-141584229D01*
X258393255Y-140944529D01*
X259067289Y-140375453D01*
X260120176Y-139539089D01*
X261184737Y-138863802D01*
X262250711Y-138353652D01*
X263307834Y-138012698D01*
X264345844Y-137844996D01*
X265354477Y-137854607D01*
G37*
G36*
X231008755Y-137863086D02*
G01*
X231033358Y-137865836D01*
X231666622Y-137976244D01*
X232165840Y-138158323D01*
X232576023Y-138433099D01*
X232856393Y-138717425D01*
X233132875Y-139129842D01*
X233256349Y-139524988D01*
X233227983Y-139878223D01*
X233048940Y-140164902D01*
X232779767Y-140337589D01*
X232407429Y-140409542D01*
X232080991Y-140318288D01*
X231830632Y-140086038D01*
X231686528Y-139734998D01*
X231663652Y-139516194D01*
X231651730Y-139270412D01*
X231598370Y-139161732D01*
X231461717Y-139141175D01*
X231349516Y-139148602D01*
X231029868Y-139219010D01*
X230677727Y-139361706D01*
X230372768Y-139539765D01*
X230227620Y-139668557D01*
X230126889Y-139752330D01*
X229990898Y-139747866D01*
X229794891Y-139675358D01*
X229269893Y-139554303D01*
X228668488Y-139591877D01*
X228013548Y-139785335D01*
X227654122Y-139915611D01*
X227428594Y-139961374D01*
X227308104Y-139928305D01*
X227304530Y-139924896D01*
X227152640Y-139860594D01*
X226897791Y-139824690D01*
X226804640Y-139821978D01*
X226583543Y-139843429D01*
X226377841Y-139920793D01*
X226167003Y-140073586D01*
X225930502Y-140321324D01*
X225647806Y-140683522D01*
X225298386Y-141179698D01*
X225156372Y-141388851D01*
X224849739Y-141817441D01*
X224516481Y-142241336D01*
X224201290Y-142605677D01*
X223993368Y-142816322D01*
X223460077Y-143224551D01*
X222805922Y-143600187D01*
X222096108Y-143908467D01*
X221702930Y-144037484D01*
X221464414Y-144101120D01*
X221285123Y-144119880D01*
X221106381Y-144083294D01*
X220869514Y-143980893D01*
X220586447Y-143838268D01*
X220188610Y-143642020D01*
X219775671Y-143449420D01*
X219442435Y-143304449D01*
X218949706Y-143103389D01*
X219535476Y-143037948D01*
X220444298Y-142866109D01*
X221362566Y-142549074D01*
X222303120Y-142080124D01*
X223278797Y-141452536D01*
X224302436Y-140659590D01*
X224657376Y-140356625D01*
X225720416Y-139517820D01*
X226793971Y-138843494D01*
X227868811Y-138337253D01*
X228935707Y-138002701D01*
X229985432Y-137843443D01*
X231008755Y-137863086D01*
G37*
G36*
X214093048Y-146474650D02*
G01*
X214917571Y-146624413D01*
X215754149Y-146891115D01*
X216509255Y-147215929D01*
X217044843Y-147479972D01*
X217505645Y-147737056D01*
X217940019Y-148019282D01*
X218396320Y-148358750D01*
X218922906Y-148787560D01*
X219093634Y-148931487D01*
X220209604Y-149801704D01*
X221290681Y-150490449D01*
X222338792Y-150998651D01*
X223355862Y-151327239D01*
X224343818Y-151477142D01*
X224375407Y-151479023D01*
X224673140Y-151503752D01*
X224888109Y-151536259D01*
X224959577Y-151560798D01*
X224909468Y-151611582D01*
X224724842Y-151685087D01*
X224566587Y-151732264D01*
X224281488Y-151828619D01*
X223897189Y-151984353D01*
X223479196Y-152172249D01*
X223304060Y-152256824D01*
X222942895Y-152429734D01*
X222638259Y-152564878D01*
X222432209Y-152644151D01*
X222373657Y-152657375D01*
X222234952Y-152628119D01*
X221973174Y-152554790D01*
X221641688Y-152452456D01*
X221597838Y-152438320D01*
X220900094Y-152168919D01*
X220287211Y-151830141D01*
X219728891Y-151396951D01*
X219194838Y-150844313D01*
X218654755Y-150147192D01*
X218427997Y-149818934D01*
X218016769Y-149241705D01*
X217662434Y-148823134D01*
X217350696Y-148549958D01*
X217067264Y-148408908D01*
X216879380Y-148381685D01*
X216609220Y-148420087D01*
X216400894Y-148508818D01*
X216280411Y-148570541D01*
X216134107Y-148567066D01*
X215908790Y-148490297D01*
X215708569Y-148403457D01*
X215318522Y-148258210D01*
X214926252Y-148187761D01*
X214519463Y-148172600D01*
X214080245Y-148155170D01*
X213742539Y-148089520D01*
X213424542Y-147959402D01*
X213410471Y-147952321D01*
X212862026Y-147764427D01*
X212469515Y-147730402D01*
X212180035Y-147737037D01*
X212032603Y-147769556D01*
X211983317Y-147846883D01*
X211983860Y-147939743D01*
X211988819Y-148267168D01*
X211921544Y-148491614D01*
X211757122Y-148690069D01*
X211734033Y-148711768D01*
X211413830Y-148907110D01*
X211083337Y-148918668D01*
X210757284Y-148747047D01*
X210670499Y-148667962D01*
X210455690Y-148351162D01*
X210418912Y-148004662D01*
X210561002Y-147623670D01*
X210882792Y-147203394D01*
X210935263Y-147148302D01*
X211316674Y-146832588D01*
X211767495Y-146614429D01*
X212319836Y-146483708D01*
X213005805Y-146430311D01*
X213222231Y-146427838D01*
X214093048Y-146474650D01*
G37*
G36*
X248009943Y-146429695D02*
G01*
X248679296Y-146491675D01*
X249305600Y-146605928D01*
X249514047Y-146660750D01*
X250159781Y-146871706D01*
X250779126Y-147128163D01*
X251398813Y-147446092D01*
X252045574Y-147841468D01*
X252746138Y-148330264D01*
X253527238Y-148928454D01*
X254145285Y-149428271D01*
X255211075Y-150199091D01*
X256332159Y-150807540D01*
X256974829Y-151071910D01*
X257401327Y-151208497D01*
X257872014Y-151328641D01*
X258341891Y-151424263D01*
X258765957Y-151487285D01*
X259099213Y-151509626D01*
X259287415Y-151487116D01*
X259409502Y-151483673D01*
X259430769Y-151523009D01*
X259349132Y-151597364D01*
X259140971Y-151685981D01*
X258988828Y-151732333D01*
X258704875Y-151828265D01*
X258321856Y-151983943D01*
X257905188Y-152172100D01*
X257732080Y-152256146D01*
X257365026Y-152430400D01*
X257047071Y-152566113D01*
X256823297Y-152644785D01*
X256755156Y-152657014D01*
X256594770Y-152623649D01*
X256315028Y-152539244D01*
X255969922Y-152420414D01*
X255885529Y-152389421D01*
X255254230Y-152126239D01*
X254713565Y-151829376D01*
X254230542Y-151470838D01*
X253772170Y-151022635D01*
X253305455Y-150456772D01*
X252836332Y-149802332D01*
X252436571Y-149245344D01*
X252099416Y-148840649D01*
X251807768Y-148572393D01*
X251544531Y-148424722D01*
X251304289Y-148381685D01*
X251035918Y-148418985D01*
X250830262Y-148505557D01*
X250712416Y-148563672D01*
X250561271Y-148560759D01*
X250326835Y-148489476D01*
X250091417Y-148397011D01*
X249484233Y-148212930D01*
X248870696Y-148152493D01*
X248330492Y-148106127D01*
X247896649Y-147980817D01*
X247800733Y-147937442D01*
X247264914Y-147767389D01*
X246886931Y-147732446D01*
X246600221Y-147738050D01*
X246455242Y-147770707D01*
X246407813Y-147849569D01*
X246408768Y-147939743D01*
X246413727Y-148267168D01*
X246346452Y-148491614D01*
X246182031Y-148690069D01*
X246158941Y-148711768D01*
X245838738Y-148907110D01*
X245508246Y-148918668D01*
X245182192Y-148747047D01*
X245095407Y-148667962D01*
X244921694Y-148448710D01*
X244828476Y-148242364D01*
X244823443Y-148199773D01*
X244908250Y-147810967D01*
X245140624Y-147414111D01*
X245487491Y-147045829D01*
X245915779Y-146742745D01*
X246292989Y-146572449D01*
X246761848Y-146468576D01*
X247352480Y-146421493D01*
X248009943Y-146429695D01*
G37*
G36*
X215200812Y-148475903D02*
G01*
X215782529Y-148701071D01*
X216065292Y-148837326D01*
X216237668Y-148891527D01*
X216351893Y-148872062D01*
X216439324Y-148806547D01*
X216639646Y-148674187D01*
X216849362Y-148646584D01*
X217082641Y-148734014D01*
X217353650Y-148946753D01*
X217676559Y-149295076D01*
X218065535Y-149789262D01*
X218370024Y-150206887D01*
X218988376Y-151002806D01*
X219593562Y-151631090D01*
X220206050Y-152107122D01*
X220846307Y-152446281D01*
X221534799Y-152663950D01*
X221679670Y-152694178D01*
X221965360Y-152757031D01*
X222159464Y-152814779D01*
X222214652Y-152847691D01*
X222134110Y-152926825D01*
X221912306Y-153063626D01*
X221578975Y-153244257D01*
X221163852Y-153454879D01*
X220696672Y-153681653D01*
X220207167Y-153910742D01*
X219725074Y-154128308D01*
X219280127Y-154320511D01*
X218902060Y-154473514D01*
X218620608Y-154573478D01*
X218465505Y-154606566D01*
X218447531Y-154600889D01*
X218441220Y-154491194D01*
X218483226Y-154279096D01*
X218494631Y-154237675D01*
X218556405Y-153922085D01*
X218585707Y-153575250D01*
X218586081Y-153539662D01*
X218562680Y-153250880D01*
X218502005Y-152922391D01*
X218418346Y-152605282D01*
X218325993Y-152350640D01*
X218239237Y-152209552D01*
X218210315Y-152196337D01*
X218147277Y-152207428D01*
X218129816Y-152267302D01*
X218162316Y-152415856D01*
X218249162Y-152692989D01*
X218272881Y-152765653D01*
X218359857Y-153181812D01*
X218380979Y-153646013D01*
X218339575Y-154091770D01*
X218238975Y-154452597D01*
X218183135Y-154557905D01*
X217985599Y-154722350D01*
X217622177Y-154881529D01*
X217113051Y-155028076D01*
X216609419Y-155132160D01*
X216260963Y-155194168D01*
X216514365Y-154648915D01*
X216702571Y-154058764D01*
X216776358Y-153386766D01*
X216734688Y-152698622D01*
X216576524Y-152060033D01*
X216556086Y-152006079D01*
X216320711Y-151557322D01*
X215968630Y-151073182D01*
X215545880Y-150608501D01*
X215098499Y-150218119D01*
X214988550Y-150138800D01*
X214701164Y-149959785D01*
X214546595Y-149909211D01*
X214525533Y-149987010D01*
X214626906Y-150175339D01*
X214723678Y-150446826D01*
X214669495Y-150685583D01*
X214499159Y-150869826D01*
X214247473Y-150977774D01*
X213949239Y-150987644D01*
X213639261Y-150877655D01*
X213572779Y-150835093D01*
X213311955Y-150547823D01*
X213153283Y-150157389D01*
X213105295Y-149721442D01*
X213176524Y-149297633D01*
X213306044Y-149032920D01*
X213655607Y-148675232D01*
X214103700Y-148461053D01*
X214626657Y-148393553D01*
X215200812Y-148475903D01*
G37*
G36*
X249628004Y-148472761D02*
G01*
X250218970Y-148698183D01*
X250501548Y-148832606D01*
X250673905Y-148884782D01*
X250788306Y-148863154D01*
X250868103Y-148803043D01*
X251079904Y-148670462D01*
X251306758Y-148656184D01*
X251561328Y-148769349D01*
X251856278Y-149019097D01*
X252204272Y-149414569D01*
X252617975Y-149964903D01*
X252763261Y-150170841D01*
X253069887Y-150586589D01*
X253405376Y-151003057D01*
X253720237Y-151360381D01*
X253884117Y-151526655D01*
X254345756Y-151897987D01*
X254890859Y-152234875D01*
X255459502Y-152506370D01*
X255991757Y-152681525D01*
X256193646Y-152719399D01*
X256451856Y-152764451D01*
X256612215Y-152813235D01*
X256638327Y-152836345D01*
X256556852Y-152917685D01*
X256334287Y-153056469D01*
X256000349Y-153238829D01*
X255584755Y-153450895D01*
X255117221Y-153678798D01*
X254627464Y-153908670D01*
X254145202Y-154126640D01*
X253700150Y-154318840D01*
X253322027Y-154471401D01*
X253040549Y-154570454D01*
X252885432Y-154602129D01*
X252867685Y-154596134D01*
X252864498Y-154489764D01*
X252907963Y-154279552D01*
X252919540Y-154237675D01*
X252981314Y-153922085D01*
X253010615Y-153575250D01*
X253010989Y-153539662D01*
X252989176Y-153256073D01*
X252932551Y-152941391D01*
X252854333Y-152640769D01*
X252767742Y-152399359D01*
X252685999Y-152262313D01*
X252635114Y-152255875D01*
X252612591Y-152391608D01*
X252661536Y-152640779D01*
X252698189Y-152755905D01*
X252799720Y-153247153D01*
X252792821Y-153739591D01*
X252741865Y-154182134D01*
X252660673Y-154482301D01*
X252513992Y-154680614D01*
X252266570Y-154817596D01*
X251883152Y-154933767D01*
X251717907Y-154975145D01*
X251266919Y-155084278D01*
X250972581Y-155144977D01*
X250810683Y-155152569D01*
X250757015Y-155102380D01*
X250787364Y-154989736D01*
X250876123Y-154812643D01*
X251113574Y-154174172D01*
X251214200Y-153462936D01*
X251169656Y-152740776D01*
X251161751Y-152696088D01*
X251017770Y-152110484D01*
X250803954Y-151625145D01*
X250481353Y-151160212D01*
X250319733Y-150969543D01*
X250078717Y-150719950D01*
X249795503Y-150461774D01*
X249505578Y-150222824D01*
X249244427Y-150030907D01*
X249047533Y-149913832D01*
X248951929Y-149897643D01*
X248961393Y-150001258D01*
X249051814Y-150175339D01*
X249148587Y-150446826D01*
X249094403Y-150685583D01*
X248924067Y-150869826D01*
X248672381Y-150977774D01*
X248374147Y-150987644D01*
X248064169Y-150877655D01*
X247997687Y-150835093D01*
X247736863Y-150547823D01*
X247578191Y-150157389D01*
X247530203Y-149721442D01*
X247601432Y-149297633D01*
X247730952Y-149032920D01*
X248079806Y-148676683D01*
X248528449Y-148462401D01*
X249052606Y-148393338D01*
X249628004Y-148472761D01*
G37*
G36*
X264132848Y-139910269D02*
G01*
X264558149Y-140181418D01*
X264803530Y-140468789D01*
X264971117Y-140847202D01*
X265011939Y-141256295D01*
X264940691Y-141656857D01*
X264772065Y-142009677D01*
X264520757Y-142275543D01*
X264201458Y-142415244D01*
X264069691Y-142427106D01*
X263727321Y-142384741D01*
X263514354Y-142243296D01*
X263421903Y-142076217D01*
X263388350Y-141829922D01*
X263482984Y-141615632D01*
X263573214Y-141436969D01*
X263578356Y-141333423D01*
X263445978Y-141327075D01*
X263212306Y-141451522D01*
X262894993Y-141694458D01*
X262511692Y-142043577D01*
X262395964Y-142157663D01*
X261933434Y-142677986D01*
X261620774Y-143183735D01*
X261435099Y-143729478D01*
X261353520Y-144369781D01*
X261344918Y-144663505D01*
X261348978Y-145080935D01*
X261379874Y-145385833D01*
X261452843Y-145651385D01*
X261583122Y-145950779D01*
X261635009Y-146056824D01*
X261777514Y-146350791D01*
X261877215Y-146568959D01*
X261914665Y-146668572D01*
X261914130Y-146670471D01*
X261822297Y-146656469D01*
X261590604Y-146606809D01*
X261259842Y-146530464D01*
X261056647Y-146481845D01*
X260676116Y-146385676D01*
X260360464Y-146298381D01*
X260156508Y-146233251D01*
X260111693Y-146213557D01*
X259998362Y-146063994D01*
X259885235Y-145787306D01*
X259789322Y-145441685D01*
X259727633Y-145085327D01*
X259713974Y-144852839D01*
X259748205Y-144488857D01*
X259827761Y-144125351D01*
X259850136Y-144056565D01*
X259918252Y-143794465D01*
X259913150Y-143624239D01*
X259899612Y-143603055D01*
X259829124Y-143628100D01*
X259745522Y-143793848D01*
X259661032Y-144056654D01*
X259587883Y-144372874D01*
X259538302Y-144698865D01*
X259523809Y-144944383D01*
X259555086Y-145312473D01*
X259632740Y-145681949D01*
X259657963Y-145761230D01*
X259792116Y-146141461D01*
X258890380Y-145815116D01*
X258530955Y-145673661D01*
X258095682Y-145485085D01*
X257621142Y-145267250D01*
X257143918Y-145038016D01*
X256700590Y-144815245D01*
X256327742Y-144616797D01*
X256061954Y-144460534D01*
X255955071Y-144381951D01*
X255993253Y-144324434D01*
X256173432Y-144253202D01*
X256398183Y-144196693D01*
X256989834Y-144017607D01*
X257609833Y-143735396D01*
X258185268Y-143388123D01*
X258619652Y-143037088D01*
X258837601Y-142800373D01*
X259123920Y-142454153D01*
X259442930Y-142043195D01*
X259758950Y-141612266D01*
X259788133Y-141571047D01*
X260205351Y-140994572D01*
X260544803Y-140565305D01*
X260823348Y-140270232D01*
X261057850Y-140096338D01*
X261265168Y-140030608D01*
X261462164Y-140060027D01*
X261631338Y-140148316D01*
X261770256Y-140227564D01*
X261899409Y-140248186D01*
X262074500Y-140203662D01*
X262351231Y-140087470D01*
X262422157Y-140055740D01*
X263051621Y-139845135D01*
X263626262Y-139797410D01*
X264132848Y-139910269D01*
G37*
G36*
X229675725Y-139899859D02*
G01*
X230107000Y-140158826D01*
X230378622Y-140468789D01*
X230539672Y-140853165D01*
X230572688Y-141290899D01*
X230486790Y-141724365D01*
X230291100Y-142095936D01*
X230090246Y-142290765D01*
X229789135Y-142409152D01*
X229452207Y-142408485D01*
X229161193Y-142292870D01*
X229099634Y-142241025D01*
X228942294Y-142027757D01*
X228942389Y-141820790D01*
X229062603Y-141604428D01*
X229155306Y-141434872D01*
X229162655Y-141342631D01*
X229025335Y-141321436D01*
X228791721Y-141441342D01*
X228457183Y-141705440D01*
X228048578Y-142085949D01*
X227575404Y-142594478D01*
X227247792Y-143071644D01*
X227043870Y-143567276D01*
X226941767Y-144131204D01*
X226918707Y-144660073D01*
X226926430Y-145085806D01*
X226963025Y-145403467D01*
X227044549Y-145690626D01*
X227187054Y-146024849D01*
X227212374Y-146078937D01*
X227351529Y-146378017D01*
X227450175Y-146597065D01*
X227490228Y-146695756D01*
X227489800Y-146697617D01*
X227396906Y-146674254D01*
X227173529Y-146622801D01*
X226913187Y-146564455D01*
X226400953Y-146444939D01*
X226038842Y-146339886D01*
X225793731Y-146231392D01*
X225632498Y-146101557D01*
X225522020Y-145932479D01*
X225455371Y-145776556D01*
X225322166Y-145221429D01*
X225309648Y-144623964D01*
X225419380Y-144073262D01*
X225425228Y-144056565D01*
X225490028Y-143810171D01*
X225494013Y-143637530D01*
X225478916Y-143607268D01*
X225405292Y-143629726D01*
X225317750Y-143791515D01*
X225229980Y-144047943D01*
X225155672Y-144354317D01*
X225108513Y-144665947D01*
X225098901Y-144847940D01*
X225128682Y-145222021D01*
X225202816Y-145617977D01*
X225229356Y-145715249D01*
X225301954Y-145965292D01*
X225342320Y-146121911D01*
X225345417Y-146148717D01*
X225258306Y-146117737D01*
X225033423Y-146033815D01*
X224706799Y-145910478D01*
X224387546Y-145789121D01*
X224054103Y-145652732D01*
X223649521Y-145473093D01*
X223205445Y-145265970D01*
X222753521Y-145047125D01*
X222325397Y-144832323D01*
X221952718Y-144637329D01*
X221667131Y-144477906D01*
X221500282Y-144369818D01*
X221470330Y-144335964D01*
X221553088Y-144299855D01*
X221766948Y-144242797D01*
X221983222Y-144194628D01*
X222647090Y-143987445D01*
X223324208Y-143655093D01*
X223941446Y-143237221D01*
X224247614Y-142966920D01*
X224506427Y-142683735D01*
X224821814Y-142298879D01*
X225150044Y-141867412D01*
X225393474Y-141524230D01*
X225826085Y-140919217D01*
X226191465Y-140475335D01*
X226500252Y-140184710D01*
X226763083Y-140039468D01*
X226990596Y-140031737D01*
X227193427Y-140153642D01*
X227215568Y-140175530D01*
X227311251Y-140259403D01*
X227414179Y-140284438D01*
X227572278Y-140244131D01*
X227833476Y-140131981D01*
X227957428Y-140074873D01*
X228586518Y-139855536D01*
X229164091Y-139797980D01*
X229675725Y-139899859D01*
G37*
G36*
X237592157Y-140324218D02*
G01*
X237785991Y-140409994D01*
X237804086Y-140421581D01*
X237968940Y-140561105D01*
X238012098Y-140727679D01*
X237989628Y-140899893D01*
X237963578Y-141114042D01*
X238011073Y-141202184D01*
X238124946Y-141217582D01*
X238484777Y-141301960D01*
X238811971Y-141523218D01*
X239054152Y-141833544D01*
X239157152Y-142159877D01*
X239161647Y-142528829D01*
X239079351Y-142798995D01*
X238885884Y-143046893D01*
X238869166Y-143063772D01*
X238550643Y-143297337D01*
X238215526Y-143407341D01*
X237897808Y-143404435D01*
X237631483Y-143299268D01*
X237450545Y-143102488D01*
X237388986Y-142824746D01*
X237427114Y-142612006D01*
X237461066Y-142479244D01*
X237413464Y-142468540D01*
X237251566Y-142568075D01*
X236922936Y-142694026D01*
X236540233Y-142716190D01*
X236201649Y-142629533D01*
X236188265Y-142622589D01*
X235978384Y-142428458D01*
X235923915Y-142182820D01*
X236018130Y-141925466D01*
X236254298Y-141696189D01*
X236354914Y-141637226D01*
X236654296Y-141516487D01*
X236864966Y-141525752D01*
X237016909Y-141646927D01*
X237083840Y-141771227D01*
X237021788Y-141887383D01*
X236922080Y-141974895D01*
X236774903Y-142130321D01*
X236773252Y-142214444D01*
X236906130Y-142197223D01*
X236989144Y-142158108D01*
X237196358Y-141966613D01*
X237248989Y-141732381D01*
X237145868Y-141509630D01*
X237005446Y-141402265D01*
X236775341Y-141373307D01*
X236438279Y-141454150D01*
X236024650Y-141629047D01*
X235564842Y-141882253D01*
X235089247Y-142198020D01*
X234628252Y-142560604D01*
X234433745Y-142734771D01*
X234049046Y-143152431D01*
X233710835Y-143628775D01*
X233433614Y-144130111D01*
X233231884Y-144622744D01*
X233120147Y-145072984D01*
X233112906Y-145447137D01*
X233179509Y-145648740D01*
X233241387Y-145726563D01*
X233273236Y-145668265D01*
X233285152Y-145450647D01*
X233285826Y-145404395D01*
X233375369Y-144824407D01*
X233616308Y-144211334D01*
X233987020Y-143600579D01*
X234465884Y-143027544D01*
X235031276Y-142527633D01*
X235052503Y-142511793D01*
X235655556Y-142064585D01*
X235778245Y-142372188D01*
X235997740Y-142695263D01*
X236335034Y-142879306D01*
X236687240Y-142919819D01*
X236900548Y-142917352D01*
X237005422Y-142923162D01*
X237007669Y-142924776D01*
X236969160Y-143007966D01*
X236870263Y-143207727D01*
X236775068Y-143396537D01*
X236575874Y-143931690D01*
X236552720Y-144416608D01*
X236707179Y-144865759D01*
X236973596Y-145224125D01*
X237195518Y-145462537D01*
X236582833Y-145678832D01*
X235970149Y-145895128D01*
X235721521Y-145709816D01*
X235370344Y-145338135D01*
X235166412Y-144872360D01*
X235119534Y-144343847D01*
X235179254Y-143976425D01*
X235208485Y-143790371D01*
X235153135Y-143744562D01*
X235128051Y-143750754D01*
X235038924Y-143858660D01*
X234954683Y-144084915D01*
X234927351Y-144201801D01*
X234909142Y-144756526D01*
X235059276Y-145289682D01*
X235333164Y-145715628D01*
X235604285Y-146024418D01*
X234980348Y-146223636D01*
X234529816Y-146362565D01*
X234207325Y-146443252D01*
X233965505Y-146469553D01*
X233756984Y-146445325D01*
X233534389Y-146374422D01*
X233463929Y-146347064D01*
X232723701Y-145958157D01*
X232060373Y-145420852D01*
X231509823Y-144768252D01*
X231217665Y-144274493D01*
X231021426Y-143868762D01*
X230918630Y-143588691D01*
X230917686Y-143394425D01*
X231027000Y-143246110D01*
X231254980Y-143103892D01*
X231489297Y-142986809D01*
X231874747Y-142770829D01*
X232244734Y-142496631D01*
X232647943Y-142125900D01*
X232868876Y-141901058D01*
X233177493Y-141593021D01*
X233452751Y-141342807D01*
X233662922Y-141177735D01*
X233770743Y-141124542D01*
X233937324Y-141195130D01*
X234073025Y-141332768D01*
X234215048Y-141472610D01*
X234340969Y-141449069D01*
X235144185Y-140916812D01*
X235921276Y-140554137D01*
X236695242Y-140351144D01*
X236974980Y-140315489D01*
X237342828Y-140295404D01*
X237592157Y-140324218D01*
G37*
G36*
X272017065Y-140324218D02*
G01*
X272210899Y-140409994D01*
X272228994Y-140421581D01*
X272393849Y-140561105D01*
X272437007Y-140727679D01*
X272414537Y-140899893D01*
X272388486Y-141114042D01*
X272435982Y-141202184D01*
X272549855Y-141217582D01*
X272773565Y-141260019D01*
X273005456Y-141352387D01*
X273341426Y-141616688D01*
X273538638Y-141962026D01*
X273597819Y-142346268D01*
X273519693Y-142727280D01*
X273304985Y-143062932D01*
X272971882Y-143302973D01*
X272620555Y-143428825D01*
X272338468Y-143418503D01*
X272064502Y-143268621D01*
X272042357Y-143251486D01*
X271870778Y-143082135D01*
X271827389Y-142898771D01*
X271848995Y-142734170D01*
X271908700Y-142415916D01*
X271677977Y-142567091D01*
X271355811Y-142698916D01*
X271002797Y-142723398D01*
X270679068Y-142647609D01*
X270444751Y-142478622D01*
X270404271Y-142417290D01*
X270348451Y-142146167D01*
X270476792Y-141889851D01*
X270727690Y-141687403D01*
X271034582Y-141532647D01*
X271255737Y-141514868D01*
X271428992Y-141631922D01*
X271441817Y-141646927D01*
X271508748Y-141771227D01*
X271446697Y-141887383D01*
X271346989Y-141974895D01*
X271199812Y-142130321D01*
X271198160Y-142214444D01*
X271331038Y-142197223D01*
X271414052Y-142158108D01*
X271625144Y-141975951D01*
X271683311Y-141770011D01*
X271611572Y-141577075D01*
X271432949Y-141433935D01*
X271170462Y-141377379D01*
X270945900Y-141409934D01*
X270607255Y-141548198D01*
X270182354Y-141781041D01*
X269720568Y-142075642D01*
X269271267Y-142399178D01*
X268883822Y-142718825D01*
X268684372Y-142913445D01*
X268319453Y-143364104D01*
X268008326Y-143857821D01*
X267764501Y-144360379D01*
X267601489Y-144837562D01*
X267532798Y-145255153D01*
X267571938Y-145578934D01*
X267604418Y-145648740D01*
X267666295Y-145726563D01*
X267698145Y-145668265D01*
X267710061Y-145450647D01*
X267710734Y-145404395D01*
X267795644Y-144866430D01*
X268021491Y-144282408D01*
X268363083Y-143690101D01*
X268795232Y-143127283D01*
X269292744Y-142631727D01*
X269813553Y-142251273D01*
X270101465Y-142078294D01*
X270209392Y-142376762D01*
X270413480Y-142688536D01*
X270741643Y-142873541D01*
X271112148Y-142919819D01*
X271325544Y-142920860D01*
X271430669Y-142935278D01*
X271432967Y-142938539D01*
X271390937Y-143027994D01*
X271283577Y-143225859D01*
X271201487Y-143371272D01*
X271001072Y-143879052D01*
X270969271Y-144382422D01*
X271103222Y-144850594D01*
X271374126Y-145227504D01*
X271616281Y-145469294D01*
X270959365Y-145692705D01*
X270302449Y-145916117D01*
X269989424Y-145574692D01*
X269676581Y-145114781D01*
X269539141Y-144617448D01*
X269570644Y-144150963D01*
X269622031Y-143872463D01*
X269607617Y-143746793D01*
X269522593Y-143750982D01*
X269490687Y-143769042D01*
X269402111Y-143914513D01*
X269345344Y-144183547D01*
X269325670Y-144515526D01*
X269348373Y-144849832D01*
X269381927Y-145016811D01*
X269516255Y-145344302D01*
X269716749Y-145664443D01*
X269767055Y-145725859D01*
X270047159Y-146044880D01*
X269407478Y-146235385D01*
X268939504Y-146370595D01*
X268600144Y-146449354D01*
X268340627Y-146471445D01*
X268112186Y-146436648D01*
X267866052Y-146344745D01*
X267618315Y-146227355D01*
X267045640Y-145873504D01*
X266500909Y-145402620D01*
X266018900Y-144855670D01*
X265634387Y-144273622D01*
X265382145Y-143697442D01*
X265340154Y-143543589D01*
X265327947Y-143417003D01*
X265380952Y-143312114D01*
X265530763Y-143198684D01*
X265808971Y-143046475D01*
X265917224Y-142991248D01*
X266346280Y-142736544D01*
X266776969Y-142397607D01*
X267254852Y-141938255D01*
X267293785Y-141898024D01*
X267602717Y-141590890D01*
X267878187Y-141341505D01*
X268088363Y-141177167D01*
X268195652Y-141124542D01*
X268362233Y-141195130D01*
X268497933Y-141332768D01*
X268639956Y-141472610D01*
X268765878Y-141449069D01*
X269569094Y-140916812D01*
X270346185Y-140554137D01*
X271120151Y-140351144D01*
X271399888Y-140315489D01*
X271767737Y-140295404D01*
X272017065Y-140324218D01*
G37*
G36*
X241625641Y-149019543D02*
G01*
X242366746Y-149245716D01*
X243079043Y-149599434D01*
X243288416Y-149734271D01*
X243576867Y-149928954D01*
X243800603Y-150074708D01*
X243920450Y-150146167D01*
X243929613Y-150149450D01*
X243977750Y-150072751D01*
X244013039Y-149963369D01*
X244126696Y-149801583D01*
X244323848Y-149778813D01*
X244571893Y-149888650D01*
X244838229Y-150124690D01*
X244839144Y-150125718D01*
X245412891Y-150731152D01*
X245935337Y-151194343D01*
X246436219Y-151540554D01*
X246633372Y-151649964D01*
X246944687Y-151818346D01*
X247119340Y-151939993D01*
X247189342Y-152046763D01*
X247186699Y-152170513D01*
X247181364Y-152195374D01*
X246977881Y-152756414D01*
X246638573Y-153330979D01*
X246197619Y-153883202D01*
X245689197Y-154377217D01*
X245147486Y-154777155D01*
X244606665Y-155047150D01*
X244404762Y-155109139D01*
X244189510Y-155116510D01*
X243916244Y-155072819D01*
X243893040Y-155066773D01*
X243606178Y-154988075D01*
X243250253Y-154889069D01*
X243083561Y-154842272D01*
X242599723Y-154705914D01*
X242894389Y-154231895D01*
X243080629Y-153888243D01*
X243169703Y-153577145D01*
X243192147Y-153232967D01*
X243175148Y-152824320D01*
X243122448Y-152545011D01*
X243039726Y-152416055D01*
X242973051Y-152422501D01*
X242937813Y-152542437D01*
X242967819Y-152781363D01*
X242979959Y-152832300D01*
X243012083Y-153310843D01*
X242889714Y-153799979D01*
X242628902Y-154235866D01*
X242626279Y-154238993D01*
X242451229Y-154416538D01*
X242274654Y-154499512D01*
X242048777Y-154491588D01*
X241725820Y-154396437D01*
X241528792Y-154323351D01*
X241203189Y-154185357D01*
X241043114Y-154077019D01*
X241033713Y-153982296D01*
X241135746Y-153898945D01*
X241311566Y-153711507D01*
X241459272Y-153406355D01*
X241550778Y-153051857D01*
X241567033Y-152849146D01*
X241515979Y-152502122D01*
X241382457Y-152112370D01*
X241332865Y-152007163D01*
X241098697Y-151545054D01*
X241467237Y-151545054D01*
X241827956Y-151478650D01*
X242120137Y-151302456D01*
X242299490Y-151051002D01*
X242334615Y-150868844D01*
X242334615Y-150621715D01*
X242764927Y-150916783D01*
X243387669Y-151421771D01*
X243928433Y-152013789D01*
X244363036Y-152657215D01*
X244667297Y-153316425D01*
X244814970Y-153936790D01*
X244851368Y-154222507D01*
X244881821Y-154341761D01*
X244915296Y-154313571D01*
X244945838Y-154214392D01*
X244980377Y-153748343D01*
X244866109Y-153223798D01*
X244620509Y-152665784D01*
X244261053Y-152099331D01*
X243805214Y-151549465D01*
X243270469Y-151041216D01*
X242674292Y-150599612D01*
X242250628Y-150354226D01*
X241811493Y-150138340D01*
X241496839Y-150015206D01*
X241273143Y-149979291D01*
X241106883Y-150025059D01*
X240968536Y-150142528D01*
X240844240Y-150383279D01*
X240898860Y-150607278D01*
X241099540Y-150770498D01*
X241307705Y-150845102D01*
X241374541Y-150810469D01*
X241285082Y-150688501D01*
X241202219Y-150620194D01*
X241042790Y-150435869D01*
X241037868Y-150300916D01*
X241168305Y-150172763D01*
X241383021Y-150157921D01*
X241638190Y-150234741D01*
X241889985Y-150381572D01*
X242094578Y-150576765D01*
X242208142Y-150798670D01*
X242218315Y-150884031D01*
X242156121Y-151010542D01*
X242014691Y-151169269D01*
X241749157Y-151309087D01*
X241402074Y-151358992D01*
X241056893Y-151315097D01*
X240856399Y-151223234D01*
X240728636Y-151146689D01*
X240677125Y-151185336D01*
X240671478Y-151371738D01*
X240672876Y-151419902D01*
X240610635Y-151742420D01*
X240425080Y-151961299D01*
X240152429Y-152068687D01*
X239828900Y-152056732D01*
X239490712Y-151917582D01*
X239252105Y-151727900D01*
X238986211Y-151366492D01*
X238904214Y-150991913D01*
X239003940Y-150592933D01*
X239024207Y-150550488D01*
X239291420Y-150168472D01*
X239630334Y-149925585D01*
X239915970Y-149850225D01*
X240089598Y-149816973D01*
X240140338Y-149716290D01*
X240117642Y-149538677D01*
X240115453Y-149255874D01*
X240244480Y-149069387D01*
X240519727Y-148967913D01*
X240912596Y-148939926D01*
X241625641Y-149019543D01*
G37*
G36*
X213791171Y-144456103D02*
G01*
X215080045Y-144632844D01*
X215491379Y-144713123D01*
X216172156Y-144870564D01*
X216895658Y-145071457D01*
X217683572Y-145323379D01*
X218557581Y-145633903D01*
X219539373Y-146010608D01*
X220650631Y-146461067D01*
X221434286Y-146789234D01*
X222672569Y-147304711D01*
X223762890Y-147740148D01*
X224722167Y-148101762D01*
X225567316Y-148395772D01*
X226315256Y-148628394D01*
X226793994Y-148759046D01*
X228326250Y-149060278D01*
X229917042Y-149203275D01*
X231527368Y-149188271D01*
X233118228Y-149015500D01*
X234549607Y-148712500D01*
X235035764Y-148573716D01*
X235538094Y-148409608D01*
X236081261Y-148210251D01*
X236689925Y-147965717D01*
X237388750Y-147666079D01*
X238202398Y-147301412D01*
X239155531Y-146861787D01*
X239205767Y-146838371D01*
X240117787Y-146415700D01*
X240887520Y-146065360D01*
X241539416Y-145777072D01*
X242097925Y-145540559D01*
X242587497Y-145345542D01*
X243032583Y-145181741D01*
X243457633Y-145038879D01*
X243574277Y-145001891D01*
X244629639Y-144713242D01*
X245668418Y-144519340D01*
X246708883Y-144422623D01*
X247769301Y-144425526D01*
X248867942Y-144530486D01*
X250023076Y-144739940D01*
X251252970Y-145056325D01*
X252575895Y-145482077D01*
X254010118Y-146019633D01*
X255342600Y-146571536D01*
X256664441Y-147131135D01*
X257841643Y-147610213D01*
X258894537Y-148014334D01*
X259843453Y-148349061D01*
X260708723Y-148619959D01*
X261510678Y-148832591D01*
X262269650Y-148992522D01*
X263005969Y-149105313D01*
X263739967Y-149176531D01*
X264491975Y-149211738D01*
X265013187Y-149217950D01*
X265868814Y-149201153D01*
X266675899Y-149146262D01*
X267458747Y-149046533D01*
X268241663Y-148895219D01*
X269048952Y-148685573D01*
X269904919Y-148410849D01*
X270833871Y-148064301D01*
X271860112Y-147639182D01*
X273007947Y-147128747D01*
X273712454Y-146803333D01*
X274311553Y-146524822D01*
X274892338Y-146256976D01*
X275420706Y-146015359D01*
X275862555Y-145815535D01*
X276183784Y-145673071D01*
X276271062Y-145635547D01*
X276560940Y-145518212D01*
X276918750Y-145380787D01*
X277300664Y-145239139D01*
X277662848Y-145109136D01*
X277961474Y-145006643D01*
X278152710Y-144947528D01*
X278194684Y-144939194D01*
X278208074Y-145025212D01*
X278218211Y-145255196D01*
X278223577Y-145587037D01*
X278224037Y-145753296D01*
X278223167Y-146567399D01*
X277502975Y-146782530D01*
X277230144Y-146879876D01*
X276819996Y-147047127D01*
X276301828Y-147271321D01*
X275704932Y-147539496D01*
X275058603Y-147838689D01*
X274392136Y-148155938D01*
X274317216Y-148192175D01*
X272943816Y-148841536D01*
X271717086Y-149387432D01*
X270630737Y-149832369D01*
X269678478Y-150178849D01*
X268854019Y-150429377D01*
X268449670Y-150527851D01*
X267358322Y-150713607D01*
X266151577Y-150827166D01*
X264886010Y-150867406D01*
X263618195Y-150833208D01*
X262404706Y-150723451D01*
X261938949Y-150656820D01*
X261060617Y-150470468D01*
X260053112Y-150174913D01*
X258933079Y-149776551D01*
X257717162Y-149281775D01*
X256422007Y-148696981D01*
X255064260Y-148028563D01*
X254964835Y-147977538D01*
X253884634Y-147449338D01*
X252893615Y-147029523D01*
X251941710Y-146703047D01*
X250978851Y-146454862D01*
X249954971Y-146269922D01*
X248831641Y-146134315D01*
X247657285Y-146082703D01*
X246395732Y-146140957D01*
X245104867Y-146302422D01*
X243842573Y-146560443D01*
X242962637Y-146809072D01*
X242721353Y-146900263D01*
X242341021Y-147061194D01*
X241849479Y-147279291D01*
X241274564Y-147541979D01*
X240644111Y-147836682D01*
X239985957Y-148150826D01*
X239892308Y-148196069D01*
X238512486Y-148847438D01*
X237279709Y-149394810D01*
X236188267Y-149840454D01*
X235232452Y-150186640D01*
X234406556Y-150435638D01*
X234031266Y-150526431D01*
X232965034Y-150709870D01*
X231783512Y-150826670D01*
X230546228Y-150873939D01*
X229312713Y-150848788D01*
X228546026Y-150792707D01*
X227556818Y-150657039D01*
X226527479Y-150433759D01*
X225440965Y-150116833D01*
X224280233Y-149700229D01*
X223028237Y-149177912D01*
X221667935Y-148543849D01*
X220422369Y-147916973D01*
X219287239Y-147366431D01*
X218220948Y-146934718D01*
X217165632Y-146604379D01*
X216063432Y-146357959D01*
X214856485Y-146178004D01*
X214538828Y-146142126D01*
X213590351Y-146087414D01*
X212530319Y-146107342D01*
X211415817Y-146197901D01*
X210303933Y-146355078D01*
X209627161Y-146487226D01*
X209367510Y-146544021D01*
X209394560Y-145720367D01*
X209421612Y-144896713D01*
X210114415Y-144735939D01*
X211357512Y-144507441D01*
X212566712Y-144414232D01*
X213791171Y-144456103D01*
G37*
G36*
X265664469Y-133903881D02*
G01*
X266508382Y-133958928D01*
X267304084Y-134045540D01*
X268074475Y-134170948D01*
X268842453Y-134342388D01*
X269630918Y-134567091D01*
X270462770Y-134852292D01*
X271360906Y-135205224D01*
X272348227Y-135633120D01*
X273447632Y-136143214D01*
X274682020Y-136742740D01*
X274735897Y-136769360D01*
X275343069Y-137062912D01*
X275944718Y-137341813D01*
X276504414Y-137590062D01*
X276985725Y-137791657D01*
X277352222Y-137930595D01*
X277456861Y-137964549D01*
X278223978Y-138193772D01*
X278224443Y-139019505D01*
X278224908Y-139845238D01*
X277933968Y-139787050D01*
X277602610Y-139693472D01*
X277110065Y-139513475D01*
X276459289Y-139248297D01*
X275653237Y-138899174D01*
X274694865Y-138467343D01*
X273865488Y-138084149D01*
X272659345Y-137530825D01*
X271591852Y-137062881D01*
X270639867Y-136673773D01*
X269780250Y-136356957D01*
X268989860Y-136105889D01*
X268245557Y-135914024D01*
X267524199Y-135774819D01*
X266802647Y-135681728D01*
X266057759Y-135628209D01*
X265266396Y-135607716D01*
X265106227Y-135607012D01*
X264331752Y-135618370D01*
X263598037Y-135658411D01*
X262884120Y-135732724D01*
X262169041Y-135846900D01*
X261431839Y-136006528D01*
X260651553Y-136217198D01*
X259807222Y-136484501D01*
X258877885Y-136814026D01*
X257842581Y-137211363D01*
X256680348Y-137682103D01*
X255550215Y-138155464D01*
X254350639Y-138655158D01*
X253292702Y-139075489D01*
X252352969Y-139422982D01*
X251508008Y-139704163D01*
X250734383Y-139925557D01*
X250008661Y-140093692D01*
X249307409Y-140215092D01*
X248607192Y-140296284D01*
X247884576Y-140343793D01*
X247661172Y-140352412D01*
X246931590Y-140364196D01*
X246253296Y-140344879D01*
X245603514Y-140288192D01*
X244959468Y-140187869D01*
X244298381Y-140037641D01*
X243597478Y-139831241D01*
X242833984Y-139562401D01*
X241985120Y-139224853D01*
X241028113Y-138812330D01*
X239940186Y-138318564D01*
X239460844Y-138095779D01*
X238820600Y-137799118D01*
X238179729Y-137506627D01*
X237575501Y-137234989D01*
X237045183Y-137000885D01*
X236626043Y-136820997D01*
X236462124Y-136753505D01*
X234859941Y-136199199D01*
X233253869Y-135819565D01*
X231656800Y-135616649D01*
X230081629Y-135592498D01*
X229425275Y-135636562D01*
X228733745Y-135709588D01*
X228078086Y-135800709D01*
X227437033Y-135916456D01*
X226789324Y-136063360D01*
X226113696Y-136247951D01*
X225388884Y-136476759D01*
X224593626Y-136756316D01*
X223706658Y-137093151D01*
X222706717Y-137493796D01*
X221572540Y-137964780D01*
X220852381Y-138269543D01*
X219606607Y-138785248D01*
X218493708Y-139214559D01*
X217487007Y-139566840D01*
X216559827Y-139851455D01*
X215733114Y-140066571D01*
X215122424Y-140181398D01*
X214402162Y-140269359D01*
X213620513Y-140328744D01*
X212825660Y-140357842D01*
X212065787Y-140354944D01*
X211389079Y-140318340D01*
X210843720Y-140246319D01*
X210817216Y-140241036D01*
X210419391Y-140155744D01*
X210031764Y-140065901D01*
X209770513Y-139999502D01*
X209375092Y-139890835D01*
X209375092Y-139065564D01*
X209378979Y-138699713D01*
X209389381Y-138417032D01*
X209404410Y-138259342D01*
X209412366Y-138240293D01*
X209513355Y-138255053D01*
X209760033Y-138295183D01*
X210114710Y-138354456D01*
X210516097Y-138422612D01*
X211927757Y-138613678D01*
X213223424Y-138682478D01*
X214426384Y-138630147D01*
X214538828Y-138618688D01*
X215696179Y-138466924D01*
X216735332Y-138265343D01*
X217711962Y-137997255D01*
X218681745Y-137645971D01*
X219700357Y-137194803D01*
X220333901Y-136881578D01*
X221838393Y-136140406D01*
X223233928Y-135506264D01*
X224513679Y-134981800D01*
X225670817Y-134569658D01*
X226698515Y-134272485D01*
X227489452Y-134108328D01*
X228691944Y-133964644D01*
X229971225Y-133900025D01*
X231270062Y-133913330D01*
X232531221Y-134003421D01*
X233697471Y-134169157D01*
X234045241Y-134238842D01*
X234808884Y-134439461D01*
X235705156Y-134739283D01*
X236738453Y-135140058D01*
X237913170Y-135643535D01*
X239233701Y-136251465D01*
X239892308Y-136567149D01*
X240563716Y-136887761D01*
X241222442Y-137193465D01*
X241838271Y-137470898D01*
X242380989Y-137706698D01*
X242820383Y-137887504D01*
X243126238Y-137999952D01*
X243146831Y-138006464D01*
X244236973Y-138290333D01*
X245411158Y-138500852D01*
X246610624Y-138631832D01*
X247776605Y-138677085D01*
X248850338Y-138630423D01*
X248963736Y-138619046D01*
X249932287Y-138497436D01*
X250809604Y-138343812D01*
X251636334Y-138145486D01*
X252453124Y-137889768D01*
X253300618Y-137563970D01*
X254219463Y-137155404D01*
X255223448Y-136664942D01*
X256594194Y-135992664D01*
X257840084Y-135425906D01*
X258984989Y-134958356D01*
X260052781Y-134583702D01*
X261067329Y-134295631D01*
X262052504Y-134087830D01*
X263032177Y-133953988D01*
X264030218Y-133887792D01*
X265070499Y-133882930D01*
X265664469Y-133903881D01*
G37*
G36*
X231304885Y-151092256D02*
G01*
X232120363Y-151133415D01*
X232890482Y-151210196D01*
X233638604Y-151329205D01*
X234388085Y-151497047D01*
X235162284Y-151720326D01*
X235984561Y-152005648D01*
X236878274Y-152359618D01*
X237866781Y-152788840D01*
X238973441Y-153299920D01*
X239985348Y-153784671D01*
X241015854Y-154275192D01*
X241916071Y-154679869D01*
X242716451Y-155006602D01*
X243447446Y-155263291D01*
X244139507Y-155457840D01*
X244823086Y-155598147D01*
X245528635Y-155692115D01*
X246286606Y-155747644D01*
X247127451Y-155772636D01*
X247661172Y-155776250D01*
X248360966Y-155773405D01*
X248917597Y-155761778D01*
X249373897Y-155738279D01*
X249772697Y-155699816D01*
X250156827Y-155643298D01*
X250563525Y-155566765D01*
X251146025Y-155441635D01*
X251672870Y-155309405D01*
X252176866Y-155157771D01*
X252690818Y-154974427D01*
X253247532Y-154747068D01*
X253879814Y-154463391D01*
X254620469Y-154111090D01*
X255197436Y-153828673D01*
X256461087Y-153216819D01*
X257591336Y-152697335D01*
X258612465Y-152263792D01*
X259548757Y-151909758D01*
X260424493Y-151628804D01*
X261263956Y-151414499D01*
X262091427Y-151260411D01*
X262931188Y-151160111D01*
X263807523Y-151107168D01*
X264744712Y-151095152D01*
X265470001Y-151108209D01*
X266315720Y-151144519D01*
X267100784Y-151208209D01*
X267847930Y-151306254D01*
X268579895Y-151445628D01*
X269319417Y-151633306D01*
X270089231Y-151876261D01*
X270912076Y-152181469D01*
X271810689Y-152555904D01*
X272807806Y-153006539D01*
X273926165Y-153540350D01*
X274797636Y-153969382D01*
X275393961Y-154258956D01*
X275988457Y-154535427D01*
X276542550Y-154781750D01*
X277017665Y-154980878D01*
X277375229Y-155115767D01*
X277439029Y-155136613D01*
X278224908Y-155381637D01*
X278224908Y-156353865D01*
X278223567Y-156786814D01*
X278214776Y-157064717D01*
X278191385Y-157218606D01*
X278146245Y-157279515D01*
X278072204Y-157278476D01*
X278015568Y-157262439D01*
X277648918Y-157136546D01*
X277145913Y-156942831D01*
X276537732Y-156694457D01*
X275855553Y-156404589D01*
X275130555Y-156086390D01*
X274393915Y-155753024D01*
X273931701Y-155538233D01*
X272714946Y-154976095D01*
X271635778Y-154500797D01*
X270670859Y-154105750D01*
X269796852Y-153784362D01*
X268990419Y-153530045D01*
X268228222Y-153336207D01*
X267486924Y-153196260D01*
X266743186Y-153103613D01*
X265973671Y-153051676D01*
X265155041Y-153033859D01*
X265062122Y-153033699D01*
X264365468Y-153042864D01*
X263707648Y-153073745D01*
X263070470Y-153131417D01*
X262435739Y-153220960D01*
X261785262Y-153347451D01*
X261100845Y-153515966D01*
X260364295Y-153731584D01*
X259557418Y-153999381D01*
X258662021Y-154324436D01*
X257659910Y-154711825D01*
X256532891Y-155166627D01*
X255262771Y-155693918D01*
X254736322Y-155915405D01*
X253185352Y-156535422D01*
X251752768Y-157032084D01*
X250418899Y-157406803D01*
X249164078Y-157660990D01*
X247968633Y-157796058D01*
X246812896Y-157813417D01*
X245677198Y-157714481D01*
X244541869Y-157500660D01*
X243387239Y-157173367D01*
X242366532Y-156803287D01*
X242029124Y-156668659D01*
X241715564Y-156540175D01*
X241399958Y-156406207D01*
X241056409Y-156255123D01*
X240659024Y-156075294D01*
X240181908Y-155855090D01*
X239599165Y-155582879D01*
X238884901Y-155247033D01*
X238549207Y-155088799D01*
X237274954Y-154512571D01*
X236115119Y-154044120D01*
X235038483Y-153675398D01*
X234013825Y-153398358D01*
X233009924Y-153204954D01*
X231995559Y-153087136D01*
X230939511Y-153036859D01*
X230576338Y-153033717D01*
X229897566Y-153042779D01*
X229255488Y-153073303D01*
X228632161Y-153130331D01*
X228009641Y-153218903D01*
X227369984Y-153344059D01*
X226695247Y-153510839D01*
X225967484Y-153724284D01*
X225168754Y-153989434D01*
X224281111Y-154311329D01*
X223286612Y-154695010D01*
X222167314Y-155145516D01*
X220905271Y-155667888D01*
X220311414Y-155917047D01*
X218766325Y-156532229D01*
X217341961Y-157024141D01*
X216022686Y-157396131D01*
X214792867Y-157651548D01*
X213636869Y-157793740D01*
X212539058Y-157826057D01*
X211654579Y-157771176D01*
X211207451Y-157718024D01*
X210805321Y-157652929D01*
X210379076Y-157562533D01*
X209859598Y-157433478D01*
X209723993Y-157398060D01*
X209375092Y-157306380D01*
X209375092Y-156323089D01*
X209377942Y-155885488D01*
X209389796Y-155604092D01*
X209415602Y-155449068D01*
X209460313Y-155390586D01*
X209528514Y-155398672D01*
X209980602Y-155526958D01*
X210582063Y-155630574D01*
X211297713Y-155708623D01*
X212092369Y-155760205D01*
X212930848Y-155784423D01*
X213777967Y-155780380D01*
X214598541Y-155747177D01*
X215357389Y-155683916D01*
X216019327Y-155589700D01*
X216135876Y-155567289D01*
X216732022Y-155439331D01*
X217268793Y-155304854D01*
X217779742Y-155151295D01*
X218298427Y-154966088D01*
X218858403Y-154736669D01*
X219493224Y-154450473D01*
X220236447Y-154094937D01*
X220772527Y-153831134D01*
X222032291Y-153218780D01*
X223159468Y-152699767D01*
X224178245Y-152267198D01*
X225112809Y-151914178D01*
X225987349Y-151633808D01*
X226826053Y-151419194D01*
X227653106Y-151263437D01*
X228492698Y-151159641D01*
X229369016Y-151100909D01*
X230306246Y-151080345D01*
X230420693Y-151080115D01*
X231304885Y-151092256D01*
G37*
G36*
X248411044Y-142510101D02*
G01*
X249172347Y-142548171D01*
X249862462Y-142604430D01*
X250431619Y-142676872D01*
X250570681Y-142701334D01*
X251639674Y-142952321D01*
X252800362Y-143314925D01*
X254062610Y-143792989D01*
X255436283Y-144390356D01*
X256931244Y-145110869D01*
X257501440Y-145401355D01*
X258418263Y-145855786D01*
X259233398Y-146215861D01*
X259993662Y-146499344D01*
X260745874Y-146724002D01*
X261389888Y-146876866D01*
X262602873Y-147098689D01*
X263729577Y-147221579D01*
X264837288Y-147251694D01*
X265330154Y-147237402D01*
X266357867Y-147169782D01*
X267290223Y-147056823D01*
X268167835Y-146887371D01*
X269031320Y-146650270D01*
X269921291Y-146334367D01*
X270878366Y-145928507D01*
X271943157Y-145421535D01*
X271944689Y-145420776D01*
X273039602Y-144888041D01*
X274075163Y-144404050D01*
X275034965Y-143975665D01*
X275902602Y-143609748D01*
X276661667Y-143313162D01*
X277295753Y-143092768D01*
X277788454Y-142955429D01*
X277888748Y-142934662D01*
X278231912Y-142870284D01*
X278205150Y-143773381D01*
X278178388Y-144676478D01*
X277434066Y-144935276D01*
X277076225Y-145062234D01*
X276732701Y-145190719D01*
X276377255Y-145331994D01*
X275983651Y-145497324D01*
X275525653Y-145697973D01*
X274977023Y-145945204D01*
X274311525Y-146250281D01*
X273545340Y-146604787D01*
X272359330Y-147145631D01*
X271310735Y-147600916D01*
X270375393Y-147977381D01*
X269529143Y-148281767D01*
X268747823Y-148520812D01*
X268007271Y-148701256D01*
X267283326Y-148829839D01*
X266551825Y-148913299D01*
X265788608Y-148958376D01*
X265059707Y-148971683D01*
X264064464Y-148947747D01*
X263103750Y-148865099D01*
X262147883Y-148716671D01*
X261167181Y-148495391D01*
X260131963Y-148194191D01*
X259012546Y-147805999D01*
X257779250Y-147323747D01*
X257290842Y-147121200D01*
X256175855Y-146654147D01*
X255212239Y-146254281D01*
X254380736Y-145914549D01*
X253662087Y-145627901D01*
X253037032Y-145387287D01*
X252486312Y-145185654D01*
X251990669Y-145015952D01*
X251530843Y-144871131D01*
X251087576Y-144744138D01*
X250641609Y-144627922D01*
X250173681Y-144515434D01*
X250173260Y-144515336D01*
X249546257Y-144388542D01*
X248899361Y-144300366D01*
X248166896Y-144242930D01*
X247733997Y-144222734D01*
X247002501Y-144207795D01*
X246316470Y-144225457D01*
X245654289Y-144281711D01*
X244994344Y-144382547D01*
X244315021Y-144533955D01*
X243594704Y-144741926D01*
X242811780Y-145012450D01*
X241944633Y-145351517D01*
X240971650Y-145765118D01*
X239871216Y-146259243D01*
X239101465Y-146615194D01*
X237993208Y-147123047D01*
X237020622Y-147547757D01*
X236157868Y-147898594D01*
X235379106Y-148184828D01*
X234658496Y-148415728D01*
X233970198Y-148600565D01*
X233288374Y-148748610D01*
X233013509Y-148799279D01*
X232564483Y-148861290D01*
X231997700Y-148914828D01*
X231369860Y-148956961D01*
X230737662Y-148984761D01*
X230157806Y-148995297D01*
X229686990Y-148985639D01*
X229564835Y-148977489D01*
X228823364Y-148899638D01*
X228092374Y-148788528D01*
X227350023Y-148637556D01*
X226574472Y-148440123D01*
X225743878Y-148189627D01*
X224836401Y-147879467D01*
X223830198Y-147503043D01*
X222703430Y-147053753D01*
X221434255Y-146524997D01*
X221395192Y-146508449D01*
X220200344Y-146011363D01*
X219143367Y-145592567D01*
X218197953Y-145242760D01*
X217337799Y-144952639D01*
X216536598Y-144712901D01*
X215768046Y-144514244D01*
X215731347Y-144505540D01*
X215327339Y-144413515D01*
X214981055Y-144346097D01*
X214650158Y-144299515D01*
X214292313Y-144269999D01*
X213865184Y-144253778D01*
X213326433Y-144247083D01*
X212817582Y-144246044D01*
X212075831Y-144251325D01*
X211477960Y-144270180D01*
X210981973Y-144307429D01*
X210545878Y-144367892D01*
X210127679Y-144456387D01*
X209685382Y-144577736D01*
X209537912Y-144622439D01*
X209463432Y-144629126D01*
X209415780Y-144572894D01*
X209389088Y-144422367D01*
X209377485Y-144146168D01*
X209375092Y-143752022D01*
X209375092Y-142831431D01*
X210003113Y-142715377D01*
X210797214Y-142603026D01*
X211714092Y-142530341D01*
X212703287Y-142496995D01*
X213714340Y-142502662D01*
X214696789Y-142547017D01*
X215600175Y-142629735D01*
X216374037Y-142750488D01*
X216404569Y-142756720D01*
X217327889Y-142982284D01*
X218318921Y-143293627D01*
X219394895Y-143697459D01*
X220573041Y-144200492D01*
X221870588Y-144809435D01*
X222586813Y-145164424D01*
X223180266Y-145458900D01*
X223762046Y-145739684D01*
X224296871Y-145990339D01*
X224749460Y-146194425D01*
X225084531Y-146335505D01*
X225168864Y-146367442D01*
X226734248Y-146832590D01*
X228351625Y-147125210D01*
X230001858Y-147244725D01*
X231665812Y-147190557D01*
X233324351Y-146962128D01*
X234635531Y-146653219D01*
X235035952Y-146518920D01*
X235584268Y-146300883D01*
X236265605Y-146005547D01*
X237065087Y-145639354D01*
X237938461Y-145222993D01*
X239102080Y-144665713D01*
X240125675Y-144192134D01*
X241031542Y-143794974D01*
X241841977Y-143466949D01*
X242579276Y-143200777D01*
X243265735Y-142989175D01*
X243923650Y-142824860D01*
X244575317Y-142700548D01*
X245243032Y-142608956D01*
X245949091Y-142542802D01*
X246197718Y-142525085D01*
X246873960Y-142496552D01*
X247628325Y-142492226D01*
X248411044Y-142510101D01*
G37*
G36*
X265754829Y-153287803D02*
G01*
X266404264Y-153319482D01*
X267026793Y-153378605D01*
X267641195Y-153470837D01*
X268266249Y-153601842D01*
X268920734Y-153777284D01*
X269623430Y-154002829D01*
X270393117Y-154284140D01*
X271248573Y-154626882D01*
X272208579Y-155036720D01*
X273291913Y-155519318D01*
X274517356Y-156080340D01*
X274828938Y-156224615D01*
X275713643Y-156618802D01*
X276635123Y-157000615D01*
X277520924Y-157340823D01*
X278108608Y-157547853D01*
X278172720Y-157646192D01*
X278210763Y-157898681D01*
X278224751Y-158319777D01*
X278224908Y-158382369D01*
X278224908Y-159177904D01*
X277969048Y-159117578D01*
X277711194Y-159043027D01*
X277321249Y-158913406D01*
X276839550Y-158743599D01*
X276306435Y-158548495D01*
X275762244Y-158342980D01*
X275247312Y-158141939D01*
X274801979Y-157960260D01*
X274611943Y-157878662D01*
X274268721Y-157722305D01*
X273802147Y-157502193D01*
X273254788Y-157238807D01*
X272669215Y-156952631D01*
X272093886Y-156667095D01*
X271096664Y-156184338D01*
X270209368Y-155795247D01*
X269389274Y-155487078D01*
X268593657Y-155247087D01*
X267779792Y-155062529D01*
X266904952Y-154920660D01*
X265926413Y-154808736D01*
X265834169Y-154799920D01*
X264640337Y-154754244D01*
X263351212Y-154827418D01*
X262010524Y-155014606D01*
X260662000Y-155310968D01*
X260285711Y-155413783D01*
X259903955Y-155544181D01*
X259384114Y-155754286D01*
X258750708Y-156033341D01*
X258028262Y-156370584D01*
X257337363Y-156707428D01*
X256001031Y-157356115D01*
X254795014Y-157906455D01*
X253695759Y-158364744D01*
X252679710Y-158737278D01*
X251723316Y-159030353D01*
X250803022Y-159250267D01*
X249895273Y-159403316D01*
X248976518Y-159495796D01*
X248023201Y-159534004D01*
X247011769Y-159524237D01*
X246823892Y-159517949D01*
X245841714Y-159465205D01*
X244988699Y-159378799D01*
X244209519Y-159249333D01*
X243448845Y-159067410D01*
X242651348Y-158823633D01*
X242564521Y-158794504D01*
X241804214Y-158525972D01*
X241049951Y-158233996D01*
X240266456Y-157903276D01*
X239418449Y-157518509D01*
X238470652Y-157064392D01*
X237728310Y-156696742D01*
X236696459Y-156197708D01*
X235776695Y-155795022D01*
X234929583Y-155477013D01*
X234115692Y-155232010D01*
X233295588Y-155048341D01*
X232429839Y-154914337D01*
X231479012Y-154818326D01*
X231346886Y-154808010D01*
X229904416Y-154771608D01*
X228445415Y-154884075D01*
X226931663Y-155148765D01*
X226602572Y-155224163D01*
X225984632Y-155385031D01*
X225399116Y-155570145D01*
X224805405Y-155795782D01*
X224162879Y-156078220D01*
X223430919Y-156433737D01*
X222879101Y-156716319D01*
X221355593Y-157474478D01*
X219945771Y-158104172D01*
X218634133Y-158610863D01*
X217405178Y-159000014D01*
X216243401Y-159277084D01*
X215133302Y-159447537D01*
X215123997Y-159448550D01*
X214662645Y-159484985D01*
X214079038Y-159511145D01*
X213428848Y-159526470D01*
X212767749Y-159530402D01*
X212151414Y-159522382D01*
X211635519Y-159501851D01*
X211421978Y-159485717D01*
X211108194Y-159450650D01*
X210720743Y-159400091D01*
X210313928Y-159342026D01*
X209942055Y-159284443D01*
X209659425Y-159235328D01*
X209537912Y-159208630D01*
X209457472Y-159159850D01*
X209408360Y-159045311D01*
X209383373Y-158827757D01*
X209375310Y-158469930D01*
X209375092Y-158366395D01*
X209377175Y-157982855D01*
X209389856Y-157751495D01*
X209422776Y-157638417D01*
X209485579Y-157609721D01*
X209584432Y-157630520D01*
X210122014Y-157773150D01*
X210612289Y-157876173D01*
X211104333Y-157945202D01*
X211647227Y-157985849D01*
X212290047Y-158003727D01*
X212864102Y-158005580D01*
X213545670Y-157998737D01*
X214088391Y-157980938D01*
X214539360Y-157948352D01*
X214945676Y-157897144D01*
X215354434Y-157823481D01*
X215515751Y-157789761D01*
X216510758Y-157539815D01*
X217637746Y-157191196D01*
X218875626Y-156751042D01*
X220203309Y-156226489D01*
X220493407Y-156105499D01*
X221629804Y-155629481D01*
X222615875Y-155221917D01*
X223471363Y-154875748D01*
X224216010Y-154583911D01*
X224869559Y-154339346D01*
X225451753Y-154134992D01*
X225982333Y-153963788D01*
X226481044Y-153818673D01*
X226967627Y-153692586D01*
X227461824Y-153578466D01*
X227704029Y-153526601D01*
X228176402Y-153432970D01*
X228592054Y-153366156D01*
X229001628Y-153321738D01*
X229455766Y-153295296D01*
X230005110Y-153282409D01*
X230541758Y-153278901D01*
X231367817Y-153291094D01*
X232140027Y-153336056D01*
X232881770Y-153420363D01*
X233616431Y-153550594D01*
X234367392Y-153733327D01*
X235158038Y-153975139D01*
X236011751Y-154282608D01*
X236951915Y-154662311D01*
X238001914Y-155120827D01*
X239185130Y-155664734D01*
X239427106Y-155778354D01*
X240622155Y-156329660D01*
X241681101Y-156791070D01*
X242627066Y-157168992D01*
X243483167Y-157469835D01*
X244272526Y-157700005D01*
X245018263Y-157865910D01*
X245743496Y-157973959D01*
X246471346Y-158030559D01*
X247224934Y-158042117D01*
X247568132Y-158034663D01*
X248333895Y-157994099D01*
X249076545Y-157917522D01*
X249819297Y-157798518D01*
X250585366Y-157630675D01*
X251397967Y-157407582D01*
X252280316Y-157122825D01*
X253255626Y-156769991D01*
X254347114Y-156342669D01*
X255577995Y-155834445D01*
X255662637Y-155798771D01*
X256917685Y-155274945D01*
X258025815Y-154826637D01*
X259007614Y-154448322D01*
X259883672Y-154134479D01*
X260674577Y-153879584D01*
X261400916Y-153678113D01*
X262083279Y-153524545D01*
X262742253Y-153413356D01*
X263398426Y-153339023D01*
X264072388Y-153296023D01*
X264784726Y-153278832D01*
X265059707Y-153277904D01*
X265754829Y-153287803D01*
G37*
D12*
%TO.C,D1*%
X262208750Y-24315000D02*
X262208750Y-27000000D01*
X264128750Y-24315000D02*
X262208750Y-24315000D01*
X264128750Y-27000000D02*
X264128750Y-24315000D01*
%TO.C,D3*%
X242208750Y-25000000D02*
X242208750Y-27685000D01*
X242208750Y-27685000D02*
X244128750Y-27685000D01*
X244128750Y-27685000D02*
X244128750Y-25000000D01*
%TO.C,D4*%
X252208750Y-24315000D02*
X252208750Y-27000000D01*
X254128750Y-24315000D02*
X252208750Y-24315000D01*
X254128750Y-27000000D02*
X254128750Y-24315000D01*
%TD*%
%LPC*%
D13*
%TO.C,S2*%
X93495000Y-86141600D03*
D14*
X94765000Y-83601600D03*
D15*
X98575000Y-86141600D03*
D14*
X101115000Y-81061600D03*
D13*
X103655000Y-86141600D03*
%TD*%
%TO.C,S26*%
X188745000Y-86141600D03*
D14*
X190015000Y-83601600D03*
D15*
X193825000Y-86141600D03*
D14*
X196365000Y-81061600D03*
D13*
X198905000Y-86141600D03*
%TD*%
D16*
%TO.C,S42*%
X220025000Y-60091600D03*
D15*
X220025000Y-75331600D03*
D13*
X226845000Y-67091600D03*
D14*
X228115000Y-64551600D03*
D15*
X231925000Y-67091600D03*
D14*
X234465000Y-62011600D03*
D13*
X237005000Y-67091600D03*
D16*
X243825000Y-60091600D03*
D15*
X243825000Y-75331600D03*
%TD*%
D13*
%TO.C,S12*%
X131595000Y-43279100D03*
D14*
X132865000Y-40739100D03*
D15*
X136675000Y-43279100D03*
D14*
X139215000Y-38199100D03*
D13*
X141755000Y-43279100D03*
%TD*%
D17*
%TO.C,J1*%
X274050000Y-71009100D03*
X274050000Y-73509100D03*
X274050000Y-76009100D03*
X274050000Y-78509100D03*
%TD*%
D18*
%TO.C,H4*%
X257500000Y-24000000D03*
%TD*%
D13*
%TO.C,S28*%
X174457500Y-43279100D03*
D14*
X175727500Y-40739100D03*
D15*
X179537500Y-43279100D03*
D14*
X182077500Y-38199100D03*
D13*
X184617500Y-43279100D03*
%TD*%
%TO.C,S11*%
X117307500Y-105191600D03*
D14*
X118577500Y-102651600D03*
D15*
X122387500Y-105191600D03*
D14*
X124927500Y-100111600D03*
D13*
X127467500Y-105191600D03*
%TD*%
%TO.C,S41*%
X241132500Y-148054100D03*
D14*
X242402500Y-145514100D03*
D15*
X246212500Y-148054100D03*
D14*
X248752500Y-142974100D03*
D13*
X251292500Y-148054100D03*
%TD*%
D17*
%TO.C,J2*%
X274050000Y-110889100D03*
X274050000Y-113389100D03*
X274050000Y-115889100D03*
X274050000Y-118389100D03*
%TD*%
D13*
%TO.C,S36*%
X193507500Y-43279100D03*
D14*
X194777500Y-40739100D03*
D15*
X198587500Y-43279100D03*
D14*
X201127500Y-38199100D03*
D13*
X203667500Y-43279100D03*
%TD*%
%TO.C,S19*%
X169695000Y-86141600D03*
D14*
X170965000Y-83601600D03*
D15*
X174775000Y-86141600D03*
D14*
X177315000Y-81061600D03*
D13*
X179855000Y-86141600D03*
%TD*%
%TO.C,S31*%
X207795000Y-86141600D03*
D14*
X209065000Y-83601600D03*
D15*
X212875000Y-86141600D03*
D14*
X215415000Y-81061600D03*
D13*
X217955000Y-86141600D03*
%TD*%
D18*
%TO.C,H6*%
X250975000Y-62011600D03*
%TD*%
D13*
%TO.C,S25*%
X160170000Y-143291600D03*
D14*
X161440000Y-140751600D03*
D15*
X165250000Y-143291600D03*
D14*
X167790000Y-138211600D03*
D13*
X170330000Y-143291600D03*
%TD*%
%TO.C,S23*%
X174457500Y-105191600D03*
D14*
X175727500Y-102651600D03*
D15*
X179537500Y-105191600D03*
D14*
X182077500Y-100111600D03*
D13*
X184617500Y-105191600D03*
%TD*%
%TO.C,S1*%
X83970000Y-67091600D03*
D14*
X85240000Y-64551600D03*
D15*
X89050000Y-67091600D03*
D14*
X91590000Y-62011600D03*
D13*
X94130000Y-67091600D03*
%TD*%
D18*
%TO.C,H1*%
X74000000Y-48804100D03*
%TD*%
D13*
%TO.C,S33*%
X179220000Y-143291600D03*
D14*
X180490000Y-140751600D03*
D15*
X184300000Y-143291600D03*
D14*
X186840000Y-138211600D03*
D13*
X189380000Y-143291600D03*
%TD*%
%TO.C,S45*%
X236370000Y-43279100D03*
D14*
X237640000Y-40739100D03*
D15*
X241450000Y-43279100D03*
D14*
X243990000Y-38199100D03*
D13*
X246530000Y-43279100D03*
%TD*%
D18*
%TO.C,H3*%
X159725000Y-156000000D03*
%TD*%
D13*
%TO.C,S13*%
X131595000Y-86141600D03*
D14*
X132865000Y-83601600D03*
D15*
X136675000Y-86141600D03*
D14*
X139215000Y-81061600D03*
D13*
X141755000Y-86141600D03*
%TD*%
%TO.C,S7*%
X112545000Y-86141600D03*
D14*
X113815000Y-83601600D03*
D15*
X117625000Y-86141600D03*
D14*
X120165000Y-81061600D03*
D13*
X122705000Y-86141600D03*
%TD*%
%TO.C,S49*%
X260182500Y-67091600D03*
D14*
X261452500Y-64551600D03*
D15*
X265262500Y-67091600D03*
D14*
X267802500Y-62011600D03*
D13*
X270342500Y-67091600D03*
%TD*%
%TO.C,S29*%
X193507500Y-105191600D03*
D14*
X194777500Y-102651600D03*
D15*
X198587500Y-105191600D03*
D14*
X201127500Y-100111600D03*
D13*
X203667500Y-105191600D03*
%TD*%
%TO.C,S40*%
X222082500Y-148054100D03*
D14*
X223352500Y-145514100D03*
D15*
X227162500Y-148054100D03*
D14*
X229702500Y-142974100D03*
D13*
X232242500Y-148054100D03*
%TD*%
%TO.C,S17*%
X150645000Y-86141600D03*
D14*
X151915000Y-83601600D03*
D15*
X155725000Y-86141600D03*
D14*
X158265000Y-81061600D03*
D13*
X160805000Y-86141600D03*
%TD*%
%TO.C,S24*%
X160170000Y-67091600D03*
D14*
X161440000Y-64551600D03*
D15*
X165250000Y-67091600D03*
D14*
X167790000Y-62011600D03*
D13*
X170330000Y-67091600D03*
%TD*%
%TO.C,S6*%
X98257500Y-105191600D03*
D14*
X99527500Y-102651600D03*
D15*
X103337500Y-105191600D03*
D14*
X105877500Y-100111600D03*
D13*
X108417500Y-105191600D03*
%TD*%
D16*
%TO.C,S37*%
X217643750Y-98216600D03*
D15*
X217643750Y-113456600D03*
D13*
X224463750Y-105191600D03*
D14*
X225733750Y-102651600D03*
D15*
X229543750Y-105191600D03*
D14*
X232083750Y-100111600D03*
D13*
X234623750Y-105191600D03*
D16*
X241443750Y-98216600D03*
D15*
X241443750Y-113456600D03*
%TD*%
D13*
%TO.C,S15*%
X141120000Y-67091600D03*
D14*
X142390000Y-64551600D03*
D15*
X146200000Y-67091600D03*
D14*
X148740000Y-62011600D03*
D13*
X151280000Y-67091600D03*
%TD*%
%TO.C,S34*%
X198270000Y-143291600D03*
D14*
X199540000Y-140751600D03*
D15*
X203350000Y-143291600D03*
D14*
X205890000Y-138211600D03*
D13*
X208430000Y-143291600D03*
%TD*%
%TO.C,S9*%
X107782500Y-124241600D03*
D14*
X109052500Y-121701600D03*
D15*
X112862500Y-124241600D03*
D14*
X115402500Y-119161600D03*
D13*
X117942500Y-124241600D03*
%TD*%
%TO.C,S21*%
X164932500Y-124241600D03*
D14*
X166202500Y-121701600D03*
D15*
X170012500Y-124241600D03*
D14*
X172552500Y-119161600D03*
D13*
X175092500Y-124241600D03*
%TD*%
%TO.C,S43*%
X260182500Y-148054100D03*
D14*
X261452500Y-145514100D03*
D15*
X265262500Y-148054100D03*
D14*
X267802500Y-142974100D03*
D13*
X270342500Y-148054100D03*
%TD*%
D18*
%TO.C,H2*%
X273168750Y-156000000D03*
%TD*%
D13*
%TO.C,S4*%
X93495000Y-43279100D03*
D14*
X94765000Y-40739100D03*
D15*
X98575000Y-43279100D03*
D14*
X101115000Y-38199100D03*
D13*
X103655000Y-43279100D03*
%TD*%
%TO.C,S10*%
X122070000Y-67091600D03*
D14*
X123340000Y-64551600D03*
D15*
X127150000Y-67091600D03*
D14*
X129690000Y-62011600D03*
D13*
X132230000Y-67091600D03*
%TD*%
D18*
%TO.C,H5*%
X117625000Y-76616600D03*
%TD*%
D13*
%TO.C,S16*%
X126832500Y-124241600D03*
D14*
X128102500Y-121701600D03*
D15*
X131912500Y-124241600D03*
D14*
X134452500Y-119161600D03*
D13*
X136992500Y-124241600D03*
%TD*%
%TO.C,S38*%
X231607500Y-86141600D03*
D14*
X232877500Y-83601600D03*
D15*
X236687500Y-86141600D03*
D14*
X239227500Y-81061600D03*
D13*
X241767500Y-86141600D03*
%TD*%
%TO.C,S3*%
X74445000Y-43279100D03*
D14*
X75715000Y-40739100D03*
D15*
X79525000Y-43279100D03*
D14*
X82065000Y-38199100D03*
D13*
X84605000Y-43279100D03*
%TD*%
%TO.C,S20*%
X155407500Y-43279100D03*
D14*
X156677500Y-40739100D03*
D15*
X160487500Y-43279100D03*
D14*
X163027500Y-38199100D03*
D13*
X165567500Y-43279100D03*
%TD*%
%TO.C,S27*%
X179220000Y-67091600D03*
D14*
X180490000Y-64551600D03*
D15*
X184300000Y-67091600D03*
D14*
X186840000Y-62011600D03*
D13*
X189380000Y-67091600D03*
%TD*%
D19*
%TO.C,D1*%
X263168750Y-25062500D03*
X263168750Y-26937500D03*
%TD*%
D13*
%TO.C,S22*%
X145882500Y-124241600D03*
D14*
X147152500Y-121701600D03*
D15*
X150962500Y-124241600D03*
D14*
X153502500Y-119161600D03*
D13*
X156042500Y-124241600D03*
%TD*%
%TO.C,S18*%
X155407500Y-105191600D03*
D14*
X156677500Y-102651600D03*
D15*
X160487500Y-105191600D03*
D14*
X163027500Y-100111600D03*
D13*
X165567500Y-105191600D03*
%TD*%
D20*
%TO.C,D3*%
X243168750Y-26937500D03*
X243168750Y-25062500D03*
%TD*%
D18*
%TO.C,H7*%
X198587500Y-114716600D03*
%TD*%
D13*
%TO.C,S32*%
X198270000Y-67091600D03*
D14*
X199540000Y-64551600D03*
D15*
X203350000Y-67091600D03*
D14*
X205890000Y-62011600D03*
D13*
X208430000Y-67091600D03*
%TD*%
%TO.C,S30*%
X183982500Y-124241600D03*
D14*
X185252500Y-121701600D03*
D15*
X189062500Y-124241600D03*
D14*
X191602500Y-119161600D03*
D13*
X194142500Y-124241600D03*
%TD*%
%TO.C,S44*%
X212557500Y-43279100D03*
D14*
X213827500Y-40739100D03*
D15*
X217637500Y-43279100D03*
D14*
X220177500Y-38199100D03*
D13*
X222717500Y-43279100D03*
%TD*%
%TO.C,S46*%
X260182500Y-43279100D03*
D14*
X261452500Y-40739100D03*
D15*
X265262500Y-43279100D03*
D14*
X267802500Y-38199100D03*
D13*
X270342500Y-43279100D03*
%TD*%
%TO.C,S35*%
X210176250Y-124241600D03*
D14*
X211446250Y-121701600D03*
D15*
X215256250Y-124241600D03*
D14*
X217796250Y-119161600D03*
D13*
X220336250Y-124241600D03*
%TD*%
%TO.C,S5*%
X112545000Y-43279100D03*
D14*
X113815000Y-40739100D03*
D15*
X117625000Y-43279100D03*
D14*
X120165000Y-38199100D03*
D13*
X122705000Y-43279100D03*
%TD*%
%TO.C,S8*%
X103020000Y-67091600D03*
D14*
X104290000Y-64551600D03*
D15*
X108100000Y-67091600D03*
D14*
X110640000Y-62011600D03*
D13*
X113180000Y-67091600D03*
%TD*%
D19*
%TO.C,D4*%
X253168750Y-25062500D03*
X253168750Y-26937500D03*
%TD*%
D13*
%TO.C,S39*%
X241132500Y-129004100D03*
D14*
X242402500Y-126464100D03*
D15*
X246212500Y-129004100D03*
D14*
X248752500Y-123924100D03*
D13*
X251292500Y-129004100D03*
%TD*%
%TO.C,S47*%
X260182500Y-105191600D03*
D14*
X261452500Y-102651600D03*
D15*
X265262500Y-105191600D03*
D14*
X267802500Y-100111600D03*
D13*
X270342500Y-105191600D03*
%TD*%
%TO.C,S14*%
X136357500Y-105191600D03*
D14*
X137627500Y-102651600D03*
D15*
X141437500Y-105191600D03*
D14*
X143977500Y-100111600D03*
D13*
X146517500Y-105191600D03*
%TD*%
%TO.C,S48*%
X260182500Y-86141600D03*
D14*
X261452500Y-83601600D03*
D15*
X265262500Y-86141600D03*
D14*
X267802500Y-81061600D03*
D13*
X270342500Y-86141600D03*
%TD*%
D17*
%TO.C,J4*%
X110563600Y-128266600D03*
X113063600Y-128266600D03*
X115563600Y-128266600D03*
X118063600Y-128266600D03*
%TD*%
%TO.C,J3*%
X75500000Y-27527600D03*
X75500000Y-30027600D03*
X75500000Y-32527600D03*
X75500000Y-35027600D03*
%TD*%
%TO.C,J5*%
X132779400Y-128266600D03*
X135279400Y-128266600D03*
X137779400Y-128266600D03*
X140279400Y-128266600D03*
%TD*%
%LPD*%
M02*
