%TF.GenerationSoftware,KiCad,Pcbnew,8.0.4*%
%TF.CreationDate,2024-10-18T15:09:13-05:00*%
%TF.ProjectId,numlocked_right,6e756d6c-6f63-46b6-9564-5f7269676874,rev?*%
%TF.SameCoordinates,Original*%
%TF.FileFunction,Soldermask,Top*%
%TF.FilePolarity,Negative*%
%FSLAX46Y46*%
G04 Gerber Fmt 4.6, Leading zero omitted, Abs format (unit mm)*
G04 Created by KiCad (PCBNEW 8.0.4) date 2024-10-18 15:09:13*
%MOMM*%
%LPD*%
G01*
G04 APERTURE LIST*
G04 Aperture macros list*
%AMRoundRect*
0 Rectangle with rounded corners*
0 $1 Rounding radius*
0 $2 $3 $4 $5 $6 $7 $8 $9 X,Y pos of 4 corners*
0 Add a 4 corners polygon primitive as box body*
4,1,4,$2,$3,$4,$5,$6,$7,$8,$9,$2,$3,0*
0 Add four circle primitives for the rounded corners*
1,1,$1+$1,$2,$3*
1,1,$1+$1,$4,$5*
1,1,$1+$1,$6,$7*
1,1,$1+$1,$8,$9*
0 Add four rect primitives between the rounded corners*
20,1,$1+$1,$2,$3,$4,$5,0*
20,1,$1+$1,$4,$5,$6,$7,0*
20,1,$1+$1,$6,$7,$8,$9,0*
20,1,$1+$1,$8,$9,$2,$3,0*%
G04 Aperture macros list end*
%ADD10C,1.700000*%
%ADD11C,3.000000*%
%ADD12C,4.000000*%
%ADD13C,3.050000*%
%ADD14C,1.800000*%
%ADD15C,4.400000*%
%ADD16RoundRect,0.243750X-0.456250X0.243750X-0.456250X-0.243750X0.456250X-0.243750X0.456250X0.243750X0*%
%ADD17RoundRect,0.243750X0.456250X-0.243750X0.456250X0.243750X-0.456250X0.243750X-0.456250X-0.243750X0*%
G04 APERTURE END LIST*
D10*
%TO.C,S2*%
X93495000Y-86141600D03*
D11*
X94765000Y-83601600D03*
D12*
X98575000Y-86141600D03*
D11*
X101115000Y-81061600D03*
D10*
X103655000Y-86141600D03*
%TD*%
%TO.C,S26*%
X188745000Y-86141600D03*
D11*
X190015000Y-83601600D03*
D12*
X193825000Y-86141600D03*
D11*
X196365000Y-81061600D03*
D10*
X198905000Y-86141600D03*
%TD*%
D13*
%TO.C,S42*%
X220025000Y-60091600D03*
D12*
X220025000Y-75331600D03*
D10*
X226845000Y-67091600D03*
D11*
X228115000Y-64551600D03*
D12*
X231925000Y-67091600D03*
D11*
X234465000Y-62011600D03*
D10*
X237005000Y-67091600D03*
D13*
X243825000Y-60091600D03*
D12*
X243825000Y-75331600D03*
%TD*%
D10*
%TO.C,S12*%
X131595000Y-43279100D03*
D11*
X132865000Y-40739100D03*
D12*
X136675000Y-43279100D03*
D11*
X139215000Y-38199100D03*
D10*
X141755000Y-43279100D03*
%TD*%
D14*
%TO.C,J1*%
X274050000Y-71009100D03*
X274050000Y-73509100D03*
X274050000Y-76009100D03*
X274050000Y-78509100D03*
%TD*%
D15*
%TO.C,H4*%
X257500000Y-24000000D03*
%TD*%
D10*
%TO.C,S28*%
X174457500Y-43279100D03*
D11*
X175727500Y-40739100D03*
D12*
X179537500Y-43279100D03*
D11*
X182077500Y-38199100D03*
D10*
X184617500Y-43279100D03*
%TD*%
%TO.C,S11*%
X117307500Y-105191600D03*
D11*
X118577500Y-102651600D03*
D12*
X122387500Y-105191600D03*
D11*
X124927500Y-100111600D03*
D10*
X127467500Y-105191600D03*
%TD*%
%TO.C,S41*%
X241132500Y-148054100D03*
D11*
X242402500Y-145514100D03*
D12*
X246212500Y-148054100D03*
D11*
X248752500Y-142974100D03*
D10*
X251292500Y-148054100D03*
%TD*%
D14*
%TO.C,J2*%
X274050000Y-110889100D03*
X274050000Y-113389100D03*
X274050000Y-115889100D03*
X274050000Y-118389100D03*
%TD*%
D10*
%TO.C,S36*%
X193507500Y-43279100D03*
D11*
X194777500Y-40739100D03*
D12*
X198587500Y-43279100D03*
D11*
X201127500Y-38199100D03*
D10*
X203667500Y-43279100D03*
%TD*%
%TO.C,S19*%
X169695000Y-86141600D03*
D11*
X170965000Y-83601600D03*
D12*
X174775000Y-86141600D03*
D11*
X177315000Y-81061600D03*
D10*
X179855000Y-86141600D03*
%TD*%
%TO.C,S31*%
X207795000Y-86141600D03*
D11*
X209065000Y-83601600D03*
D12*
X212875000Y-86141600D03*
D11*
X215415000Y-81061600D03*
D10*
X217955000Y-86141600D03*
%TD*%
D15*
%TO.C,H6*%
X250975000Y-62011600D03*
%TD*%
D10*
%TO.C,S25*%
X160170000Y-143291600D03*
D11*
X161440000Y-140751600D03*
D12*
X165250000Y-143291600D03*
D11*
X167790000Y-138211600D03*
D10*
X170330000Y-143291600D03*
%TD*%
%TO.C,S23*%
X174457500Y-105191600D03*
D11*
X175727500Y-102651600D03*
D12*
X179537500Y-105191600D03*
D11*
X182077500Y-100111600D03*
D10*
X184617500Y-105191600D03*
%TD*%
%TO.C,S1*%
X83970000Y-67091600D03*
D11*
X85240000Y-64551600D03*
D12*
X89050000Y-67091600D03*
D11*
X91590000Y-62011600D03*
D10*
X94130000Y-67091600D03*
%TD*%
D15*
%TO.C,H1*%
X74000000Y-48804100D03*
%TD*%
D10*
%TO.C,S33*%
X179220000Y-143291600D03*
D11*
X180490000Y-140751600D03*
D12*
X184300000Y-143291600D03*
D11*
X186840000Y-138211600D03*
D10*
X189380000Y-143291600D03*
%TD*%
%TO.C,S45*%
X236370000Y-43279100D03*
D11*
X237640000Y-40739100D03*
D12*
X241450000Y-43279100D03*
D11*
X243990000Y-38199100D03*
D10*
X246530000Y-43279100D03*
%TD*%
D15*
%TO.C,H3*%
X159725000Y-156000000D03*
%TD*%
D10*
%TO.C,S13*%
X131595000Y-86141600D03*
D11*
X132865000Y-83601600D03*
D12*
X136675000Y-86141600D03*
D11*
X139215000Y-81061600D03*
D10*
X141755000Y-86141600D03*
%TD*%
%TO.C,S7*%
X112545000Y-86141600D03*
D11*
X113815000Y-83601600D03*
D12*
X117625000Y-86141600D03*
D11*
X120165000Y-81061600D03*
D10*
X122705000Y-86141600D03*
%TD*%
%TO.C,S49*%
X260182500Y-67091600D03*
D11*
X261452500Y-64551600D03*
D12*
X265262500Y-67091600D03*
D11*
X267802500Y-62011600D03*
D10*
X270342500Y-67091600D03*
%TD*%
%TO.C,S29*%
X193507500Y-105191600D03*
D11*
X194777500Y-102651600D03*
D12*
X198587500Y-105191600D03*
D11*
X201127500Y-100111600D03*
D10*
X203667500Y-105191600D03*
%TD*%
%TO.C,S40*%
X222082500Y-148054100D03*
D11*
X223352500Y-145514100D03*
D12*
X227162500Y-148054100D03*
D11*
X229702500Y-142974100D03*
D10*
X232242500Y-148054100D03*
%TD*%
%TO.C,S17*%
X150645000Y-86141600D03*
D11*
X151915000Y-83601600D03*
D12*
X155725000Y-86141600D03*
D11*
X158265000Y-81061600D03*
D10*
X160805000Y-86141600D03*
%TD*%
%TO.C,S24*%
X160170000Y-67091600D03*
D11*
X161440000Y-64551600D03*
D12*
X165250000Y-67091600D03*
D11*
X167790000Y-62011600D03*
D10*
X170330000Y-67091600D03*
%TD*%
%TO.C,S6*%
X98257500Y-105191600D03*
D11*
X99527500Y-102651600D03*
D12*
X103337500Y-105191600D03*
D11*
X105877500Y-100111600D03*
D10*
X108417500Y-105191600D03*
%TD*%
D13*
%TO.C,S37*%
X217643750Y-98216600D03*
D12*
X217643750Y-113456600D03*
D10*
X224463750Y-105191600D03*
D11*
X225733750Y-102651600D03*
D12*
X229543750Y-105191600D03*
D11*
X232083750Y-100111600D03*
D10*
X234623750Y-105191600D03*
D13*
X241443750Y-98216600D03*
D12*
X241443750Y-113456600D03*
%TD*%
D10*
%TO.C,S15*%
X141120000Y-67091600D03*
D11*
X142390000Y-64551600D03*
D12*
X146200000Y-67091600D03*
D11*
X148740000Y-62011600D03*
D10*
X151280000Y-67091600D03*
%TD*%
%TO.C,S34*%
X198270000Y-143291600D03*
D11*
X199540000Y-140751600D03*
D12*
X203350000Y-143291600D03*
D11*
X205890000Y-138211600D03*
D10*
X208430000Y-143291600D03*
%TD*%
%TO.C,S9*%
X107782500Y-124241600D03*
D11*
X109052500Y-121701600D03*
D12*
X112862500Y-124241600D03*
D11*
X115402500Y-119161600D03*
D10*
X117942500Y-124241600D03*
%TD*%
%TO.C,S21*%
X164932500Y-124241600D03*
D11*
X166202500Y-121701600D03*
D12*
X170012500Y-124241600D03*
D11*
X172552500Y-119161600D03*
D10*
X175092500Y-124241600D03*
%TD*%
%TO.C,S43*%
X260182500Y-148054100D03*
D11*
X261452500Y-145514100D03*
D12*
X265262500Y-148054100D03*
D11*
X267802500Y-142974100D03*
D10*
X270342500Y-148054100D03*
%TD*%
D15*
%TO.C,H2*%
X273168750Y-156000000D03*
%TD*%
D10*
%TO.C,S4*%
X93495000Y-43279100D03*
D11*
X94765000Y-40739100D03*
D12*
X98575000Y-43279100D03*
D11*
X101115000Y-38199100D03*
D10*
X103655000Y-43279100D03*
%TD*%
%TO.C,S10*%
X122070000Y-67091600D03*
D11*
X123340000Y-64551600D03*
D12*
X127150000Y-67091600D03*
D11*
X129690000Y-62011600D03*
D10*
X132230000Y-67091600D03*
%TD*%
D15*
%TO.C,H5*%
X117625000Y-76616600D03*
%TD*%
D10*
%TO.C,S16*%
X126832500Y-124241600D03*
D11*
X128102500Y-121701600D03*
D12*
X131912500Y-124241600D03*
D11*
X134452500Y-119161600D03*
D10*
X136992500Y-124241600D03*
%TD*%
%TO.C,S38*%
X231607500Y-86141600D03*
D11*
X232877500Y-83601600D03*
D12*
X236687500Y-86141600D03*
D11*
X239227500Y-81061600D03*
D10*
X241767500Y-86141600D03*
%TD*%
%TO.C,S3*%
X74445000Y-43279100D03*
D11*
X75715000Y-40739100D03*
D12*
X79525000Y-43279100D03*
D11*
X82065000Y-38199100D03*
D10*
X84605000Y-43279100D03*
%TD*%
%TO.C,S20*%
X155407500Y-43279100D03*
D11*
X156677500Y-40739100D03*
D12*
X160487500Y-43279100D03*
D11*
X163027500Y-38199100D03*
D10*
X165567500Y-43279100D03*
%TD*%
%TO.C,S27*%
X179220000Y-67091600D03*
D11*
X180490000Y-64551600D03*
D12*
X184300000Y-67091600D03*
D11*
X186840000Y-62011600D03*
D10*
X189380000Y-67091600D03*
%TD*%
D16*
%TO.C,D1*%
X263168750Y-25062500D03*
X263168750Y-26937500D03*
%TD*%
D10*
%TO.C,S22*%
X145882500Y-124241600D03*
D11*
X147152500Y-121701600D03*
D12*
X150962500Y-124241600D03*
D11*
X153502500Y-119161600D03*
D10*
X156042500Y-124241600D03*
%TD*%
%TO.C,S18*%
X155407500Y-105191600D03*
D11*
X156677500Y-102651600D03*
D12*
X160487500Y-105191600D03*
D11*
X163027500Y-100111600D03*
D10*
X165567500Y-105191600D03*
%TD*%
D17*
%TO.C,D3*%
X243168750Y-26937500D03*
X243168750Y-25062500D03*
%TD*%
D15*
%TO.C,H7*%
X198587500Y-114716600D03*
%TD*%
D10*
%TO.C,S32*%
X198270000Y-67091600D03*
D11*
X199540000Y-64551600D03*
D12*
X203350000Y-67091600D03*
D11*
X205890000Y-62011600D03*
D10*
X208430000Y-67091600D03*
%TD*%
%TO.C,S30*%
X183982500Y-124241600D03*
D11*
X185252500Y-121701600D03*
D12*
X189062500Y-124241600D03*
D11*
X191602500Y-119161600D03*
D10*
X194142500Y-124241600D03*
%TD*%
%TO.C,S44*%
X212557500Y-43279100D03*
D11*
X213827500Y-40739100D03*
D12*
X217637500Y-43279100D03*
D11*
X220177500Y-38199100D03*
D10*
X222717500Y-43279100D03*
%TD*%
%TO.C,S46*%
X260182500Y-43279100D03*
D11*
X261452500Y-40739100D03*
D12*
X265262500Y-43279100D03*
D11*
X267802500Y-38199100D03*
D10*
X270342500Y-43279100D03*
%TD*%
%TO.C,S35*%
X210176250Y-124241600D03*
D11*
X211446250Y-121701600D03*
D12*
X215256250Y-124241600D03*
D11*
X217796250Y-119161600D03*
D10*
X220336250Y-124241600D03*
%TD*%
%TO.C,S5*%
X112545000Y-43279100D03*
D11*
X113815000Y-40739100D03*
D12*
X117625000Y-43279100D03*
D11*
X120165000Y-38199100D03*
D10*
X122705000Y-43279100D03*
%TD*%
%TO.C,S8*%
X103020000Y-67091600D03*
D11*
X104290000Y-64551600D03*
D12*
X108100000Y-67091600D03*
D11*
X110640000Y-62011600D03*
D10*
X113180000Y-67091600D03*
%TD*%
D16*
%TO.C,D4*%
X253168750Y-25062500D03*
X253168750Y-26937500D03*
%TD*%
D10*
%TO.C,S39*%
X241132500Y-129004100D03*
D11*
X242402500Y-126464100D03*
D12*
X246212500Y-129004100D03*
D11*
X248752500Y-123924100D03*
D10*
X251292500Y-129004100D03*
%TD*%
%TO.C,S47*%
X260182500Y-105191600D03*
D11*
X261452500Y-102651600D03*
D12*
X265262500Y-105191600D03*
D11*
X267802500Y-100111600D03*
D10*
X270342500Y-105191600D03*
%TD*%
%TO.C,S14*%
X136357500Y-105191600D03*
D11*
X137627500Y-102651600D03*
D12*
X141437500Y-105191600D03*
D11*
X143977500Y-100111600D03*
D10*
X146517500Y-105191600D03*
%TD*%
%TO.C,S48*%
X260182500Y-86141600D03*
D11*
X261452500Y-83601600D03*
D12*
X265262500Y-86141600D03*
D11*
X267802500Y-81061600D03*
D10*
X270342500Y-86141600D03*
%TD*%
D14*
%TO.C,J4*%
X110563600Y-128266600D03*
X113063600Y-128266600D03*
X115563600Y-128266600D03*
X118063600Y-128266600D03*
%TD*%
%TO.C,J3*%
X75500000Y-27527600D03*
X75500000Y-30027600D03*
X75500000Y-32527600D03*
X75500000Y-35027600D03*
%TD*%
%TO.C,J5*%
X132779400Y-128266600D03*
X135279400Y-128266600D03*
X137779400Y-128266600D03*
X140279400Y-128266600D03*
%TD*%
M02*
