%TF.GenerationSoftware,KiCad,Pcbnew,8.0.4*%
%TF.CreationDate,2024-10-18T15:09:14-05:00*%
%TF.ProjectId,numlocked_right,6e756d6c-6f63-46b6-9564-5f7269676874,rev?*%
%TF.SameCoordinates,Original*%
%TF.FileFunction,Paste,Bot*%
%TF.FilePolarity,Positive*%
%FSLAX46Y46*%
G04 Gerber Fmt 4.6, Leading zero omitted, Abs format (unit mm)*
G04 Created by KiCad (PCBNEW 8.0.4) date 2024-10-18 15:09:14*
%MOMM*%
%LPD*%
G01*
G04 APERTURE LIST*
G04 Aperture macros list*
%AMRoundRect*
0 Rectangle with rounded corners*
0 $1 Rounding radius*
0 $2 $3 $4 $5 $6 $7 $8 $9 X,Y pos of 4 corners*
0 Add a 4 corners polygon primitive as box body*
4,1,4,$2,$3,$4,$5,$6,$7,$8,$9,$2,$3,0*
0 Add four circle primitives for the rounded corners*
1,1,$1+$1,$2,$3*
1,1,$1+$1,$4,$5*
1,1,$1+$1,$6,$7*
1,1,$1+$1,$8,$9*
0 Add four rect primitives between the rounded corners*
20,1,$1+$1,$2,$3,$4,$5,0*
20,1,$1+$1,$4,$5,$6,$7,0*
20,1,$1+$1,$6,$7,$8,$9,0*
20,1,$1+$1,$8,$9,$2,$3,0*%
G04 Aperture macros list end*
%ADD10R,2.550000X2.500000*%
%ADD11R,0.900000X0.900000*%
%ADD12RoundRect,0.375000X-0.375000X0.625000X-0.375000X-0.625000X0.375000X-0.625000X0.375000X0.625000X0*%
%ADD13RoundRect,0.500000X-1.400000X0.500000X-1.400000X-0.500000X1.400000X-0.500000X1.400000X0.500000X0*%
%ADD14RoundRect,0.200000X0.275000X-0.200000X0.275000X0.200000X-0.275000X0.200000X-0.275000X-0.200000X0*%
%ADD15RoundRect,0.075000X0.910000X0.225000X-0.910000X0.225000X-0.910000X-0.225000X0.910000X-0.225000X0*%
%ADD16RoundRect,0.200000X-0.200000X-0.275000X0.200000X-0.275000X0.200000X0.275000X-0.200000X0.275000X0*%
%ADD17RoundRect,0.225000X0.250000X-0.225000X0.250000X0.225000X-0.250000X0.225000X-0.250000X-0.225000X0*%
%ADD18RoundRect,0.225000X0.225000X0.250000X-0.225000X0.250000X-0.225000X-0.250000X0.225000X-0.250000X0*%
%ADD19RoundRect,0.150000X0.650000X0.150000X-0.650000X0.150000X-0.650000X-0.150000X0.650000X-0.150000X0*%
%ADD20RoundRect,0.250000X0.650000X-0.325000X0.650000X0.325000X-0.650000X0.325000X-0.650000X-0.325000X0*%
%ADD21RoundRect,0.225000X-0.225000X-0.250000X0.225000X-0.250000X0.225000X0.250000X-0.225000X0.250000X0*%
%ADD22RoundRect,0.150000X-0.512500X-0.150000X0.512500X-0.150000X0.512500X0.150000X-0.512500X0.150000X0*%
G04 APERTURE END LIST*
D10*
%TO.C,S2*%
X91165000Y-83601600D03*
X104590000Y-81061600D03*
%TD*%
%TO.C,S26*%
X186415000Y-83601600D03*
X199840000Y-81061600D03*
%TD*%
%TO.C,S42*%
X224515000Y-64551600D03*
X237940000Y-62011600D03*
%TD*%
%TO.C,S12*%
X129265000Y-40739100D03*
X142690000Y-38199100D03*
%TD*%
%TO.C,S28*%
X172127500Y-40739100D03*
X185552500Y-38199100D03*
%TD*%
%TO.C,S11*%
X114977500Y-102651600D03*
X128402500Y-100111600D03*
%TD*%
%TO.C,S41*%
X238802500Y-145514100D03*
X252227500Y-142974100D03*
%TD*%
%TO.C,S36*%
X191177500Y-40739100D03*
X204602500Y-38199100D03*
%TD*%
%TO.C,S19*%
X167365000Y-83601600D03*
X180790000Y-81061600D03*
%TD*%
%TO.C,S31*%
X205465000Y-83601600D03*
X218890000Y-81061600D03*
%TD*%
%TO.C,S25*%
X157840000Y-140751600D03*
X171265000Y-138211600D03*
%TD*%
%TO.C,S23*%
X172127500Y-102651600D03*
X185552500Y-100111600D03*
%TD*%
%TO.C,S1*%
X81640000Y-64551600D03*
X95065000Y-62011600D03*
%TD*%
%TO.C,S33*%
X176890000Y-140751600D03*
X190315000Y-138211600D03*
%TD*%
%TO.C,S45*%
X234040000Y-40739100D03*
X247465000Y-38199100D03*
%TD*%
%TO.C,S13*%
X129265000Y-83601600D03*
X142690000Y-81061600D03*
%TD*%
%TO.C,S7*%
X110215000Y-83601600D03*
X123640000Y-81061600D03*
%TD*%
%TO.C,S49*%
X257852500Y-64551600D03*
X271277500Y-62011600D03*
%TD*%
%TO.C,S29*%
X191177500Y-102651600D03*
X204602500Y-100111600D03*
%TD*%
%TO.C,S40*%
X219752500Y-145514100D03*
X233177500Y-142974100D03*
%TD*%
%TO.C,S17*%
X148315000Y-83601600D03*
X161740000Y-81061600D03*
%TD*%
%TO.C,S24*%
X157840000Y-64551600D03*
X171265000Y-62011600D03*
%TD*%
%TO.C,S6*%
X95927500Y-102651600D03*
X109352500Y-100111600D03*
%TD*%
%TO.C,S37*%
X222133750Y-102651600D03*
X235558750Y-100111600D03*
%TD*%
%TO.C,S15*%
X138790000Y-64551600D03*
X152215000Y-62011600D03*
%TD*%
%TO.C,S34*%
X195940000Y-140751600D03*
X209365000Y-138211600D03*
%TD*%
%TO.C,S9*%
X105452500Y-121701600D03*
X118877500Y-119161600D03*
%TD*%
%TO.C,S21*%
X162602500Y-121701600D03*
X176027500Y-119161600D03*
%TD*%
%TO.C,S43*%
X257852500Y-145514100D03*
X271277500Y-142974100D03*
%TD*%
%TO.C,S4*%
X91165000Y-40739100D03*
X104590000Y-38199100D03*
%TD*%
%TO.C,S10*%
X119740000Y-64551600D03*
X133165000Y-62011600D03*
%TD*%
%TO.C,S16*%
X124502500Y-121701600D03*
X137927500Y-119161600D03*
%TD*%
%TO.C,S38*%
X229277500Y-83601600D03*
X242702500Y-81061600D03*
%TD*%
%TO.C,S3*%
X72115000Y-40739100D03*
X85540000Y-38199100D03*
%TD*%
%TO.C,S20*%
X153077500Y-40739100D03*
X166502500Y-38199100D03*
%TD*%
%TO.C,S27*%
X176890000Y-64551600D03*
X190315000Y-62011600D03*
%TD*%
%TO.C,S22*%
X143552500Y-121701600D03*
X156977500Y-119161600D03*
%TD*%
%TO.C,S18*%
X153077500Y-102651600D03*
X166502500Y-100111600D03*
%TD*%
%TO.C,S32*%
X195940000Y-64551600D03*
X209365000Y-62011600D03*
%TD*%
%TO.C,S30*%
X181652500Y-121701600D03*
X195077500Y-119161600D03*
%TD*%
%TO.C,S44*%
X210227500Y-40739100D03*
X223652500Y-38199100D03*
%TD*%
%TO.C,S46*%
X257852500Y-40739100D03*
X271277500Y-38199100D03*
%TD*%
%TO.C,S35*%
X207846250Y-121701600D03*
X221271250Y-119161600D03*
%TD*%
%TO.C,S5*%
X110215000Y-40739100D03*
X123640000Y-38199100D03*
%TD*%
%TO.C,S8*%
X100690000Y-64551600D03*
X114115000Y-62011600D03*
%TD*%
%TO.C,S39*%
X238802500Y-126464100D03*
X252227500Y-123924100D03*
%TD*%
%TO.C,S47*%
X257852500Y-102651600D03*
X271277500Y-100111600D03*
%TD*%
%TO.C,S14*%
X134027500Y-102651600D03*
X147452500Y-100111600D03*
%TD*%
%TO.C,S48*%
X257852500Y-83601600D03*
X271277500Y-81061600D03*
%TD*%
D11*
%TO.C,RN5*%
X193420000Y-50471600D03*
X193420000Y-51811600D03*
X193420000Y-53131600D03*
X193420000Y-54471600D03*
X190420000Y-54471600D03*
X190420000Y-53131600D03*
X190420000Y-51811600D03*
X190420000Y-50471600D03*
%TD*%
%TO.C,RN4*%
X170560000Y-50471600D03*
X170560000Y-51811600D03*
X170560000Y-53131600D03*
X170560000Y-54471600D03*
X167560000Y-54471600D03*
X167560000Y-53131600D03*
X167560000Y-51811600D03*
X167560000Y-50471600D03*
%TD*%
D12*
%TO.C,U8*%
X89949293Y-29074293D03*
X92249293Y-29074293D03*
X94549293Y-29074293D03*
D13*
X92249293Y-35374293D03*
%TD*%
D14*
%TO.C,R1*%
X261000000Y-28600000D03*
X261000000Y-26950000D03*
%TD*%
%TO.C,R6*%
X97300000Y-54701600D03*
X97300000Y-53051600D03*
%TD*%
D15*
%TO.C,U2*%
X133435000Y-48026600D03*
X133435000Y-49296600D03*
X133435000Y-50566600D03*
X133435000Y-51836600D03*
X133435000Y-53106600D03*
X133435000Y-54376600D03*
X133435000Y-55646600D03*
X133435000Y-56916600D03*
X128485000Y-56916600D03*
X128485000Y-55646600D03*
X128485000Y-54376600D03*
X128485000Y-53106600D03*
X128485000Y-51836600D03*
X128485000Y-50566600D03*
X128485000Y-49296600D03*
X128485000Y-48026600D03*
%TD*%
D11*
%TO.C,RN14*%
X251380000Y-54471600D03*
X251380000Y-53131600D03*
X251380000Y-51811600D03*
X251380000Y-50471600D03*
X254380000Y-50471600D03*
X254380000Y-51811600D03*
X254380000Y-53131600D03*
X254380000Y-54471600D03*
%TD*%
D16*
%TO.C,R4*%
X246975000Y-25076600D03*
X248625000Y-25076600D03*
%TD*%
D17*
%TO.C,C16*%
X82100000Y-56151600D03*
X82100000Y-54601600D03*
%TD*%
D11*
%TO.C,RN3*%
X147700000Y-50471600D03*
X147700000Y-51811600D03*
X147700000Y-53131600D03*
X147700000Y-54471600D03*
X144700000Y-54471600D03*
X144700000Y-53131600D03*
X144700000Y-51811600D03*
X144700000Y-50471600D03*
%TD*%
D17*
%TO.C,C5*%
X194587000Y-47902200D03*
X194587000Y-46352200D03*
%TD*%
D11*
%TO.C,RN6*%
X216280000Y-50471600D03*
X216280000Y-51811600D03*
X216280000Y-53131600D03*
X216280000Y-54471600D03*
X213280000Y-54471600D03*
X213280000Y-53131600D03*
X213280000Y-51811600D03*
X213280000Y-50471600D03*
%TD*%
D18*
%TO.C,C9*%
X274445000Y-67186600D03*
X272895000Y-67186600D03*
%TD*%
D19*
%TO.C,U7*%
X95350000Y-54300000D03*
X95350000Y-55250000D03*
X95350000Y-56200000D03*
X93050000Y-56200000D03*
X93050000Y-55250000D03*
X93050000Y-54300000D03*
%TD*%
D11*
%TO.C,RN1*%
X101980000Y-50471600D03*
X101980000Y-51811600D03*
X101980000Y-53131600D03*
X101980000Y-54471600D03*
X98980000Y-54471600D03*
X98980000Y-53131600D03*
X98980000Y-51811600D03*
X98980000Y-50471600D03*
%TD*%
D15*
%TO.C,U3*%
X156295000Y-48026600D03*
X156295000Y-49296600D03*
X156295000Y-50566600D03*
X156295000Y-51836600D03*
X156295000Y-53106600D03*
X156295000Y-54376600D03*
X156295000Y-55646600D03*
X156295000Y-56916600D03*
X151345000Y-56916600D03*
X151345000Y-55646600D03*
X151345000Y-54376600D03*
X151345000Y-53106600D03*
X151345000Y-51836600D03*
X151345000Y-50566600D03*
X151345000Y-49296600D03*
X151345000Y-48026600D03*
%TD*%
D11*
%TO.C,RN7*%
X114220000Y-54471600D03*
X114220000Y-53131600D03*
X114220000Y-51811600D03*
X114220000Y-50471600D03*
X117220000Y-50471600D03*
X117220000Y-51811600D03*
X117220000Y-53131600D03*
X117220000Y-54471600D03*
%TD*%
D20*
%TO.C,C13*%
X97300000Y-29775000D03*
X97300000Y-26825000D03*
%TD*%
D11*
%TO.C,RN2*%
X124840000Y-50471600D03*
X124840000Y-51811600D03*
X124840000Y-53131600D03*
X124840000Y-54471600D03*
X121840000Y-54471600D03*
X121840000Y-53131600D03*
X121840000Y-51811600D03*
X121840000Y-50471600D03*
%TD*%
D16*
%TO.C,R3*%
X245275000Y-23376600D03*
X246925000Y-23376600D03*
%TD*%
D17*
%TO.C,C3*%
X148917800Y-47876800D03*
X148917800Y-46326800D03*
%TD*%
D15*
%TO.C,U4*%
X179155000Y-48026600D03*
X179155000Y-49296600D03*
X179155000Y-50566600D03*
X179155000Y-51836600D03*
X179155000Y-53106600D03*
X179155000Y-54376600D03*
X179155000Y-55646600D03*
X179155000Y-56916600D03*
X174205000Y-56916600D03*
X174205000Y-55646600D03*
X174205000Y-54376600D03*
X174205000Y-53106600D03*
X174205000Y-51836600D03*
X174205000Y-50566600D03*
X174205000Y-49296600D03*
X174205000Y-48026600D03*
%TD*%
D11*
%TO.C,RN11*%
X205660000Y-54471600D03*
X205660000Y-53131600D03*
X205660000Y-51811600D03*
X205660000Y-50471600D03*
X208660000Y-50471600D03*
X208660000Y-51811600D03*
X208660000Y-53131600D03*
X208660000Y-54471600D03*
%TD*%
D17*
%TO.C,C2*%
X126134000Y-47658600D03*
X126134000Y-46108600D03*
%TD*%
D20*
%TO.C,C12*%
X87249293Y-29649293D03*
X87249293Y-26699293D03*
%TD*%
D15*
%TO.C,U6*%
X224875000Y-48026600D03*
X224875000Y-49296600D03*
X224875000Y-50566600D03*
X224875000Y-51836600D03*
X224875000Y-53106600D03*
X224875000Y-54376600D03*
X224875000Y-55646600D03*
X224875000Y-56916600D03*
X219925000Y-56916600D03*
X219925000Y-55646600D03*
X219925000Y-54376600D03*
X219925000Y-53106600D03*
X219925000Y-51836600D03*
X219925000Y-50566600D03*
X219925000Y-49296600D03*
X219925000Y-48026600D03*
%TD*%
%TO.C,U5*%
X202015000Y-48026600D03*
X202015000Y-49296600D03*
X202015000Y-50566600D03*
X202015000Y-51836600D03*
X202015000Y-53106600D03*
X202015000Y-54376600D03*
X202015000Y-55646600D03*
X202015000Y-56916600D03*
X197065000Y-56916600D03*
X197065000Y-55646600D03*
X197065000Y-54376600D03*
X197065000Y-53106600D03*
X197065000Y-51836600D03*
X197065000Y-50566600D03*
X197065000Y-49296600D03*
X197065000Y-48026600D03*
%TD*%
D11*
%TO.C,RN12*%
X228520000Y-54471600D03*
X228520000Y-53131600D03*
X228520000Y-51811600D03*
X228520000Y-50471600D03*
X231520000Y-50471600D03*
X231520000Y-51811600D03*
X231520000Y-53131600D03*
X231520000Y-54471600D03*
%TD*%
D17*
%TO.C,C11*%
X78040000Y-28151600D03*
X78040000Y-26601600D03*
%TD*%
D18*
%TO.C,C1*%
X105525000Y-46451600D03*
X103975000Y-46451600D03*
%TD*%
%TO.C,C7*%
X90815600Y-55189400D03*
X89265600Y-55189400D03*
%TD*%
D15*
%TO.C,U9*%
X247735000Y-48026600D03*
X247735000Y-49296600D03*
X247735000Y-50566600D03*
X247735000Y-51836600D03*
X247735000Y-53106600D03*
X247735000Y-54376600D03*
X247735000Y-55646600D03*
X247735000Y-56916600D03*
X242785000Y-56916600D03*
X242785000Y-55646600D03*
X242785000Y-54376600D03*
X242785000Y-53106600D03*
X242785000Y-51836600D03*
X242785000Y-50566600D03*
X242785000Y-49296600D03*
X242785000Y-48026600D03*
%TD*%
D17*
%TO.C,C6*%
X217294600Y-47876800D03*
X217294600Y-46326800D03*
%TD*%
D11*
%TO.C,RN8*%
X137080000Y-54471600D03*
X137080000Y-53131600D03*
X137080000Y-51811600D03*
X137080000Y-50471600D03*
X140080000Y-50471600D03*
X140080000Y-51811600D03*
X140080000Y-53131600D03*
X140080000Y-54471600D03*
%TD*%
%TO.C,RN13*%
X239140000Y-50471600D03*
X239140000Y-51811600D03*
X239140000Y-53131600D03*
X239140000Y-54471600D03*
X236140000Y-54471600D03*
X236140000Y-53131600D03*
X236140000Y-51811600D03*
X236140000Y-50471600D03*
%TD*%
D18*
%TO.C,C8*%
X274445000Y-68812200D03*
X272895000Y-68812200D03*
%TD*%
D16*
%TO.C,R5*%
X248675000Y-23376600D03*
X250325000Y-23376600D03*
%TD*%
D11*
%TO.C,RN9*%
X159940000Y-54471600D03*
X159940000Y-53131600D03*
X159940000Y-51811600D03*
X159940000Y-50471600D03*
X162940000Y-50471600D03*
X162940000Y-51811600D03*
X162940000Y-53131600D03*
X162940000Y-54471600D03*
%TD*%
D21*
%TO.C,C15*%
X89262574Y-56783160D03*
X90812574Y-56783160D03*
%TD*%
D17*
%TO.C,C14*%
X240300000Y-47876800D03*
X240300000Y-46326800D03*
%TD*%
%TO.C,C10*%
X79792600Y-28151600D03*
X79792600Y-26601600D03*
%TD*%
D16*
%TO.C,R7*%
X84575000Y-53076600D03*
X86225000Y-53076600D03*
%TD*%
D11*
%TO.C,RN10*%
X182800000Y-54471600D03*
X182800000Y-53131600D03*
X182800000Y-51811600D03*
X182800000Y-50471600D03*
X185800000Y-50471600D03*
X185800000Y-51811600D03*
X185800000Y-53131600D03*
X185800000Y-54471600D03*
%TD*%
D17*
%TO.C,C4*%
X171320600Y-47876800D03*
X171320600Y-46326800D03*
%TD*%
D15*
%TO.C,U1*%
X110575000Y-48026600D03*
X110575000Y-49296600D03*
X110575000Y-50566600D03*
X110575000Y-51836600D03*
X110575000Y-53106600D03*
X110575000Y-54376600D03*
X110575000Y-55646600D03*
X110575000Y-56916600D03*
X105625000Y-56916600D03*
X105625000Y-55646600D03*
X105625000Y-54376600D03*
X105625000Y-53106600D03*
X105625000Y-51836600D03*
X105625000Y-50566600D03*
X105625000Y-49296600D03*
X105625000Y-48026600D03*
%TD*%
D22*
%TO.C,U10*%
X84862500Y-56526600D03*
X84862500Y-55576600D03*
X84862500Y-54626600D03*
X87137500Y-54626600D03*
X87137500Y-56526600D03*
%TD*%
M02*
