%TF.GenerationSoftware,KiCad,Pcbnew,8.0.4*%
%TF.CreationDate,2025-09-04T17:26:35-05:00*%
%TF.ProjectId,Numpad_stencil,4e756d70-6164-45f7-9374-656e63696c2e,rev?*%
%TF.SameCoordinates,Original*%
%TF.FileFunction,Legend,Top*%
%TF.FilePolarity,Positive*%
%FSLAX46Y46*%
G04 Gerber Fmt 4.6, Leading zero omitted, Abs format (unit mm)*
G04 Created by KiCad (PCBNEW 8.0.4) date 2025-09-04 17:26:35*
%MOMM*%
%LPD*%
G01*
G04 APERTURE LIST*
%ADD10C,0.150000*%
%ADD11C,0.508000*%
%ADD12C,0.120000*%
%ADD13C,0.100000*%
%ADD14C,1.800000*%
%ADD15R,1.350000X1.350000*%
%ADD16O,1.350000X1.350000*%
%ADD17C,1.700000*%
%ADD18C,3.000000*%
%ADD19C,4.000000*%
%ADD20C,4.400000*%
%ADD21C,1.450000*%
%ADD22C,2.150000*%
%ADD23R,1.700000X1.700000*%
%ADD24O,1.700000X1.700000*%
G04 APERTURE END LIST*
D10*
X139958928Y-83674819D02*
X140149404Y-83674819D01*
X140149404Y-83674819D02*
X140244642Y-83722438D01*
X140244642Y-83722438D02*
X140339880Y-83817676D01*
X140339880Y-83817676D02*
X140387499Y-84008152D01*
X140387499Y-84008152D02*
X140387499Y-84341485D01*
X140387499Y-84341485D02*
X140339880Y-84531961D01*
X140339880Y-84531961D02*
X140244642Y-84627200D01*
X140244642Y-84627200D02*
X140149404Y-84674819D01*
X140149404Y-84674819D02*
X139958928Y-84674819D01*
X139958928Y-84674819D02*
X139863690Y-84627200D01*
X139863690Y-84627200D02*
X139768452Y-84531961D01*
X139768452Y-84531961D02*
X139720833Y-84341485D01*
X139720833Y-84341485D02*
X139720833Y-84008152D01*
X139720833Y-84008152D02*
X139768452Y-83817676D01*
X139768452Y-83817676D02*
X139863690Y-83722438D01*
X139863690Y-83722438D02*
X139958928Y-83674819D01*
X141292261Y-84674819D02*
X140816071Y-84674819D01*
X140816071Y-84674819D02*
X140816071Y-83674819D01*
X141625595Y-84151009D02*
X141958928Y-84151009D01*
X142101785Y-84674819D02*
X141625595Y-84674819D01*
X141625595Y-84674819D02*
X141625595Y-83674819D01*
X141625595Y-83674819D02*
X142101785Y-83674819D01*
X142530357Y-84674819D02*
X142530357Y-83674819D01*
X142530357Y-83674819D02*
X142768452Y-83674819D01*
X142768452Y-83674819D02*
X142911309Y-83722438D01*
X142911309Y-83722438D02*
X143006547Y-83817676D01*
X143006547Y-83817676D02*
X143054166Y-83912914D01*
X143054166Y-83912914D02*
X143101785Y-84103390D01*
X143101785Y-84103390D02*
X143101785Y-84246247D01*
X143101785Y-84246247D02*
X143054166Y-84436723D01*
X143054166Y-84436723D02*
X143006547Y-84531961D01*
X143006547Y-84531961D02*
X142911309Y-84627200D01*
X142911309Y-84627200D02*
X142768452Y-84674819D01*
X142768452Y-84674819D02*
X142530357Y-84674819D01*
X144054166Y-84674819D02*
X143482738Y-84674819D01*
X143768452Y-84674819D02*
X143768452Y-83674819D01*
X143768452Y-83674819D02*
X143673214Y-83817676D01*
X143673214Y-83817676D02*
X143577976Y-83912914D01*
X143577976Y-83912914D02*
X143482738Y-83960533D01*
D11*
%TO.C,J7*%
X172142000Y-78379200D02*
G75*
G02*
X171380000Y-78379200I-381000J0D01*
G01*
X171380000Y-78379200D02*
G75*
G02*
X172142000Y-78379200I381000J0D01*
G01*
D12*
%TO.C,OLED1*%
X133957500Y-83420000D02*
X133957500Y-98720000D01*
X133957500Y-83420000D02*
X136617500Y-83420000D01*
X133957500Y-98720000D02*
X136617500Y-98720000D01*
X135287500Y-80820000D02*
X136617500Y-80820000D01*
X136617500Y-80820000D02*
X136617500Y-82150000D01*
X136617500Y-83420000D02*
X136617500Y-98720000D01*
D13*
X129587500Y-80095000D02*
X205087500Y-80095000D01*
X205087500Y-99445000D01*
X129587500Y-99445000D01*
X129587500Y-80095000D01*
%TD*%
%LPC*%
D14*
%TO.C,J1*%
X129525000Y-116450000D03*
X129525000Y-118950000D03*
X129525000Y-121450000D03*
X129525000Y-123950000D03*
%TD*%
D15*
%TO.C,J5*%
X199312500Y-78421000D03*
D16*
X197312500Y-78421000D03*
%TD*%
D17*
%TO.C,S16*%
X190382500Y-112532500D03*
D18*
X191652500Y-109992500D03*
D19*
X195462500Y-112532500D03*
D18*
X198002500Y-107452500D03*
D17*
X200542500Y-112532500D03*
%TD*%
%TO.C,S14*%
X181492500Y-112532500D03*
D18*
X180222500Y-115072500D03*
D19*
X176412500Y-112532500D03*
D18*
X173872500Y-117612500D03*
D17*
X171332500Y-112532500D03*
%TD*%
D20*
%TO.C,H1*%
X151762500Y-77520000D03*
%TD*%
D15*
%TO.C,J6*%
X173062500Y-92170000D03*
D16*
X171062500Y-92170000D03*
%TD*%
D21*
%TO.C,SW1*%
X153706500Y-68657500D03*
X149706500Y-68657500D03*
X147706500Y-68657500D03*
X145706500Y-68657500D03*
D22*
X156006500Y-68657500D03*
X143406500Y-68657500D03*
%TD*%
D17*
%TO.C,S1*%
X143392500Y-112532500D03*
D18*
X142122500Y-115072500D03*
D19*
X138312500Y-112532500D03*
D18*
X135772500Y-117612500D03*
D17*
X133232500Y-112532500D03*
%TD*%
D23*
%TO.C,OLED1*%
X135287500Y-82150000D03*
D24*
X135287500Y-84690000D03*
X135287500Y-87230000D03*
X135287500Y-89770000D03*
X135287500Y-92310000D03*
X135287500Y-94850000D03*
X135287500Y-97390000D03*
%TD*%
D14*
%TO.C,J3*%
X204250000Y-116450000D03*
X204250000Y-118950000D03*
X204250000Y-121450000D03*
X204250000Y-123950000D03*
%TD*%
D17*
%TO.C,S8*%
X162442500Y-112532500D03*
D18*
X161172500Y-115072500D03*
D19*
X157362500Y-112532500D03*
D18*
X154822500Y-117612500D03*
D17*
X152282500Y-112532500D03*
%TD*%
D20*
%TO.C,H5*%
X203368750Y-74720000D03*
%TD*%
%LPD*%
M02*
