%TF.GenerationSoftware,KiCad,Pcbnew,8.0.4*%
%TF.CreationDate,2025-09-04T17:26:35-05:00*%
%TF.ProjectId,Numpad_stencil,4e756d70-6164-45f7-9374-656e63696c2e,rev?*%
%TF.SameCoordinates,Original*%
%TF.FileFunction,Legend,Bot*%
%TF.FilePolarity,Positive*%
%FSLAX46Y46*%
G04 Gerber Fmt 4.6, Leading zero omitted, Abs format (unit mm)*
G04 Created by KiCad (PCBNEW 8.0.4) date 2025-09-04 17:26:35*
%MOMM*%
%LPD*%
G01*
G04 APERTURE LIST*
G04 Aperture macros list*
%AMRoundRect*
0 Rectangle with rounded corners*
0 $1 Rounding radius*
0 $2 $3 $4 $5 $6 $7 $8 $9 X,Y pos of 4 corners*
0 Add a 4 corners polygon primitive as box body*
4,1,4,$2,$3,$4,$5,$6,$7,$8,$9,$2,$3,0*
0 Add four circle primitives for the rounded corners*
1,1,$1+$1,$2,$3*
1,1,$1+$1,$4,$5*
1,1,$1+$1,$6,$7*
1,1,$1+$1,$8,$9*
0 Add four rect primitives between the rounded corners*
20,1,$1+$1,$2,$3,$4,$5,0*
20,1,$1+$1,$4,$5,$6,$7,0*
20,1,$1+$1,$6,$7,$8,$9,0*
20,1,$1+$1,$8,$9,$2,$3,0*%
%AMRotRect*
0 Rectangle, with rotation*
0 The origin of the aperture is its center*
0 $1 length*
0 $2 width*
0 $3 Rotation angle, in degrees counterclockwise*
0 Add horizontal line*
21,1,$1,$2,0,0,$3*%
G04 Aperture macros list end*
%ADD10C,0.150000*%
%ADD11C,0.100000*%
%ADD12C,0.120000*%
%ADD13C,0.152400*%
%ADD14C,0.508000*%
%ADD15C,0.127000*%
%ADD16C,0.200000*%
%ADD17RoundRect,0.225000X-0.250000X0.225000X-0.250000X-0.225000X0.250000X-0.225000X0.250000X0.225000X0*%
%ADD18RoundRect,0.200000X0.275000X-0.200000X0.275000X0.200000X-0.275000X0.200000X-0.275000X-0.200000X0*%
%ADD19RoundRect,0.225000X0.017678X-0.335876X0.335876X-0.017678X-0.017678X0.335876X-0.335876X0.017678X0*%
%ADD20C,1.800000*%
%ADD21RoundRect,0.200000X0.053033X-0.335876X0.335876X-0.053033X-0.053033X0.335876X-0.335876X0.053033X0*%
%ADD22RoundRect,0.225000X0.225000X0.250000X-0.225000X0.250000X-0.225000X-0.250000X0.225000X-0.250000X0*%
%ADD23RoundRect,0.218750X0.256250X-0.218750X0.256250X0.218750X-0.256250X0.218750X-0.256250X-0.218750X0*%
%ADD24RoundRect,0.200000X-0.200000X-0.275000X0.200000X-0.275000X0.200000X0.275000X-0.200000X0.275000X0*%
%ADD25RoundRect,0.225000X-0.225000X-0.250000X0.225000X-0.250000X0.225000X0.250000X-0.225000X0.250000X0*%
%ADD26R,0.900000X0.900000*%
%ADD27RoundRect,0.225000X0.250000X-0.225000X0.250000X0.225000X-0.250000X0.225000X-0.250000X-0.225000X0*%
%ADD28RoundRect,0.250000X0.650000X-0.325000X0.650000X0.325000X-0.650000X0.325000X-0.650000X-0.325000X0*%
%ADD29R,1.549400X0.660400*%
%ADD30R,1.905000X1.295400*%
%ADD31RoundRect,0.200000X0.200000X0.275000X-0.200000X0.275000X-0.200000X-0.275000X0.200000X-0.275000X0*%
%ADD32RoundRect,0.150000X-0.650000X-0.150000X0.650000X-0.150000X0.650000X0.150000X-0.650000X0.150000X0*%
%ADD33RoundRect,0.200000X-0.275000X0.200000X-0.275000X-0.200000X0.275000X-0.200000X0.275000X0.200000X0*%
%ADD34RoundRect,0.100500X-0.986500X-0.301500X0.986500X-0.301500X0.986500X0.301500X-0.986500X0.301500X0*%
%ADD35RoundRect,0.050000X0.387500X0.050000X-0.387500X0.050000X-0.387500X-0.050000X0.387500X-0.050000X0*%
%ADD36RoundRect,0.050000X0.050000X0.387500X-0.050000X0.387500X-0.050000X-0.387500X0.050000X-0.387500X0*%
%ADD37R,3.200000X3.200000*%
%ADD38RotRect,1.400000X1.200000X225.000000*%
%ADD39RoundRect,0.225000X0.335876X0.017678X0.017678X0.335876X-0.335876X-0.017678X-0.017678X-0.335876X0*%
%ADD40RoundRect,0.375000X0.375000X-0.625000X0.375000X0.625000X-0.375000X0.625000X-0.375000X-0.625000X0*%
%ADD41RoundRect,0.500000X1.400000X-0.500000X1.400000X0.500000X-1.400000X0.500000X-1.400000X-0.500000X0*%
%ADD42R,1.524000X0.533400*%
%ADD43R,1.350000X1.350000*%
%ADD44O,1.350000X1.350000*%
%ADD45C,1.700000*%
%ADD46C,3.000000*%
%ADD47C,4.000000*%
%ADD48R,2.550000X2.500000*%
%ADD49C,4.400000*%
%ADD50C,1.450000*%
%ADD51C,2.150000*%
%ADD52R,1.700000X1.700000*%
%ADD53O,1.700000X1.700000*%
G04 APERTURE END LIST*
D10*
X202597319Y-90053333D02*
X202121128Y-89720000D01*
X202597319Y-89481905D02*
X201597319Y-89481905D01*
X201597319Y-89481905D02*
X201597319Y-89862857D01*
X201597319Y-89862857D02*
X201644938Y-89958095D01*
X201644938Y-89958095D02*
X201692557Y-90005714D01*
X201692557Y-90005714D02*
X201787795Y-90053333D01*
X201787795Y-90053333D02*
X201930652Y-90053333D01*
X201930652Y-90053333D02*
X202025890Y-90005714D01*
X202025890Y-90005714D02*
X202073509Y-89958095D01*
X202073509Y-89958095D02*
X202121128Y-89862857D01*
X202121128Y-89862857D02*
X202121128Y-89481905D01*
X202597319Y-91005714D02*
X202597319Y-90434286D01*
X202597319Y-90720000D02*
X201597319Y-90720000D01*
X201597319Y-90720000D02*
X201740176Y-90624762D01*
X201740176Y-90624762D02*
X201835414Y-90529524D01*
X201835414Y-90529524D02*
X201883033Y-90434286D01*
D11*
X131332419Y-119866666D02*
X132046704Y-119866666D01*
X132046704Y-119866666D02*
X132189561Y-119819047D01*
X132189561Y-119819047D02*
X132284800Y-119723809D01*
X132284800Y-119723809D02*
X132332419Y-119580952D01*
X132332419Y-119580952D02*
X132332419Y-119485714D01*
X132332419Y-120866666D02*
X132332419Y-120295238D01*
X132332419Y-120580952D02*
X131332419Y-120580952D01*
X131332419Y-120580952D02*
X131475276Y-120485714D01*
X131475276Y-120485714D02*
X131570514Y-120390476D01*
X131570514Y-120390476D02*
X131618133Y-120295238D01*
D10*
X184413119Y-93434917D02*
X184312104Y-92862498D01*
X184817180Y-93030856D02*
X184110073Y-92323750D01*
X184110073Y-92323750D02*
X183840699Y-92593124D01*
X183840699Y-92593124D02*
X183807027Y-92694139D01*
X183807027Y-92694139D02*
X183807027Y-92761482D01*
X183807027Y-92761482D02*
X183840699Y-92862498D01*
X183840699Y-92862498D02*
X183941714Y-92963513D01*
X183941714Y-92963513D02*
X184042730Y-92997185D01*
X184042730Y-92997185D02*
X184110073Y-92997185D01*
X184110073Y-92997185D02*
X184211088Y-92963513D01*
X184211088Y-92963513D02*
X184480462Y-92694139D01*
X183470310Y-92963513D02*
X183032577Y-93401246D01*
X183032577Y-93401246D02*
X183537653Y-93434917D01*
X183537653Y-93434917D02*
X183436638Y-93535933D01*
X183436638Y-93535933D02*
X183402966Y-93636948D01*
X183402966Y-93636948D02*
X183402966Y-93704291D01*
X183402966Y-93704291D02*
X183436638Y-93805307D01*
X183436638Y-93805307D02*
X183604997Y-93973665D01*
X183604997Y-93973665D02*
X183706012Y-94007337D01*
X183706012Y-94007337D02*
X183773356Y-94007337D01*
X183773356Y-94007337D02*
X183874371Y-93973665D01*
X183874371Y-93973665D02*
X184076401Y-93771635D01*
X184076401Y-93771635D02*
X184110073Y-93670620D01*
X184110073Y-93670620D02*
X184110073Y-93603276D01*
X137705357Y-109804819D02*
X138038690Y-109328628D01*
X138276785Y-109804819D02*
X138276785Y-108804819D01*
X138276785Y-108804819D02*
X137895833Y-108804819D01*
X137895833Y-108804819D02*
X137800595Y-108852438D01*
X137800595Y-108852438D02*
X137752976Y-108900057D01*
X137752976Y-108900057D02*
X137705357Y-108995295D01*
X137705357Y-108995295D02*
X137705357Y-109138152D01*
X137705357Y-109138152D02*
X137752976Y-109233390D01*
X137752976Y-109233390D02*
X137800595Y-109281009D01*
X137800595Y-109281009D02*
X137895833Y-109328628D01*
X137895833Y-109328628D02*
X138276785Y-109328628D01*
X136752976Y-109804819D02*
X137324404Y-109804819D01*
X137038690Y-109804819D02*
X137038690Y-108804819D01*
X137038690Y-108804819D02*
X137133928Y-108947676D01*
X137133928Y-108947676D02*
X137229166Y-109042914D01*
X137229166Y-109042914D02*
X137324404Y-109090533D01*
X136133928Y-108804819D02*
X136038690Y-108804819D01*
X136038690Y-108804819D02*
X135943452Y-108852438D01*
X135943452Y-108852438D02*
X135895833Y-108900057D01*
X135895833Y-108900057D02*
X135848214Y-108995295D01*
X135848214Y-108995295D02*
X135800595Y-109185771D01*
X135800595Y-109185771D02*
X135800595Y-109423866D01*
X135800595Y-109423866D02*
X135848214Y-109614342D01*
X135848214Y-109614342D02*
X135895833Y-109709580D01*
X135895833Y-109709580D02*
X135943452Y-109757200D01*
X135943452Y-109757200D02*
X136038690Y-109804819D01*
X136038690Y-109804819D02*
X136133928Y-109804819D01*
X136133928Y-109804819D02*
X136229166Y-109757200D01*
X136229166Y-109757200D02*
X136276785Y-109709580D01*
X136276785Y-109709580D02*
X136324404Y-109614342D01*
X136324404Y-109614342D02*
X136372023Y-109423866D01*
X136372023Y-109423866D02*
X136372023Y-109185771D01*
X136372023Y-109185771D02*
X136324404Y-108995295D01*
X136324404Y-108995295D02*
X136276785Y-108900057D01*
X136276785Y-108900057D02*
X136229166Y-108852438D01*
X136229166Y-108852438D02*
X136133928Y-108804819D01*
X169517319Y-74136666D02*
X170231604Y-74136666D01*
X170231604Y-74136666D02*
X170374461Y-74089047D01*
X170374461Y-74089047D02*
X170469700Y-73993809D01*
X170469700Y-73993809D02*
X170517319Y-73850952D01*
X170517319Y-73850952D02*
X170517319Y-73755714D01*
X169517319Y-74517619D02*
X169517319Y-75184285D01*
X169517319Y-75184285D02*
X170517319Y-74755714D01*
X200087319Y-90053333D02*
X199611128Y-89720000D01*
X200087319Y-89481905D02*
X199087319Y-89481905D01*
X199087319Y-89481905D02*
X199087319Y-89862857D01*
X199087319Y-89862857D02*
X199134938Y-89958095D01*
X199134938Y-89958095D02*
X199182557Y-90005714D01*
X199182557Y-90005714D02*
X199277795Y-90053333D01*
X199277795Y-90053333D02*
X199420652Y-90053333D01*
X199420652Y-90053333D02*
X199515890Y-90005714D01*
X199515890Y-90005714D02*
X199563509Y-89958095D01*
X199563509Y-89958095D02*
X199611128Y-89862857D01*
X199611128Y-89862857D02*
X199611128Y-89481905D01*
X199182557Y-90434286D02*
X199134938Y-90481905D01*
X199134938Y-90481905D02*
X199087319Y-90577143D01*
X199087319Y-90577143D02*
X199087319Y-90815238D01*
X199087319Y-90815238D02*
X199134938Y-90910476D01*
X199134938Y-90910476D02*
X199182557Y-90958095D01*
X199182557Y-90958095D02*
X199277795Y-91005714D01*
X199277795Y-91005714D02*
X199373033Y-91005714D01*
X199373033Y-91005714D02*
X199515890Y-90958095D01*
X199515890Y-90958095D02*
X200087319Y-90386667D01*
X200087319Y-90386667D02*
X200087319Y-91005714D01*
X193937499Y-71414819D02*
X193937499Y-71652914D01*
X194175594Y-71557676D02*
X193937499Y-71652914D01*
X193937499Y-71652914D02*
X193699404Y-71557676D01*
X194080356Y-71843390D02*
X193937499Y-71652914D01*
X193937499Y-71652914D02*
X193794642Y-71843390D01*
D12*
%TO.C,C17*%
X186602500Y-88360580D02*
X186602500Y-88079420D01*
X187622500Y-88360580D02*
X187622500Y-88079420D01*
%TO.C,R1*%
X200190000Y-89982742D02*
X200190000Y-90457258D01*
X201235000Y-89982742D02*
X201235000Y-90457258D01*
%TO.C,C10*%
X186951281Y-95259970D02*
X186752470Y-95458781D01*
X187672530Y-95981219D02*
X187473719Y-96180030D01*
%TO.C,R3*%
X182760803Y-91682770D02*
X182425270Y-92018303D01*
X183499730Y-92421697D02*
X183164197Y-92757230D01*
%TO.C,C9*%
X131871920Y-83610000D02*
X132153080Y-83610000D01*
X131871920Y-84630000D02*
X132153080Y-84630000D01*
%TO.C,D1*%
X130877500Y-89945000D02*
X130877500Y-92230000D01*
X130877500Y-92230000D02*
X132347500Y-92230000D01*
X132347500Y-92230000D02*
X132347500Y-89945000D01*
%TO.C,R14*%
X194649758Y-129397500D02*
X194175242Y-129397500D01*
X194649758Y-130442500D02*
X194175242Y-130442500D01*
%TO.C,C16*%
X174671920Y-79310000D02*
X174953080Y-79310000D01*
X174671920Y-80330000D02*
X174953080Y-80330000D01*
%TO.C,C25*%
X194553080Y-130910000D02*
X194271920Y-130910000D01*
X194553080Y-131930000D02*
X194271920Y-131930000D01*
%TO.C,RN6*%
X187862500Y-99550000D02*
X189962500Y-99550000D01*
X187862500Y-104890000D02*
X189962500Y-104890000D01*
%TO.C,C4*%
X157952500Y-98379420D02*
X157952500Y-98660580D01*
X158972500Y-98379420D02*
X158972500Y-98660580D01*
%TO.C,R10*%
X137299758Y-107397500D02*
X136825242Y-107397500D01*
X137299758Y-108442500D02*
X136825242Y-108442500D01*
%TO.C,C12*%
X182102500Y-77279420D02*
X182102500Y-77560580D01*
X183122500Y-77279420D02*
X183122500Y-77560580D01*
%TO.C,C28*%
X190602500Y-128760580D02*
X190602500Y-128479420D01*
X191622500Y-128760580D02*
X191622500Y-128479420D01*
%TO.C,C3*%
X141553080Y-97610000D02*
X141271920Y-97610000D01*
X141553080Y-98630000D02*
X141271920Y-98630000D01*
%TO.C,C6*%
X142302500Y-77108748D02*
X142302500Y-78531252D01*
X144122500Y-77108748D02*
X144122500Y-78531252D01*
D13*
%TO.C,J7*%
X167059000Y-72800441D02*
X167059000Y-76439559D01*
X169171239Y-77744200D02*
X172266000Y-77744200D01*
X172266000Y-71495800D02*
X169171239Y-71495800D01*
X172266000Y-72457060D02*
X172266000Y-71495800D01*
X172266000Y-77744200D02*
X172266000Y-76782940D01*
D14*
X172142000Y-78379200D02*
G75*
G02*
X171380000Y-78379200I-381000J0D01*
G01*
X171380000Y-78379200D02*
G75*
G02*
X172142000Y-78379200I381000J0D01*
G01*
D12*
%TO.C,R11*%
X197675242Y-75597500D02*
X198149758Y-75597500D01*
X197675242Y-76642500D02*
X198149758Y-76642500D01*
%TO.C,C15*%
X176702500Y-79079420D02*
X176702500Y-79360580D01*
X177722500Y-79079420D02*
X177722500Y-79360580D01*
%TO.C,U10*%
X193937500Y-123660000D02*
X194712500Y-123660000D01*
X193937500Y-126780000D02*
X194712500Y-126780000D01*
X195487500Y-123660000D02*
X194712500Y-123660000D01*
X195487500Y-126780000D02*
X194712500Y-126780000D01*
X193590000Y-127060000D02*
X193110000Y-127060000D01*
X193350000Y-126730000D01*
X193590000Y-127060000D01*
G36*
X193590000Y-127060000D02*
G01*
X193110000Y-127060000D01*
X193350000Y-126730000D01*
X193590000Y-127060000D01*
G37*
%TO.C,R8*%
X175949758Y-73347500D02*
X175475242Y-73347500D01*
X175949758Y-74392500D02*
X175475242Y-74392500D01*
%TO.C,U9*%
X189237500Y-123660000D02*
X190012500Y-123660000D01*
X189237500Y-126780000D02*
X190012500Y-126780000D01*
X190787500Y-123660000D02*
X190012500Y-123660000D01*
X190787500Y-126780000D02*
X190012500Y-126780000D01*
X188890000Y-127060000D02*
X188410000Y-127060000D01*
X188650000Y-126730000D01*
X188890000Y-127060000D01*
G36*
X188890000Y-127060000D02*
G01*
X188410000Y-127060000D01*
X188650000Y-126730000D01*
X188890000Y-127060000D01*
G37*
%TO.C,R5*%
X131090000Y-87857258D02*
X131090000Y-87382742D01*
X132135000Y-87857258D02*
X132135000Y-87382742D01*
%TO.C,RN4*%
X169837500Y-101550000D02*
X171937500Y-101550000D01*
X169837500Y-106890000D02*
X171937500Y-106890000D01*
D15*
%TO.C,U4*%
X184162500Y-99055000D02*
X180262500Y-99055000D01*
X184162500Y-109185000D02*
X180262500Y-109185000D01*
D16*
X178167500Y-109065000D02*
G75*
G02*
X177967500Y-109065000I-100000J0D01*
G01*
X177967500Y-109065000D02*
G75*
G02*
X178167500Y-109065000I100000J0D01*
G01*
D12*
%TO.C,U6*%
X177002500Y-81510000D02*
X177652500Y-81510000D01*
X177002500Y-82160000D02*
X177002500Y-81510000D01*
X177002500Y-88080000D02*
X177002500Y-88730000D01*
X177002500Y-88730000D02*
X177652500Y-88730000D01*
X183922500Y-81510000D02*
X183572500Y-81510000D01*
X184222500Y-81750000D02*
X184222500Y-82160000D01*
X184222500Y-88080000D02*
X184222500Y-88730000D01*
X184222500Y-88730000D02*
X183572500Y-88730000D01*
X184222500Y-81510000D02*
X183982500Y-81180000D01*
X184462500Y-81180000D01*
X184222500Y-81510000D01*
G36*
X184222500Y-81510000D02*
G01*
X183982500Y-81180000D01*
X184462500Y-81180000D01*
X184222500Y-81510000D01*
G37*
%TO.C,C20*%
X174671920Y-82410000D02*
X174953080Y-82410000D01*
X174671920Y-83430000D02*
X174953080Y-83430000D01*
%TO.C,R2*%
X197680000Y-89982742D02*
X197680000Y-90457258D01*
X198725000Y-89982742D02*
X198725000Y-90457258D01*
%TO.C,C13*%
X174646920Y-77810000D02*
X174928080Y-77810000D01*
X174646920Y-78830000D02*
X174928080Y-78830000D01*
%TO.C,X1*%
X185065013Y-96100940D02*
X187893440Y-93272513D01*
X187893440Y-93272513D02*
X185559987Y-90939060D01*
%TO.C,C11*%
X182752470Y-95781219D02*
X182951281Y-95980030D01*
X183473719Y-95059970D02*
X183672530Y-95258781D01*
%TO.C,R6*%
X199590000Y-129457258D02*
X199590000Y-128982742D01*
X200635000Y-129457258D02*
X200635000Y-128982742D01*
%TO.C,U1*%
X134802500Y-74210000D02*
X134802500Y-77970000D01*
X136062500Y-74210000D02*
X134802500Y-74210000D01*
X140362500Y-74210000D02*
X141622500Y-74210000D01*
X141622500Y-74210000D02*
X141622500Y-77970000D01*
X141852500Y-79490000D02*
X141522500Y-79250000D01*
X141852500Y-79010000D01*
X141852500Y-79490000D01*
G36*
X141852500Y-79490000D02*
G01*
X141522500Y-79250000D01*
X141852500Y-79010000D01*
X141852500Y-79490000D01*
G37*
%TO.C,R9*%
X175949758Y-74847500D02*
X175475242Y-74847500D01*
X175949758Y-75892500D02*
X175475242Y-75892500D01*
%TO.C,C18*%
X180602500Y-77279420D02*
X180602500Y-77560580D01*
X181622500Y-77279420D02*
X181622500Y-77560580D01*
%TO.C,RN5*%
X176762500Y-101550000D02*
X174662500Y-101550000D01*
X176762500Y-106890000D02*
X174662500Y-106890000D01*
%TO.C,C14*%
X177802500Y-91660580D02*
X177802500Y-91379420D01*
X178822500Y-91660580D02*
X178822500Y-91379420D01*
D15*
%TO.C,U3*%
X165217500Y-99155000D02*
X161317500Y-99155000D01*
X165217500Y-109285000D02*
X161317500Y-109285000D01*
D16*
X159222500Y-109165000D02*
G75*
G02*
X159022500Y-109165000I-100000J0D01*
G01*
X159022500Y-109165000D02*
G75*
G02*
X159222500Y-109165000I100000J0D01*
G01*
D12*
%TO.C,R12*%
X144675242Y-70197500D02*
X145149758Y-70197500D01*
X144675242Y-71242500D02*
X145149758Y-71242500D01*
%TO.C,C7*%
X132302500Y-77108748D02*
X132302500Y-78531252D01*
X134122500Y-77108748D02*
X134122500Y-78531252D01*
D13*
%TO.C,U7*%
X187318500Y-72726000D02*
X187318500Y-73027656D01*
X187318500Y-78012344D02*
X187318500Y-78314000D01*
X187318500Y-78314000D02*
X192906500Y-78314000D01*
X192906500Y-72726000D02*
X187318500Y-72726000D01*
X192906500Y-73027656D02*
X192906500Y-72726000D01*
X192906500Y-78314000D02*
X192906500Y-78012344D01*
D12*
%TO.C,RN1*%
X137947500Y-101550000D02*
X135847500Y-101550000D01*
X137947500Y-106890000D02*
X135847500Y-106890000D01*
%TO.C,J5*%
X196252500Y-77361000D02*
X196252500Y-79481000D01*
X196252500Y-77361000D02*
X198312500Y-77361000D01*
X196252500Y-79481000D02*
X198312500Y-79481000D01*
X198312500Y-77361000D02*
X198312500Y-79481000D01*
X199312500Y-77361000D02*
X200372500Y-77361000D01*
X200372500Y-77361000D02*
X200372500Y-78421000D01*
%TO.C,C21*%
X174671920Y-85210000D02*
X174953080Y-85210000D01*
X174671920Y-86230000D02*
X174953080Y-86230000D01*
%TO.C,C2*%
X177002500Y-98579420D02*
X177002500Y-98860580D01*
X178022500Y-98579420D02*
X178022500Y-98860580D01*
%TO.C,C23*%
X174671920Y-80910000D02*
X174953080Y-80910000D01*
X174671920Y-81930000D02*
X174953080Y-81930000D01*
%TO.C,C24*%
X183902500Y-74635580D02*
X183902500Y-74354420D01*
X184922500Y-74635580D02*
X184922500Y-74354420D01*
D15*
%TO.C,U2*%
X145562500Y-99155000D02*
X141662500Y-99155000D01*
X145562500Y-109285000D02*
X141662500Y-109285000D01*
D16*
X139567500Y-109165000D02*
G75*
G02*
X139367500Y-109165000I-100000J0D01*
G01*
X139367500Y-109165000D02*
G75*
G02*
X139567500Y-109165000I100000J0D01*
G01*
D12*
%TO.C,U5*%
X198737500Y-123660000D02*
X199512500Y-123660000D01*
X198737500Y-126780000D02*
X199512500Y-126780000D01*
X200287500Y-123660000D02*
X199512500Y-123660000D01*
X200287500Y-126780000D02*
X199512500Y-126780000D01*
X198390000Y-127060000D02*
X197910000Y-127060000D01*
X198150000Y-126730000D01*
X198390000Y-127060000D01*
G36*
X198390000Y-127060000D02*
G01*
X197910000Y-127060000D01*
X198150000Y-126730000D01*
X198390000Y-127060000D01*
G37*
%TO.C,RN2*%
X148857500Y-101450000D02*
X150957500Y-101450000D01*
X148857500Y-106790000D02*
X150957500Y-106790000D01*
%TO.C,R13*%
X148849758Y-70197500D02*
X148375242Y-70197500D01*
X148849758Y-71242500D02*
X148375242Y-71242500D01*
%TO.C,R7*%
X176290000Y-91757258D02*
X176290000Y-91282742D01*
X177335000Y-91757258D02*
X177335000Y-91282742D01*
%TO.C,C19*%
X186753080Y-82010000D02*
X186471920Y-82010000D01*
X186753080Y-83030000D02*
X186471920Y-83030000D01*
%TO.C,J6*%
X170002500Y-91110000D02*
X170002500Y-93230000D01*
X170002500Y-91110000D02*
X172062500Y-91110000D01*
X170002500Y-93230000D02*
X172062500Y-93230000D01*
X172062500Y-91110000D02*
X172062500Y-93230000D01*
X173062500Y-91110000D02*
X174122500Y-91110000D01*
X174122500Y-91110000D02*
X174122500Y-92170000D01*
%TO.C,C26*%
X197653080Y-127810000D02*
X197371920Y-127810000D01*
X197653080Y-128830000D02*
X197371920Y-128830000D01*
%TO.C,C29*%
X203440780Y-125683320D02*
X203159620Y-125683320D01*
X203440780Y-126703320D02*
X203159620Y-126703320D01*
%TO.C,C22*%
X179302500Y-91660580D02*
X179302500Y-91379420D01*
X180322500Y-91660580D02*
X180322500Y-91379420D01*
%TO.C,RN3*%
X156697500Y-101550000D02*
X154597500Y-101550000D01*
X156697500Y-106890000D02*
X154597500Y-106890000D01*
%TD*%
%LPC*%
D17*
%TO.C,C17*%
X187112500Y-87445000D03*
X187112500Y-88995000D03*
%TD*%
D18*
%TO.C,R1*%
X200712500Y-91045000D03*
X200712500Y-89395000D03*
%TD*%
D19*
%TO.C,C10*%
X186664492Y-96268008D03*
X187760508Y-95171992D03*
%TD*%
D20*
%TO.C,J1*%
X129525000Y-116450000D03*
X129525000Y-118950000D03*
X129525000Y-121450000D03*
X129525000Y-123950000D03*
%TD*%
D21*
%TO.C,R3*%
X182379137Y-92803363D03*
X183545863Y-91636637D03*
%TD*%
D22*
%TO.C,C9*%
X132787500Y-84120000D03*
X131237500Y-84120000D03*
%TD*%
D23*
%TO.C,D1*%
X131612500Y-91532500D03*
X131612500Y-89957500D03*
%TD*%
D24*
%TO.C,R14*%
X193587500Y-129920000D03*
X195237500Y-129920000D03*
%TD*%
D22*
%TO.C,C16*%
X175587500Y-79820000D03*
X174037500Y-79820000D03*
%TD*%
D25*
%TO.C,C25*%
X193637500Y-131420000D03*
X195187500Y-131420000D03*
%TD*%
D26*
%TO.C,RN6*%
X187412500Y-104220000D03*
X187412500Y-102880000D03*
X187412500Y-101560000D03*
X187412500Y-100220000D03*
X190412500Y-100220000D03*
X190412500Y-101560000D03*
X190412500Y-102880000D03*
X190412500Y-104220000D03*
%TD*%
D27*
%TO.C,C4*%
X158462500Y-99295000D03*
X158462500Y-97745000D03*
%TD*%
D24*
%TO.C,R10*%
X136237500Y-107920000D03*
X137887500Y-107920000D03*
%TD*%
D27*
%TO.C,C12*%
X182612500Y-78195000D03*
X182612500Y-76645000D03*
%TD*%
D17*
%TO.C,C28*%
X191112500Y-127845000D03*
X191112500Y-129395000D03*
%TD*%
D25*
%TO.C,C3*%
X140637500Y-98120000D03*
X142187500Y-98120000D03*
%TD*%
D28*
%TO.C,C6*%
X143212500Y-79295000D03*
X143212500Y-76345000D03*
%TD*%
D29*
%TO.C,J7*%
X171761000Y-76120000D03*
X171761000Y-75119999D03*
X171761000Y-74120001D03*
X171761000Y-73120000D03*
D30*
X167885999Y-71820001D03*
X167885999Y-77419999D03*
%TD*%
D31*
%TO.C,R11*%
X198737500Y-76120000D03*
X197087500Y-76120000D03*
%TD*%
D27*
%TO.C,C15*%
X177212500Y-79995000D03*
X177212500Y-78445000D03*
%TD*%
D32*
%TO.C,U10*%
X193562500Y-126170000D03*
X193562500Y-125220000D03*
X193562500Y-124270000D03*
X195862500Y-124270000D03*
X195862500Y-125220000D03*
X195862500Y-126170000D03*
%TD*%
D24*
%TO.C,R8*%
X174887500Y-73870000D03*
X176537500Y-73870000D03*
%TD*%
D32*
%TO.C,U9*%
X188862500Y-126170000D03*
X188862500Y-125220000D03*
X188862500Y-124270000D03*
X191162500Y-124270000D03*
X191162500Y-125220000D03*
X191162500Y-126170000D03*
%TD*%
D33*
%TO.C,R5*%
X131612500Y-86795000D03*
X131612500Y-88445000D03*
%TD*%
D26*
%TO.C,RN4*%
X169387500Y-106220000D03*
X169387500Y-104880000D03*
X169387500Y-103560000D03*
X169387500Y-102220000D03*
X172387500Y-102220000D03*
X172387500Y-103560000D03*
X172387500Y-104880000D03*
X172387500Y-106220000D03*
%TD*%
D34*
%TO.C,U4*%
X184382500Y-99675000D03*
X184382500Y-100945000D03*
X184382500Y-102215000D03*
X184382500Y-103485000D03*
X184382500Y-104755000D03*
X184382500Y-106025000D03*
X184382500Y-107295000D03*
X184382500Y-108565000D03*
X179432500Y-108565000D03*
X179432500Y-107295000D03*
X179432500Y-106025000D03*
X179432500Y-104755000D03*
X179432500Y-103485000D03*
X179432500Y-102215000D03*
X179432500Y-100945000D03*
X179432500Y-99675000D03*
%TD*%
D35*
%TO.C,U6*%
X184050000Y-82520000D03*
X184050000Y-82920000D03*
X184050000Y-83320000D03*
X184050000Y-83720000D03*
X184050000Y-84120000D03*
X184050000Y-84520000D03*
X184050000Y-84920000D03*
X184050000Y-85320000D03*
X184050000Y-85720000D03*
X184050000Y-86120000D03*
X184050000Y-86520000D03*
X184050000Y-86920000D03*
X184050000Y-87320000D03*
X184050000Y-87720000D03*
D36*
X183212500Y-88557500D03*
X182812500Y-88557500D03*
X182412500Y-88557500D03*
X182012500Y-88557500D03*
X181612500Y-88557500D03*
X181212500Y-88557500D03*
X180812500Y-88557500D03*
X180412500Y-88557500D03*
X180012500Y-88557500D03*
X179612500Y-88557500D03*
X179212500Y-88557500D03*
X178812500Y-88557500D03*
X178412500Y-88557500D03*
X178012500Y-88557500D03*
D35*
X177175000Y-87720000D03*
X177175000Y-87320000D03*
X177175000Y-86920000D03*
X177175000Y-86520000D03*
X177175000Y-86120000D03*
X177175000Y-85720000D03*
X177175000Y-85320000D03*
X177175000Y-84920000D03*
X177175000Y-84520000D03*
X177175000Y-84120000D03*
X177175000Y-83720000D03*
X177175000Y-83320000D03*
X177175000Y-82920000D03*
X177175000Y-82520000D03*
D36*
X178012500Y-81682500D03*
X178412500Y-81682500D03*
X178812500Y-81682500D03*
X179212500Y-81682500D03*
X179612500Y-81682500D03*
X180012500Y-81682500D03*
X180412500Y-81682500D03*
X180812500Y-81682500D03*
X181212500Y-81682500D03*
X181612500Y-81682500D03*
X182012500Y-81682500D03*
X182412500Y-81682500D03*
X182812500Y-81682500D03*
X183212500Y-81682500D03*
D37*
X180612500Y-85120000D03*
%TD*%
D22*
%TO.C,C20*%
X175587500Y-82920000D03*
X174037500Y-82920000D03*
%TD*%
D18*
%TO.C,R2*%
X198202500Y-91045000D03*
X198202500Y-89395000D03*
%TD*%
D22*
%TO.C,C13*%
X175562500Y-78320000D03*
X174012500Y-78320000D03*
%TD*%
D38*
%TO.C,X1*%
X186656003Y-93307868D03*
X185100368Y-94863503D03*
X183968997Y-93732132D03*
X185524632Y-92176497D03*
%TD*%
D39*
%TO.C,C11*%
X183760508Y-96068008D03*
X182664492Y-94971992D03*
%TD*%
D33*
%TO.C,R6*%
X200112500Y-128395000D03*
X200112500Y-130045000D03*
%TD*%
D40*
%TO.C,U1*%
X140512500Y-79270000D03*
X138212500Y-79270000D03*
X135912500Y-79270000D03*
D41*
X138212500Y-72970000D03*
%TD*%
D24*
%TO.C,R9*%
X174887500Y-75370000D03*
X176537500Y-75370000D03*
%TD*%
D27*
%TO.C,C18*%
X181112500Y-78195000D03*
X181112500Y-76645000D03*
%TD*%
D26*
%TO.C,RN5*%
X177212500Y-102220000D03*
X177212500Y-103560000D03*
X177212500Y-104880000D03*
X177212500Y-106220000D03*
X174212500Y-106220000D03*
X174212500Y-104880000D03*
X174212500Y-103560000D03*
X174212500Y-102220000D03*
%TD*%
D17*
%TO.C,C14*%
X178312500Y-90745000D03*
X178312500Y-92295000D03*
%TD*%
D34*
%TO.C,U3*%
X165437500Y-99775000D03*
X165437500Y-101045000D03*
X165437500Y-102315000D03*
X165437500Y-103585000D03*
X165437500Y-104855000D03*
X165437500Y-106125000D03*
X165437500Y-107395000D03*
X165437500Y-108665000D03*
X160487500Y-108665000D03*
X160487500Y-107395000D03*
X160487500Y-106125000D03*
X160487500Y-104855000D03*
X160487500Y-103585000D03*
X160487500Y-102315000D03*
X160487500Y-101045000D03*
X160487500Y-99775000D03*
%TD*%
D31*
%TO.C,R12*%
X145737500Y-70720000D03*
X144087500Y-70720000D03*
%TD*%
D28*
%TO.C,C7*%
X133212500Y-79295000D03*
X133212500Y-76345000D03*
%TD*%
D42*
%TO.C,U7*%
X193757400Y-73615000D03*
X193757400Y-74885000D03*
X193757400Y-76155000D03*
X193757400Y-77425000D03*
X186467600Y-77425000D03*
X186467600Y-76155000D03*
X186467600Y-74885000D03*
X186467600Y-73615000D03*
%TD*%
D26*
%TO.C,RN1*%
X138397500Y-102220000D03*
X138397500Y-103560000D03*
X138397500Y-104880000D03*
X138397500Y-106220000D03*
X135397500Y-106220000D03*
X135397500Y-104880000D03*
X135397500Y-103560000D03*
X135397500Y-102220000D03*
%TD*%
D43*
%TO.C,J5*%
X199312500Y-78421000D03*
D44*
X197312500Y-78421000D03*
%TD*%
D22*
%TO.C,C21*%
X175587500Y-85720000D03*
X174037500Y-85720000D03*
%TD*%
D27*
%TO.C,C2*%
X177512500Y-99495000D03*
X177512500Y-97945000D03*
%TD*%
D22*
%TO.C,C23*%
X175587500Y-81420000D03*
X174037500Y-81420000D03*
%TD*%
D17*
%TO.C,C24*%
X184412500Y-73720000D03*
X184412500Y-75270000D03*
%TD*%
D34*
%TO.C,U2*%
X145782500Y-99775000D03*
X145782500Y-101045000D03*
X145782500Y-102315000D03*
X145782500Y-103585000D03*
X145782500Y-104855000D03*
X145782500Y-106125000D03*
X145782500Y-107395000D03*
X145782500Y-108665000D03*
X140832500Y-108665000D03*
X140832500Y-107395000D03*
X140832500Y-106125000D03*
X140832500Y-104855000D03*
X140832500Y-103585000D03*
X140832500Y-102315000D03*
X140832500Y-101045000D03*
X140832500Y-99775000D03*
%TD*%
D32*
%TO.C,U5*%
X198362500Y-126170000D03*
X198362500Y-125220000D03*
X198362500Y-124270000D03*
X200662500Y-124270000D03*
X200662500Y-125220000D03*
X200662500Y-126170000D03*
%TD*%
D26*
%TO.C,RN2*%
X148407500Y-106120000D03*
X148407500Y-104780000D03*
X148407500Y-103460000D03*
X148407500Y-102120000D03*
X151407500Y-102120000D03*
X151407500Y-103460000D03*
X151407500Y-104780000D03*
X151407500Y-106120000D03*
%TD*%
D24*
%TO.C,R13*%
X147787500Y-70720000D03*
X149437500Y-70720000D03*
%TD*%
D45*
%TO.C,S16*%
X190382500Y-112532500D03*
D46*
X191652500Y-109992500D03*
D47*
X195462500Y-112532500D03*
D46*
X198002500Y-107452500D03*
D45*
X200542500Y-112532500D03*
D48*
X188052500Y-109992500D03*
X201477500Y-107452500D03*
%TD*%
D33*
%TO.C,R7*%
X176812500Y-90695000D03*
X176812500Y-92345000D03*
%TD*%
D45*
%TO.C,S14*%
X181492500Y-112532500D03*
D46*
X180222500Y-115072500D03*
D47*
X176412500Y-112532500D03*
D46*
X173872500Y-117612500D03*
D45*
X171332500Y-112532500D03*
D48*
X183822500Y-115072500D03*
X170397500Y-117612500D03*
%TD*%
D25*
%TO.C,C19*%
X185837500Y-82520000D03*
X187387500Y-82520000D03*
%TD*%
D49*
%TO.C,H1*%
X151762500Y-77520000D03*
%TD*%
D43*
%TO.C,J6*%
X173062500Y-92170000D03*
D44*
X171062500Y-92170000D03*
%TD*%
D50*
%TO.C,SW1*%
X153706500Y-68657500D03*
X149706500Y-68657500D03*
X147706500Y-68657500D03*
X145706500Y-68657500D03*
D51*
X156006500Y-68657500D03*
X143406500Y-68657500D03*
%TD*%
D25*
%TO.C,C26*%
X196737500Y-128320000D03*
X198287500Y-128320000D03*
%TD*%
%TO.C,C29*%
X202525200Y-126193320D03*
X204075200Y-126193320D03*
%TD*%
D45*
%TO.C,S1*%
X143392500Y-112532500D03*
D46*
X142122500Y-115072500D03*
D47*
X138312500Y-112532500D03*
D46*
X135772500Y-117612500D03*
D45*
X133232500Y-112532500D03*
D48*
X145722500Y-115072500D03*
X132297500Y-117612500D03*
%TD*%
D17*
%TO.C,C22*%
X179812500Y-90745000D03*
X179812500Y-92295000D03*
%TD*%
D26*
%TO.C,RN3*%
X157147500Y-102220000D03*
X157147500Y-103560000D03*
X157147500Y-104880000D03*
X157147500Y-106220000D03*
X154147500Y-106220000D03*
X154147500Y-104880000D03*
X154147500Y-103560000D03*
X154147500Y-102220000D03*
%TD*%
D52*
%TO.C,OLED1*%
X135287500Y-82150000D03*
D53*
X135287500Y-84690000D03*
X135287500Y-87230000D03*
X135287500Y-89770000D03*
X135287500Y-92310000D03*
X135287500Y-94850000D03*
X135287500Y-97390000D03*
%TD*%
D20*
%TO.C,J3*%
X204250000Y-116450000D03*
X204250000Y-118950000D03*
X204250000Y-121450000D03*
X204250000Y-123950000D03*
%TD*%
D45*
%TO.C,S8*%
X162442500Y-112532500D03*
D46*
X161172500Y-115072500D03*
D47*
X157362500Y-112532500D03*
D46*
X154822500Y-117612500D03*
D45*
X152282500Y-112532500D03*
D48*
X164772500Y-115072500D03*
X151347500Y-117612500D03*
%TD*%
D49*
%TO.C,H5*%
X203368750Y-74720000D03*
%TD*%
%LPD*%
M02*
