M48
; DRILL file {KiCad 8.0.4} date 2025-09-04T17:26:35-0500
; FORMAT={-:-/ absolute / inch / decimal}
; #@! TF.CreationDate,2025-09-04T17:26:35-05:00
; #@! TF.GenerationSoftware,Kicad,Pcbnew,8.0.4
; #@! TF.FileFunction,Plated,1,2,PTH
FMAT,2
INCH
; #@! TA.AperFunction,Plated,PTH,ViaDrill
T1C0.0118
; #@! TA.AperFunction,Plated,PTH,ComponentDrill
T2C0.0295
; #@! TA.AperFunction,Plated,PTH,ComponentDrill
T3C0.0315
; #@! TA.AperFunction,Plated,PTH,ComponentDrill
T4C0.0394
; #@! TA.AperFunction,Plated,PTH,ComponentDrill
T5C0.0571
; #@! TA.AperFunction,Plated,PTH,ComponentDrill
T6C0.0866
%
G90
G05
T1
X5.1796Y-4.9043
X5.1895Y-3.0047
X5.2092Y-4.548
X5.219Y-4.9043
X5.2584Y-4.9043
X5.3253Y-4.2488
X5.3469Y-2.8748
X5.3588Y-4.8748
X5.3883Y-4.1051
X5.4414Y-3.0461
X5.4887Y-4.0781
X5.4887Y-4.1281
X5.534Y-2.8728
X5.6147Y-3.9772
X5.6147Y-4.0362
X5.6422Y-2.7882
X5.6757Y-3.485
X5.6757Y-3.5874
X5.6757Y-3.6898
X5.6757Y-3.7902
X5.6757Y-4.2252
X5.6816Y-4.9024
X5.6973Y-3.0047
X5.7151Y-3.485
X5.7151Y-3.5874
X5.7151Y-3.6898
X5.7151Y-3.7902
X5.717Y-3.1366
X5.7288Y-4.3394
X5.7446Y-2.8236
X5.7544Y-3.485
X5.7544Y-3.5874
X5.7544Y-3.6898
X5.7544Y-3.7902
X5.7564Y-3.1366
X5.7958Y-3.1366
X5.7997Y-4.1252
X5.8036Y-3.0362
X5.8036Y-4.0732
X5.8469Y-2.8157
X5.9021Y-5.0008
X5.9119Y-2.7716
X6.0123Y-3.8986
X6.0143Y-4.0244
X6.0212Y-3.5904
X6.03Y-4.2291
X6.0694Y-4.2291
X6.1088Y-4.2291
X6.1324Y-3.3571
X6.1718Y-3.3571
X6.2111Y-3.3571
X6.2406Y-4.1281
X6.2406Y-4.1781
X6.2485Y-4.0781
X6.282Y-3.4535
X6.3824Y-3.9781
X6.4257Y-3.4594
X6.4336Y-4.9063
X6.4611Y-4.2781
X6.5399Y-4.4339
X6.591Y-4.1781
X6.6225Y-4.1281
X6.6324Y-3.4358
X6.6718Y-4.2626
X6.6777Y-3.048
X6.7111Y-4.2626
X6.7131Y-3.048
X6.721Y-3.7508
X6.7505Y-4.2626
X6.7603Y-3.7508
X6.78Y-4.9535
X6.7997Y-3.7508
X6.8115Y-3.3787
X6.8194Y-3.1425
X6.8233Y-2.8787
X6.8233Y-3.9171
X6.8233Y-4.0772
X6.8509Y-3.174
X6.8509Y-3.3039
X6.8903Y-3.3669
X6.8903Y-3.5126
X6.9103Y-3.3039
X6.9178Y-4.2409
X6.9296Y-3.5717
X6.9395Y-3.5185
X6.9832Y-4.2748
X6.9986Y-3.6207
X6.9987Y-3.5853
X7.0084Y-4.1742
X7.0123Y-3.0874
X7.0123Y-4.1242
X7.0133Y-3.1593
X7.0556Y-3.5992
X7.0556Y-3.6701
X7.0635Y-3.3039
X7.0635Y-3.3512
X7.0635Y-3.3984
X7.1107Y-3.3039
X7.1107Y-3.3984
X7.1147Y-3.6346
X7.1265Y-4.115
X7.1304Y-2.9732
X7.1304Y-3.9732
X7.1354Y-3.1238
X7.1422Y-4.052
X7.1501Y-3.0559
X7.154Y-3.3039
X7.154Y-3.3512
X7.154Y-3.3984
X7.1594Y-3.5456
X7.1816Y-5.052
X7.1875Y-2.9791
X7.2013Y-3.8118
X7.2052Y-4.2567
X7.2288Y-2.9339
X7.2485Y-2.9929
X7.2721Y-3.5992
X7.2861Y-3.2777
X7.2879Y-3.8039
X7.31Y-3.3033
X7.3174Y-3.2232
X7.3273Y-4.0949
X7.3322Y-3.5038
X7.345Y-3.3315
X7.3529Y-4.9673
X7.3607Y-3.5421
X7.3607Y-3.5736
X7.3607Y-4.4909
X7.3784Y-3.2173
X7.3863Y-4.9299
X7.4296Y-3.7921
X7.4729Y-4.739
X7.4729Y-4.8748
X7.4847Y-3.8394
X7.4926Y-2.9496
X7.4966Y-3.9181
X7.5262Y-4.6937
X7.5262Y-4.8701
X7.532Y-2.9496
X7.5359Y-3.6425
X7.5544Y-5.0827
X7.5576Y-5.0441
X7.5714Y-2.9496
X7.5753Y-3.0482
X7.5778Y-4.9549
X7.6186Y-4.7941
X7.6186Y-4.863
X7.6186Y-3.674
X7.6216Y-5.049
X7.6344Y-4.2134
X7.658Y-4.9299
X7.7111Y-4.8492
X7.7131Y-4.6701
X7.7131Y-5.174
X7.7406Y-4.6189
X7.784Y-5.0047
X7.784Y-5.0904
X7.7958Y-3.8354
X7.8036Y-3.6425
X7.8095Y-4.8551
X7.814Y-5.0771
X7.8351Y-3.8354
X7.8469Y-4.9299
X7.8489Y-4.9673
X7.8597Y-5.0264
X7.8686Y-4.2941
X7.8745Y-3.8354
X7.8804Y-3.1937
X7.8981Y-3.6701
X7.906Y-4.6189
X7.906Y-4.6583
X7.906Y-4.6976
X7.9198Y-3.1937
X7.9592Y-3.1937
X7.9729Y-4.928
X8.0714Y-4.9693
T2
X5.7365Y-2.7031
X5.8152Y-2.7031
X5.894Y-2.7031
X6.0514Y-2.7031
T3
X5.0994Y-4.5846
X5.0994Y-4.6831
X5.0994Y-4.7815
X5.0994Y-4.8799
X6.7347Y-3.6287
X6.8135Y-3.6287
X7.7682Y-3.0874
X7.8469Y-3.0874
X8.0413Y-4.5846
X8.0413Y-4.6831
X8.0413Y-4.7815
X8.0413Y-4.8799
T4
X5.3263Y-3.2343
X5.3263Y-3.3343
X5.3263Y-3.4343
X5.3263Y-3.5343
X5.3263Y-3.6343
X5.3263Y-3.7343
X5.3263Y-3.8343
T5
X5.6459Y-2.7031
X6.142Y-2.7031
T6
X5.9749Y-3.052
X8.0066Y-2.9417
M30
